G04 #@! TF.GenerationSoftware,KiCad,Pcbnew,5.1.9-1.fc33*
G04 #@! TF.CreationDate,2021-01-08T09:44:42+01:00*
G04 #@! TF.ProjectId,reDIP-sx,72654449-502d-4737-982e-6b696361645f,0.1*
G04 #@! TF.SameCoordinates,PX5e28010PY8011a50*
G04 #@! TF.FileFunction,Other,Fab,Top*
%FSLAX46Y46*%
G04 Gerber Fmt 4.6, Leading zero omitted, Abs format (unit mm)*
G04 Created by KiCad (PCBNEW 5.1.9-1.fc33) date 2021-01-08 09:44:42*
%MOMM*%
%LPD*%
G01*
G04 APERTURE LIST*
%ADD10C,0.100000*%
%ADD11C,0.040000*%
%ADD12C,0.150000*%
%ADD13C,0.030000*%
%ADD14C,0.060000*%
%ADD15C,0.110000*%
%ADD16C,0.075000*%
G04 APERTURE END LIST*
D10*
X6990208Y25998076D02*
X6778076Y26210208D01*
X6778076Y26210208D02*
X7202340Y26634472D01*
X7202340Y26634472D02*
X7414472Y26422340D01*
X7414472Y26422340D02*
X6990208Y25998076D01*
X12360000Y40640000D02*
X5420000Y40640000D01*
X13360000Y34240000D02*
X4420000Y34240000D01*
X4420000Y41140000D02*
X4420000Y34240000D01*
X13360000Y41140000D02*
X13360000Y34240000D01*
X13360000Y41140000D02*
X4420000Y41140000D01*
X3920000Y30770000D02*
X4170000Y31020000D01*
X4920000Y31020000D02*
X4170000Y31020000D01*
X4920000Y30020000D02*
X4920000Y31020000D01*
X3920000Y30020000D02*
X4920000Y30020000D01*
X3920000Y30770000D02*
X3920000Y30020000D01*
X6230000Y30770000D02*
X6480000Y31020000D01*
X7230000Y31020000D02*
X6480000Y31020000D01*
X7230000Y30020000D02*
X7230000Y31020000D01*
X6230000Y30020000D02*
X7230000Y30020000D01*
X6230000Y30770000D02*
X6230000Y30020000D01*
X2410000Y12360000D02*
X3670000Y12360000D01*
X3670000Y12360000D02*
X3670000Y9820000D01*
X3670000Y9820000D02*
X2410000Y9820000D01*
X2410000Y9820000D02*
X2410000Y12360000D01*
X13385000Y1755000D02*
X13685000Y1755000D01*
X13385000Y2555000D02*
X13685000Y2555000D01*
X13385000Y2555000D02*
X13385000Y1755000D01*
X13685000Y3755000D02*
X11285000Y3755000D01*
X13685000Y2555000D02*
X13685000Y3755000D01*
X10485000Y555000D02*
X10485000Y2955000D01*
X10485000Y555000D02*
X13685000Y555000D01*
X13685000Y555000D02*
X13685000Y1755000D01*
X10485000Y2955000D02*
X11285000Y3745000D01*
X11695000Y16620000D02*
X11695000Y15620000D01*
X13645000Y15620000D02*
X11695000Y15620000D01*
X13395000Y16620000D02*
X11695000Y16620000D01*
X13645000Y16370000D02*
X13645000Y15620000D01*
X13645000Y16370000D02*
X13395000Y16620000D01*
X13132641Y22297107D02*
X13132641Y20882893D01*
X8890000Y26539747D02*
X13132641Y22297107D01*
X3940253Y21590000D02*
X8890000Y26539747D01*
X8890000Y16640253D02*
X3940253Y21590000D01*
X13132641Y20882893D02*
X8890000Y16640253D01*
X11550000Y31960000D02*
X11260000Y32250000D01*
X11260000Y32250000D02*
X11260000Y33120000D01*
X12420000Y31960000D02*
X12420000Y33120000D01*
X12420000Y31960000D02*
X11550000Y31960000D01*
X12420000Y33120000D02*
X11260000Y33120000D01*
X5420000Y30780000D02*
X5720000Y30780000D01*
X5720000Y30780000D02*
X5720000Y30180000D01*
X5720000Y30180000D02*
X5420000Y30180000D01*
X5420000Y30180000D02*
X5420000Y30780000D01*
X3120000Y30780000D02*
X3420000Y30780000D01*
X3420000Y30780000D02*
X3420000Y30180000D01*
X3420000Y30180000D02*
X3120000Y30180000D01*
X3120000Y30180000D02*
X3120000Y30780000D01*
X11749670Y25449010D02*
X10158680Y27040000D01*
X10158680Y27040000D02*
X12280000Y29161320D01*
X12280000Y29161320D02*
X14401320Y27040000D01*
X14401320Y27040000D02*
X12810330Y25449010D01*
X12810330Y25449010D02*
X11749670Y25449010D01*
X11630000Y4610000D02*
X11030000Y4610000D01*
X11630000Y4910000D02*
X11630000Y4610000D01*
X11030000Y4910000D02*
X11630000Y4910000D01*
X11030000Y4610000D02*
X11030000Y4910000D01*
X3704176Y8855497D02*
X4156725Y8855497D01*
X4849689Y8162532D02*
X4156725Y8855497D01*
X3704176Y8855497D02*
X2728369Y7879690D01*
X4849689Y8162532D02*
X3647608Y6960451D01*
X3647608Y6960451D02*
X2728369Y7879690D01*
X3850000Y32260000D02*
X3250000Y32260000D01*
X3850000Y32160000D02*
X3250000Y32160000D01*
X3850000Y33060000D02*
X3850000Y32060000D01*
X3250000Y33060000D02*
X3850000Y33060000D01*
X3250000Y32060000D02*
X3250000Y33060000D01*
X3850000Y32060000D02*
X3250000Y32060000D01*
X5770000Y32260000D02*
X5170000Y32260000D01*
X5770000Y32160000D02*
X5170000Y32160000D01*
X5770000Y33060000D02*
X5770000Y32060000D01*
X5170000Y33060000D02*
X5770000Y33060000D01*
X5170000Y32060000D02*
X5170000Y33060000D01*
X5770000Y32060000D02*
X5170000Y32060000D01*
X7980000Y31271500D02*
X7980000Y30221500D01*
X9780000Y31271500D02*
X7980000Y31271500D01*
X9780000Y29871500D02*
X9780000Y31271500D01*
X8330000Y29871500D02*
X9780000Y29871500D01*
X7980000Y30221500D02*
X8330000Y29871500D01*
X10240000Y33090000D02*
X10540000Y32840000D01*
X10540000Y32840000D02*
X10540000Y32090000D01*
X10540000Y32090000D02*
X7240000Y32090000D01*
X7240000Y32090000D02*
X7240000Y33090000D01*
X7240000Y33090000D02*
X10240000Y33090000D01*
X8860000Y29170000D02*
X9160000Y29170000D01*
X9160000Y29170000D02*
X9160000Y28570000D01*
X9160000Y28570000D02*
X8860000Y28570000D01*
X8860000Y28570000D02*
X8860000Y29170000D01*
X11018198Y5603934D02*
X10806066Y5391802D01*
X10806066Y5391802D02*
X10381802Y5816066D01*
X10381802Y5816066D02*
X10593934Y6028198D01*
X10593934Y6028198D02*
X11018198Y5603934D01*
X5792183Y16352792D02*
X4519391Y15080000D01*
X7064975Y15080000D02*
X5792183Y16352792D01*
X7064975Y15080000D02*
X6110381Y14125406D01*
X5473985Y14125406D02*
X6110381Y14125406D01*
X4519391Y15080000D02*
X5473985Y14125406D01*
X5354975Y13380000D02*
X4082183Y14652792D01*
X4082183Y12107208D02*
X5354975Y13380000D01*
X4082183Y12107208D02*
X3127589Y13061802D01*
X3127589Y13698198D02*
X3127589Y13061802D01*
X4082183Y14652792D02*
X3127589Y13698198D01*
X3044107Y16322513D02*
X3623934Y16902341D01*
X3623934Y16902341D02*
X4062341Y16463934D01*
X4062341Y16463934D02*
X3341092Y15742685D01*
X3341092Y15742685D02*
X3044107Y16039670D01*
X3044107Y16322513D02*
X3044107Y16039670D01*
X8182893Y6447359D02*
X3940253Y10690000D01*
X3940253Y10690000D02*
X8890000Y15639747D01*
X8890000Y15639747D02*
X13839747Y10690000D01*
X13839747Y10690000D02*
X9597107Y6447359D01*
X9597107Y6447359D02*
X8182893Y6447359D01*
X7550208Y1588076D02*
X7338076Y1800208D01*
X7338076Y1800208D02*
X7762340Y2224472D01*
X7762340Y2224472D02*
X7974472Y2012340D01*
X7974472Y2012340D02*
X7550208Y1588076D01*
X3618680Y5067107D02*
X5740000Y7188427D01*
X5740000Y7188427D02*
X8568427Y4360000D01*
X8568427Y4360000D02*
X5740000Y1531573D01*
X5740000Y1531573D02*
X3618680Y3652893D01*
X3618680Y3652893D02*
X3618680Y5067107D01*
X10580000Y30270000D02*
X10280000Y30270000D01*
X10280000Y30270000D02*
X10280000Y30870000D01*
X10280000Y30870000D02*
X10580000Y30870000D01*
X10580000Y30870000D02*
X10580000Y30270000D01*
X14170000Y30690000D02*
X14170000Y30990000D01*
X14170000Y30990000D02*
X14770000Y30990000D01*
X14770000Y30990000D02*
X14770000Y30690000D01*
X14770000Y30690000D02*
X14170000Y30690000D01*
X7120000Y15940000D02*
X7120000Y16240000D01*
X7120000Y16240000D02*
X7720000Y16240000D01*
X7720000Y16240000D02*
X7720000Y15940000D01*
X7720000Y15940000D02*
X7120000Y15940000D01*
X4682340Y24114472D02*
X4894472Y23902340D01*
X4894472Y23902340D02*
X4470208Y23478076D01*
X4470208Y23478076D02*
X4258076Y23690208D01*
X4258076Y23690208D02*
X4682340Y24114472D01*
X6680000Y31950000D02*
X6180000Y31950000D01*
X6180000Y31950000D02*
X6180000Y32950000D01*
X6180000Y32950000D02*
X6680000Y32950000D01*
X6680000Y32950000D02*
X6680000Y31950000D01*
X4760000Y31950000D02*
X4260000Y31950000D01*
X4260000Y31950000D02*
X4260000Y32950000D01*
X4260000Y32950000D02*
X4760000Y32950000D01*
X4760000Y32950000D02*
X4760000Y31950000D01*
X14770000Y30290000D02*
X14770000Y29990000D01*
X14770000Y29990000D02*
X14170000Y29990000D01*
X14170000Y29990000D02*
X14170000Y30290000D01*
X14170000Y30290000D02*
X14770000Y30290000D01*
X14770000Y29590000D02*
X14770000Y29290000D01*
X14770000Y29290000D02*
X14170000Y29290000D01*
X14170000Y29290000D02*
X14170000Y29590000D01*
X14170000Y29590000D02*
X14770000Y29590000D01*
X4192114Y16034246D02*
X4404246Y15822114D01*
X4404246Y15822114D02*
X3979982Y15397850D01*
X3979982Y15397850D02*
X3767850Y15609982D01*
X3767850Y15609982D02*
X4192114Y16034246D01*
X13120000Y32290000D02*
X12820000Y32290000D01*
X12820000Y32290000D02*
X12820000Y32890000D01*
X12820000Y32890000D02*
X13120000Y32890000D01*
X13120000Y32890000D02*
X13120000Y32290000D01*
X9560000Y29170000D02*
X9860000Y29170000D01*
X9860000Y29170000D02*
X9860000Y28570000D01*
X9860000Y28570000D02*
X9560000Y28570000D01*
X9560000Y28570000D02*
X9560000Y29170000D01*
X5216066Y18678198D02*
X5428198Y18466066D01*
X5428198Y18466066D02*
X5003934Y18041802D01*
X5003934Y18041802D02*
X4791802Y18253934D01*
X4791802Y18253934D02*
X5216066Y18678198D01*
X12764472Y7157660D02*
X12552340Y6945528D01*
X12552340Y6945528D02*
X12128076Y7369792D01*
X12128076Y7369792D02*
X12340208Y7581924D01*
X12340208Y7581924D02*
X12764472Y7157660D01*
X13264472Y7657660D02*
X13052340Y7445528D01*
X13052340Y7445528D02*
X12628076Y7869792D01*
X12628076Y7869792D02*
X12840208Y8081924D01*
X12840208Y8081924D02*
X13264472Y7657660D01*
X3180000Y5965000D02*
X2880000Y5965000D01*
X2880000Y5965000D02*
X2880000Y6565000D01*
X2880000Y6565000D02*
X3180000Y6565000D01*
X3180000Y6565000D02*
X3180000Y5965000D01*
X11990000Y30270000D02*
X11690000Y30270000D01*
X11690000Y30270000D02*
X11690000Y30870000D01*
X11690000Y30870000D02*
X11990000Y30870000D01*
X11990000Y30870000D02*
X11990000Y30270000D01*
X13570208Y12558076D02*
X13358076Y12770208D01*
X13358076Y12770208D02*
X13782340Y13194472D01*
X13782340Y13194472D02*
X13994472Y12982340D01*
X13994472Y12982340D02*
X13570208Y12558076D01*
X13070208Y13058076D02*
X12858076Y13270208D01*
X12858076Y13270208D02*
X13282340Y13694472D01*
X13282340Y13694472D02*
X13494472Y13482340D01*
X13494472Y13482340D02*
X13070208Y13058076D01*
X14250000Y9160000D02*
X14550000Y9160000D01*
X14550000Y9160000D02*
X14550000Y8560000D01*
X14550000Y8560000D02*
X14250000Y8560000D01*
X14250000Y8560000D02*
X14250000Y9160000D01*
X14890000Y21290000D02*
X14590000Y21290000D01*
X14590000Y21290000D02*
X14590000Y21890000D01*
X14590000Y21890000D02*
X14890000Y21890000D01*
X14890000Y21890000D02*
X14890000Y21290000D01*
X3967886Y23985754D02*
X3755754Y24197886D01*
X3755754Y24197886D02*
X4180018Y24622150D01*
X4180018Y24622150D02*
X4392150Y24410018D01*
X4392150Y24410018D02*
X3967886Y23985754D01*
X5706066Y18178198D02*
X5918198Y17966066D01*
X5918198Y17966066D02*
X5493934Y17541802D01*
X5493934Y17541802D02*
X5281802Y17753934D01*
X5281802Y17753934D02*
X5706066Y18178198D01*
X4410330Y18743223D02*
X4056777Y18389670D01*
X4056777Y18389670D02*
X3349670Y19096777D01*
X3349670Y19096777D02*
X3703223Y19450330D01*
X3703223Y19450330D02*
X4410330Y18743223D01*
X4928198Y19243934D02*
X4716066Y19031802D01*
X4716066Y19031802D02*
X4291802Y19456066D01*
X4291802Y19456066D02*
X4503934Y19668198D01*
X4503934Y19668198D02*
X4928198Y19243934D01*
X14533934Y23421802D02*
X14321802Y23633934D01*
X14321802Y23633934D02*
X14746066Y24058198D01*
X14746066Y24058198D02*
X14958198Y23846066D01*
X14958198Y23846066D02*
X14533934Y23421802D01*
X14033934Y23921802D02*
X13821802Y24133934D01*
X13821802Y24133934D02*
X14246066Y24558198D01*
X14246066Y24558198D02*
X14458198Y24346066D01*
X14458198Y24346066D02*
X14033934Y23921802D01*
X13540208Y24418076D02*
X13328076Y24630208D01*
X13328076Y24630208D02*
X13752340Y25054472D01*
X13752340Y25054472D02*
X13964472Y24842340D01*
X13964472Y24842340D02*
X13540208Y24418076D01*
X14990000Y28090000D02*
X14690000Y28090000D01*
X14690000Y28090000D02*
X14690000Y28690000D01*
X14690000Y28690000D02*
X14990000Y28690000D01*
X14990000Y28690000D02*
X14990000Y28090000D01*
X11280000Y30270000D02*
X10980000Y30270000D01*
X10980000Y30270000D02*
X10980000Y30870000D01*
X10980000Y30870000D02*
X11280000Y30870000D01*
X11280000Y30870000D02*
X11280000Y30270000D01*
X14770000Y31690000D02*
X14770000Y31390000D01*
X14770000Y31390000D02*
X14170000Y31390000D01*
X14170000Y31390000D02*
X14170000Y31690000D01*
X14170000Y31690000D02*
X14770000Y31690000D01*
X3967383Y1956170D02*
X3613830Y1602617D01*
X3613830Y1602617D02*
X2906723Y2309724D01*
X2906723Y2309724D02*
X3260276Y2663277D01*
X3260276Y2663277D02*
X3967383Y1956170D01*
X14160000Y32390000D02*
X14760000Y32390000D01*
X14160000Y32090000D02*
X14160000Y32390000D01*
X14760000Y32090000D02*
X14160000Y32090000D01*
X14760000Y32390000D02*
X14760000Y32090000D01*
X12700000Y30270000D02*
X12400000Y30270000D01*
X12400000Y30270000D02*
X12400000Y30870000D01*
X12400000Y30870000D02*
X12700000Y30870000D01*
X12700000Y30870000D02*
X12700000Y30270000D01*
X14770000Y32790000D02*
X14170000Y32790000D01*
X14770000Y33090000D02*
X14770000Y32790000D01*
X14170000Y33090000D02*
X14770000Y33090000D01*
X14170000Y32790000D02*
X14170000Y33090000D01*
X14321802Y25336066D02*
X14533934Y25548198D01*
X14533934Y25548198D02*
X14958198Y25123934D01*
X14958198Y25123934D02*
X14746066Y24911802D01*
X14746066Y24911802D02*
X14321802Y25336066D01*
X13125528Y8362340D02*
X13337660Y8574472D01*
X13337660Y8574472D02*
X13761924Y8150208D01*
X13761924Y8150208D02*
X13549792Y7938076D01*
X13549792Y7938076D02*
X13125528Y8362340D01*
X10975528Y6222340D02*
X11187660Y6434472D01*
X11187660Y6434472D02*
X11611924Y6010208D01*
X11611924Y6010208D02*
X11399792Y5798076D01*
X11399792Y5798076D02*
X10975528Y6222340D01*
X12196188Y6010259D02*
X11489081Y6717366D01*
X12549741Y6363812D02*
X12196188Y6010259D01*
X11842634Y7070919D02*
X12549741Y6363812D01*
X11489081Y6717366D02*
X11842634Y7070919D01*
X2900000Y21890000D02*
X3200000Y21890000D01*
X3200000Y21890000D02*
X3200000Y21290000D01*
X3200000Y21290000D02*
X2900000Y21290000D01*
X2900000Y21290000D02*
X2900000Y21890000D01*
D11*
X6581769Y26603495D02*
X6438664Y26628749D01*
X6480753Y26502480D02*
X6303977Y26679256D01*
X6371320Y26746600D01*
X6396574Y26755018D01*
X6413410Y26755018D01*
X6438664Y26746600D01*
X6463918Y26721346D01*
X6472336Y26696092D01*
X6472336Y26679256D01*
X6463918Y26654003D01*
X6396574Y26586659D01*
X6750128Y26771854D02*
X6649112Y26670838D01*
X6699620Y26721346D02*
X6522843Y26898123D01*
X6531261Y26856033D01*
X6531261Y26822361D01*
X6522843Y26797107D01*
X6657530Y26999138D02*
X6657530Y27015974D01*
X6665948Y27041228D01*
X6708038Y27083317D01*
X6733292Y27091735D01*
X6750128Y27091735D01*
X6775381Y27083317D01*
X6792217Y27066482D01*
X6809053Y27032810D01*
X6809053Y26830779D01*
X6918486Y26940212D01*
D12*
X8556666Y38087620D02*
X8556666Y37373334D01*
X8509047Y37230477D01*
X8413809Y37135239D01*
X8270952Y37087620D01*
X8175714Y37087620D01*
X9556666Y37087620D02*
X8985238Y37087620D01*
X9270952Y37087620D02*
X9270952Y38087620D01*
X9175714Y37944762D01*
X9080476Y37849524D01*
X8985238Y37801905D01*
D11*
X7518571Y40459048D02*
X7518571Y40859048D01*
X7670952Y40859048D01*
X7709047Y40840000D01*
X7728095Y40820953D01*
X7747142Y40782858D01*
X7747142Y40725715D01*
X7728095Y40687620D01*
X7709047Y40668572D01*
X7670952Y40649524D01*
X7518571Y40649524D01*
X8147142Y40497143D02*
X8128095Y40478096D01*
X8070952Y40459048D01*
X8032857Y40459048D01*
X7975714Y40478096D01*
X7937619Y40516191D01*
X7918571Y40554286D01*
X7899523Y40630477D01*
X7899523Y40687620D01*
X7918571Y40763810D01*
X7937619Y40801905D01*
X7975714Y40840000D01*
X8032857Y40859048D01*
X8070952Y40859048D01*
X8128095Y40840000D01*
X8147142Y40820953D01*
X8451904Y40668572D02*
X8509047Y40649524D01*
X8528095Y40630477D01*
X8547142Y40592381D01*
X8547142Y40535239D01*
X8528095Y40497143D01*
X8509047Y40478096D01*
X8470952Y40459048D01*
X8318571Y40459048D01*
X8318571Y40859048D01*
X8451904Y40859048D01*
X8490000Y40840000D01*
X8509047Y40820953D01*
X8528095Y40782858D01*
X8528095Y40744762D01*
X8509047Y40706667D01*
X8490000Y40687620D01*
X8451904Y40668572D01*
X8318571Y40668572D01*
X9023333Y40668572D02*
X9156666Y40668572D01*
X9213809Y40459048D02*
X9023333Y40459048D01*
X9023333Y40859048D01*
X9213809Y40859048D01*
X9556666Y40459048D02*
X9556666Y40859048D01*
X9556666Y40478096D02*
X9518571Y40459048D01*
X9442380Y40459048D01*
X9404285Y40478096D01*
X9385238Y40497143D01*
X9366190Y40535239D01*
X9366190Y40649524D01*
X9385238Y40687620D01*
X9404285Y40706667D01*
X9442380Y40725715D01*
X9518571Y40725715D01*
X9556666Y40706667D01*
X9918571Y40725715D02*
X9918571Y40401905D01*
X9899523Y40363810D01*
X9880476Y40344762D01*
X9842380Y40325715D01*
X9785238Y40325715D01*
X9747142Y40344762D01*
X9918571Y40478096D02*
X9880476Y40459048D01*
X9804285Y40459048D01*
X9766190Y40478096D01*
X9747142Y40497143D01*
X9728095Y40535239D01*
X9728095Y40649524D01*
X9747142Y40687620D01*
X9766190Y40706667D01*
X9804285Y40725715D01*
X9880476Y40725715D01*
X9918571Y40706667D01*
X10261428Y40478096D02*
X10223333Y40459048D01*
X10147142Y40459048D01*
X10109047Y40478096D01*
X10090000Y40516191D01*
X10090000Y40668572D01*
X10109047Y40706667D01*
X10147142Y40725715D01*
X10223333Y40725715D01*
X10261428Y40706667D01*
X10280476Y40668572D01*
X10280476Y40630477D01*
X10090000Y40592381D01*
X4229523Y30656905D02*
X4229523Y30454524D01*
X4241428Y30430715D01*
X4253333Y30418810D01*
X4277142Y30406905D01*
X4324761Y30406905D01*
X4348571Y30418810D01*
X4360476Y30430715D01*
X4372380Y30454524D01*
X4372380Y30656905D01*
X4479523Y30633096D02*
X4491428Y30645000D01*
X4515238Y30656905D01*
X4574761Y30656905D01*
X4598571Y30645000D01*
X4610476Y30633096D01*
X4622380Y30609286D01*
X4622380Y30585477D01*
X4610476Y30549762D01*
X4467619Y30406905D01*
X4622380Y30406905D01*
D13*
X6615714Y30602143D02*
X6615714Y30480715D01*
X6622857Y30466429D01*
X6630000Y30459286D01*
X6644285Y30452143D01*
X6672857Y30452143D01*
X6687142Y30459286D01*
X6694285Y30466429D01*
X6701428Y30480715D01*
X6701428Y30602143D01*
X6851428Y30452143D02*
X6765714Y30452143D01*
X6808571Y30452143D02*
X6808571Y30602143D01*
X6794285Y30580715D01*
X6780000Y30566429D01*
X6765714Y30559286D01*
D12*
X2706666Y11637620D02*
X2706666Y10923334D01*
X2659047Y10780477D01*
X2563809Y10685239D01*
X2420952Y10637620D01*
X2325714Y10637620D01*
X3230476Y10637620D02*
X3420952Y10637620D01*
X3516190Y10685239D01*
X3563809Y10732858D01*
X3659047Y10875715D01*
X3706666Y11066191D01*
X3706666Y11447143D01*
X3659047Y11542381D01*
X3611428Y11590000D01*
X3516190Y11637620D01*
X3325714Y11637620D01*
X3230476Y11590000D01*
X3182857Y11542381D01*
X3135238Y11447143D01*
X3135238Y11209048D01*
X3182857Y11113810D01*
X3230476Y11066191D01*
X3325714Y11018572D01*
X3516190Y11018572D01*
X3611428Y11066191D01*
X3659047Y11113810D01*
X3706666Y11209048D01*
D10*
X11268333Y2038334D02*
X11601666Y2038334D01*
X11201666Y1838334D02*
X11435000Y2538334D01*
X11668333Y1838334D01*
X11901666Y2205000D02*
X12135000Y2205000D01*
X12235000Y1838334D02*
X11901666Y1838334D01*
X11901666Y2538334D01*
X12235000Y2538334D01*
X12901666Y1838334D02*
X12501666Y1838334D01*
X12701666Y1838334D02*
X12701666Y2538334D01*
X12635000Y2438334D01*
X12568333Y2371667D01*
X12501666Y2338334D01*
D14*
X12505714Y15748572D02*
X12748571Y15748572D01*
X12777142Y15762858D01*
X12791428Y15777143D01*
X12805714Y15805715D01*
X12805714Y15862858D01*
X12791428Y15891429D01*
X12777142Y15905715D01*
X12748571Y15920000D01*
X12505714Y15920000D01*
X12805714Y16220000D02*
X12805714Y16048572D01*
X12805714Y16134286D02*
X12505714Y16134286D01*
X12548571Y16105715D01*
X12577142Y16077143D01*
X12591428Y16048572D01*
X12505714Y16405715D02*
X12505714Y16434286D01*
X12520000Y16462858D01*
X12534285Y16477143D01*
X12562857Y16491429D01*
X12620000Y16505715D01*
X12691428Y16505715D01*
X12748571Y16491429D01*
X12777142Y16477143D01*
X12791428Y16462858D01*
X12805714Y16434286D01*
X12805714Y16405715D01*
X12791428Y16377143D01*
X12777142Y16362858D01*
X12748571Y16348572D01*
X12691428Y16334286D01*
X12620000Y16334286D01*
X12562857Y16348572D01*
X12534285Y16362858D01*
X12520000Y16377143D01*
X12505714Y16405715D01*
D12*
X7964026Y21438478D02*
X8536446Y20866058D01*
X8637461Y20832386D01*
X8704805Y20832386D01*
X8805820Y20866058D01*
X8940507Y21000745D01*
X8974179Y21101760D01*
X8974179Y21169104D01*
X8940507Y21270119D01*
X8368087Y21842539D01*
X9108866Y21977226D02*
X9007851Y21943554D01*
X8940507Y21943554D01*
X8839492Y21977226D01*
X8805820Y22010897D01*
X8772148Y22111913D01*
X8772148Y22179256D01*
X8805820Y22280271D01*
X8940507Y22414958D01*
X9041522Y22448630D01*
X9108866Y22448630D01*
X9209881Y22414958D01*
X9243553Y22381287D01*
X9277225Y22280271D01*
X9277225Y22212928D01*
X9243553Y22111913D01*
X9108866Y21977226D01*
X9075194Y21876210D01*
X9075194Y21808867D01*
X9108866Y21707852D01*
X9243553Y21573165D01*
X9344568Y21539493D01*
X9411912Y21539493D01*
X9512927Y21573165D01*
X9647614Y21707852D01*
X9681286Y21808867D01*
X9681286Y21876210D01*
X9647614Y21977226D01*
X9512927Y22111913D01*
X9411912Y22145584D01*
X9344568Y22145584D01*
X9243553Y22111913D01*
D11*
X11730476Y32387620D02*
X11892380Y32387620D01*
X11911428Y32397143D01*
X11920952Y32406667D01*
X11930476Y32425715D01*
X11930476Y32463810D01*
X11920952Y32482858D01*
X11911428Y32492381D01*
X11892380Y32501905D01*
X11730476Y32501905D01*
X11730476Y32578096D02*
X11730476Y32711429D01*
X11930476Y32625715D01*
X6139285Y30438334D02*
X6151190Y30426429D01*
X6163095Y30390715D01*
X6163095Y30366905D01*
X6151190Y30331191D01*
X6127380Y30307381D01*
X6103571Y30295477D01*
X6055952Y30283572D01*
X6020238Y30283572D01*
X5972619Y30295477D01*
X5948809Y30307381D01*
X5925000Y30331191D01*
X5913095Y30366905D01*
X5913095Y30390715D01*
X5925000Y30426429D01*
X5936904Y30438334D01*
X5936904Y30533572D02*
X5925000Y30545477D01*
X5913095Y30569286D01*
X5913095Y30628810D01*
X5925000Y30652620D01*
X5936904Y30664524D01*
X5960714Y30676429D01*
X5984523Y30676429D01*
X6020238Y30664524D01*
X6163095Y30521667D01*
X6163095Y30676429D01*
X3839285Y30428334D02*
X3851190Y30416429D01*
X3863095Y30380715D01*
X3863095Y30356905D01*
X3851190Y30321191D01*
X3827380Y30297381D01*
X3803571Y30285477D01*
X3755952Y30273572D01*
X3720238Y30273572D01*
X3672619Y30285477D01*
X3648809Y30297381D01*
X3625000Y30321191D01*
X3613095Y30356905D01*
X3613095Y30380715D01*
X3625000Y30416429D01*
X3636904Y30428334D01*
X3696428Y30642620D02*
X3863095Y30642620D01*
X3601190Y30583096D02*
X3779761Y30523572D01*
X3779761Y30678334D01*
D15*
X12166357Y27734480D02*
X11737043Y27305166D01*
X11711789Y27229404D01*
X11711789Y27178896D01*
X11737043Y27103135D01*
X11838058Y27002120D01*
X11913819Y26976866D01*
X11964327Y26976866D01*
X12040088Y27002120D01*
X12469403Y27431435D01*
X12772449Y26774835D02*
X12418895Y26421282D01*
X12848210Y27103135D02*
X12343134Y26850597D01*
X12671434Y26522297D01*
D11*
X11288333Y5326905D02*
X11169285Y5326905D01*
X11169285Y5576905D01*
X11502619Y5326905D02*
X11359761Y5326905D01*
X11431190Y5326905D02*
X11431190Y5576905D01*
X11407380Y5541191D01*
X11383571Y5517381D01*
X11359761Y5505477D01*
D16*
X3948969Y7793827D02*
X3898462Y7776991D01*
X3831118Y7776991D01*
X3730103Y7776991D01*
X3679595Y7760155D01*
X3645924Y7726484D01*
X3746939Y7659140D02*
X3696431Y7642304D01*
X3629088Y7642304D01*
X3544908Y7692812D01*
X3427057Y7810663D01*
X3376550Y7894842D01*
X3376550Y7962186D01*
X3393385Y8012694D01*
X3460729Y8080037D01*
X3511237Y8096873D01*
X3578580Y8096873D01*
X3662759Y8046365D01*
X3780611Y7928514D01*
X3831118Y7844335D01*
X3831118Y7776991D01*
X3814282Y7726484D01*
X3746939Y7659140D01*
X4235179Y8147381D02*
X4033149Y7945350D01*
X4134164Y8046365D02*
X3780611Y8399919D01*
X3797446Y8315739D01*
X3797446Y8248396D01*
X3780611Y8197888D01*
D11*
X3663095Y32445477D02*
X3413095Y32445477D01*
X3413095Y32505000D01*
X3425000Y32540715D01*
X3448809Y32564524D01*
X3472619Y32576429D01*
X3520238Y32588334D01*
X3555952Y32588334D01*
X3603571Y32576429D01*
X3627380Y32564524D01*
X3651190Y32540715D01*
X3663095Y32505000D01*
X3663095Y32445477D01*
X3436904Y32683572D02*
X3425000Y32695477D01*
X3413095Y32719286D01*
X3413095Y32778810D01*
X3425000Y32802620D01*
X3436904Y32814524D01*
X3460714Y32826429D01*
X3484523Y32826429D01*
X3520238Y32814524D01*
X3663095Y32671667D01*
X3663095Y32826429D01*
X5583095Y32465477D02*
X5333095Y32465477D01*
X5333095Y32525000D01*
X5345000Y32560715D01*
X5368809Y32584524D01*
X5392619Y32596429D01*
X5440238Y32608334D01*
X5475952Y32608334D01*
X5523571Y32596429D01*
X5547380Y32584524D01*
X5571190Y32560715D01*
X5583095Y32525000D01*
X5583095Y32465477D01*
X5583095Y32846429D02*
X5583095Y32703572D01*
X5583095Y32775000D02*
X5333095Y32775000D01*
X5368809Y32751191D01*
X5392619Y32727381D01*
X5404523Y32703572D01*
D14*
X8715714Y30342929D02*
X8958571Y30342929D01*
X8987142Y30357215D01*
X9001428Y30371500D01*
X9015714Y30400072D01*
X9015714Y30457215D01*
X9001428Y30485786D01*
X8987142Y30500072D01*
X8958571Y30514358D01*
X8715714Y30514358D01*
X8715714Y30628643D02*
X8715714Y30814358D01*
X8830000Y30714358D01*
X8830000Y30757215D01*
X8844285Y30785786D01*
X8858571Y30800072D01*
X8887142Y30814358D01*
X8958571Y30814358D01*
X8987142Y30800072D01*
X9001428Y30785786D01*
X9015714Y30757215D01*
X9015714Y30671500D01*
X9001428Y30642929D01*
X8987142Y30628643D01*
X9025714Y32368572D02*
X8725714Y32368572D01*
X8725714Y32440000D01*
X8740000Y32482858D01*
X8768571Y32511429D01*
X8797142Y32525715D01*
X8854285Y32540000D01*
X8897142Y32540000D01*
X8954285Y32525715D01*
X8982857Y32511429D01*
X9011428Y32482858D01*
X9025714Y32440000D01*
X9025714Y32368572D01*
X8725714Y32640000D02*
X8725714Y32825715D01*
X8840000Y32725715D01*
X8840000Y32768572D01*
X8854285Y32797143D01*
X8868571Y32811429D01*
X8897142Y32825715D01*
X8968571Y32825715D01*
X8997142Y32811429D01*
X9011428Y32797143D01*
X9025714Y32768572D01*
X9025714Y32682858D01*
X9011428Y32654286D01*
X8997142Y32640000D01*
D11*
X9089285Y27829286D02*
X9101190Y27817381D01*
X9113095Y27781667D01*
X9113095Y27757858D01*
X9101190Y27722143D01*
X9077380Y27698334D01*
X9053571Y27686429D01*
X9005952Y27674524D01*
X8970238Y27674524D01*
X8922619Y27686429D01*
X8898809Y27698334D01*
X8875000Y27722143D01*
X8863095Y27757858D01*
X8863095Y27781667D01*
X8875000Y27817381D01*
X8886904Y27829286D01*
X9113095Y28067381D02*
X9113095Y27924524D01*
X9113095Y27995953D02*
X8863095Y27995953D01*
X8898809Y27972143D01*
X8922619Y27948334D01*
X8934523Y27924524D01*
X8970238Y28210239D02*
X8958333Y28186429D01*
X8946428Y28174524D01*
X8922619Y28162620D01*
X8910714Y28162620D01*
X8886904Y28174524D01*
X8875000Y28186429D01*
X8863095Y28210239D01*
X8863095Y28257858D01*
X8875000Y28281667D01*
X8886904Y28293572D01*
X8910714Y28305477D01*
X8922619Y28305477D01*
X8946428Y28293572D01*
X8958333Y28281667D01*
X8970238Y28257858D01*
X8970238Y28210239D01*
X8982142Y28186429D01*
X8994047Y28174524D01*
X9017857Y28162620D01*
X9065476Y28162620D01*
X9089285Y28174524D01*
X9101190Y28186429D01*
X9113095Y28210239D01*
X9113095Y28257858D01*
X9101190Y28281667D01*
X9089285Y28293572D01*
X9065476Y28305477D01*
X9017857Y28305477D01*
X8994047Y28293572D01*
X8982142Y28281667D01*
X8970238Y28257858D01*
X10230566Y5239493D02*
X10255820Y5382598D01*
X10129551Y5340508D02*
X10306328Y5517285D01*
X10373671Y5449941D01*
X10382089Y5424688D01*
X10382089Y5407852D01*
X10373671Y5382598D01*
X10348417Y5357344D01*
X10323164Y5348926D01*
X10306328Y5348926D01*
X10281074Y5357344D01*
X10213730Y5424688D01*
X10398925Y5071134D02*
X10297910Y5172149D01*
X10348417Y5121642D02*
X10525194Y5298418D01*
X10483104Y5290000D01*
X10449433Y5290000D01*
X10424179Y5298418D01*
D10*
X5455465Y15160813D02*
X5738308Y15443655D01*
X5805651Y15376312D01*
X5832589Y15322437D01*
X5832589Y15268562D01*
X5819120Y15228156D01*
X5778714Y15160813D01*
X5738308Y15120407D01*
X5670964Y15080000D01*
X5630558Y15066532D01*
X5576683Y15066532D01*
X5522808Y15093469D01*
X5455465Y15160813D01*
X6048088Y14945313D02*
X5859526Y14756752D01*
X6088494Y15120407D02*
X5819120Y14985720D01*
X5994213Y14810626D01*
X4001370Y13043283D02*
X3718528Y13326126D01*
X3785871Y13393469D01*
X3839746Y13420407D01*
X3893621Y13420407D01*
X3934027Y13406938D01*
X4001370Y13366532D01*
X4041776Y13326126D01*
X4082183Y13258782D01*
X4095651Y13218376D01*
X4095651Y13164501D01*
X4068714Y13110626D01*
X4001370Y13043283D01*
X4136057Y13743655D02*
X4001370Y13608968D01*
X4122589Y13460813D01*
X4122589Y13487750D01*
X4136057Y13528156D01*
X4203401Y13595500D01*
X4243807Y13608968D01*
X4270744Y13608968D01*
X4311150Y13595500D01*
X4378494Y13528156D01*
X4391963Y13487750D01*
X4391963Y13460813D01*
X4378494Y13420407D01*
X4311150Y13353063D01*
X4270744Y13339594D01*
X4243807Y13339594D01*
D13*
X3546489Y16231600D02*
X3526286Y16224865D01*
X3499348Y16224865D01*
X3458942Y16224865D01*
X3438739Y16218131D01*
X3425271Y16204662D01*
X3465677Y16177725D02*
X3445474Y16170991D01*
X3418536Y16170991D01*
X3384864Y16191194D01*
X3337724Y16238334D01*
X3317521Y16272006D01*
X3317521Y16298943D01*
X3324255Y16319146D01*
X3351193Y16346084D01*
X3371396Y16352818D01*
X3398333Y16352818D01*
X3432005Y16332615D01*
X3479145Y16285475D01*
X3499348Y16251803D01*
X3499348Y16224865D01*
X3492614Y16204662D01*
X3465677Y16177725D01*
X3452208Y16420162D02*
X3452208Y16433630D01*
X3458942Y16453833D01*
X3492614Y16487505D01*
X3512817Y16494239D01*
X3526286Y16494239D01*
X3546489Y16487505D01*
X3559958Y16474036D01*
X3573426Y16447099D01*
X3573426Y16285475D01*
X3660973Y16373021D01*
D12*
X8738477Y11615974D02*
X8166057Y11043554D01*
X8132385Y10942539D01*
X8132385Y10875195D01*
X8166057Y10774180D01*
X8300744Y10639493D01*
X8401759Y10605821D01*
X8469103Y10605821D01*
X8570118Y10639493D01*
X9142538Y11211913D01*
X9815973Y10538478D02*
X9479255Y10875195D01*
X9108866Y10572149D01*
X9176209Y10572149D01*
X9277225Y10538478D01*
X9445583Y10370119D01*
X9479255Y10269104D01*
X9479255Y10201760D01*
X9445583Y10100745D01*
X9277225Y9932386D01*
X9176209Y9898714D01*
X9108866Y9898714D01*
X9007851Y9932386D01*
X8839492Y10100745D01*
X8805820Y10201760D01*
X8805820Y10269104D01*
D11*
X7249492Y2083224D02*
X7249492Y2066388D01*
X7232656Y2032716D01*
X7215820Y2015880D01*
X7182148Y1999044D01*
X7148477Y1999044D01*
X7123223Y2007462D01*
X7081133Y2032716D01*
X7055879Y2057970D01*
X7030625Y2100060D01*
X7022208Y2125313D01*
X7022208Y2158985D01*
X7039043Y2192657D01*
X7055879Y2209493D01*
X7089551Y2226329D01*
X7106387Y2226329D01*
X7434687Y2234747D02*
X7333671Y2133731D01*
X7384179Y2184239D02*
X7207402Y2361016D01*
X7215820Y2318926D01*
X7215820Y2285254D01*
X7207402Y2260000D01*
X7409433Y2563046D02*
X7375761Y2529375D01*
X7367343Y2504121D01*
X7367343Y2487285D01*
X7375761Y2445195D01*
X7401015Y2403105D01*
X7468358Y2335762D01*
X7493612Y2327344D01*
X7510448Y2327344D01*
X7535702Y2335762D01*
X7569374Y2369434D01*
X7577791Y2394688D01*
X7577791Y2411523D01*
X7569374Y2436777D01*
X7527284Y2478867D01*
X7502030Y2487285D01*
X7485194Y2487285D01*
X7459940Y2478867D01*
X7426269Y2445195D01*
X7417851Y2419941D01*
X7417851Y2403105D01*
X7426269Y2377852D01*
D12*
X4814026Y4208478D02*
X5386446Y3636058D01*
X5487461Y3602386D01*
X5554805Y3602386D01*
X5655820Y3636058D01*
X5790507Y3770745D01*
X5824179Y3871760D01*
X5824179Y3939104D01*
X5790507Y4040119D01*
X5218087Y4612539D01*
X5857851Y5252302D02*
X5723164Y5117615D01*
X5689492Y5016600D01*
X5689492Y4949256D01*
X5723164Y4780897D01*
X5824179Y4612539D01*
X6093553Y4343165D01*
X6194568Y4309493D01*
X6261912Y4309493D01*
X6362927Y4343165D01*
X6497614Y4477852D01*
X6531286Y4578867D01*
X6531286Y4646210D01*
X6497614Y4747226D01*
X6329255Y4915584D01*
X6228240Y4949256D01*
X6160896Y4949256D01*
X6059881Y4915584D01*
X5925194Y4780897D01*
X5891522Y4679882D01*
X5891522Y4612539D01*
X5925194Y4511523D01*
D11*
X10519285Y29768334D02*
X10531190Y29756429D01*
X10543095Y29720715D01*
X10543095Y29696905D01*
X10531190Y29661191D01*
X10507380Y29637381D01*
X10483571Y29625477D01*
X10435952Y29613572D01*
X10400238Y29613572D01*
X10352619Y29625477D01*
X10328809Y29637381D01*
X10305000Y29661191D01*
X10293095Y29696905D01*
X10293095Y29720715D01*
X10305000Y29756429D01*
X10316904Y29768334D01*
X10293095Y29851667D02*
X10293095Y30018334D01*
X10543095Y29911191D01*
X15169285Y30760715D02*
X15157380Y30748810D01*
X15121666Y30736905D01*
X15097857Y30736905D01*
X15062142Y30748810D01*
X15038333Y30772620D01*
X15026428Y30796429D01*
X15014523Y30844048D01*
X15014523Y30879762D01*
X15026428Y30927381D01*
X15038333Y30951191D01*
X15062142Y30975000D01*
X15097857Y30986905D01*
X15121666Y30986905D01*
X15157380Y30975000D01*
X15169285Y30963096D01*
X15407380Y30736905D02*
X15264523Y30736905D01*
X15335952Y30736905D02*
X15335952Y30986905D01*
X15312142Y30951191D01*
X15288333Y30927381D01*
X15264523Y30915477D01*
X15490714Y30986905D02*
X15645476Y30986905D01*
X15562142Y30891667D01*
X15597857Y30891667D01*
X15621666Y30879762D01*
X15633571Y30867858D01*
X15645476Y30844048D01*
X15645476Y30784524D01*
X15633571Y30760715D01*
X15621666Y30748810D01*
X15597857Y30736905D01*
X15526428Y30736905D01*
X15502619Y30748810D01*
X15490714Y30760715D01*
X7249285Y16566905D02*
X7165952Y16685953D01*
X7106428Y16566905D02*
X7106428Y16816905D01*
X7201666Y16816905D01*
X7225476Y16805000D01*
X7237380Y16793096D01*
X7249285Y16769286D01*
X7249285Y16733572D01*
X7237380Y16709762D01*
X7225476Y16697858D01*
X7201666Y16685953D01*
X7106428Y16685953D01*
X7487380Y16566905D02*
X7344523Y16566905D01*
X7415952Y16566905D02*
X7415952Y16816905D01*
X7392142Y16781191D01*
X7368333Y16757381D01*
X7344523Y16745477D01*
X7725476Y16566905D02*
X7582619Y16566905D01*
X7654047Y16566905D02*
X7654047Y16816905D01*
X7630238Y16781191D01*
X7606428Y16757381D01*
X7582619Y16745477D01*
X5156328Y24216388D02*
X5013223Y24241642D01*
X5055312Y24115373D02*
X4878536Y24292149D01*
X4945879Y24359493D01*
X4971133Y24367911D01*
X4987969Y24367911D01*
X5013223Y24359493D01*
X5038477Y24334239D01*
X5046895Y24308985D01*
X5046895Y24292149D01*
X5038477Y24266896D01*
X4971133Y24199552D01*
X5324687Y24384747D02*
X5223671Y24283731D01*
X5274179Y24334239D02*
X5097402Y24511016D01*
X5105820Y24468926D01*
X5105820Y24435254D01*
X5097402Y24410000D01*
X5257343Y24670957D02*
X5274179Y24687792D01*
X5299433Y24696210D01*
X5316269Y24696210D01*
X5341522Y24687792D01*
X5383612Y24662539D01*
X5425702Y24620449D01*
X5450956Y24578359D01*
X5459374Y24553105D01*
X5459374Y24536270D01*
X5450956Y24511016D01*
X5434120Y24494180D01*
X5408866Y24485762D01*
X5392030Y24485762D01*
X5366776Y24494180D01*
X5324687Y24519434D01*
X5282597Y24561523D01*
X5257343Y24603613D01*
X5248925Y24628867D01*
X5248925Y24645703D01*
X5257343Y24670957D01*
X6519285Y32408334D02*
X6531190Y32396429D01*
X6543095Y32360715D01*
X6543095Y32336905D01*
X6531190Y32301191D01*
X6507380Y32277381D01*
X6483571Y32265477D01*
X6435952Y32253572D01*
X6400238Y32253572D01*
X6352619Y32265477D01*
X6328809Y32277381D01*
X6305000Y32301191D01*
X6293095Y32336905D01*
X6293095Y32360715D01*
X6305000Y32396429D01*
X6316904Y32408334D01*
X6543095Y32646429D02*
X6543095Y32503572D01*
X6543095Y32575000D02*
X6293095Y32575000D01*
X6328809Y32551191D01*
X6352619Y32527381D01*
X6364523Y32503572D01*
X4599285Y32408334D02*
X4611190Y32396429D01*
X4623095Y32360715D01*
X4623095Y32336905D01*
X4611190Y32301191D01*
X4587380Y32277381D01*
X4563571Y32265477D01*
X4515952Y32253572D01*
X4480238Y32253572D01*
X4432619Y32265477D01*
X4408809Y32277381D01*
X4385000Y32301191D01*
X4373095Y32336905D01*
X4373095Y32360715D01*
X4385000Y32396429D01*
X4396904Y32408334D01*
X4373095Y32491667D02*
X4373095Y32646429D01*
X4468333Y32563096D01*
X4468333Y32598810D01*
X4480238Y32622620D01*
X4492142Y32634524D01*
X4515952Y32646429D01*
X4575476Y32646429D01*
X4599285Y32634524D01*
X4611190Y32622620D01*
X4623095Y32598810D01*
X4623095Y32527381D01*
X4611190Y32503572D01*
X4599285Y32491667D01*
X15159285Y30040715D02*
X15147380Y30028810D01*
X15111666Y30016905D01*
X15087857Y30016905D01*
X15052142Y30028810D01*
X15028333Y30052620D01*
X15016428Y30076429D01*
X15004523Y30124048D01*
X15004523Y30159762D01*
X15016428Y30207381D01*
X15028333Y30231191D01*
X15052142Y30255000D01*
X15087857Y30266905D01*
X15111666Y30266905D01*
X15147380Y30255000D01*
X15159285Y30243096D01*
X15397380Y30016905D02*
X15254523Y30016905D01*
X15325952Y30016905D02*
X15325952Y30266905D01*
X15302142Y30231191D01*
X15278333Y30207381D01*
X15254523Y30195477D01*
X15611666Y30183572D02*
X15611666Y30016905D01*
X15552142Y30278810D02*
X15492619Y30100239D01*
X15647380Y30100239D01*
X15159285Y29360715D02*
X15147380Y29348810D01*
X15111666Y29336905D01*
X15087857Y29336905D01*
X15052142Y29348810D01*
X15028333Y29372620D01*
X15016428Y29396429D01*
X15004523Y29444048D01*
X15004523Y29479762D01*
X15016428Y29527381D01*
X15028333Y29551191D01*
X15052142Y29575000D01*
X15087857Y29586905D01*
X15111666Y29586905D01*
X15147380Y29575000D01*
X15159285Y29563096D01*
X15397380Y29336905D02*
X15254523Y29336905D01*
X15325952Y29336905D02*
X15325952Y29586905D01*
X15302142Y29551191D01*
X15278333Y29527381D01*
X15254523Y29515477D01*
X15492619Y29563096D02*
X15504523Y29575000D01*
X15528333Y29586905D01*
X15587857Y29586905D01*
X15611666Y29575000D01*
X15623571Y29563096D01*
X15635476Y29539286D01*
X15635476Y29515477D01*
X15623571Y29479762D01*
X15480714Y29336905D01*
X15635476Y29336905D01*
X3409492Y14943224D02*
X3409492Y14926388D01*
X3392656Y14892716D01*
X3375820Y14875880D01*
X3342148Y14859044D01*
X3308477Y14859044D01*
X3283223Y14867462D01*
X3241133Y14892716D01*
X3215879Y14917970D01*
X3190625Y14960060D01*
X3182208Y14985313D01*
X3182208Y15018985D01*
X3199043Y15052657D01*
X3215879Y15069493D01*
X3249551Y15086329D01*
X3266387Y15086329D01*
X3308477Y15162090D02*
X3417910Y15271523D01*
X3426328Y15145254D01*
X3451582Y15170508D01*
X3476835Y15178926D01*
X3493671Y15178926D01*
X3518925Y15170508D01*
X3561015Y15128418D01*
X3569433Y15103165D01*
X3569433Y15086329D01*
X3561015Y15061075D01*
X3510507Y15010567D01*
X3485253Y15002149D01*
X3468417Y15002149D01*
X3527343Y15380957D02*
X3544179Y15397792D01*
X3569433Y15406210D01*
X3586269Y15406210D01*
X3611522Y15397792D01*
X3653612Y15372539D01*
X3695702Y15330449D01*
X3720956Y15288359D01*
X3729374Y15263105D01*
X3729374Y15246270D01*
X3720956Y15221016D01*
X3704120Y15204180D01*
X3678866Y15195762D01*
X3662030Y15195762D01*
X3636776Y15204180D01*
X3594687Y15229434D01*
X3552597Y15271523D01*
X3527343Y15313613D01*
X3518925Y15338867D01*
X3518925Y15355703D01*
X3527343Y15380957D01*
X13079285Y31539286D02*
X13091190Y31527381D01*
X13103095Y31491667D01*
X13103095Y31467858D01*
X13091190Y31432143D01*
X13067380Y31408334D01*
X13043571Y31396429D01*
X12995952Y31384524D01*
X12960238Y31384524D01*
X12912619Y31396429D01*
X12888809Y31408334D01*
X12865000Y31432143D01*
X12853095Y31467858D01*
X12853095Y31491667D01*
X12865000Y31527381D01*
X12876904Y31539286D01*
X12876904Y31634524D02*
X12865000Y31646429D01*
X12853095Y31670239D01*
X12853095Y31729762D01*
X12865000Y31753572D01*
X12876904Y31765477D01*
X12900714Y31777381D01*
X12924523Y31777381D01*
X12960238Y31765477D01*
X13103095Y31622620D01*
X13103095Y31777381D01*
X12853095Y31860715D02*
X12853095Y32015477D01*
X12948333Y31932143D01*
X12948333Y31967858D01*
X12960238Y31991667D01*
X12972142Y32003572D01*
X12995952Y32015477D01*
X13055476Y32015477D01*
X13079285Y32003572D01*
X13091190Y31991667D01*
X13103095Y31967858D01*
X13103095Y31896429D01*
X13091190Y31872620D01*
X13079285Y31860715D01*
X9789285Y27839286D02*
X9801190Y27827381D01*
X9813095Y27791667D01*
X9813095Y27767858D01*
X9801190Y27732143D01*
X9777380Y27708334D01*
X9753571Y27696429D01*
X9705952Y27684524D01*
X9670238Y27684524D01*
X9622619Y27696429D01*
X9598809Y27708334D01*
X9575000Y27732143D01*
X9563095Y27767858D01*
X9563095Y27791667D01*
X9575000Y27827381D01*
X9586904Y27839286D01*
X9813095Y28077381D02*
X9813095Y27934524D01*
X9813095Y28005953D02*
X9563095Y28005953D01*
X9598809Y27982143D01*
X9622619Y27958334D01*
X9634523Y27934524D01*
X9813095Y28196429D02*
X9813095Y28244048D01*
X9801190Y28267858D01*
X9789285Y28279762D01*
X9753571Y28303572D01*
X9705952Y28315477D01*
X9610714Y28315477D01*
X9586904Y28303572D01*
X9575000Y28291667D01*
X9563095Y28267858D01*
X9563095Y28220239D01*
X9575000Y28196429D01*
X9586904Y28184524D01*
X9610714Y28172620D01*
X9670238Y28172620D01*
X9694047Y28184524D01*
X9705952Y28196429D01*
X9717857Y28220239D01*
X9717857Y28267858D01*
X9705952Y28291667D01*
X9694047Y28303572D01*
X9670238Y28315477D01*
X4606781Y17716841D02*
X4463676Y17742095D01*
X4505766Y17615826D02*
X4328989Y17792603D01*
X4396333Y17859946D01*
X4421586Y17868364D01*
X4438422Y17868364D01*
X4463676Y17859946D01*
X4488930Y17834692D01*
X4497348Y17809439D01*
X4497348Y17792603D01*
X4488930Y17767349D01*
X4421586Y17700005D01*
X4690961Y17801021D02*
X4724632Y17834692D01*
X4733050Y17859946D01*
X4733050Y17876782D01*
X4724632Y17918872D01*
X4699378Y17960962D01*
X4632035Y18028305D01*
X4606781Y18036723D01*
X4589945Y18036723D01*
X4564691Y18028305D01*
X4531020Y17994633D01*
X4522602Y17969379D01*
X4522602Y17952544D01*
X4531020Y17927290D01*
X4573109Y17885200D01*
X4598363Y17876782D01*
X4615199Y17876782D01*
X4640453Y17885200D01*
X4674125Y17918872D01*
X4682543Y17944126D01*
X4682543Y17960962D01*
X4674125Y17986215D01*
X12940566Y6679493D02*
X12965820Y6822598D01*
X12839551Y6780508D02*
X13016328Y6957285D01*
X13083671Y6889941D01*
X13092089Y6864688D01*
X13092089Y6847852D01*
X13083671Y6822598D01*
X13058417Y6797344D01*
X13033164Y6788926D01*
X13016328Y6788926D01*
X12991074Y6797344D01*
X12923730Y6864688D01*
X13142597Y6679493D02*
X13134179Y6704747D01*
X13134179Y6721583D01*
X13142597Y6746836D01*
X13151015Y6755254D01*
X13176269Y6763672D01*
X13193104Y6763672D01*
X13218358Y6755254D01*
X13252030Y6721583D01*
X13260448Y6696329D01*
X13260448Y6679493D01*
X13252030Y6654239D01*
X13243612Y6645821D01*
X13218358Y6637403D01*
X13201522Y6637403D01*
X13176269Y6645821D01*
X13142597Y6679493D01*
X13117343Y6687911D01*
X13100507Y6687911D01*
X13075253Y6679493D01*
X13041582Y6645821D01*
X13033164Y6620567D01*
X13033164Y6603731D01*
X13041582Y6578478D01*
X13075253Y6544806D01*
X13100507Y6536388D01*
X13117343Y6536388D01*
X13142597Y6544806D01*
X13176269Y6578478D01*
X13184687Y6603731D01*
X13184687Y6620567D01*
X13176269Y6645821D01*
X13380566Y7169493D02*
X13405820Y7312598D01*
X13279551Y7270508D02*
X13456328Y7447285D01*
X13523671Y7379941D01*
X13532089Y7354688D01*
X13532089Y7337852D01*
X13523671Y7312598D01*
X13498417Y7287344D01*
X13473164Y7278926D01*
X13456328Y7278926D01*
X13431074Y7287344D01*
X13363730Y7354688D01*
X13616269Y7287344D02*
X13734120Y7169493D01*
X13481582Y7068478D01*
X2653095Y6238334D02*
X2534047Y6155000D01*
X2653095Y6095477D02*
X2403095Y6095477D01*
X2403095Y6190715D01*
X2415000Y6214524D01*
X2426904Y6226429D01*
X2450714Y6238334D01*
X2486428Y6238334D01*
X2510238Y6226429D01*
X2522142Y6214524D01*
X2534047Y6190715D01*
X2534047Y6095477D01*
X2403095Y6464524D02*
X2403095Y6345477D01*
X2522142Y6333572D01*
X2510238Y6345477D01*
X2498333Y6369286D01*
X2498333Y6428810D01*
X2510238Y6452620D01*
X2522142Y6464524D01*
X2545952Y6476429D01*
X2605476Y6476429D01*
X2629285Y6464524D01*
X2641190Y6452620D01*
X2653095Y6428810D01*
X2653095Y6369286D01*
X2641190Y6345477D01*
X2629285Y6333572D01*
X11953095Y29788334D02*
X11834047Y29705000D01*
X11953095Y29645477D02*
X11703095Y29645477D01*
X11703095Y29740715D01*
X11715000Y29764524D01*
X11726904Y29776429D01*
X11750714Y29788334D01*
X11786428Y29788334D01*
X11810238Y29776429D01*
X11822142Y29764524D01*
X11834047Y29740715D01*
X11834047Y29645477D01*
X11703095Y30002620D02*
X11703095Y29955000D01*
X11715000Y29931191D01*
X11726904Y29919286D01*
X11762619Y29895477D01*
X11810238Y29883572D01*
X11905476Y29883572D01*
X11929285Y29895477D01*
X11941190Y29907381D01*
X11953095Y29931191D01*
X11953095Y29978810D01*
X11941190Y30002620D01*
X11929285Y30014524D01*
X11905476Y30026429D01*
X11845952Y30026429D01*
X11822142Y30014524D01*
X11810238Y30002620D01*
X11798333Y29978810D01*
X11798333Y29931191D01*
X11810238Y29907381D01*
X11822142Y29895477D01*
X11845952Y29883572D01*
X14260507Y13300567D02*
X14117402Y13325821D01*
X14159492Y13199552D02*
X13982715Y13376329D01*
X14050059Y13443672D01*
X14075312Y13452090D01*
X14092148Y13452090D01*
X14117402Y13443672D01*
X14142656Y13418418D01*
X14151074Y13393165D01*
X14151074Y13376329D01*
X14142656Y13351075D01*
X14075312Y13283731D01*
X14142656Y13536270D02*
X14252089Y13645703D01*
X14260507Y13519434D01*
X14285761Y13544688D01*
X14311015Y13553105D01*
X14327851Y13553105D01*
X14353104Y13544688D01*
X14395194Y13502598D01*
X14403612Y13477344D01*
X14403612Y13460508D01*
X14395194Y13435254D01*
X14344687Y13384747D01*
X14319433Y13376329D01*
X14302597Y13376329D01*
X13760507Y13770567D02*
X13617402Y13795821D01*
X13659492Y13669552D02*
X13482715Y13846329D01*
X13550059Y13913672D01*
X13575312Y13922090D01*
X13592148Y13922090D01*
X13617402Y13913672D01*
X13642656Y13888418D01*
X13651074Y13863165D01*
X13651074Y13846329D01*
X13642656Y13821075D01*
X13575312Y13753731D01*
X13667910Y13997852D02*
X13667910Y14014688D01*
X13676328Y14039941D01*
X13718417Y14082031D01*
X13743671Y14090449D01*
X13760507Y14090449D01*
X13785761Y14082031D01*
X13802597Y14065195D01*
X13819433Y14031523D01*
X13819433Y13829493D01*
X13928866Y13938926D01*
X15003095Y8808334D02*
X14884047Y8725000D01*
X15003095Y8665477D02*
X14753095Y8665477D01*
X14753095Y8760715D01*
X14765000Y8784524D01*
X14776904Y8796429D01*
X14800714Y8808334D01*
X14836428Y8808334D01*
X14860238Y8796429D01*
X14872142Y8784524D01*
X14884047Y8760715D01*
X14884047Y8665477D01*
X14836428Y9022620D02*
X15003095Y9022620D01*
X14741190Y8963096D02*
X14919761Y8903572D01*
X14919761Y9058334D01*
X14299285Y21439286D02*
X14311190Y21427381D01*
X14323095Y21391667D01*
X14323095Y21367858D01*
X14311190Y21332143D01*
X14287380Y21308334D01*
X14263571Y21296429D01*
X14215952Y21284524D01*
X14180238Y21284524D01*
X14132619Y21296429D01*
X14108809Y21308334D01*
X14085000Y21332143D01*
X14073095Y21367858D01*
X14073095Y21391667D01*
X14085000Y21427381D01*
X14096904Y21439286D01*
X14073095Y21522620D02*
X14073095Y21677381D01*
X14168333Y21594048D01*
X14168333Y21629762D01*
X14180238Y21653572D01*
X14192142Y21665477D01*
X14215952Y21677381D01*
X14275476Y21677381D01*
X14299285Y21665477D01*
X14311190Y21653572D01*
X14323095Y21629762D01*
X14323095Y21558334D01*
X14311190Y21534524D01*
X14299285Y21522620D01*
X14073095Y21760715D02*
X14073095Y21915477D01*
X14168333Y21832143D01*
X14168333Y21867858D01*
X14180238Y21891667D01*
X14192142Y21903572D01*
X14215952Y21915477D01*
X14275476Y21915477D01*
X14299285Y21903572D01*
X14311190Y21891667D01*
X14323095Y21867858D01*
X14323095Y21796429D01*
X14311190Y21772620D01*
X14299285Y21760715D01*
X4639492Y24713224D02*
X4639492Y24696388D01*
X4622656Y24662716D01*
X4605820Y24645880D01*
X4572148Y24629044D01*
X4538477Y24629044D01*
X4513223Y24637462D01*
X4471133Y24662716D01*
X4445879Y24687970D01*
X4420625Y24730060D01*
X4412208Y24755313D01*
X4412208Y24788985D01*
X4429043Y24822657D01*
X4445879Y24839493D01*
X4479551Y24856329D01*
X4496387Y24856329D01*
X4538477Y24932090D02*
X4647910Y25041523D01*
X4656328Y24915254D01*
X4681582Y24940508D01*
X4706835Y24948926D01*
X4723671Y24948926D01*
X4748925Y24940508D01*
X4791015Y24898418D01*
X4799433Y24873165D01*
X4799433Y24856329D01*
X4791015Y24831075D01*
X4740507Y24780567D01*
X4715253Y24772149D01*
X4698417Y24772149D01*
X4732089Y25092031D02*
X4732089Y25108867D01*
X4740507Y25134121D01*
X4782597Y25176210D01*
X4807851Y25184628D01*
X4824687Y25184628D01*
X4849940Y25176210D01*
X4866776Y25159375D01*
X4883612Y25125703D01*
X4883612Y24923672D01*
X4993045Y25033105D01*
X4955766Y17099498D02*
X4955766Y17082662D01*
X4938930Y17048990D01*
X4922094Y17032154D01*
X4888422Y17015318D01*
X4854751Y17015318D01*
X4829497Y17023736D01*
X4787407Y17048990D01*
X4762153Y17074244D01*
X4736899Y17116334D01*
X4728482Y17141587D01*
X4728482Y17175259D01*
X4745317Y17208931D01*
X4762153Y17225767D01*
X4795825Y17242603D01*
X4812661Y17242603D01*
X4854751Y17318364D02*
X4964184Y17427797D01*
X4972602Y17301528D01*
X4997856Y17326782D01*
X5023109Y17335200D01*
X5039945Y17335200D01*
X5065199Y17326782D01*
X5107289Y17284692D01*
X5115707Y17259439D01*
X5115707Y17242603D01*
X5107289Y17217349D01*
X5056781Y17166841D01*
X5031527Y17158423D01*
X5014691Y17158423D01*
X5309319Y17419379D02*
X5208304Y17318364D01*
X5258812Y17368872D02*
X5082035Y17545649D01*
X5090453Y17503559D01*
X5090453Y17469887D01*
X5082035Y17444633D01*
X3703223Y18970508D02*
X3686387Y18970508D01*
X3652715Y18987344D01*
X3635879Y19004180D01*
X3619043Y19037852D01*
X3619043Y19071523D01*
X3627461Y19096777D01*
X3652715Y19138867D01*
X3677969Y19164121D01*
X3720059Y19189375D01*
X3745312Y19197792D01*
X3778984Y19197792D01*
X3812656Y19180957D01*
X3829492Y19164121D01*
X3846328Y19130449D01*
X3846328Y19113613D01*
X3913671Y19046270D02*
X3930507Y19046270D01*
X3955761Y19037852D01*
X3997851Y18995762D01*
X4006269Y18970508D01*
X4006269Y18953672D01*
X3997851Y18928418D01*
X3981015Y18911583D01*
X3947343Y18894747D01*
X3745312Y18894747D01*
X3854746Y18785313D01*
X3938925Y18701134D02*
X3972597Y18667462D01*
X3997851Y18659044D01*
X4014687Y18659044D01*
X4056776Y18667462D01*
X4098866Y18692716D01*
X4166209Y18760060D01*
X4174627Y18785313D01*
X4174627Y18802149D01*
X4166209Y18827403D01*
X4132538Y18861075D01*
X4107284Y18869493D01*
X4090448Y18869493D01*
X4065194Y18861075D01*
X4023104Y18818985D01*
X4014687Y18793731D01*
X4014687Y18776896D01*
X4023104Y18751642D01*
X4056776Y18717970D01*
X4082030Y18709552D01*
X4098866Y18709552D01*
X4124120Y18717970D01*
X3846949Y20016782D02*
X3830113Y20016782D01*
X3796441Y20033618D01*
X3779605Y20050454D01*
X3762769Y20084126D01*
X3762769Y20117797D01*
X3771187Y20143051D01*
X3796441Y20185141D01*
X3821695Y20210395D01*
X3863785Y20235649D01*
X3889038Y20244066D01*
X3922710Y20244066D01*
X3956382Y20227231D01*
X3973218Y20210395D01*
X3990054Y20176723D01*
X3990054Y20159887D01*
X4057397Y20092544D02*
X4074233Y20092544D01*
X4099487Y20084126D01*
X4141577Y20042036D01*
X4149995Y20016782D01*
X4149995Y19999946D01*
X4141577Y19974692D01*
X4124741Y19957857D01*
X4091069Y19941021D01*
X3889038Y19941021D01*
X3998472Y19831587D01*
X4200502Y19831587D02*
X4192084Y19856841D01*
X4192084Y19873677D01*
X4200502Y19898931D01*
X4208920Y19907349D01*
X4234174Y19915767D01*
X4251010Y19915767D01*
X4276264Y19907349D01*
X4309935Y19873677D01*
X4318353Y19848423D01*
X4318353Y19831587D01*
X4309935Y19806334D01*
X4301517Y19797916D01*
X4276264Y19789498D01*
X4259428Y19789498D01*
X4234174Y19797916D01*
X4200502Y19831587D01*
X4175248Y19840005D01*
X4158413Y19840005D01*
X4133159Y19831587D01*
X4099487Y19797916D01*
X4091069Y19772662D01*
X4091069Y19755826D01*
X4099487Y19730572D01*
X4133159Y19696900D01*
X4158413Y19688483D01*
X4175248Y19688483D01*
X4200502Y19696900D01*
X4234174Y19730572D01*
X4242592Y19755826D01*
X4242592Y19772662D01*
X4234174Y19797916D01*
X13995540Y22989272D02*
X13995540Y22972436D01*
X13978704Y22938764D01*
X13961868Y22921928D01*
X13928196Y22905092D01*
X13894525Y22905092D01*
X13869271Y22913510D01*
X13827181Y22938764D01*
X13801927Y22964018D01*
X13776673Y23006108D01*
X13768256Y23031361D01*
X13768256Y23065033D01*
X13785091Y23098705D01*
X13801927Y23115541D01*
X13835599Y23132377D01*
X13852435Y23132377D01*
X13919778Y23199720D02*
X13919778Y23216556D01*
X13928196Y23241810D01*
X13970286Y23283900D01*
X13995540Y23292318D01*
X14012376Y23292318D01*
X14037630Y23283900D01*
X14054465Y23267064D01*
X14071301Y23233392D01*
X14071301Y23031361D01*
X14180735Y23140795D01*
X14155481Y23469094D02*
X14121809Y23435423D01*
X14113391Y23410169D01*
X14113391Y23393333D01*
X14121809Y23351243D01*
X14147063Y23309153D01*
X14214406Y23241810D01*
X14239660Y23233392D01*
X14256496Y23233392D01*
X14281750Y23241810D01*
X14315422Y23275482D01*
X14323839Y23300736D01*
X14323839Y23317571D01*
X14315422Y23342825D01*
X14273332Y23384915D01*
X14248078Y23393333D01*
X14231242Y23393333D01*
X14205988Y23384915D01*
X14172317Y23351243D01*
X14163899Y23325989D01*
X14163899Y23309153D01*
X14172317Y23283900D01*
X13509492Y23443224D02*
X13509492Y23426388D01*
X13492656Y23392716D01*
X13475820Y23375880D01*
X13442148Y23359044D01*
X13408477Y23359044D01*
X13383223Y23367462D01*
X13341133Y23392716D01*
X13315879Y23417970D01*
X13290625Y23460060D01*
X13282208Y23485313D01*
X13282208Y23518985D01*
X13299043Y23552657D01*
X13315879Y23569493D01*
X13349551Y23586329D01*
X13366387Y23586329D01*
X13433730Y23653672D02*
X13433730Y23670508D01*
X13442148Y23695762D01*
X13484238Y23737852D01*
X13509492Y23746270D01*
X13526328Y23746270D01*
X13551582Y23737852D01*
X13568417Y23721016D01*
X13585253Y23687344D01*
X13585253Y23485313D01*
X13694687Y23594747D01*
X13677851Y23931464D02*
X13593671Y23847285D01*
X13669433Y23754688D01*
X13669433Y23771523D01*
X13677851Y23796777D01*
X13719940Y23838867D01*
X13745194Y23847285D01*
X13762030Y23847285D01*
X13787284Y23838867D01*
X13829374Y23796777D01*
X13837791Y23771523D01*
X13837791Y23754688D01*
X13829374Y23729434D01*
X13787284Y23687344D01*
X13762030Y23678926D01*
X13745194Y23678926D01*
X13009718Y23963450D02*
X13009718Y23946614D01*
X12992882Y23912942D01*
X12976046Y23896106D01*
X12942374Y23879270D01*
X12908703Y23879270D01*
X12883449Y23887688D01*
X12841359Y23912942D01*
X12816105Y23938196D01*
X12790851Y23980286D01*
X12782434Y24005539D01*
X12782434Y24039211D01*
X12799269Y24072883D01*
X12816105Y24089719D01*
X12849777Y24106555D01*
X12866613Y24106555D01*
X12933956Y24173898D02*
X12933956Y24190734D01*
X12942374Y24215988D01*
X12984464Y24258078D01*
X13009718Y24266496D01*
X13026554Y24266496D01*
X13051808Y24258078D01*
X13068643Y24241242D01*
X13085479Y24207570D01*
X13085479Y24005539D01*
X13194913Y24114973D01*
X13228584Y24384347D02*
X13346435Y24266496D01*
X13119151Y24409601D02*
X13203330Y24241242D01*
X13312764Y24350675D01*
X15439285Y28229286D02*
X15451190Y28217381D01*
X15463095Y28181667D01*
X15463095Y28157858D01*
X15451190Y28122143D01*
X15427380Y28098334D01*
X15403571Y28086429D01*
X15355952Y28074524D01*
X15320238Y28074524D01*
X15272619Y28086429D01*
X15248809Y28098334D01*
X15225000Y28122143D01*
X15213095Y28157858D01*
X15213095Y28181667D01*
X15225000Y28217381D01*
X15236904Y28229286D01*
X15463095Y28467381D02*
X15463095Y28324524D01*
X15463095Y28395953D02*
X15213095Y28395953D01*
X15248809Y28372143D01*
X15272619Y28348334D01*
X15284523Y28324524D01*
X15213095Y28622143D02*
X15213095Y28645953D01*
X15225000Y28669762D01*
X15236904Y28681667D01*
X15260714Y28693572D01*
X15308333Y28705477D01*
X15367857Y28705477D01*
X15415476Y28693572D01*
X15439285Y28681667D01*
X15451190Y28669762D01*
X15463095Y28645953D01*
X15463095Y28622143D01*
X15451190Y28598334D01*
X15439285Y28586429D01*
X15415476Y28574524D01*
X15367857Y28562620D01*
X15308333Y28562620D01*
X15260714Y28574524D01*
X15236904Y28586429D01*
X15225000Y28598334D01*
X15213095Y28622143D01*
X11219285Y29609286D02*
X11231190Y29597381D01*
X11243095Y29561667D01*
X11243095Y29537858D01*
X11231190Y29502143D01*
X11207380Y29478334D01*
X11183571Y29466429D01*
X11135952Y29454524D01*
X11100238Y29454524D01*
X11052619Y29466429D01*
X11028809Y29478334D01*
X11005000Y29502143D01*
X10993095Y29537858D01*
X10993095Y29561667D01*
X11005000Y29597381D01*
X11016904Y29609286D01*
X11016904Y29704524D02*
X11005000Y29716429D01*
X10993095Y29740239D01*
X10993095Y29799762D01*
X11005000Y29823572D01*
X11016904Y29835477D01*
X11040714Y29847381D01*
X11064523Y29847381D01*
X11100238Y29835477D01*
X11243095Y29692620D01*
X11243095Y29847381D01*
X11016904Y29942620D02*
X11005000Y29954524D01*
X10993095Y29978334D01*
X10993095Y30037858D01*
X11005000Y30061667D01*
X11016904Y30073572D01*
X11040714Y30085477D01*
X11064523Y30085477D01*
X11100238Y30073572D01*
X11243095Y29930715D01*
X11243095Y30085477D01*
X15169285Y31460715D02*
X15157380Y31448810D01*
X15121666Y31436905D01*
X15097857Y31436905D01*
X15062142Y31448810D01*
X15038333Y31472620D01*
X15026428Y31496429D01*
X15014523Y31544048D01*
X15014523Y31579762D01*
X15026428Y31627381D01*
X15038333Y31651191D01*
X15062142Y31675000D01*
X15097857Y31686905D01*
X15121666Y31686905D01*
X15157380Y31675000D01*
X15169285Y31663096D01*
X15264523Y31663096D02*
X15276428Y31675000D01*
X15300238Y31686905D01*
X15359761Y31686905D01*
X15383571Y31675000D01*
X15395476Y31663096D01*
X15407380Y31639286D01*
X15407380Y31615477D01*
X15395476Y31579762D01*
X15252619Y31436905D01*
X15407380Y31436905D01*
X15645476Y31436905D02*
X15502619Y31436905D01*
X15574047Y31436905D02*
X15574047Y31686905D01*
X15550238Y31651191D01*
X15526428Y31627381D01*
X15502619Y31615477D01*
X3260276Y2183455D02*
X3243440Y2183455D01*
X3209768Y2200291D01*
X3192932Y2217127D01*
X3176096Y2250799D01*
X3176096Y2284470D01*
X3184514Y2309724D01*
X3209768Y2351814D01*
X3235022Y2377068D01*
X3277112Y2402322D01*
X3302365Y2410739D01*
X3336037Y2410739D01*
X3369709Y2393904D01*
X3386545Y2377068D01*
X3403381Y2343396D01*
X3403381Y2326560D01*
X3411799Y1998260D02*
X3310783Y2099276D01*
X3361291Y2048768D02*
X3538068Y2225545D01*
X3495978Y2217127D01*
X3462306Y2217127D01*
X3437053Y2225545D01*
X3647501Y2116112D02*
X3765352Y1998260D01*
X3512814Y1897245D01*
X15179285Y32150715D02*
X15167380Y32138810D01*
X15131666Y32126905D01*
X15107857Y32126905D01*
X15072142Y32138810D01*
X15048333Y32162620D01*
X15036428Y32186429D01*
X15024523Y32234048D01*
X15024523Y32269762D01*
X15036428Y32317381D01*
X15048333Y32341191D01*
X15072142Y32365000D01*
X15107857Y32376905D01*
X15131666Y32376905D01*
X15167380Y32365000D01*
X15179285Y32353096D01*
X15274523Y32353096D02*
X15286428Y32365000D01*
X15310238Y32376905D01*
X15369761Y32376905D01*
X15393571Y32365000D01*
X15405476Y32353096D01*
X15417380Y32329286D01*
X15417380Y32305477D01*
X15405476Y32269762D01*
X15262619Y32126905D01*
X15417380Y32126905D01*
X15572142Y32376905D02*
X15595952Y32376905D01*
X15619761Y32365000D01*
X15631666Y32353096D01*
X15643571Y32329286D01*
X15655476Y32281667D01*
X15655476Y32222143D01*
X15643571Y32174524D01*
X15631666Y32150715D01*
X15619761Y32138810D01*
X15595952Y32126905D01*
X15572142Y32126905D01*
X15548333Y32138810D01*
X15536428Y32150715D01*
X15524523Y32174524D01*
X15512619Y32222143D01*
X15512619Y32281667D01*
X15524523Y32329286D01*
X15536428Y32353096D01*
X15548333Y32365000D01*
X15572142Y32376905D01*
X12649285Y29569286D02*
X12661190Y29557381D01*
X12673095Y29521667D01*
X12673095Y29497858D01*
X12661190Y29462143D01*
X12637380Y29438334D01*
X12613571Y29426429D01*
X12565952Y29414524D01*
X12530238Y29414524D01*
X12482619Y29426429D01*
X12458809Y29438334D01*
X12435000Y29462143D01*
X12423095Y29497858D01*
X12423095Y29521667D01*
X12435000Y29557381D01*
X12446904Y29569286D01*
X12673095Y29807381D02*
X12673095Y29664524D01*
X12673095Y29735953D02*
X12423095Y29735953D01*
X12458809Y29712143D01*
X12482619Y29688334D01*
X12494523Y29664524D01*
X12423095Y30033572D02*
X12423095Y29914524D01*
X12542142Y29902620D01*
X12530238Y29914524D01*
X12518333Y29938334D01*
X12518333Y29997858D01*
X12530238Y30021667D01*
X12542142Y30033572D01*
X12565952Y30045477D01*
X12625476Y30045477D01*
X12649285Y30033572D01*
X12661190Y30021667D01*
X12673095Y29997858D01*
X12673095Y29938334D01*
X12661190Y29914524D01*
X12649285Y29902620D01*
X15159285Y32850715D02*
X15147380Y32838810D01*
X15111666Y32826905D01*
X15087857Y32826905D01*
X15052142Y32838810D01*
X15028333Y32862620D01*
X15016428Y32886429D01*
X15004523Y32934048D01*
X15004523Y32969762D01*
X15016428Y33017381D01*
X15028333Y33041191D01*
X15052142Y33065000D01*
X15087857Y33076905D01*
X15111666Y33076905D01*
X15147380Y33065000D01*
X15159285Y33053096D01*
X15397380Y32826905D02*
X15254523Y32826905D01*
X15325952Y32826905D02*
X15325952Y33076905D01*
X15302142Y33041191D01*
X15278333Y33017381D01*
X15254523Y33005477D01*
X15635476Y32826905D02*
X15492619Y32826905D01*
X15564047Y32826905D02*
X15564047Y33076905D01*
X15540238Y33041191D01*
X15516428Y33017381D01*
X15492619Y33005477D01*
X14871354Y25562377D02*
X14854518Y25562377D01*
X14820847Y25579213D01*
X14804011Y25596048D01*
X14787175Y25629720D01*
X14787175Y25663392D01*
X14795593Y25688646D01*
X14820847Y25730736D01*
X14846100Y25755989D01*
X14888190Y25781243D01*
X14913444Y25789661D01*
X14947116Y25789661D01*
X14980787Y25772825D01*
X14997623Y25755989D01*
X15014459Y25722318D01*
X15014459Y25705482D01*
X15056549Y25545541D02*
X15048131Y25570795D01*
X15048131Y25587631D01*
X15056549Y25612884D01*
X15064967Y25621302D01*
X15090221Y25629720D01*
X15107056Y25629720D01*
X15132310Y25621302D01*
X15165982Y25587631D01*
X15174400Y25562377D01*
X15174400Y25545541D01*
X15165982Y25520287D01*
X15157564Y25511869D01*
X15132310Y25503451D01*
X15115474Y25503451D01*
X15090221Y25511869D01*
X15056549Y25545541D01*
X15031295Y25553959D01*
X15014459Y25553959D01*
X14989205Y25545541D01*
X14955534Y25511869D01*
X14947116Y25486615D01*
X14947116Y25469779D01*
X14955534Y25444526D01*
X14989205Y25410854D01*
X15014459Y25402436D01*
X15031295Y25402436D01*
X15056549Y25410854D01*
X15090221Y25444526D01*
X15098639Y25469779D01*
X15098639Y25486615D01*
X15090221Y25511869D01*
X13857402Y7716329D02*
X13840566Y7716329D01*
X13806895Y7733165D01*
X13790059Y7750000D01*
X13773223Y7783672D01*
X13773223Y7817344D01*
X13781641Y7842598D01*
X13806895Y7884688D01*
X13832148Y7909941D01*
X13874238Y7935195D01*
X13899492Y7943613D01*
X13933164Y7943613D01*
X13966835Y7926777D01*
X13983671Y7909941D01*
X14000507Y7876270D01*
X14000507Y7859434D01*
X13924746Y7615313D02*
X13958417Y7581642D01*
X13983671Y7573224D01*
X14000507Y7573224D01*
X14042597Y7581642D01*
X14084687Y7606896D01*
X14152030Y7674239D01*
X14160448Y7699493D01*
X14160448Y7716329D01*
X14152030Y7741583D01*
X14118358Y7775254D01*
X14093104Y7783672D01*
X14076269Y7783672D01*
X14051015Y7775254D01*
X14008925Y7733165D01*
X14000507Y7707911D01*
X14000507Y7691075D01*
X14008925Y7665821D01*
X14042597Y7632149D01*
X14067851Y7623731D01*
X14084687Y7623731D01*
X14109940Y7632149D01*
X11747402Y5536329D02*
X11730566Y5536329D01*
X11696895Y5553165D01*
X11680059Y5570000D01*
X11663223Y5603672D01*
X11663223Y5637344D01*
X11671641Y5662598D01*
X11696895Y5704688D01*
X11722148Y5729941D01*
X11764238Y5755195D01*
X11789492Y5763613D01*
X11823164Y5763613D01*
X11856835Y5746777D01*
X11873671Y5729941D01*
X11890507Y5696270D01*
X11890507Y5679434D01*
X12058866Y5544747D02*
X12025194Y5578418D01*
X11999940Y5586836D01*
X11983104Y5586836D01*
X11941015Y5578418D01*
X11898925Y5553165D01*
X11831582Y5485821D01*
X11823164Y5460567D01*
X11823164Y5443731D01*
X11831582Y5418478D01*
X11865253Y5384806D01*
X11890507Y5376388D01*
X11907343Y5376388D01*
X11932597Y5384806D01*
X11974687Y5426896D01*
X11983104Y5452149D01*
X11983104Y5468985D01*
X11974687Y5494239D01*
X11941015Y5527911D01*
X11915761Y5536329D01*
X11898925Y5536329D01*
X11873671Y5527911D01*
X11907402Y6506329D02*
X11890566Y6506329D01*
X11856895Y6523165D01*
X11840059Y6540000D01*
X11823223Y6573672D01*
X11823223Y6607344D01*
X11831641Y6632598D01*
X11856895Y6674688D01*
X11882148Y6699941D01*
X11924238Y6725195D01*
X11949492Y6733613D01*
X11983164Y6733613D01*
X12016835Y6716777D01*
X12033671Y6699941D01*
X12050507Y6666270D01*
X12050507Y6649434D01*
X12227284Y6506329D02*
X12143104Y6590508D01*
X12050507Y6514747D01*
X12067343Y6514747D01*
X12092597Y6506329D01*
X12134687Y6464239D01*
X12143104Y6438985D01*
X12143104Y6422149D01*
X12134687Y6396896D01*
X12092597Y6354806D01*
X12067343Y6346388D01*
X12050507Y6346388D01*
X12025253Y6354806D01*
X11983164Y6396896D01*
X11974746Y6422149D01*
X11974746Y6438985D01*
X3669285Y21439286D02*
X3681190Y21427381D01*
X3693095Y21391667D01*
X3693095Y21367858D01*
X3681190Y21332143D01*
X3657380Y21308334D01*
X3633571Y21296429D01*
X3585952Y21284524D01*
X3550238Y21284524D01*
X3502619Y21296429D01*
X3478809Y21308334D01*
X3455000Y21332143D01*
X3443095Y21367858D01*
X3443095Y21391667D01*
X3455000Y21427381D01*
X3466904Y21439286D01*
X3466904Y21534524D02*
X3455000Y21546429D01*
X3443095Y21570239D01*
X3443095Y21629762D01*
X3455000Y21653572D01*
X3466904Y21665477D01*
X3490714Y21677381D01*
X3514523Y21677381D01*
X3550238Y21665477D01*
X3693095Y21522620D01*
X3693095Y21677381D01*
X3443095Y21760715D02*
X3443095Y21927381D01*
X3693095Y21820239D01*
M02*
