G04 #@! TF.GenerationSoftware,KiCad,Pcbnew,5.1.9-1.fc33*
G04 #@! TF.CreationDate,2021-04-18T22:31:40+02:00*
G04 #@! TF.ProjectId,reDIP-SX,72654449-502d-4535-982e-6b696361645f,0.1*
G04 #@! TF.SameCoordinates,PX5e28010PY8011a50*
G04 #@! TF.FileFunction,Other,Fab,Top*
%FSLAX46Y46*%
G04 Gerber Fmt 4.6, Leading zero omitted, Abs format (unit mm)*
G04 Created by KiCad (PCBNEW 5.1.9-1.fc33) date 2021-04-18 22:31:40*
%MOMM*%
%LPD*%
G01*
G04 APERTURE LIST*
%ADD10C,0.100000*%
%ADD11C,0.040000*%
%ADD12C,0.150000*%
%ADD13C,0.030000*%
%ADD14C,0.075000*%
%ADD15C,0.060000*%
%ADD16C,0.110000*%
G04 APERTURE END LIST*
D10*
X12990520Y17293693D02*
X14210280Y16073934D01*
X14210280Y16073934D02*
X12796066Y14659720D01*
X12796066Y14659720D02*
X11169720Y16286066D01*
X11169720Y16286066D02*
X12230381Y17346726D01*
X12230381Y17346726D02*
X12990520Y17293693D01*
X6692340Y27134472D02*
X6904472Y26922340D01*
X6904472Y26922340D02*
X6480208Y26498076D01*
X6480208Y26498076D02*
X6268076Y26710208D01*
X6268076Y26710208D02*
X6692340Y27134472D01*
X13360000Y41140000D02*
X4420000Y41140000D01*
X13360000Y41140000D02*
X13360000Y34240000D01*
X4420000Y41140000D02*
X4420000Y34240000D01*
X13360000Y34240000D02*
X4420000Y34240000D01*
X12360000Y40640000D02*
X5420000Y40640000D01*
X3044107Y16322513D02*
X3623934Y16902341D01*
X3623934Y16902341D02*
X4062341Y16463934D01*
X4062341Y16463934D02*
X3341092Y15742685D01*
X3341092Y15742685D02*
X3044107Y16039670D01*
X3044107Y16322513D02*
X3044107Y16039670D01*
X3839740Y7263294D02*
X3415476Y7263294D01*
X2779080Y7899690D02*
X3415476Y7263294D01*
X3839740Y7263294D02*
X4758978Y8182532D01*
X2779080Y7899690D02*
X3910450Y9031060D01*
X3910450Y9031060D02*
X4758978Y8182532D01*
X7980000Y30221500D02*
X8330000Y29871500D01*
X8330000Y29871500D02*
X9780000Y29871500D01*
X9780000Y29871500D02*
X9780000Y31271500D01*
X9780000Y31271500D02*
X7980000Y31271500D01*
X7980000Y31271500D02*
X7980000Y30221500D01*
X10240000Y33090000D02*
X10540000Y32840000D01*
X10540000Y32840000D02*
X10540000Y32090000D01*
X10540000Y32090000D02*
X7240000Y32090000D01*
X7240000Y32090000D02*
X7240000Y33090000D01*
X7240000Y33090000D02*
X10240000Y33090000D01*
X13385000Y1755000D02*
X13685000Y1755000D01*
X13385000Y2555000D02*
X13685000Y2555000D01*
X13385000Y2555000D02*
X13385000Y1755000D01*
X13685000Y3755000D02*
X11285000Y3755000D01*
X13685000Y2555000D02*
X13685000Y3755000D01*
X10485000Y555000D02*
X10485000Y2955000D01*
X10485000Y555000D02*
X13685000Y555000D01*
X13685000Y555000D02*
X13685000Y1755000D01*
X10485000Y2955000D02*
X11285000Y3745000D01*
X11550000Y31960000D02*
X11260000Y32250000D01*
X11260000Y32250000D02*
X11260000Y33120000D01*
X12420000Y31960000D02*
X12420000Y33120000D01*
X12420000Y31960000D02*
X11550000Y31960000D01*
X12420000Y33120000D02*
X11260000Y33120000D01*
X6230000Y30770000D02*
X6230000Y30020000D01*
X6230000Y30020000D02*
X7230000Y30020000D01*
X7230000Y30020000D02*
X7230000Y31020000D01*
X7230000Y31020000D02*
X6480000Y31020000D01*
X6230000Y30770000D02*
X6480000Y31020000D01*
X6973934Y26001802D02*
X6761802Y26213934D01*
X6761802Y26213934D02*
X7186066Y26638198D01*
X7186066Y26638198D02*
X7398198Y26426066D01*
X7398198Y26426066D02*
X6973934Y26001802D01*
X3920000Y30770000D02*
X4170000Y31020000D01*
X4920000Y31020000D02*
X4170000Y31020000D01*
X4920000Y30020000D02*
X4920000Y31020000D01*
X3920000Y30020000D02*
X4920000Y30020000D01*
X3920000Y30770000D02*
X3920000Y30020000D01*
X2410000Y12360000D02*
X3670000Y12360000D01*
X3670000Y12360000D02*
X3670000Y9820000D01*
X3670000Y9820000D02*
X2410000Y9820000D01*
X2410000Y9820000D02*
X2410000Y12360000D01*
X13132641Y22297107D02*
X13132641Y20882893D01*
X8890000Y26539747D02*
X13132641Y22297107D01*
X3940253Y21590000D02*
X8890000Y26539747D01*
X8890000Y16640253D02*
X3940253Y21590000D01*
X13132641Y20882893D02*
X8890000Y16640253D01*
X5420000Y30780000D02*
X5720000Y30780000D01*
X5720000Y30780000D02*
X5720000Y30180000D01*
X5720000Y30180000D02*
X5420000Y30180000D01*
X5420000Y30180000D02*
X5420000Y30780000D01*
X3120000Y30780000D02*
X3420000Y30780000D01*
X3420000Y30780000D02*
X3420000Y30180000D01*
X3420000Y30180000D02*
X3120000Y30180000D01*
X3120000Y30180000D02*
X3120000Y30780000D01*
X11739670Y25469010D02*
X10148680Y27060000D01*
X10148680Y27060000D02*
X12270000Y29181320D01*
X12270000Y29181320D02*
X14391320Y27060000D01*
X14391320Y27060000D02*
X12800330Y25469010D01*
X12800330Y25469010D02*
X11739670Y25469010D01*
X11630000Y4610000D02*
X11030000Y4610000D01*
X11630000Y4910000D02*
X11630000Y4610000D01*
X11030000Y4910000D02*
X11630000Y4910000D01*
X11030000Y4610000D02*
X11030000Y4910000D01*
X3850000Y32260000D02*
X3250000Y32260000D01*
X3850000Y32160000D02*
X3250000Y32160000D01*
X3850000Y33060000D02*
X3850000Y32060000D01*
X3250000Y33060000D02*
X3850000Y33060000D01*
X3250000Y32060000D02*
X3250000Y33060000D01*
X3850000Y32060000D02*
X3250000Y32060000D01*
X5770000Y32260000D02*
X5170000Y32260000D01*
X5770000Y32160000D02*
X5170000Y32160000D01*
X5770000Y33060000D02*
X5770000Y32060000D01*
X5170000Y33060000D02*
X5770000Y33060000D01*
X5170000Y32060000D02*
X5170000Y33060000D01*
X5770000Y32060000D02*
X5170000Y32060000D01*
X8860000Y29170000D02*
X9160000Y29170000D01*
X9160000Y29170000D02*
X9160000Y28570000D01*
X9160000Y28570000D02*
X8860000Y28570000D01*
X8860000Y28570000D02*
X8860000Y29170000D01*
X11018198Y5603934D02*
X10806066Y5391802D01*
X10806066Y5391802D02*
X10381802Y5816066D01*
X10381802Y5816066D02*
X10593934Y6028198D01*
X10593934Y6028198D02*
X11018198Y5603934D01*
X5792183Y16352792D02*
X4519391Y15080000D01*
X7064975Y15080000D02*
X5792183Y16352792D01*
X7064975Y15080000D02*
X6110381Y14125406D01*
X5473985Y14125406D02*
X6110381Y14125406D01*
X4519391Y15080000D02*
X5473985Y14125406D01*
X5354975Y13380000D02*
X4082183Y14652792D01*
X4082183Y12107208D02*
X5354975Y13380000D01*
X4082183Y12107208D02*
X3127589Y13061802D01*
X3127589Y13698198D02*
X3127589Y13061802D01*
X4082183Y14652792D02*
X3127589Y13698198D01*
X8182893Y6447359D02*
X3940253Y10690000D01*
X3940253Y10690000D02*
X8890000Y15639747D01*
X8890000Y15639747D02*
X13839747Y10690000D01*
X13839747Y10690000D02*
X9597107Y6447359D01*
X9597107Y6447359D02*
X8182893Y6447359D01*
X7563934Y1581802D02*
X7351802Y1793934D01*
X7351802Y1793934D02*
X7776066Y2218198D01*
X7776066Y2218198D02*
X7988198Y2006066D01*
X7988198Y2006066D02*
X7563934Y1581802D01*
X3618680Y5067107D02*
X5740000Y7188427D01*
X5740000Y7188427D02*
X8568427Y4360000D01*
X8568427Y4360000D02*
X5740000Y1531573D01*
X5740000Y1531573D02*
X3618680Y3652893D01*
X3618680Y3652893D02*
X3618680Y5067107D01*
X10580000Y30270000D02*
X10280000Y30270000D01*
X10280000Y30270000D02*
X10280000Y30870000D01*
X10280000Y30870000D02*
X10580000Y30870000D01*
X10580000Y30870000D02*
X10580000Y30270000D01*
X14170000Y30760000D02*
X14170000Y31060000D01*
X14170000Y31060000D02*
X14770000Y31060000D01*
X14770000Y31060000D02*
X14770000Y30760000D01*
X14770000Y30760000D02*
X14170000Y30760000D01*
X7080000Y15940000D02*
X7080000Y16240000D01*
X7080000Y16240000D02*
X7680000Y16240000D01*
X7680000Y16240000D02*
X7680000Y15940000D01*
X7680000Y15940000D02*
X7080000Y15940000D01*
X4682340Y24114472D02*
X4894472Y23902340D01*
X4894472Y23902340D02*
X4470208Y23478076D01*
X4470208Y23478076D02*
X4258076Y23690208D01*
X4258076Y23690208D02*
X4682340Y24114472D01*
X6680000Y31950000D02*
X6180000Y31950000D01*
X6180000Y31950000D02*
X6180000Y32950000D01*
X6180000Y32950000D02*
X6680000Y32950000D01*
X6680000Y32950000D02*
X6680000Y31950000D01*
X4760000Y31950000D02*
X4260000Y31950000D01*
X4260000Y31950000D02*
X4260000Y32950000D01*
X4260000Y32950000D02*
X4760000Y32950000D01*
X4760000Y32950000D02*
X4760000Y31950000D01*
X14770000Y30360000D02*
X14770000Y30060000D01*
X14770000Y30060000D02*
X14170000Y30060000D01*
X14170000Y30060000D02*
X14170000Y30360000D01*
X14170000Y30360000D02*
X14770000Y30360000D01*
X14770000Y29660000D02*
X14770000Y29360000D01*
X14770000Y29360000D02*
X14170000Y29360000D01*
X14170000Y29360000D02*
X14170000Y29660000D01*
X14170000Y29660000D02*
X14770000Y29660000D01*
X4192114Y16034246D02*
X4404246Y15822114D01*
X4404246Y15822114D02*
X3979982Y15397850D01*
X3979982Y15397850D02*
X3767850Y15609982D01*
X3767850Y15609982D02*
X4192114Y16034246D01*
X13120000Y32360000D02*
X12820000Y32360000D01*
X12820000Y32360000D02*
X12820000Y32960000D01*
X12820000Y32960000D02*
X13120000Y32960000D01*
X13120000Y32960000D02*
X13120000Y32360000D01*
X9560000Y29170000D02*
X9860000Y29170000D01*
X9860000Y29170000D02*
X9860000Y28570000D01*
X9860000Y28570000D02*
X9560000Y28570000D01*
X9560000Y28570000D02*
X9560000Y29170000D01*
X5568198Y18593934D02*
X5356066Y18381802D01*
X5356066Y18381802D02*
X4931802Y18806066D01*
X4931802Y18806066D02*
X5143934Y19018198D01*
X5143934Y19018198D02*
X5568198Y18593934D01*
X12778198Y7143934D02*
X12566066Y6931802D01*
X12566066Y6931802D02*
X12141802Y7356066D01*
X12141802Y7356066D02*
X12353934Y7568198D01*
X12353934Y7568198D02*
X12778198Y7143934D01*
X13278198Y7643934D02*
X13066066Y7431802D01*
X13066066Y7431802D02*
X12641802Y7856066D01*
X12641802Y7856066D02*
X12853934Y8068198D01*
X12853934Y8068198D02*
X13278198Y7643934D01*
X3180000Y5965000D02*
X2880000Y5965000D01*
X2880000Y5965000D02*
X2880000Y6565000D01*
X2880000Y6565000D02*
X3180000Y6565000D01*
X3180000Y6565000D02*
X3180000Y5965000D01*
X11990000Y30270000D02*
X11690000Y30270000D01*
X11690000Y30270000D02*
X11690000Y30870000D01*
X11690000Y30870000D02*
X11990000Y30870000D01*
X11990000Y30870000D02*
X11990000Y30270000D01*
X13570208Y12558076D02*
X13358076Y12770208D01*
X13358076Y12770208D02*
X13782340Y13194472D01*
X13782340Y13194472D02*
X13994472Y12982340D01*
X13994472Y12982340D02*
X13570208Y12558076D01*
X13070208Y13058076D02*
X12858076Y13270208D01*
X12858076Y13270208D02*
X13282340Y13694472D01*
X13282340Y13694472D02*
X13494472Y13482340D01*
X13494472Y13482340D02*
X13070208Y13058076D01*
X14250000Y9160000D02*
X14550000Y9160000D01*
X14550000Y9160000D02*
X14550000Y8560000D01*
X14550000Y8560000D02*
X14250000Y8560000D01*
X14250000Y8560000D02*
X14250000Y9160000D01*
X14890000Y21290000D02*
X14590000Y21290000D01*
X14590000Y21290000D02*
X14590000Y21890000D01*
X14590000Y21890000D02*
X14890000Y21890000D01*
X14890000Y21890000D02*
X14890000Y21290000D01*
X3967886Y23985754D02*
X3755754Y24197886D01*
X3755754Y24197886D02*
X4180018Y24622150D01*
X4180018Y24622150D02*
X4392150Y24410018D01*
X4392150Y24410018D02*
X3967886Y23985754D01*
X5068198Y18093934D02*
X4856066Y17881802D01*
X4856066Y17881802D02*
X4431802Y18306066D01*
X4431802Y18306066D02*
X4643934Y18518198D01*
X4643934Y18518198D02*
X5068198Y18093934D01*
X4196777Y19650330D02*
X4550330Y19296777D01*
X4550330Y19296777D02*
X3843223Y18589670D01*
X3843223Y18589670D02*
X3489670Y18943223D01*
X3489670Y18943223D02*
X4196777Y19650330D01*
X3706066Y20168198D02*
X3918198Y19956066D01*
X3918198Y19956066D02*
X3493934Y19531802D01*
X3493934Y19531802D02*
X3281802Y19743934D01*
X3281802Y19743934D02*
X3706066Y20168198D01*
X14553934Y23401802D02*
X14341802Y23613934D01*
X14341802Y23613934D02*
X14766066Y24038198D01*
X14766066Y24038198D02*
X14978198Y23826066D01*
X14978198Y23826066D02*
X14553934Y23401802D01*
X14053934Y23901802D02*
X13841802Y24113934D01*
X13841802Y24113934D02*
X14266066Y24538198D01*
X14266066Y24538198D02*
X14478198Y24326066D01*
X14478198Y24326066D02*
X14053934Y23901802D01*
X13563934Y24401802D02*
X13351802Y24613934D01*
X13351802Y24613934D02*
X13776066Y25038198D01*
X13776066Y25038198D02*
X13988198Y24826066D01*
X13988198Y24826066D02*
X13563934Y24401802D01*
X14990000Y28150000D02*
X14690000Y28150000D01*
X14690000Y28150000D02*
X14690000Y28750000D01*
X14690000Y28750000D02*
X14990000Y28750000D01*
X14990000Y28750000D02*
X14990000Y28150000D01*
X11280000Y30270000D02*
X10980000Y30270000D01*
X10980000Y30270000D02*
X10980000Y30870000D01*
X10980000Y30870000D02*
X11280000Y30870000D01*
X11280000Y30870000D02*
X11280000Y30270000D01*
X14770000Y31760000D02*
X14770000Y31460000D01*
X14770000Y31460000D02*
X14170000Y31460000D01*
X14170000Y31460000D02*
X14170000Y31760000D01*
X14170000Y31760000D02*
X14770000Y31760000D01*
X3967383Y1956170D02*
X3613830Y1602617D01*
X3613830Y1602617D02*
X2906723Y2309724D01*
X2906723Y2309724D02*
X3260276Y2663277D01*
X3260276Y2663277D02*
X3967383Y1956170D01*
X14160000Y32460000D02*
X14760000Y32460000D01*
X14160000Y32160000D02*
X14160000Y32460000D01*
X14760000Y32160000D02*
X14160000Y32160000D01*
X14760000Y32460000D02*
X14760000Y32160000D01*
X12700000Y30270000D02*
X12400000Y30270000D01*
X12400000Y30270000D02*
X12400000Y30870000D01*
X12400000Y30870000D02*
X12700000Y30870000D01*
X12700000Y30870000D02*
X12700000Y30270000D01*
X14770000Y32860000D02*
X14170000Y32860000D01*
X14770000Y33160000D02*
X14770000Y32860000D01*
X14170000Y33160000D02*
X14770000Y33160000D01*
X14170000Y32860000D02*
X14170000Y33160000D01*
X14351802Y25326066D02*
X14563934Y25538198D01*
X14563934Y25538198D02*
X14988198Y25113934D01*
X14988198Y25113934D02*
X14776066Y24901802D01*
X14776066Y24901802D02*
X14351802Y25326066D01*
X13138076Y8349792D02*
X13350208Y8561924D01*
X13350208Y8561924D02*
X13774472Y8137660D01*
X13774472Y8137660D02*
X13562340Y7925528D01*
X13562340Y7925528D02*
X13138076Y8349792D01*
X10975528Y6222340D02*
X11187660Y6434472D01*
X11187660Y6434472D02*
X11611924Y6010208D01*
X11611924Y6010208D02*
X11399792Y5798076D01*
X11399792Y5798076D02*
X10975528Y6222340D01*
X12206777Y5999670D02*
X11499670Y6706777D01*
X12560330Y6353223D02*
X12206777Y5999670D01*
X11853223Y7060330D02*
X12560330Y6353223D01*
X11499670Y6706777D02*
X11853223Y7060330D01*
X2900000Y21890000D02*
X3200000Y21890000D01*
X3200000Y21890000D02*
X3200000Y21290000D01*
X3200000Y21290000D02*
X2900000Y21290000D01*
X2900000Y21290000D02*
X2900000Y21890000D01*
X12445879Y16811346D02*
X12159669Y16525136D01*
X12142834Y16474628D01*
X12142834Y16440957D01*
X12159669Y16390449D01*
X12227013Y16323105D01*
X12277521Y16306270D01*
X12311192Y16306270D01*
X12361700Y16323105D01*
X12647910Y16609315D01*
X12647910Y15902209D02*
X12445879Y16104239D01*
X12546895Y16003224D02*
X12900448Y16356777D01*
X12816269Y16339941D01*
X12748925Y16339941D01*
X12698417Y16356777D01*
X12984627Y15565491D02*
X12782597Y15767522D01*
X12883612Y15666506D02*
X13237165Y16020060D01*
X13152986Y16003224D01*
X13085643Y16003224D01*
X13035135Y16020060D01*
D11*
X7033435Y26141829D02*
X6890330Y26167083D01*
X6932419Y26040814D02*
X6755643Y26217590D01*
X6822986Y26284934D01*
X6848240Y26293352D01*
X6865076Y26293352D01*
X6890330Y26284934D01*
X6915584Y26259680D01*
X6924002Y26234426D01*
X6924002Y26217590D01*
X6915584Y26192337D01*
X6848240Y26124993D01*
X7201794Y26310188D02*
X7100778Y26209172D01*
X7151286Y26259680D02*
X6974509Y26436457D01*
X6982927Y26394367D01*
X6982927Y26360695D01*
X6974509Y26335441D01*
X7134450Y26596398D02*
X7151286Y26613233D01*
X7176540Y26621651D01*
X7193376Y26621651D01*
X7218629Y26613233D01*
X7260719Y26587980D01*
X7302809Y26545890D01*
X7328063Y26503800D01*
X7336481Y26478546D01*
X7336481Y26461711D01*
X7328063Y26436457D01*
X7311227Y26419621D01*
X7285973Y26411203D01*
X7269137Y26411203D01*
X7243883Y26419621D01*
X7201794Y26444875D01*
X7159704Y26486964D01*
X7134450Y26529054D01*
X7126032Y26554308D01*
X7126032Y26571144D01*
X7134450Y26596398D01*
D12*
X8556666Y38087620D02*
X8556666Y37373334D01*
X8509047Y37230477D01*
X8413809Y37135239D01*
X8270952Y37087620D01*
X8175714Y37087620D01*
X9556666Y37087620D02*
X8985238Y37087620D01*
X9270952Y37087620D02*
X9270952Y38087620D01*
X9175714Y37944762D01*
X9080476Y37849524D01*
X8985238Y37801905D01*
D11*
X7518571Y40459048D02*
X7518571Y40859048D01*
X7670952Y40859048D01*
X7709047Y40840000D01*
X7728095Y40820953D01*
X7747142Y40782858D01*
X7747142Y40725715D01*
X7728095Y40687620D01*
X7709047Y40668572D01*
X7670952Y40649524D01*
X7518571Y40649524D01*
X8147142Y40497143D02*
X8128095Y40478096D01*
X8070952Y40459048D01*
X8032857Y40459048D01*
X7975714Y40478096D01*
X7937619Y40516191D01*
X7918571Y40554286D01*
X7899523Y40630477D01*
X7899523Y40687620D01*
X7918571Y40763810D01*
X7937619Y40801905D01*
X7975714Y40840000D01*
X8032857Y40859048D01*
X8070952Y40859048D01*
X8128095Y40840000D01*
X8147142Y40820953D01*
X8451904Y40668572D02*
X8509047Y40649524D01*
X8528095Y40630477D01*
X8547142Y40592381D01*
X8547142Y40535239D01*
X8528095Y40497143D01*
X8509047Y40478096D01*
X8470952Y40459048D01*
X8318571Y40459048D01*
X8318571Y40859048D01*
X8451904Y40859048D01*
X8490000Y40840000D01*
X8509047Y40820953D01*
X8528095Y40782858D01*
X8528095Y40744762D01*
X8509047Y40706667D01*
X8490000Y40687620D01*
X8451904Y40668572D01*
X8318571Y40668572D01*
X9023333Y40668572D02*
X9156666Y40668572D01*
X9213809Y40459048D02*
X9023333Y40459048D01*
X9023333Y40859048D01*
X9213809Y40859048D01*
X9556666Y40459048D02*
X9556666Y40859048D01*
X9556666Y40478096D02*
X9518571Y40459048D01*
X9442380Y40459048D01*
X9404285Y40478096D01*
X9385238Y40497143D01*
X9366190Y40535239D01*
X9366190Y40649524D01*
X9385238Y40687620D01*
X9404285Y40706667D01*
X9442380Y40725715D01*
X9518571Y40725715D01*
X9556666Y40706667D01*
X9918571Y40725715D02*
X9918571Y40401905D01*
X9899523Y40363810D01*
X9880476Y40344762D01*
X9842380Y40325715D01*
X9785238Y40325715D01*
X9747142Y40344762D01*
X9918571Y40478096D02*
X9880476Y40459048D01*
X9804285Y40459048D01*
X9766190Y40478096D01*
X9747142Y40497143D01*
X9728095Y40535239D01*
X9728095Y40649524D01*
X9747142Y40687620D01*
X9766190Y40706667D01*
X9804285Y40725715D01*
X9880476Y40725715D01*
X9918571Y40706667D01*
X10261428Y40478096D02*
X10223333Y40459048D01*
X10147142Y40459048D01*
X10109047Y40478096D01*
X10090000Y40516191D01*
X10090000Y40668572D01*
X10109047Y40706667D01*
X10147142Y40725715D01*
X10223333Y40725715D01*
X10261428Y40706667D01*
X10280476Y40668572D01*
X10280476Y40630477D01*
X10090000Y40592381D01*
D13*
X3546489Y16231600D02*
X3526286Y16224865D01*
X3499348Y16224865D01*
X3458942Y16224865D01*
X3438739Y16218131D01*
X3425271Y16204662D01*
X3465677Y16177725D02*
X3445474Y16170991D01*
X3418536Y16170991D01*
X3384864Y16191194D01*
X3337724Y16238334D01*
X3317521Y16272006D01*
X3317521Y16298943D01*
X3324255Y16319146D01*
X3351193Y16346084D01*
X3371396Y16352818D01*
X3398333Y16352818D01*
X3432005Y16332615D01*
X3479145Y16285475D01*
X3499348Y16251803D01*
X3499348Y16224865D01*
X3492614Y16204662D01*
X3465677Y16177725D01*
X3452208Y16420162D02*
X3452208Y16433630D01*
X3458942Y16453833D01*
X3492614Y16487505D01*
X3512817Y16494239D01*
X3526286Y16494239D01*
X3546489Y16487505D01*
X3559958Y16474036D01*
X3573426Y16447099D01*
X3573426Y16285475D01*
X3660973Y16373021D01*
D14*
X3928969Y7813827D02*
X3878462Y7796991D01*
X3811118Y7796991D01*
X3710103Y7796991D01*
X3659595Y7780155D01*
X3625924Y7746484D01*
X3726939Y7679140D02*
X3676431Y7662304D01*
X3609088Y7662304D01*
X3524908Y7712812D01*
X3407057Y7830663D01*
X3356550Y7914842D01*
X3356550Y7982186D01*
X3373385Y8032694D01*
X3440729Y8100037D01*
X3491237Y8116873D01*
X3558580Y8116873D01*
X3642759Y8066365D01*
X3760611Y7948514D01*
X3811118Y7864335D01*
X3811118Y7796991D01*
X3794282Y7746484D01*
X3726939Y7679140D01*
X4215179Y8167381D02*
X4013149Y7965350D01*
X4114164Y8066365D02*
X3760611Y8419919D01*
X3777446Y8335739D01*
X3777446Y8268396D01*
X3760611Y8217888D01*
D15*
X8715714Y30342929D02*
X8958571Y30342929D01*
X8987142Y30357215D01*
X9001428Y30371500D01*
X9015714Y30400072D01*
X9015714Y30457215D01*
X9001428Y30485786D01*
X8987142Y30500072D01*
X8958571Y30514358D01*
X8715714Y30514358D01*
X8715714Y30628643D02*
X8715714Y30814358D01*
X8830000Y30714358D01*
X8830000Y30757215D01*
X8844285Y30785786D01*
X8858571Y30800072D01*
X8887142Y30814358D01*
X8958571Y30814358D01*
X8987142Y30800072D01*
X9001428Y30785786D01*
X9015714Y30757215D01*
X9015714Y30671500D01*
X9001428Y30642929D01*
X8987142Y30628643D01*
X8668571Y32454286D02*
X8668571Y32754286D01*
X8740000Y32754286D01*
X8782857Y32740000D01*
X8811428Y32711429D01*
X8825714Y32682858D01*
X8840000Y32625715D01*
X8840000Y32582858D01*
X8825714Y32525715D01*
X8811428Y32497143D01*
X8782857Y32468572D01*
X8740000Y32454286D01*
X8668571Y32454286D01*
X8940000Y32754286D02*
X9125714Y32754286D01*
X9025714Y32640000D01*
X9068571Y32640000D01*
X9097142Y32625715D01*
X9111428Y32611429D01*
X9125714Y32582858D01*
X9125714Y32511429D01*
X9111428Y32482858D01*
X9097142Y32468572D01*
X9068571Y32454286D01*
X8982857Y32454286D01*
X8954285Y32468572D01*
X8940000Y32482858D01*
D10*
X11268333Y2038334D02*
X11601666Y2038334D01*
X11201666Y1838334D02*
X11435000Y2538334D01*
X11668333Y1838334D01*
X11901666Y2205000D02*
X12135000Y2205000D01*
X12235000Y1838334D02*
X11901666Y1838334D01*
X11901666Y2538334D01*
X12235000Y2538334D01*
X12901666Y1838334D02*
X12501666Y1838334D01*
X12701666Y1838334D02*
X12701666Y2538334D01*
X12635000Y2438334D01*
X12568333Y2371667D01*
X12501666Y2338334D01*
D11*
X11730476Y32387620D02*
X11892380Y32387620D01*
X11911428Y32397143D01*
X11920952Y32406667D01*
X11930476Y32425715D01*
X11930476Y32463810D01*
X11920952Y32482858D01*
X11911428Y32492381D01*
X11892380Y32501905D01*
X11730476Y32501905D01*
X11730476Y32578096D02*
X11730476Y32711429D01*
X11930476Y32625715D01*
X6539523Y30656905D02*
X6539523Y30454524D01*
X6551428Y30430715D01*
X6563333Y30418810D01*
X6587142Y30406905D01*
X6634761Y30406905D01*
X6658571Y30418810D01*
X6670476Y30430715D01*
X6682380Y30454524D01*
X6682380Y30656905D01*
X6932380Y30406905D02*
X6789523Y30406905D01*
X6860952Y30406905D02*
X6860952Y30656905D01*
X6837142Y30621191D01*
X6813333Y30597381D01*
X6789523Y30585477D01*
X6666328Y26516388D02*
X6523223Y26541642D01*
X6565312Y26415373D02*
X6388536Y26592149D01*
X6455879Y26659493D01*
X6481133Y26667911D01*
X6497969Y26667911D01*
X6523223Y26659493D01*
X6548477Y26634239D01*
X6556895Y26608985D01*
X6556895Y26592149D01*
X6548477Y26566896D01*
X6481133Y26499552D01*
X6834687Y26684747D02*
X6733671Y26583731D01*
X6784179Y26634239D02*
X6607402Y26811016D01*
X6615820Y26768926D01*
X6615820Y26735254D01*
X6607402Y26710000D01*
X6716835Y26920449D02*
X6826269Y27029882D01*
X6834687Y26903613D01*
X6859940Y26928867D01*
X6885194Y26937285D01*
X6902030Y26937285D01*
X6927284Y26928867D01*
X6969374Y26886777D01*
X6977791Y26861523D01*
X6977791Y26844688D01*
X6969374Y26819434D01*
X6918866Y26768926D01*
X6893612Y26760508D01*
X6876776Y26760508D01*
X4229523Y30656905D02*
X4229523Y30454524D01*
X4241428Y30430715D01*
X4253333Y30418810D01*
X4277142Y30406905D01*
X4324761Y30406905D01*
X4348571Y30418810D01*
X4360476Y30430715D01*
X4372380Y30454524D01*
X4372380Y30656905D01*
X4479523Y30633096D02*
X4491428Y30645000D01*
X4515238Y30656905D01*
X4574761Y30656905D01*
X4598571Y30645000D01*
X4610476Y30633096D01*
X4622380Y30609286D01*
X4622380Y30585477D01*
X4610476Y30549762D01*
X4467619Y30406905D01*
X4622380Y30406905D01*
D12*
X2706666Y11637620D02*
X2706666Y10923334D01*
X2659047Y10780477D01*
X2563809Y10685239D01*
X2420952Y10637620D01*
X2325714Y10637620D01*
X3230476Y10637620D02*
X3420952Y10637620D01*
X3516190Y10685239D01*
X3563809Y10732858D01*
X3659047Y10875715D01*
X3706666Y11066191D01*
X3706666Y11447143D01*
X3659047Y11542381D01*
X3611428Y11590000D01*
X3516190Y11637620D01*
X3325714Y11637620D01*
X3230476Y11590000D01*
X3182857Y11542381D01*
X3135238Y11447143D01*
X3135238Y11209048D01*
X3182857Y11113810D01*
X3230476Y11066191D01*
X3325714Y11018572D01*
X3516190Y11018572D01*
X3611428Y11066191D01*
X3659047Y11113810D01*
X3706666Y11209048D01*
X7964026Y21438478D02*
X8536446Y20866058D01*
X8637461Y20832386D01*
X8704805Y20832386D01*
X8805820Y20866058D01*
X8940507Y21000745D01*
X8974179Y21101760D01*
X8974179Y21169104D01*
X8940507Y21270119D01*
X8368087Y21842539D01*
X9108866Y21977226D02*
X9007851Y21943554D01*
X8940507Y21943554D01*
X8839492Y21977226D01*
X8805820Y22010897D01*
X8772148Y22111913D01*
X8772148Y22179256D01*
X8805820Y22280271D01*
X8940507Y22414958D01*
X9041522Y22448630D01*
X9108866Y22448630D01*
X9209881Y22414958D01*
X9243553Y22381287D01*
X9277225Y22280271D01*
X9277225Y22212928D01*
X9243553Y22111913D01*
X9108866Y21977226D01*
X9075194Y21876210D01*
X9075194Y21808867D01*
X9108866Y21707852D01*
X9243553Y21573165D01*
X9344568Y21539493D01*
X9411912Y21539493D01*
X9512927Y21573165D01*
X9647614Y21707852D01*
X9681286Y21808867D01*
X9681286Y21876210D01*
X9647614Y21977226D01*
X9512927Y22111913D01*
X9411912Y22145584D01*
X9344568Y22145584D01*
X9243553Y22111913D01*
D11*
X5679285Y29738334D02*
X5691190Y29726429D01*
X5703095Y29690715D01*
X5703095Y29666905D01*
X5691190Y29631191D01*
X5667380Y29607381D01*
X5643571Y29595477D01*
X5595952Y29583572D01*
X5560238Y29583572D01*
X5512619Y29595477D01*
X5488809Y29607381D01*
X5465000Y29631191D01*
X5453095Y29666905D01*
X5453095Y29690715D01*
X5465000Y29726429D01*
X5476904Y29738334D01*
X5476904Y29833572D02*
X5465000Y29845477D01*
X5453095Y29869286D01*
X5453095Y29928810D01*
X5465000Y29952620D01*
X5476904Y29964524D01*
X5500714Y29976429D01*
X5524523Y29976429D01*
X5560238Y29964524D01*
X5703095Y29821667D01*
X5703095Y29976429D01*
X3359285Y29738334D02*
X3371190Y29726429D01*
X3383095Y29690715D01*
X3383095Y29666905D01*
X3371190Y29631191D01*
X3347380Y29607381D01*
X3323571Y29595477D01*
X3275952Y29583572D01*
X3240238Y29583572D01*
X3192619Y29595477D01*
X3168809Y29607381D01*
X3145000Y29631191D01*
X3133095Y29666905D01*
X3133095Y29690715D01*
X3145000Y29726429D01*
X3156904Y29738334D01*
X3216428Y29952620D02*
X3383095Y29952620D01*
X3121190Y29893096D02*
X3299761Y29833572D01*
X3299761Y29988334D01*
D16*
X12156357Y27754480D02*
X11727043Y27325166D01*
X11701789Y27249404D01*
X11701789Y27198896D01*
X11727043Y27123135D01*
X11828058Y27022120D01*
X11903819Y26996866D01*
X11954327Y26996866D01*
X12030088Y27022120D01*
X12459403Y27451435D01*
X12762449Y26794835D02*
X12408895Y26441282D01*
X12838210Y27123135D02*
X12333134Y26870597D01*
X12661434Y26542297D01*
D11*
X12048333Y4646905D02*
X11929285Y4646905D01*
X11929285Y4896905D01*
X12262619Y4646905D02*
X12119761Y4646905D01*
X12191190Y4646905D02*
X12191190Y4896905D01*
X12167380Y4861191D01*
X12143571Y4837381D01*
X12119761Y4825477D01*
X3663095Y32445477D02*
X3413095Y32445477D01*
X3413095Y32505000D01*
X3425000Y32540715D01*
X3448809Y32564524D01*
X3472619Y32576429D01*
X3520238Y32588334D01*
X3555952Y32588334D01*
X3603571Y32576429D01*
X3627380Y32564524D01*
X3651190Y32540715D01*
X3663095Y32505000D01*
X3663095Y32445477D01*
X3436904Y32683572D02*
X3425000Y32695477D01*
X3413095Y32719286D01*
X3413095Y32778810D01*
X3425000Y32802620D01*
X3436904Y32814524D01*
X3460714Y32826429D01*
X3484523Y32826429D01*
X3520238Y32814524D01*
X3663095Y32671667D01*
X3663095Y32826429D01*
X5583095Y32465477D02*
X5333095Y32465477D01*
X5333095Y32525000D01*
X5345000Y32560715D01*
X5368809Y32584524D01*
X5392619Y32596429D01*
X5440238Y32608334D01*
X5475952Y32608334D01*
X5523571Y32596429D01*
X5547380Y32584524D01*
X5571190Y32560715D01*
X5583095Y32525000D01*
X5583095Y32465477D01*
X5583095Y32846429D02*
X5583095Y32703572D01*
X5583095Y32775000D02*
X5333095Y32775000D01*
X5368809Y32751191D01*
X5392619Y32727381D01*
X5404523Y32703572D01*
X9089285Y27829286D02*
X9101190Y27817381D01*
X9113095Y27781667D01*
X9113095Y27757858D01*
X9101190Y27722143D01*
X9077380Y27698334D01*
X9053571Y27686429D01*
X9005952Y27674524D01*
X8970238Y27674524D01*
X8922619Y27686429D01*
X8898809Y27698334D01*
X8875000Y27722143D01*
X8863095Y27757858D01*
X8863095Y27781667D01*
X8875000Y27817381D01*
X8886904Y27829286D01*
X9113095Y28067381D02*
X9113095Y27924524D01*
X9113095Y27995953D02*
X8863095Y27995953D01*
X8898809Y27972143D01*
X8922619Y27948334D01*
X8934523Y27924524D01*
X8970238Y28210239D02*
X8958333Y28186429D01*
X8946428Y28174524D01*
X8922619Y28162620D01*
X8910714Y28162620D01*
X8886904Y28174524D01*
X8875000Y28186429D01*
X8863095Y28210239D01*
X8863095Y28257858D01*
X8875000Y28281667D01*
X8886904Y28293572D01*
X8910714Y28305477D01*
X8922619Y28305477D01*
X8946428Y28293572D01*
X8958333Y28281667D01*
X8970238Y28257858D01*
X8970238Y28210239D01*
X8982142Y28186429D01*
X8994047Y28174524D01*
X9017857Y28162620D01*
X9065476Y28162620D01*
X9089285Y28174524D01*
X9101190Y28186429D01*
X9113095Y28210239D01*
X9113095Y28257858D01*
X9101190Y28281667D01*
X9089285Y28293572D01*
X9065476Y28305477D01*
X9017857Y28305477D01*
X8994047Y28293572D01*
X8982142Y28281667D01*
X8970238Y28257858D01*
X10230566Y5239493D02*
X10255820Y5382598D01*
X10129551Y5340508D02*
X10306328Y5517285D01*
X10373671Y5449941D01*
X10382089Y5424688D01*
X10382089Y5407852D01*
X10373671Y5382598D01*
X10348417Y5357344D01*
X10323164Y5348926D01*
X10306328Y5348926D01*
X10281074Y5357344D01*
X10213730Y5424688D01*
X10398925Y5071134D02*
X10297910Y5172149D01*
X10348417Y5121642D02*
X10525194Y5298418D01*
X10483104Y5290000D01*
X10449433Y5290000D01*
X10424179Y5298418D01*
D10*
X5455465Y15160813D02*
X5738308Y15443655D01*
X5805651Y15376312D01*
X5832589Y15322437D01*
X5832589Y15268562D01*
X5819120Y15228156D01*
X5778714Y15160813D01*
X5738308Y15120407D01*
X5670964Y15080000D01*
X5630558Y15066532D01*
X5576683Y15066532D01*
X5522808Y15093469D01*
X5455465Y15160813D01*
X6048088Y14945313D02*
X5859526Y14756752D01*
X6088494Y15120407D02*
X5819120Y14985720D01*
X5994213Y14810626D01*
X4001370Y13043283D02*
X3718528Y13326126D01*
X3785871Y13393469D01*
X3839746Y13420407D01*
X3893621Y13420407D01*
X3934027Y13406938D01*
X4001370Y13366532D01*
X4041776Y13326126D01*
X4082183Y13258782D01*
X4095651Y13218376D01*
X4095651Y13164501D01*
X4068714Y13110626D01*
X4001370Y13043283D01*
X4136057Y13743655D02*
X4001370Y13608968D01*
X4122589Y13460813D01*
X4122589Y13487750D01*
X4136057Y13528156D01*
X4203401Y13595500D01*
X4243807Y13608968D01*
X4270744Y13608968D01*
X4311150Y13595500D01*
X4378494Y13528156D01*
X4391963Y13487750D01*
X4391963Y13460813D01*
X4378494Y13420407D01*
X4311150Y13353063D01*
X4270744Y13339594D01*
X4243807Y13339594D01*
D12*
X8738477Y11615974D02*
X8166057Y11043554D01*
X8132385Y10942539D01*
X8132385Y10875195D01*
X8166057Y10774180D01*
X8300744Y10639493D01*
X8401759Y10605821D01*
X8469103Y10605821D01*
X8570118Y10639493D01*
X9142538Y11211913D01*
X9815973Y10538478D02*
X9479255Y10875195D01*
X9108866Y10572149D01*
X9176209Y10572149D01*
X9277225Y10538478D01*
X9445583Y10370119D01*
X9479255Y10269104D01*
X9479255Y10201760D01*
X9445583Y10100745D01*
X9277225Y9932386D01*
X9176209Y9898714D01*
X9108866Y9898714D01*
X9007851Y9932386D01*
X8839492Y10100745D01*
X8805820Y10201760D01*
X8805820Y10269104D01*
D11*
X7263218Y2076950D02*
X7263218Y2060114D01*
X7246382Y2026442D01*
X7229546Y2009606D01*
X7195874Y1992770D01*
X7162203Y1992770D01*
X7136949Y2001188D01*
X7094859Y2026442D01*
X7069605Y2051696D01*
X7044351Y2093786D01*
X7035934Y2119039D01*
X7035934Y2152711D01*
X7052769Y2186383D01*
X7069605Y2203219D01*
X7103277Y2220055D01*
X7120113Y2220055D01*
X7448413Y2228473D02*
X7347397Y2127457D01*
X7397905Y2177965D02*
X7221128Y2354742D01*
X7229546Y2312652D01*
X7229546Y2278980D01*
X7221128Y2253726D01*
X7423159Y2556772D02*
X7389487Y2523101D01*
X7381069Y2497847D01*
X7381069Y2481011D01*
X7389487Y2438921D01*
X7414741Y2396831D01*
X7482084Y2329488D01*
X7507338Y2321070D01*
X7524174Y2321070D01*
X7549428Y2329488D01*
X7583100Y2363160D01*
X7591517Y2388414D01*
X7591517Y2405249D01*
X7583100Y2430503D01*
X7541010Y2472593D01*
X7515756Y2481011D01*
X7498920Y2481011D01*
X7473666Y2472593D01*
X7439995Y2438921D01*
X7431577Y2413667D01*
X7431577Y2396831D01*
X7439995Y2371578D01*
D12*
X4814026Y4208478D02*
X5386446Y3636058D01*
X5487461Y3602386D01*
X5554805Y3602386D01*
X5655820Y3636058D01*
X5790507Y3770745D01*
X5824179Y3871760D01*
X5824179Y3939104D01*
X5790507Y4040119D01*
X5218087Y4612539D01*
X5857851Y5252302D02*
X5723164Y5117615D01*
X5689492Y5016600D01*
X5689492Y4949256D01*
X5723164Y4780897D01*
X5824179Y4612539D01*
X6093553Y4343165D01*
X6194568Y4309493D01*
X6261912Y4309493D01*
X6362927Y4343165D01*
X6497614Y4477852D01*
X6531286Y4578867D01*
X6531286Y4646210D01*
X6497614Y4747226D01*
X6329255Y4915584D01*
X6228240Y4949256D01*
X6160896Y4949256D01*
X6059881Y4915584D01*
X5925194Y4780897D01*
X5891522Y4679882D01*
X5891522Y4612539D01*
X5925194Y4511523D01*
D11*
X10519285Y29768334D02*
X10531190Y29756429D01*
X10543095Y29720715D01*
X10543095Y29696905D01*
X10531190Y29661191D01*
X10507380Y29637381D01*
X10483571Y29625477D01*
X10435952Y29613572D01*
X10400238Y29613572D01*
X10352619Y29625477D01*
X10328809Y29637381D01*
X10305000Y29661191D01*
X10293095Y29696905D01*
X10293095Y29720715D01*
X10305000Y29756429D01*
X10316904Y29768334D01*
X10293095Y29851667D02*
X10293095Y30018334D01*
X10543095Y29911191D01*
X15169285Y30830715D02*
X15157380Y30818810D01*
X15121666Y30806905D01*
X15097857Y30806905D01*
X15062142Y30818810D01*
X15038333Y30842620D01*
X15026428Y30866429D01*
X15014523Y30914048D01*
X15014523Y30949762D01*
X15026428Y30997381D01*
X15038333Y31021191D01*
X15062142Y31045000D01*
X15097857Y31056905D01*
X15121666Y31056905D01*
X15157380Y31045000D01*
X15169285Y31033096D01*
X15407380Y30806905D02*
X15264523Y30806905D01*
X15335952Y30806905D02*
X15335952Y31056905D01*
X15312142Y31021191D01*
X15288333Y30997381D01*
X15264523Y30985477D01*
X15490714Y31056905D02*
X15645476Y31056905D01*
X15562142Y30961667D01*
X15597857Y30961667D01*
X15621666Y30949762D01*
X15633571Y30937858D01*
X15645476Y30914048D01*
X15645476Y30854524D01*
X15633571Y30830715D01*
X15621666Y30818810D01*
X15597857Y30806905D01*
X15526428Y30806905D01*
X15502619Y30818810D01*
X15490714Y30830715D01*
X7209285Y16566905D02*
X7125952Y16685953D01*
X7066428Y16566905D02*
X7066428Y16816905D01*
X7161666Y16816905D01*
X7185476Y16805000D01*
X7197380Y16793096D01*
X7209285Y16769286D01*
X7209285Y16733572D01*
X7197380Y16709762D01*
X7185476Y16697858D01*
X7161666Y16685953D01*
X7066428Y16685953D01*
X7447380Y16566905D02*
X7304523Y16566905D01*
X7375952Y16566905D02*
X7375952Y16816905D01*
X7352142Y16781191D01*
X7328333Y16757381D01*
X7304523Y16745477D01*
X7542619Y16793096D02*
X7554523Y16805000D01*
X7578333Y16816905D01*
X7637857Y16816905D01*
X7661666Y16805000D01*
X7673571Y16793096D01*
X7685476Y16769286D01*
X7685476Y16745477D01*
X7673571Y16709762D01*
X7530714Y16566905D01*
X7685476Y16566905D01*
X5156328Y24216388D02*
X5013223Y24241642D01*
X5055312Y24115373D02*
X4878536Y24292149D01*
X4945879Y24359493D01*
X4971133Y24367911D01*
X4987969Y24367911D01*
X5013223Y24359493D01*
X5038477Y24334239D01*
X5046895Y24308985D01*
X5046895Y24292149D01*
X5038477Y24266896D01*
X4971133Y24199552D01*
X5324687Y24384747D02*
X5223671Y24283731D01*
X5274179Y24334239D02*
X5097402Y24511016D01*
X5105820Y24468926D01*
X5105820Y24435254D01*
X5097402Y24410000D01*
X5493045Y24553105D02*
X5392030Y24452090D01*
X5442538Y24502598D02*
X5265761Y24679375D01*
X5274179Y24637285D01*
X5274179Y24603613D01*
X5265761Y24578359D01*
X6519285Y32408334D02*
X6531190Y32396429D01*
X6543095Y32360715D01*
X6543095Y32336905D01*
X6531190Y32301191D01*
X6507380Y32277381D01*
X6483571Y32265477D01*
X6435952Y32253572D01*
X6400238Y32253572D01*
X6352619Y32265477D01*
X6328809Y32277381D01*
X6305000Y32301191D01*
X6293095Y32336905D01*
X6293095Y32360715D01*
X6305000Y32396429D01*
X6316904Y32408334D01*
X6543095Y32646429D02*
X6543095Y32503572D01*
X6543095Y32575000D02*
X6293095Y32575000D01*
X6328809Y32551191D01*
X6352619Y32527381D01*
X6364523Y32503572D01*
X4599285Y32408334D02*
X4611190Y32396429D01*
X4623095Y32360715D01*
X4623095Y32336905D01*
X4611190Y32301191D01*
X4587380Y32277381D01*
X4563571Y32265477D01*
X4515952Y32253572D01*
X4480238Y32253572D01*
X4432619Y32265477D01*
X4408809Y32277381D01*
X4385000Y32301191D01*
X4373095Y32336905D01*
X4373095Y32360715D01*
X4385000Y32396429D01*
X4396904Y32408334D01*
X4373095Y32491667D02*
X4373095Y32646429D01*
X4468333Y32563096D01*
X4468333Y32598810D01*
X4480238Y32622620D01*
X4492142Y32634524D01*
X4515952Y32646429D01*
X4575476Y32646429D01*
X4599285Y32634524D01*
X4611190Y32622620D01*
X4623095Y32598810D01*
X4623095Y32527381D01*
X4611190Y32503572D01*
X4599285Y32491667D01*
X15159285Y30110715D02*
X15147380Y30098810D01*
X15111666Y30086905D01*
X15087857Y30086905D01*
X15052142Y30098810D01*
X15028333Y30122620D01*
X15016428Y30146429D01*
X15004523Y30194048D01*
X15004523Y30229762D01*
X15016428Y30277381D01*
X15028333Y30301191D01*
X15052142Y30325000D01*
X15087857Y30336905D01*
X15111666Y30336905D01*
X15147380Y30325000D01*
X15159285Y30313096D01*
X15397380Y30086905D02*
X15254523Y30086905D01*
X15325952Y30086905D02*
X15325952Y30336905D01*
X15302142Y30301191D01*
X15278333Y30277381D01*
X15254523Y30265477D01*
X15611666Y30253572D02*
X15611666Y30086905D01*
X15552142Y30348810D02*
X15492619Y30170239D01*
X15647380Y30170239D01*
X15159285Y29430715D02*
X15147380Y29418810D01*
X15111666Y29406905D01*
X15087857Y29406905D01*
X15052142Y29418810D01*
X15028333Y29442620D01*
X15016428Y29466429D01*
X15004523Y29514048D01*
X15004523Y29549762D01*
X15016428Y29597381D01*
X15028333Y29621191D01*
X15052142Y29645000D01*
X15087857Y29656905D01*
X15111666Y29656905D01*
X15147380Y29645000D01*
X15159285Y29633096D01*
X15397380Y29406905D02*
X15254523Y29406905D01*
X15325952Y29406905D02*
X15325952Y29656905D01*
X15302142Y29621191D01*
X15278333Y29597381D01*
X15254523Y29585477D01*
X15492619Y29633096D02*
X15504523Y29645000D01*
X15528333Y29656905D01*
X15587857Y29656905D01*
X15611666Y29645000D01*
X15623571Y29633096D01*
X15635476Y29609286D01*
X15635476Y29585477D01*
X15623571Y29549762D01*
X15480714Y29406905D01*
X15635476Y29406905D01*
X3409492Y14943224D02*
X3409492Y14926388D01*
X3392656Y14892716D01*
X3375820Y14875880D01*
X3342148Y14859044D01*
X3308477Y14859044D01*
X3283223Y14867462D01*
X3241133Y14892716D01*
X3215879Y14917970D01*
X3190625Y14960060D01*
X3182208Y14985313D01*
X3182208Y15018985D01*
X3199043Y15052657D01*
X3215879Y15069493D01*
X3249551Y15086329D01*
X3266387Y15086329D01*
X3308477Y15162090D02*
X3417910Y15271523D01*
X3426328Y15145254D01*
X3451582Y15170508D01*
X3476835Y15178926D01*
X3493671Y15178926D01*
X3518925Y15170508D01*
X3561015Y15128418D01*
X3569433Y15103165D01*
X3569433Y15086329D01*
X3561015Y15061075D01*
X3510507Y15010567D01*
X3485253Y15002149D01*
X3468417Y15002149D01*
X3527343Y15380957D02*
X3544179Y15397792D01*
X3569433Y15406210D01*
X3586269Y15406210D01*
X3611522Y15397792D01*
X3653612Y15372539D01*
X3695702Y15330449D01*
X3720956Y15288359D01*
X3729374Y15263105D01*
X3729374Y15246270D01*
X3720956Y15221016D01*
X3704120Y15204180D01*
X3678866Y15195762D01*
X3662030Y15195762D01*
X3636776Y15204180D01*
X3594687Y15229434D01*
X3552597Y15271523D01*
X3527343Y15313613D01*
X3518925Y15338867D01*
X3518925Y15355703D01*
X3527343Y15380957D01*
X13079285Y31609286D02*
X13091190Y31597381D01*
X13103095Y31561667D01*
X13103095Y31537858D01*
X13091190Y31502143D01*
X13067380Y31478334D01*
X13043571Y31466429D01*
X12995952Y31454524D01*
X12960238Y31454524D01*
X12912619Y31466429D01*
X12888809Y31478334D01*
X12865000Y31502143D01*
X12853095Y31537858D01*
X12853095Y31561667D01*
X12865000Y31597381D01*
X12876904Y31609286D01*
X12876904Y31704524D02*
X12865000Y31716429D01*
X12853095Y31740239D01*
X12853095Y31799762D01*
X12865000Y31823572D01*
X12876904Y31835477D01*
X12900714Y31847381D01*
X12924523Y31847381D01*
X12960238Y31835477D01*
X13103095Y31692620D01*
X13103095Y31847381D01*
X12853095Y31930715D02*
X12853095Y32085477D01*
X12948333Y32002143D01*
X12948333Y32037858D01*
X12960238Y32061667D01*
X12972142Y32073572D01*
X12995952Y32085477D01*
X13055476Y32085477D01*
X13079285Y32073572D01*
X13091190Y32061667D01*
X13103095Y32037858D01*
X13103095Y31966429D01*
X13091190Y31942620D01*
X13079285Y31930715D01*
X9789285Y27839286D02*
X9801190Y27827381D01*
X9813095Y27791667D01*
X9813095Y27767858D01*
X9801190Y27732143D01*
X9777380Y27708334D01*
X9753571Y27696429D01*
X9705952Y27684524D01*
X9670238Y27684524D01*
X9622619Y27696429D01*
X9598809Y27708334D01*
X9575000Y27732143D01*
X9563095Y27767858D01*
X9563095Y27791667D01*
X9575000Y27827381D01*
X9586904Y27839286D01*
X9813095Y28077381D02*
X9813095Y27934524D01*
X9813095Y28005953D02*
X9563095Y28005953D01*
X9598809Y27982143D01*
X9622619Y27958334D01*
X9634523Y27934524D01*
X9813095Y28196429D02*
X9813095Y28244048D01*
X9801190Y28267858D01*
X9789285Y28279762D01*
X9753571Y28303572D01*
X9705952Y28315477D01*
X9610714Y28315477D01*
X9586904Y28303572D01*
X9575000Y28291667D01*
X9563095Y28267858D01*
X9563095Y28220239D01*
X9575000Y28196429D01*
X9586904Y28184524D01*
X9610714Y28172620D01*
X9670238Y28172620D01*
X9694047Y28184524D01*
X9705952Y28196429D01*
X9717857Y28220239D01*
X9717857Y28267858D01*
X9705952Y28291667D01*
X9694047Y28303572D01*
X9670238Y28315477D01*
X5650566Y18139493D02*
X5675820Y18282598D01*
X5549551Y18240508D02*
X5726328Y18417285D01*
X5793671Y18349941D01*
X5802089Y18324688D01*
X5802089Y18307852D01*
X5793671Y18282598D01*
X5768417Y18257344D01*
X5743164Y18248926D01*
X5726328Y18248926D01*
X5701074Y18257344D01*
X5633730Y18324688D01*
X5734746Y18055313D02*
X5768417Y18021642D01*
X5793671Y18013224D01*
X5810507Y18013224D01*
X5852597Y18021642D01*
X5894687Y18046896D01*
X5962030Y18114239D01*
X5970448Y18139493D01*
X5970448Y18156329D01*
X5962030Y18181583D01*
X5928358Y18215254D01*
X5903104Y18223672D01*
X5886269Y18223672D01*
X5861015Y18215254D01*
X5818925Y18173165D01*
X5810507Y18147911D01*
X5810507Y18131075D01*
X5818925Y18105821D01*
X5852597Y18072149D01*
X5877851Y18063731D01*
X5894687Y18063731D01*
X5919940Y18072149D01*
X12954292Y6665767D02*
X12979546Y6808872D01*
X12853277Y6766782D02*
X13030054Y6943559D01*
X13097397Y6876215D01*
X13105815Y6850962D01*
X13105815Y6834126D01*
X13097397Y6808872D01*
X13072143Y6783618D01*
X13046890Y6775200D01*
X13030054Y6775200D01*
X13004800Y6783618D01*
X12937456Y6850962D01*
X13156323Y6665767D02*
X13147905Y6691021D01*
X13147905Y6707857D01*
X13156323Y6733110D01*
X13164741Y6741528D01*
X13189995Y6749946D01*
X13206830Y6749946D01*
X13232084Y6741528D01*
X13265756Y6707857D01*
X13274174Y6682603D01*
X13274174Y6665767D01*
X13265756Y6640513D01*
X13257338Y6632095D01*
X13232084Y6623677D01*
X13215248Y6623677D01*
X13189995Y6632095D01*
X13156323Y6665767D01*
X13131069Y6674185D01*
X13114233Y6674185D01*
X13088979Y6665767D01*
X13055308Y6632095D01*
X13046890Y6606841D01*
X13046890Y6590005D01*
X13055308Y6564752D01*
X13088979Y6531080D01*
X13114233Y6522662D01*
X13131069Y6522662D01*
X13156323Y6531080D01*
X13189995Y6564752D01*
X13198413Y6590005D01*
X13198413Y6606841D01*
X13189995Y6632095D01*
X13394292Y7155767D02*
X13419546Y7298872D01*
X13293277Y7256782D02*
X13470054Y7433559D01*
X13537397Y7366215D01*
X13545815Y7340962D01*
X13545815Y7324126D01*
X13537397Y7298872D01*
X13512143Y7273618D01*
X13486890Y7265200D01*
X13470054Y7265200D01*
X13444800Y7273618D01*
X13377456Y7340962D01*
X13629995Y7273618D02*
X13747846Y7155767D01*
X13495308Y7054752D01*
X2653095Y6238334D02*
X2534047Y6155000D01*
X2653095Y6095477D02*
X2403095Y6095477D01*
X2403095Y6190715D01*
X2415000Y6214524D01*
X2426904Y6226429D01*
X2450714Y6238334D01*
X2486428Y6238334D01*
X2510238Y6226429D01*
X2522142Y6214524D01*
X2534047Y6190715D01*
X2534047Y6095477D01*
X2403095Y6464524D02*
X2403095Y6345477D01*
X2522142Y6333572D01*
X2510238Y6345477D01*
X2498333Y6369286D01*
X2498333Y6428810D01*
X2510238Y6452620D01*
X2522142Y6464524D01*
X2545952Y6476429D01*
X2605476Y6476429D01*
X2629285Y6464524D01*
X2641190Y6452620D01*
X2653095Y6428810D01*
X2653095Y6369286D01*
X2641190Y6345477D01*
X2629285Y6333572D01*
X11953095Y29788334D02*
X11834047Y29705000D01*
X11953095Y29645477D02*
X11703095Y29645477D01*
X11703095Y29740715D01*
X11715000Y29764524D01*
X11726904Y29776429D01*
X11750714Y29788334D01*
X11786428Y29788334D01*
X11810238Y29776429D01*
X11822142Y29764524D01*
X11834047Y29740715D01*
X11834047Y29645477D01*
X11703095Y30002620D02*
X11703095Y29955000D01*
X11715000Y29931191D01*
X11726904Y29919286D01*
X11762619Y29895477D01*
X11810238Y29883572D01*
X11905476Y29883572D01*
X11929285Y29895477D01*
X11941190Y29907381D01*
X11953095Y29931191D01*
X11953095Y29978810D01*
X11941190Y30002620D01*
X11929285Y30014524D01*
X11905476Y30026429D01*
X11845952Y30026429D01*
X11822142Y30014524D01*
X11810238Y30002620D01*
X11798333Y29978810D01*
X11798333Y29931191D01*
X11810238Y29907381D01*
X11822142Y29895477D01*
X11845952Y29883572D01*
X14260507Y13300567D02*
X14117402Y13325821D01*
X14159492Y13199552D02*
X13982715Y13376329D01*
X14050059Y13443672D01*
X14075312Y13452090D01*
X14092148Y13452090D01*
X14117402Y13443672D01*
X14142656Y13418418D01*
X14151074Y13393165D01*
X14151074Y13376329D01*
X14142656Y13351075D01*
X14075312Y13283731D01*
X14142656Y13536270D02*
X14252089Y13645703D01*
X14260507Y13519434D01*
X14285761Y13544688D01*
X14311015Y13553105D01*
X14327851Y13553105D01*
X14353104Y13544688D01*
X14395194Y13502598D01*
X14403612Y13477344D01*
X14403612Y13460508D01*
X14395194Y13435254D01*
X14344687Y13384747D01*
X14319433Y13376329D01*
X14302597Y13376329D01*
X13760507Y13770567D02*
X13617402Y13795821D01*
X13659492Y13669552D02*
X13482715Y13846329D01*
X13550059Y13913672D01*
X13575312Y13922090D01*
X13592148Y13922090D01*
X13617402Y13913672D01*
X13642656Y13888418D01*
X13651074Y13863165D01*
X13651074Y13846329D01*
X13642656Y13821075D01*
X13575312Y13753731D01*
X13667910Y13997852D02*
X13667910Y14014688D01*
X13676328Y14039941D01*
X13718417Y14082031D01*
X13743671Y14090449D01*
X13760507Y14090449D01*
X13785761Y14082031D01*
X13802597Y14065195D01*
X13819433Y14031523D01*
X13819433Y13829493D01*
X13928866Y13938926D01*
X15003095Y8808334D02*
X14884047Y8725000D01*
X15003095Y8665477D02*
X14753095Y8665477D01*
X14753095Y8760715D01*
X14765000Y8784524D01*
X14776904Y8796429D01*
X14800714Y8808334D01*
X14836428Y8808334D01*
X14860238Y8796429D01*
X14872142Y8784524D01*
X14884047Y8760715D01*
X14884047Y8665477D01*
X14836428Y9022620D02*
X15003095Y9022620D01*
X14741190Y8963096D02*
X14919761Y8903572D01*
X14919761Y9058334D01*
X14299285Y21439286D02*
X14311190Y21427381D01*
X14323095Y21391667D01*
X14323095Y21367858D01*
X14311190Y21332143D01*
X14287380Y21308334D01*
X14263571Y21296429D01*
X14215952Y21284524D01*
X14180238Y21284524D01*
X14132619Y21296429D01*
X14108809Y21308334D01*
X14085000Y21332143D01*
X14073095Y21367858D01*
X14073095Y21391667D01*
X14085000Y21427381D01*
X14096904Y21439286D01*
X14073095Y21522620D02*
X14073095Y21677381D01*
X14168333Y21594048D01*
X14168333Y21629762D01*
X14180238Y21653572D01*
X14192142Y21665477D01*
X14215952Y21677381D01*
X14275476Y21677381D01*
X14299285Y21665477D01*
X14311190Y21653572D01*
X14323095Y21629762D01*
X14323095Y21558334D01*
X14311190Y21534524D01*
X14299285Y21522620D01*
X14073095Y21760715D02*
X14073095Y21915477D01*
X14168333Y21832143D01*
X14168333Y21867858D01*
X14180238Y21891667D01*
X14192142Y21903572D01*
X14215952Y21915477D01*
X14275476Y21915477D01*
X14299285Y21903572D01*
X14311190Y21891667D01*
X14323095Y21867858D01*
X14323095Y21796429D01*
X14311190Y21772620D01*
X14299285Y21760715D01*
X4639492Y24713224D02*
X4639492Y24696388D01*
X4622656Y24662716D01*
X4605820Y24645880D01*
X4572148Y24629044D01*
X4538477Y24629044D01*
X4513223Y24637462D01*
X4471133Y24662716D01*
X4445879Y24687970D01*
X4420625Y24730060D01*
X4412208Y24755313D01*
X4412208Y24788985D01*
X4429043Y24822657D01*
X4445879Y24839493D01*
X4479551Y24856329D01*
X4496387Y24856329D01*
X4538477Y24932090D02*
X4647910Y25041523D01*
X4656328Y24915254D01*
X4681582Y24940508D01*
X4706835Y24948926D01*
X4723671Y24948926D01*
X4748925Y24940508D01*
X4791015Y24898418D01*
X4799433Y24873165D01*
X4799433Y24856329D01*
X4791015Y24831075D01*
X4740507Y24780567D01*
X4715253Y24772149D01*
X4698417Y24772149D01*
X4732089Y25092031D02*
X4732089Y25108867D01*
X4740507Y25134121D01*
X4782597Y25176210D01*
X4807851Y25184628D01*
X4824687Y25184628D01*
X4849940Y25176210D01*
X4866776Y25159375D01*
X4883612Y25125703D01*
X4883612Y24923672D01*
X4993045Y25033105D01*
X5173223Y17650508D02*
X5156387Y17650508D01*
X5122715Y17667344D01*
X5105879Y17684180D01*
X5089043Y17717852D01*
X5089043Y17751523D01*
X5097461Y17776777D01*
X5122715Y17818867D01*
X5147969Y17844121D01*
X5190059Y17869375D01*
X5215312Y17877792D01*
X5248984Y17877792D01*
X5282656Y17860957D01*
X5299492Y17844121D01*
X5316328Y17810449D01*
X5316328Y17793613D01*
X5392089Y17751523D02*
X5501522Y17642090D01*
X5375253Y17633672D01*
X5400507Y17608418D01*
X5408925Y17583165D01*
X5408925Y17566329D01*
X5400507Y17541075D01*
X5358417Y17498985D01*
X5333164Y17490567D01*
X5316328Y17490567D01*
X5291074Y17498985D01*
X5240566Y17549493D01*
X5232148Y17574747D01*
X5232148Y17591583D01*
X5493104Y17296955D02*
X5392089Y17397970D01*
X5442597Y17347462D02*
X5619374Y17524239D01*
X5577284Y17515821D01*
X5543612Y17515821D01*
X5518358Y17524239D01*
X3969492Y18943224D02*
X3969492Y18926388D01*
X3952656Y18892716D01*
X3935820Y18875880D01*
X3902148Y18859044D01*
X3868477Y18859044D01*
X3843223Y18867462D01*
X3801133Y18892716D01*
X3775879Y18917970D01*
X3750625Y18960060D01*
X3742208Y18985313D01*
X3742208Y19018985D01*
X3759043Y19052657D01*
X3775879Y19069493D01*
X3809551Y19086329D01*
X3826387Y19086329D01*
X3893730Y19153672D02*
X3893730Y19170508D01*
X3902148Y19195762D01*
X3944238Y19237852D01*
X3969492Y19246270D01*
X3986328Y19246270D01*
X4011582Y19237852D01*
X4028417Y19221016D01*
X4045253Y19187344D01*
X4045253Y18985313D01*
X4154687Y19094747D01*
X4238866Y19178926D02*
X4272538Y19212598D01*
X4280956Y19237852D01*
X4280956Y19254688D01*
X4272538Y19296777D01*
X4247284Y19338867D01*
X4179940Y19406210D01*
X4154687Y19414628D01*
X4137851Y19414628D01*
X4112597Y19406210D01*
X4078925Y19372539D01*
X4070507Y19347285D01*
X4070507Y19330449D01*
X4078925Y19305195D01*
X4121015Y19263105D01*
X4146269Y19254688D01*
X4163104Y19254688D01*
X4188358Y19263105D01*
X4222030Y19296777D01*
X4230448Y19322031D01*
X4230448Y19338867D01*
X4222030Y19364121D01*
X2933218Y19086950D02*
X2933218Y19070114D01*
X2916382Y19036442D01*
X2899546Y19019606D01*
X2865874Y19002770D01*
X2832203Y19002770D01*
X2806949Y19011188D01*
X2764859Y19036442D01*
X2739605Y19061696D01*
X2714351Y19103786D01*
X2705934Y19129039D01*
X2705934Y19162711D01*
X2722769Y19196383D01*
X2739605Y19213219D01*
X2773277Y19230055D01*
X2790113Y19230055D01*
X2857456Y19297398D02*
X2857456Y19314234D01*
X2865874Y19339488D01*
X2907964Y19381578D01*
X2933218Y19389996D01*
X2950054Y19389996D01*
X2975308Y19381578D01*
X2992143Y19364742D01*
X3008979Y19331070D01*
X3008979Y19129039D01*
X3118413Y19238473D01*
X3118413Y19440503D02*
X3093159Y19432085D01*
X3076323Y19432085D01*
X3051069Y19440503D01*
X3042651Y19448921D01*
X3034233Y19474175D01*
X3034233Y19491011D01*
X3042651Y19516265D01*
X3076323Y19549936D01*
X3101577Y19558354D01*
X3118413Y19558354D01*
X3143666Y19549936D01*
X3152084Y19541518D01*
X3160502Y19516265D01*
X3160502Y19499429D01*
X3152084Y19474175D01*
X3118413Y19440503D01*
X3109995Y19415249D01*
X3109995Y19398414D01*
X3118413Y19373160D01*
X3152084Y19339488D01*
X3177338Y19331070D01*
X3194174Y19331070D01*
X3219428Y19339488D01*
X3253100Y19373160D01*
X3261517Y19398414D01*
X3261517Y19415249D01*
X3253100Y19440503D01*
X3219428Y19474175D01*
X3194174Y19482593D01*
X3177338Y19482593D01*
X3152084Y19474175D01*
X14015540Y22969272D02*
X14015540Y22952436D01*
X13998704Y22918764D01*
X13981868Y22901928D01*
X13948196Y22885092D01*
X13914525Y22885092D01*
X13889271Y22893510D01*
X13847181Y22918764D01*
X13821927Y22944018D01*
X13796673Y22986108D01*
X13788256Y23011361D01*
X13788256Y23045033D01*
X13805091Y23078705D01*
X13821927Y23095541D01*
X13855599Y23112377D01*
X13872435Y23112377D01*
X13939778Y23179720D02*
X13939778Y23196556D01*
X13948196Y23221810D01*
X13990286Y23263900D01*
X14015540Y23272318D01*
X14032376Y23272318D01*
X14057630Y23263900D01*
X14074465Y23247064D01*
X14091301Y23213392D01*
X14091301Y23011361D01*
X14200735Y23120795D01*
X14175481Y23449094D02*
X14141809Y23415423D01*
X14133391Y23390169D01*
X14133391Y23373333D01*
X14141809Y23331243D01*
X14167063Y23289153D01*
X14234406Y23221810D01*
X14259660Y23213392D01*
X14276496Y23213392D01*
X14301750Y23221810D01*
X14335422Y23255482D01*
X14343839Y23280736D01*
X14343839Y23297571D01*
X14335422Y23322825D01*
X14293332Y23364915D01*
X14268078Y23373333D01*
X14251242Y23373333D01*
X14225988Y23364915D01*
X14192317Y23331243D01*
X14183899Y23305989D01*
X14183899Y23289153D01*
X14192317Y23263900D01*
X13529492Y23423224D02*
X13529492Y23406388D01*
X13512656Y23372716D01*
X13495820Y23355880D01*
X13462148Y23339044D01*
X13428477Y23339044D01*
X13403223Y23347462D01*
X13361133Y23372716D01*
X13335879Y23397970D01*
X13310625Y23440060D01*
X13302208Y23465313D01*
X13302208Y23498985D01*
X13319043Y23532657D01*
X13335879Y23549493D01*
X13369551Y23566329D01*
X13386387Y23566329D01*
X13453730Y23633672D02*
X13453730Y23650508D01*
X13462148Y23675762D01*
X13504238Y23717852D01*
X13529492Y23726270D01*
X13546328Y23726270D01*
X13571582Y23717852D01*
X13588417Y23701016D01*
X13605253Y23667344D01*
X13605253Y23465313D01*
X13714687Y23574747D01*
X13697851Y23911464D02*
X13613671Y23827285D01*
X13689433Y23734688D01*
X13689433Y23751523D01*
X13697851Y23776777D01*
X13739940Y23818867D01*
X13765194Y23827285D01*
X13782030Y23827285D01*
X13807284Y23818867D01*
X13849374Y23776777D01*
X13857791Y23751523D01*
X13857791Y23734688D01*
X13849374Y23709434D01*
X13807284Y23667344D01*
X13782030Y23658926D01*
X13765194Y23658926D01*
X13033444Y23947176D02*
X13033444Y23930340D01*
X13016608Y23896668D01*
X12999772Y23879832D01*
X12966100Y23862996D01*
X12932429Y23862996D01*
X12907175Y23871414D01*
X12865085Y23896668D01*
X12839831Y23921922D01*
X12814577Y23964012D01*
X12806160Y23989265D01*
X12806160Y24022937D01*
X12822995Y24056609D01*
X12839831Y24073445D01*
X12873503Y24090281D01*
X12890339Y24090281D01*
X12957682Y24157624D02*
X12957682Y24174460D01*
X12966100Y24199714D01*
X13008190Y24241804D01*
X13033444Y24250222D01*
X13050280Y24250222D01*
X13075534Y24241804D01*
X13092369Y24224968D01*
X13109205Y24191296D01*
X13109205Y23989265D01*
X13218639Y24098699D01*
X13252310Y24368073D02*
X13370161Y24250222D01*
X13142877Y24393327D02*
X13227056Y24224968D01*
X13336490Y24334401D01*
X15439285Y28289286D02*
X15451190Y28277381D01*
X15463095Y28241667D01*
X15463095Y28217858D01*
X15451190Y28182143D01*
X15427380Y28158334D01*
X15403571Y28146429D01*
X15355952Y28134524D01*
X15320238Y28134524D01*
X15272619Y28146429D01*
X15248809Y28158334D01*
X15225000Y28182143D01*
X15213095Y28217858D01*
X15213095Y28241667D01*
X15225000Y28277381D01*
X15236904Y28289286D01*
X15463095Y28527381D02*
X15463095Y28384524D01*
X15463095Y28455953D02*
X15213095Y28455953D01*
X15248809Y28432143D01*
X15272619Y28408334D01*
X15284523Y28384524D01*
X15213095Y28682143D02*
X15213095Y28705953D01*
X15225000Y28729762D01*
X15236904Y28741667D01*
X15260714Y28753572D01*
X15308333Y28765477D01*
X15367857Y28765477D01*
X15415476Y28753572D01*
X15439285Y28741667D01*
X15451190Y28729762D01*
X15463095Y28705953D01*
X15463095Y28682143D01*
X15451190Y28658334D01*
X15439285Y28646429D01*
X15415476Y28634524D01*
X15367857Y28622620D01*
X15308333Y28622620D01*
X15260714Y28634524D01*
X15236904Y28646429D01*
X15225000Y28658334D01*
X15213095Y28682143D01*
X11219285Y29609286D02*
X11231190Y29597381D01*
X11243095Y29561667D01*
X11243095Y29537858D01*
X11231190Y29502143D01*
X11207380Y29478334D01*
X11183571Y29466429D01*
X11135952Y29454524D01*
X11100238Y29454524D01*
X11052619Y29466429D01*
X11028809Y29478334D01*
X11005000Y29502143D01*
X10993095Y29537858D01*
X10993095Y29561667D01*
X11005000Y29597381D01*
X11016904Y29609286D01*
X11016904Y29704524D02*
X11005000Y29716429D01*
X10993095Y29740239D01*
X10993095Y29799762D01*
X11005000Y29823572D01*
X11016904Y29835477D01*
X11040714Y29847381D01*
X11064523Y29847381D01*
X11100238Y29835477D01*
X11243095Y29692620D01*
X11243095Y29847381D01*
X11016904Y29942620D02*
X11005000Y29954524D01*
X10993095Y29978334D01*
X10993095Y30037858D01*
X11005000Y30061667D01*
X11016904Y30073572D01*
X11040714Y30085477D01*
X11064523Y30085477D01*
X11100238Y30073572D01*
X11243095Y29930715D01*
X11243095Y30085477D01*
X15169285Y31530715D02*
X15157380Y31518810D01*
X15121666Y31506905D01*
X15097857Y31506905D01*
X15062142Y31518810D01*
X15038333Y31542620D01*
X15026428Y31566429D01*
X15014523Y31614048D01*
X15014523Y31649762D01*
X15026428Y31697381D01*
X15038333Y31721191D01*
X15062142Y31745000D01*
X15097857Y31756905D01*
X15121666Y31756905D01*
X15157380Y31745000D01*
X15169285Y31733096D01*
X15264523Y31733096D02*
X15276428Y31745000D01*
X15300238Y31756905D01*
X15359761Y31756905D01*
X15383571Y31745000D01*
X15395476Y31733096D01*
X15407380Y31709286D01*
X15407380Y31685477D01*
X15395476Y31649762D01*
X15252619Y31506905D01*
X15407380Y31506905D01*
X15645476Y31506905D02*
X15502619Y31506905D01*
X15574047Y31506905D02*
X15574047Y31756905D01*
X15550238Y31721191D01*
X15526428Y31697381D01*
X15502619Y31685477D01*
X3260276Y2183455D02*
X3243440Y2183455D01*
X3209768Y2200291D01*
X3192932Y2217127D01*
X3176096Y2250799D01*
X3176096Y2284470D01*
X3184514Y2309724D01*
X3209768Y2351814D01*
X3235022Y2377068D01*
X3277112Y2402322D01*
X3302365Y2410739D01*
X3336037Y2410739D01*
X3369709Y2393904D01*
X3386545Y2377068D01*
X3403381Y2343396D01*
X3403381Y2326560D01*
X3411799Y1998260D02*
X3310783Y2099276D01*
X3361291Y2048768D02*
X3538068Y2225545D01*
X3495978Y2217127D01*
X3462306Y2217127D01*
X3437053Y2225545D01*
X3647501Y2116112D02*
X3765352Y1998260D01*
X3512814Y1897245D01*
X15179285Y32220715D02*
X15167380Y32208810D01*
X15131666Y32196905D01*
X15107857Y32196905D01*
X15072142Y32208810D01*
X15048333Y32232620D01*
X15036428Y32256429D01*
X15024523Y32304048D01*
X15024523Y32339762D01*
X15036428Y32387381D01*
X15048333Y32411191D01*
X15072142Y32435000D01*
X15107857Y32446905D01*
X15131666Y32446905D01*
X15167380Y32435000D01*
X15179285Y32423096D01*
X15274523Y32423096D02*
X15286428Y32435000D01*
X15310238Y32446905D01*
X15369761Y32446905D01*
X15393571Y32435000D01*
X15405476Y32423096D01*
X15417380Y32399286D01*
X15417380Y32375477D01*
X15405476Y32339762D01*
X15262619Y32196905D01*
X15417380Y32196905D01*
X15572142Y32446905D02*
X15595952Y32446905D01*
X15619761Y32435000D01*
X15631666Y32423096D01*
X15643571Y32399286D01*
X15655476Y32351667D01*
X15655476Y32292143D01*
X15643571Y32244524D01*
X15631666Y32220715D01*
X15619761Y32208810D01*
X15595952Y32196905D01*
X15572142Y32196905D01*
X15548333Y32208810D01*
X15536428Y32220715D01*
X15524523Y32244524D01*
X15512619Y32292143D01*
X15512619Y32351667D01*
X15524523Y32399286D01*
X15536428Y32423096D01*
X15548333Y32435000D01*
X15572142Y32446905D01*
X12649285Y29569286D02*
X12661190Y29557381D01*
X12673095Y29521667D01*
X12673095Y29497858D01*
X12661190Y29462143D01*
X12637380Y29438334D01*
X12613571Y29426429D01*
X12565952Y29414524D01*
X12530238Y29414524D01*
X12482619Y29426429D01*
X12458809Y29438334D01*
X12435000Y29462143D01*
X12423095Y29497858D01*
X12423095Y29521667D01*
X12435000Y29557381D01*
X12446904Y29569286D01*
X12673095Y29807381D02*
X12673095Y29664524D01*
X12673095Y29735953D02*
X12423095Y29735953D01*
X12458809Y29712143D01*
X12482619Y29688334D01*
X12494523Y29664524D01*
X12423095Y30033572D02*
X12423095Y29914524D01*
X12542142Y29902620D01*
X12530238Y29914524D01*
X12518333Y29938334D01*
X12518333Y29997858D01*
X12530238Y30021667D01*
X12542142Y30033572D01*
X12565952Y30045477D01*
X12625476Y30045477D01*
X12649285Y30033572D01*
X12661190Y30021667D01*
X12673095Y29997858D01*
X12673095Y29938334D01*
X12661190Y29914524D01*
X12649285Y29902620D01*
X15159285Y32920715D02*
X15147380Y32908810D01*
X15111666Y32896905D01*
X15087857Y32896905D01*
X15052142Y32908810D01*
X15028333Y32932620D01*
X15016428Y32956429D01*
X15004523Y33004048D01*
X15004523Y33039762D01*
X15016428Y33087381D01*
X15028333Y33111191D01*
X15052142Y33135000D01*
X15087857Y33146905D01*
X15111666Y33146905D01*
X15147380Y33135000D01*
X15159285Y33123096D01*
X15397380Y32896905D02*
X15254523Y32896905D01*
X15325952Y32896905D02*
X15325952Y33146905D01*
X15302142Y33111191D01*
X15278333Y33087381D01*
X15254523Y33075477D01*
X15635476Y32896905D02*
X15492619Y32896905D01*
X15564047Y32896905D02*
X15564047Y33146905D01*
X15540238Y33111191D01*
X15516428Y33087381D01*
X15492619Y33075477D01*
X14901354Y25552377D02*
X14884518Y25552377D01*
X14850847Y25569213D01*
X14834011Y25586048D01*
X14817175Y25619720D01*
X14817175Y25653392D01*
X14825593Y25678646D01*
X14850847Y25720736D01*
X14876100Y25745989D01*
X14918190Y25771243D01*
X14943444Y25779661D01*
X14977116Y25779661D01*
X15010787Y25762825D01*
X15027623Y25745989D01*
X15044459Y25712318D01*
X15044459Y25695482D01*
X15086549Y25535541D02*
X15078131Y25560795D01*
X15078131Y25577631D01*
X15086549Y25602884D01*
X15094967Y25611302D01*
X15120221Y25619720D01*
X15137056Y25619720D01*
X15162310Y25611302D01*
X15195982Y25577631D01*
X15204400Y25552377D01*
X15204400Y25535541D01*
X15195982Y25510287D01*
X15187564Y25501869D01*
X15162310Y25493451D01*
X15145474Y25493451D01*
X15120221Y25501869D01*
X15086549Y25535541D01*
X15061295Y25543959D01*
X15044459Y25543959D01*
X15019205Y25535541D01*
X14985534Y25501869D01*
X14977116Y25476615D01*
X14977116Y25459779D01*
X14985534Y25434526D01*
X15019205Y25400854D01*
X15044459Y25392436D01*
X15061295Y25392436D01*
X15086549Y25400854D01*
X15120221Y25434526D01*
X15128639Y25459779D01*
X15128639Y25476615D01*
X15120221Y25501869D01*
X13869950Y7703781D02*
X13853114Y7703781D01*
X13819443Y7720617D01*
X13802607Y7737452D01*
X13785771Y7771124D01*
X13785771Y7804796D01*
X13794189Y7830050D01*
X13819443Y7872140D01*
X13844696Y7897393D01*
X13886786Y7922647D01*
X13912040Y7931065D01*
X13945712Y7931065D01*
X13979383Y7914229D01*
X13996219Y7897393D01*
X14013055Y7863722D01*
X14013055Y7846886D01*
X13937294Y7602765D02*
X13970965Y7569094D01*
X13996219Y7560676D01*
X14013055Y7560676D01*
X14055145Y7569094D01*
X14097235Y7594348D01*
X14164578Y7661691D01*
X14172996Y7686945D01*
X14172996Y7703781D01*
X14164578Y7729035D01*
X14130906Y7762706D01*
X14105652Y7771124D01*
X14088817Y7771124D01*
X14063563Y7762706D01*
X14021473Y7720617D01*
X14013055Y7695363D01*
X14013055Y7678527D01*
X14021473Y7653273D01*
X14055145Y7619601D01*
X14080399Y7611183D01*
X14097235Y7611183D01*
X14122488Y7619601D01*
X11747402Y5536329D02*
X11730566Y5536329D01*
X11696895Y5553165D01*
X11680059Y5570000D01*
X11663223Y5603672D01*
X11663223Y5637344D01*
X11671641Y5662598D01*
X11696895Y5704688D01*
X11722148Y5729941D01*
X11764238Y5755195D01*
X11789492Y5763613D01*
X11823164Y5763613D01*
X11856835Y5746777D01*
X11873671Y5729941D01*
X11890507Y5696270D01*
X11890507Y5679434D01*
X12058866Y5544747D02*
X12025194Y5578418D01*
X11999940Y5586836D01*
X11983104Y5586836D01*
X11941015Y5578418D01*
X11898925Y5553165D01*
X11831582Y5485821D01*
X11823164Y5460567D01*
X11823164Y5443731D01*
X11831582Y5418478D01*
X11865253Y5384806D01*
X11890507Y5376388D01*
X11907343Y5376388D01*
X11932597Y5384806D01*
X11974687Y5426896D01*
X11983104Y5452149D01*
X11983104Y5468985D01*
X11974687Y5494239D01*
X11941015Y5527911D01*
X11915761Y5536329D01*
X11898925Y5536329D01*
X11873671Y5527911D01*
X11917991Y6495740D02*
X11901155Y6495740D01*
X11867484Y6512576D01*
X11850648Y6529411D01*
X11833812Y6563083D01*
X11833812Y6596755D01*
X11842230Y6622009D01*
X11867484Y6664099D01*
X11892737Y6689352D01*
X11934827Y6714606D01*
X11960081Y6723024D01*
X11993753Y6723024D01*
X12027424Y6706188D01*
X12044260Y6689352D01*
X12061096Y6655681D01*
X12061096Y6638845D01*
X12237873Y6495740D02*
X12153693Y6579919D01*
X12061096Y6504158D01*
X12077932Y6504158D01*
X12103186Y6495740D01*
X12145276Y6453650D01*
X12153693Y6428396D01*
X12153693Y6411560D01*
X12145276Y6386307D01*
X12103186Y6344217D01*
X12077932Y6335799D01*
X12061096Y6335799D01*
X12035842Y6344217D01*
X11993753Y6386307D01*
X11985335Y6411560D01*
X11985335Y6428396D01*
X3669285Y21439286D02*
X3681190Y21427381D01*
X3693095Y21391667D01*
X3693095Y21367858D01*
X3681190Y21332143D01*
X3657380Y21308334D01*
X3633571Y21296429D01*
X3585952Y21284524D01*
X3550238Y21284524D01*
X3502619Y21296429D01*
X3478809Y21308334D01*
X3455000Y21332143D01*
X3443095Y21367858D01*
X3443095Y21391667D01*
X3455000Y21427381D01*
X3466904Y21439286D01*
X3466904Y21534524D02*
X3455000Y21546429D01*
X3443095Y21570239D01*
X3443095Y21629762D01*
X3455000Y21653572D01*
X3466904Y21665477D01*
X3490714Y21677381D01*
X3514523Y21677381D01*
X3550238Y21665477D01*
X3693095Y21522620D01*
X3693095Y21677381D01*
X3443095Y21760715D02*
X3443095Y21927381D01*
X3693095Y21820239D01*
M02*
