M48
; DRILL file {KiCad 5.1.9-1.fc33} date Fri Jan  8 09:44:13 2021
; FORMAT={-:-/ absolute / metric / decimal}
; #@! TF.CreationDate,2021-01-08T09:44:13+01:00
; #@! TF.GenerationSoftware,Kicad,Pcbnew,5.1.9-1.fc33
; #@! TF.FileFunction,Plated,1,6,PTH
FMAT,2
METRIC
T1C0.150
T2C0.600
T3C1.000
%
G90
G05
T1
X2.2Y18.03
X2.2Y17.53
X2.92Y1.55
X3.03Y5.51
X3.31Y31.36
X3.37Y7.43
X3.4Y7.89
X3.4Y3.08
X3.56Y33.54
X3.56Y24.37
X3.76Y2.72
X3.81Y31.36
X3.83Y29.47
X3.93Y19.61
X3.95Y21.6
X4.01Y24.82
X4.05Y20.64
X4.06Y33.54
X4.08Y29.04
X4.08Y9.77
X4.11Y15.14
X4.11Y6.35
X4.11Y2.37
X4.23Y11.81
X4.29Y17.65
X4.33Y29.47
X4.39Y14.78
X4.41Y20.29
X4.43Y9.41
X4.46Y31.36
X4.46Y6.7
X4.58Y29.04
X4.76Y19.93
X4.78Y12.33
X4.78Y9.05
X4.83Y29.47
X4.95Y5.15
X4.95Y3.56
X4.96Y31.37
X5.08Y29.04
X5.1Y23.61
X5.11Y19.58
X5.14Y8.7
X5.14Y7.43
X5.33Y29.47
X5.47Y23.95
X5.49Y13.03
X5.49Y8.35
X5.58Y29.04
X5.61Y31.36
X5.74Y4.36
X5.82Y24.31
X5.83Y29.47
X5.83Y18.88
X5.84Y7.99
X6.09Y17.66
X6.11Y31.36
X6.18Y24.66
X6.18Y18.52
X6.2Y7.65
X6.31Y25.79
X6.48Y33.42
X6.5Y7.24
X6.53Y25.01
X6.53Y5.15
X6.53Y3.56
X6.56Y18.19
X6.88Y25.37
X6.89Y17.82
X6.91Y21.59
X7.02Y10.68
X7.02Y2.02
X7.09Y15.59
X7.14Y35.22
X7.26Y6.58
X7.37Y2.37
X7.49Y32.48
X7.59Y26.07
X7.64Y35.22
X7.7Y26.8
X7.9Y20.61
X7.92Y2.88
X7.97Y11.62
X7.97Y9.76
X8.01Y31.29
X8.01Y29.85
X8.15Y15.71
X8.31Y31.78
X8.38Y29.51
X8.58Y28.68
X8.88Y15.58
X8.89Y23.6
X8.89Y21.59
X8.89Y19.6
X8.89Y12.55
X8.89Y10.69
X8.9Y8.83
X9.47Y31.78
X9.81Y15.48
X9.81Y5.88
X9.82Y11.6
X9.83Y9.75
X9.89Y20.61
X10.14Y28.61
X10.16Y26.19
X10.17Y15.15
X10.18Y27.9
X10.29Y32.48
X10.43Y31.34
X10.48Y25.87
X10.51Y28.22
X10.52Y14.8
X10.52Y6.59
X10.64Y35.22
X10.69Y28.64
X10.77Y10.7
X10.81Y25.56
X10.87Y21.59
X10.87Y6.94
X10.88Y14.45
X11.11Y28.83
X11.12Y25.23
X11.23Y14.09
X11.23Y7.29
X11.24Y35.22
X11.25Y18.16
X11.4Y24.86
X11.44Y31.78
X11.58Y13.73
X11.59Y14.43
X11.59Y7.64
X11.6Y18.53
X11.82Y27.5
X11.82Y26.58
X11.85Y24.75
X11.94Y13.39
X11.94Y7.99
X11.96Y24.3
X11.96Y18.87
X11.99Y33.78
X12.13Y17.7
X12.24Y31.78
X12.28Y27.04
X12.29Y13.03
X12.29Y8.35
X12.31Y19.23
X12.63Y17.7
X12.65Y12.68
X12.66Y23.6
X12.67Y19.58
X12.72Y5.08
X12.74Y27.5
X12.74Y26.58
X12.9Y24.01
X13.0Y12.33
X13.0Y9.05
X13.02Y19.94
X13.11Y23.59
X13.19Y25.0
X13.34Y24.01
X13.37Y20.29
X13.42Y17.7
X13.56Y23.59
X13.7Y32.94
X13.7Y11.87
X13.7Y10.42
X13.71Y32.24
X13.71Y31.54
X13.71Y13.91
X13.71Y9.76
X13.73Y20.64
X13.73Y9.04
X13.76Y28.52
X13.76Y25.56
X13.78Y6.07
X13.78Y5.08
X13.8Y21.54
X13.8Y18.76
X13.8Y18.24
X14.09Y25.87
X14.39Y7.51
X14.88Y26.84
X15.21Y3.8
X15.21Y1.29
X15.23Y30.14
X15.23Y29.44
X15.98Y22.86
X15.98Y12.7
X15.98Y7.62
X15.98Y5.08
X15.98Y2.54
T3
X1.27Y39.37
X1.27Y36.83
X1.27Y34.29
X1.27Y31.75
X1.27Y29.21
X1.27Y26.67
X1.27Y24.13
X1.27Y21.59
X1.27Y19.05
X1.27Y16.51
X1.27Y13.97
X1.27Y11.43
X1.27Y8.89
X1.27Y6.35
X1.27Y3.81
X1.27Y1.27
X16.51Y39.37
X16.51Y36.83
X16.51Y34.29
X16.51Y31.75
X16.51Y29.21
X16.51Y26.67
X16.51Y24.13
X16.51Y21.59
X16.51Y19.05
X16.51Y16.51
X16.51Y13.97
X16.51Y11.43
X16.51Y8.89
X16.51Y6.35
X16.51Y3.81
X16.51Y1.27
T2
G00X4.57Y38.04
M15
G01X4.57Y39.34
M16
G05
G00X4.57Y34.365
M15
G01X4.57Y35.365
M16
G05
G00X13.21Y38.04
M15
G01X13.21Y39.34
M16
G05
G00X13.21Y34.365
M15
G01X13.21Y35.365
M16
G05
T0
M30
