M48
; DRILL file {KiCad 5.1.9-1.fc33} date Thu Mar  4 22:31:23 2021
; FORMAT={-:-/ absolute / metric / decimal}
; #@! TF.CreationDate,2021-03-04T22:31:23+01:00
; #@! TF.GenerationSoftware,Kicad,Pcbnew,5.1.9-1.fc33
; #@! TF.FileFunction,Plated,1,6,PTH
FMAT,2
METRIC
T1C0.150
T2C0.600
T3C1.000
%
G90
G05
T1
X2.23Y18.03
X2.23Y17.53
X2.92Y1.55
X3.04Y5.47
X3.31Y31.36
X3.35Y7.91
X3.35Y7.41
X3.38Y3.06
X3.54Y24.39
X3.55Y33.46
X3.73Y2.7
X3.81Y31.36
X3.83Y29.47
X3.85Y14.83
X3.94Y21.61
X3.99Y24.84
X4.03Y20.62
X4.05Y33.46
X4.05Y9.75
X4.06Y18.41
X4.08Y29.04
X4.08Y6.37
X4.09Y2.35
X4.22Y11.82
X4.26Y15.12
X4.29Y17.65
X4.33Y29.47
X4.39Y20.27
X4.4Y9.39
X4.44Y6.72
X4.46Y31.36
X4.58Y29.04
X4.74Y19.91
X4.75Y9.03
X4.76Y12.35
X4.83Y29.47
X4.96Y31.37
X4.97Y5.13
X4.97Y3.58
X5.08Y29.04
X5.08Y23.63
X5.1Y19.55
X5.11Y8.68
X5.13Y7.44
X5.33Y29.47
X5.45Y23.97
X5.47Y13.05
X5.47Y8.33
X5.58Y29.04
X5.61Y31.36
X5.74Y4.36
X5.8Y24.33
X5.81Y18.86
X5.82Y7.97
X5.83Y29.47
X5.84Y17.71
X5.91Y25.54
X5.96Y7.48
X5.98Y13.59
X6.11Y31.36
X6.16Y24.68
X6.16Y18.5
X6.29Y25.92
X6.42Y7.28
X6.48Y33.44
X6.51Y18.14
X6.51Y5.13
X6.52Y25.04
X6.52Y3.58
X6.69Y14.3
X6.87Y25.4
X6.87Y17.79
X6.91Y21.59
X7.02Y10.68
X7.04Y2.0
X7.09Y15.59
X7.14Y35.23
X7.24Y6.56
X7.4Y2.35
X7.49Y32.48
X7.57Y26.09
X7.64Y35.23
X7.69Y26.85
X7.9Y20.61
X7.94Y2.87
X7.97Y11.62
X7.97Y9.76
X8.01Y31.32
X8.01Y29.82
X8.13Y15.72
X8.3Y31.76
X8.39Y29.49
X8.41Y28.81
X8.88Y15.58
X8.89Y23.64
X8.89Y21.59
X8.89Y19.6
X8.89Y12.55
X8.89Y10.69
X8.9Y8.83
X9.47Y31.76
X9.82Y11.6
X9.83Y15.53
X9.83Y9.75
X9.83Y5.86
X9.89Y20.61
X10.04Y26.28
X10.08Y27.76
X10.15Y28.62
X10.19Y15.18
X10.29Y32.46
X10.37Y28.17
X10.4Y25.93
X10.43Y31.34
X10.43Y29.51
X10.54Y14.82
X10.55Y6.57
X10.64Y35.23
X10.75Y25.57
X10.76Y28.56
X10.77Y10.7
X10.89Y21.58
X10.89Y6.91
X10.9Y14.47
X11.11Y25.21
X11.24Y35.23
X11.25Y14.11
X11.25Y7.26
X11.27Y18.14
X11.44Y31.78
X11.6Y13.75
X11.6Y7.62
X11.61Y14.46
X11.62Y18.5
X11.75Y24.53
X11.83Y27.5
X11.83Y26.62
X11.93Y25.0
X11.96Y7.97
X11.97Y13.41
X11.98Y18.85
X11.99Y33.78
X12.13Y17.72
X12.24Y31.78
X12.25Y24.61
X12.27Y27.06
X12.31Y8.33
X12.32Y13.05
X12.33Y19.21
X12.43Y25.08
X12.63Y17.72
X12.64Y23.7
X12.68Y12.7
X12.69Y19.56
X12.71Y27.5
X12.71Y26.62
X12.72Y5.08
X13.02Y9.03
X13.03Y24.04
X13.03Y12.34
X13.04Y19.92
X13.12Y23.54
X13.21Y24.99
X13.4Y20.27
X13.42Y17.72
X13.62Y23.55
X13.68Y33.01
X13.68Y32.31
X13.68Y31.61
X13.7Y11.87
X13.7Y10.42
X13.73Y13.93
X13.73Y9.74
X13.74Y25.51
X13.76Y28.55
X13.76Y20.62
X13.78Y6.07
X13.78Y5.08
X13.79Y8.98
X13.8Y21.54
X13.8Y18.76
X13.8Y18.24
X14.1Y25.86
X14.39Y7.51
X14.88Y26.84
X15.21Y3.8
X15.21Y1.29
X15.25Y30.21
X15.25Y29.51
X15.91Y22.86
X15.91Y12.7
X15.91Y7.62
X15.91Y5.08
X15.91Y2.54
T3
X1.27Y39.37
X1.27Y36.83
X1.27Y34.29
X1.27Y31.75
X1.27Y29.21
X1.27Y26.67
X1.27Y24.13
X1.27Y21.59
X1.27Y19.05
X1.27Y16.51
X1.27Y13.97
X1.27Y11.43
X1.27Y8.89
X1.27Y6.35
X1.27Y3.81
X1.27Y1.27
X16.51Y39.37
X16.51Y36.83
X16.51Y34.29
X16.51Y31.75
X16.51Y29.21
X16.51Y26.67
X16.51Y24.13
X16.51Y21.59
X16.51Y19.05
X16.51Y16.51
X16.51Y13.97
X16.51Y11.43
X16.51Y8.89
X16.51Y6.35
X16.51Y3.81
X16.51Y1.27
T2
G00X4.57Y38.04
M15
G01X4.57Y39.34
M16
G05
G00X4.57Y34.365
M15
G01X4.57Y35.365
M16
G05
G00X13.21Y38.04
M15
G01X13.21Y39.34
M16
G05
G00X13.21Y34.365
M15
G01X13.21Y35.365
M16
G05
T0
M30
