G04 #@! TF.GenerationSoftware,KiCad,Pcbnew,5.1.9-1.fc33*
G04 #@! TF.CreationDate,2021-01-19T19:29:36+01:00*
G04 #@! TF.ProjectId,reDIP-SX,72654449-502d-4535-982e-6b696361645f,0.1*
G04 #@! TF.SameCoordinates,PX5e28010PY8011a50*
G04 #@! TF.FileFunction,Paste,Top*
G04 #@! TF.FilePolarity,Positive*
%FSLAX46Y46*%
G04 Gerber Fmt 4.6, Leading zero omitted, Abs format (unit mm)*
G04 Created by KiCad (PCBNEW 5.1.9-1.fc33) date 2021-01-19 19:29:36*
%MOMM*%
%LPD*%
G01*
G04 APERTURE LIST*
%ADD10C,0.200000*%
%ADD11C,0.100000*%
G04 APERTURE END LIST*
G36*
G01*
X3809549Y16278318D02*
X3438318Y16649549D01*
G75*
G02*
X3438318Y16702583I26517J26517D01*
G01*
X3597417Y16861682D01*
G75*
G02*
X3650451Y16861682I26517J-26517D01*
G01*
X4021682Y16490451D01*
G75*
G02*
X4021682Y16437417I-26517J-26517D01*
G01*
X3862583Y16278318D01*
G75*
G02*
X3809549Y16278318I-26517J26517D01*
G01*
G37*
G36*
G01*
X3341092Y15756828D02*
X3235026Y15862894D01*
G75*
G02*
X3235026Y15933604I35355J35355D01*
G01*
X3376448Y16075026D01*
G75*
G02*
X3447158Y16075026I35355J-35355D01*
G01*
X3553224Y15968960D01*
G75*
G02*
X3553224Y15898250I-35355J-35355D01*
G01*
X3411802Y15756828D01*
G75*
G02*
X3341092Y15756828I-35355J35355D01*
G01*
G37*
G36*
G01*
X3022894Y16075026D02*
X2916828Y16181092D01*
G75*
G02*
X2916828Y16251802I35355J35355D01*
G01*
X3058250Y16393224D01*
G75*
G02*
X3128960Y16393224I35355J-35355D01*
G01*
X3235026Y16287158D01*
G75*
G02*
X3235026Y16216448I-35355J-35355D01*
G01*
X3093604Y16075026D01*
G75*
G02*
X3022894Y16075026I-35355J35355D01*
G01*
G37*
G36*
G01*
X4533589Y7921786D02*
X4648494Y8036691D01*
G75*
G02*
X4763398Y8036691I57452J-57452D01*
G01*
X4966691Y7833398D01*
G75*
G02*
X4966691Y7718494I-57452J-57452D01*
G01*
X4851786Y7603589D01*
G75*
G02*
X4736882Y7603589I-57452J57452D01*
G01*
X4533589Y7806882D01*
G75*
G02*
X4533589Y7921786I57452J57452D01*
G01*
G37*
G36*
G01*
X3773449Y7161646D02*
X3888354Y7276551D01*
G75*
G02*
X4003258Y7276551I57452J-57452D01*
G01*
X4206551Y7073258D01*
G75*
G02*
X4206551Y6958354I-57452J-57452D01*
G01*
X4091646Y6843449D01*
G75*
G02*
X3976742Y6843449I-57452J57452D01*
G01*
X3773449Y7046742D01*
G75*
G02*
X3773449Y7161646I57452J57452D01*
G01*
G37*
G36*
G01*
X2858629Y8863123D02*
X2947017Y8951511D01*
G75*
G02*
X3035405Y8951511I44194J-44194D01*
G01*
X3371281Y8615635D01*
G75*
G02*
X3371281Y8527247I-44194J-44194D01*
G01*
X3282893Y8438859D01*
G75*
G02*
X3194505Y8438859I-44194J44194D01*
G01*
X2858629Y8774735D01*
G75*
G02*
X2858629Y8863123I44194J44194D01*
G01*
G37*
G36*
G01*
X4166777Y7554975D02*
X4255165Y7643363D01*
G75*
G02*
X4343553Y7643363I44194J-44194D01*
G01*
X4679429Y7307487D01*
G75*
G02*
X4679429Y7219099I-44194J-44194D01*
G01*
X4591041Y7130711D01*
G75*
G02*
X4502653Y7130711I-44194J44194D01*
G01*
X4166777Y7466587D01*
G75*
G02*
X4166777Y7554975I44194J44194D01*
G01*
G37*
G36*
G01*
X2571367Y8363728D02*
X2686272Y8478633D01*
G75*
G02*
X2801176Y8478633I57452J-57452D01*
G01*
X3004469Y8275340D01*
G75*
G02*
X3004469Y8160436I-57452J-57452D01*
G01*
X2889564Y8045531D01*
G75*
G02*
X2774660Y8045531I-57452J57452D01*
G01*
X2571367Y8248824D01*
G75*
G02*
X2571367Y8363728I57452J57452D01*
G01*
G37*
G36*
G01*
X3331507Y9123868D02*
X3446412Y9238773D01*
G75*
G02*
X3561316Y9238773I57452J-57452D01*
G01*
X3764609Y9035480D01*
G75*
G02*
X3764609Y8920576I-57452J-57452D01*
G01*
X3649704Y8805671D01*
G75*
G02*
X3534800Y8805671I-57452J57452D01*
G01*
X3331507Y9008964D01*
G75*
G02*
X3331507Y9123868I57452J57452D01*
G01*
G37*
G36*
G01*
X12830000Y16657500D02*
X13010000Y16657500D01*
G75*
G02*
X13070000Y16597500I0J-60000D01*
G01*
X13070000Y16317500D01*
G75*
G02*
X13010000Y16257500I-60000J0D01*
G01*
X12830000Y16257500D01*
G75*
G02*
X12770000Y16317500I0J60000D01*
G01*
X12770000Y16597500D01*
G75*
G02*
X12830000Y16657500I60000J0D01*
G01*
G37*
G36*
G01*
X12330000Y16657500D02*
X12510000Y16657500D01*
G75*
G02*
X12570000Y16597500I0J-60000D01*
G01*
X12570000Y16317500D01*
G75*
G02*
X12510000Y16257500I-60000J0D01*
G01*
X12330000Y16257500D01*
G75*
G02*
X12270000Y16317500I0J60000D01*
G01*
X12270000Y16597500D01*
G75*
G02*
X12330000Y16657500I60000J0D01*
G01*
G37*
G36*
G01*
X12830000Y15982500D02*
X13010000Y15982500D01*
G75*
G02*
X13070000Y15922500I0J-60000D01*
G01*
X13070000Y15642500D01*
G75*
G02*
X13010000Y15582500I-60000J0D01*
G01*
X12830000Y15582500D01*
G75*
G02*
X12770000Y15642500I0J60000D01*
G01*
X12770000Y15922500D01*
G75*
G02*
X12830000Y15982500I60000J0D01*
G01*
G37*
G36*
G01*
X12330000Y15982500D02*
X12510000Y15982500D01*
G75*
G02*
X12570000Y15922500I0J-60000D01*
G01*
X12570000Y15642500D01*
G75*
G02*
X12510000Y15582500I-60000J0D01*
G01*
X12330000Y15582500D01*
G75*
G02*
X12270000Y15642500I0J60000D01*
G01*
X12270000Y15922500D01*
G75*
G02*
X12330000Y15982500I60000J0D01*
G01*
G37*
G36*
G01*
X13345000Y16657500D02*
X13495000Y16657500D01*
G75*
G02*
X13570000Y16582500I0J-75000D01*
G01*
X13570000Y16282500D01*
G75*
G02*
X13495000Y16207500I-75000J0D01*
G01*
X13345000Y16207500D01*
G75*
G02*
X13270000Y16282500I0J75000D01*
G01*
X13270000Y16582500D01*
G75*
G02*
X13345000Y16657500I75000J0D01*
G01*
G37*
G36*
G01*
X13330000Y15982500D02*
X13510000Y15982500D01*
G75*
G02*
X13570000Y15922500I0J-60000D01*
G01*
X13570000Y15642500D01*
G75*
G02*
X13510000Y15582500I-60000J0D01*
G01*
X13330000Y15582500D01*
G75*
G02*
X13270000Y15642500I0J60000D01*
G01*
X13270000Y15922500D01*
G75*
G02*
X13330000Y15982500I60000J0D01*
G01*
G37*
G36*
G01*
X11830000Y16657500D02*
X12010000Y16657500D01*
G75*
G02*
X12070000Y16597500I0J-60000D01*
G01*
X12070000Y16317500D01*
G75*
G02*
X12010000Y16257500I-60000J0D01*
G01*
X11830000Y16257500D01*
G75*
G02*
X11770000Y16317500I0J60000D01*
G01*
X11770000Y16597500D01*
G75*
G02*
X11830000Y16657500I60000J0D01*
G01*
G37*
G36*
G01*
X11845000Y15982500D02*
X11995000Y15982500D01*
G75*
G02*
X12070000Y15907500I0J-75000D01*
G01*
X12070000Y15657500D01*
G75*
G02*
X11995000Y15582500I-75000J0D01*
G01*
X11845000Y15582500D01*
G75*
G02*
X11770000Y15657500I0J75000D01*
G01*
X11770000Y15907500D01*
G75*
G02*
X11845000Y15982500I75000J0D01*
G01*
G37*
G36*
G01*
X8336750Y30059000D02*
X7886250Y30059000D01*
G75*
G02*
X7830000Y30115250I0J56250D01*
G01*
X7830000Y30227750D01*
G75*
G02*
X7886250Y30284000I56250J0D01*
G01*
X8336750Y30284000D01*
G75*
G02*
X8393000Y30227750I0J-56250D01*
G01*
X8393000Y30115250D01*
G75*
G02*
X8336750Y30059000I-56250J0D01*
G01*
G37*
G36*
G01*
X8336750Y30459000D02*
X7886250Y30459000D01*
G75*
G02*
X7830000Y30515250I0J56250D01*
G01*
X7830000Y30627750D01*
G75*
G02*
X7886250Y30684000I56250J0D01*
G01*
X8336750Y30684000D01*
G75*
G02*
X8393000Y30627750I0J-56250D01*
G01*
X8393000Y30515250D01*
G75*
G02*
X8336750Y30459000I-56250J0D01*
G01*
G37*
G36*
G01*
X8336750Y30859000D02*
X7886250Y30859000D01*
G75*
G02*
X7830000Y30915250I0J56250D01*
G01*
X7830000Y31027750D01*
G75*
G02*
X7886250Y31084000I56250J0D01*
G01*
X8336750Y31084000D01*
G75*
G02*
X8393000Y31027750I0J-56250D01*
G01*
X8393000Y30915250D01*
G75*
G02*
X8336750Y30859000I-56250J0D01*
G01*
G37*
G36*
G01*
X8792500Y31365250D02*
X8792500Y30914750D01*
G75*
G02*
X8736250Y30858500I-56250J0D01*
G01*
X8623750Y30858500D01*
G75*
G02*
X8567500Y30914750I0J56250D01*
G01*
X8567500Y31365250D01*
G75*
G02*
X8623750Y31421500I56250J0D01*
G01*
X8736250Y31421500D01*
G75*
G02*
X8792500Y31365250I0J-56250D01*
G01*
G37*
G36*
G01*
X9192500Y31365250D02*
X9192500Y30914750D01*
G75*
G02*
X9136250Y30858500I-56250J0D01*
G01*
X9023750Y30858500D01*
G75*
G02*
X8967500Y30914750I0J56250D01*
G01*
X8967500Y31365250D01*
G75*
G02*
X9023750Y31421500I56250J0D01*
G01*
X9136250Y31421500D01*
G75*
G02*
X9192500Y31365250I0J-56250D01*
G01*
G37*
G36*
G01*
X9873750Y30859000D02*
X9423250Y30859000D01*
G75*
G02*
X9367000Y30915250I0J56250D01*
G01*
X9367000Y31027750D01*
G75*
G02*
X9423250Y31084000I56250J0D01*
G01*
X9873750Y31084000D01*
G75*
G02*
X9930000Y31027750I0J-56250D01*
G01*
X9930000Y30915250D01*
G75*
G02*
X9873750Y30859000I-56250J0D01*
G01*
G37*
G36*
G01*
X9873750Y30459000D02*
X9423250Y30459000D01*
G75*
G02*
X9367000Y30515250I0J56250D01*
G01*
X9367000Y30627750D01*
G75*
G02*
X9423250Y30684000I56250J0D01*
G01*
X9873750Y30684000D01*
G75*
G02*
X9930000Y30627750I0J-56250D01*
G01*
X9930000Y30515250D01*
G75*
G02*
X9873750Y30459000I-56250J0D01*
G01*
G37*
G36*
G01*
X9873750Y30059000D02*
X9423250Y30059000D01*
G75*
G02*
X9367000Y30115250I0J56250D01*
G01*
X9367000Y30227750D01*
G75*
G02*
X9423250Y30284000I56250J0D01*
G01*
X9873750Y30284000D01*
G75*
G02*
X9930000Y30227750I0J-56250D01*
G01*
X9930000Y30115250D01*
G75*
G02*
X9873750Y30059000I-56250J0D01*
G01*
G37*
G36*
G01*
X9192500Y30228250D02*
X9192500Y29777750D01*
G75*
G02*
X9136250Y29721500I-56250J0D01*
G01*
X9023750Y29721500D01*
G75*
G02*
X8967500Y29777750I0J56250D01*
G01*
X8967500Y30228250D01*
G75*
G02*
X9023750Y30284500I56250J0D01*
G01*
X9136250Y30284500D01*
G75*
G02*
X9192500Y30228250I0J-56250D01*
G01*
G37*
G36*
G01*
X8792500Y30328250D02*
X8792500Y29777750D01*
G75*
G02*
X8736250Y29721500I-56250J0D01*
G01*
X8623750Y29721500D01*
G75*
G02*
X8567500Y29777750I0J56250D01*
G01*
X8567500Y30328250D01*
G75*
G02*
X8623750Y30384500I56250J0D01*
G01*
X8736250Y30384500D01*
G75*
G02*
X8792500Y30328250I0J-56250D01*
G01*
G37*
G36*
G01*
X10415000Y33140000D02*
X10415000Y32740000D01*
G75*
G02*
X10365000Y32690000I-50000J0D01*
G01*
X10215000Y32690000D01*
G75*
G02*
X10165000Y32740000I0J50000D01*
G01*
X10165000Y33140000D01*
G75*
G02*
X10215000Y33190000I50000J0D01*
G01*
X10365000Y33190000D01*
G75*
G02*
X10415000Y33140000I0J-50000D01*
G01*
G37*
G36*
G01*
X8015000Y33140000D02*
X8015000Y32840000D01*
G75*
G02*
X7965000Y32790000I-50000J0D01*
G01*
X7815000Y32790000D01*
G75*
G02*
X7765000Y32840000I0J50000D01*
G01*
X7765000Y33140000D01*
G75*
G02*
X7815000Y33190000I50000J0D01*
G01*
X7965000Y33190000D01*
G75*
G02*
X8015000Y33140000I0J-50000D01*
G01*
G37*
G36*
G01*
X10015000Y33140000D02*
X10015000Y32840000D01*
G75*
G02*
X9965000Y32790000I-50000J0D01*
G01*
X9815000Y32790000D01*
G75*
G02*
X9765000Y32840000I0J50000D01*
G01*
X9765000Y33140000D01*
G75*
G02*
X9815000Y33190000I50000J0D01*
G01*
X9965000Y33190000D01*
G75*
G02*
X10015000Y33140000I0J-50000D01*
G01*
G37*
G36*
G01*
X8415000Y33140000D02*
X8415000Y32840000D01*
G75*
G02*
X8365000Y32790000I-50000J0D01*
G01*
X8215000Y32790000D01*
G75*
G02*
X8165000Y32840000I0J50000D01*
G01*
X8165000Y33140000D01*
G75*
G02*
X8215000Y33190000I50000J0D01*
G01*
X8365000Y33190000D01*
G75*
G02*
X8415000Y33140000I0J-50000D01*
G01*
G37*
G36*
G01*
X9615000Y33140000D02*
X9615000Y32840000D01*
G75*
G02*
X9565000Y32790000I-50000J0D01*
G01*
X9415000Y32790000D01*
G75*
G02*
X9365000Y32840000I0J50000D01*
G01*
X9365000Y33140000D01*
G75*
G02*
X9415000Y33190000I50000J0D01*
G01*
X9565000Y33190000D01*
G75*
G02*
X9615000Y33140000I0J-50000D01*
G01*
G37*
G36*
G01*
X8815000Y33140000D02*
X8815000Y32840000D01*
G75*
G02*
X8765000Y32790000I-50000J0D01*
G01*
X8615000Y32790000D01*
G75*
G02*
X8565000Y32840000I0J50000D01*
G01*
X8565000Y33140000D01*
G75*
G02*
X8615000Y33190000I50000J0D01*
G01*
X8765000Y33190000D01*
G75*
G02*
X8815000Y33140000I0J-50000D01*
G01*
G37*
G36*
G01*
X9215000Y33140000D02*
X9215000Y32840000D01*
G75*
G02*
X9165000Y32790000I-50000J0D01*
G01*
X9015000Y32790000D01*
G75*
G02*
X8965000Y32840000I0J50000D01*
G01*
X8965000Y33140000D01*
G75*
G02*
X9015000Y33190000I50000J0D01*
G01*
X9165000Y33190000D01*
G75*
G02*
X9215000Y33140000I0J-50000D01*
G01*
G37*
G36*
G01*
X7615000Y33140000D02*
X7615000Y32840000D01*
G75*
G02*
X7565000Y32790000I-50000J0D01*
G01*
X7415000Y32790000D01*
G75*
G02*
X7365000Y32840000I0J50000D01*
G01*
X7365000Y33140000D01*
G75*
G02*
X7415000Y33190000I50000J0D01*
G01*
X7565000Y33190000D01*
G75*
G02*
X7615000Y33140000I0J-50000D01*
G01*
G37*
G36*
G01*
X9720000Y32540000D02*
X9720000Y32090000D01*
G75*
G02*
X9620000Y31990000I-100000J0D01*
G01*
X9320000Y31990000D01*
G75*
G02*
X9220000Y32090000I0J100000D01*
G01*
X9220000Y32540000D01*
G75*
G02*
X9320000Y32640000I100000J0D01*
G01*
X9620000Y32640000D01*
G75*
G02*
X9720000Y32540000I0J-100000D01*
G01*
G37*
G36*
G01*
X8560000Y32540000D02*
X8560000Y32090000D01*
G75*
G02*
X8460000Y31990000I-100000J0D01*
G01*
X8160000Y31990000D01*
G75*
G02*
X8060000Y32090000I0J100000D01*
G01*
X8060000Y32540000D01*
G75*
G02*
X8160000Y32640000I100000J0D01*
G01*
X8460000Y32640000D01*
G75*
G02*
X8560000Y32540000I0J-100000D01*
G01*
G37*
G36*
G01*
X10335000Y2622500D02*
X10335000Y3837500D01*
G75*
G02*
X10402500Y3905000I67500J0D01*
G01*
X11617500Y3905000D01*
G75*
G02*
X11685000Y3837500I0J-67500D01*
G01*
X11685000Y2622500D01*
G75*
G02*
X11617500Y2555000I-67500J0D01*
G01*
X10402500Y2555000D01*
G75*
G02*
X10335000Y2622500I0J67500D01*
G01*
G37*
G36*
G01*
X12485000Y2622500D02*
X12485000Y3837500D01*
G75*
G02*
X12552500Y3905000I67500J0D01*
G01*
X13767500Y3905000D01*
G75*
G02*
X13835000Y3837500I0J-67500D01*
G01*
X13835000Y2622500D01*
G75*
G02*
X13767500Y2555000I-67500J0D01*
G01*
X12552500Y2555000D01*
G75*
G02*
X12485000Y2622500I0J67500D01*
G01*
G37*
G36*
G01*
X12485000Y472500D02*
X12485000Y1687500D01*
G75*
G02*
X12552500Y1755000I67500J0D01*
G01*
X13767500Y1755000D01*
G75*
G02*
X13835000Y1687500I0J-67500D01*
G01*
X13835000Y472500D01*
G75*
G02*
X13767500Y405000I-67500J0D01*
G01*
X12552500Y405000D01*
G75*
G02*
X12485000Y472500I0J67500D01*
G01*
G37*
G36*
G01*
X10335000Y472500D02*
X10335000Y1687500D01*
G75*
G02*
X10402500Y1755000I67500J0D01*
G01*
X11617500Y1755000D01*
G75*
G02*
X11685000Y1687500I0J-67500D01*
G01*
X11685000Y472500D01*
G75*
G02*
X11617500Y405000I-67500J0D01*
G01*
X10402500Y405000D01*
G75*
G02*
X10335000Y472500I0J67500D01*
G01*
G37*
D10*
X12240000Y32940000D03*
X11840000Y32940000D03*
X11440000Y32940000D03*
X12240000Y32540000D03*
X11840000Y32540000D03*
X11440000Y32540000D03*
X12240000Y32140000D03*
X11840000Y32140000D03*
X11440000Y32140000D03*
G36*
G01*
X6050000Y34922400D02*
X6050000Y34057600D01*
G75*
G02*
X5982400Y33990000I-67600J0D01*
G01*
X5597600Y33990000D01*
G75*
G02*
X5530000Y34057600I0J67600D01*
G01*
X5530000Y34922400D01*
G75*
G02*
X5597600Y34990000I67600J0D01*
G01*
X5982400Y34990000D01*
G75*
G02*
X6050000Y34922400I0J-67600D01*
G01*
G37*
G36*
G01*
X6800000Y34922400D02*
X6800000Y34057600D01*
G75*
G02*
X6732400Y33990000I-67600J0D01*
G01*
X6347600Y33990000D01*
G75*
G02*
X6280000Y34057600I0J67600D01*
G01*
X6280000Y34922400D01*
G75*
G02*
X6347600Y34990000I67600J0D01*
G01*
X6732400Y34990000D01*
G75*
G02*
X6800000Y34922400I0J-67600D01*
G01*
G37*
G36*
G01*
X11500000Y34922400D02*
X11500000Y34057600D01*
G75*
G02*
X11432400Y33990000I-67600J0D01*
G01*
X11047600Y33990000D01*
G75*
G02*
X10980000Y34057600I0J67600D01*
G01*
X10980000Y34922400D01*
G75*
G02*
X11047600Y34990000I67600J0D01*
G01*
X11432400Y34990000D01*
G75*
G02*
X11500000Y34922400I0J-67600D01*
G01*
G37*
G36*
G01*
X12250000Y34922400D02*
X12250000Y34057600D01*
G75*
G02*
X12182400Y33990000I-67600J0D01*
G01*
X11797600Y33990000D01*
G75*
G02*
X11730000Y34057600I0J67600D01*
G01*
X11730000Y34922400D01*
G75*
G02*
X11797600Y34990000I67600J0D01*
G01*
X12182400Y34990000D01*
G75*
G02*
X12250000Y34922400I0J-67600D01*
G01*
G37*
G36*
G01*
X14710000Y40040000D02*
X14710000Y37240000D01*
G75*
G02*
X14510000Y37040000I-200000J0D01*
G01*
X12910000Y37040000D01*
G75*
G02*
X12710000Y37240000I0J200000D01*
G01*
X12710000Y40040000D01*
G75*
G02*
X12910000Y40240000I200000J0D01*
G01*
X14510000Y40240000D01*
G75*
G02*
X14710000Y40040000I0J-200000D01*
G01*
G37*
G36*
G01*
X5070000Y40040000D02*
X5070000Y37240000D01*
G75*
G02*
X4870000Y37040000I-200000J0D01*
G01*
X3270000Y37040000D01*
G75*
G02*
X3070000Y37240000I0J200000D01*
G01*
X3070000Y40040000D01*
G75*
G02*
X3270000Y40240000I200000J0D01*
G01*
X4870000Y40240000D01*
G75*
G02*
X5070000Y40040000I0J-200000D01*
G01*
G37*
G36*
G01*
X14710000Y36265000D02*
X14710000Y34065000D01*
G75*
G02*
X14510000Y33865000I-200000J0D01*
G01*
X12910000Y33865000D01*
G75*
G02*
X12710000Y34065000I0J200000D01*
G01*
X12710000Y36265000D01*
G75*
G02*
X12910000Y36465000I200000J0D01*
G01*
X14510000Y36465000D01*
G75*
G02*
X14710000Y36265000I0J-200000D01*
G01*
G37*
G36*
G01*
X5070000Y36265000D02*
X5070000Y34065000D01*
G75*
G02*
X4870000Y33865000I-200000J0D01*
G01*
X3270000Y33865000D01*
G75*
G02*
X3070000Y34065000I0J200000D01*
G01*
X3070000Y36265000D01*
G75*
G02*
X3270000Y36465000I200000J0D01*
G01*
X4870000Y36465000D01*
G75*
G02*
X5070000Y36265000I0J-200000D01*
G01*
G37*
G36*
G01*
X10790000Y39490000D02*
X10790000Y37890000D01*
G75*
G02*
X10590000Y37690000I-200000J0D01*
G01*
X9990000Y37690000D01*
G75*
G02*
X9790000Y37890000I0J200000D01*
G01*
X9790000Y39490000D01*
G75*
G02*
X9990000Y39690000I200000J0D01*
G01*
X10590000Y39690000D01*
G75*
G02*
X10790000Y39490000I0J-200000D01*
G01*
G37*
G36*
G01*
X7990000Y39490000D02*
X7990000Y37890000D01*
G75*
G02*
X7790000Y37690000I-200000J0D01*
G01*
X7190000Y37690000D01*
G75*
G02*
X6990000Y37890000I0J200000D01*
G01*
X6990000Y39490000D01*
G75*
G02*
X7190000Y39690000I200000J0D01*
G01*
X7790000Y39690000D01*
G75*
G02*
X7990000Y39490000I0J-200000D01*
G01*
G37*
G36*
G01*
X12250000Y34922400D02*
X12250000Y34057600D01*
G75*
G02*
X12182400Y33990000I-67600J0D01*
G01*
X11797600Y33990000D01*
G75*
G02*
X11730000Y34057600I0J67600D01*
G01*
X11730000Y34922400D01*
G75*
G02*
X11797600Y34990000I67600J0D01*
G01*
X12182400Y34990000D01*
G75*
G02*
X12250000Y34922400I0J-67600D01*
G01*
G37*
G36*
G01*
X11500000Y34922400D02*
X11500000Y34057600D01*
G75*
G02*
X11432400Y33990000I-67600J0D01*
G01*
X11047600Y33990000D01*
G75*
G02*
X10980000Y34057600I0J67600D01*
G01*
X10980000Y34922400D01*
G75*
G02*
X11047600Y34990000I67600J0D01*
G01*
X11432400Y34990000D01*
G75*
G02*
X11500000Y34922400I0J-67600D01*
G01*
G37*
G36*
G01*
X6050000Y34922400D02*
X6050000Y34057600D01*
G75*
G02*
X5982400Y33990000I-67600J0D01*
G01*
X5597600Y33990000D01*
G75*
G02*
X5530000Y34057600I0J67600D01*
G01*
X5530000Y34922400D01*
G75*
G02*
X5597600Y34990000I67600J0D01*
G01*
X5982400Y34990000D01*
G75*
G02*
X6050000Y34922400I0J-67600D01*
G01*
G37*
G36*
G01*
X6800000Y34922400D02*
X6800000Y34057600D01*
G75*
G02*
X6732400Y33990000I-67600J0D01*
G01*
X6347600Y33990000D01*
G75*
G02*
X6280000Y34057600I0J67600D01*
G01*
X6280000Y34922400D01*
G75*
G02*
X6347600Y34990000I67600J0D01*
G01*
X6732400Y34990000D01*
G75*
G02*
X6800000Y34922400I0J-67600D01*
G01*
G37*
G36*
G01*
X10775000Y34922500D02*
X10775000Y34057500D01*
G75*
G02*
X10707500Y33990000I-67500J0D01*
G01*
X10572500Y33990000D01*
G75*
G02*
X10505000Y34057500I0J67500D01*
G01*
X10505000Y34922500D01*
G75*
G02*
X10572500Y34990000I67500J0D01*
G01*
X10707500Y34990000D01*
G75*
G02*
X10775000Y34922500I0J-67500D01*
G01*
G37*
G36*
G01*
X10275000Y34922500D02*
X10275000Y34057500D01*
G75*
G02*
X10207500Y33990000I-67500J0D01*
G01*
X10072500Y33990000D01*
G75*
G02*
X10005000Y34057500I0J67500D01*
G01*
X10005000Y34922500D01*
G75*
G02*
X10072500Y34990000I67500J0D01*
G01*
X10207500Y34990000D01*
G75*
G02*
X10275000Y34922500I0J-67500D01*
G01*
G37*
G36*
G01*
X9775000Y34922500D02*
X9775000Y34057500D01*
G75*
G02*
X9707500Y33990000I-67500J0D01*
G01*
X9572500Y33990000D01*
G75*
G02*
X9505000Y34057500I0J67500D01*
G01*
X9505000Y34922500D01*
G75*
G02*
X9572500Y34990000I67500J0D01*
G01*
X9707500Y34990000D01*
G75*
G02*
X9775000Y34922500I0J-67500D01*
G01*
G37*
G36*
G01*
X9275000Y34922500D02*
X9275000Y34057500D01*
G75*
G02*
X9207500Y33990000I-67500J0D01*
G01*
X9072500Y33990000D01*
G75*
G02*
X9005000Y34057500I0J67500D01*
G01*
X9005000Y34922500D01*
G75*
G02*
X9072500Y34990000I67500J0D01*
G01*
X9207500Y34990000D01*
G75*
G02*
X9275000Y34922500I0J-67500D01*
G01*
G37*
G36*
G01*
X8775000Y34922500D02*
X8775000Y34057500D01*
G75*
G02*
X8707500Y33990000I-67500J0D01*
G01*
X8572500Y33990000D01*
G75*
G02*
X8505000Y34057500I0J67500D01*
G01*
X8505000Y34922500D01*
G75*
G02*
X8572500Y34990000I67500J0D01*
G01*
X8707500Y34990000D01*
G75*
G02*
X8775000Y34922500I0J-67500D01*
G01*
G37*
G36*
G01*
X8275000Y34922500D02*
X8275000Y34057500D01*
G75*
G02*
X8207500Y33990000I-67500J0D01*
G01*
X8072500Y33990000D01*
G75*
G02*
X8005000Y34057500I0J67500D01*
G01*
X8005000Y34922500D01*
G75*
G02*
X8072500Y34990000I67500J0D01*
G01*
X8207500Y34990000D01*
G75*
G02*
X8275000Y34922500I0J-67500D01*
G01*
G37*
G36*
G01*
X7775000Y34922500D02*
X7775000Y34057500D01*
G75*
G02*
X7707500Y33990000I-67500J0D01*
G01*
X7572500Y33990000D01*
G75*
G02*
X7505000Y34057500I0J67500D01*
G01*
X7505000Y34922500D01*
G75*
G02*
X7572500Y34990000I67500J0D01*
G01*
X7707500Y34990000D01*
G75*
G02*
X7775000Y34922500I0J-67500D01*
G01*
G37*
G36*
G01*
X7275000Y34922500D02*
X7275000Y34057500D01*
G75*
G02*
X7207500Y33990000I-67500J0D01*
G01*
X7072500Y33990000D01*
G75*
G02*
X7005000Y34057500I0J67500D01*
G01*
X7005000Y34922500D01*
G75*
G02*
X7072500Y34990000I67500J0D01*
G01*
X7207500Y34990000D01*
G75*
G02*
X7275000Y34922500I0J-67500D01*
G01*
G37*
G36*
G01*
X6676260Y30305040D02*
X6515040Y30466260D01*
G75*
G02*
X6515040Y30573740I53740J53740D01*
G01*
X6676260Y30734960D01*
G75*
G02*
X6783740Y30734960I53740J-53740D01*
G01*
X6944960Y30573740D01*
G75*
G02*
X6944960Y30466260I-53740J-53740D01*
G01*
X6783740Y30305040D01*
G75*
G02*
X6676260Y30305040I-53740J53740D01*
G01*
G37*
D11*
G36*
X7130000Y30720000D02*
G01*
X6980000Y30870000D01*
X6980000Y30970000D01*
X7330000Y30970000D01*
X7330000Y30720000D01*
X7130000Y30720000D01*
G37*
G36*
X7130000Y30320000D02*
G01*
X7330000Y30320000D01*
X7330000Y30070000D01*
X6980000Y30070000D01*
X6980000Y30170000D01*
X7130000Y30320000D01*
G37*
G36*
X6330000Y30720000D02*
G01*
X6130000Y30720000D01*
X6130000Y30970000D01*
X6480000Y30970000D01*
X6480000Y30870000D01*
X6330000Y30720000D01*
G37*
G36*
X6330000Y30320000D02*
G01*
X6480000Y30170000D01*
X6480000Y30070000D01*
X6130000Y30070000D01*
X6130000Y30320000D01*
X6330000Y30320000D01*
G37*
G36*
G01*
X7282586Y26380458D02*
X7140458Y26522586D01*
G75*
G02*
X7140458Y26635016I56215J56215D01*
G01*
X7252888Y26747446D01*
G75*
G02*
X7365318Y26747446I56215J-56215D01*
G01*
X7507446Y26605318D01*
G75*
G02*
X7507446Y26492888I-56215J-56215D01*
G01*
X7395016Y26380458D01*
G75*
G02*
X7282586Y26380458I-56215J56215D01*
G01*
G37*
G36*
G01*
X6794682Y25892554D02*
X6652554Y26034682D01*
G75*
G02*
X6652554Y26147112I56215J56215D01*
G01*
X6764984Y26259542D01*
G75*
G02*
X6877414Y26259542I56215J-56215D01*
G01*
X7019542Y26117414D01*
G75*
G02*
X7019542Y26004984I-56215J-56215D01*
G01*
X6907112Y25892554D01*
G75*
G02*
X6794682Y25892554I-56215J56215D01*
G01*
G37*
G36*
G01*
X4366260Y30305040D02*
X4205040Y30466260D01*
G75*
G02*
X4205040Y30573740I53740J53740D01*
G01*
X4366260Y30734960D01*
G75*
G02*
X4473740Y30734960I53740J-53740D01*
G01*
X4634960Y30573740D01*
G75*
G02*
X4634960Y30466260I-53740J-53740D01*
G01*
X4473740Y30305040D01*
G75*
G02*
X4366260Y30305040I-53740J53740D01*
G01*
G37*
G36*
X4820000Y30720000D02*
G01*
X4670000Y30870000D01*
X4670000Y30970000D01*
X5020000Y30970000D01*
X5020000Y30720000D01*
X4820000Y30720000D01*
G37*
G36*
X4820000Y30320000D02*
G01*
X5020000Y30320000D01*
X5020000Y30070000D01*
X4670000Y30070000D01*
X4670000Y30170000D01*
X4820000Y30320000D01*
G37*
G36*
X4020000Y30720000D02*
G01*
X3820000Y30720000D01*
X3820000Y30970000D01*
X4170000Y30970000D01*
X4170000Y30870000D01*
X4020000Y30720000D01*
G37*
G36*
X4020000Y30320000D02*
G01*
X4170000Y30170000D01*
X4170000Y30070000D01*
X3820000Y30070000D01*
X3820000Y30320000D01*
X4020000Y30320000D01*
G37*
G36*
G01*
X6096929Y22212254D02*
X6542406Y21766777D01*
G75*
G02*
X6542406Y21413223I-176777J-176777D01*
G01*
X6096929Y20967746D01*
G75*
G02*
X5743375Y20967746I-176777J176777D01*
G01*
X5297898Y21413223D01*
G75*
G02*
X5297898Y21766777I176777J176777D01*
G01*
X5743375Y22212254D01*
G75*
G02*
X6096929Y22212254I176777J-176777D01*
G01*
G37*
G36*
G01*
X7086878Y21222305D02*
X7532355Y20776828D01*
G75*
G02*
X7532355Y20423274I-176777J-176777D01*
G01*
X7086878Y19977797D01*
G75*
G02*
X6733324Y19977797I-176777J176777D01*
G01*
X6287847Y20423274D01*
G75*
G02*
X6287847Y20776828I176777J176777D01*
G01*
X6733324Y21222305D01*
G75*
G02*
X7086878Y21222305I176777J-176777D01*
G01*
G37*
G36*
G01*
X8076828Y20232355D02*
X8522305Y19786878D01*
G75*
G02*
X8522305Y19433324I-176777J-176777D01*
G01*
X8076828Y18987847D01*
G75*
G02*
X7723274Y18987847I-176777J176777D01*
G01*
X7277797Y19433324D01*
G75*
G02*
X7277797Y19786878I176777J176777D01*
G01*
X7723274Y20232355D01*
G75*
G02*
X8076828Y20232355I176777J-176777D01*
G01*
G37*
G36*
G01*
X9066777Y19242406D02*
X9512254Y18796929D01*
G75*
G02*
X9512254Y18443375I-176777J-176777D01*
G01*
X9066777Y17997898D01*
G75*
G02*
X8713223Y17997898I-176777J176777D01*
G01*
X8267746Y18443375D01*
G75*
G02*
X8267746Y18796929I176777J176777D01*
G01*
X8713223Y19242406D01*
G75*
G02*
X9066777Y19242406I176777J-176777D01*
G01*
G37*
G36*
G01*
X7086878Y23202203D02*
X7532355Y22756726D01*
G75*
G02*
X7532355Y22403172I-176777J-176777D01*
G01*
X7086878Y21957695D01*
G75*
G02*
X6733324Y21957695I-176777J176777D01*
G01*
X6287847Y22403172D01*
G75*
G02*
X6287847Y22756726I176777J176777D01*
G01*
X6733324Y23202203D01*
G75*
G02*
X7086878Y23202203I176777J-176777D01*
G01*
G37*
G36*
G01*
X8076828Y22212254D02*
X8522305Y21766777D01*
G75*
G02*
X8522305Y21413223I-176777J-176777D01*
G01*
X8076828Y20967746D01*
G75*
G02*
X7723274Y20967746I-176777J176777D01*
G01*
X7277797Y21413223D01*
G75*
G02*
X7277797Y21766777I176777J176777D01*
G01*
X7723274Y22212254D01*
G75*
G02*
X8076828Y22212254I176777J-176777D01*
G01*
G37*
G36*
G01*
X9066777Y21222305D02*
X9512254Y20776828D01*
G75*
G02*
X9512254Y20423274I-176777J-176777D01*
G01*
X9066777Y19977797D01*
G75*
G02*
X8713223Y19977797I-176777J176777D01*
G01*
X8267746Y20423274D01*
G75*
G02*
X8267746Y20776828I176777J176777D01*
G01*
X8713223Y21222305D01*
G75*
G02*
X9066777Y21222305I176777J-176777D01*
G01*
G37*
G36*
G01*
X10056726Y20232355D02*
X10502203Y19786878D01*
G75*
G02*
X10502203Y19433324I-176777J-176777D01*
G01*
X10056726Y18987847D01*
G75*
G02*
X9703172Y18987847I-176777J176777D01*
G01*
X9257695Y19433324D01*
G75*
G02*
X9257695Y19786878I176777J176777D01*
G01*
X9703172Y20232355D01*
G75*
G02*
X10056726Y20232355I176777J-176777D01*
G01*
G37*
G36*
G01*
X8076828Y24192153D02*
X8522305Y23746676D01*
G75*
G02*
X8522305Y23393122I-176777J-176777D01*
G01*
X8076828Y22947645D01*
G75*
G02*
X7723274Y22947645I-176777J176777D01*
G01*
X7277797Y23393122D01*
G75*
G02*
X7277797Y23746676I176777J176777D01*
G01*
X7723274Y24192153D01*
G75*
G02*
X8076828Y24192153I176777J-176777D01*
G01*
G37*
G36*
G01*
X9066777Y23202203D02*
X9512254Y22756726D01*
G75*
G02*
X9512254Y22403172I-176777J-176777D01*
G01*
X9066777Y21957695D01*
G75*
G02*
X8713223Y21957695I-176777J176777D01*
G01*
X8267746Y22403172D01*
G75*
G02*
X8267746Y22756726I176777J176777D01*
G01*
X8713223Y23202203D01*
G75*
G02*
X9066777Y23202203I176777J-176777D01*
G01*
G37*
G36*
G01*
X10056726Y22212254D02*
X10502203Y21766777D01*
G75*
G02*
X10502203Y21413223I-176777J-176777D01*
G01*
X10056726Y20967746D01*
G75*
G02*
X9703172Y20967746I-176777J176777D01*
G01*
X9257695Y21413223D01*
G75*
G02*
X9257695Y21766777I176777J176777D01*
G01*
X9703172Y22212254D01*
G75*
G02*
X10056726Y22212254I176777J-176777D01*
G01*
G37*
G36*
G01*
X11046676Y21222305D02*
X11492153Y20776828D01*
G75*
G02*
X11492153Y20423274I-176777J-176777D01*
G01*
X11046676Y19977797D01*
G75*
G02*
X10693122Y19977797I-176777J176777D01*
G01*
X10247645Y20423274D01*
G75*
G02*
X10247645Y20776828I176777J176777D01*
G01*
X10693122Y21222305D01*
G75*
G02*
X11046676Y21222305I176777J-176777D01*
G01*
G37*
G36*
G01*
X9066777Y25182102D02*
X9512254Y24736625D01*
G75*
G02*
X9512254Y24383071I-176777J-176777D01*
G01*
X9066777Y23937594D01*
G75*
G02*
X8713223Y23937594I-176777J176777D01*
G01*
X8267746Y24383071D01*
G75*
G02*
X8267746Y24736625I176777J176777D01*
G01*
X8713223Y25182102D01*
G75*
G02*
X9066777Y25182102I176777J-176777D01*
G01*
G37*
G36*
G01*
X10056726Y24192153D02*
X10502203Y23746676D01*
G75*
G02*
X10502203Y23393122I-176777J-176777D01*
G01*
X10056726Y22947645D01*
G75*
G02*
X9703172Y22947645I-176777J176777D01*
G01*
X9257695Y23393122D01*
G75*
G02*
X9257695Y23746676I176777J176777D01*
G01*
X9703172Y24192153D01*
G75*
G02*
X10056726Y24192153I176777J-176777D01*
G01*
G37*
G36*
G01*
X11046676Y23202203D02*
X11492153Y22756726D01*
G75*
G02*
X11492153Y22403172I-176777J-176777D01*
G01*
X11046676Y21957695D01*
G75*
G02*
X10693122Y21957695I-176777J176777D01*
G01*
X10247645Y22403172D01*
G75*
G02*
X10247645Y22756726I176777J176777D01*
G01*
X10693122Y23202203D01*
G75*
G02*
X11046676Y23202203I176777J-176777D01*
G01*
G37*
G36*
G01*
X12036625Y22212254D02*
X12482102Y21766777D01*
G75*
G02*
X12482102Y21413223I-176777J-176777D01*
G01*
X12036625Y20967746D01*
G75*
G02*
X11683071Y20967746I-176777J176777D01*
G01*
X11237594Y21413223D01*
G75*
G02*
X11237594Y21766777I176777J176777D01*
G01*
X11683071Y22212254D01*
G75*
G02*
X12036625Y22212254I176777J-176777D01*
G01*
G37*
G36*
G01*
X13088446Y21457417D02*
X13618776Y20927087D01*
G75*
G02*
X13618776Y20838699I-44194J-44194D01*
G01*
X13530388Y20750311D01*
G75*
G02*
X13442000Y20750311I-44194J44194D01*
G01*
X12911670Y21280641D01*
G75*
G02*
X12911670Y21369029I44194J44194D01*
G01*
X13000058Y21457417D01*
G75*
G02*
X13088446Y21457417I44194J-44194D01*
G01*
G37*
G36*
G01*
X12734893Y21103864D02*
X13265223Y20573534D01*
G75*
G02*
X13265223Y20485146I-44194J-44194D01*
G01*
X13176835Y20396758D01*
G75*
G02*
X13088447Y20396758I-44194J44194D01*
G01*
X12558117Y20927088D01*
G75*
G02*
X12558117Y21015476I44194J44194D01*
G01*
X12646505Y21103864D01*
G75*
G02*
X12734893Y21103864I44194J-44194D01*
G01*
G37*
G36*
G01*
X12381339Y20750310D02*
X12911669Y20219980D01*
G75*
G02*
X12911669Y20131592I-44194J-44194D01*
G01*
X12823281Y20043204D01*
G75*
G02*
X12734893Y20043204I-44194J44194D01*
G01*
X12204563Y20573534D01*
G75*
G02*
X12204563Y20661922I44194J44194D01*
G01*
X12292951Y20750310D01*
G75*
G02*
X12381339Y20750310I44194J-44194D01*
G01*
G37*
G36*
G01*
X12027786Y20396757D02*
X12558116Y19866427D01*
G75*
G02*
X12558116Y19778039I-44194J-44194D01*
G01*
X12469728Y19689651D01*
G75*
G02*
X12381340Y19689651I-44194J44194D01*
G01*
X11851010Y20219981D01*
G75*
G02*
X11851010Y20308369I44194J44194D01*
G01*
X11939398Y20396757D01*
G75*
G02*
X12027786Y20396757I44194J-44194D01*
G01*
G37*
G36*
G01*
X11674233Y20043204D02*
X12204563Y19512874D01*
G75*
G02*
X12204563Y19424486I-44194J-44194D01*
G01*
X12116175Y19336098D01*
G75*
G02*
X12027787Y19336098I-44194J44194D01*
G01*
X11497457Y19866428D01*
G75*
G02*
X11497457Y19954816I44194J44194D01*
G01*
X11585845Y20043204D01*
G75*
G02*
X11674233Y20043204I44194J-44194D01*
G01*
G37*
G36*
G01*
X11320679Y19689650D02*
X11851009Y19159320D01*
G75*
G02*
X11851009Y19070932I-44194J-44194D01*
G01*
X11762621Y18982544D01*
G75*
G02*
X11674233Y18982544I-44194J44194D01*
G01*
X11143903Y19512874D01*
G75*
G02*
X11143903Y19601262I44194J44194D01*
G01*
X11232291Y19689650D01*
G75*
G02*
X11320679Y19689650I44194J-44194D01*
G01*
G37*
G36*
G01*
X10967126Y19336097D02*
X11497456Y18805767D01*
G75*
G02*
X11497456Y18717379I-44194J-44194D01*
G01*
X11409068Y18628991D01*
G75*
G02*
X11320680Y18628991I-44194J44194D01*
G01*
X10790350Y19159321D01*
G75*
G02*
X10790350Y19247709I44194J44194D01*
G01*
X10878738Y19336097D01*
G75*
G02*
X10967126Y19336097I44194J-44194D01*
G01*
G37*
G36*
G01*
X10613572Y18982543D02*
X11143902Y18452213D01*
G75*
G02*
X11143902Y18363825I-44194J-44194D01*
G01*
X11055514Y18275437D01*
G75*
G02*
X10967126Y18275437I-44194J44194D01*
G01*
X10436796Y18805767D01*
G75*
G02*
X10436796Y18894155I44194J44194D01*
G01*
X10525184Y18982543D01*
G75*
G02*
X10613572Y18982543I44194J-44194D01*
G01*
G37*
G36*
G01*
X10260019Y18628990D02*
X10790349Y18098660D01*
G75*
G02*
X10790349Y18010272I-44194J-44194D01*
G01*
X10701961Y17921884D01*
G75*
G02*
X10613573Y17921884I-44194J44194D01*
G01*
X10083243Y18452214D01*
G75*
G02*
X10083243Y18540602I44194J44194D01*
G01*
X10171631Y18628990D01*
G75*
G02*
X10260019Y18628990I44194J-44194D01*
G01*
G37*
G36*
G01*
X9906466Y18275437D02*
X10436796Y17745107D01*
G75*
G02*
X10436796Y17656719I-44194J-44194D01*
G01*
X10348408Y17568331D01*
G75*
G02*
X10260020Y17568331I-44194J44194D01*
G01*
X9729690Y18098661D01*
G75*
G02*
X9729690Y18187049I44194J44194D01*
G01*
X9818078Y18275437D01*
G75*
G02*
X9906466Y18275437I44194J-44194D01*
G01*
G37*
G36*
G01*
X9552912Y17921883D02*
X10083242Y17391553D01*
G75*
G02*
X10083242Y17303165I-44194J-44194D01*
G01*
X9994854Y17214777D01*
G75*
G02*
X9906466Y17214777I-44194J44194D01*
G01*
X9376136Y17745107D01*
G75*
G02*
X9376136Y17833495I44194J44194D01*
G01*
X9464524Y17921883D01*
G75*
G02*
X9552912Y17921883I44194J-44194D01*
G01*
G37*
G36*
G01*
X9199359Y17568330D02*
X9729689Y17038000D01*
G75*
G02*
X9729689Y16949612I-44194J-44194D01*
G01*
X9641301Y16861224D01*
G75*
G02*
X9552913Y16861224I-44194J44194D01*
G01*
X9022583Y17391554D01*
G75*
G02*
X9022583Y17479942I44194J44194D01*
G01*
X9110971Y17568330D01*
G75*
G02*
X9199359Y17568330I44194J-44194D01*
G01*
G37*
G36*
G01*
X8669029Y17568330D02*
X8757417Y17479942D01*
G75*
G02*
X8757417Y17391554I-44194J-44194D01*
G01*
X8227087Y16861224D01*
G75*
G02*
X8138699Y16861224I-44194J44194D01*
G01*
X8050311Y16949612D01*
G75*
G02*
X8050311Y17038000I44194J44194D01*
G01*
X8580641Y17568330D01*
G75*
G02*
X8669029Y17568330I44194J-44194D01*
G01*
G37*
G36*
G01*
X8315476Y17921883D02*
X8403864Y17833495D01*
G75*
G02*
X8403864Y17745107I-44194J-44194D01*
G01*
X7873534Y17214777D01*
G75*
G02*
X7785146Y17214777I-44194J44194D01*
G01*
X7696758Y17303165D01*
G75*
G02*
X7696758Y17391553I44194J44194D01*
G01*
X8227088Y17921883D01*
G75*
G02*
X8315476Y17921883I44194J-44194D01*
G01*
G37*
G36*
G01*
X7961922Y18275437D02*
X8050310Y18187049D01*
G75*
G02*
X8050310Y18098661I-44194J-44194D01*
G01*
X7519980Y17568331D01*
G75*
G02*
X7431592Y17568331I-44194J44194D01*
G01*
X7343204Y17656719D01*
G75*
G02*
X7343204Y17745107I44194J44194D01*
G01*
X7873534Y18275437D01*
G75*
G02*
X7961922Y18275437I44194J-44194D01*
G01*
G37*
G36*
G01*
X7608369Y18628990D02*
X7696757Y18540602D01*
G75*
G02*
X7696757Y18452214I-44194J-44194D01*
G01*
X7166427Y17921884D01*
G75*
G02*
X7078039Y17921884I-44194J44194D01*
G01*
X6989651Y18010272D01*
G75*
G02*
X6989651Y18098660I44194J44194D01*
G01*
X7519981Y18628990D01*
G75*
G02*
X7608369Y18628990I44194J-44194D01*
G01*
G37*
G36*
G01*
X7254816Y18982543D02*
X7343204Y18894155D01*
G75*
G02*
X7343204Y18805767I-44194J-44194D01*
G01*
X6812874Y18275437D01*
G75*
G02*
X6724486Y18275437I-44194J44194D01*
G01*
X6636098Y18363825D01*
G75*
G02*
X6636098Y18452213I44194J44194D01*
G01*
X7166428Y18982543D01*
G75*
G02*
X7254816Y18982543I44194J-44194D01*
G01*
G37*
G36*
G01*
X6901262Y19336097D02*
X6989650Y19247709D01*
G75*
G02*
X6989650Y19159321I-44194J-44194D01*
G01*
X6459320Y18628991D01*
G75*
G02*
X6370932Y18628991I-44194J44194D01*
G01*
X6282544Y18717379D01*
G75*
G02*
X6282544Y18805767I44194J44194D01*
G01*
X6812874Y19336097D01*
G75*
G02*
X6901262Y19336097I44194J-44194D01*
G01*
G37*
G36*
G01*
X6547709Y19689650D02*
X6636097Y19601262D01*
G75*
G02*
X6636097Y19512874I-44194J-44194D01*
G01*
X6105767Y18982544D01*
G75*
G02*
X6017379Y18982544I-44194J44194D01*
G01*
X5928991Y19070932D01*
G75*
G02*
X5928991Y19159320I44194J44194D01*
G01*
X6459321Y19689650D01*
G75*
G02*
X6547709Y19689650I44194J-44194D01*
G01*
G37*
G36*
G01*
X6194155Y20043204D02*
X6282543Y19954816D01*
G75*
G02*
X6282543Y19866428I-44194J-44194D01*
G01*
X5752213Y19336098D01*
G75*
G02*
X5663825Y19336098I-44194J44194D01*
G01*
X5575437Y19424486D01*
G75*
G02*
X5575437Y19512874I44194J44194D01*
G01*
X6105767Y20043204D01*
G75*
G02*
X6194155Y20043204I44194J-44194D01*
G01*
G37*
G36*
G01*
X5840602Y20396757D02*
X5928990Y20308369D01*
G75*
G02*
X5928990Y20219981I-44194J-44194D01*
G01*
X5398660Y19689651D01*
G75*
G02*
X5310272Y19689651I-44194J44194D01*
G01*
X5221884Y19778039D01*
G75*
G02*
X5221884Y19866427I44194J44194D01*
G01*
X5752214Y20396757D01*
G75*
G02*
X5840602Y20396757I44194J-44194D01*
G01*
G37*
G36*
G01*
X5487049Y20750310D02*
X5575437Y20661922D01*
G75*
G02*
X5575437Y20573534I-44194J-44194D01*
G01*
X5045107Y20043204D01*
G75*
G02*
X4956719Y20043204I-44194J44194D01*
G01*
X4868331Y20131592D01*
G75*
G02*
X4868331Y20219980I44194J44194D01*
G01*
X5398661Y20750310D01*
G75*
G02*
X5487049Y20750310I44194J-44194D01*
G01*
G37*
G36*
G01*
X5133495Y21103864D02*
X5221883Y21015476D01*
G75*
G02*
X5221883Y20927088I-44194J-44194D01*
G01*
X4691553Y20396758D01*
G75*
G02*
X4603165Y20396758I-44194J44194D01*
G01*
X4514777Y20485146D01*
G75*
G02*
X4514777Y20573534I44194J44194D01*
G01*
X5045107Y21103864D01*
G75*
G02*
X5133495Y21103864I44194J-44194D01*
G01*
G37*
G36*
G01*
X4779942Y21457417D02*
X4868330Y21369029D01*
G75*
G02*
X4868330Y21280641I-44194J-44194D01*
G01*
X4338000Y20750311D01*
G75*
G02*
X4249612Y20750311I-44194J44194D01*
G01*
X4161224Y20838699D01*
G75*
G02*
X4161224Y20927087I44194J44194D01*
G01*
X4691554Y21457417D01*
G75*
G02*
X4779942Y21457417I44194J-44194D01*
G01*
G37*
G36*
G01*
X4338000Y22429689D02*
X4868330Y21899359D01*
G75*
G02*
X4868330Y21810971I-44194J-44194D01*
G01*
X4779942Y21722583D01*
G75*
G02*
X4691554Y21722583I-44194J44194D01*
G01*
X4161224Y22252913D01*
G75*
G02*
X4161224Y22341301I44194J44194D01*
G01*
X4249612Y22429689D01*
G75*
G02*
X4338000Y22429689I44194J-44194D01*
G01*
G37*
G36*
G01*
X4691553Y22783242D02*
X5221883Y22252912D01*
G75*
G02*
X5221883Y22164524I-44194J-44194D01*
G01*
X5133495Y22076136D01*
G75*
G02*
X5045107Y22076136I-44194J44194D01*
G01*
X4514777Y22606466D01*
G75*
G02*
X4514777Y22694854I44194J44194D01*
G01*
X4603165Y22783242D01*
G75*
G02*
X4691553Y22783242I44194J-44194D01*
G01*
G37*
G36*
G01*
X5045107Y23136796D02*
X5575437Y22606466D01*
G75*
G02*
X5575437Y22518078I-44194J-44194D01*
G01*
X5487049Y22429690D01*
G75*
G02*
X5398661Y22429690I-44194J44194D01*
G01*
X4868331Y22960020D01*
G75*
G02*
X4868331Y23048408I44194J44194D01*
G01*
X4956719Y23136796D01*
G75*
G02*
X5045107Y23136796I44194J-44194D01*
G01*
G37*
G36*
G01*
X5398660Y23490349D02*
X5928990Y22960019D01*
G75*
G02*
X5928990Y22871631I-44194J-44194D01*
G01*
X5840602Y22783243D01*
G75*
G02*
X5752214Y22783243I-44194J44194D01*
G01*
X5221884Y23313573D01*
G75*
G02*
X5221884Y23401961I44194J44194D01*
G01*
X5310272Y23490349D01*
G75*
G02*
X5398660Y23490349I44194J-44194D01*
G01*
G37*
G36*
G01*
X5752213Y23843902D02*
X6282543Y23313572D01*
G75*
G02*
X6282543Y23225184I-44194J-44194D01*
G01*
X6194155Y23136796D01*
G75*
G02*
X6105767Y23136796I-44194J44194D01*
G01*
X5575437Y23667126D01*
G75*
G02*
X5575437Y23755514I44194J44194D01*
G01*
X5663825Y23843902D01*
G75*
G02*
X5752213Y23843902I44194J-44194D01*
G01*
G37*
G36*
G01*
X6105767Y24197456D02*
X6636097Y23667126D01*
G75*
G02*
X6636097Y23578738I-44194J-44194D01*
G01*
X6547709Y23490350D01*
G75*
G02*
X6459321Y23490350I-44194J44194D01*
G01*
X5928991Y24020680D01*
G75*
G02*
X5928991Y24109068I44194J44194D01*
G01*
X6017379Y24197456D01*
G75*
G02*
X6105767Y24197456I44194J-44194D01*
G01*
G37*
G36*
G01*
X6459320Y24551009D02*
X6989650Y24020679D01*
G75*
G02*
X6989650Y23932291I-44194J-44194D01*
G01*
X6901262Y23843903D01*
G75*
G02*
X6812874Y23843903I-44194J44194D01*
G01*
X6282544Y24374233D01*
G75*
G02*
X6282544Y24462621I44194J44194D01*
G01*
X6370932Y24551009D01*
G75*
G02*
X6459320Y24551009I44194J-44194D01*
G01*
G37*
G36*
G01*
X6812874Y24904563D02*
X7343204Y24374233D01*
G75*
G02*
X7343204Y24285845I-44194J-44194D01*
G01*
X7254816Y24197457D01*
G75*
G02*
X7166428Y24197457I-44194J44194D01*
G01*
X6636098Y24727787D01*
G75*
G02*
X6636098Y24816175I44194J44194D01*
G01*
X6724486Y24904563D01*
G75*
G02*
X6812874Y24904563I44194J-44194D01*
G01*
G37*
G36*
G01*
X7166427Y25258116D02*
X7696757Y24727786D01*
G75*
G02*
X7696757Y24639398I-44194J-44194D01*
G01*
X7608369Y24551010D01*
G75*
G02*
X7519981Y24551010I-44194J44194D01*
G01*
X6989651Y25081340D01*
G75*
G02*
X6989651Y25169728I44194J44194D01*
G01*
X7078039Y25258116D01*
G75*
G02*
X7166427Y25258116I44194J-44194D01*
G01*
G37*
G36*
G01*
X7519980Y25611669D02*
X8050310Y25081339D01*
G75*
G02*
X8050310Y24992951I-44194J-44194D01*
G01*
X7961922Y24904563D01*
G75*
G02*
X7873534Y24904563I-44194J44194D01*
G01*
X7343204Y25434893D01*
G75*
G02*
X7343204Y25523281I44194J44194D01*
G01*
X7431592Y25611669D01*
G75*
G02*
X7519980Y25611669I44194J-44194D01*
G01*
G37*
G36*
G01*
X7873534Y25965223D02*
X8403864Y25434893D01*
G75*
G02*
X8403864Y25346505I-44194J-44194D01*
G01*
X8315476Y25258117D01*
G75*
G02*
X8227088Y25258117I-44194J44194D01*
G01*
X7696758Y25788447D01*
G75*
G02*
X7696758Y25876835I44194J44194D01*
G01*
X7785146Y25965223D01*
G75*
G02*
X7873534Y25965223I44194J-44194D01*
G01*
G37*
G36*
G01*
X8227087Y26318776D02*
X8757417Y25788446D01*
G75*
G02*
X8757417Y25700058I-44194J-44194D01*
G01*
X8669029Y25611670D01*
G75*
G02*
X8580641Y25611670I-44194J44194D01*
G01*
X8050311Y26142000D01*
G75*
G02*
X8050311Y26230388I44194J44194D01*
G01*
X8138699Y26318776D01*
G75*
G02*
X8227087Y26318776I44194J-44194D01*
G01*
G37*
G36*
G01*
X9641301Y26318776D02*
X9729689Y26230388D01*
G75*
G02*
X9729689Y26142000I-44194J-44194D01*
G01*
X9199359Y25611670D01*
G75*
G02*
X9110971Y25611670I-44194J44194D01*
G01*
X9022583Y25700058D01*
G75*
G02*
X9022583Y25788446I44194J44194D01*
G01*
X9552913Y26318776D01*
G75*
G02*
X9641301Y26318776I44194J-44194D01*
G01*
G37*
G36*
G01*
X9994854Y25965223D02*
X10083242Y25876835D01*
G75*
G02*
X10083242Y25788447I-44194J-44194D01*
G01*
X9552912Y25258117D01*
G75*
G02*
X9464524Y25258117I-44194J44194D01*
G01*
X9376136Y25346505D01*
G75*
G02*
X9376136Y25434893I44194J44194D01*
G01*
X9906466Y25965223D01*
G75*
G02*
X9994854Y25965223I44194J-44194D01*
G01*
G37*
G36*
G01*
X10348408Y25611669D02*
X10436796Y25523281D01*
G75*
G02*
X10436796Y25434893I-44194J-44194D01*
G01*
X9906466Y24904563D01*
G75*
G02*
X9818078Y24904563I-44194J44194D01*
G01*
X9729690Y24992951D01*
G75*
G02*
X9729690Y25081339I44194J44194D01*
G01*
X10260020Y25611669D01*
G75*
G02*
X10348408Y25611669I44194J-44194D01*
G01*
G37*
G36*
G01*
X10701961Y25258116D02*
X10790349Y25169728D01*
G75*
G02*
X10790349Y25081340I-44194J-44194D01*
G01*
X10260019Y24551010D01*
G75*
G02*
X10171631Y24551010I-44194J44194D01*
G01*
X10083243Y24639398D01*
G75*
G02*
X10083243Y24727786I44194J44194D01*
G01*
X10613573Y25258116D01*
G75*
G02*
X10701961Y25258116I44194J-44194D01*
G01*
G37*
G36*
G01*
X11055514Y24904563D02*
X11143902Y24816175D01*
G75*
G02*
X11143902Y24727787I-44194J-44194D01*
G01*
X10613572Y24197457D01*
G75*
G02*
X10525184Y24197457I-44194J44194D01*
G01*
X10436796Y24285845D01*
G75*
G02*
X10436796Y24374233I44194J44194D01*
G01*
X10967126Y24904563D01*
G75*
G02*
X11055514Y24904563I44194J-44194D01*
G01*
G37*
G36*
G01*
X11409068Y24551009D02*
X11497456Y24462621D01*
G75*
G02*
X11497456Y24374233I-44194J-44194D01*
G01*
X10967126Y23843903D01*
G75*
G02*
X10878738Y23843903I-44194J44194D01*
G01*
X10790350Y23932291D01*
G75*
G02*
X10790350Y24020679I44194J44194D01*
G01*
X11320680Y24551009D01*
G75*
G02*
X11409068Y24551009I44194J-44194D01*
G01*
G37*
G36*
G01*
X11762621Y24197456D02*
X11851009Y24109068D01*
G75*
G02*
X11851009Y24020680I-44194J-44194D01*
G01*
X11320679Y23490350D01*
G75*
G02*
X11232291Y23490350I-44194J44194D01*
G01*
X11143903Y23578738D01*
G75*
G02*
X11143903Y23667126I44194J44194D01*
G01*
X11674233Y24197456D01*
G75*
G02*
X11762621Y24197456I44194J-44194D01*
G01*
G37*
G36*
G01*
X12116175Y23843902D02*
X12204563Y23755514D01*
G75*
G02*
X12204563Y23667126I-44194J-44194D01*
G01*
X11674233Y23136796D01*
G75*
G02*
X11585845Y23136796I-44194J44194D01*
G01*
X11497457Y23225184D01*
G75*
G02*
X11497457Y23313572I44194J44194D01*
G01*
X12027787Y23843902D01*
G75*
G02*
X12116175Y23843902I44194J-44194D01*
G01*
G37*
G36*
G01*
X12469728Y23490349D02*
X12558116Y23401961D01*
G75*
G02*
X12558116Y23313573I-44194J-44194D01*
G01*
X12027786Y22783243D01*
G75*
G02*
X11939398Y22783243I-44194J44194D01*
G01*
X11851010Y22871631D01*
G75*
G02*
X11851010Y22960019I44194J44194D01*
G01*
X12381340Y23490349D01*
G75*
G02*
X12469728Y23490349I44194J-44194D01*
G01*
G37*
G36*
G01*
X12823281Y23136796D02*
X12911669Y23048408D01*
G75*
G02*
X12911669Y22960020I-44194J-44194D01*
G01*
X12381339Y22429690D01*
G75*
G02*
X12292951Y22429690I-44194J44194D01*
G01*
X12204563Y22518078D01*
G75*
G02*
X12204563Y22606466I44194J44194D01*
G01*
X12734893Y23136796D01*
G75*
G02*
X12823281Y23136796I44194J-44194D01*
G01*
G37*
G36*
G01*
X13176835Y22783242D02*
X13265223Y22694854D01*
G75*
G02*
X13265223Y22606466I-44194J-44194D01*
G01*
X12734893Y22076136D01*
G75*
G02*
X12646505Y22076136I-44194J44194D01*
G01*
X12558117Y22164524D01*
G75*
G02*
X12558117Y22252912I44194J44194D01*
G01*
X13088447Y22783242D01*
G75*
G02*
X13176835Y22783242I44194J-44194D01*
G01*
G37*
G36*
G01*
X13530388Y22429689D02*
X13618776Y22341301D01*
G75*
G02*
X13618776Y22252913I-44194J-44194D01*
G01*
X13088446Y21722583D01*
G75*
G02*
X13000058Y21722583I-44194J44194D01*
G01*
X12911670Y21810971D01*
G75*
G02*
X12911670Y21899359I44194J44194D01*
G01*
X13442000Y22429689D01*
G75*
G02*
X13530388Y22429689I44194J-44194D01*
G01*
G37*
G36*
G01*
X5469500Y30294000D02*
X5670500Y30294000D01*
G75*
G02*
X5750000Y30214500I0J-79500D01*
G01*
X5750000Y30055500D01*
G75*
G02*
X5670500Y29976000I-79500J0D01*
G01*
X5469500Y29976000D01*
G75*
G02*
X5390000Y30055500I0J79500D01*
G01*
X5390000Y30214500D01*
G75*
G02*
X5469500Y30294000I79500J0D01*
G01*
G37*
G36*
G01*
X5469500Y30984000D02*
X5670500Y30984000D01*
G75*
G02*
X5750000Y30904500I0J-79500D01*
G01*
X5750000Y30745500D01*
G75*
G02*
X5670500Y30666000I-79500J0D01*
G01*
X5469500Y30666000D01*
G75*
G02*
X5390000Y30745500I0J79500D01*
G01*
X5390000Y30904500D01*
G75*
G02*
X5469500Y30984000I79500J0D01*
G01*
G37*
G36*
G01*
X3169500Y30294000D02*
X3370500Y30294000D01*
G75*
G02*
X3450000Y30214500I0J-79500D01*
G01*
X3450000Y30055500D01*
G75*
G02*
X3370500Y29976000I-79500J0D01*
G01*
X3169500Y29976000D01*
G75*
G02*
X3090000Y30055500I0J79500D01*
G01*
X3090000Y30214500D01*
G75*
G02*
X3169500Y30294000I79500J0D01*
G01*
G37*
G36*
G01*
X3169500Y30984000D02*
X3370500Y30984000D01*
G75*
G02*
X3450000Y30904500I0J-79500D01*
G01*
X3450000Y30745500D01*
G75*
G02*
X3370500Y30666000I-79500J0D01*
G01*
X3169500Y30666000D01*
G75*
G02*
X3090000Y30745500I0J79500D01*
G01*
X3090000Y30904500D01*
G75*
G02*
X3169500Y30984000I79500J0D01*
G01*
G37*
G36*
G01*
X13065494Y25203845D02*
X12994784Y25133135D01*
G75*
G02*
X12924074Y25133135I-35355J35355D01*
G01*
X12393744Y25663465D01*
G75*
G02*
X12393744Y25734175I35355J35355D01*
G01*
X12464454Y25804885D01*
G75*
G02*
X12535164Y25804885I35355J-35355D01*
G01*
X13065494Y25274555D01*
G75*
G02*
X13065494Y25203845I-35355J-35355D01*
G01*
G37*
G36*
G01*
X13348337Y25486687D02*
X13277627Y25415977D01*
G75*
G02*
X13206917Y25415977I-35355J35355D01*
G01*
X12676587Y25946307D01*
G75*
G02*
X12676587Y26017017I35355J35355D01*
G01*
X12747297Y26087727D01*
G75*
G02*
X12818007Y26087727I35355J-35355D01*
G01*
X13348337Y25557397D01*
G75*
G02*
X13348337Y25486687I-35355J-35355D01*
G01*
G37*
G36*
G01*
X13631180Y25769530D02*
X13560470Y25698820D01*
G75*
G02*
X13489760Y25698820I-35355J35355D01*
G01*
X12959430Y26229150D01*
G75*
G02*
X12959430Y26299860I35355J35355D01*
G01*
X13030140Y26370570D01*
G75*
G02*
X13100850Y26370570I35355J-35355D01*
G01*
X13631180Y25840240D01*
G75*
G02*
X13631180Y25769530I-35355J-35355D01*
G01*
G37*
G36*
G01*
X13914023Y26052373D02*
X13843313Y25981663D01*
G75*
G02*
X13772603Y25981663I-35355J35355D01*
G01*
X13242273Y26511993D01*
G75*
G02*
X13242273Y26582703I35355J35355D01*
G01*
X13312983Y26653413D01*
G75*
G02*
X13383693Y26653413I35355J-35355D01*
G01*
X13914023Y26123083D01*
G75*
G02*
X13914023Y26052373I-35355J-35355D01*
G01*
G37*
G36*
G01*
X14196865Y26335216D02*
X14126155Y26264506D01*
G75*
G02*
X14055445Y26264506I-35355J35355D01*
G01*
X13525115Y26794836D01*
G75*
G02*
X13525115Y26865546I35355J35355D01*
G01*
X13595825Y26936256D01*
G75*
G02*
X13666535Y26936256I35355J-35355D01*
G01*
X14196865Y26405926D01*
G75*
G02*
X14196865Y26335216I-35355J-35355D01*
G01*
G37*
G36*
G01*
X14196865Y27714074D02*
X13666535Y27183744D01*
G75*
G02*
X13595825Y27183744I-35355J35355D01*
G01*
X13525115Y27254454D01*
G75*
G02*
X13525115Y27325164I35355J35355D01*
G01*
X14055445Y27855494D01*
G75*
G02*
X14126155Y27855494I35355J-35355D01*
G01*
X14196865Y27784784D01*
G75*
G02*
X14196865Y27714074I-35355J-35355D01*
G01*
G37*
G36*
G01*
X13914023Y27996917D02*
X13383693Y27466587D01*
G75*
G02*
X13312983Y27466587I-35355J35355D01*
G01*
X13242273Y27537297D01*
G75*
G02*
X13242273Y27608007I35355J35355D01*
G01*
X13772603Y28138337D01*
G75*
G02*
X13843313Y28138337I35355J-35355D01*
G01*
X13914023Y28067627D01*
G75*
G02*
X13914023Y27996917I-35355J-35355D01*
G01*
G37*
G36*
G01*
X13631180Y28279760D02*
X13100850Y27749430D01*
G75*
G02*
X13030140Y27749430I-35355J35355D01*
G01*
X12959430Y27820140D01*
G75*
G02*
X12959430Y27890850I35355J35355D01*
G01*
X13489760Y28421180D01*
G75*
G02*
X13560470Y28421180I35355J-35355D01*
G01*
X13631180Y28350470D01*
G75*
G02*
X13631180Y28279760I-35355J-35355D01*
G01*
G37*
G36*
G01*
X13348337Y28562603D02*
X12818007Y28032273D01*
G75*
G02*
X12747297Y28032273I-35355J35355D01*
G01*
X12676587Y28102983D01*
G75*
G02*
X12676587Y28173693I35355J35355D01*
G01*
X13206917Y28704023D01*
G75*
G02*
X13277627Y28704023I35355J-35355D01*
G01*
X13348337Y28633313D01*
G75*
G02*
X13348337Y28562603I-35355J-35355D01*
G01*
G37*
G36*
G01*
X13065494Y28845445D02*
X12535164Y28315115D01*
G75*
G02*
X12464454Y28315115I-35355J35355D01*
G01*
X12393744Y28385825D01*
G75*
G02*
X12393744Y28456535I35355J35355D01*
G01*
X12924074Y28986865D01*
G75*
G02*
X12994784Y28986865I35355J-35355D01*
G01*
X13065494Y28916155D01*
G75*
G02*
X13065494Y28845445I-35355J-35355D01*
G01*
G37*
G36*
G01*
X12146256Y28385825D02*
X12075546Y28315115D01*
G75*
G02*
X12004836Y28315115I-35355J35355D01*
G01*
X11474506Y28845445D01*
G75*
G02*
X11474506Y28916155I35355J35355D01*
G01*
X11545216Y28986865D01*
G75*
G02*
X11615926Y28986865I35355J-35355D01*
G01*
X12146256Y28456535D01*
G75*
G02*
X12146256Y28385825I-35355J-35355D01*
G01*
G37*
G36*
G01*
X11863413Y28102983D02*
X11792703Y28032273D01*
G75*
G02*
X11721993Y28032273I-35355J35355D01*
G01*
X11191663Y28562603D01*
G75*
G02*
X11191663Y28633313I35355J35355D01*
G01*
X11262373Y28704023D01*
G75*
G02*
X11333083Y28704023I35355J-35355D01*
G01*
X11863413Y28173693D01*
G75*
G02*
X11863413Y28102983I-35355J-35355D01*
G01*
G37*
G36*
G01*
X11580570Y27820140D02*
X11509860Y27749430D01*
G75*
G02*
X11439150Y27749430I-35355J35355D01*
G01*
X10908820Y28279760D01*
G75*
G02*
X10908820Y28350470I35355J35355D01*
G01*
X10979530Y28421180D01*
G75*
G02*
X11050240Y28421180I35355J-35355D01*
G01*
X11580570Y27890850D01*
G75*
G02*
X11580570Y27820140I-35355J-35355D01*
G01*
G37*
G36*
G01*
X11297727Y27537297D02*
X11227017Y27466587D01*
G75*
G02*
X11156307Y27466587I-35355J35355D01*
G01*
X10625977Y27996917D01*
G75*
G02*
X10625977Y28067627I35355J35355D01*
G01*
X10696687Y28138337D01*
G75*
G02*
X10767397Y28138337I35355J-35355D01*
G01*
X11297727Y27608007D01*
G75*
G02*
X11297727Y27537297I-35355J-35355D01*
G01*
G37*
G36*
G01*
X11014885Y27254454D02*
X10944175Y27183744D01*
G75*
G02*
X10873465Y27183744I-35355J35355D01*
G01*
X10343135Y27714074D01*
G75*
G02*
X10343135Y27784784I35355J35355D01*
G01*
X10413845Y27855494D01*
G75*
G02*
X10484555Y27855494I35355J-35355D01*
G01*
X11014885Y27325164D01*
G75*
G02*
X11014885Y27254454I-35355J-35355D01*
G01*
G37*
G36*
G01*
X11014885Y26794836D02*
X10484555Y26264506D01*
G75*
G02*
X10413845Y26264506I-35355J35355D01*
G01*
X10343135Y26335216D01*
G75*
G02*
X10343135Y26405926I35355J35355D01*
G01*
X10873465Y26936256D01*
G75*
G02*
X10944175Y26936256I35355J-35355D01*
G01*
X11014885Y26865546D01*
G75*
G02*
X11014885Y26794836I-35355J-35355D01*
G01*
G37*
G36*
G01*
X11297727Y26511993D02*
X10767397Y25981663D01*
G75*
G02*
X10696687Y25981663I-35355J35355D01*
G01*
X10625977Y26052373D01*
G75*
G02*
X10625977Y26123083I35355J35355D01*
G01*
X11156307Y26653413D01*
G75*
G02*
X11227017Y26653413I35355J-35355D01*
G01*
X11297727Y26582703D01*
G75*
G02*
X11297727Y26511993I-35355J-35355D01*
G01*
G37*
G36*
G01*
X11580570Y26229150D02*
X11050240Y25698820D01*
G75*
G02*
X10979530Y25698820I-35355J35355D01*
G01*
X10908820Y25769530D01*
G75*
G02*
X10908820Y25840240I35355J35355D01*
G01*
X11439150Y26370570D01*
G75*
G02*
X11509860Y26370570I35355J-35355D01*
G01*
X11580570Y26299860D01*
G75*
G02*
X11580570Y26229150I-35355J-35355D01*
G01*
G37*
G36*
G01*
X11863413Y25946307D02*
X11333083Y25415977D01*
G75*
G02*
X11262373Y25415977I-35355J35355D01*
G01*
X11191663Y25486687D01*
G75*
G02*
X11191663Y25557397I35355J35355D01*
G01*
X11721993Y26087727D01*
G75*
G02*
X11792703Y26087727I35355J-35355D01*
G01*
X11863413Y26017017D01*
G75*
G02*
X11863413Y25946307I-35355J-35355D01*
G01*
G37*
G36*
G01*
X12146256Y25663465D02*
X11615926Y25133135D01*
G75*
G02*
X11545216Y25133135I-35355J35355D01*
G01*
X11474506Y25203845D01*
G75*
G02*
X11474506Y25274555I35355J35355D01*
G01*
X12004836Y25804885D01*
G75*
G02*
X12075546Y25804885I35355J-35355D01*
G01*
X12146256Y25734175D01*
G75*
G02*
X12146256Y25663465I-35355J-35355D01*
G01*
G37*
G36*
G01*
X12625321Y26361732D02*
X12388440Y26124851D01*
G75*
G02*
X12151560Y26124851I-118440J118440D01*
G01*
X11914679Y26361732D01*
G75*
G02*
X11914679Y26598612I118440J118440D01*
G01*
X12151560Y26835493D01*
G75*
G02*
X12388440Y26835493I118440J-118440D01*
G01*
X12625321Y26598612D01*
G75*
G02*
X12625321Y26361732I-118440J-118440D01*
G01*
G37*
G36*
G01*
X13205149Y26941560D02*
X12968268Y26704679D01*
G75*
G02*
X12731388Y26704679I-118440J118440D01*
G01*
X12494507Y26941560D01*
G75*
G02*
X12494507Y27178440I118440J118440D01*
G01*
X12731388Y27415321D01*
G75*
G02*
X12968268Y27415321I118440J-118440D01*
G01*
X13205149Y27178440D01*
G75*
G02*
X13205149Y26941560I-118440J-118440D01*
G01*
G37*
G36*
G01*
X12045493Y26941560D02*
X11808612Y26704679D01*
G75*
G02*
X11571732Y26704679I-118440J118440D01*
G01*
X11334851Y26941560D01*
G75*
G02*
X11334851Y27178440I118440J118440D01*
G01*
X11571732Y27415321D01*
G75*
G02*
X11808612Y27415321I118440J-118440D01*
G01*
X12045493Y27178440D01*
G75*
G02*
X12045493Y26941560I-118440J-118440D01*
G01*
G37*
G36*
G01*
X12625321Y27521388D02*
X12388440Y27284507D01*
G75*
G02*
X12151560Y27284507I-118440J118440D01*
G01*
X11914679Y27521388D01*
G75*
G02*
X11914679Y27758268I118440J118440D01*
G01*
X12151560Y27995149D01*
G75*
G02*
X12388440Y27995149I118440J-118440D01*
G01*
X12625321Y27758268D01*
G75*
G02*
X12625321Y27521388I-118440J-118440D01*
G01*
G37*
G36*
G01*
X3775000Y32760000D02*
X3325000Y32760000D01*
G75*
G02*
X3250000Y32835000I0J75000D01*
G01*
X3250000Y32985000D01*
G75*
G02*
X3325000Y33060000I75000J0D01*
G01*
X3775000Y33060000D01*
G75*
G02*
X3850000Y32985000I0J-75000D01*
G01*
X3850000Y32835000D01*
G75*
G02*
X3775000Y32760000I-75000J0D01*
G01*
G37*
G36*
G01*
X3775000Y32060000D02*
X3325000Y32060000D01*
G75*
G02*
X3250000Y32135000I0J75000D01*
G01*
X3250000Y32285000D01*
G75*
G02*
X3325000Y32360000I75000J0D01*
G01*
X3775000Y32360000D01*
G75*
G02*
X3850000Y32285000I0J-75000D01*
G01*
X3850000Y32135000D01*
G75*
G02*
X3775000Y32060000I-75000J0D01*
G01*
G37*
G36*
G01*
X5695000Y32760000D02*
X5245000Y32760000D01*
G75*
G02*
X5170000Y32835000I0J75000D01*
G01*
X5170000Y32985000D01*
G75*
G02*
X5245000Y33060000I75000J0D01*
G01*
X5695000Y33060000D01*
G75*
G02*
X5770000Y32985000I0J-75000D01*
G01*
X5770000Y32835000D01*
G75*
G02*
X5695000Y32760000I-75000J0D01*
G01*
G37*
G36*
G01*
X5695000Y32060000D02*
X5245000Y32060000D01*
G75*
G02*
X5170000Y32135000I0J75000D01*
G01*
X5170000Y32285000D01*
G75*
G02*
X5245000Y32360000I75000J0D01*
G01*
X5695000Y32360000D01*
G75*
G02*
X5770000Y32285000I0J-75000D01*
G01*
X5770000Y32135000D01*
G75*
G02*
X5695000Y32060000I-75000J0D01*
G01*
G37*
G36*
G01*
X8909500Y28684000D02*
X9110500Y28684000D01*
G75*
G02*
X9190000Y28604500I0J-79500D01*
G01*
X9190000Y28445500D01*
G75*
G02*
X9110500Y28366000I-79500J0D01*
G01*
X8909500Y28366000D01*
G75*
G02*
X8830000Y28445500I0J79500D01*
G01*
X8830000Y28604500D01*
G75*
G02*
X8909500Y28684000I79500J0D01*
G01*
G37*
G36*
G01*
X8909500Y29374000D02*
X9110500Y29374000D01*
G75*
G02*
X9190000Y29294500I0J-79500D01*
G01*
X9190000Y29135500D01*
G75*
G02*
X9110500Y29056000I-79500J0D01*
G01*
X8909500Y29056000D01*
G75*
G02*
X8830000Y29135500I0J79500D01*
G01*
X8830000Y29294500D01*
G75*
G02*
X8909500Y29374000I79500J0D01*
G01*
G37*
G36*
G01*
X10639542Y5912586D02*
X10497414Y5770458D01*
G75*
G02*
X10384984Y5770458I-56215J56215D01*
G01*
X10272554Y5882888D01*
G75*
G02*
X10272554Y5995318I56215J56215D01*
G01*
X10414682Y6137446D01*
G75*
G02*
X10527112Y6137446I56215J-56215D01*
G01*
X10639542Y6025016D01*
G75*
G02*
X10639542Y5912586I-56215J-56215D01*
G01*
G37*
G36*
G01*
X11127446Y5424682D02*
X10985318Y5282554D01*
G75*
G02*
X10872888Y5282554I-56215J56215D01*
G01*
X10760458Y5394984D01*
G75*
G02*
X10760458Y5507414I56215J56215D01*
G01*
X10902586Y5649542D01*
G75*
G02*
X11015016Y5649542I56215J-56215D01*
G01*
X11127446Y5537112D01*
G75*
G02*
X11127446Y5424682I-56215J-56215D01*
G01*
G37*
G36*
G01*
X6965980Y14981005D02*
X6668995Y14684020D01*
G75*
G02*
X6471005Y14684020I-98995J98995D01*
G01*
X6174020Y14981005D01*
G75*
G02*
X6174020Y15178995I98995J98995D01*
G01*
X6471005Y15475980D01*
G75*
G02*
X6668995Y15475980I98995J-98995D01*
G01*
X6965980Y15178995D01*
G75*
G02*
X6965980Y14981005I-98995J-98995D01*
G01*
G37*
G36*
G01*
X6188163Y14203188D02*
X5891178Y13906203D01*
G75*
G02*
X5693188Y13906203I-98995J98995D01*
G01*
X5396203Y14203188D01*
G75*
G02*
X5396203Y14401178I98995J98995D01*
G01*
X5693188Y14698163D01*
G75*
G02*
X5891178Y14698163I98995J-98995D01*
G01*
X6188163Y14401178D01*
G75*
G02*
X6188163Y14203188I-98995J-98995D01*
G01*
G37*
G36*
G01*
X6188163Y15758822D02*
X5891178Y15461837D01*
G75*
G02*
X5693188Y15461837I-98995J98995D01*
G01*
X5396203Y15758822D01*
G75*
G02*
X5396203Y15956812I98995J98995D01*
G01*
X5693188Y16253797D01*
G75*
G02*
X5891178Y16253797I98995J-98995D01*
G01*
X6188163Y15956812D01*
G75*
G02*
X6188163Y15758822I-98995J-98995D01*
G01*
G37*
G36*
G01*
X5410346Y14981005D02*
X5113361Y14684020D01*
G75*
G02*
X4915371Y14684020I-98995J98995D01*
G01*
X4618386Y14981005D01*
G75*
G02*
X4618386Y15178995I98995J98995D01*
G01*
X4915371Y15475980D01*
G75*
G02*
X5113361Y15475980I98995J-98995D01*
G01*
X5410346Y15178995D01*
G75*
G02*
X5410346Y14981005I-98995J-98995D01*
G01*
G37*
G36*
G01*
X3983188Y12206203D02*
X3686203Y12503188D01*
G75*
G02*
X3686203Y12701178I98995J98995D01*
G01*
X3983188Y12998163D01*
G75*
G02*
X4181178Y12998163I98995J-98995D01*
G01*
X4478163Y12701178D01*
G75*
G02*
X4478163Y12503188I-98995J-98995D01*
G01*
X4181178Y12206203D01*
G75*
G02*
X3983188Y12206203I-98995J98995D01*
G01*
G37*
G36*
G01*
X3205371Y12984020D02*
X2908386Y13281005D01*
G75*
G02*
X2908386Y13478995I98995J98995D01*
G01*
X3205371Y13775980D01*
G75*
G02*
X3403361Y13775980I98995J-98995D01*
G01*
X3700346Y13478995D01*
G75*
G02*
X3700346Y13281005I-98995J-98995D01*
G01*
X3403361Y12984020D01*
G75*
G02*
X3205371Y12984020I-98995J98995D01*
G01*
G37*
G36*
G01*
X4761005Y12984020D02*
X4464020Y13281005D01*
G75*
G02*
X4464020Y13478995I98995J98995D01*
G01*
X4761005Y13775980D01*
G75*
G02*
X4958995Y13775980I98995J-98995D01*
G01*
X5255980Y13478995D01*
G75*
G02*
X5255980Y13281005I-98995J-98995D01*
G01*
X4958995Y12984020D01*
G75*
G02*
X4761005Y12984020I-98995J98995D01*
G01*
G37*
G36*
G01*
X3983188Y13761837D02*
X3686203Y14058822D01*
G75*
G02*
X3686203Y14256812I98995J98995D01*
G01*
X3983188Y14553797D01*
G75*
G02*
X4181178Y14553797I98995J-98995D01*
G01*
X4478163Y14256812D01*
G75*
G02*
X4478163Y14058822I-98995J-98995D01*
G01*
X4181178Y13761837D01*
G75*
G02*
X3983188Y13761837I-98995J98995D01*
G01*
G37*
G36*
G01*
X9469828Y13313366D02*
X9066777Y12910315D01*
G75*
G02*
X8713223Y12910315I-176777J176777D01*
G01*
X8310172Y13313366D01*
G75*
G02*
X8310172Y13666920I176777J176777D01*
G01*
X8713223Y14069971D01*
G75*
G02*
X9066777Y14069971I176777J-176777D01*
G01*
X9469828Y13666920D01*
G75*
G02*
X9469828Y13313366I-176777J-176777D01*
G01*
G37*
G36*
G01*
X8536447Y12379985D02*
X8133396Y11976934D01*
G75*
G02*
X7779842Y11976934I-176777J176777D01*
G01*
X7376791Y12379985D01*
G75*
G02*
X7376791Y12733539I176777J176777D01*
G01*
X7779842Y13136590D01*
G75*
G02*
X8133396Y13136590I176777J-176777D01*
G01*
X8536447Y12733539D01*
G75*
G02*
X8536447Y12379985I-176777J-176777D01*
G01*
G37*
G36*
G01*
X7603066Y11446604D02*
X7200015Y11043553D01*
G75*
G02*
X6846461Y11043553I-176777J176777D01*
G01*
X6443410Y11446604D01*
G75*
G02*
X6443410Y11800158I176777J176777D01*
G01*
X6846461Y12203209D01*
G75*
G02*
X7200015Y12203209I176777J-176777D01*
G01*
X7603066Y11800158D01*
G75*
G02*
X7603066Y11446604I-176777J-176777D01*
G01*
G37*
G36*
G01*
X6669685Y10513223D02*
X6266634Y10110172D01*
G75*
G02*
X5913080Y10110172I-176777J176777D01*
G01*
X5510029Y10513223D01*
G75*
G02*
X5510029Y10866777I176777J176777D01*
G01*
X5913080Y11269828D01*
G75*
G02*
X6266634Y11269828I176777J-176777D01*
G01*
X6669685Y10866777D01*
G75*
G02*
X6669685Y10513223I-176777J-176777D01*
G01*
G37*
G36*
G01*
X10403209Y12379985D02*
X10000158Y11976934D01*
G75*
G02*
X9646604Y11976934I-176777J176777D01*
G01*
X9243553Y12379985D01*
G75*
G02*
X9243553Y12733539I176777J176777D01*
G01*
X9646604Y13136590D01*
G75*
G02*
X10000158Y13136590I176777J-176777D01*
G01*
X10403209Y12733539D01*
G75*
G02*
X10403209Y12379985I-176777J-176777D01*
G01*
G37*
G36*
G01*
X9469828Y11446604D02*
X9066777Y11043553D01*
G75*
G02*
X8713223Y11043553I-176777J176777D01*
G01*
X8310172Y11446604D01*
G75*
G02*
X8310172Y11800158I176777J176777D01*
G01*
X8713223Y12203209D01*
G75*
G02*
X9066777Y12203209I176777J-176777D01*
G01*
X9469828Y11800158D01*
G75*
G02*
X9469828Y11446604I-176777J-176777D01*
G01*
G37*
G36*
G01*
X8536447Y10513223D02*
X8133396Y10110172D01*
G75*
G02*
X7779842Y10110172I-176777J176777D01*
G01*
X7376791Y10513223D01*
G75*
G02*
X7376791Y10866777I176777J176777D01*
G01*
X7779842Y11269828D01*
G75*
G02*
X8133396Y11269828I176777J-176777D01*
G01*
X8536447Y10866777D01*
G75*
G02*
X8536447Y10513223I-176777J-176777D01*
G01*
G37*
G36*
G01*
X7603066Y9579842D02*
X7200015Y9176791D01*
G75*
G02*
X6846461Y9176791I-176777J176777D01*
G01*
X6443410Y9579842D01*
G75*
G02*
X6443410Y9933396I176777J176777D01*
G01*
X6846461Y10336447D01*
G75*
G02*
X7200015Y10336447I176777J-176777D01*
G01*
X7603066Y9933396D01*
G75*
G02*
X7603066Y9579842I-176777J-176777D01*
G01*
G37*
G36*
G01*
X11336590Y11446604D02*
X10933539Y11043553D01*
G75*
G02*
X10579985Y11043553I-176777J176777D01*
G01*
X10176934Y11446604D01*
G75*
G02*
X10176934Y11800158I176777J176777D01*
G01*
X10579985Y12203209D01*
G75*
G02*
X10933539Y12203209I176777J-176777D01*
G01*
X11336590Y11800158D01*
G75*
G02*
X11336590Y11446604I-176777J-176777D01*
G01*
G37*
G36*
G01*
X10403209Y10513223D02*
X10000158Y10110172D01*
G75*
G02*
X9646604Y10110172I-176777J176777D01*
G01*
X9243553Y10513223D01*
G75*
G02*
X9243553Y10866777I176777J176777D01*
G01*
X9646604Y11269828D01*
G75*
G02*
X10000158Y11269828I176777J-176777D01*
G01*
X10403209Y10866777D01*
G75*
G02*
X10403209Y10513223I-176777J-176777D01*
G01*
G37*
G36*
G01*
X9469828Y9579842D02*
X9066777Y9176791D01*
G75*
G02*
X8713223Y9176791I-176777J176777D01*
G01*
X8310172Y9579842D01*
G75*
G02*
X8310172Y9933396I176777J176777D01*
G01*
X8713223Y10336447D01*
G75*
G02*
X9066777Y10336447I176777J-176777D01*
G01*
X9469828Y9933396D01*
G75*
G02*
X9469828Y9579842I-176777J-176777D01*
G01*
G37*
G36*
G01*
X8536447Y8646461D02*
X8133396Y8243410D01*
G75*
G02*
X7779842Y8243410I-176777J176777D01*
G01*
X7376791Y8646461D01*
G75*
G02*
X7376791Y9000015I176777J176777D01*
G01*
X7779842Y9403066D01*
G75*
G02*
X8133396Y9403066I176777J-176777D01*
G01*
X8536447Y9000015D01*
G75*
G02*
X8536447Y8646461I-176777J-176777D01*
G01*
G37*
G36*
G01*
X12269971Y10513223D02*
X11866920Y10110172D01*
G75*
G02*
X11513366Y10110172I-176777J176777D01*
G01*
X11110315Y10513223D01*
G75*
G02*
X11110315Y10866777I176777J176777D01*
G01*
X11513366Y11269828D01*
G75*
G02*
X11866920Y11269828I176777J-176777D01*
G01*
X12269971Y10866777D01*
G75*
G02*
X12269971Y10513223I-176777J-176777D01*
G01*
G37*
G36*
G01*
X11336590Y9579842D02*
X10933539Y9176791D01*
G75*
G02*
X10579985Y9176791I-176777J176777D01*
G01*
X10176934Y9579842D01*
G75*
G02*
X10176934Y9933396I176777J176777D01*
G01*
X10579985Y10336447D01*
G75*
G02*
X10933539Y10336447I176777J-176777D01*
G01*
X11336590Y9933396D01*
G75*
G02*
X11336590Y9579842I-176777J-176777D01*
G01*
G37*
G36*
G01*
X10403209Y8646461D02*
X10000158Y8243410D01*
G75*
G02*
X9646604Y8243410I-176777J176777D01*
G01*
X9243553Y8646461D01*
G75*
G02*
X9243553Y9000015I176777J176777D01*
G01*
X9646604Y9403066D01*
G75*
G02*
X10000158Y9403066I176777J-176777D01*
G01*
X10403209Y9000015D01*
G75*
G02*
X10403209Y8646461I-176777J-176777D01*
G01*
G37*
G36*
G01*
X9469828Y7713080D02*
X9066777Y7310029D01*
G75*
G02*
X8713223Y7310029I-176777J176777D01*
G01*
X8310172Y7713080D01*
G75*
G02*
X8310172Y8066634I176777J176777D01*
G01*
X8713223Y8469685D01*
G75*
G02*
X9066777Y8469685I176777J-176777D01*
G01*
X9469828Y8066634D01*
G75*
G02*
X9469828Y7713080I-176777J-176777D01*
G01*
G37*
G36*
G01*
X8722062Y6456198D02*
X8244765Y5978901D01*
G75*
G02*
X8156377Y5978901I-44194J44194D01*
G01*
X8067988Y6067290D01*
G75*
G02*
X8067988Y6155678I44194J44194D01*
G01*
X8545285Y6632975D01*
G75*
G02*
X8633673Y6632975I44194J-44194D01*
G01*
X8722062Y6544586D01*
G75*
G02*
X8722062Y6456198I-44194J-44194D01*
G01*
G37*
G36*
G01*
X8368509Y6809751D02*
X7891212Y6332454D01*
G75*
G02*
X7802824Y6332454I-44194J44194D01*
G01*
X7714435Y6420843D01*
G75*
G02*
X7714435Y6509231I44194J44194D01*
G01*
X8191732Y6986528D01*
G75*
G02*
X8280120Y6986528I44194J-44194D01*
G01*
X8368509Y6898139D01*
G75*
G02*
X8368509Y6809751I-44194J-44194D01*
G01*
G37*
G36*
G01*
X8014955Y7163305D02*
X7537658Y6686008D01*
G75*
G02*
X7449270Y6686008I-44194J44194D01*
G01*
X7360881Y6774397D01*
G75*
G02*
X7360881Y6862785I44194J44194D01*
G01*
X7838178Y7340082D01*
G75*
G02*
X7926566Y7340082I44194J-44194D01*
G01*
X8014955Y7251693D01*
G75*
G02*
X8014955Y7163305I-44194J-44194D01*
G01*
G37*
G36*
G01*
X7661402Y7516858D02*
X7184105Y7039561D01*
G75*
G02*
X7095717Y7039561I-44194J44194D01*
G01*
X7007328Y7127950D01*
G75*
G02*
X7007328Y7216338I44194J44194D01*
G01*
X7484625Y7693635D01*
G75*
G02*
X7573013Y7693635I44194J-44194D01*
G01*
X7661402Y7605246D01*
G75*
G02*
X7661402Y7516858I-44194J-44194D01*
G01*
G37*
G36*
G01*
X7307849Y7870412D02*
X6830552Y7393115D01*
G75*
G02*
X6742164Y7393115I-44194J44194D01*
G01*
X6653775Y7481504D01*
G75*
G02*
X6653775Y7569892I44194J44194D01*
G01*
X7131072Y8047189D01*
G75*
G02*
X7219460Y8047189I44194J-44194D01*
G01*
X7307849Y7958800D01*
G75*
G02*
X7307849Y7870412I-44194J-44194D01*
G01*
G37*
G36*
G01*
X6954295Y8223965D02*
X6476998Y7746668D01*
G75*
G02*
X6388610Y7746668I-44194J44194D01*
G01*
X6300221Y7835057D01*
G75*
G02*
X6300221Y7923445I44194J44194D01*
G01*
X6777518Y8400742D01*
G75*
G02*
X6865906Y8400742I44194J-44194D01*
G01*
X6954295Y8312353D01*
G75*
G02*
X6954295Y8223965I-44194J-44194D01*
G01*
G37*
G36*
G01*
X6600742Y8577518D02*
X6123445Y8100221D01*
G75*
G02*
X6035057Y8100221I-44194J44194D01*
G01*
X5946668Y8188610D01*
G75*
G02*
X5946668Y8276998I44194J44194D01*
G01*
X6423965Y8754295D01*
G75*
G02*
X6512353Y8754295I44194J-44194D01*
G01*
X6600742Y8665906D01*
G75*
G02*
X6600742Y8577518I-44194J-44194D01*
G01*
G37*
G36*
G01*
X6247189Y8931072D02*
X5769892Y8453775D01*
G75*
G02*
X5681504Y8453775I-44194J44194D01*
G01*
X5593115Y8542164D01*
G75*
G02*
X5593115Y8630552I44194J44194D01*
G01*
X6070412Y9107849D01*
G75*
G02*
X6158800Y9107849I44194J-44194D01*
G01*
X6247189Y9019460D01*
G75*
G02*
X6247189Y8931072I-44194J-44194D01*
G01*
G37*
G36*
G01*
X5893635Y9284625D02*
X5416338Y8807328D01*
G75*
G02*
X5327950Y8807328I-44194J44194D01*
G01*
X5239561Y8895717D01*
G75*
G02*
X5239561Y8984105I44194J44194D01*
G01*
X5716858Y9461402D01*
G75*
G02*
X5805246Y9461402I44194J-44194D01*
G01*
X5893635Y9373013D01*
G75*
G02*
X5893635Y9284625I-44194J-44194D01*
G01*
G37*
G36*
G01*
X5540082Y9638178D02*
X5062785Y9160881D01*
G75*
G02*
X4974397Y9160881I-44194J44194D01*
G01*
X4886008Y9249270D01*
G75*
G02*
X4886008Y9337658I44194J44194D01*
G01*
X5363305Y9814955D01*
G75*
G02*
X5451693Y9814955I44194J-44194D01*
G01*
X5540082Y9726566D01*
G75*
G02*
X5540082Y9638178I-44194J-44194D01*
G01*
G37*
G36*
G01*
X5186528Y9991732D02*
X4709231Y9514435D01*
G75*
G02*
X4620843Y9514435I-44194J44194D01*
G01*
X4532454Y9602824D01*
G75*
G02*
X4532454Y9691212I44194J44194D01*
G01*
X5009751Y10168509D01*
G75*
G02*
X5098139Y10168509I44194J-44194D01*
G01*
X5186528Y10080120D01*
G75*
G02*
X5186528Y9991732I-44194J-44194D01*
G01*
G37*
G36*
G01*
X4832975Y10345285D02*
X4355678Y9867988D01*
G75*
G02*
X4267290Y9867988I-44194J44194D01*
G01*
X4178901Y9956377D01*
G75*
G02*
X4178901Y10044765I44194J44194D01*
G01*
X4656198Y10522062D01*
G75*
G02*
X4744586Y10522062I44194J-44194D01*
G01*
X4832975Y10433673D01*
G75*
G02*
X4832975Y10345285I-44194J-44194D01*
G01*
G37*
G36*
G01*
X4832975Y10946327D02*
X4744586Y10857938D01*
G75*
G02*
X4656198Y10857938I-44194J44194D01*
G01*
X4178901Y11335235D01*
G75*
G02*
X4178901Y11423623I44194J44194D01*
G01*
X4267290Y11512012D01*
G75*
G02*
X4355678Y11512012I44194J-44194D01*
G01*
X4832975Y11034715D01*
G75*
G02*
X4832975Y10946327I-44194J-44194D01*
G01*
G37*
G36*
G01*
X5186528Y11299880D02*
X5098139Y11211491D01*
G75*
G02*
X5009751Y11211491I-44194J44194D01*
G01*
X4532454Y11688788D01*
G75*
G02*
X4532454Y11777176I44194J44194D01*
G01*
X4620843Y11865565D01*
G75*
G02*
X4709231Y11865565I44194J-44194D01*
G01*
X5186528Y11388268D01*
G75*
G02*
X5186528Y11299880I-44194J-44194D01*
G01*
G37*
G36*
G01*
X5540082Y11653434D02*
X5451693Y11565045D01*
G75*
G02*
X5363305Y11565045I-44194J44194D01*
G01*
X4886008Y12042342D01*
G75*
G02*
X4886008Y12130730I44194J44194D01*
G01*
X4974397Y12219119D01*
G75*
G02*
X5062785Y12219119I44194J-44194D01*
G01*
X5540082Y11741822D01*
G75*
G02*
X5540082Y11653434I-44194J-44194D01*
G01*
G37*
G36*
G01*
X5893635Y12006987D02*
X5805246Y11918598D01*
G75*
G02*
X5716858Y11918598I-44194J44194D01*
G01*
X5239561Y12395895D01*
G75*
G02*
X5239561Y12484283I44194J44194D01*
G01*
X5327950Y12572672D01*
G75*
G02*
X5416338Y12572672I44194J-44194D01*
G01*
X5893635Y12095375D01*
G75*
G02*
X5893635Y12006987I-44194J-44194D01*
G01*
G37*
G36*
G01*
X6247189Y12360540D02*
X6158800Y12272151D01*
G75*
G02*
X6070412Y12272151I-44194J44194D01*
G01*
X5593115Y12749448D01*
G75*
G02*
X5593115Y12837836I44194J44194D01*
G01*
X5681504Y12926225D01*
G75*
G02*
X5769892Y12926225I44194J-44194D01*
G01*
X6247189Y12448928D01*
G75*
G02*
X6247189Y12360540I-44194J-44194D01*
G01*
G37*
G36*
G01*
X6600742Y12714094D02*
X6512353Y12625705D01*
G75*
G02*
X6423965Y12625705I-44194J44194D01*
G01*
X5946668Y13103002D01*
G75*
G02*
X5946668Y13191390I44194J44194D01*
G01*
X6035057Y13279779D01*
G75*
G02*
X6123445Y13279779I44194J-44194D01*
G01*
X6600742Y12802482D01*
G75*
G02*
X6600742Y12714094I-44194J-44194D01*
G01*
G37*
G36*
G01*
X6954295Y13067647D02*
X6865906Y12979258D01*
G75*
G02*
X6777518Y12979258I-44194J44194D01*
G01*
X6300221Y13456555D01*
G75*
G02*
X6300221Y13544943I44194J44194D01*
G01*
X6388610Y13633332D01*
G75*
G02*
X6476998Y13633332I44194J-44194D01*
G01*
X6954295Y13156035D01*
G75*
G02*
X6954295Y13067647I-44194J-44194D01*
G01*
G37*
G36*
G01*
X7307849Y13421200D02*
X7219460Y13332811D01*
G75*
G02*
X7131072Y13332811I-44194J44194D01*
G01*
X6653775Y13810108D01*
G75*
G02*
X6653775Y13898496I44194J44194D01*
G01*
X6742164Y13986885D01*
G75*
G02*
X6830552Y13986885I44194J-44194D01*
G01*
X7307849Y13509588D01*
G75*
G02*
X7307849Y13421200I-44194J-44194D01*
G01*
G37*
G36*
G01*
X7661402Y13774754D02*
X7573013Y13686365D01*
G75*
G02*
X7484625Y13686365I-44194J44194D01*
G01*
X7007328Y14163662D01*
G75*
G02*
X7007328Y14252050I44194J44194D01*
G01*
X7095717Y14340439D01*
G75*
G02*
X7184105Y14340439I44194J-44194D01*
G01*
X7661402Y13863142D01*
G75*
G02*
X7661402Y13774754I-44194J-44194D01*
G01*
G37*
G36*
G01*
X8014955Y14128307D02*
X7926566Y14039918D01*
G75*
G02*
X7838178Y14039918I-44194J44194D01*
G01*
X7360881Y14517215D01*
G75*
G02*
X7360881Y14605603I44194J44194D01*
G01*
X7449270Y14693992D01*
G75*
G02*
X7537658Y14693992I44194J-44194D01*
G01*
X8014955Y14216695D01*
G75*
G02*
X8014955Y14128307I-44194J-44194D01*
G01*
G37*
G36*
G01*
X8368509Y14481861D02*
X8280120Y14393472D01*
G75*
G02*
X8191732Y14393472I-44194J44194D01*
G01*
X7714435Y14870769D01*
G75*
G02*
X7714435Y14959157I44194J44194D01*
G01*
X7802824Y15047546D01*
G75*
G02*
X7891212Y15047546I44194J-44194D01*
G01*
X8368509Y14570249D01*
G75*
G02*
X8368509Y14481861I-44194J-44194D01*
G01*
G37*
G36*
G01*
X8722062Y14835414D02*
X8633673Y14747025D01*
G75*
G02*
X8545285Y14747025I-44194J44194D01*
G01*
X8067988Y15224322D01*
G75*
G02*
X8067988Y15312710I44194J44194D01*
G01*
X8156377Y15401099D01*
G75*
G02*
X8244765Y15401099I44194J-44194D01*
G01*
X8722062Y14923802D01*
G75*
G02*
X8722062Y14835414I-44194J-44194D01*
G01*
G37*
G36*
G01*
X9712012Y15224322D02*
X9234715Y14747025D01*
G75*
G02*
X9146327Y14747025I-44194J44194D01*
G01*
X9057938Y14835414D01*
G75*
G02*
X9057938Y14923802I44194J44194D01*
G01*
X9535235Y15401099D01*
G75*
G02*
X9623623Y15401099I44194J-44194D01*
G01*
X9712012Y15312710D01*
G75*
G02*
X9712012Y15224322I-44194J-44194D01*
G01*
G37*
G36*
G01*
X10065565Y14870769D02*
X9588268Y14393472D01*
G75*
G02*
X9499880Y14393472I-44194J44194D01*
G01*
X9411491Y14481861D01*
G75*
G02*
X9411491Y14570249I44194J44194D01*
G01*
X9888788Y15047546D01*
G75*
G02*
X9977176Y15047546I44194J-44194D01*
G01*
X10065565Y14959157D01*
G75*
G02*
X10065565Y14870769I-44194J-44194D01*
G01*
G37*
G36*
G01*
X10419119Y14517215D02*
X9941822Y14039918D01*
G75*
G02*
X9853434Y14039918I-44194J44194D01*
G01*
X9765045Y14128307D01*
G75*
G02*
X9765045Y14216695I44194J44194D01*
G01*
X10242342Y14693992D01*
G75*
G02*
X10330730Y14693992I44194J-44194D01*
G01*
X10419119Y14605603D01*
G75*
G02*
X10419119Y14517215I-44194J-44194D01*
G01*
G37*
G36*
G01*
X10772672Y14163662D02*
X10295375Y13686365D01*
G75*
G02*
X10206987Y13686365I-44194J44194D01*
G01*
X10118598Y13774754D01*
G75*
G02*
X10118598Y13863142I44194J44194D01*
G01*
X10595895Y14340439D01*
G75*
G02*
X10684283Y14340439I44194J-44194D01*
G01*
X10772672Y14252050D01*
G75*
G02*
X10772672Y14163662I-44194J-44194D01*
G01*
G37*
G36*
G01*
X11126225Y13810108D02*
X10648928Y13332811D01*
G75*
G02*
X10560540Y13332811I-44194J44194D01*
G01*
X10472151Y13421200D01*
G75*
G02*
X10472151Y13509588I44194J44194D01*
G01*
X10949448Y13986885D01*
G75*
G02*
X11037836Y13986885I44194J-44194D01*
G01*
X11126225Y13898496D01*
G75*
G02*
X11126225Y13810108I-44194J-44194D01*
G01*
G37*
G36*
G01*
X11479779Y13456555D02*
X11002482Y12979258D01*
G75*
G02*
X10914094Y12979258I-44194J44194D01*
G01*
X10825705Y13067647D01*
G75*
G02*
X10825705Y13156035I44194J44194D01*
G01*
X11303002Y13633332D01*
G75*
G02*
X11391390Y13633332I44194J-44194D01*
G01*
X11479779Y13544943D01*
G75*
G02*
X11479779Y13456555I-44194J-44194D01*
G01*
G37*
G36*
G01*
X11833332Y13103002D02*
X11356035Y12625705D01*
G75*
G02*
X11267647Y12625705I-44194J44194D01*
G01*
X11179258Y12714094D01*
G75*
G02*
X11179258Y12802482I44194J44194D01*
G01*
X11656555Y13279779D01*
G75*
G02*
X11744943Y13279779I44194J-44194D01*
G01*
X11833332Y13191390D01*
G75*
G02*
X11833332Y13103002I-44194J-44194D01*
G01*
G37*
G36*
G01*
X12186885Y12749448D02*
X11709588Y12272151D01*
G75*
G02*
X11621200Y12272151I-44194J44194D01*
G01*
X11532811Y12360540D01*
G75*
G02*
X11532811Y12448928I44194J44194D01*
G01*
X12010108Y12926225D01*
G75*
G02*
X12098496Y12926225I44194J-44194D01*
G01*
X12186885Y12837836D01*
G75*
G02*
X12186885Y12749448I-44194J-44194D01*
G01*
G37*
G36*
G01*
X12540439Y12395895D02*
X12063142Y11918598D01*
G75*
G02*
X11974754Y11918598I-44194J44194D01*
G01*
X11886365Y12006987D01*
G75*
G02*
X11886365Y12095375I44194J44194D01*
G01*
X12363662Y12572672D01*
G75*
G02*
X12452050Y12572672I44194J-44194D01*
G01*
X12540439Y12484283D01*
G75*
G02*
X12540439Y12395895I-44194J-44194D01*
G01*
G37*
G36*
G01*
X12893992Y12042342D02*
X12416695Y11565045D01*
G75*
G02*
X12328307Y11565045I-44194J44194D01*
G01*
X12239918Y11653434D01*
G75*
G02*
X12239918Y11741822I44194J44194D01*
G01*
X12717215Y12219119D01*
G75*
G02*
X12805603Y12219119I44194J-44194D01*
G01*
X12893992Y12130730D01*
G75*
G02*
X12893992Y12042342I-44194J-44194D01*
G01*
G37*
G36*
G01*
X13247546Y11688788D02*
X12770249Y11211491D01*
G75*
G02*
X12681861Y11211491I-44194J44194D01*
G01*
X12593472Y11299880D01*
G75*
G02*
X12593472Y11388268I44194J44194D01*
G01*
X13070769Y11865565D01*
G75*
G02*
X13159157Y11865565I44194J-44194D01*
G01*
X13247546Y11777176D01*
G75*
G02*
X13247546Y11688788I-44194J-44194D01*
G01*
G37*
G36*
G01*
X13601099Y11335235D02*
X13123802Y10857938D01*
G75*
G02*
X13035414Y10857938I-44194J44194D01*
G01*
X12947025Y10946327D01*
G75*
G02*
X12947025Y11034715I44194J44194D01*
G01*
X13424322Y11512012D01*
G75*
G02*
X13512710Y11512012I44194J-44194D01*
G01*
X13601099Y11423623D01*
G75*
G02*
X13601099Y11335235I-44194J-44194D01*
G01*
G37*
G36*
G01*
X13601099Y9956377D02*
X13512710Y9867988D01*
G75*
G02*
X13424322Y9867988I-44194J44194D01*
G01*
X12947025Y10345285D01*
G75*
G02*
X12947025Y10433673I44194J44194D01*
G01*
X13035414Y10522062D01*
G75*
G02*
X13123802Y10522062I44194J-44194D01*
G01*
X13601099Y10044765D01*
G75*
G02*
X13601099Y9956377I-44194J-44194D01*
G01*
G37*
G36*
G01*
X13247546Y9602824D02*
X13159157Y9514435D01*
G75*
G02*
X13070769Y9514435I-44194J44194D01*
G01*
X12593472Y9991732D01*
G75*
G02*
X12593472Y10080120I44194J44194D01*
G01*
X12681861Y10168509D01*
G75*
G02*
X12770249Y10168509I44194J-44194D01*
G01*
X13247546Y9691212D01*
G75*
G02*
X13247546Y9602824I-44194J-44194D01*
G01*
G37*
G36*
G01*
X12893992Y9249270D02*
X12805603Y9160881D01*
G75*
G02*
X12717215Y9160881I-44194J44194D01*
G01*
X12239918Y9638178D01*
G75*
G02*
X12239918Y9726566I44194J44194D01*
G01*
X12328307Y9814955D01*
G75*
G02*
X12416695Y9814955I44194J-44194D01*
G01*
X12893992Y9337658D01*
G75*
G02*
X12893992Y9249270I-44194J-44194D01*
G01*
G37*
G36*
G01*
X12540439Y8895717D02*
X12452050Y8807328D01*
G75*
G02*
X12363662Y8807328I-44194J44194D01*
G01*
X11886365Y9284625D01*
G75*
G02*
X11886365Y9373013I44194J44194D01*
G01*
X11974754Y9461402D01*
G75*
G02*
X12063142Y9461402I44194J-44194D01*
G01*
X12540439Y8984105D01*
G75*
G02*
X12540439Y8895717I-44194J-44194D01*
G01*
G37*
G36*
G01*
X12186885Y8542164D02*
X12098496Y8453775D01*
G75*
G02*
X12010108Y8453775I-44194J44194D01*
G01*
X11532811Y8931072D01*
G75*
G02*
X11532811Y9019460I44194J44194D01*
G01*
X11621200Y9107849D01*
G75*
G02*
X11709588Y9107849I44194J-44194D01*
G01*
X12186885Y8630552D01*
G75*
G02*
X12186885Y8542164I-44194J-44194D01*
G01*
G37*
G36*
G01*
X11833332Y8188610D02*
X11744943Y8100221D01*
G75*
G02*
X11656555Y8100221I-44194J44194D01*
G01*
X11179258Y8577518D01*
G75*
G02*
X11179258Y8665906I44194J44194D01*
G01*
X11267647Y8754295D01*
G75*
G02*
X11356035Y8754295I44194J-44194D01*
G01*
X11833332Y8276998D01*
G75*
G02*
X11833332Y8188610I-44194J-44194D01*
G01*
G37*
G36*
G01*
X11479779Y7835057D02*
X11391390Y7746668D01*
G75*
G02*
X11303002Y7746668I-44194J44194D01*
G01*
X10825705Y8223965D01*
G75*
G02*
X10825705Y8312353I44194J44194D01*
G01*
X10914094Y8400742D01*
G75*
G02*
X11002482Y8400742I44194J-44194D01*
G01*
X11479779Y7923445D01*
G75*
G02*
X11479779Y7835057I-44194J-44194D01*
G01*
G37*
G36*
G01*
X11126225Y7481504D02*
X11037836Y7393115D01*
G75*
G02*
X10949448Y7393115I-44194J44194D01*
G01*
X10472151Y7870412D01*
G75*
G02*
X10472151Y7958800I44194J44194D01*
G01*
X10560540Y8047189D01*
G75*
G02*
X10648928Y8047189I44194J-44194D01*
G01*
X11126225Y7569892D01*
G75*
G02*
X11126225Y7481504I-44194J-44194D01*
G01*
G37*
G36*
G01*
X10772672Y7127950D02*
X10684283Y7039561D01*
G75*
G02*
X10595895Y7039561I-44194J44194D01*
G01*
X10118598Y7516858D01*
G75*
G02*
X10118598Y7605246I44194J44194D01*
G01*
X10206987Y7693635D01*
G75*
G02*
X10295375Y7693635I44194J-44194D01*
G01*
X10772672Y7216338D01*
G75*
G02*
X10772672Y7127950I-44194J-44194D01*
G01*
G37*
G36*
G01*
X10419119Y6774397D02*
X10330730Y6686008D01*
G75*
G02*
X10242342Y6686008I-44194J44194D01*
G01*
X9765045Y7163305D01*
G75*
G02*
X9765045Y7251693I44194J44194D01*
G01*
X9853434Y7340082D01*
G75*
G02*
X9941822Y7340082I44194J-44194D01*
G01*
X10419119Y6862785D01*
G75*
G02*
X10419119Y6774397I-44194J-44194D01*
G01*
G37*
G36*
G01*
X10065565Y6420843D02*
X9977176Y6332454D01*
G75*
G02*
X9888788Y6332454I-44194J44194D01*
G01*
X9411491Y6809751D01*
G75*
G02*
X9411491Y6898139I44194J44194D01*
G01*
X9499880Y6986528D01*
G75*
G02*
X9588268Y6986528I44194J-44194D01*
G01*
X10065565Y6509231D01*
G75*
G02*
X10065565Y6420843I-44194J-44194D01*
G01*
G37*
G36*
G01*
X9712012Y6067290D02*
X9623623Y5978901D01*
G75*
G02*
X9535235Y5978901I-44194J44194D01*
G01*
X9057938Y6456198D01*
G75*
G02*
X9057938Y6544586I44194J44194D01*
G01*
X9146327Y6632975D01*
G75*
G02*
X9234715Y6632975I44194J-44194D01*
G01*
X9712012Y6155678D01*
G75*
G02*
X9712012Y6067290I-44194J-44194D01*
G01*
G37*
G36*
G01*
X7872586Y1960458D02*
X7730458Y2102586D01*
G75*
G02*
X7730458Y2215016I56215J56215D01*
G01*
X7842888Y2327446D01*
G75*
G02*
X7955318Y2327446I56215J-56215D01*
G01*
X8097446Y2185318D01*
G75*
G02*
X8097446Y2072888I-56215J-56215D01*
G01*
X7985016Y1960458D01*
G75*
G02*
X7872586Y1960458I-56215J56215D01*
G01*
G37*
G36*
G01*
X7384682Y1472554D02*
X7242554Y1614682D01*
G75*
G02*
X7242554Y1727112I56215J56215D01*
G01*
X7354984Y1839542D01*
G75*
G02*
X7467414Y1839542I56215J-56215D01*
G01*
X7609542Y1697414D01*
G75*
G02*
X7609542Y1584984I-56215J-56215D01*
G01*
X7497112Y1472554D01*
G75*
G02*
X7384682Y1472554I-56215J56215D01*
G01*
G37*
G36*
G01*
X6482463Y3794314D02*
X6093553Y4183224D01*
G75*
G02*
X6093553Y4536776I176776J176776D01*
G01*
X6482463Y4925686D01*
G75*
G02*
X6836015Y4925686I176776J-176776D01*
G01*
X7224925Y4536776D01*
G75*
G02*
X7224925Y4183224I-176776J-176776D01*
G01*
X6836015Y3794314D01*
G75*
G02*
X6482463Y3794314I-176776J176776D01*
G01*
G37*
G36*
G01*
X5563224Y4713553D02*
X5174314Y5102463D01*
G75*
G02*
X5174314Y5456015I176776J176776D01*
G01*
X5563224Y5844925D01*
G75*
G02*
X5916776Y5844925I176776J-176776D01*
G01*
X6305686Y5456015D01*
G75*
G02*
X6305686Y5102463I-176776J-176776D01*
G01*
X5916776Y4713553D01*
G75*
G02*
X5563224Y4713553I-176776J176776D01*
G01*
G37*
G36*
G01*
X5563224Y2875075D02*
X5174314Y3263985D01*
G75*
G02*
X5174314Y3617537I176776J176776D01*
G01*
X5563224Y4006447D01*
G75*
G02*
X5916776Y4006447I176776J-176776D01*
G01*
X6305686Y3617537D01*
G75*
G02*
X6305686Y3263985I-176776J-176776D01*
G01*
X5916776Y2875075D01*
G75*
G02*
X5563224Y2875075I-176776J176776D01*
G01*
G37*
G36*
G01*
X4643985Y3794314D02*
X4255075Y4183224D01*
G75*
G02*
X4255075Y4536776I176776J176776D01*
G01*
X4643985Y4925686D01*
G75*
G02*
X4997537Y4925686I176776J-176776D01*
G01*
X5386447Y4536776D01*
G75*
G02*
X5386447Y4183224I-176776J-176776D01*
G01*
X4997537Y3794314D01*
G75*
G02*
X4643985Y3794314I-176776J176776D01*
G01*
G37*
G36*
G01*
X3645196Y4510260D02*
X3150221Y5005235D01*
G75*
G02*
X3150221Y5093623I44194J44194D01*
G01*
X3238610Y5182012D01*
G75*
G02*
X3326998Y5182012I44194J-44194D01*
G01*
X3821973Y4687037D01*
G75*
G02*
X3821973Y4598649I-44194J-44194D01*
G01*
X3733584Y4510260D01*
G75*
G02*
X3645196Y4510260I-44194J44194D01*
G01*
G37*
G36*
G01*
X3998750Y4863813D02*
X3503775Y5358788D01*
G75*
G02*
X3503775Y5447176I44194J44194D01*
G01*
X3592164Y5535565D01*
G75*
G02*
X3680552Y5535565I44194J-44194D01*
G01*
X4175527Y5040590D01*
G75*
G02*
X4175527Y4952202I-44194J-44194D01*
G01*
X4087138Y4863813D01*
G75*
G02*
X3998750Y4863813I-44194J44194D01*
G01*
G37*
G36*
G01*
X4352303Y5217367D02*
X3857328Y5712342D01*
G75*
G02*
X3857328Y5800730I44194J44194D01*
G01*
X3945717Y5889119D01*
G75*
G02*
X4034105Y5889119I44194J-44194D01*
G01*
X4529080Y5394144D01*
G75*
G02*
X4529080Y5305756I-44194J-44194D01*
G01*
X4440691Y5217367D01*
G75*
G02*
X4352303Y5217367I-44194J44194D01*
G01*
G37*
G36*
G01*
X4705856Y5570920D02*
X4210881Y6065895D01*
G75*
G02*
X4210881Y6154283I44194J44194D01*
G01*
X4299270Y6242672D01*
G75*
G02*
X4387658Y6242672I44194J-44194D01*
G01*
X4882633Y5747697D01*
G75*
G02*
X4882633Y5659309I-44194J-44194D01*
G01*
X4794244Y5570920D01*
G75*
G02*
X4705856Y5570920I-44194J44194D01*
G01*
G37*
G36*
G01*
X5059410Y5924473D02*
X4564435Y6419448D01*
G75*
G02*
X4564435Y6507836I44194J44194D01*
G01*
X4652824Y6596225D01*
G75*
G02*
X4741212Y6596225I44194J-44194D01*
G01*
X5236187Y6101250D01*
G75*
G02*
X5236187Y6012862I-44194J-44194D01*
G01*
X5147798Y5924473D01*
G75*
G02*
X5059410Y5924473I-44194J44194D01*
G01*
G37*
G36*
G01*
X5412963Y6278027D02*
X4917988Y6773002D01*
G75*
G02*
X4917988Y6861390I44194J44194D01*
G01*
X5006377Y6949779D01*
G75*
G02*
X5094765Y6949779I44194J-44194D01*
G01*
X5589740Y6454804D01*
G75*
G02*
X5589740Y6366416I-44194J-44194D01*
G01*
X5501351Y6278027D01*
G75*
G02*
X5412963Y6278027I-44194J44194D01*
G01*
G37*
G36*
G01*
X5978649Y6278027D02*
X5890260Y6366416D01*
G75*
G02*
X5890260Y6454804I44194J44194D01*
G01*
X6385235Y6949779D01*
G75*
G02*
X6473623Y6949779I44194J-44194D01*
G01*
X6562012Y6861390D01*
G75*
G02*
X6562012Y6773002I-44194J-44194D01*
G01*
X6067037Y6278027D01*
G75*
G02*
X5978649Y6278027I-44194J44194D01*
G01*
G37*
G36*
G01*
X6332202Y5924473D02*
X6243813Y6012862D01*
G75*
G02*
X6243813Y6101250I44194J44194D01*
G01*
X6738788Y6596225D01*
G75*
G02*
X6827176Y6596225I44194J-44194D01*
G01*
X6915565Y6507836D01*
G75*
G02*
X6915565Y6419448I-44194J-44194D01*
G01*
X6420590Y5924473D01*
G75*
G02*
X6332202Y5924473I-44194J44194D01*
G01*
G37*
G36*
G01*
X6685756Y5570920D02*
X6597367Y5659309D01*
G75*
G02*
X6597367Y5747697I44194J44194D01*
G01*
X7092342Y6242672D01*
G75*
G02*
X7180730Y6242672I44194J-44194D01*
G01*
X7269119Y6154283D01*
G75*
G02*
X7269119Y6065895I-44194J-44194D01*
G01*
X6774144Y5570920D01*
G75*
G02*
X6685756Y5570920I-44194J44194D01*
G01*
G37*
G36*
G01*
X7039309Y5217367D02*
X6950920Y5305756D01*
G75*
G02*
X6950920Y5394144I44194J44194D01*
G01*
X7445895Y5889119D01*
G75*
G02*
X7534283Y5889119I44194J-44194D01*
G01*
X7622672Y5800730D01*
G75*
G02*
X7622672Y5712342I-44194J-44194D01*
G01*
X7127697Y5217367D01*
G75*
G02*
X7039309Y5217367I-44194J44194D01*
G01*
G37*
G36*
G01*
X7392862Y4863813D02*
X7304473Y4952202D01*
G75*
G02*
X7304473Y5040590I44194J44194D01*
G01*
X7799448Y5535565D01*
G75*
G02*
X7887836Y5535565I44194J-44194D01*
G01*
X7976225Y5447176D01*
G75*
G02*
X7976225Y5358788I-44194J-44194D01*
G01*
X7481250Y4863813D01*
G75*
G02*
X7392862Y4863813I-44194J44194D01*
G01*
G37*
G36*
G01*
X7746416Y4510260D02*
X7658027Y4598649D01*
G75*
G02*
X7658027Y4687037I44194J44194D01*
G01*
X8153002Y5182012D01*
G75*
G02*
X8241390Y5182012I44194J-44194D01*
G01*
X8329779Y5093623D01*
G75*
G02*
X8329779Y5005235I-44194J-44194D01*
G01*
X7834804Y4510260D01*
G75*
G02*
X7746416Y4510260I-44194J44194D01*
G01*
G37*
G36*
G01*
X8153002Y3537988D02*
X7658027Y4032963D01*
G75*
G02*
X7658027Y4121351I44194J44194D01*
G01*
X7746416Y4209740D01*
G75*
G02*
X7834804Y4209740I44194J-44194D01*
G01*
X8329779Y3714765D01*
G75*
G02*
X8329779Y3626377I-44194J-44194D01*
G01*
X8241390Y3537988D01*
G75*
G02*
X8153002Y3537988I-44194J44194D01*
G01*
G37*
G36*
G01*
X7799448Y3184435D02*
X7304473Y3679410D01*
G75*
G02*
X7304473Y3767798I44194J44194D01*
G01*
X7392862Y3856187D01*
G75*
G02*
X7481250Y3856187I44194J-44194D01*
G01*
X7976225Y3361212D01*
G75*
G02*
X7976225Y3272824I-44194J-44194D01*
G01*
X7887836Y3184435D01*
G75*
G02*
X7799448Y3184435I-44194J44194D01*
G01*
G37*
G36*
G01*
X7445895Y2830881D02*
X6950920Y3325856D01*
G75*
G02*
X6950920Y3414244I44194J44194D01*
G01*
X7039309Y3502633D01*
G75*
G02*
X7127697Y3502633I44194J-44194D01*
G01*
X7622672Y3007658D01*
G75*
G02*
X7622672Y2919270I-44194J-44194D01*
G01*
X7534283Y2830881D01*
G75*
G02*
X7445895Y2830881I-44194J44194D01*
G01*
G37*
G36*
G01*
X7092342Y2477328D02*
X6597367Y2972303D01*
G75*
G02*
X6597367Y3060691I44194J44194D01*
G01*
X6685756Y3149080D01*
G75*
G02*
X6774144Y3149080I44194J-44194D01*
G01*
X7269119Y2654105D01*
G75*
G02*
X7269119Y2565717I-44194J-44194D01*
G01*
X7180730Y2477328D01*
G75*
G02*
X7092342Y2477328I-44194J44194D01*
G01*
G37*
G36*
G01*
X6738788Y2123775D02*
X6243813Y2618750D01*
G75*
G02*
X6243813Y2707138I44194J44194D01*
G01*
X6332202Y2795527D01*
G75*
G02*
X6420590Y2795527I44194J-44194D01*
G01*
X6915565Y2300552D01*
G75*
G02*
X6915565Y2212164I-44194J-44194D01*
G01*
X6827176Y2123775D01*
G75*
G02*
X6738788Y2123775I-44194J44194D01*
G01*
G37*
G36*
G01*
X6385235Y1770221D02*
X5890260Y2265196D01*
G75*
G02*
X5890260Y2353584I44194J44194D01*
G01*
X5978649Y2441973D01*
G75*
G02*
X6067037Y2441973I44194J-44194D01*
G01*
X6562012Y1946998D01*
G75*
G02*
X6562012Y1858610I-44194J-44194D01*
G01*
X6473623Y1770221D01*
G75*
G02*
X6385235Y1770221I-44194J44194D01*
G01*
G37*
G36*
G01*
X5006377Y1770221D02*
X4917988Y1858610D01*
G75*
G02*
X4917988Y1946998I44194J44194D01*
G01*
X5412963Y2441973D01*
G75*
G02*
X5501351Y2441973I44194J-44194D01*
G01*
X5589740Y2353584D01*
G75*
G02*
X5589740Y2265196I-44194J-44194D01*
G01*
X5094765Y1770221D01*
G75*
G02*
X5006377Y1770221I-44194J44194D01*
G01*
G37*
G36*
G01*
X4652824Y2123775D02*
X4564435Y2212164D01*
G75*
G02*
X4564435Y2300552I44194J44194D01*
G01*
X5059410Y2795527D01*
G75*
G02*
X5147798Y2795527I44194J-44194D01*
G01*
X5236187Y2707138D01*
G75*
G02*
X5236187Y2618750I-44194J-44194D01*
G01*
X4741212Y2123775D01*
G75*
G02*
X4652824Y2123775I-44194J44194D01*
G01*
G37*
G36*
G01*
X4299270Y2477328D02*
X4210881Y2565717D01*
G75*
G02*
X4210881Y2654105I44194J44194D01*
G01*
X4705856Y3149080D01*
G75*
G02*
X4794244Y3149080I44194J-44194D01*
G01*
X4882633Y3060691D01*
G75*
G02*
X4882633Y2972303I-44194J-44194D01*
G01*
X4387658Y2477328D01*
G75*
G02*
X4299270Y2477328I-44194J44194D01*
G01*
G37*
G36*
G01*
X3945717Y2830881D02*
X3857328Y2919270D01*
G75*
G02*
X3857328Y3007658I44194J44194D01*
G01*
X4352303Y3502633D01*
G75*
G02*
X4440691Y3502633I44194J-44194D01*
G01*
X4529080Y3414244D01*
G75*
G02*
X4529080Y3325856I-44194J-44194D01*
G01*
X4034105Y2830881D01*
G75*
G02*
X3945717Y2830881I-44194J44194D01*
G01*
G37*
G36*
G01*
X3592164Y3184435D02*
X3503775Y3272824D01*
G75*
G02*
X3503775Y3361212I44194J44194D01*
G01*
X3998750Y3856187D01*
G75*
G02*
X4087138Y3856187I44194J-44194D01*
G01*
X4175527Y3767798D01*
G75*
G02*
X4175527Y3679410I-44194J-44194D01*
G01*
X3680552Y3184435D01*
G75*
G02*
X3592164Y3184435I-44194J44194D01*
G01*
G37*
G36*
G01*
X3238610Y3537988D02*
X3150221Y3626377D01*
G75*
G02*
X3150221Y3714765I44194J44194D01*
G01*
X3645196Y4209740D01*
G75*
G02*
X3733584Y4209740I44194J-44194D01*
G01*
X3821973Y4121351D01*
G75*
G02*
X3821973Y4032963I-44194J-44194D01*
G01*
X3326998Y3537988D01*
G75*
G02*
X3238610Y3537988I-44194J44194D01*
G01*
G37*
G36*
G01*
X10530500Y30756000D02*
X10329500Y30756000D01*
G75*
G02*
X10250000Y30835500I0J79500D01*
G01*
X10250000Y30994500D01*
G75*
G02*
X10329500Y31074000I79500J0D01*
G01*
X10530500Y31074000D01*
G75*
G02*
X10610000Y30994500I0J-79500D01*
G01*
X10610000Y30835500D01*
G75*
G02*
X10530500Y30756000I-79500J0D01*
G01*
G37*
G36*
G01*
X10530500Y30066000D02*
X10329500Y30066000D01*
G75*
G02*
X10250000Y30145500I0J79500D01*
G01*
X10250000Y30304500D01*
G75*
G02*
X10329500Y30384000I79500J0D01*
G01*
X10530500Y30384000D01*
G75*
G02*
X10610000Y30304500I0J-79500D01*
G01*
X10610000Y30145500D01*
G75*
G02*
X10530500Y30066000I-79500J0D01*
G01*
G37*
G36*
G01*
X14656000Y30809500D02*
X14656000Y31010500D01*
G75*
G02*
X14735500Y31090000I79500J0D01*
G01*
X14894500Y31090000D01*
G75*
G02*
X14974000Y31010500I0J-79500D01*
G01*
X14974000Y30809500D01*
G75*
G02*
X14894500Y30730000I-79500J0D01*
G01*
X14735500Y30730000D01*
G75*
G02*
X14656000Y30809500I0J79500D01*
G01*
G37*
G36*
G01*
X13966000Y30809500D02*
X13966000Y31010500D01*
G75*
G02*
X14045500Y31090000I79500J0D01*
G01*
X14204500Y31090000D01*
G75*
G02*
X14284000Y31010500I0J-79500D01*
G01*
X14284000Y30809500D01*
G75*
G02*
X14204500Y30730000I-79500J0D01*
G01*
X14045500Y30730000D01*
G75*
G02*
X13966000Y30809500I0J79500D01*
G01*
G37*
G36*
G01*
X7566000Y15989500D02*
X7566000Y16190500D01*
G75*
G02*
X7645500Y16270000I79500J0D01*
G01*
X7804500Y16270000D01*
G75*
G02*
X7884000Y16190500I0J-79500D01*
G01*
X7884000Y15989500D01*
G75*
G02*
X7804500Y15910000I-79500J0D01*
G01*
X7645500Y15910000D01*
G75*
G02*
X7566000Y15989500I0J79500D01*
G01*
G37*
G36*
G01*
X6876000Y15989500D02*
X6876000Y16190500D01*
G75*
G02*
X6955500Y16270000I79500J0D01*
G01*
X7114500Y16270000D01*
G75*
G02*
X7194000Y16190500I0J-79500D01*
G01*
X7194000Y15989500D01*
G75*
G02*
X7114500Y15910000I-79500J0D01*
G01*
X6955500Y15910000D01*
G75*
G02*
X6876000Y15989500I0J79500D01*
G01*
G37*
G36*
G01*
X4373688Y23735816D02*
X4515816Y23593688D01*
G75*
G02*
X4515816Y23481258I-56215J-56215D01*
G01*
X4403386Y23368828D01*
G75*
G02*
X4290956Y23368828I-56215J56215D01*
G01*
X4148828Y23510956D01*
G75*
G02*
X4148828Y23623386I56215J56215D01*
G01*
X4261258Y23735816D01*
G75*
G02*
X4373688Y23735816I56215J-56215D01*
G01*
G37*
G36*
G01*
X4861592Y24223720D02*
X5003720Y24081592D01*
G75*
G02*
X5003720Y23969162I-56215J-56215D01*
G01*
X4891290Y23856732D01*
G75*
G02*
X4778860Y23856732I-56215J56215D01*
G01*
X4636732Y23998860D01*
G75*
G02*
X4636732Y24111290I56215J56215D01*
G01*
X4749162Y24223720D01*
G75*
G02*
X4861592Y24223720I56215J-56215D01*
G01*
G37*
G36*
G01*
X6600000Y32650000D02*
X6260000Y32650000D01*
G75*
G02*
X6120000Y32790000I0J140000D01*
G01*
X6120000Y33070000D01*
G75*
G02*
X6260000Y33210000I140000J0D01*
G01*
X6600000Y33210000D01*
G75*
G02*
X6740000Y33070000I0J-140000D01*
G01*
X6740000Y32790000D01*
G75*
G02*
X6600000Y32650000I-140000J0D01*
G01*
G37*
G36*
G01*
X6600000Y31690000D02*
X6260000Y31690000D01*
G75*
G02*
X6120000Y31830000I0J140000D01*
G01*
X6120000Y32110000D01*
G75*
G02*
X6260000Y32250000I140000J0D01*
G01*
X6600000Y32250000D01*
G75*
G02*
X6740000Y32110000I0J-140000D01*
G01*
X6740000Y31830000D01*
G75*
G02*
X6600000Y31690000I-140000J0D01*
G01*
G37*
G36*
G01*
X4680000Y32650000D02*
X4340000Y32650000D01*
G75*
G02*
X4200000Y32790000I0J140000D01*
G01*
X4200000Y33070000D01*
G75*
G02*
X4340000Y33210000I140000J0D01*
G01*
X4680000Y33210000D01*
G75*
G02*
X4820000Y33070000I0J-140000D01*
G01*
X4820000Y32790000D01*
G75*
G02*
X4680000Y32650000I-140000J0D01*
G01*
G37*
G36*
G01*
X4680000Y31690000D02*
X4340000Y31690000D01*
G75*
G02*
X4200000Y31830000I0J140000D01*
G01*
X4200000Y32110000D01*
G75*
G02*
X4340000Y32250000I140000J0D01*
G01*
X4680000Y32250000D01*
G75*
G02*
X4820000Y32110000I0J-140000D01*
G01*
X4820000Y31830000D01*
G75*
G02*
X4680000Y31690000I-140000J0D01*
G01*
G37*
G36*
G01*
X14284000Y30310500D02*
X14284000Y30109500D01*
G75*
G02*
X14204500Y30030000I-79500J0D01*
G01*
X14045500Y30030000D01*
G75*
G02*
X13966000Y30109500I0J79500D01*
G01*
X13966000Y30310500D01*
G75*
G02*
X14045500Y30390000I79500J0D01*
G01*
X14204500Y30390000D01*
G75*
G02*
X14284000Y30310500I0J-79500D01*
G01*
G37*
G36*
G01*
X14974000Y30310500D02*
X14974000Y30109500D01*
G75*
G02*
X14894500Y30030000I-79500J0D01*
G01*
X14735500Y30030000D01*
G75*
G02*
X14656000Y30109500I0J79500D01*
G01*
X14656000Y30310500D01*
G75*
G02*
X14735500Y30390000I79500J0D01*
G01*
X14894500Y30390000D01*
G75*
G02*
X14974000Y30310500I0J-79500D01*
G01*
G37*
G36*
G01*
X14284000Y29610500D02*
X14284000Y29409500D01*
G75*
G02*
X14204500Y29330000I-79500J0D01*
G01*
X14045500Y29330000D01*
G75*
G02*
X13966000Y29409500I0J79500D01*
G01*
X13966000Y29610500D01*
G75*
G02*
X14045500Y29690000I79500J0D01*
G01*
X14204500Y29690000D01*
G75*
G02*
X14284000Y29610500I0J-79500D01*
G01*
G37*
G36*
G01*
X14974000Y29610500D02*
X14974000Y29409500D01*
G75*
G02*
X14894500Y29330000I-79500J0D01*
G01*
X14735500Y29330000D01*
G75*
G02*
X14656000Y29409500I0J79500D01*
G01*
X14656000Y29610500D01*
G75*
G02*
X14735500Y29690000I79500J0D01*
G01*
X14894500Y29690000D01*
G75*
G02*
X14974000Y29610500I0J-79500D01*
G01*
G37*
G36*
G01*
X3883462Y15655590D02*
X4025590Y15513462D01*
G75*
G02*
X4025590Y15401032I-56215J-56215D01*
G01*
X3913160Y15288602D01*
G75*
G02*
X3800730Y15288602I-56215J56215D01*
G01*
X3658602Y15430730D01*
G75*
G02*
X3658602Y15543160I56215J56215D01*
G01*
X3771032Y15655590D01*
G75*
G02*
X3883462Y15655590I56215J-56215D01*
G01*
G37*
G36*
G01*
X4371366Y16143494D02*
X4513494Y16001366D01*
G75*
G02*
X4513494Y15888936I-56215J-56215D01*
G01*
X4401064Y15776506D01*
G75*
G02*
X4288634Y15776506I-56215J56215D01*
G01*
X4146506Y15918634D01*
G75*
G02*
X4146506Y16031064I56215J56215D01*
G01*
X4258936Y16143494D01*
G75*
G02*
X4371366Y16143494I56215J-56215D01*
G01*
G37*
G36*
G01*
X13070500Y32846000D02*
X12869500Y32846000D01*
G75*
G02*
X12790000Y32925500I0J79500D01*
G01*
X12790000Y33084500D01*
G75*
G02*
X12869500Y33164000I79500J0D01*
G01*
X13070500Y33164000D01*
G75*
G02*
X13150000Y33084500I0J-79500D01*
G01*
X13150000Y32925500D01*
G75*
G02*
X13070500Y32846000I-79500J0D01*
G01*
G37*
G36*
G01*
X13070500Y32156000D02*
X12869500Y32156000D01*
G75*
G02*
X12790000Y32235500I0J79500D01*
G01*
X12790000Y32394500D01*
G75*
G02*
X12869500Y32474000I79500J0D01*
G01*
X13070500Y32474000D01*
G75*
G02*
X13150000Y32394500I0J-79500D01*
G01*
X13150000Y32235500D01*
G75*
G02*
X13070500Y32156000I-79500J0D01*
G01*
G37*
G36*
G01*
X9609500Y28684000D02*
X9810500Y28684000D01*
G75*
G02*
X9890000Y28604500I0J-79500D01*
G01*
X9890000Y28445500D01*
G75*
G02*
X9810500Y28366000I-79500J0D01*
G01*
X9609500Y28366000D01*
G75*
G02*
X9530000Y28445500I0J79500D01*
G01*
X9530000Y28604500D01*
G75*
G02*
X9609500Y28684000I79500J0D01*
G01*
G37*
G36*
G01*
X9609500Y29374000D02*
X9810500Y29374000D01*
G75*
G02*
X9890000Y29294500I0J-79500D01*
G01*
X9890000Y29135500D01*
G75*
G02*
X9810500Y29056000I-79500J0D01*
G01*
X9609500Y29056000D01*
G75*
G02*
X9530000Y29135500I0J79500D01*
G01*
X9530000Y29294500D01*
G75*
G02*
X9609500Y29374000I79500J0D01*
G01*
G37*
G36*
G01*
X5189542Y18902586D02*
X5047414Y18760458D01*
G75*
G02*
X4934984Y18760458I-56215J56215D01*
G01*
X4822554Y18872888D01*
G75*
G02*
X4822554Y18985318I56215J56215D01*
G01*
X4964682Y19127446D01*
G75*
G02*
X5077112Y19127446I56215J-56215D01*
G01*
X5189542Y19015016D01*
G75*
G02*
X5189542Y18902586I-56215J-56215D01*
G01*
G37*
G36*
G01*
X5677446Y18414682D02*
X5535318Y18272554D01*
G75*
G02*
X5422888Y18272554I-56215J56215D01*
G01*
X5310458Y18384984D01*
G75*
G02*
X5310458Y18497414I56215J56215D01*
G01*
X5452586Y18639542D01*
G75*
G02*
X5565016Y18639542I56215J-56215D01*
G01*
X5677446Y18527112D01*
G75*
G02*
X5677446Y18414682I-56215J-56215D01*
G01*
G37*
G36*
G01*
X12399542Y7452586D02*
X12257414Y7310458D01*
G75*
G02*
X12144984Y7310458I-56215J56215D01*
G01*
X12032554Y7422888D01*
G75*
G02*
X12032554Y7535318I56215J56215D01*
G01*
X12174682Y7677446D01*
G75*
G02*
X12287112Y7677446I56215J-56215D01*
G01*
X12399542Y7565016D01*
G75*
G02*
X12399542Y7452586I-56215J-56215D01*
G01*
G37*
G36*
G01*
X12887446Y6964682D02*
X12745318Y6822554D01*
G75*
G02*
X12632888Y6822554I-56215J56215D01*
G01*
X12520458Y6934984D01*
G75*
G02*
X12520458Y7047414I56215J56215D01*
G01*
X12662586Y7189542D01*
G75*
G02*
X12775016Y7189542I56215J-56215D01*
G01*
X12887446Y7077112D01*
G75*
G02*
X12887446Y6964682I-56215J-56215D01*
G01*
G37*
G36*
G01*
X12899542Y7952586D02*
X12757414Y7810458D01*
G75*
G02*
X12644984Y7810458I-56215J56215D01*
G01*
X12532554Y7922888D01*
G75*
G02*
X12532554Y8035318I56215J56215D01*
G01*
X12674682Y8177446D01*
G75*
G02*
X12787112Y8177446I56215J-56215D01*
G01*
X12899542Y8065016D01*
G75*
G02*
X12899542Y7952586I-56215J-56215D01*
G01*
G37*
G36*
G01*
X13387446Y7464682D02*
X13245318Y7322554D01*
G75*
G02*
X13132888Y7322554I-56215J56215D01*
G01*
X13020458Y7434984D01*
G75*
G02*
X13020458Y7547414I56215J56215D01*
G01*
X13162586Y7689542D01*
G75*
G02*
X13275016Y7689542I56215J-56215D01*
G01*
X13387446Y7577112D01*
G75*
G02*
X13387446Y7464682I-56215J-56215D01*
G01*
G37*
G36*
G01*
X3130500Y6451000D02*
X2929500Y6451000D01*
G75*
G02*
X2850000Y6530500I0J79500D01*
G01*
X2850000Y6689500D01*
G75*
G02*
X2929500Y6769000I79500J0D01*
G01*
X3130500Y6769000D01*
G75*
G02*
X3210000Y6689500I0J-79500D01*
G01*
X3210000Y6530500D01*
G75*
G02*
X3130500Y6451000I-79500J0D01*
G01*
G37*
G36*
G01*
X3130500Y5761000D02*
X2929500Y5761000D01*
G75*
G02*
X2850000Y5840500I0J79500D01*
G01*
X2850000Y5999500D01*
G75*
G02*
X2929500Y6079000I79500J0D01*
G01*
X3130500Y6079000D01*
G75*
G02*
X3210000Y5999500I0J-79500D01*
G01*
X3210000Y5840500D01*
G75*
G02*
X3130500Y5761000I-79500J0D01*
G01*
G37*
G36*
G01*
X11940500Y30756000D02*
X11739500Y30756000D01*
G75*
G02*
X11660000Y30835500I0J79500D01*
G01*
X11660000Y30994500D01*
G75*
G02*
X11739500Y31074000I79500J0D01*
G01*
X11940500Y31074000D01*
G75*
G02*
X12020000Y30994500I0J-79500D01*
G01*
X12020000Y30835500D01*
G75*
G02*
X11940500Y30756000I-79500J0D01*
G01*
G37*
G36*
G01*
X11940500Y30066000D02*
X11739500Y30066000D01*
G75*
G02*
X11660000Y30145500I0J79500D01*
G01*
X11660000Y30304500D01*
G75*
G02*
X11739500Y30384000I79500J0D01*
G01*
X11940500Y30384000D01*
G75*
G02*
X12020000Y30304500I0J-79500D01*
G01*
X12020000Y30145500D01*
G75*
G02*
X11940500Y30066000I-79500J0D01*
G01*
G37*
G36*
G01*
X13878860Y12936732D02*
X13736732Y13078860D01*
G75*
G02*
X13736732Y13191290I56215J56215D01*
G01*
X13849162Y13303720D01*
G75*
G02*
X13961592Y13303720I56215J-56215D01*
G01*
X14103720Y13161592D01*
G75*
G02*
X14103720Y13049162I-56215J-56215D01*
G01*
X13991290Y12936732D01*
G75*
G02*
X13878860Y12936732I-56215J56215D01*
G01*
G37*
G36*
G01*
X13390956Y12448828D02*
X13248828Y12590956D01*
G75*
G02*
X13248828Y12703386I56215J56215D01*
G01*
X13361258Y12815816D01*
G75*
G02*
X13473688Y12815816I56215J-56215D01*
G01*
X13615816Y12673688D01*
G75*
G02*
X13615816Y12561258I-56215J-56215D01*
G01*
X13503386Y12448828D01*
G75*
G02*
X13390956Y12448828I-56215J56215D01*
G01*
G37*
G36*
G01*
X13378860Y13436732D02*
X13236732Y13578860D01*
G75*
G02*
X13236732Y13691290I56215J56215D01*
G01*
X13349162Y13803720D01*
G75*
G02*
X13461592Y13803720I56215J-56215D01*
G01*
X13603720Y13661592D01*
G75*
G02*
X13603720Y13549162I-56215J-56215D01*
G01*
X13491290Y13436732D01*
G75*
G02*
X13378860Y13436732I-56215J56215D01*
G01*
G37*
G36*
G01*
X12890956Y12948828D02*
X12748828Y13090956D01*
G75*
G02*
X12748828Y13203386I56215J56215D01*
G01*
X12861258Y13315816D01*
G75*
G02*
X12973688Y13315816I56215J-56215D01*
G01*
X13115816Y13173688D01*
G75*
G02*
X13115816Y13061258I-56215J-56215D01*
G01*
X13003386Y12948828D01*
G75*
G02*
X12890956Y12948828I-56215J56215D01*
G01*
G37*
G36*
G01*
X14299500Y8674000D02*
X14500500Y8674000D01*
G75*
G02*
X14580000Y8594500I0J-79500D01*
G01*
X14580000Y8435500D01*
G75*
G02*
X14500500Y8356000I-79500J0D01*
G01*
X14299500Y8356000D01*
G75*
G02*
X14220000Y8435500I0J79500D01*
G01*
X14220000Y8594500D01*
G75*
G02*
X14299500Y8674000I79500J0D01*
G01*
G37*
G36*
G01*
X14299500Y9364000D02*
X14500500Y9364000D01*
G75*
G02*
X14580000Y9284500I0J-79500D01*
G01*
X14580000Y9125500D01*
G75*
G02*
X14500500Y9046000I-79500J0D01*
G01*
X14299500Y9046000D01*
G75*
G02*
X14220000Y9125500I0J79500D01*
G01*
X14220000Y9284500D01*
G75*
G02*
X14299500Y9364000I79500J0D01*
G01*
G37*
G36*
G01*
X14840500Y21776000D02*
X14639500Y21776000D01*
G75*
G02*
X14560000Y21855500I0J79500D01*
G01*
X14560000Y22014500D01*
G75*
G02*
X14639500Y22094000I79500J0D01*
G01*
X14840500Y22094000D01*
G75*
G02*
X14920000Y22014500I0J-79500D01*
G01*
X14920000Y21855500D01*
G75*
G02*
X14840500Y21776000I-79500J0D01*
G01*
G37*
G36*
G01*
X14840500Y21086000D02*
X14639500Y21086000D01*
G75*
G02*
X14560000Y21165500I0J79500D01*
G01*
X14560000Y21324500D01*
G75*
G02*
X14639500Y21404000I79500J0D01*
G01*
X14840500Y21404000D01*
G75*
G02*
X14920000Y21324500I0J-79500D01*
G01*
X14920000Y21165500D01*
G75*
G02*
X14840500Y21086000I-79500J0D01*
G01*
G37*
G36*
G01*
X4276538Y24364410D02*
X4134410Y24506538D01*
G75*
G02*
X4134410Y24618968I56215J56215D01*
G01*
X4246840Y24731398D01*
G75*
G02*
X4359270Y24731398I56215J-56215D01*
G01*
X4501398Y24589270D01*
G75*
G02*
X4501398Y24476840I-56215J-56215D01*
G01*
X4388968Y24364410D01*
G75*
G02*
X4276538Y24364410I-56215J56215D01*
G01*
G37*
G36*
G01*
X3788634Y23876506D02*
X3646506Y24018634D01*
G75*
G02*
X3646506Y24131064I56215J56215D01*
G01*
X3758936Y24243494D01*
G75*
G02*
X3871366Y24243494I56215J-56215D01*
G01*
X4013494Y24101366D01*
G75*
G02*
X4013494Y23988936I-56215J-56215D01*
G01*
X3901064Y23876506D01*
G75*
G02*
X3788634Y23876506I-56215J56215D01*
G01*
G37*
G36*
G01*
X4689542Y18402586D02*
X4547414Y18260458D01*
G75*
G02*
X4434984Y18260458I-56215J56215D01*
G01*
X4322554Y18372888D01*
G75*
G02*
X4322554Y18485318I56215J56215D01*
G01*
X4464682Y18627446D01*
G75*
G02*
X4577112Y18627446I56215J-56215D01*
G01*
X4689542Y18515016D01*
G75*
G02*
X4689542Y18402586I-56215J-56215D01*
G01*
G37*
G36*
G01*
X5177446Y17914682D02*
X5035318Y17772554D01*
G75*
G02*
X4922888Y17772554I-56215J56215D01*
G01*
X4810458Y17884984D01*
G75*
G02*
X4810458Y17997414I56215J56215D01*
G01*
X4952586Y18139542D01*
G75*
G02*
X5065016Y18139542I56215J-56215D01*
G01*
X5177446Y18027112D01*
G75*
G02*
X5177446Y17914682I-56215J-56215D01*
G01*
G37*
G36*
G01*
X3758371Y19098787D02*
X3998787Y18858371D01*
G75*
G02*
X3998787Y18660381I-98995J-98995D01*
G01*
X3800797Y18462391D01*
G75*
G02*
X3602807Y18462391I-98995J98995D01*
G01*
X3362391Y18702807D01*
G75*
G02*
X3362391Y18900797I98995J98995D01*
G01*
X3560381Y19098787D01*
G75*
G02*
X3758371Y19098787I98995J-98995D01*
G01*
G37*
G36*
G01*
X4437193Y19777609D02*
X4677609Y19537193D01*
G75*
G02*
X4677609Y19339203I-98995J-98995D01*
G01*
X4479619Y19141213D01*
G75*
G02*
X4281629Y19141213I-98995J98995D01*
G01*
X4041213Y19381629D01*
G75*
G02*
X4041213Y19579619I98995J98995D01*
G01*
X4239203Y19777609D01*
G75*
G02*
X4437193Y19777609I98995J-98995D01*
G01*
G37*
G36*
G01*
X3397414Y19789542D02*
X3539542Y19647414D01*
G75*
G02*
X3539542Y19534984I-56215J-56215D01*
G01*
X3427112Y19422554D01*
G75*
G02*
X3314682Y19422554I-56215J56215D01*
G01*
X3172554Y19564682D01*
G75*
G02*
X3172554Y19677112I56215J56215D01*
G01*
X3284984Y19789542D01*
G75*
G02*
X3397414Y19789542I56215J-56215D01*
G01*
G37*
G36*
G01*
X3885318Y20277446D02*
X4027446Y20135318D01*
G75*
G02*
X4027446Y20022888I-56215J-56215D01*
G01*
X3915016Y19910458D01*
G75*
G02*
X3802586Y19910458I-56215J56215D01*
G01*
X3660458Y20052586D01*
G75*
G02*
X3660458Y20165016I56215J56215D01*
G01*
X3772888Y20277446D01*
G75*
G02*
X3885318Y20277446I56215J-56215D01*
G01*
G37*
G36*
G01*
X14862586Y23780458D02*
X14720458Y23922586D01*
G75*
G02*
X14720458Y24035016I56215J56215D01*
G01*
X14832888Y24147446D01*
G75*
G02*
X14945318Y24147446I56215J-56215D01*
G01*
X15087446Y24005318D01*
G75*
G02*
X15087446Y23892888I-56215J-56215D01*
G01*
X14975016Y23780458D01*
G75*
G02*
X14862586Y23780458I-56215J56215D01*
G01*
G37*
G36*
G01*
X14374682Y23292554D02*
X14232554Y23434682D01*
G75*
G02*
X14232554Y23547112I56215J56215D01*
G01*
X14344984Y23659542D01*
G75*
G02*
X14457414Y23659542I56215J-56215D01*
G01*
X14599542Y23517414D01*
G75*
G02*
X14599542Y23404984I-56215J-56215D01*
G01*
X14487112Y23292554D01*
G75*
G02*
X14374682Y23292554I-56215J56215D01*
G01*
G37*
G36*
G01*
X14362586Y24280458D02*
X14220458Y24422586D01*
G75*
G02*
X14220458Y24535016I56215J56215D01*
G01*
X14332888Y24647446D01*
G75*
G02*
X14445318Y24647446I56215J-56215D01*
G01*
X14587446Y24505318D01*
G75*
G02*
X14587446Y24392888I-56215J-56215D01*
G01*
X14475016Y24280458D01*
G75*
G02*
X14362586Y24280458I-56215J56215D01*
G01*
G37*
G36*
G01*
X13874682Y23792554D02*
X13732554Y23934682D01*
G75*
G02*
X13732554Y24047112I56215J56215D01*
G01*
X13844984Y24159542D01*
G75*
G02*
X13957414Y24159542I56215J-56215D01*
G01*
X14099542Y24017414D01*
G75*
G02*
X14099542Y23904984I-56215J-56215D01*
G01*
X13987112Y23792554D01*
G75*
G02*
X13874682Y23792554I-56215J56215D01*
G01*
G37*
G36*
G01*
X13872586Y24780458D02*
X13730458Y24922586D01*
G75*
G02*
X13730458Y25035016I56215J56215D01*
G01*
X13842888Y25147446D01*
G75*
G02*
X13955318Y25147446I56215J-56215D01*
G01*
X14097446Y25005318D01*
G75*
G02*
X14097446Y24892888I-56215J-56215D01*
G01*
X13985016Y24780458D01*
G75*
G02*
X13872586Y24780458I-56215J56215D01*
G01*
G37*
G36*
G01*
X13384682Y24292554D02*
X13242554Y24434682D01*
G75*
G02*
X13242554Y24547112I56215J56215D01*
G01*
X13354984Y24659542D01*
G75*
G02*
X13467414Y24659542I56215J-56215D01*
G01*
X13609542Y24517414D01*
G75*
G02*
X13609542Y24404984I-56215J-56215D01*
G01*
X13497112Y24292554D01*
G75*
G02*
X13384682Y24292554I-56215J56215D01*
G01*
G37*
G36*
G01*
X14940500Y28636000D02*
X14739500Y28636000D01*
G75*
G02*
X14660000Y28715500I0J79500D01*
G01*
X14660000Y28874500D01*
G75*
G02*
X14739500Y28954000I79500J0D01*
G01*
X14940500Y28954000D01*
G75*
G02*
X15020000Y28874500I0J-79500D01*
G01*
X15020000Y28715500D01*
G75*
G02*
X14940500Y28636000I-79500J0D01*
G01*
G37*
G36*
G01*
X14940500Y27946000D02*
X14739500Y27946000D01*
G75*
G02*
X14660000Y28025500I0J79500D01*
G01*
X14660000Y28184500D01*
G75*
G02*
X14739500Y28264000I79500J0D01*
G01*
X14940500Y28264000D01*
G75*
G02*
X15020000Y28184500I0J-79500D01*
G01*
X15020000Y28025500D01*
G75*
G02*
X14940500Y27946000I-79500J0D01*
G01*
G37*
G36*
G01*
X11230500Y30756000D02*
X11029500Y30756000D01*
G75*
G02*
X10950000Y30835500I0J79500D01*
G01*
X10950000Y30994500D01*
G75*
G02*
X11029500Y31074000I79500J0D01*
G01*
X11230500Y31074000D01*
G75*
G02*
X11310000Y30994500I0J-79500D01*
G01*
X11310000Y30835500D01*
G75*
G02*
X11230500Y30756000I-79500J0D01*
G01*
G37*
G36*
G01*
X11230500Y30066000D02*
X11029500Y30066000D01*
G75*
G02*
X10950000Y30145500I0J79500D01*
G01*
X10950000Y30304500D01*
G75*
G02*
X11029500Y30384000I79500J0D01*
G01*
X11230500Y30384000D01*
G75*
G02*
X11310000Y30304500I0J-79500D01*
G01*
X11310000Y30145500D01*
G75*
G02*
X11230500Y30066000I-79500J0D01*
G01*
G37*
G36*
G01*
X14284000Y31710500D02*
X14284000Y31509500D01*
G75*
G02*
X14204500Y31430000I-79500J0D01*
G01*
X14045500Y31430000D01*
G75*
G02*
X13966000Y31509500I0J79500D01*
G01*
X13966000Y31710500D01*
G75*
G02*
X14045500Y31790000I79500J0D01*
G01*
X14204500Y31790000D01*
G75*
G02*
X14284000Y31710500I0J-79500D01*
G01*
G37*
G36*
G01*
X14974000Y31710500D02*
X14974000Y31509500D01*
G75*
G02*
X14894500Y31430000I-79500J0D01*
G01*
X14735500Y31430000D01*
G75*
G02*
X14656000Y31509500I0J79500D01*
G01*
X14656000Y31710500D01*
G75*
G02*
X14735500Y31790000I79500J0D01*
G01*
X14894500Y31790000D01*
G75*
G02*
X14974000Y31710500I0J-79500D01*
G01*
G37*
G36*
G01*
X3415840Y2394576D02*
X3175424Y2154160D01*
G75*
G02*
X2977434Y2154160I-98995J98995D01*
G01*
X2779444Y2352150D01*
G75*
G02*
X2779444Y2550140I98995J98995D01*
G01*
X3019860Y2790556D01*
G75*
G02*
X3217850Y2790556I98995J-98995D01*
G01*
X3415840Y2592566D01*
G75*
G02*
X3415840Y2394576I-98995J-98995D01*
G01*
G37*
G36*
G01*
X4094662Y1715754D02*
X3854246Y1475338D01*
G75*
G02*
X3656256Y1475338I-98995J98995D01*
G01*
X3458266Y1673328D01*
G75*
G02*
X3458266Y1871318I98995J98995D01*
G01*
X3698682Y2111734D01*
G75*
G02*
X3896672Y2111734I98995J-98995D01*
G01*
X4094662Y1913744D01*
G75*
G02*
X4094662Y1715754I-98995J-98995D01*
G01*
G37*
G36*
G01*
X14964000Y32410500D02*
X14964000Y32209500D01*
G75*
G02*
X14884500Y32130000I-79500J0D01*
G01*
X14725500Y32130000D01*
G75*
G02*
X14646000Y32209500I0J79500D01*
G01*
X14646000Y32410500D01*
G75*
G02*
X14725500Y32490000I79500J0D01*
G01*
X14884500Y32490000D01*
G75*
G02*
X14964000Y32410500I0J-79500D01*
G01*
G37*
G36*
G01*
X14274000Y32410500D02*
X14274000Y32209500D01*
G75*
G02*
X14194500Y32130000I-79500J0D01*
G01*
X14035500Y32130000D01*
G75*
G02*
X13956000Y32209500I0J79500D01*
G01*
X13956000Y32410500D01*
G75*
G02*
X14035500Y32490000I79500J0D01*
G01*
X14194500Y32490000D01*
G75*
G02*
X14274000Y32410500I0J-79500D01*
G01*
G37*
G36*
G01*
X12650500Y30756000D02*
X12449500Y30756000D01*
G75*
G02*
X12370000Y30835500I0J79500D01*
G01*
X12370000Y30994500D01*
G75*
G02*
X12449500Y31074000I79500J0D01*
G01*
X12650500Y31074000D01*
G75*
G02*
X12730000Y30994500I0J-79500D01*
G01*
X12730000Y30835500D01*
G75*
G02*
X12650500Y30756000I-79500J0D01*
G01*
G37*
G36*
G01*
X12650500Y30066000D02*
X12449500Y30066000D01*
G75*
G02*
X12370000Y30145500I0J79500D01*
G01*
X12370000Y30304500D01*
G75*
G02*
X12449500Y30384000I79500J0D01*
G01*
X12650500Y30384000D01*
G75*
G02*
X12730000Y30304500I0J-79500D01*
G01*
X12730000Y30145500D01*
G75*
G02*
X12650500Y30066000I-79500J0D01*
G01*
G37*
G36*
G01*
X13966000Y32909500D02*
X13966000Y33110500D01*
G75*
G02*
X14045500Y33190000I79500J0D01*
G01*
X14204500Y33190000D01*
G75*
G02*
X14284000Y33110500I0J-79500D01*
G01*
X14284000Y32909500D01*
G75*
G02*
X14204500Y32830000I-79500J0D01*
G01*
X14045500Y32830000D01*
G75*
G02*
X13966000Y32909500I0J79500D01*
G01*
G37*
G36*
G01*
X14656000Y32909500D02*
X14656000Y33110500D01*
G75*
G02*
X14735500Y33190000I79500J0D01*
G01*
X14894500Y33190000D01*
G75*
G02*
X14974000Y33110500I0J-79500D01*
G01*
X14974000Y32909500D01*
G75*
G02*
X14894500Y32830000I-79500J0D01*
G01*
X14735500Y32830000D01*
G75*
G02*
X14656000Y32909500I0J79500D01*
G01*
G37*
G36*
G01*
X14730458Y25017414D02*
X14872586Y25159542D01*
G75*
G02*
X14985016Y25159542I56215J-56215D01*
G01*
X15097446Y25047112D01*
G75*
G02*
X15097446Y24934682I-56215J-56215D01*
G01*
X14955318Y24792554D01*
G75*
G02*
X14842888Y24792554I-56215J56215D01*
G01*
X14730458Y24904984D01*
G75*
G02*
X14730458Y25017414I56215J56215D01*
G01*
G37*
G36*
G01*
X14242554Y25505318D02*
X14384682Y25647446D01*
G75*
G02*
X14497112Y25647446I56215J-56215D01*
G01*
X14609542Y25535016D01*
G75*
G02*
X14609542Y25422586I-56215J-56215D01*
G01*
X14467414Y25280458D01*
G75*
G02*
X14354984Y25280458I-56215J56215D01*
G01*
X14242554Y25392888D01*
G75*
G02*
X14242554Y25505318I56215J56215D01*
G01*
G37*
G36*
G01*
X13516732Y8041140D02*
X13658860Y8183268D01*
G75*
G02*
X13771290Y8183268I56215J-56215D01*
G01*
X13883720Y8070838D01*
G75*
G02*
X13883720Y7958408I-56215J-56215D01*
G01*
X13741592Y7816280D01*
G75*
G02*
X13629162Y7816280I-56215J56215D01*
G01*
X13516732Y7928710D01*
G75*
G02*
X13516732Y8041140I56215J56215D01*
G01*
G37*
G36*
G01*
X13028828Y8529044D02*
X13170956Y8671172D01*
G75*
G02*
X13283386Y8671172I56215J-56215D01*
G01*
X13395816Y8558742D01*
G75*
G02*
X13395816Y8446312I-56215J-56215D01*
G01*
X13253688Y8304184D01*
G75*
G02*
X13141258Y8304184I-56215J56215D01*
G01*
X13028828Y8416614D01*
G75*
G02*
X13028828Y8529044I56215J56215D01*
G01*
G37*
G36*
G01*
X11354184Y5913688D02*
X11496312Y6055816D01*
G75*
G02*
X11608742Y6055816I56215J-56215D01*
G01*
X11721172Y5943386D01*
G75*
G02*
X11721172Y5830956I-56215J-56215D01*
G01*
X11579044Y5688828D01*
G75*
G02*
X11466614Y5688828I-56215J56215D01*
G01*
X11354184Y5801258D01*
G75*
G02*
X11354184Y5913688I56215J56215D01*
G01*
G37*
G36*
G01*
X10866280Y6401592D02*
X11008408Y6543720D01*
G75*
G02*
X11120838Y6543720I56215J-56215D01*
G01*
X11233268Y6431290D01*
G75*
G02*
X11233268Y6318860I-56215J-56215D01*
G01*
X11091140Y6176732D01*
G75*
G02*
X10978710Y6176732I-56215J56215D01*
G01*
X10866280Y6289162D01*
G75*
G02*
X10866280Y6401592I56215J56215D01*
G01*
G37*
G36*
G01*
X11372391Y6947193D02*
X11612807Y7187609D01*
G75*
G02*
X11810797Y7187609I98995J-98995D01*
G01*
X12008787Y6989619D01*
G75*
G02*
X12008787Y6791629I-98995J-98995D01*
G01*
X11768371Y6551213D01*
G75*
G02*
X11570381Y6551213I-98995J98995D01*
G01*
X11372391Y6749203D01*
G75*
G02*
X11372391Y6947193I98995J98995D01*
G01*
G37*
G36*
G01*
X12051213Y6268371D02*
X12291629Y6508787D01*
G75*
G02*
X12489619Y6508787I98995J-98995D01*
G01*
X12687609Y6310797D01*
G75*
G02*
X12687609Y6112807I-98995J-98995D01*
G01*
X12447193Y5872391D01*
G75*
G02*
X12249203Y5872391I-98995J98995D01*
G01*
X12051213Y6070381D01*
G75*
G02*
X12051213Y6268371I98995J98995D01*
G01*
G37*
G36*
G01*
X2949500Y21404000D02*
X3150500Y21404000D01*
G75*
G02*
X3230000Y21324500I0J-79500D01*
G01*
X3230000Y21165500D01*
G75*
G02*
X3150500Y21086000I-79500J0D01*
G01*
X2949500Y21086000D01*
G75*
G02*
X2870000Y21165500I0J79500D01*
G01*
X2870000Y21324500D01*
G75*
G02*
X2949500Y21404000I79500J0D01*
G01*
G37*
G36*
G01*
X2949500Y22094000D02*
X3150500Y22094000D01*
G75*
G02*
X3230000Y22014500I0J-79500D01*
G01*
X3230000Y21855500D01*
G75*
G02*
X3150500Y21776000I-79500J0D01*
G01*
X2949500Y21776000D01*
G75*
G02*
X2870000Y21855500I0J79500D01*
G01*
X2870000Y22014500D01*
G75*
G02*
X2949500Y22094000I79500J0D01*
G01*
G37*
M02*
