G04 #@! TF.GenerationSoftware,KiCad,Pcbnew,5.1.9-1.fc33*
G04 #@! TF.CreationDate,2020-12-31T00:18:28+01:00*
G04 #@! TF.ProjectId,reDIP-sx,72654449-502d-4737-982e-6b696361645f,0.1*
G04 #@! TF.SameCoordinates,PX5e28010PY8011a50*
G04 #@! TF.FileFunction,Other,Fab,Bot*
%FSLAX46Y46*%
G04 Gerber Fmt 4.6, Leading zero omitted, Abs format (unit mm)*
G04 Created by KiCad (PCBNEW 5.1.9-1.fc33) date 2020-12-31 00:18:28*
%MOMM*%
%LPD*%
G01*
G04 APERTURE LIST*
%ADD10C,0.100000*%
%ADD11C,0.120000*%
%ADD12C,0.150000*%
%ADD13C,0.040000*%
G04 APERTURE END LIST*
D10*
X2540000Y40005000D02*
X1905000Y40640000D01*
X2540000Y25400000D02*
X2540000Y40005000D01*
X0Y25400000D02*
X2540000Y25400000D01*
X0Y40640000D02*
X0Y25400000D01*
X1905000Y40640000D02*
X0Y40640000D01*
D11*
X14540000Y21860000D02*
X3240000Y21860000D01*
X13440000Y17460000D02*
X14540000Y18560000D01*
X3240000Y17460000D02*
X13440000Y17460000D01*
X3240000Y21860000D02*
X3240000Y17460000D01*
X14540000Y18560000D02*
X14540000Y21860000D01*
D10*
X4790000Y32955000D02*
X4250000Y32955000D01*
X4250000Y32955000D02*
X4250000Y31905000D01*
X4250000Y31905000D02*
X4790000Y31905000D01*
X4790000Y31905000D02*
X4790000Y32955000D01*
X17780000Y40005000D02*
X17145000Y40640000D01*
X17780000Y25400000D02*
X17780000Y40005000D01*
X15240000Y25400000D02*
X17780000Y25400000D01*
X15240000Y40640000D02*
X15240000Y25400000D01*
X17145000Y40640000D02*
X15240000Y40640000D01*
X17780000Y24765000D02*
X17145000Y25400000D01*
X17780000Y0D02*
X17780000Y24765000D01*
X15240000Y0D02*
X17780000Y0D01*
X15240000Y25400000D02*
X15240000Y0D01*
X17145000Y25400000D02*
X15240000Y25400000D01*
X2540000Y24765000D02*
X1905000Y25400000D01*
X2540000Y0D02*
X2540000Y24765000D01*
X0Y0D02*
X2540000Y0D01*
X0Y25400000D02*
X0Y0D01*
X1905000Y25400000D02*
X0Y25400000D01*
X6468159Y9647017D02*
X8536447Y7578730D01*
X8536447Y7578730D02*
X12001270Y11043553D01*
X12001270Y11043553D02*
X9243553Y13801270D01*
X9243553Y13801270D02*
X6468159Y11025876D01*
X6468159Y11025876D02*
X6468159Y9647017D01*
D12*
X722380Y33353334D02*
X1436666Y33353334D01*
X1579523Y33400953D01*
X1674761Y33496191D01*
X1722380Y33639048D01*
X1722380Y33734286D01*
X722380Y32448572D02*
X722380Y32639048D01*
X770000Y32734286D01*
X817619Y32781905D01*
X960476Y32877143D01*
X1150952Y32924762D01*
X1531904Y32924762D01*
X1627142Y32877143D01*
X1674761Y32829524D01*
X1722380Y32734286D01*
X1722380Y32543810D01*
X1674761Y32448572D01*
X1627142Y32400953D01*
X1531904Y32353334D01*
X1293809Y32353334D01*
X1198571Y32400953D01*
X1150952Y32448572D01*
X1103333Y32543810D01*
X1103333Y32734286D01*
X1150952Y32829524D01*
X1198571Y32877143D01*
X1293809Y32924762D01*
X10128095Y20207620D02*
X10128095Y19398096D01*
X10080476Y19302858D01*
X10032857Y19255239D01*
X9937619Y19207620D01*
X9747142Y19207620D01*
X9651904Y19255239D01*
X9604285Y19302858D01*
X9556666Y19398096D01*
X9556666Y20207620D01*
X8556666Y19207620D02*
X9128095Y19207620D01*
X8842380Y19207620D02*
X8842380Y20207620D01*
X8937619Y20064762D01*
X9032857Y19969524D01*
X9128095Y19921905D01*
X7604285Y19207620D02*
X8175714Y19207620D01*
X7890000Y19207620D02*
X7890000Y20207620D01*
X7985238Y20064762D01*
X8080476Y19969524D01*
X8175714Y19921905D01*
D13*
X4377619Y32646667D02*
X4563333Y32646667D01*
X4600476Y32659048D01*
X4625238Y32683810D01*
X4637619Y32720953D01*
X4637619Y32745715D01*
X4637619Y32522858D02*
X4377619Y32522858D01*
X4377619Y32423810D01*
X4390000Y32399048D01*
X4402380Y32386667D01*
X4427142Y32374286D01*
X4464285Y32374286D01*
X4489047Y32386667D01*
X4501428Y32399048D01*
X4513809Y32423810D01*
X4513809Y32522858D01*
X4637619Y32126667D02*
X4637619Y32275239D01*
X4637619Y32200953D02*
X4377619Y32200953D01*
X4414761Y32225715D01*
X4439523Y32250477D01*
X4451904Y32275239D01*
D12*
X15962380Y33353334D02*
X16676666Y33353334D01*
X16819523Y33400953D01*
X16914761Y33496191D01*
X16962380Y33639048D01*
X16962380Y33734286D01*
X15962380Y32972381D02*
X15962380Y32305715D01*
X16962380Y32734286D01*
X17057619Y12366667D02*
X16343333Y12366667D01*
X16200476Y12319048D01*
X16105238Y12223810D01*
X16057619Y12080953D01*
X16057619Y11985715D01*
X16057619Y12890477D02*
X16057619Y13080953D01*
X16105238Y13176191D01*
X16152857Y13223810D01*
X16295714Y13319048D01*
X16486190Y13366667D01*
X16867142Y13366667D01*
X16962380Y13319048D01*
X17010000Y13271429D01*
X17057619Y13176191D01*
X17057619Y12985715D01*
X17010000Y12890477D01*
X16962380Y12842858D01*
X16867142Y12795239D01*
X16629047Y12795239D01*
X16533809Y12842858D01*
X16486190Y12890477D01*
X16438571Y12985715D01*
X16438571Y13176191D01*
X16486190Y13271429D01*
X16533809Y13319048D01*
X16629047Y13366667D01*
X722380Y13033334D02*
X1436666Y13033334D01*
X1579523Y13080953D01*
X1674761Y13176191D01*
X1722380Y13319048D01*
X1722380Y13414286D01*
X1150952Y12414286D02*
X1103333Y12509524D01*
X1055714Y12557143D01*
X960476Y12604762D01*
X912857Y12604762D01*
X817619Y12557143D01*
X770000Y12509524D01*
X722380Y12414286D01*
X722380Y12223810D01*
X770000Y12128572D01*
X817619Y12080953D01*
X912857Y12033334D01*
X960476Y12033334D01*
X1055714Y12080953D01*
X1103333Y12128572D01*
X1150952Y12223810D01*
X1150952Y12414286D01*
X1198571Y12509524D01*
X1246190Y12557143D01*
X1341428Y12604762D01*
X1531904Y12604762D01*
X1627142Y12557143D01*
X1674761Y12509524D01*
X1722380Y12414286D01*
X1722380Y12223810D01*
X1674761Y12128572D01*
X1627142Y12080953D01*
X1531904Y12033334D01*
X1341428Y12033334D01*
X1246190Y12080953D01*
X1198571Y12128572D01*
X1150952Y12223810D01*
X9797453Y10541508D02*
X9236482Y9980537D01*
X9137487Y9947538D01*
X9071490Y9947538D01*
X8972495Y9980537D01*
X8840502Y10112530D01*
X8807504Y10211525D01*
X8807504Y10277522D01*
X8840502Y10376516D01*
X9401473Y10937488D01*
X8345527Y10607505D02*
X8213534Y10739498D01*
X8180536Y10838493D01*
X8180536Y10904490D01*
X8213534Y11069481D01*
X8312529Y11234473D01*
X8576515Y11498459D01*
X8675510Y11531458D01*
X8741507Y11531458D01*
X8840502Y11498459D01*
X8972495Y11366466D01*
X9005494Y11267471D01*
X9005494Y11201474D01*
X8972495Y11102479D01*
X8807504Y10937488D01*
X8708509Y10904490D01*
X8642512Y10904490D01*
X8543517Y10937488D01*
X8411524Y11069481D01*
X8378526Y11168476D01*
X8378526Y11234473D01*
X8411524Y11333468D01*
M02*
