G04 #@! TF.GenerationSoftware,KiCad,Pcbnew,5.1.9-1.fc33*
G04 #@! TF.CreationDate,2021-01-17T22:49:11+01:00*
G04 #@! TF.ProjectId,reDIP-sx,72654449-502d-4737-982e-6b696361645f,0.1*
G04 #@! TF.SameCoordinates,PX5e28010PY8011a50*
G04 #@! TF.FileFunction,Copper,L6,Bot*
G04 #@! TF.FilePolarity,Positive*
%FSLAX46Y46*%
G04 Gerber Fmt 4.6, Leading zero omitted, Abs format (unit mm)*
G04 Created by KiCad (PCBNEW 5.1.9-1.fc33) date 2021-01-17 22:49:11*
%MOMM*%
%LPD*%
G01*
G04 APERTURE LIST*
G04 #@! TA.AperFunction,ComponentPad*
%ADD10O,1.000000X2.300000*%
G04 #@! TD*
G04 #@! TA.AperFunction,ComponentPad*
%ADD11O,1.000000X2.000000*%
G04 #@! TD*
G04 #@! TA.AperFunction,ComponentPad*
%ADD12C,1.600000*%
G04 #@! TD*
G04 #@! TA.AperFunction,SMDPad,CuDef*
%ADD13C,0.750000*%
G04 #@! TD*
G04 #@! TA.AperFunction,ViaPad*
%ADD14C,0.400000*%
G04 #@! TD*
G04 #@! TA.AperFunction,Conductor*
%ADD15C,0.150000*%
G04 #@! TD*
G04 #@! TA.AperFunction,Conductor*
%ADD16C,0.200000*%
G04 #@! TD*
G04 #@! TA.AperFunction,Conductor*
%ADD17C,0.250000*%
G04 #@! TD*
G04 APERTURE END LIST*
D10*
X13210000Y38690000D03*
X4570000Y38690000D03*
D11*
X13210000Y34865000D03*
X4570000Y34865000D03*
D12*
X1270000Y26670000D03*
X1270000Y29210000D03*
X1270000Y31750000D03*
X1270000Y34290000D03*
X1270000Y36830000D03*
X1270000Y39370000D03*
G04 #@! TA.AperFunction,SMDPad,CuDef*
G36*
G01*
X3605000Y17352500D02*
X3605000Y16067500D01*
G75*
G02*
X3547500Y16010000I-57500J0D01*
G01*
X3432500Y16010000D01*
G75*
G02*
X3375000Y16067500I0J57500D01*
G01*
X3375000Y17352500D01*
G75*
G02*
X3432500Y17410000I57500J0D01*
G01*
X3547500Y17410000D01*
G75*
G02*
X3605000Y17352500I0J-57500D01*
G01*
G37*
G04 #@! TD.AperFunction*
G04 #@! TA.AperFunction,SMDPad,CuDef*
G36*
G01*
X3605000Y23252500D02*
X3605000Y21967500D01*
G75*
G02*
X3547500Y21910000I-57500J0D01*
G01*
X3432500Y21910000D01*
G75*
G02*
X3375000Y21967500I0J57500D01*
G01*
X3375000Y23252500D01*
G75*
G02*
X3432500Y23310000I57500J0D01*
G01*
X3547500Y23310000D01*
G75*
G02*
X3605000Y23252500I0J-57500D01*
G01*
G37*
G04 #@! TD.AperFunction*
G04 #@! TA.AperFunction,SMDPad,CuDef*
G36*
G01*
X4005000Y17352500D02*
X4005000Y16067500D01*
G75*
G02*
X3947500Y16010000I-57500J0D01*
G01*
X3832500Y16010000D01*
G75*
G02*
X3775000Y16067500I0J57500D01*
G01*
X3775000Y17352500D01*
G75*
G02*
X3832500Y17410000I57500J0D01*
G01*
X3947500Y17410000D01*
G75*
G02*
X4005000Y17352500I0J-57500D01*
G01*
G37*
G04 #@! TD.AperFunction*
G04 #@! TA.AperFunction,SMDPad,CuDef*
G36*
G01*
X4005000Y23252500D02*
X4005000Y21967500D01*
G75*
G02*
X3947500Y21910000I-57500J0D01*
G01*
X3832500Y21910000D01*
G75*
G02*
X3775000Y21967500I0J57500D01*
G01*
X3775000Y23252500D01*
G75*
G02*
X3832500Y23310000I57500J0D01*
G01*
X3947500Y23310000D01*
G75*
G02*
X4005000Y23252500I0J-57500D01*
G01*
G37*
G04 #@! TD.AperFunction*
G04 #@! TA.AperFunction,SMDPad,CuDef*
G36*
G01*
X4405000Y17352500D02*
X4405000Y16067500D01*
G75*
G02*
X4347500Y16010000I-57500J0D01*
G01*
X4232500Y16010000D01*
G75*
G02*
X4175000Y16067500I0J57500D01*
G01*
X4175000Y17352500D01*
G75*
G02*
X4232500Y17410000I57500J0D01*
G01*
X4347500Y17410000D01*
G75*
G02*
X4405000Y17352500I0J-57500D01*
G01*
G37*
G04 #@! TD.AperFunction*
G04 #@! TA.AperFunction,SMDPad,CuDef*
G36*
G01*
X4405000Y23252500D02*
X4405000Y21967500D01*
G75*
G02*
X4347500Y21910000I-57500J0D01*
G01*
X4232500Y21910000D01*
G75*
G02*
X4175000Y21967500I0J57500D01*
G01*
X4175000Y23252500D01*
G75*
G02*
X4232500Y23310000I57500J0D01*
G01*
X4347500Y23310000D01*
G75*
G02*
X4405000Y23252500I0J-57500D01*
G01*
G37*
G04 #@! TD.AperFunction*
G04 #@! TA.AperFunction,SMDPad,CuDef*
G36*
G01*
X4805000Y17352500D02*
X4805000Y16067500D01*
G75*
G02*
X4747500Y16010000I-57500J0D01*
G01*
X4632500Y16010000D01*
G75*
G02*
X4575000Y16067500I0J57500D01*
G01*
X4575000Y17352500D01*
G75*
G02*
X4632500Y17410000I57500J0D01*
G01*
X4747500Y17410000D01*
G75*
G02*
X4805000Y17352500I0J-57500D01*
G01*
G37*
G04 #@! TD.AperFunction*
G04 #@! TA.AperFunction,SMDPad,CuDef*
G36*
G01*
X4805000Y23252500D02*
X4805000Y21967500D01*
G75*
G02*
X4747500Y21910000I-57500J0D01*
G01*
X4632500Y21910000D01*
G75*
G02*
X4575000Y21967500I0J57500D01*
G01*
X4575000Y23252500D01*
G75*
G02*
X4632500Y23310000I57500J0D01*
G01*
X4747500Y23310000D01*
G75*
G02*
X4805000Y23252500I0J-57500D01*
G01*
G37*
G04 #@! TD.AperFunction*
G04 #@! TA.AperFunction,SMDPad,CuDef*
G36*
G01*
X5205000Y17352500D02*
X5205000Y16067500D01*
G75*
G02*
X5147500Y16010000I-57500J0D01*
G01*
X5032500Y16010000D01*
G75*
G02*
X4975000Y16067500I0J57500D01*
G01*
X4975000Y17352500D01*
G75*
G02*
X5032500Y17410000I57500J0D01*
G01*
X5147500Y17410000D01*
G75*
G02*
X5205000Y17352500I0J-57500D01*
G01*
G37*
G04 #@! TD.AperFunction*
G04 #@! TA.AperFunction,SMDPad,CuDef*
G36*
G01*
X5205000Y23252500D02*
X5205000Y21967500D01*
G75*
G02*
X5147500Y21910000I-57500J0D01*
G01*
X5032500Y21910000D01*
G75*
G02*
X4975000Y21967500I0J57500D01*
G01*
X4975000Y23252500D01*
G75*
G02*
X5032500Y23310000I57500J0D01*
G01*
X5147500Y23310000D01*
G75*
G02*
X5205000Y23252500I0J-57500D01*
G01*
G37*
G04 #@! TD.AperFunction*
G04 #@! TA.AperFunction,SMDPad,CuDef*
G36*
G01*
X5605000Y17352500D02*
X5605000Y16067500D01*
G75*
G02*
X5547500Y16010000I-57500J0D01*
G01*
X5432500Y16010000D01*
G75*
G02*
X5375000Y16067500I0J57500D01*
G01*
X5375000Y17352500D01*
G75*
G02*
X5432500Y17410000I57500J0D01*
G01*
X5547500Y17410000D01*
G75*
G02*
X5605000Y17352500I0J-57500D01*
G01*
G37*
G04 #@! TD.AperFunction*
G04 #@! TA.AperFunction,SMDPad,CuDef*
G36*
G01*
X5605000Y23252500D02*
X5605000Y21967500D01*
G75*
G02*
X5547500Y21910000I-57500J0D01*
G01*
X5432500Y21910000D01*
G75*
G02*
X5375000Y21967500I0J57500D01*
G01*
X5375000Y23252500D01*
G75*
G02*
X5432500Y23310000I57500J0D01*
G01*
X5547500Y23310000D01*
G75*
G02*
X5605000Y23252500I0J-57500D01*
G01*
G37*
G04 #@! TD.AperFunction*
G04 #@! TA.AperFunction,SMDPad,CuDef*
G36*
G01*
X6005000Y17352500D02*
X6005000Y16067500D01*
G75*
G02*
X5947500Y16010000I-57500J0D01*
G01*
X5832500Y16010000D01*
G75*
G02*
X5775000Y16067500I0J57500D01*
G01*
X5775000Y17352500D01*
G75*
G02*
X5832500Y17410000I57500J0D01*
G01*
X5947500Y17410000D01*
G75*
G02*
X6005000Y17352500I0J-57500D01*
G01*
G37*
G04 #@! TD.AperFunction*
G04 #@! TA.AperFunction,SMDPad,CuDef*
G36*
G01*
X6005000Y23252500D02*
X6005000Y21967500D01*
G75*
G02*
X5947500Y21910000I-57500J0D01*
G01*
X5832500Y21910000D01*
G75*
G02*
X5775000Y21967500I0J57500D01*
G01*
X5775000Y23252500D01*
G75*
G02*
X5832500Y23310000I57500J0D01*
G01*
X5947500Y23310000D01*
G75*
G02*
X6005000Y23252500I0J-57500D01*
G01*
G37*
G04 #@! TD.AperFunction*
G04 #@! TA.AperFunction,SMDPad,CuDef*
G36*
G01*
X6405000Y17352500D02*
X6405000Y16067500D01*
G75*
G02*
X6347500Y16010000I-57500J0D01*
G01*
X6232500Y16010000D01*
G75*
G02*
X6175000Y16067500I0J57500D01*
G01*
X6175000Y17352500D01*
G75*
G02*
X6232500Y17410000I57500J0D01*
G01*
X6347500Y17410000D01*
G75*
G02*
X6405000Y17352500I0J-57500D01*
G01*
G37*
G04 #@! TD.AperFunction*
G04 #@! TA.AperFunction,SMDPad,CuDef*
G36*
G01*
X6405000Y23252500D02*
X6405000Y21967500D01*
G75*
G02*
X6347500Y21910000I-57500J0D01*
G01*
X6232500Y21910000D01*
G75*
G02*
X6175000Y21967500I0J57500D01*
G01*
X6175000Y23252500D01*
G75*
G02*
X6232500Y23310000I57500J0D01*
G01*
X6347500Y23310000D01*
G75*
G02*
X6405000Y23252500I0J-57500D01*
G01*
G37*
G04 #@! TD.AperFunction*
G04 #@! TA.AperFunction,SMDPad,CuDef*
G36*
G01*
X6805000Y17352500D02*
X6805000Y16067500D01*
G75*
G02*
X6747500Y16010000I-57500J0D01*
G01*
X6632500Y16010000D01*
G75*
G02*
X6575000Y16067500I0J57500D01*
G01*
X6575000Y17352500D01*
G75*
G02*
X6632500Y17410000I57500J0D01*
G01*
X6747500Y17410000D01*
G75*
G02*
X6805000Y17352500I0J-57500D01*
G01*
G37*
G04 #@! TD.AperFunction*
G04 #@! TA.AperFunction,SMDPad,CuDef*
G36*
G01*
X6805000Y23252500D02*
X6805000Y21967500D01*
G75*
G02*
X6747500Y21910000I-57500J0D01*
G01*
X6632500Y21910000D01*
G75*
G02*
X6575000Y21967500I0J57500D01*
G01*
X6575000Y23252500D01*
G75*
G02*
X6632500Y23310000I57500J0D01*
G01*
X6747500Y23310000D01*
G75*
G02*
X6805000Y23252500I0J-57500D01*
G01*
G37*
G04 #@! TD.AperFunction*
G04 #@! TA.AperFunction,SMDPad,CuDef*
G36*
G01*
X7205000Y17352500D02*
X7205000Y16067500D01*
G75*
G02*
X7147500Y16010000I-57500J0D01*
G01*
X7032500Y16010000D01*
G75*
G02*
X6975000Y16067500I0J57500D01*
G01*
X6975000Y17352500D01*
G75*
G02*
X7032500Y17410000I57500J0D01*
G01*
X7147500Y17410000D01*
G75*
G02*
X7205000Y17352500I0J-57500D01*
G01*
G37*
G04 #@! TD.AperFunction*
G04 #@! TA.AperFunction,SMDPad,CuDef*
G36*
G01*
X7205000Y23252500D02*
X7205000Y21967500D01*
G75*
G02*
X7147500Y21910000I-57500J0D01*
G01*
X7032500Y21910000D01*
G75*
G02*
X6975000Y21967500I0J57500D01*
G01*
X6975000Y23252500D01*
G75*
G02*
X7032500Y23310000I57500J0D01*
G01*
X7147500Y23310000D01*
G75*
G02*
X7205000Y23252500I0J-57500D01*
G01*
G37*
G04 #@! TD.AperFunction*
G04 #@! TA.AperFunction,SMDPad,CuDef*
G36*
G01*
X7605000Y17352500D02*
X7605000Y16067500D01*
G75*
G02*
X7547500Y16010000I-57500J0D01*
G01*
X7432500Y16010000D01*
G75*
G02*
X7375000Y16067500I0J57500D01*
G01*
X7375000Y17352500D01*
G75*
G02*
X7432500Y17410000I57500J0D01*
G01*
X7547500Y17410000D01*
G75*
G02*
X7605000Y17352500I0J-57500D01*
G01*
G37*
G04 #@! TD.AperFunction*
G04 #@! TA.AperFunction,SMDPad,CuDef*
G36*
G01*
X7605000Y23252500D02*
X7605000Y21967500D01*
G75*
G02*
X7547500Y21910000I-57500J0D01*
G01*
X7432500Y21910000D01*
G75*
G02*
X7375000Y21967500I0J57500D01*
G01*
X7375000Y23252500D01*
G75*
G02*
X7432500Y23310000I57500J0D01*
G01*
X7547500Y23310000D01*
G75*
G02*
X7605000Y23252500I0J-57500D01*
G01*
G37*
G04 #@! TD.AperFunction*
G04 #@! TA.AperFunction,SMDPad,CuDef*
G36*
G01*
X8005000Y17352500D02*
X8005000Y16067500D01*
G75*
G02*
X7947500Y16010000I-57500J0D01*
G01*
X7832500Y16010000D01*
G75*
G02*
X7775000Y16067500I0J57500D01*
G01*
X7775000Y17352500D01*
G75*
G02*
X7832500Y17410000I57500J0D01*
G01*
X7947500Y17410000D01*
G75*
G02*
X8005000Y17352500I0J-57500D01*
G01*
G37*
G04 #@! TD.AperFunction*
G04 #@! TA.AperFunction,SMDPad,CuDef*
G36*
G01*
X8005000Y23252500D02*
X8005000Y21967500D01*
G75*
G02*
X7947500Y21910000I-57500J0D01*
G01*
X7832500Y21910000D01*
G75*
G02*
X7775000Y21967500I0J57500D01*
G01*
X7775000Y23252500D01*
G75*
G02*
X7832500Y23310000I57500J0D01*
G01*
X7947500Y23310000D01*
G75*
G02*
X8005000Y23252500I0J-57500D01*
G01*
G37*
G04 #@! TD.AperFunction*
G04 #@! TA.AperFunction,SMDPad,CuDef*
G36*
G01*
X8405000Y17352500D02*
X8405000Y16067500D01*
G75*
G02*
X8347500Y16010000I-57500J0D01*
G01*
X8232500Y16010000D01*
G75*
G02*
X8175000Y16067500I0J57500D01*
G01*
X8175000Y17352500D01*
G75*
G02*
X8232500Y17410000I57500J0D01*
G01*
X8347500Y17410000D01*
G75*
G02*
X8405000Y17352500I0J-57500D01*
G01*
G37*
G04 #@! TD.AperFunction*
G04 #@! TA.AperFunction,SMDPad,CuDef*
G36*
G01*
X8405000Y23252500D02*
X8405000Y21967500D01*
G75*
G02*
X8347500Y21910000I-57500J0D01*
G01*
X8232500Y21910000D01*
G75*
G02*
X8175000Y21967500I0J57500D01*
G01*
X8175000Y23252500D01*
G75*
G02*
X8232500Y23310000I57500J0D01*
G01*
X8347500Y23310000D01*
G75*
G02*
X8405000Y23252500I0J-57500D01*
G01*
G37*
G04 #@! TD.AperFunction*
G04 #@! TA.AperFunction,SMDPad,CuDef*
G36*
G01*
X8805000Y17352500D02*
X8805000Y16067500D01*
G75*
G02*
X8747500Y16010000I-57500J0D01*
G01*
X8632500Y16010000D01*
G75*
G02*
X8575000Y16067500I0J57500D01*
G01*
X8575000Y17352500D01*
G75*
G02*
X8632500Y17410000I57500J0D01*
G01*
X8747500Y17410000D01*
G75*
G02*
X8805000Y17352500I0J-57500D01*
G01*
G37*
G04 #@! TD.AperFunction*
G04 #@! TA.AperFunction,SMDPad,CuDef*
G36*
G01*
X8805000Y23252500D02*
X8805000Y21967500D01*
G75*
G02*
X8747500Y21910000I-57500J0D01*
G01*
X8632500Y21910000D01*
G75*
G02*
X8575000Y21967500I0J57500D01*
G01*
X8575000Y23252500D01*
G75*
G02*
X8632500Y23310000I57500J0D01*
G01*
X8747500Y23310000D01*
G75*
G02*
X8805000Y23252500I0J-57500D01*
G01*
G37*
G04 #@! TD.AperFunction*
G04 #@! TA.AperFunction,SMDPad,CuDef*
G36*
G01*
X9205000Y17352500D02*
X9205000Y16067500D01*
G75*
G02*
X9147500Y16010000I-57500J0D01*
G01*
X9032500Y16010000D01*
G75*
G02*
X8975000Y16067500I0J57500D01*
G01*
X8975000Y17352500D01*
G75*
G02*
X9032500Y17410000I57500J0D01*
G01*
X9147500Y17410000D01*
G75*
G02*
X9205000Y17352500I0J-57500D01*
G01*
G37*
G04 #@! TD.AperFunction*
G04 #@! TA.AperFunction,SMDPad,CuDef*
G36*
G01*
X9205000Y23252500D02*
X9205000Y21967500D01*
G75*
G02*
X9147500Y21910000I-57500J0D01*
G01*
X9032500Y21910000D01*
G75*
G02*
X8975000Y21967500I0J57500D01*
G01*
X8975000Y23252500D01*
G75*
G02*
X9032500Y23310000I57500J0D01*
G01*
X9147500Y23310000D01*
G75*
G02*
X9205000Y23252500I0J-57500D01*
G01*
G37*
G04 #@! TD.AperFunction*
G04 #@! TA.AperFunction,SMDPad,CuDef*
G36*
G01*
X9605000Y17352500D02*
X9605000Y16067500D01*
G75*
G02*
X9547500Y16010000I-57500J0D01*
G01*
X9432500Y16010000D01*
G75*
G02*
X9375000Y16067500I0J57500D01*
G01*
X9375000Y17352500D01*
G75*
G02*
X9432500Y17410000I57500J0D01*
G01*
X9547500Y17410000D01*
G75*
G02*
X9605000Y17352500I0J-57500D01*
G01*
G37*
G04 #@! TD.AperFunction*
G04 #@! TA.AperFunction,SMDPad,CuDef*
G36*
G01*
X9605000Y23252500D02*
X9605000Y21967500D01*
G75*
G02*
X9547500Y21910000I-57500J0D01*
G01*
X9432500Y21910000D01*
G75*
G02*
X9375000Y21967500I0J57500D01*
G01*
X9375000Y23252500D01*
G75*
G02*
X9432500Y23310000I57500J0D01*
G01*
X9547500Y23310000D01*
G75*
G02*
X9605000Y23252500I0J-57500D01*
G01*
G37*
G04 #@! TD.AperFunction*
G04 #@! TA.AperFunction,SMDPad,CuDef*
G36*
G01*
X10005000Y17352500D02*
X10005000Y16067500D01*
G75*
G02*
X9947500Y16010000I-57500J0D01*
G01*
X9832500Y16010000D01*
G75*
G02*
X9775000Y16067500I0J57500D01*
G01*
X9775000Y17352500D01*
G75*
G02*
X9832500Y17410000I57500J0D01*
G01*
X9947500Y17410000D01*
G75*
G02*
X10005000Y17352500I0J-57500D01*
G01*
G37*
G04 #@! TD.AperFunction*
G04 #@! TA.AperFunction,SMDPad,CuDef*
G36*
G01*
X10005000Y23252500D02*
X10005000Y21967500D01*
G75*
G02*
X9947500Y21910000I-57500J0D01*
G01*
X9832500Y21910000D01*
G75*
G02*
X9775000Y21967500I0J57500D01*
G01*
X9775000Y23252500D01*
G75*
G02*
X9832500Y23310000I57500J0D01*
G01*
X9947500Y23310000D01*
G75*
G02*
X10005000Y23252500I0J-57500D01*
G01*
G37*
G04 #@! TD.AperFunction*
G04 #@! TA.AperFunction,SMDPad,CuDef*
G36*
G01*
X10405000Y17352500D02*
X10405000Y16067500D01*
G75*
G02*
X10347500Y16010000I-57500J0D01*
G01*
X10232500Y16010000D01*
G75*
G02*
X10175000Y16067500I0J57500D01*
G01*
X10175000Y17352500D01*
G75*
G02*
X10232500Y17410000I57500J0D01*
G01*
X10347500Y17410000D01*
G75*
G02*
X10405000Y17352500I0J-57500D01*
G01*
G37*
G04 #@! TD.AperFunction*
G04 #@! TA.AperFunction,SMDPad,CuDef*
G36*
G01*
X10405000Y23252500D02*
X10405000Y21967500D01*
G75*
G02*
X10347500Y21910000I-57500J0D01*
G01*
X10232500Y21910000D01*
G75*
G02*
X10175000Y21967500I0J57500D01*
G01*
X10175000Y23252500D01*
G75*
G02*
X10232500Y23310000I57500J0D01*
G01*
X10347500Y23310000D01*
G75*
G02*
X10405000Y23252500I0J-57500D01*
G01*
G37*
G04 #@! TD.AperFunction*
G04 #@! TA.AperFunction,SMDPad,CuDef*
G36*
G01*
X10805000Y17352500D02*
X10805000Y16067500D01*
G75*
G02*
X10747500Y16010000I-57500J0D01*
G01*
X10632500Y16010000D01*
G75*
G02*
X10575000Y16067500I0J57500D01*
G01*
X10575000Y17352500D01*
G75*
G02*
X10632500Y17410000I57500J0D01*
G01*
X10747500Y17410000D01*
G75*
G02*
X10805000Y17352500I0J-57500D01*
G01*
G37*
G04 #@! TD.AperFunction*
G04 #@! TA.AperFunction,SMDPad,CuDef*
G36*
G01*
X10805000Y23252500D02*
X10805000Y21967500D01*
G75*
G02*
X10747500Y21910000I-57500J0D01*
G01*
X10632500Y21910000D01*
G75*
G02*
X10575000Y21967500I0J57500D01*
G01*
X10575000Y23252500D01*
G75*
G02*
X10632500Y23310000I57500J0D01*
G01*
X10747500Y23310000D01*
G75*
G02*
X10805000Y23252500I0J-57500D01*
G01*
G37*
G04 #@! TD.AperFunction*
G04 #@! TA.AperFunction,SMDPad,CuDef*
G36*
G01*
X11205000Y17352500D02*
X11205000Y16067500D01*
G75*
G02*
X11147500Y16010000I-57500J0D01*
G01*
X11032500Y16010000D01*
G75*
G02*
X10975000Y16067500I0J57500D01*
G01*
X10975000Y17352500D01*
G75*
G02*
X11032500Y17410000I57500J0D01*
G01*
X11147500Y17410000D01*
G75*
G02*
X11205000Y17352500I0J-57500D01*
G01*
G37*
G04 #@! TD.AperFunction*
G04 #@! TA.AperFunction,SMDPad,CuDef*
G36*
G01*
X11205000Y23252500D02*
X11205000Y21967500D01*
G75*
G02*
X11147500Y21910000I-57500J0D01*
G01*
X11032500Y21910000D01*
G75*
G02*
X10975000Y21967500I0J57500D01*
G01*
X10975000Y23252500D01*
G75*
G02*
X11032500Y23310000I57500J0D01*
G01*
X11147500Y23310000D01*
G75*
G02*
X11205000Y23252500I0J-57500D01*
G01*
G37*
G04 #@! TD.AperFunction*
G04 #@! TA.AperFunction,SMDPad,CuDef*
G36*
G01*
X11605000Y17352500D02*
X11605000Y16067500D01*
G75*
G02*
X11547500Y16010000I-57500J0D01*
G01*
X11432500Y16010000D01*
G75*
G02*
X11375000Y16067500I0J57500D01*
G01*
X11375000Y17352500D01*
G75*
G02*
X11432500Y17410000I57500J0D01*
G01*
X11547500Y17410000D01*
G75*
G02*
X11605000Y17352500I0J-57500D01*
G01*
G37*
G04 #@! TD.AperFunction*
G04 #@! TA.AperFunction,SMDPad,CuDef*
G36*
G01*
X11605000Y23252500D02*
X11605000Y21967500D01*
G75*
G02*
X11547500Y21910000I-57500J0D01*
G01*
X11432500Y21910000D01*
G75*
G02*
X11375000Y21967500I0J57500D01*
G01*
X11375000Y23252500D01*
G75*
G02*
X11432500Y23310000I57500J0D01*
G01*
X11547500Y23310000D01*
G75*
G02*
X11605000Y23252500I0J-57500D01*
G01*
G37*
G04 #@! TD.AperFunction*
G04 #@! TA.AperFunction,SMDPad,CuDef*
G36*
G01*
X12005000Y17352500D02*
X12005000Y16067500D01*
G75*
G02*
X11947500Y16010000I-57500J0D01*
G01*
X11832500Y16010000D01*
G75*
G02*
X11775000Y16067500I0J57500D01*
G01*
X11775000Y17352500D01*
G75*
G02*
X11832500Y17410000I57500J0D01*
G01*
X11947500Y17410000D01*
G75*
G02*
X12005000Y17352500I0J-57500D01*
G01*
G37*
G04 #@! TD.AperFunction*
G04 #@! TA.AperFunction,SMDPad,CuDef*
G36*
G01*
X12005000Y23252500D02*
X12005000Y21967500D01*
G75*
G02*
X11947500Y21910000I-57500J0D01*
G01*
X11832500Y21910000D01*
G75*
G02*
X11775000Y21967500I0J57500D01*
G01*
X11775000Y23252500D01*
G75*
G02*
X11832500Y23310000I57500J0D01*
G01*
X11947500Y23310000D01*
G75*
G02*
X12005000Y23252500I0J-57500D01*
G01*
G37*
G04 #@! TD.AperFunction*
G04 #@! TA.AperFunction,SMDPad,CuDef*
G36*
G01*
X12405000Y17352500D02*
X12405000Y16067500D01*
G75*
G02*
X12347500Y16010000I-57500J0D01*
G01*
X12232500Y16010000D01*
G75*
G02*
X12175000Y16067500I0J57500D01*
G01*
X12175000Y17352500D01*
G75*
G02*
X12232500Y17410000I57500J0D01*
G01*
X12347500Y17410000D01*
G75*
G02*
X12405000Y17352500I0J-57500D01*
G01*
G37*
G04 #@! TD.AperFunction*
G04 #@! TA.AperFunction,SMDPad,CuDef*
G36*
G01*
X12405000Y23252500D02*
X12405000Y21967500D01*
G75*
G02*
X12347500Y21910000I-57500J0D01*
G01*
X12232500Y21910000D01*
G75*
G02*
X12175000Y21967500I0J57500D01*
G01*
X12175000Y23252500D01*
G75*
G02*
X12232500Y23310000I57500J0D01*
G01*
X12347500Y23310000D01*
G75*
G02*
X12405000Y23252500I0J-57500D01*
G01*
G37*
G04 #@! TD.AperFunction*
G04 #@! TA.AperFunction,SMDPad,CuDef*
G36*
G01*
X12805000Y17352500D02*
X12805000Y16067500D01*
G75*
G02*
X12747500Y16010000I-57500J0D01*
G01*
X12632500Y16010000D01*
G75*
G02*
X12575000Y16067500I0J57500D01*
G01*
X12575000Y17352500D01*
G75*
G02*
X12632500Y17410000I57500J0D01*
G01*
X12747500Y17410000D01*
G75*
G02*
X12805000Y17352500I0J-57500D01*
G01*
G37*
G04 #@! TD.AperFunction*
G04 #@! TA.AperFunction,SMDPad,CuDef*
G36*
G01*
X12805000Y23252500D02*
X12805000Y21967500D01*
G75*
G02*
X12747500Y21910000I-57500J0D01*
G01*
X12632500Y21910000D01*
G75*
G02*
X12575000Y21967500I0J57500D01*
G01*
X12575000Y23252500D01*
G75*
G02*
X12632500Y23310000I57500J0D01*
G01*
X12747500Y23310000D01*
G75*
G02*
X12805000Y23252500I0J-57500D01*
G01*
G37*
G04 #@! TD.AperFunction*
G04 #@! TA.AperFunction,SMDPad,CuDef*
G36*
G01*
X13205000Y17352500D02*
X13205000Y16067500D01*
G75*
G02*
X13147500Y16010000I-57500J0D01*
G01*
X13032500Y16010000D01*
G75*
G02*
X12975000Y16067500I0J57500D01*
G01*
X12975000Y17352500D01*
G75*
G02*
X13032500Y17410000I57500J0D01*
G01*
X13147500Y17410000D01*
G75*
G02*
X13205000Y17352500I0J-57500D01*
G01*
G37*
G04 #@! TD.AperFunction*
G04 #@! TA.AperFunction,SMDPad,CuDef*
G36*
G01*
X13205000Y23252500D02*
X13205000Y21967500D01*
G75*
G02*
X13147500Y21910000I-57500J0D01*
G01*
X13032500Y21910000D01*
G75*
G02*
X12975000Y21967500I0J57500D01*
G01*
X12975000Y23252500D01*
G75*
G02*
X13032500Y23310000I57500J0D01*
G01*
X13147500Y23310000D01*
G75*
G02*
X13205000Y23252500I0J-57500D01*
G01*
G37*
G04 #@! TD.AperFunction*
G04 #@! TA.AperFunction,SMDPad,CuDef*
G36*
G01*
X13605000Y17352500D02*
X13605000Y16067500D01*
G75*
G02*
X13547500Y16010000I-57500J0D01*
G01*
X13432500Y16010000D01*
G75*
G02*
X13375000Y16067500I0J57500D01*
G01*
X13375000Y17352500D01*
G75*
G02*
X13432500Y17410000I57500J0D01*
G01*
X13547500Y17410000D01*
G75*
G02*
X13605000Y17352500I0J-57500D01*
G01*
G37*
G04 #@! TD.AperFunction*
G04 #@! TA.AperFunction,SMDPad,CuDef*
G36*
G01*
X13605000Y23252500D02*
X13605000Y21967500D01*
G75*
G02*
X13547500Y21910000I-57500J0D01*
G01*
X13432500Y21910000D01*
G75*
G02*
X13375000Y21967500I0J57500D01*
G01*
X13375000Y23252500D01*
G75*
G02*
X13432500Y23310000I57500J0D01*
G01*
X13547500Y23310000D01*
G75*
G02*
X13605000Y23252500I0J-57500D01*
G01*
G37*
G04 #@! TD.AperFunction*
G04 #@! TA.AperFunction,SMDPad,CuDef*
G36*
G01*
X14005000Y17352500D02*
X14005000Y16067500D01*
G75*
G02*
X13947500Y16010000I-57500J0D01*
G01*
X13832500Y16010000D01*
G75*
G02*
X13775000Y16067500I0J57500D01*
G01*
X13775000Y17352500D01*
G75*
G02*
X13832500Y17410000I57500J0D01*
G01*
X13947500Y17410000D01*
G75*
G02*
X14005000Y17352500I0J-57500D01*
G01*
G37*
G04 #@! TD.AperFunction*
G04 #@! TA.AperFunction,SMDPad,CuDef*
G36*
G01*
X14005000Y23252500D02*
X14005000Y21967500D01*
G75*
G02*
X13947500Y21910000I-57500J0D01*
G01*
X13832500Y21910000D01*
G75*
G02*
X13775000Y21967500I0J57500D01*
G01*
X13775000Y23252500D01*
G75*
G02*
X13832500Y23310000I57500J0D01*
G01*
X13947500Y23310000D01*
G75*
G02*
X14005000Y23252500I0J-57500D01*
G01*
G37*
G04 #@! TD.AperFunction*
G04 #@! TA.AperFunction,SMDPad,CuDef*
G36*
G01*
X14405000Y17352500D02*
X14405000Y16067500D01*
G75*
G02*
X14347500Y16010000I-57500J0D01*
G01*
X14232500Y16010000D01*
G75*
G02*
X14175000Y16067500I0J57500D01*
G01*
X14175000Y17352500D01*
G75*
G02*
X14232500Y17410000I57500J0D01*
G01*
X14347500Y17410000D01*
G75*
G02*
X14405000Y17352500I0J-57500D01*
G01*
G37*
G04 #@! TD.AperFunction*
G04 #@! TA.AperFunction,SMDPad,CuDef*
G36*
G01*
X14405000Y23252500D02*
X14405000Y21967500D01*
G75*
G02*
X14347500Y21910000I-57500J0D01*
G01*
X14232500Y21910000D01*
G75*
G02*
X14175000Y21967500I0J57500D01*
G01*
X14175000Y23252500D01*
G75*
G02*
X14232500Y23310000I57500J0D01*
G01*
X14347500Y23310000D01*
G75*
G02*
X14405000Y23252500I0J-57500D01*
G01*
G37*
G04 #@! TD.AperFunction*
G04 #@! TA.AperFunction,SMDPad,CuDef*
G36*
G01*
X4335000Y32190000D02*
X4705000Y32190000D01*
G75*
G02*
X4840000Y32055000I0J-135000D01*
G01*
X4840000Y31785000D01*
G75*
G02*
X4705000Y31650000I-135000J0D01*
G01*
X4335000Y31650000D01*
G75*
G02*
X4200000Y31785000I0J135000D01*
G01*
X4200000Y32055000D01*
G75*
G02*
X4335000Y32190000I135000J0D01*
G01*
G37*
G04 #@! TD.AperFunction*
G04 #@! TA.AperFunction,SMDPad,CuDef*
G36*
G01*
X4335000Y33210000D02*
X4705000Y33210000D01*
G75*
G02*
X4840000Y33075000I0J-135000D01*
G01*
X4840000Y32805000D01*
G75*
G02*
X4705000Y32670000I-135000J0D01*
G01*
X4335000Y32670000D01*
G75*
G02*
X4200000Y32805000I0J135000D01*
G01*
X4200000Y33075000D01*
G75*
G02*
X4335000Y33210000I135000J0D01*
G01*
G37*
G04 #@! TD.AperFunction*
X16510000Y26670000D03*
X16510000Y29210000D03*
X16510000Y31750000D03*
X16510000Y34290000D03*
X16510000Y36830000D03*
X16510000Y39370000D03*
G04 #@! TA.AperFunction,SMDPad,CuDef*
G36*
G01*
X11890000Y39990000D02*
X11890000Y37290000D01*
G75*
G02*
X11740000Y37140000I-150000J0D01*
G01*
X10540000Y37140000D01*
G75*
G02*
X10390000Y37290000I0J150000D01*
G01*
X10390000Y39990000D01*
G75*
G02*
X10540000Y40140000I150000J0D01*
G01*
X11740000Y40140000D01*
G75*
G02*
X11890000Y39990000I0J-150000D01*
G01*
G37*
G04 #@! TD.AperFunction*
G04 #@! TA.AperFunction,SMDPad,CuDef*
G36*
G01*
X13520000Y3380000D02*
X13520000Y680000D01*
G75*
G02*
X13370000Y530000I-150000J0D01*
G01*
X12170000Y530000D01*
G75*
G02*
X12020000Y680000I0J150000D01*
G01*
X12020000Y3380000D01*
G75*
G02*
X12170000Y3530000I150000J0D01*
G01*
X13370000Y3530000D01*
G75*
G02*
X13520000Y3380000I0J-150000D01*
G01*
G37*
G04 #@! TD.AperFunction*
G04 #@! TA.AperFunction,SMDPad,CuDef*
G36*
G01*
X10520000Y3380000D02*
X10520000Y680000D01*
G75*
G02*
X10370000Y530000I-150000J0D01*
G01*
X9170000Y530000D01*
G75*
G02*
X9020000Y680000I0J150000D01*
G01*
X9020000Y3380000D01*
G75*
G02*
X9170000Y3530000I150000J0D01*
G01*
X10370000Y3530000D01*
G75*
G02*
X10520000Y3380000I0J-150000D01*
G01*
G37*
G04 #@! TD.AperFunction*
G04 #@! TA.AperFunction,SMDPad,CuDef*
G36*
G01*
X7390000Y39990000D02*
X7390000Y37290000D01*
G75*
G02*
X7240000Y37140000I-150000J0D01*
G01*
X6040000Y37140000D01*
G75*
G02*
X5890000Y37290000I0J150000D01*
G01*
X5890000Y39990000D01*
G75*
G02*
X6040000Y40140000I150000J0D01*
G01*
X7240000Y40140000D01*
G75*
G02*
X7390000Y39990000I0J-150000D01*
G01*
G37*
G04 #@! TD.AperFunction*
G04 #@! TA.AperFunction,SMDPad,CuDef*
G36*
G01*
X9640000Y39990000D02*
X9640000Y37290000D01*
G75*
G02*
X9490000Y37140000I-150000J0D01*
G01*
X8290000Y37140000D01*
G75*
G02*
X8140000Y37290000I0J150000D01*
G01*
X8140000Y39990000D01*
G75*
G02*
X8290000Y40140000I150000J0D01*
G01*
X9490000Y40140000D01*
G75*
G02*
X9640000Y39990000I0J-150000D01*
G01*
G37*
G04 #@! TD.AperFunction*
X16510000Y1270000D03*
X16510000Y3810000D03*
X16510000Y6350000D03*
X16510000Y8890000D03*
X16510000Y11430000D03*
X16510000Y13970000D03*
X16510000Y16510000D03*
X16510000Y19050000D03*
X16510000Y21590000D03*
X16510000Y24130000D03*
D13*
X5360000Y2570000D03*
D12*
X1270000Y1270000D03*
X1270000Y3810000D03*
X1270000Y6350000D03*
X1270000Y8890000D03*
X1270000Y11430000D03*
X1270000Y13970000D03*
X1270000Y16510000D03*
X1270000Y19050000D03*
X1270000Y21590000D03*
X1270000Y24130000D03*
G04 #@! TA.AperFunction,SMDPad,CuDef*
G36*
G01*
X8709688Y7964103D02*
X8921820Y8176235D01*
G75*
G02*
X9133952Y8176235I106066J-106066D01*
G01*
X10088546Y7221641D01*
G75*
G02*
X10088546Y7009509I-106066J-106066D01*
G01*
X9876414Y6797377D01*
G75*
G02*
X9664282Y6797377I-106066J106066D01*
G01*
X8709688Y7751971D01*
G75*
G02*
X8709688Y7964103I106066J106066D01*
G01*
G37*
G04 #@! TD.AperFunction*
G04 #@! TA.AperFunction,SMDPad,CuDef*
G36*
G01*
X9607713Y8862129D02*
X9819845Y9074261D01*
G75*
G02*
X10031977Y9074261I106066J-106066D01*
G01*
X10986571Y8119667D01*
G75*
G02*
X10986571Y7907535I-106066J-106066D01*
G01*
X10774439Y7695403D01*
G75*
G02*
X10562307Y7695403I-106066J106066D01*
G01*
X9607713Y8649997D01*
G75*
G02*
X9607713Y8862129I106066J106066D01*
G01*
G37*
G04 #@! TD.AperFunction*
G04 #@! TA.AperFunction,SMDPad,CuDef*
G36*
G01*
X10505739Y9760155D02*
X10717871Y9972287D01*
G75*
G02*
X10930003Y9972287I106066J-106066D01*
G01*
X11884597Y9017693D01*
G75*
G02*
X11884597Y8805561I-106066J-106066D01*
G01*
X11672465Y8593429D01*
G75*
G02*
X11460333Y8593429I-106066J106066D01*
G01*
X10505739Y9548023D01*
G75*
G02*
X10505739Y9760155I106066J106066D01*
G01*
G37*
G04 #@! TD.AperFunction*
G04 #@! TA.AperFunction,SMDPad,CuDef*
G36*
G01*
X11403765Y10658180D02*
X11615897Y10870312D01*
G75*
G02*
X11828029Y10870312I106066J-106066D01*
G01*
X12782623Y9915718D01*
G75*
G02*
X12782623Y9703586I-106066J-106066D01*
G01*
X12570491Y9491454D01*
G75*
G02*
X12358359Y9491454I-106066J106066D01*
G01*
X11403765Y10446048D01*
G75*
G02*
X11403765Y10658180I106066J106066D01*
G01*
G37*
G04 #@! TD.AperFunction*
G04 #@! TA.AperFunction,SMDPad,CuDef*
G36*
G01*
X7691454Y14370491D02*
X7903586Y14582623D01*
G75*
G02*
X8115718Y14582623I106066J-106066D01*
G01*
X9070312Y13628029D01*
G75*
G02*
X9070312Y13415897I-106066J-106066D01*
G01*
X8858180Y13203765D01*
G75*
G02*
X8646048Y13203765I-106066J106066D01*
G01*
X7691454Y14158359D01*
G75*
G02*
X7691454Y14370491I106066J106066D01*
G01*
G37*
G04 #@! TD.AperFunction*
G04 #@! TA.AperFunction,SMDPad,CuDef*
G36*
G01*
X6793429Y13472465D02*
X7005561Y13684597D01*
G75*
G02*
X7217693Y13684597I106066J-106066D01*
G01*
X8172287Y12730003D01*
G75*
G02*
X8172287Y12517871I-106066J-106066D01*
G01*
X7960155Y12305739D01*
G75*
G02*
X7748023Y12305739I-106066J106066D01*
G01*
X6793429Y13260333D01*
G75*
G02*
X6793429Y13472465I106066J106066D01*
G01*
G37*
G04 #@! TD.AperFunction*
G04 #@! TA.AperFunction,SMDPad,CuDef*
G36*
G01*
X5895403Y12574439D02*
X6107535Y12786571D01*
G75*
G02*
X6319667Y12786571I106066J-106066D01*
G01*
X7274261Y11831977D01*
G75*
G02*
X7274261Y11619845I-106066J-106066D01*
G01*
X7062129Y11407713D01*
G75*
G02*
X6849997Y11407713I-106066J106066D01*
G01*
X5895403Y12362307D01*
G75*
G02*
X5895403Y12574439I106066J106066D01*
G01*
G37*
G04 #@! TD.AperFunction*
G04 #@! TA.AperFunction,SMDPad,CuDef*
G36*
G01*
X4997377Y11676414D02*
X5209509Y11888546D01*
G75*
G02*
X5421641Y11888546I106066J-106066D01*
G01*
X6376235Y10933952D01*
G75*
G02*
X6376235Y10721820I-106066J-106066D01*
G01*
X6164103Y10509688D01*
G75*
G02*
X5951971Y10509688I-106066J106066D01*
G01*
X4997377Y11464282D01*
G75*
G02*
X4997377Y11676414I106066J106066D01*
G01*
G37*
G04 #@! TD.AperFunction*
D13*
X10830000Y26850000D03*
X10830000Y24350000D03*
X3940000Y3950000D03*
X4520000Y30410000D03*
D14*
X5580000Y29040000D03*
X5080000Y29040000D03*
X3990000Y24840000D03*
X4330000Y29470000D03*
X4830000Y29470000D03*
X3830000Y29470000D03*
X6520000Y3580000D03*
X4970000Y3580000D03*
X4970000Y5130000D03*
X6510000Y5130000D03*
X12710000Y27500000D03*
X11830000Y26620000D03*
X12710000Y26620000D03*
X11830000Y27500000D03*
X12270000Y27060000D03*
X9830000Y9750000D03*
X10770000Y10700000D03*
X7020000Y10680000D03*
X7970000Y9760000D03*
X7970000Y11620000D03*
X9820000Y11600000D03*
X8890000Y10690000D03*
X8890000Y12550000D03*
X8890000Y21590000D03*
X9890000Y20610000D03*
X10890000Y21580000D03*
X8890000Y19600000D03*
X7900000Y20610000D03*
X6910000Y21590000D03*
X8890000Y23640000D03*
X5740000Y4360000D03*
X15910000Y2540000D03*
X4060000Y18410000D03*
X13780000Y6070000D03*
X8300000Y31760000D03*
X5330000Y29470000D03*
X4580000Y29040000D03*
X11990000Y33780000D03*
X8900000Y8830000D03*
X7090000Y15590000D03*
X4260000Y15120000D03*
X4220000Y11820000D03*
X12130000Y17720000D03*
X13420000Y17720000D03*
X14880000Y26840000D03*
X15910000Y5080000D03*
X10430000Y31340000D03*
X3380000Y3060000D03*
X7940000Y2870000D03*
X4080000Y29040000D03*
X5830000Y29470000D03*
X12720000Y5080000D03*
X15210000Y3800000D03*
X15210000Y1290000D03*
X13780000Y5080000D03*
X15910000Y22860000D03*
X6480000Y33440000D03*
X4060000Y33540000D03*
X3560000Y33540000D03*
X2920000Y1550000D03*
X3850000Y14830000D03*
X3540000Y24390000D03*
X3810000Y31360000D03*
X9830000Y5860000D03*
X5960000Y7480000D03*
X4050000Y9750000D03*
X11600000Y13750000D03*
X13730000Y13930000D03*
X14390000Y7510000D03*
X10430000Y29510000D03*
X13800000Y21540000D03*
X6870000Y17790000D03*
X13740000Y25510000D03*
X12240000Y31780000D03*
X11440000Y31780000D03*
X10890000Y6910000D03*
X10550000Y6570000D03*
X3310000Y31360000D03*
X3350000Y7410000D03*
X7240000Y6560000D03*
X5610000Y31360000D03*
X5810000Y18860000D03*
X13030000Y24040000D03*
X12430000Y25080000D03*
X6110000Y31360000D03*
X9470000Y31760000D03*
X11240000Y35230000D03*
X6240000Y25790000D03*
X15250000Y29510000D03*
X15250000Y30210000D03*
X11960000Y7970000D03*
X7640000Y35230000D03*
X7490000Y32480000D03*
X10640000Y35230000D03*
X11600000Y7620000D03*
X12630000Y17720000D03*
X13800000Y18760000D03*
X13700000Y11870000D03*
X12680000Y12700000D03*
X10750000Y25570000D03*
X13030000Y12340000D03*
X11110000Y25210000D03*
X12250000Y24610000D03*
X8010000Y31320000D03*
X15910000Y7620000D03*
X5470000Y8330000D03*
X4440000Y6720000D03*
X5110000Y8680000D03*
X4080000Y6370000D03*
X11930000Y25000000D03*
X13730000Y9740000D03*
X13020000Y9030000D03*
X11750000Y24530000D03*
X15910000Y12700000D03*
X11250000Y7260000D03*
X12310000Y8330000D03*
X11610000Y14460000D03*
X11980000Y18850000D03*
X8880000Y15580000D03*
X6160000Y18500000D03*
X6510000Y18140000D03*
X4290000Y17650000D03*
X13760000Y20620000D03*
X13400000Y20270000D03*
X13040000Y19920000D03*
X12690000Y19560000D03*
X12330000Y19210000D03*
X5840000Y17710000D03*
X5100000Y19550000D03*
X2230000Y17530000D03*
X4740000Y19910000D03*
X4390000Y20270000D03*
X4030000Y20620000D03*
X3940000Y21610000D03*
X2230000Y18030000D03*
X13620000Y23550000D03*
X13120000Y23540000D03*
X12640000Y23700000D03*
X7140000Y35230000D03*
X10290000Y32460000D03*
X4090000Y2350000D03*
X8390000Y29490000D03*
X3730000Y2700000D03*
X8010000Y29820000D03*
X4460000Y31360000D03*
X13800000Y18240000D03*
X8130000Y15720000D03*
X4960000Y31370000D03*
X11270000Y18140000D03*
X11620000Y18500000D03*
X13760000Y28550000D03*
X13680000Y33010000D03*
X5130000Y7440000D03*
X13790000Y8980000D03*
X7040000Y2000000D03*
X13700000Y10420000D03*
X13680000Y31610000D03*
X14100000Y25860000D03*
X10150000Y28620000D03*
X13680000Y32310000D03*
X13210000Y24990000D03*
X8410000Y28810000D03*
X3040000Y5470000D03*
X7400000Y2350000D03*
X3350000Y7910000D03*
X10760000Y28560000D03*
X10190000Y15180000D03*
X5450000Y23970000D03*
X5470000Y13050000D03*
X5080000Y23630000D03*
X10370000Y28170000D03*
X4400000Y9390000D03*
X10080000Y27760000D03*
X4760000Y12350000D03*
X4750000Y9030000D03*
X10040000Y26280000D03*
X5820000Y7970000D03*
X10400000Y25930000D03*
X6690000Y14300000D03*
X5980000Y13590000D03*
X9830000Y15530000D03*
X5800000Y24330000D03*
X10540000Y14820000D03*
X6160000Y24680000D03*
X10900000Y14470000D03*
X6870000Y25400000D03*
X11250000Y14110000D03*
X7570000Y26090000D03*
X11970000Y13410000D03*
X6520000Y25040000D03*
X6420000Y7280000D03*
X7690000Y26850000D03*
X12320000Y13050000D03*
D15*
X8890000Y12550000D02*
X9070000Y12730000D01*
X9070000Y13204077D02*
X8380883Y13893194D01*
X9070000Y12730000D02*
X9070000Y13204077D01*
D16*
X7090000Y21770000D02*
X7090000Y22610000D01*
X6910000Y21590000D02*
X7090000Y21770000D01*
X7090000Y15590000D02*
X7090000Y16710000D01*
X14290000Y22610000D02*
X13890000Y22610000D01*
X14290000Y22610000D02*
X14290000Y20440000D01*
X12130000Y18280000D02*
X12130000Y17700000D01*
X14290000Y20440000D02*
X12130000Y18280000D01*
D15*
X10380000Y33780000D02*
X11990000Y33780000D01*
X8890000Y35270000D02*
X10380000Y33780000D01*
X8890000Y38640000D02*
X8890000Y35270000D01*
D16*
X14290000Y23680000D02*
X14290000Y22610000D01*
X13450000Y24520000D02*
X14290000Y23680000D01*
X12867998Y24520000D02*
X13450000Y24520000D01*
X12111001Y24151001D02*
X12498999Y24151001D01*
X12498999Y24151001D02*
X12867998Y24520000D01*
X11490000Y23530000D02*
X12111001Y24151001D01*
X11490000Y22610000D02*
X11490000Y23530000D01*
X11490000Y16710000D02*
X11490000Y17416076D01*
X11793924Y17720000D02*
X12130000Y17720000D01*
X11490000Y17416076D02*
X11793924Y17720000D01*
D17*
X4060000Y33540000D02*
X3560000Y33540000D01*
X4520000Y33080000D02*
X4060000Y33540000D01*
X4520000Y32940000D02*
X4520000Y33080000D01*
X3310000Y31360000D02*
X3810000Y31360000D01*
D16*
X10315923Y6570000D02*
X10550000Y6570000D01*
X9399117Y7486806D02*
X10315923Y6570000D01*
D17*
X5610000Y31360000D02*
X6110000Y31360000D01*
D15*
X4520000Y30410000D02*
X5230000Y30410000D01*
X5610000Y30790000D02*
X5610000Y31360000D01*
X5230000Y30410000D02*
X5610000Y30790000D01*
X7490000Y25450000D02*
X7490000Y22610000D01*
X7150000Y25790000D02*
X7490000Y25450000D01*
X7150000Y25790000D02*
X6240000Y25790000D01*
X10184999Y33385001D02*
X6640000Y36930000D01*
X13864999Y33385001D02*
X10184999Y33385001D01*
X14780000Y32470000D02*
X13864999Y33385001D01*
X6640000Y36930000D02*
X6640000Y38640000D01*
X14780000Y29980000D02*
X15250000Y29510000D01*
X14780000Y32470000D02*
X14780000Y29980000D01*
X11140000Y36880000D02*
X11140000Y38640000D01*
X11550000Y36470000D02*
X11140000Y36880000D01*
X13980000Y36470000D02*
X11550000Y36470000D01*
X15250000Y35200000D02*
X13980000Y36470000D01*
X15250000Y30210000D02*
X15250000Y35200000D01*
X16510000Y24130000D02*
X15020000Y22640000D01*
X15020000Y22640000D02*
X15020000Y20690000D01*
X12630000Y18300000D02*
X12630000Y17700000D01*
X15020000Y20690000D02*
X12630000Y18300000D01*
X16510000Y21590000D02*
X13800000Y18880000D01*
X13800000Y18760000D02*
X13800000Y18880000D01*
X13250000Y7481002D02*
X13250000Y4680000D01*
X14530000Y8761002D02*
X13250000Y7481002D01*
X14530000Y10160000D02*
X14530000Y8761002D01*
X13700000Y10990000D02*
X14530000Y10160000D01*
X12770000Y4200000D02*
X12770000Y2030000D01*
X13250000Y4680000D02*
X12770000Y4200000D01*
X13700000Y10990000D02*
X13700000Y11870000D01*
X10830000Y26850000D02*
X11190000Y26490000D01*
X11190000Y25910000D02*
X10820000Y25540000D01*
X11190000Y26490000D02*
X11190000Y25910000D01*
X12595002Y25470000D02*
X11370000Y25470000D01*
X11370000Y25470000D02*
X11110000Y25210000D01*
X12805001Y25260001D02*
X12595002Y25470000D01*
X12805001Y24899999D02*
X12805001Y25260001D01*
X12515002Y24610000D02*
X12805001Y24899999D01*
X12250000Y24610000D02*
X12515002Y24610000D01*
X10830000Y24930000D02*
X11110000Y25210000D01*
X10830000Y24350000D02*
X10830000Y24930000D01*
X4440000Y7300000D02*
X4440000Y6720000D01*
X4440000Y7300000D02*
X5470000Y8330000D01*
X4030000Y6420000D02*
X4030000Y7590000D01*
X4080000Y6370000D02*
X4030000Y6420000D01*
X5110000Y8670000D02*
X5110000Y8680000D01*
X4030000Y7590000D02*
X5110000Y8670000D01*
X2295001Y33264999D02*
X1270000Y34290000D01*
X2295001Y30934441D02*
X2295001Y33264999D01*
X2700010Y28634268D02*
X2700010Y30529432D01*
X9040000Y26947166D02*
X8157186Y27829980D01*
X9040000Y24070000D02*
X9040000Y26947166D01*
X9270000Y23480000D02*
X9270000Y23840000D01*
X2700010Y30529432D02*
X2295001Y30934441D01*
X3504297Y27829981D02*
X2700010Y28634268D01*
X8157186Y27829980D02*
X3504297Y27829981D01*
X9270000Y23840000D02*
X9040000Y24070000D01*
X9090000Y23300000D02*
X9270000Y23480000D01*
X9090000Y22610000D02*
X9090000Y23300000D01*
X8690000Y23300000D02*
X8514999Y23475001D01*
X8690000Y22610000D02*
X8690000Y23300000D01*
X1270000Y31535164D02*
X1270000Y31750000D01*
X2400000Y30405164D02*
X1270000Y31535164D01*
X2400000Y28510000D02*
X2400000Y30405164D01*
X3380030Y27529972D02*
X2400000Y28510000D01*
X8740000Y26822888D02*
X8032916Y27529972D01*
X8740000Y24070000D02*
X8740000Y26822888D01*
X8510000Y23840000D02*
X8740000Y24070000D01*
X8032916Y27529972D02*
X3380030Y27529972D01*
X8510000Y23480000D02*
X8510000Y23840000D01*
X7908648Y27229962D02*
X3250038Y27229962D01*
X8439990Y26698620D02*
X7908648Y27229962D01*
X8439990Y24199990D02*
X8439990Y26698620D01*
X8210000Y23970000D02*
X8439990Y24199990D01*
X8290000Y23280000D02*
X8210000Y23360000D01*
X3250038Y27229962D02*
X1270000Y29210000D01*
X8210000Y23360000D02*
X8210000Y23970000D01*
X8290000Y22610000D02*
X8290000Y23280000D01*
X7314999Y26669999D02*
X1270000Y26670000D01*
X7519997Y26465001D02*
X7314999Y26669999D01*
X7904999Y26465001D02*
X7519997Y26465001D01*
X8139980Y24324258D02*
X8139980Y26230020D01*
X7890000Y24074278D02*
X8139980Y24324258D01*
X8139980Y26230020D02*
X7904999Y26465001D01*
X7890000Y22610000D02*
X7890000Y24074278D01*
X4290000Y23450000D02*
X4290000Y22610000D01*
X3850000Y23890000D02*
X4290000Y23450000D01*
X2970000Y23890000D02*
X3850000Y23890000D01*
X2730000Y24130000D02*
X2970000Y23890000D01*
X1270000Y24130000D02*
X2730000Y24130000D01*
X12690000Y16710000D02*
X12690000Y15780000D01*
X12690000Y15780000D02*
X13540000Y14930000D01*
X13540000Y14930000D02*
X14280000Y14930000D01*
X16510000Y11430000D02*
X15300000Y12640000D01*
X15300000Y13910000D02*
X14280000Y14930000D01*
X15300000Y12640000D02*
X15300000Y13910000D01*
X13410000Y14620000D02*
X14160000Y14620000D01*
X12290000Y15740000D02*
X13410000Y14620000D01*
X12290000Y16710000D02*
X12290000Y15740000D01*
X16510000Y8890000D02*
X15730000Y9670000D01*
X15730000Y9670000D02*
X15730000Y10670000D01*
X15730000Y10670000D02*
X14990000Y11410000D01*
X14990000Y13790000D02*
X14160000Y14620000D01*
X14990000Y11410000D02*
X14990000Y13790000D01*
X15425021Y7434979D02*
X16510000Y6350000D01*
X13280000Y14310000D02*
X14030000Y14310000D01*
X11890000Y15700000D02*
X13280000Y14310000D01*
X11890000Y16710000D02*
X11890000Y15700000D01*
X15425021Y7434979D02*
X15425021Y10544979D01*
X15425021Y10544979D02*
X14690000Y11280000D01*
X14690000Y13650000D02*
X14030000Y14310000D01*
X14690000Y11280000D02*
X14690000Y13650000D01*
X15125011Y10424989D02*
X15125011Y5194989D01*
X14390000Y11160000D02*
X15125011Y10424989D01*
X14390000Y12670000D02*
X14390000Y11160000D01*
X11090000Y15970000D02*
X14390000Y12670000D01*
X15125011Y5194989D02*
X16510000Y3810000D01*
X11090000Y16710000D02*
X11090000Y15970000D01*
X14830000Y2950000D02*
X16510000Y1270000D01*
X14830000Y10280000D02*
X14830000Y2950000D01*
X14080000Y11030000D02*
X14830000Y10280000D01*
X14080000Y12550000D02*
X14080000Y11030000D01*
X10690000Y15940000D02*
X14080000Y12550000D01*
X10690000Y16710000D02*
X10690000Y15940000D01*
X2660000Y5200000D02*
X2660000Y8275722D01*
X1270000Y3810000D02*
X2660000Y5200000D01*
X6690000Y16710000D02*
X6690000Y15777558D01*
X6690000Y15777558D02*
X3069980Y12157538D01*
X3069980Y8685702D02*
X2660000Y8275722D01*
X3069980Y12157538D02*
X3069980Y8685702D01*
X2350000Y7430000D02*
X2350000Y8390000D01*
X1270000Y6350000D02*
X2350000Y7430000D01*
X6290000Y16710000D02*
X6290000Y15801836D01*
X6290000Y15801836D02*
X2769970Y12281806D01*
X2769970Y8809970D02*
X2350000Y8390000D01*
X2769970Y12281806D02*
X2769970Y8809970D01*
X3890000Y22610000D02*
X3890000Y23430000D01*
X3890000Y23430000D02*
X3730000Y23590000D01*
X3270000Y23590000D02*
X3730000Y23590000D01*
X1270000Y21590000D02*
X3270000Y23590000D01*
X5890000Y16710000D02*
X5890000Y15826114D01*
X5890000Y15826114D02*
X2469960Y12406074D01*
X2469960Y10089960D02*
X1270000Y8890000D01*
X2469960Y12406074D02*
X2469960Y10089960D01*
X5490000Y16710000D02*
X5490000Y15855722D01*
X1270000Y11630392D02*
X1270000Y11430000D01*
X3424999Y13785391D02*
X1270000Y11630392D01*
X3424999Y14994999D02*
X3424999Y13785391D01*
X3930000Y15500000D02*
X3424999Y14994999D01*
X5134278Y15500000D02*
X5490000Y15855722D01*
X3930000Y15500000D02*
X5134278Y15500000D01*
X3080000Y15780000D02*
X1270000Y13970000D01*
X5090000Y15880000D02*
X4990000Y15780000D01*
X5090000Y16710000D02*
X5090000Y15880000D01*
X4990000Y15780000D02*
X3080000Y15780000D01*
X3490000Y16710000D02*
X2880000Y16710000D01*
X2680000Y16510000D02*
X1270000Y16510000D01*
X2880000Y16710000D02*
X2680000Y16510000D01*
X4690000Y21820000D02*
X4690000Y22610000D01*
X3190000Y20320000D02*
X4690000Y21820000D01*
X2540000Y20320000D02*
X1270000Y19050000D01*
X3190000Y20320000D02*
X2540000Y20320000D01*
X13890000Y17700000D02*
X13890000Y16710000D01*
X15240000Y19050000D02*
X16510000Y19050000D01*
X13890000Y17700000D02*
X15240000Y19050000D01*
X13490000Y15880000D02*
X13490000Y16710000D01*
X13820000Y15550000D02*
X13490000Y15880000D01*
X15550000Y15550000D02*
X13820000Y15550000D01*
X16510000Y16510000D02*
X15550000Y15550000D01*
X13090000Y15840000D02*
X13090000Y16710000D01*
X13690000Y15240000D02*
X13090000Y15840000D01*
X15240000Y15240000D02*
X13690000Y15240000D01*
X16510000Y13970000D02*
X15240000Y15240000D01*
X12290000Y8350000D02*
X12290000Y8330000D01*
X13414999Y8878565D02*
X12866434Y8330000D01*
X13414999Y9385001D02*
X13414999Y8878565D01*
X13324999Y9475001D02*
X13414999Y9385001D01*
X13324999Y12050001D02*
X13324999Y9475001D01*
X13519999Y12245001D02*
X13324999Y12050001D01*
X13520000Y12550000D02*
X13519999Y12245001D01*
X12866434Y8330000D02*
X12310000Y8330000D01*
X11610000Y14460000D02*
X13520000Y12550000D01*
X9490000Y17730000D02*
X9490000Y16710000D01*
X10640000Y18880000D02*
X9490000Y17730000D01*
X11950000Y18880000D02*
X11980000Y18850000D01*
X10640000Y18880000D02*
X11950000Y18880000D01*
X9090000Y15790000D02*
X9090000Y16710000D01*
X8880000Y15580000D02*
X9090000Y15790000D01*
X8690000Y17780000D02*
X8690000Y16710000D01*
X6175001Y18515001D02*
X6160000Y18500000D01*
X7954999Y18515001D02*
X6175001Y18515001D01*
X8690000Y17780000D02*
X7954999Y18515001D01*
X8290000Y17690000D02*
X8290000Y16710000D01*
X6535001Y18165001D02*
X6510000Y18140000D01*
X7814999Y18165001D02*
X6535001Y18165001D01*
X8290000Y17690000D02*
X7814999Y18165001D01*
X4290000Y17660000D02*
X4290000Y16710000D01*
X13720000Y20660000D02*
X13760000Y20620000D01*
X12290000Y21780000D02*
X13410000Y20660000D01*
X13410000Y20660000D02*
X13720000Y20660000D01*
X12290000Y22610000D02*
X12290000Y21780000D01*
X11890000Y21780000D02*
X13400000Y20270000D01*
X11890000Y22610000D02*
X11890000Y21780000D01*
X11090000Y21920000D02*
X11090000Y22610000D01*
X13040000Y19970000D02*
X11090000Y21920000D01*
X13040000Y19920000D02*
X13040000Y19970000D01*
X10510000Y21404998D02*
X12324998Y19590000D01*
X10690000Y21920000D02*
X10510000Y21740000D01*
X10510000Y21740000D02*
X10510000Y21404998D01*
X10690000Y22610000D02*
X10690000Y21920000D01*
X12660000Y19590000D02*
X12690000Y19560000D01*
X12324998Y19590000D02*
X12660000Y19590000D01*
X12280000Y19210000D02*
X12330000Y19210000D01*
X10230000Y21260000D02*
X12280000Y19210000D01*
X10230000Y21850000D02*
X10230000Y21260000D01*
X10290000Y21910000D02*
X10230000Y21850000D01*
X10290000Y22610000D02*
X10290000Y21910000D01*
X5350000Y18200000D02*
X5840000Y17710000D01*
X5350000Y19110000D02*
X5350000Y18200000D01*
X6530000Y20290000D02*
X5350000Y19110000D01*
X6530000Y21750000D02*
X6530000Y20290000D01*
X6690000Y21910000D02*
X6530000Y21750000D01*
X6690000Y22610000D02*
X6690000Y21910000D01*
X6220000Y20670000D02*
X5100000Y19550000D01*
X6220000Y21820000D02*
X6220000Y20670000D01*
X6290000Y21890000D02*
X6220000Y21820000D01*
X6290000Y22610000D02*
X6290000Y21890000D01*
X3890000Y17600000D02*
X3890000Y16710000D01*
X3765000Y17725000D02*
X3890000Y17600000D01*
X2200000Y17530000D02*
X2240000Y17530000D01*
X2230000Y17530000D02*
X2280000Y17530000D01*
X2475000Y17725000D02*
X3765000Y17725000D01*
X2280000Y17530000D02*
X2475000Y17725000D01*
X5890000Y21060000D02*
X5890000Y22610000D01*
X5890000Y21060000D02*
X4740000Y19910000D01*
X5490000Y21370000D02*
X5490000Y22610000D01*
X5490000Y21370000D02*
X4390000Y20270000D01*
X5090000Y21680000D02*
X5090000Y22610000D01*
X5090000Y21680000D02*
X4030000Y20620000D01*
X3490000Y21760000D02*
X3490000Y22610000D01*
X3640000Y21610000D02*
X3950000Y21610000D01*
X3490000Y21760000D02*
X3640000Y21610000D01*
X4690000Y17820000D02*
X4690000Y16710000D01*
X4480000Y18030000D02*
X4690000Y17820000D01*
X4480000Y18030000D02*
X2230000Y18030000D01*
X13490000Y23420000D02*
X13490000Y22610000D01*
X13620000Y23550000D02*
X13490000Y23420000D01*
X13090000Y23510000D02*
X13120000Y23540000D01*
X13090000Y22610000D02*
X13090000Y23510000D01*
X12690000Y23650000D02*
X12640000Y23700000D01*
X12690000Y22610000D02*
X12690000Y23650000D01*
X5360000Y2570000D02*
X4310000Y2570000D01*
X4310000Y2570000D02*
X4090000Y2350000D01*
X3940000Y3950000D02*
X3940000Y2900000D01*
X3930000Y2900000D02*
X3730000Y2700000D01*
X3940000Y2900000D02*
X3930000Y2900000D01*
D17*
X4520000Y31420000D02*
X4460000Y31360000D01*
X4520000Y31920000D02*
X4520000Y31420000D01*
X4950000Y31360000D02*
X4960000Y31370000D01*
X4460000Y31360000D02*
X4950000Y31360000D01*
D16*
X7890000Y15960000D02*
X8130000Y15720000D01*
X7890000Y16710000D02*
X7890000Y15960000D01*
D15*
X3000020Y30653700D02*
X2609989Y31043731D01*
X2609989Y35490011D02*
X1270000Y36830000D01*
X3000020Y28758536D02*
X3000020Y30653700D01*
X3628566Y28129990D02*
X3000020Y28758536D01*
X8281454Y28129990D02*
X3628566Y28129990D01*
X9340010Y27071434D02*
X8281454Y28129990D01*
X9340010Y24195712D02*
X9340010Y27071434D01*
X9580000Y23955722D02*
X9340010Y24195712D01*
X2609989Y31043731D02*
X2609989Y35490011D01*
X9580000Y23390000D02*
X9580000Y23955722D01*
X9490000Y23300000D02*
X9580000Y23390000D01*
X9490000Y22610000D02*
X9490000Y23300000D01*
X2909999Y31167999D02*
X2909999Y37730001D01*
X2909999Y37730001D02*
X1270000Y39370000D01*
X3300030Y28882804D02*
X3300030Y30777968D01*
X8405722Y28430000D02*
X3752834Y28430000D01*
X3300030Y30777968D02*
X2909999Y31167999D01*
X3752834Y28430000D02*
X3300030Y28882804D01*
X9640020Y24319980D02*
X9640020Y27195702D01*
X9890000Y24070000D02*
X9640020Y24319980D01*
X9640020Y27195702D02*
X8405722Y28430000D01*
X9890000Y22610000D02*
X9890000Y24070000D01*
X9890000Y17700000D02*
X9890000Y16710000D01*
X10330000Y18140000D02*
X11270000Y18140000D01*
X9890000Y17700000D02*
X10330000Y18140000D01*
X10290000Y16710000D02*
X10290000Y17560000D01*
X10290000Y17560000D02*
X10494999Y17764999D01*
X11450001Y17764999D02*
X11645001Y17959999D01*
X10494999Y17764999D02*
X11450001Y17764999D01*
X11645001Y18474999D02*
X11620000Y18500000D01*
X11645001Y17959999D02*
X11645001Y18474999D01*
X13210000Y29080000D02*
X13210000Y32540000D01*
X13210000Y32540000D02*
X13680000Y33010000D01*
X13750000Y28540000D02*
X13210000Y29080000D01*
X7150000Y5420000D02*
X5130000Y7440000D01*
X10370000Y5420000D02*
X7150000Y5420000D01*
X13790000Y8840000D02*
X10370000Y5420000D01*
X13790000Y8980000D02*
X13790000Y8840000D01*
X6950000Y2090000D02*
X7040000Y2000000D01*
X6950000Y2610000D02*
X6950000Y2090000D01*
X2970000Y6590000D02*
X6950000Y2610000D01*
X3369990Y12033270D02*
X3369990Y8549990D01*
X6536720Y15200000D02*
X3369990Y12033270D01*
X2970000Y8150000D02*
X2970000Y6590000D01*
X7255002Y15200000D02*
X6536720Y15200000D01*
X3369990Y8549990D02*
X2970000Y8150000D01*
X7490000Y15434998D02*
X7255002Y15200000D01*
X7490000Y16710000D02*
X7490000Y15434998D01*
X9770000Y4398998D02*
X9770000Y2030000D01*
X14255001Y8883999D02*
X9770000Y4398998D01*
X14255001Y9864999D02*
X14255001Y8883999D01*
X13700000Y10420000D02*
X14255001Y9864999D01*
X12130000Y29110000D02*
X13490000Y27750000D01*
X13490000Y27750000D02*
X13490000Y26470000D01*
X13490000Y26470000D02*
X14100000Y25860000D01*
X14180000Y31110000D02*
X13680000Y31610000D01*
X14180000Y25940000D02*
X14180000Y31110000D01*
X14100000Y25860000D02*
X14180000Y25940000D01*
X10640000Y29110000D02*
X10150000Y28620000D01*
X12130000Y29110000D02*
X10640000Y29110000D01*
X13930000Y24990000D02*
X13210000Y24990000D01*
X14480000Y25540000D02*
X13930000Y24990000D01*
X14480000Y31510000D02*
X14480000Y25540000D01*
X13680000Y32310000D02*
X14480000Y31510000D01*
X8450000Y28810000D02*
X8410000Y28810000D01*
X10910000Y27910000D02*
X10330000Y27330000D01*
X12910000Y27910000D02*
X10910000Y27910000D01*
X9930000Y27330000D02*
X8450000Y28810000D01*
X10330000Y27330000D02*
X9930000Y27330000D01*
X13210000Y27610000D02*
X12910000Y27910000D01*
X13210000Y24990000D02*
X13210000Y27610000D01*
X3640000Y5470000D02*
X3040000Y5470000D01*
X6620000Y2490000D02*
X3640000Y5470000D01*
X7220001Y1624999D02*
X6845001Y1624999D01*
X6620000Y1850000D02*
X6620000Y2490000D01*
X6845001Y1624999D02*
X6620000Y1850000D01*
X7420000Y1824998D02*
X7220001Y1624999D01*
X7420000Y2330000D02*
X7400000Y2350000D01*
X7420000Y1824998D02*
X7420000Y2330000D01*
X3670000Y11909002D02*
X3670000Y8230000D01*
X3670000Y8230000D02*
X3350000Y7910000D01*
X5813499Y14052501D02*
X3670000Y11909002D01*
X6227499Y14052501D02*
X5813499Y14052501D01*
X6430000Y13850000D02*
X6227499Y14052501D01*
X6800000Y13850000D02*
X6430000Y13850000D01*
X7840000Y14890000D02*
X6800000Y13850000D01*
X9220000Y14890000D02*
X7840000Y14890000D01*
X9430000Y15100000D02*
X9220000Y14890000D01*
X10110000Y15100000D02*
X9430000Y15100000D01*
X10190000Y15180000D02*
X10110000Y15100000D01*
X5660000Y12860000D02*
X5660000Y12660000D01*
X5660000Y12660000D02*
X5030000Y12030000D01*
X5030000Y11855923D02*
X5686806Y11199117D01*
X5030000Y12030000D02*
X5030000Y11855923D01*
X5660000Y12860000D02*
X5470000Y13050000D01*
X6960000Y8880000D02*
X6960000Y10070000D01*
X6960000Y10070000D02*
X7570000Y10680000D01*
X9830000Y15530000D02*
X9450000Y15530000D01*
X9450000Y15530000D02*
X9095000Y15175000D01*
X9095000Y15175000D02*
X7675000Y15175000D01*
X6800000Y14300000D02*
X6690000Y14300000D01*
X7675000Y15175000D02*
X6800000Y14300000D01*
X7570000Y12000000D02*
X5980000Y13590000D01*
X7570000Y10680000D02*
X7570000Y12000000D01*
X7400000Y8440000D02*
X6960000Y8880000D01*
X9992310Y8080000D02*
X9680000Y8080000D01*
X9680000Y8080000D02*
X9320000Y8440000D01*
X9320000Y8440000D02*
X7400000Y8440000D01*
X10297142Y8384832D02*
X9992310Y8080000D01*
X8910000Y11568026D02*
X7482858Y12995168D01*
X7270000Y9625002D02*
X8910000Y11265002D01*
X8910000Y11265002D02*
X8910000Y11568026D01*
X7270000Y9040000D02*
X7270000Y9625002D01*
X7420000Y8890000D02*
X7270000Y9040000D01*
X7830000Y8890000D02*
X7420000Y8890000D01*
X9365000Y10425000D02*
X7830000Y8890000D01*
X9365000Y13655000D02*
X9365000Y10425000D01*
X9130000Y13890000D02*
X9365000Y13655000D01*
X9130000Y14390000D02*
X9130000Y13890000D01*
X9540000Y14800000D02*
X9130000Y14390000D01*
X10520000Y14800000D02*
X9540000Y14800000D01*
X9820000Y12680000D02*
X9820000Y12454077D01*
X9999341Y12859339D02*
X9820000Y12680000D01*
X10211473Y12859339D02*
X9999341Y12859339D01*
X10104173Y14451562D02*
X10104173Y14239430D01*
X11414786Y12928818D02*
X11414786Y12716686D01*
X10778390Y12292422D02*
X10211473Y12859339D01*
X9503133Y13991943D02*
X10990522Y12504554D01*
X10316305Y14451562D02*
X10104173Y14451562D01*
X10104173Y14239430D02*
X11414786Y12928818D01*
X11060000Y13920000D02*
X10847867Y13920000D01*
X11414786Y12716686D02*
X11202654Y12716686D01*
X9715265Y14204075D02*
X9503133Y14204075D01*
X10847867Y13920000D02*
X10316305Y14451562D01*
X11202654Y12716686D02*
X9715265Y14204075D01*
X9820000Y12454077D02*
X12093194Y10180883D01*
X10990522Y12292422D02*
X10778390Y12292422D01*
X9503133Y14204075D02*
X9503133Y13991943D01*
X10990522Y12504554D02*
X10990522Y12292422D01*
X11060000Y13920000D02*
X11250000Y14110000D01*
X6230000Y11742310D02*
X6230000Y11530000D01*
X6584832Y12097142D02*
X6230000Y11742310D01*
X6230000Y11530000D02*
X6620000Y11140000D01*
X6620000Y7480000D02*
X6420000Y7280000D01*
X6620000Y11140000D02*
X6620000Y7480000D01*
X12528217Y11848180D02*
X11924263Y12452134D01*
X12528217Y11636047D02*
X12528217Y11848180D01*
X12316085Y11636047D02*
X12528217Y11636047D01*
X11712132Y12240000D02*
X12316085Y11636047D01*
X11500000Y12240000D02*
X11712132Y12240000D01*
X10353025Y10125001D02*
X9649999Y10125001D01*
X9649999Y10125001D02*
X9450000Y9925002D01*
X9450000Y9925002D02*
X9450000Y9580000D01*
X9450000Y9580000D02*
X9670000Y9360000D01*
X11710000Y8310000D02*
X13040000Y9640000D01*
X10230000Y9360000D02*
X11280000Y8310000D01*
X13040000Y9980000D02*
X11280000Y11740000D01*
X11280000Y8310000D02*
X11710000Y8310000D01*
X11195168Y9282858D02*
X10353025Y10125001D01*
X13040000Y9640000D02*
X13040000Y9980000D01*
X11280000Y11740000D02*
X11280000Y12020000D01*
X9670000Y9360000D02*
X10230000Y9360000D01*
X11280000Y12020000D02*
X11500000Y12240000D01*
X11924263Y12452134D02*
X11924263Y12654263D01*
X11924263Y12654263D02*
X12320000Y13050000D01*
M02*
