G04 #@! TF.GenerationSoftware,KiCad,Pcbnew,5.1.9-1.fc33*
G04 #@! TF.CreationDate,2021-01-17T22:49:11+01:00*
G04 #@! TF.ProjectId,reDIP-sx,72654449-502d-4737-982e-6b696361645f,0.1*
G04 #@! TF.SameCoordinates,PX5e28010PY8011a50*
G04 #@! TF.FileFunction,OtherDrawing,Comment*
%FSLAX46Y46*%
G04 Gerber Fmt 4.6, Leading zero omitted, Abs format (unit mm)*
G04 Created by KiCad (PCBNEW 5.1.9-1.fc33) date 2021-01-17 22:49:11*
%MOMM*%
%LPD*%
G01*
G04 APERTURE LIST*
%ADD10C,0.150000*%
G04 APERTURE END LIST*
D10*
X-4734286Y17639524D02*
X-4067620Y17639524D01*
X-5115239Y17401429D02*
X-4400953Y17163334D01*
X-4400953Y17782381D01*
X-5067620Y18353810D02*
X-5067620Y18449048D01*
X-5020000Y18544286D01*
X-4972381Y18591905D01*
X-4877143Y18639524D01*
X-4686667Y18687143D01*
X-4448572Y18687143D01*
X-4258096Y18639524D01*
X-4162858Y18591905D01*
X-4115239Y18544286D01*
X-4067620Y18449048D01*
X-4067620Y18353810D01*
X-4115239Y18258572D01*
X-4162858Y18210953D01*
X-4258096Y18163334D01*
X-4448572Y18115715D01*
X-4686667Y18115715D01*
X-4877143Y18163334D01*
X-4972381Y18210953D01*
X-5020000Y18258572D01*
X-5067620Y18353810D01*
X-4162858Y19115715D02*
X-4115239Y19163334D01*
X-4067620Y19115715D01*
X-4115239Y19068096D01*
X-4162858Y19115715D01*
X-4067620Y19115715D01*
X-5067620Y20020477D02*
X-5067620Y19830000D01*
X-5020000Y19734762D01*
X-4972381Y19687143D01*
X-4829524Y19591905D01*
X-4639048Y19544286D01*
X-4258096Y19544286D01*
X-4162858Y19591905D01*
X-4115239Y19639524D01*
X-4067620Y19734762D01*
X-4067620Y19925239D01*
X-4115239Y20020477D01*
X-4162858Y20068096D01*
X-4258096Y20115715D01*
X-4496191Y20115715D01*
X-4591429Y20068096D01*
X-4639048Y20020477D01*
X-4686667Y19925239D01*
X-4686667Y19734762D01*
X-4639048Y19639524D01*
X-4591429Y19591905D01*
X-4496191Y19544286D01*
X-4734286Y20972858D02*
X-4067620Y20972858D01*
X-5115239Y20734762D02*
X-4400953Y20496667D01*
X-4400953Y21115715D01*
X-4067620Y22258572D02*
X-4734286Y22258572D01*
X-4639048Y22258572D02*
X-4686667Y22306191D01*
X-4734286Y22401429D01*
X-4734286Y22544286D01*
X-4686667Y22639524D01*
X-4591429Y22687143D01*
X-4067620Y22687143D01*
X-4591429Y22687143D02*
X-4686667Y22734762D01*
X-4734286Y22830000D01*
X-4734286Y22972858D01*
X-4686667Y23068096D01*
X-4591429Y23115715D01*
X-4067620Y23115715D01*
X-4067620Y23591905D02*
X-4734286Y23591905D01*
X-4639048Y23591905D02*
X-4686667Y23639524D01*
X-4734286Y23734762D01*
X-4734286Y23877620D01*
X-4686667Y23972858D01*
X-4591429Y24020477D01*
X-4067620Y24020477D01*
X-4591429Y24020477D02*
X-4686667Y24068096D01*
X-4734286Y24163334D01*
X-4734286Y24306191D01*
X-4686667Y24401429D01*
X-4591429Y24449048D01*
X-4067620Y24449048D01*
X-2000000Y0D02*
X-4000000Y0D01*
X-2000000Y40640000D02*
X-4000000Y40640000D01*
X-3000000Y0D02*
X-3000000Y40640000D01*
X6564761Y-4952380D02*
X5993333Y-4952380D01*
X6279047Y-4952380D02*
X6279047Y-3952380D01*
X6183809Y-4095238D01*
X6088571Y-4190476D01*
X5993333Y-4238095D01*
X6898095Y-3952380D02*
X7564761Y-3952380D01*
X7136190Y-4952380D01*
X7945714Y-4857142D02*
X7993333Y-4904761D01*
X7945714Y-4952380D01*
X7898095Y-4904761D01*
X7945714Y-4857142D01*
X7945714Y-4952380D01*
X8326666Y-3952380D02*
X8993333Y-3952380D01*
X8564761Y-4952380D01*
X9517142Y-4380952D02*
X9421904Y-4333333D01*
X9374285Y-4285714D01*
X9326666Y-4190476D01*
X9326666Y-4142857D01*
X9374285Y-4047619D01*
X9421904Y-4000000D01*
X9517142Y-3952380D01*
X9707619Y-3952380D01*
X9802857Y-4000000D01*
X9850476Y-4047619D01*
X9898095Y-4142857D01*
X9898095Y-4190476D01*
X9850476Y-4285714D01*
X9802857Y-4333333D01*
X9707619Y-4380952D01*
X9517142Y-4380952D01*
X9421904Y-4428571D01*
X9374285Y-4476190D01*
X9326666Y-4571428D01*
X9326666Y-4761904D01*
X9374285Y-4857142D01*
X9421904Y-4904761D01*
X9517142Y-4952380D01*
X9707619Y-4952380D01*
X9802857Y-4904761D01*
X9850476Y-4857142D01*
X9898095Y-4761904D01*
X9898095Y-4571428D01*
X9850476Y-4476190D01*
X9802857Y-4428571D01*
X9707619Y-4380952D01*
X11088571Y-4952380D02*
X11088571Y-4285714D01*
X11088571Y-4380952D02*
X11136190Y-4333333D01*
X11231428Y-4285714D01*
X11374285Y-4285714D01*
X11469523Y-4333333D01*
X11517142Y-4428571D01*
X11517142Y-4952380D01*
X11517142Y-4428571D02*
X11564761Y-4333333D01*
X11660000Y-4285714D01*
X11802857Y-4285714D01*
X11898095Y-4333333D01*
X11945714Y-4428571D01*
X11945714Y-4952380D01*
X12421904Y-4952380D02*
X12421904Y-4285714D01*
X12421904Y-4380952D02*
X12469523Y-4333333D01*
X12564761Y-4285714D01*
X12707619Y-4285714D01*
X12802857Y-4333333D01*
X12850476Y-4428571D01*
X12850476Y-4952380D01*
X12850476Y-4428571D02*
X12898095Y-4333333D01*
X12993333Y-4285714D01*
X13136190Y-4285714D01*
X13231428Y-4333333D01*
X13279047Y-4428571D01*
X13279047Y-4952380D01*
X0Y-3000000D02*
X17780000Y-3000000D01*
X17780000Y-2000000D02*
X17780000Y-4000000D01*
X0Y-2000000D02*
X0Y-4000000D01*
M02*
