G04 #@! TF.GenerationSoftware,KiCad,Pcbnew,5.1.8-1.fc33*
G04 #@! TF.CreationDate,2020-12-01T15:42:06+01:00*
G04 #@! TF.ProjectId,reDIP-sx,72654449-502d-4737-982e-6b696361645f,0.1*
G04 #@! TF.SameCoordinates,PX5e28010PY8011a50*
G04 #@! TF.FileFunction,Soldermask,Bot*
G04 #@! TF.FilePolarity,Negative*
%FSLAX46Y46*%
G04 Gerber Fmt 4.6, Leading zero omitted, Abs format (unit mm)*
G04 Created by KiCad (PCBNEW 5.1.8-1.fc33) date 2020-12-01 15:42:06*
%MOMM*%
%LPD*%
G01*
G04 APERTURE LIST*
%ADD10O,1.050000X2.350000*%
%ADD11O,1.050000X2.050000*%
%ADD12O,0.650000X0.650000*%
%ADD13O,0.900000X0.650000*%
%ADD14C,0.400000*%
%ADD15C,1.650000*%
%ADD16C,0.800000*%
G04 APERTURE END LIST*
D10*
X13210000Y38690000D03*
X4570000Y38690000D03*
D11*
X13210000Y34865000D03*
X4570000Y34865000D03*
D12*
X11890000Y35590000D03*
D13*
X5890000Y35590000D03*
G36*
G01*
X3630000Y17365000D02*
X3630000Y16055000D01*
G75*
G02*
X3560000Y15985000I-70000J0D01*
G01*
X3420000Y15985000D01*
G75*
G02*
X3350000Y16055000I0J70000D01*
G01*
X3350000Y17365000D01*
G75*
G02*
X3420000Y17435000I70000J0D01*
G01*
X3560000Y17435000D01*
G75*
G02*
X3630000Y17365000I0J-70000D01*
G01*
G37*
G36*
G01*
X3630000Y23265000D02*
X3630000Y21955000D01*
G75*
G02*
X3560000Y21885000I-70000J0D01*
G01*
X3420000Y21885000D01*
G75*
G02*
X3350000Y21955000I0J70000D01*
G01*
X3350000Y23265000D01*
G75*
G02*
X3420000Y23335000I70000J0D01*
G01*
X3560000Y23335000D01*
G75*
G02*
X3630000Y23265000I0J-70000D01*
G01*
G37*
G36*
G01*
X4030000Y17365000D02*
X4030000Y16055000D01*
G75*
G02*
X3960000Y15985000I-70000J0D01*
G01*
X3820000Y15985000D01*
G75*
G02*
X3750000Y16055000I0J70000D01*
G01*
X3750000Y17365000D01*
G75*
G02*
X3820000Y17435000I70000J0D01*
G01*
X3960000Y17435000D01*
G75*
G02*
X4030000Y17365000I0J-70000D01*
G01*
G37*
G36*
G01*
X4030000Y23265000D02*
X4030000Y21955000D01*
G75*
G02*
X3960000Y21885000I-70000J0D01*
G01*
X3820000Y21885000D01*
G75*
G02*
X3750000Y21955000I0J70000D01*
G01*
X3750000Y23265000D01*
G75*
G02*
X3820000Y23335000I70000J0D01*
G01*
X3960000Y23335000D01*
G75*
G02*
X4030000Y23265000I0J-70000D01*
G01*
G37*
G36*
G01*
X4430000Y17365000D02*
X4430000Y16055000D01*
G75*
G02*
X4360000Y15985000I-70000J0D01*
G01*
X4220000Y15985000D01*
G75*
G02*
X4150000Y16055000I0J70000D01*
G01*
X4150000Y17365000D01*
G75*
G02*
X4220000Y17435000I70000J0D01*
G01*
X4360000Y17435000D01*
G75*
G02*
X4430000Y17365000I0J-70000D01*
G01*
G37*
G36*
G01*
X4430000Y23265000D02*
X4430000Y21955000D01*
G75*
G02*
X4360000Y21885000I-70000J0D01*
G01*
X4220000Y21885000D01*
G75*
G02*
X4150000Y21955000I0J70000D01*
G01*
X4150000Y23265000D01*
G75*
G02*
X4220000Y23335000I70000J0D01*
G01*
X4360000Y23335000D01*
G75*
G02*
X4430000Y23265000I0J-70000D01*
G01*
G37*
G36*
G01*
X4830000Y17365000D02*
X4830000Y16055000D01*
G75*
G02*
X4760000Y15985000I-70000J0D01*
G01*
X4620000Y15985000D01*
G75*
G02*
X4550000Y16055000I0J70000D01*
G01*
X4550000Y17365000D01*
G75*
G02*
X4620000Y17435000I70000J0D01*
G01*
X4760000Y17435000D01*
G75*
G02*
X4830000Y17365000I0J-70000D01*
G01*
G37*
G36*
G01*
X4830000Y23265000D02*
X4830000Y21955000D01*
G75*
G02*
X4760000Y21885000I-70000J0D01*
G01*
X4620000Y21885000D01*
G75*
G02*
X4550000Y21955000I0J70000D01*
G01*
X4550000Y23265000D01*
G75*
G02*
X4620000Y23335000I70000J0D01*
G01*
X4760000Y23335000D01*
G75*
G02*
X4830000Y23265000I0J-70000D01*
G01*
G37*
G36*
G01*
X5230000Y17365000D02*
X5230000Y16055000D01*
G75*
G02*
X5160000Y15985000I-70000J0D01*
G01*
X5020000Y15985000D01*
G75*
G02*
X4950000Y16055000I0J70000D01*
G01*
X4950000Y17365000D01*
G75*
G02*
X5020000Y17435000I70000J0D01*
G01*
X5160000Y17435000D01*
G75*
G02*
X5230000Y17365000I0J-70000D01*
G01*
G37*
G36*
G01*
X5230000Y23265000D02*
X5230000Y21955000D01*
G75*
G02*
X5160000Y21885000I-70000J0D01*
G01*
X5020000Y21885000D01*
G75*
G02*
X4950000Y21955000I0J70000D01*
G01*
X4950000Y23265000D01*
G75*
G02*
X5020000Y23335000I70000J0D01*
G01*
X5160000Y23335000D01*
G75*
G02*
X5230000Y23265000I0J-70000D01*
G01*
G37*
G36*
G01*
X5630000Y17365000D02*
X5630000Y16055000D01*
G75*
G02*
X5560000Y15985000I-70000J0D01*
G01*
X5420000Y15985000D01*
G75*
G02*
X5350000Y16055000I0J70000D01*
G01*
X5350000Y17365000D01*
G75*
G02*
X5420000Y17435000I70000J0D01*
G01*
X5560000Y17435000D01*
G75*
G02*
X5630000Y17365000I0J-70000D01*
G01*
G37*
G36*
G01*
X5630000Y23265000D02*
X5630000Y21955000D01*
G75*
G02*
X5560000Y21885000I-70000J0D01*
G01*
X5420000Y21885000D01*
G75*
G02*
X5350000Y21955000I0J70000D01*
G01*
X5350000Y23265000D01*
G75*
G02*
X5420000Y23335000I70000J0D01*
G01*
X5560000Y23335000D01*
G75*
G02*
X5630000Y23265000I0J-70000D01*
G01*
G37*
G36*
G01*
X6030000Y17365000D02*
X6030000Y16055000D01*
G75*
G02*
X5960000Y15985000I-70000J0D01*
G01*
X5820000Y15985000D01*
G75*
G02*
X5750000Y16055000I0J70000D01*
G01*
X5750000Y17365000D01*
G75*
G02*
X5820000Y17435000I70000J0D01*
G01*
X5960000Y17435000D01*
G75*
G02*
X6030000Y17365000I0J-70000D01*
G01*
G37*
G36*
G01*
X6030000Y23265000D02*
X6030000Y21955000D01*
G75*
G02*
X5960000Y21885000I-70000J0D01*
G01*
X5820000Y21885000D01*
G75*
G02*
X5750000Y21955000I0J70000D01*
G01*
X5750000Y23265000D01*
G75*
G02*
X5820000Y23335000I70000J0D01*
G01*
X5960000Y23335000D01*
G75*
G02*
X6030000Y23265000I0J-70000D01*
G01*
G37*
G36*
G01*
X6430000Y17365000D02*
X6430000Y16055000D01*
G75*
G02*
X6360000Y15985000I-70000J0D01*
G01*
X6220000Y15985000D01*
G75*
G02*
X6150000Y16055000I0J70000D01*
G01*
X6150000Y17365000D01*
G75*
G02*
X6220000Y17435000I70000J0D01*
G01*
X6360000Y17435000D01*
G75*
G02*
X6430000Y17365000I0J-70000D01*
G01*
G37*
G36*
G01*
X6430000Y23265000D02*
X6430000Y21955000D01*
G75*
G02*
X6360000Y21885000I-70000J0D01*
G01*
X6220000Y21885000D01*
G75*
G02*
X6150000Y21955000I0J70000D01*
G01*
X6150000Y23265000D01*
G75*
G02*
X6220000Y23335000I70000J0D01*
G01*
X6360000Y23335000D01*
G75*
G02*
X6430000Y23265000I0J-70000D01*
G01*
G37*
G36*
G01*
X6830000Y17365000D02*
X6830000Y16055000D01*
G75*
G02*
X6760000Y15985000I-70000J0D01*
G01*
X6620000Y15985000D01*
G75*
G02*
X6550000Y16055000I0J70000D01*
G01*
X6550000Y17365000D01*
G75*
G02*
X6620000Y17435000I70000J0D01*
G01*
X6760000Y17435000D01*
G75*
G02*
X6830000Y17365000I0J-70000D01*
G01*
G37*
G36*
G01*
X6830000Y23265000D02*
X6830000Y21955000D01*
G75*
G02*
X6760000Y21885000I-70000J0D01*
G01*
X6620000Y21885000D01*
G75*
G02*
X6550000Y21955000I0J70000D01*
G01*
X6550000Y23265000D01*
G75*
G02*
X6620000Y23335000I70000J0D01*
G01*
X6760000Y23335000D01*
G75*
G02*
X6830000Y23265000I0J-70000D01*
G01*
G37*
G36*
G01*
X7230000Y17365000D02*
X7230000Y16055000D01*
G75*
G02*
X7160000Y15985000I-70000J0D01*
G01*
X7020000Y15985000D01*
G75*
G02*
X6950000Y16055000I0J70000D01*
G01*
X6950000Y17365000D01*
G75*
G02*
X7020000Y17435000I70000J0D01*
G01*
X7160000Y17435000D01*
G75*
G02*
X7230000Y17365000I0J-70000D01*
G01*
G37*
G36*
G01*
X7230000Y23265000D02*
X7230000Y21955000D01*
G75*
G02*
X7160000Y21885000I-70000J0D01*
G01*
X7020000Y21885000D01*
G75*
G02*
X6950000Y21955000I0J70000D01*
G01*
X6950000Y23265000D01*
G75*
G02*
X7020000Y23335000I70000J0D01*
G01*
X7160000Y23335000D01*
G75*
G02*
X7230000Y23265000I0J-70000D01*
G01*
G37*
G36*
G01*
X7630000Y17365000D02*
X7630000Y16055000D01*
G75*
G02*
X7560000Y15985000I-70000J0D01*
G01*
X7420000Y15985000D01*
G75*
G02*
X7350000Y16055000I0J70000D01*
G01*
X7350000Y17365000D01*
G75*
G02*
X7420000Y17435000I70000J0D01*
G01*
X7560000Y17435000D01*
G75*
G02*
X7630000Y17365000I0J-70000D01*
G01*
G37*
G36*
G01*
X7630000Y23265000D02*
X7630000Y21955000D01*
G75*
G02*
X7560000Y21885000I-70000J0D01*
G01*
X7420000Y21885000D01*
G75*
G02*
X7350000Y21955000I0J70000D01*
G01*
X7350000Y23265000D01*
G75*
G02*
X7420000Y23335000I70000J0D01*
G01*
X7560000Y23335000D01*
G75*
G02*
X7630000Y23265000I0J-70000D01*
G01*
G37*
G36*
G01*
X8030000Y17365000D02*
X8030000Y16055000D01*
G75*
G02*
X7960000Y15985000I-70000J0D01*
G01*
X7820000Y15985000D01*
G75*
G02*
X7750000Y16055000I0J70000D01*
G01*
X7750000Y17365000D01*
G75*
G02*
X7820000Y17435000I70000J0D01*
G01*
X7960000Y17435000D01*
G75*
G02*
X8030000Y17365000I0J-70000D01*
G01*
G37*
G36*
G01*
X8030000Y23265000D02*
X8030000Y21955000D01*
G75*
G02*
X7960000Y21885000I-70000J0D01*
G01*
X7820000Y21885000D01*
G75*
G02*
X7750000Y21955000I0J70000D01*
G01*
X7750000Y23265000D01*
G75*
G02*
X7820000Y23335000I70000J0D01*
G01*
X7960000Y23335000D01*
G75*
G02*
X8030000Y23265000I0J-70000D01*
G01*
G37*
G36*
G01*
X8430000Y17365000D02*
X8430000Y16055000D01*
G75*
G02*
X8360000Y15985000I-70000J0D01*
G01*
X8220000Y15985000D01*
G75*
G02*
X8150000Y16055000I0J70000D01*
G01*
X8150000Y17365000D01*
G75*
G02*
X8220000Y17435000I70000J0D01*
G01*
X8360000Y17435000D01*
G75*
G02*
X8430000Y17365000I0J-70000D01*
G01*
G37*
G36*
G01*
X8430000Y23265000D02*
X8430000Y21955000D01*
G75*
G02*
X8360000Y21885000I-70000J0D01*
G01*
X8220000Y21885000D01*
G75*
G02*
X8150000Y21955000I0J70000D01*
G01*
X8150000Y23265000D01*
G75*
G02*
X8220000Y23335000I70000J0D01*
G01*
X8360000Y23335000D01*
G75*
G02*
X8430000Y23265000I0J-70000D01*
G01*
G37*
G36*
G01*
X8830000Y17365000D02*
X8830000Y16055000D01*
G75*
G02*
X8760000Y15985000I-70000J0D01*
G01*
X8620000Y15985000D01*
G75*
G02*
X8550000Y16055000I0J70000D01*
G01*
X8550000Y17365000D01*
G75*
G02*
X8620000Y17435000I70000J0D01*
G01*
X8760000Y17435000D01*
G75*
G02*
X8830000Y17365000I0J-70000D01*
G01*
G37*
G36*
G01*
X8830000Y23265000D02*
X8830000Y21955000D01*
G75*
G02*
X8760000Y21885000I-70000J0D01*
G01*
X8620000Y21885000D01*
G75*
G02*
X8550000Y21955000I0J70000D01*
G01*
X8550000Y23265000D01*
G75*
G02*
X8620000Y23335000I70000J0D01*
G01*
X8760000Y23335000D01*
G75*
G02*
X8830000Y23265000I0J-70000D01*
G01*
G37*
G36*
G01*
X9230000Y17365000D02*
X9230000Y16055000D01*
G75*
G02*
X9160000Y15985000I-70000J0D01*
G01*
X9020000Y15985000D01*
G75*
G02*
X8950000Y16055000I0J70000D01*
G01*
X8950000Y17365000D01*
G75*
G02*
X9020000Y17435000I70000J0D01*
G01*
X9160000Y17435000D01*
G75*
G02*
X9230000Y17365000I0J-70000D01*
G01*
G37*
G36*
G01*
X9230000Y23265000D02*
X9230000Y21955000D01*
G75*
G02*
X9160000Y21885000I-70000J0D01*
G01*
X9020000Y21885000D01*
G75*
G02*
X8950000Y21955000I0J70000D01*
G01*
X8950000Y23265000D01*
G75*
G02*
X9020000Y23335000I70000J0D01*
G01*
X9160000Y23335000D01*
G75*
G02*
X9230000Y23265000I0J-70000D01*
G01*
G37*
G36*
G01*
X9630000Y17365000D02*
X9630000Y16055000D01*
G75*
G02*
X9560000Y15985000I-70000J0D01*
G01*
X9420000Y15985000D01*
G75*
G02*
X9350000Y16055000I0J70000D01*
G01*
X9350000Y17365000D01*
G75*
G02*
X9420000Y17435000I70000J0D01*
G01*
X9560000Y17435000D01*
G75*
G02*
X9630000Y17365000I0J-70000D01*
G01*
G37*
G36*
G01*
X9630000Y23265000D02*
X9630000Y21955000D01*
G75*
G02*
X9560000Y21885000I-70000J0D01*
G01*
X9420000Y21885000D01*
G75*
G02*
X9350000Y21955000I0J70000D01*
G01*
X9350000Y23265000D01*
G75*
G02*
X9420000Y23335000I70000J0D01*
G01*
X9560000Y23335000D01*
G75*
G02*
X9630000Y23265000I0J-70000D01*
G01*
G37*
G36*
G01*
X10030000Y17365000D02*
X10030000Y16055000D01*
G75*
G02*
X9960000Y15985000I-70000J0D01*
G01*
X9820000Y15985000D01*
G75*
G02*
X9750000Y16055000I0J70000D01*
G01*
X9750000Y17365000D01*
G75*
G02*
X9820000Y17435000I70000J0D01*
G01*
X9960000Y17435000D01*
G75*
G02*
X10030000Y17365000I0J-70000D01*
G01*
G37*
G36*
G01*
X10030000Y23265000D02*
X10030000Y21955000D01*
G75*
G02*
X9960000Y21885000I-70000J0D01*
G01*
X9820000Y21885000D01*
G75*
G02*
X9750000Y21955000I0J70000D01*
G01*
X9750000Y23265000D01*
G75*
G02*
X9820000Y23335000I70000J0D01*
G01*
X9960000Y23335000D01*
G75*
G02*
X10030000Y23265000I0J-70000D01*
G01*
G37*
G36*
G01*
X10430000Y17365000D02*
X10430000Y16055000D01*
G75*
G02*
X10360000Y15985000I-70000J0D01*
G01*
X10220000Y15985000D01*
G75*
G02*
X10150000Y16055000I0J70000D01*
G01*
X10150000Y17365000D01*
G75*
G02*
X10220000Y17435000I70000J0D01*
G01*
X10360000Y17435000D01*
G75*
G02*
X10430000Y17365000I0J-70000D01*
G01*
G37*
G36*
G01*
X10430000Y23265000D02*
X10430000Y21955000D01*
G75*
G02*
X10360000Y21885000I-70000J0D01*
G01*
X10220000Y21885000D01*
G75*
G02*
X10150000Y21955000I0J70000D01*
G01*
X10150000Y23265000D01*
G75*
G02*
X10220000Y23335000I70000J0D01*
G01*
X10360000Y23335000D01*
G75*
G02*
X10430000Y23265000I0J-70000D01*
G01*
G37*
G36*
G01*
X10830000Y17365000D02*
X10830000Y16055000D01*
G75*
G02*
X10760000Y15985000I-70000J0D01*
G01*
X10620000Y15985000D01*
G75*
G02*
X10550000Y16055000I0J70000D01*
G01*
X10550000Y17365000D01*
G75*
G02*
X10620000Y17435000I70000J0D01*
G01*
X10760000Y17435000D01*
G75*
G02*
X10830000Y17365000I0J-70000D01*
G01*
G37*
G36*
G01*
X10830000Y23265000D02*
X10830000Y21955000D01*
G75*
G02*
X10760000Y21885000I-70000J0D01*
G01*
X10620000Y21885000D01*
G75*
G02*
X10550000Y21955000I0J70000D01*
G01*
X10550000Y23265000D01*
G75*
G02*
X10620000Y23335000I70000J0D01*
G01*
X10760000Y23335000D01*
G75*
G02*
X10830000Y23265000I0J-70000D01*
G01*
G37*
G36*
G01*
X11230000Y17365000D02*
X11230000Y16055000D01*
G75*
G02*
X11160000Y15985000I-70000J0D01*
G01*
X11020000Y15985000D01*
G75*
G02*
X10950000Y16055000I0J70000D01*
G01*
X10950000Y17365000D01*
G75*
G02*
X11020000Y17435000I70000J0D01*
G01*
X11160000Y17435000D01*
G75*
G02*
X11230000Y17365000I0J-70000D01*
G01*
G37*
G36*
G01*
X11230000Y23265000D02*
X11230000Y21955000D01*
G75*
G02*
X11160000Y21885000I-70000J0D01*
G01*
X11020000Y21885000D01*
G75*
G02*
X10950000Y21955000I0J70000D01*
G01*
X10950000Y23265000D01*
G75*
G02*
X11020000Y23335000I70000J0D01*
G01*
X11160000Y23335000D01*
G75*
G02*
X11230000Y23265000I0J-70000D01*
G01*
G37*
G36*
G01*
X11630000Y17365000D02*
X11630000Y16055000D01*
G75*
G02*
X11560000Y15985000I-70000J0D01*
G01*
X11420000Y15985000D01*
G75*
G02*
X11350000Y16055000I0J70000D01*
G01*
X11350000Y17365000D01*
G75*
G02*
X11420000Y17435000I70000J0D01*
G01*
X11560000Y17435000D01*
G75*
G02*
X11630000Y17365000I0J-70000D01*
G01*
G37*
G36*
G01*
X11630000Y23265000D02*
X11630000Y21955000D01*
G75*
G02*
X11560000Y21885000I-70000J0D01*
G01*
X11420000Y21885000D01*
G75*
G02*
X11350000Y21955000I0J70000D01*
G01*
X11350000Y23265000D01*
G75*
G02*
X11420000Y23335000I70000J0D01*
G01*
X11560000Y23335000D01*
G75*
G02*
X11630000Y23265000I0J-70000D01*
G01*
G37*
G36*
G01*
X12030000Y17365000D02*
X12030000Y16055000D01*
G75*
G02*
X11960000Y15985000I-70000J0D01*
G01*
X11820000Y15985000D01*
G75*
G02*
X11750000Y16055000I0J70000D01*
G01*
X11750000Y17365000D01*
G75*
G02*
X11820000Y17435000I70000J0D01*
G01*
X11960000Y17435000D01*
G75*
G02*
X12030000Y17365000I0J-70000D01*
G01*
G37*
G36*
G01*
X12030000Y23265000D02*
X12030000Y21955000D01*
G75*
G02*
X11960000Y21885000I-70000J0D01*
G01*
X11820000Y21885000D01*
G75*
G02*
X11750000Y21955000I0J70000D01*
G01*
X11750000Y23265000D01*
G75*
G02*
X11820000Y23335000I70000J0D01*
G01*
X11960000Y23335000D01*
G75*
G02*
X12030000Y23265000I0J-70000D01*
G01*
G37*
G36*
G01*
X12430000Y17365000D02*
X12430000Y16055000D01*
G75*
G02*
X12360000Y15985000I-70000J0D01*
G01*
X12220000Y15985000D01*
G75*
G02*
X12150000Y16055000I0J70000D01*
G01*
X12150000Y17365000D01*
G75*
G02*
X12220000Y17435000I70000J0D01*
G01*
X12360000Y17435000D01*
G75*
G02*
X12430000Y17365000I0J-70000D01*
G01*
G37*
G36*
G01*
X12430000Y23265000D02*
X12430000Y21955000D01*
G75*
G02*
X12360000Y21885000I-70000J0D01*
G01*
X12220000Y21885000D01*
G75*
G02*
X12150000Y21955000I0J70000D01*
G01*
X12150000Y23265000D01*
G75*
G02*
X12220000Y23335000I70000J0D01*
G01*
X12360000Y23335000D01*
G75*
G02*
X12430000Y23265000I0J-70000D01*
G01*
G37*
G36*
G01*
X12830000Y17365000D02*
X12830000Y16055000D01*
G75*
G02*
X12760000Y15985000I-70000J0D01*
G01*
X12620000Y15985000D01*
G75*
G02*
X12550000Y16055000I0J70000D01*
G01*
X12550000Y17365000D01*
G75*
G02*
X12620000Y17435000I70000J0D01*
G01*
X12760000Y17435000D01*
G75*
G02*
X12830000Y17365000I0J-70000D01*
G01*
G37*
G36*
G01*
X12830000Y23265000D02*
X12830000Y21955000D01*
G75*
G02*
X12760000Y21885000I-70000J0D01*
G01*
X12620000Y21885000D01*
G75*
G02*
X12550000Y21955000I0J70000D01*
G01*
X12550000Y23265000D01*
G75*
G02*
X12620000Y23335000I70000J0D01*
G01*
X12760000Y23335000D01*
G75*
G02*
X12830000Y23265000I0J-70000D01*
G01*
G37*
G36*
G01*
X13230000Y17365000D02*
X13230000Y16055000D01*
G75*
G02*
X13160000Y15985000I-70000J0D01*
G01*
X13020000Y15985000D01*
G75*
G02*
X12950000Y16055000I0J70000D01*
G01*
X12950000Y17365000D01*
G75*
G02*
X13020000Y17435000I70000J0D01*
G01*
X13160000Y17435000D01*
G75*
G02*
X13230000Y17365000I0J-70000D01*
G01*
G37*
G36*
G01*
X13230000Y23265000D02*
X13230000Y21955000D01*
G75*
G02*
X13160000Y21885000I-70000J0D01*
G01*
X13020000Y21885000D01*
G75*
G02*
X12950000Y21955000I0J70000D01*
G01*
X12950000Y23265000D01*
G75*
G02*
X13020000Y23335000I70000J0D01*
G01*
X13160000Y23335000D01*
G75*
G02*
X13230000Y23265000I0J-70000D01*
G01*
G37*
G36*
G01*
X13630000Y17365000D02*
X13630000Y16055000D01*
G75*
G02*
X13560000Y15985000I-70000J0D01*
G01*
X13420000Y15985000D01*
G75*
G02*
X13350000Y16055000I0J70000D01*
G01*
X13350000Y17365000D01*
G75*
G02*
X13420000Y17435000I70000J0D01*
G01*
X13560000Y17435000D01*
G75*
G02*
X13630000Y17365000I0J-70000D01*
G01*
G37*
G36*
G01*
X13630000Y23265000D02*
X13630000Y21955000D01*
G75*
G02*
X13560000Y21885000I-70000J0D01*
G01*
X13420000Y21885000D01*
G75*
G02*
X13350000Y21955000I0J70000D01*
G01*
X13350000Y23265000D01*
G75*
G02*
X13420000Y23335000I70000J0D01*
G01*
X13560000Y23335000D01*
G75*
G02*
X13630000Y23265000I0J-70000D01*
G01*
G37*
G36*
G01*
X14030000Y17365000D02*
X14030000Y16055000D01*
G75*
G02*
X13960000Y15985000I-70000J0D01*
G01*
X13820000Y15985000D01*
G75*
G02*
X13750000Y16055000I0J70000D01*
G01*
X13750000Y17365000D01*
G75*
G02*
X13820000Y17435000I70000J0D01*
G01*
X13960000Y17435000D01*
G75*
G02*
X14030000Y17365000I0J-70000D01*
G01*
G37*
G36*
G01*
X14030000Y23265000D02*
X14030000Y21955000D01*
G75*
G02*
X13960000Y21885000I-70000J0D01*
G01*
X13820000Y21885000D01*
G75*
G02*
X13750000Y21955000I0J70000D01*
G01*
X13750000Y23265000D01*
G75*
G02*
X13820000Y23335000I70000J0D01*
G01*
X13960000Y23335000D01*
G75*
G02*
X14030000Y23265000I0J-70000D01*
G01*
G37*
G36*
G01*
X14430000Y17365000D02*
X14430000Y16055000D01*
G75*
G02*
X14360000Y15985000I-70000J0D01*
G01*
X14220000Y15985000D01*
G75*
G02*
X14150000Y16055000I0J70000D01*
G01*
X14150000Y17365000D01*
G75*
G02*
X14220000Y17435000I70000J0D01*
G01*
X14360000Y17435000D01*
G75*
G02*
X14430000Y17365000I0J-70000D01*
G01*
G37*
G36*
G01*
X14430000Y23265000D02*
X14430000Y21955000D01*
G75*
G02*
X14360000Y21885000I-70000J0D01*
G01*
X14220000Y21885000D01*
G75*
G02*
X14150000Y21955000I0J70000D01*
G01*
X14150000Y23265000D01*
G75*
G02*
X14220000Y23335000I70000J0D01*
G01*
X14360000Y23335000D01*
G75*
G02*
X14430000Y23265000I0J-70000D01*
G01*
G37*
D14*
X6550000Y28700000D03*
X5410000Y28690000D03*
X4890000Y28700000D03*
X3750000Y28700000D03*
X5070000Y28280000D03*
X5230000Y29110000D03*
X6300000Y27860000D03*
X5660000Y27860000D03*
X4650000Y27870000D03*
X4010000Y27870000D03*
X3560000Y28280000D03*
X3560000Y29110000D03*
G36*
G01*
X4222500Y31815000D02*
X4617500Y31815000D01*
G75*
G02*
X4765000Y31667500I0J-147500D01*
G01*
X4765000Y31372500D01*
G75*
G02*
X4617500Y31225000I-147500J0D01*
G01*
X4222500Y31225000D01*
G75*
G02*
X4075000Y31372500I0J147500D01*
G01*
X4075000Y31667500D01*
G75*
G02*
X4222500Y31815000I147500J0D01*
G01*
G37*
G36*
G01*
X4222500Y32835000D02*
X4617500Y32835000D01*
G75*
G02*
X4765000Y32687500I0J-147500D01*
G01*
X4765000Y32392500D01*
G75*
G02*
X4617500Y32245000I-147500J0D01*
G01*
X4222500Y32245000D01*
G75*
G02*
X4075000Y32392500I0J147500D01*
G01*
X4075000Y32687500D01*
G75*
G02*
X4222500Y32835000I147500J0D01*
G01*
G37*
D15*
X16510000Y26670000D03*
X16510000Y29210000D03*
X16510000Y31750000D03*
X16510000Y34290000D03*
X16510000Y36830000D03*
X16510000Y39370000D03*
X1270000Y26670000D03*
X1270000Y29210000D03*
X1270000Y31750000D03*
X1270000Y34290000D03*
X1270000Y36830000D03*
X1270000Y39370000D03*
G36*
G01*
X11915000Y40010000D02*
X11915000Y37270000D01*
G75*
G02*
X11760000Y37115000I-155000J0D01*
G01*
X10520000Y37115000D01*
G75*
G02*
X10365000Y37270000I0J155000D01*
G01*
X10365000Y40010000D01*
G75*
G02*
X10520000Y40165000I155000J0D01*
G01*
X11760000Y40165000D01*
G75*
G02*
X11915000Y40010000I0J-155000D01*
G01*
G37*
G36*
G01*
X13545000Y3400000D02*
X13545000Y660000D01*
G75*
G02*
X13390000Y505000I-155000J0D01*
G01*
X12150000Y505000D01*
G75*
G02*
X11995000Y660000I0J155000D01*
G01*
X11995000Y3400000D01*
G75*
G02*
X12150000Y3555000I155000J0D01*
G01*
X13390000Y3555000D01*
G75*
G02*
X13545000Y3400000I0J-155000D01*
G01*
G37*
G36*
G01*
X10545000Y3400000D02*
X10545000Y660000D01*
G75*
G02*
X10390000Y505000I-155000J0D01*
G01*
X9150000Y505000D01*
G75*
G02*
X8995000Y660000I0J155000D01*
G01*
X8995000Y3400000D01*
G75*
G02*
X9150000Y3555000I155000J0D01*
G01*
X10390000Y3555000D01*
G75*
G02*
X10545000Y3400000I0J-155000D01*
G01*
G37*
G36*
G01*
X7415000Y40010000D02*
X7415000Y37270000D01*
G75*
G02*
X7260000Y37115000I-155000J0D01*
G01*
X6020000Y37115000D01*
G75*
G02*
X5865000Y37270000I0J155000D01*
G01*
X5865000Y40010000D01*
G75*
G02*
X6020000Y40165000I155000J0D01*
G01*
X7260000Y40165000D01*
G75*
G02*
X7415000Y40010000I0J-155000D01*
G01*
G37*
G36*
G01*
X9665000Y40010000D02*
X9665000Y37270000D01*
G75*
G02*
X9510000Y37115000I-155000J0D01*
G01*
X8270000Y37115000D01*
G75*
G02*
X8115000Y37270000I0J155000D01*
G01*
X8115000Y40010000D01*
G75*
G02*
X8270000Y40165000I155000J0D01*
G01*
X9510000Y40165000D01*
G75*
G02*
X9665000Y40010000I0J-155000D01*
G01*
G37*
X16510000Y1270000D03*
X16510000Y3810000D03*
X16510000Y6350000D03*
X16510000Y8890000D03*
X16510000Y11430000D03*
X16510000Y13970000D03*
X16510000Y16510000D03*
X16510000Y19050000D03*
X16510000Y21590000D03*
X16510000Y24130000D03*
D16*
X5360000Y2570000D03*
D15*
X1270000Y1270000D03*
X1270000Y3810000D03*
X1270000Y6350000D03*
X1270000Y8890000D03*
X1270000Y11430000D03*
X1270000Y13970000D03*
X1270000Y16510000D03*
X1270000Y19050000D03*
X1270000Y21590000D03*
X1270000Y24130000D03*
G36*
G01*
X8683171Y7972942D02*
X8912981Y8202752D01*
G75*
G02*
X9142791Y8202752I114905J-114905D01*
G01*
X10115063Y7230480D01*
G75*
G02*
X10115063Y7000670I-114905J-114905D01*
G01*
X9885253Y6770860D01*
G75*
G02*
X9655443Y6770860I-114905J114905D01*
G01*
X8683171Y7743132D01*
G75*
G02*
X8683171Y7972942I114905J114905D01*
G01*
G37*
G36*
G01*
X9581196Y8870968D02*
X9811006Y9100778D01*
G75*
G02*
X10040816Y9100778I114905J-114905D01*
G01*
X11013088Y8128506D01*
G75*
G02*
X11013088Y7898696I-114905J-114905D01*
G01*
X10783278Y7668886D01*
G75*
G02*
X10553468Y7668886I-114905J114905D01*
G01*
X9581196Y8641158D01*
G75*
G02*
X9581196Y8870968I114905J114905D01*
G01*
G37*
G36*
G01*
X10479222Y9768994D02*
X10709032Y9998804D01*
G75*
G02*
X10938842Y9998804I114905J-114905D01*
G01*
X11911114Y9026532D01*
G75*
G02*
X11911114Y8796722I-114905J-114905D01*
G01*
X11681304Y8566912D01*
G75*
G02*
X11451494Y8566912I-114905J114905D01*
G01*
X10479222Y9539184D01*
G75*
G02*
X10479222Y9768994I114905J114905D01*
G01*
G37*
G36*
G01*
X11377248Y10667019D02*
X11607058Y10896829D01*
G75*
G02*
X11836868Y10896829I114905J-114905D01*
G01*
X12809140Y9924557D01*
G75*
G02*
X12809140Y9694747I-114905J-114905D01*
G01*
X12579330Y9464937D01*
G75*
G02*
X12349520Y9464937I-114905J114905D01*
G01*
X11377248Y10437209D01*
G75*
G02*
X11377248Y10667019I114905J114905D01*
G01*
G37*
G36*
G01*
X7664937Y14379330D02*
X7894747Y14609140D01*
G75*
G02*
X8124557Y14609140I114905J-114905D01*
G01*
X9096829Y13636868D01*
G75*
G02*
X9096829Y13407058I-114905J-114905D01*
G01*
X8867019Y13177248D01*
G75*
G02*
X8637209Y13177248I-114905J114905D01*
G01*
X7664937Y14149520D01*
G75*
G02*
X7664937Y14379330I114905J114905D01*
G01*
G37*
G36*
G01*
X6766912Y13481304D02*
X6996722Y13711114D01*
G75*
G02*
X7226532Y13711114I114905J-114905D01*
G01*
X8198804Y12738842D01*
G75*
G02*
X8198804Y12509032I-114905J-114905D01*
G01*
X7968994Y12279222D01*
G75*
G02*
X7739184Y12279222I-114905J114905D01*
G01*
X6766912Y13251494D01*
G75*
G02*
X6766912Y13481304I114905J114905D01*
G01*
G37*
G36*
G01*
X5868886Y12583278D02*
X6098696Y12813088D01*
G75*
G02*
X6328506Y12813088I114905J-114905D01*
G01*
X7300778Y11840816D01*
G75*
G02*
X7300778Y11611006I-114905J-114905D01*
G01*
X7070968Y11381196D01*
G75*
G02*
X6841158Y11381196I-114905J114905D01*
G01*
X5868886Y12353468D01*
G75*
G02*
X5868886Y12583278I114905J114905D01*
G01*
G37*
G36*
G01*
X4970860Y11685253D02*
X5200670Y11915063D01*
G75*
G02*
X5430480Y11915063I114905J-114905D01*
G01*
X6402752Y10942791D01*
G75*
G02*
X6402752Y10712981I-114905J-114905D01*
G01*
X6172942Y10483171D01*
G75*
G02*
X5943132Y10483171I-114905J114905D01*
G01*
X4970860Y11455443D01*
G75*
G02*
X4970860Y11685253I114905J114905D01*
G01*
G37*
D14*
X12740000Y27500000D03*
X11820000Y27500000D03*
X12280000Y27040000D03*
X12740000Y26580000D03*
X11820000Y26580000D03*
X8890000Y19600000D03*
X6530000Y3560000D03*
X6530000Y5150000D03*
X5740000Y4360000D03*
X4950000Y3560000D03*
X4950000Y5150000D03*
X9820000Y11600000D03*
X10770000Y10700000D03*
X9830000Y9750000D03*
X8900000Y8830000D03*
X8890000Y10690000D03*
X7970000Y9760000D03*
X7020000Y10680000D03*
X7970000Y11620000D03*
X8890000Y12550000D03*
X9890000Y20610000D03*
X10870000Y21590000D03*
X8890000Y23600000D03*
X8890000Y21590000D03*
X7900000Y20610000D03*
X6910000Y21590000D03*
D16*
X10830000Y26850000D03*
X12250000Y25440000D03*
X3940000Y3950000D03*
X4500000Y29560000D03*
M02*
