G04 #@! TF.GenerationSoftware,KiCad,Pcbnew,5.1.9-1.fc33*
G04 #@! TF.CreationDate,2021-01-08T09:44:42+01:00*
G04 #@! TF.ProjectId,reDIP-sx,72654449-502d-4737-982e-6b696361645f,0.1*
G04 #@! TF.SameCoordinates,PX5e28010PY8011a50*
G04 #@! TF.FileFunction,Soldermask,Top*
G04 #@! TF.FilePolarity,Negative*
%FSLAX46Y46*%
G04 Gerber Fmt 4.6, Leading zero omitted, Abs format (unit mm)*
G04 Created by KiCad (PCBNEW 5.1.9-1.fc33) date 2021-01-08 09:44:42*
%MOMM*%
%LPD*%
G01*
G04 APERTURE LIST*
%ADD10C,0.200000*%
%ADD11C,1.700000*%
%ADD12O,1.100000X2.400000*%
%ADD13O,1.100000X2.100000*%
%ADD14O,0.700000X0.700000*%
%ADD15O,0.950000X0.700000*%
%ADD16C,0.100000*%
%ADD17C,0.300000*%
G04 APERTURE END LIST*
G36*
G01*
X7212947Y26256170D02*
X7036170Y26432947D01*
G75*
G02*
X7036170Y26609723I88388J88388D01*
G01*
X7255373Y26828926D01*
G75*
G02*
X7432149Y26828926I88388J-88388D01*
G01*
X7608926Y26652149D01*
G75*
G02*
X7608926Y26475373I-88388J-88388D01*
G01*
X7389723Y26256170D01*
G75*
G02*
X7212947Y26256170I-88388J88388D01*
G01*
G37*
G36*
G01*
X6760399Y25803622D02*
X6583622Y25980399D01*
G75*
G02*
X6583622Y26157175I88388J88388D01*
G01*
X6802825Y26376378D01*
G75*
G02*
X6979601Y26376378I88388J-88388D01*
G01*
X7156378Y26199601D01*
G75*
G02*
X7156378Y26022825I-88388J-88388D01*
G01*
X6937175Y25803622D01*
G75*
G02*
X6760399Y25803622I-88388J88388D01*
G01*
G37*
D10*
X4580000Y29040000D03*
D11*
X1270000Y26670000D03*
X1270000Y29210000D03*
X1270000Y31750000D03*
X1270000Y34290000D03*
X1270000Y36830000D03*
X1270000Y39370000D03*
G36*
G01*
X6100000Y34959400D02*
X6100000Y34020600D01*
G75*
G02*
X6019400Y33940000I-80600J0D01*
G01*
X5560600Y33940000D01*
G75*
G02*
X5480000Y34020600I0J80600D01*
G01*
X5480000Y34959400D01*
G75*
G02*
X5560600Y35040000I80600J0D01*
G01*
X6019400Y35040000D01*
G75*
G02*
X6100000Y34959400I0J-80600D01*
G01*
G37*
G36*
G01*
X6850000Y34959400D02*
X6850000Y34020600D01*
G75*
G02*
X6769400Y33940000I-80600J0D01*
G01*
X6310600Y33940000D01*
G75*
G02*
X6230000Y34020600I0J80600D01*
G01*
X6230000Y34959400D01*
G75*
G02*
X6310600Y35040000I80600J0D01*
G01*
X6769400Y35040000D01*
G75*
G02*
X6850000Y34959400I0J-80600D01*
G01*
G37*
G36*
G01*
X11550000Y34959400D02*
X11550000Y34020600D01*
G75*
G02*
X11469400Y33940000I-80600J0D01*
G01*
X11010600Y33940000D01*
G75*
G02*
X10930000Y34020600I0J80600D01*
G01*
X10930000Y34959400D01*
G75*
G02*
X11010600Y35040000I80600J0D01*
G01*
X11469400Y35040000D01*
G75*
G02*
X11550000Y34959400I0J-80600D01*
G01*
G37*
G36*
G01*
X12300000Y34959400D02*
X12300000Y34020600D01*
G75*
G02*
X12219400Y33940000I-80600J0D01*
G01*
X11760600Y33940000D01*
G75*
G02*
X11680000Y34020600I0J80600D01*
G01*
X11680000Y34959400D01*
G75*
G02*
X11760600Y35040000I80600J0D01*
G01*
X12219400Y35040000D01*
G75*
G02*
X12300000Y34959400I0J-80600D01*
G01*
G37*
G36*
G01*
X10840000Y39520000D02*
X10840000Y37860000D01*
G75*
G02*
X10620000Y37640000I-220000J0D01*
G01*
X9960000Y37640000D01*
G75*
G02*
X9740000Y37860000I0J220000D01*
G01*
X9740000Y39520000D01*
G75*
G02*
X9960000Y39740000I220000J0D01*
G01*
X10620000Y39740000D01*
G75*
G02*
X10840000Y39520000I0J-220000D01*
G01*
G37*
G36*
G01*
X8040000Y39520000D02*
X8040000Y37860000D01*
G75*
G02*
X7820000Y37640000I-220000J0D01*
G01*
X7160000Y37640000D01*
G75*
G02*
X6940000Y37860000I0J220000D01*
G01*
X6940000Y39520000D01*
G75*
G02*
X7160000Y39740000I220000J0D01*
G01*
X7820000Y39740000D01*
G75*
G02*
X8040000Y39520000I0J-220000D01*
G01*
G37*
D12*
X13210000Y38690000D03*
X4570000Y38690000D03*
D13*
X13210000Y34865000D03*
X4570000Y34865000D03*
D14*
X11890000Y35590000D03*
D15*
X5890000Y35590000D03*
G36*
G01*
X12300000Y34959400D02*
X12300000Y34020600D01*
G75*
G02*
X12219400Y33940000I-80600J0D01*
G01*
X11760600Y33940000D01*
G75*
G02*
X11680000Y34020600I0J80600D01*
G01*
X11680000Y34959400D01*
G75*
G02*
X11760600Y35040000I80600J0D01*
G01*
X12219400Y35040000D01*
G75*
G02*
X12300000Y34959400I0J-80600D01*
G01*
G37*
G36*
G01*
X11550000Y34959400D02*
X11550000Y34020600D01*
G75*
G02*
X11469400Y33940000I-80600J0D01*
G01*
X11010600Y33940000D01*
G75*
G02*
X10930000Y34020600I0J80600D01*
G01*
X10930000Y34959400D01*
G75*
G02*
X11010600Y35040000I80600J0D01*
G01*
X11469400Y35040000D01*
G75*
G02*
X11550000Y34959400I0J-80600D01*
G01*
G37*
G36*
G01*
X6100000Y34959400D02*
X6100000Y34020600D01*
G75*
G02*
X6019400Y33940000I-80600J0D01*
G01*
X5560600Y33940000D01*
G75*
G02*
X5480000Y34020600I0J80600D01*
G01*
X5480000Y34959400D01*
G75*
G02*
X5560600Y35040000I80600J0D01*
G01*
X6019400Y35040000D01*
G75*
G02*
X6100000Y34959400I0J-80600D01*
G01*
G37*
G36*
G01*
X6850000Y34959400D02*
X6850000Y34020600D01*
G75*
G02*
X6769400Y33940000I-80600J0D01*
G01*
X6310600Y33940000D01*
G75*
G02*
X6230000Y34020600I0J80600D01*
G01*
X6230000Y34959400D01*
G75*
G02*
X6310600Y35040000I80600J0D01*
G01*
X6769400Y35040000D01*
G75*
G02*
X6850000Y34959400I0J-80600D01*
G01*
G37*
G36*
G01*
X10825000Y34947500D02*
X10825000Y34032500D01*
G75*
G02*
X10732500Y33940000I-92500J0D01*
G01*
X10547500Y33940000D01*
G75*
G02*
X10455000Y34032500I0J92500D01*
G01*
X10455000Y34947500D01*
G75*
G02*
X10547500Y35040000I92500J0D01*
G01*
X10732500Y35040000D01*
G75*
G02*
X10825000Y34947500I0J-92500D01*
G01*
G37*
G36*
G01*
X10325000Y34947500D02*
X10325000Y34032500D01*
G75*
G02*
X10232500Y33940000I-92500J0D01*
G01*
X10047500Y33940000D01*
G75*
G02*
X9955000Y34032500I0J92500D01*
G01*
X9955000Y34947500D01*
G75*
G02*
X10047500Y35040000I92500J0D01*
G01*
X10232500Y35040000D01*
G75*
G02*
X10325000Y34947500I0J-92500D01*
G01*
G37*
G36*
G01*
X9825000Y34947500D02*
X9825000Y34032500D01*
G75*
G02*
X9732500Y33940000I-92500J0D01*
G01*
X9547500Y33940000D01*
G75*
G02*
X9455000Y34032500I0J92500D01*
G01*
X9455000Y34947500D01*
G75*
G02*
X9547500Y35040000I92500J0D01*
G01*
X9732500Y35040000D01*
G75*
G02*
X9825000Y34947500I0J-92500D01*
G01*
G37*
G36*
G01*
X9325000Y34947500D02*
X9325000Y34032500D01*
G75*
G02*
X9232500Y33940000I-92500J0D01*
G01*
X9047500Y33940000D01*
G75*
G02*
X8955000Y34032500I0J92500D01*
G01*
X8955000Y34947500D01*
G75*
G02*
X9047500Y35040000I92500J0D01*
G01*
X9232500Y35040000D01*
G75*
G02*
X9325000Y34947500I0J-92500D01*
G01*
G37*
G36*
G01*
X8825000Y34947500D02*
X8825000Y34032500D01*
G75*
G02*
X8732500Y33940000I-92500J0D01*
G01*
X8547500Y33940000D01*
G75*
G02*
X8455000Y34032500I0J92500D01*
G01*
X8455000Y34947500D01*
G75*
G02*
X8547500Y35040000I92500J0D01*
G01*
X8732500Y35040000D01*
G75*
G02*
X8825000Y34947500I0J-92500D01*
G01*
G37*
G36*
G01*
X8325000Y34947500D02*
X8325000Y34032500D01*
G75*
G02*
X8232500Y33940000I-92500J0D01*
G01*
X8047500Y33940000D01*
G75*
G02*
X7955000Y34032500I0J92500D01*
G01*
X7955000Y34947500D01*
G75*
G02*
X8047500Y35040000I92500J0D01*
G01*
X8232500Y35040000D01*
G75*
G02*
X8325000Y34947500I0J-92500D01*
G01*
G37*
G36*
G01*
X7825000Y34947500D02*
X7825000Y34032500D01*
G75*
G02*
X7732500Y33940000I-92500J0D01*
G01*
X7547500Y33940000D01*
G75*
G02*
X7455000Y34032500I0J92500D01*
G01*
X7455000Y34947500D01*
G75*
G02*
X7547500Y35040000I92500J0D01*
G01*
X7732500Y35040000D01*
G75*
G02*
X7825000Y34947500I0J-92500D01*
G01*
G37*
G36*
G01*
X7325000Y34947500D02*
X7325000Y34032500D01*
G75*
G02*
X7232500Y33940000I-92500J0D01*
G01*
X7047500Y33940000D01*
G75*
G02*
X6955000Y34032500I0J92500D01*
G01*
X6955000Y34947500D01*
G75*
G02*
X7047500Y35040000I92500J0D01*
G01*
X7232500Y35040000D01*
G75*
G02*
X7325000Y34947500I0J-92500D01*
G01*
G37*
D16*
G36*
X5069039Y30710245D02*
G01*
X5066194Y30700866D01*
X5061573Y30692221D01*
X5055355Y30684645D01*
X5047779Y30678427D01*
X5039134Y30673806D01*
X5029755Y30670961D01*
X5020000Y30670000D01*
X4820000Y30670000D01*
X4810245Y30670961D01*
X4800866Y30673806D01*
X4792221Y30678427D01*
X4784645Y30684645D01*
X4634645Y30834645D01*
X4628427Y30842221D01*
X4623806Y30850866D01*
X4620961Y30860245D01*
X4620000Y30870000D01*
X4620000Y30970000D01*
X4620961Y30979755D01*
X4623806Y30989134D01*
X4628427Y30997779D01*
X4634645Y31005355D01*
X4642221Y31011573D01*
X4650866Y31016194D01*
X4660245Y31019039D01*
X4670000Y31020000D01*
X5020000Y31020000D01*
X5029755Y31019039D01*
X5039134Y31016194D01*
X5047779Y31011573D01*
X5055355Y31005355D01*
X5061573Y30997779D01*
X5066194Y30989134D01*
X5069039Y30979755D01*
X5070000Y30970000D01*
X5070000Y30720000D01*
X5069039Y30710245D01*
G37*
G36*
X4620961Y30179755D02*
G01*
X4623806Y30189134D01*
X4628427Y30197779D01*
X4634645Y30205355D01*
X4784645Y30355355D01*
X4792221Y30361573D01*
X4800866Y30366194D01*
X4810245Y30369039D01*
X4820000Y30370000D01*
X5020000Y30370000D01*
X5029755Y30369039D01*
X5039134Y30366194D01*
X5047779Y30361573D01*
X5055355Y30355355D01*
X5061573Y30347779D01*
X5066194Y30339134D01*
X5069039Y30329755D01*
X5070000Y30320000D01*
X5070000Y30070000D01*
X5069039Y30060245D01*
X5066194Y30050866D01*
X5061573Y30042221D01*
X5055355Y30034645D01*
X5047779Y30028427D01*
X5039134Y30023806D01*
X5029755Y30020961D01*
X5020000Y30020000D01*
X4670000Y30020000D01*
X4660245Y30020961D01*
X4650866Y30023806D01*
X4642221Y30028427D01*
X4634645Y30034645D01*
X4628427Y30042221D01*
X4623806Y30050866D01*
X4620961Y30060245D01*
X4620000Y30070000D01*
X4620000Y30170000D01*
X4620961Y30179755D01*
G37*
G36*
X4219039Y30860245D02*
G01*
X4216194Y30850866D01*
X4211573Y30842221D01*
X4205355Y30834645D01*
X4055355Y30684645D01*
X4047779Y30678427D01*
X4039134Y30673806D01*
X4029755Y30670961D01*
X4020000Y30670000D01*
X3820000Y30670000D01*
X3810245Y30670961D01*
X3800866Y30673806D01*
X3792221Y30678427D01*
X3784645Y30684645D01*
X3778427Y30692221D01*
X3773806Y30700866D01*
X3770961Y30710245D01*
X3770000Y30720000D01*
X3770000Y30970000D01*
X3770961Y30979755D01*
X3773806Y30989134D01*
X3778427Y30997779D01*
X3784645Y31005355D01*
X3792221Y31011573D01*
X3800866Y31016194D01*
X3810245Y31019039D01*
X3820000Y31020000D01*
X4170000Y31020000D01*
X4179755Y31019039D01*
X4189134Y31016194D01*
X4197779Y31011573D01*
X4205355Y31005355D01*
X4211573Y30997779D01*
X4216194Y30989134D01*
X4219039Y30979755D01*
X4220000Y30970000D01*
X4220000Y30870000D01*
X4219039Y30860245D01*
G37*
G36*
X3770961Y30329755D02*
G01*
X3773806Y30339134D01*
X3778427Y30347779D01*
X3784645Y30355355D01*
X3792221Y30361573D01*
X3800866Y30366194D01*
X3810245Y30369039D01*
X3820000Y30370000D01*
X4020000Y30370000D01*
X4029755Y30369039D01*
X4039134Y30366194D01*
X4047779Y30361573D01*
X4055355Y30355355D01*
X4205355Y30205355D01*
X4211573Y30197779D01*
X4216194Y30189134D01*
X4219039Y30179755D01*
X4220000Y30170000D01*
X4220000Y30070000D01*
X4219039Y30060245D01*
X4216194Y30050866D01*
X4211573Y30042221D01*
X4205355Y30034645D01*
X4197779Y30028427D01*
X4189134Y30023806D01*
X4179755Y30020961D01*
X4170000Y30020000D01*
X3820000Y30020000D01*
X3810245Y30020961D01*
X3800866Y30023806D01*
X3792221Y30028427D01*
X3784645Y30034645D01*
X3778427Y30042221D01*
X3773806Y30050866D01*
X3770961Y30060245D01*
X3770000Y30070000D01*
X3770000Y30320000D01*
X3770961Y30329755D01*
G37*
G36*
G01*
X4384645Y30145234D02*
X4045234Y30484645D01*
G75*
G02*
X4045234Y30555355I35355J35355D01*
G01*
X4384645Y30894766D01*
G75*
G02*
X4455355Y30894766I35355J-35355D01*
G01*
X4794766Y30555355D01*
G75*
G02*
X4794766Y30484645I-35355J-35355D01*
G01*
X4455355Y30145234D01*
G75*
G02*
X4384645Y30145234I-35355J35355D01*
G01*
G37*
G36*
X7379039Y30710245D02*
G01*
X7376194Y30700866D01*
X7371573Y30692221D01*
X7365355Y30684645D01*
X7357779Y30678427D01*
X7349134Y30673806D01*
X7339755Y30670961D01*
X7330000Y30670000D01*
X7130000Y30670000D01*
X7120245Y30670961D01*
X7110866Y30673806D01*
X7102221Y30678427D01*
X7094645Y30684645D01*
X6944645Y30834645D01*
X6938427Y30842221D01*
X6933806Y30850866D01*
X6930961Y30860245D01*
X6930000Y30870000D01*
X6930000Y30970000D01*
X6930961Y30979755D01*
X6933806Y30989134D01*
X6938427Y30997779D01*
X6944645Y31005355D01*
X6952221Y31011573D01*
X6960866Y31016194D01*
X6970245Y31019039D01*
X6980000Y31020000D01*
X7330000Y31020000D01*
X7339755Y31019039D01*
X7349134Y31016194D01*
X7357779Y31011573D01*
X7365355Y31005355D01*
X7371573Y30997779D01*
X7376194Y30989134D01*
X7379039Y30979755D01*
X7380000Y30970000D01*
X7380000Y30720000D01*
X7379039Y30710245D01*
G37*
G36*
X6930961Y30179755D02*
G01*
X6933806Y30189134D01*
X6938427Y30197779D01*
X6944645Y30205355D01*
X7094645Y30355355D01*
X7102221Y30361573D01*
X7110866Y30366194D01*
X7120245Y30369039D01*
X7130000Y30370000D01*
X7330000Y30370000D01*
X7339755Y30369039D01*
X7349134Y30366194D01*
X7357779Y30361573D01*
X7365355Y30355355D01*
X7371573Y30347779D01*
X7376194Y30339134D01*
X7379039Y30329755D01*
X7380000Y30320000D01*
X7380000Y30070000D01*
X7379039Y30060245D01*
X7376194Y30050866D01*
X7371573Y30042221D01*
X7365355Y30034645D01*
X7357779Y30028427D01*
X7349134Y30023806D01*
X7339755Y30020961D01*
X7330000Y30020000D01*
X6980000Y30020000D01*
X6970245Y30020961D01*
X6960866Y30023806D01*
X6952221Y30028427D01*
X6944645Y30034645D01*
X6938427Y30042221D01*
X6933806Y30050866D01*
X6930961Y30060245D01*
X6930000Y30070000D01*
X6930000Y30170000D01*
X6930961Y30179755D01*
G37*
G36*
X6529039Y30860245D02*
G01*
X6526194Y30850866D01*
X6521573Y30842221D01*
X6515355Y30834645D01*
X6365355Y30684645D01*
X6357779Y30678427D01*
X6349134Y30673806D01*
X6339755Y30670961D01*
X6330000Y30670000D01*
X6130000Y30670000D01*
X6120245Y30670961D01*
X6110866Y30673806D01*
X6102221Y30678427D01*
X6094645Y30684645D01*
X6088427Y30692221D01*
X6083806Y30700866D01*
X6080961Y30710245D01*
X6080000Y30720000D01*
X6080000Y30970000D01*
X6080961Y30979755D01*
X6083806Y30989134D01*
X6088427Y30997779D01*
X6094645Y31005355D01*
X6102221Y31011573D01*
X6110866Y31016194D01*
X6120245Y31019039D01*
X6130000Y31020000D01*
X6480000Y31020000D01*
X6489755Y31019039D01*
X6499134Y31016194D01*
X6507779Y31011573D01*
X6515355Y31005355D01*
X6521573Y30997779D01*
X6526194Y30989134D01*
X6529039Y30979755D01*
X6530000Y30970000D01*
X6530000Y30870000D01*
X6529039Y30860245D01*
G37*
G36*
X6080961Y30329755D02*
G01*
X6083806Y30339134D01*
X6088427Y30347779D01*
X6094645Y30355355D01*
X6102221Y30361573D01*
X6110866Y30366194D01*
X6120245Y30369039D01*
X6130000Y30370000D01*
X6330000Y30370000D01*
X6339755Y30369039D01*
X6349134Y30366194D01*
X6357779Y30361573D01*
X6365355Y30355355D01*
X6515355Y30205355D01*
X6521573Y30197779D01*
X6526194Y30189134D01*
X6529039Y30179755D01*
X6530000Y30170000D01*
X6530000Y30070000D01*
X6529039Y30060245D01*
X6526194Y30050866D01*
X6521573Y30042221D01*
X6515355Y30034645D01*
X6507779Y30028427D01*
X6499134Y30023806D01*
X6489755Y30020961D01*
X6480000Y30020000D01*
X6130000Y30020000D01*
X6120245Y30020961D01*
X6110866Y30023806D01*
X6102221Y30028427D01*
X6094645Y30034645D01*
X6088427Y30042221D01*
X6083806Y30050866D01*
X6080961Y30060245D01*
X6080000Y30070000D01*
X6080000Y30320000D01*
X6080961Y30329755D01*
G37*
G36*
G01*
X6694645Y30145234D02*
X6355234Y30484645D01*
G75*
G02*
X6355234Y30555355I35355J35355D01*
G01*
X6694645Y30894766D01*
G75*
G02*
X6765355Y30894766I35355J-35355D01*
G01*
X7104766Y30555355D01*
G75*
G02*
X7104766Y30484645I-35355J-35355D01*
G01*
X6765355Y30145234D01*
G75*
G02*
X6694645Y30145234I-35355J35355D01*
G01*
G37*
G36*
G01*
X2490000Y10315000D02*
X2490000Y11865000D01*
G75*
G02*
X2765000Y12140000I275000J0D01*
G01*
X3315000Y12140000D01*
G75*
G02*
X3590000Y11865000I0J-275000D01*
G01*
X3590000Y10315000D01*
G75*
G02*
X3315000Y10040000I-275000J0D01*
G01*
X2765000Y10040000D01*
G75*
G02*
X2490000Y10315000I0J275000D01*
G01*
G37*
G36*
G01*
X10285000Y2577500D02*
X10285000Y3882500D01*
G75*
G02*
X10357500Y3955000I72500J0D01*
G01*
X11662500Y3955000D01*
G75*
G02*
X11735000Y3882500I0J-72500D01*
G01*
X11735000Y2577500D01*
G75*
G02*
X11662500Y2505000I-72500J0D01*
G01*
X10357500Y2505000D01*
G75*
G02*
X10285000Y2577500I0J72500D01*
G01*
G37*
G36*
G01*
X12435000Y2577500D02*
X12435000Y3882500D01*
G75*
G02*
X12507500Y3955000I72500J0D01*
G01*
X13812500Y3955000D01*
G75*
G02*
X13885000Y3882500I0J-72500D01*
G01*
X13885000Y2577500D01*
G75*
G02*
X13812500Y2505000I-72500J0D01*
G01*
X12507500Y2505000D01*
G75*
G02*
X12435000Y2577500I0J72500D01*
G01*
G37*
G36*
G01*
X12435000Y427500D02*
X12435000Y1732500D01*
G75*
G02*
X12507500Y1805000I72500J0D01*
G01*
X13812500Y1805000D01*
G75*
G02*
X13885000Y1732500I0J-72500D01*
G01*
X13885000Y427500D01*
G75*
G02*
X13812500Y355000I-72500J0D01*
G01*
X12507500Y355000D01*
G75*
G02*
X12435000Y427500I0J72500D01*
G01*
G37*
G36*
G01*
X10285000Y427500D02*
X10285000Y1732500D01*
G75*
G02*
X10357500Y1805000I72500J0D01*
G01*
X11662500Y1805000D01*
G75*
G02*
X11735000Y1732500I0J-72500D01*
G01*
X11735000Y427500D01*
G75*
G02*
X11662500Y355000I-72500J0D01*
G01*
X10357500Y355000D01*
G75*
G02*
X10285000Y427500I0J72500D01*
G01*
G37*
G36*
G01*
X12800000Y16707500D02*
X13040000Y16707500D01*
G75*
G02*
X13120000Y16627500I0J-80000D01*
G01*
X13120000Y16287500D01*
G75*
G02*
X13040000Y16207500I-80000J0D01*
G01*
X12800000Y16207500D01*
G75*
G02*
X12720000Y16287500I0J80000D01*
G01*
X12720000Y16627500D01*
G75*
G02*
X12800000Y16707500I80000J0D01*
G01*
G37*
G36*
G01*
X12300000Y16707500D02*
X12540000Y16707500D01*
G75*
G02*
X12620000Y16627500I0J-80000D01*
G01*
X12620000Y16287500D01*
G75*
G02*
X12540000Y16207500I-80000J0D01*
G01*
X12300000Y16207500D01*
G75*
G02*
X12220000Y16287500I0J80000D01*
G01*
X12220000Y16627500D01*
G75*
G02*
X12300000Y16707500I80000J0D01*
G01*
G37*
G36*
G01*
X12800000Y16032500D02*
X13040000Y16032500D01*
G75*
G02*
X13120000Y15952500I0J-80000D01*
G01*
X13120000Y15612500D01*
G75*
G02*
X13040000Y15532500I-80000J0D01*
G01*
X12800000Y15532500D01*
G75*
G02*
X12720000Y15612500I0J80000D01*
G01*
X12720000Y15952500D01*
G75*
G02*
X12800000Y16032500I80000J0D01*
G01*
G37*
G36*
G01*
X12300000Y16032500D02*
X12540000Y16032500D01*
G75*
G02*
X12620000Y15952500I0J-80000D01*
G01*
X12620000Y15612500D01*
G75*
G02*
X12540000Y15532500I-80000J0D01*
G01*
X12300000Y15532500D01*
G75*
G02*
X12220000Y15612500I0J80000D01*
G01*
X12220000Y15952500D01*
G75*
G02*
X12300000Y16032500I80000J0D01*
G01*
G37*
G36*
G01*
X13320000Y16707500D02*
X13520000Y16707500D01*
G75*
G02*
X13620000Y16607500I0J-100000D01*
G01*
X13620000Y16257500D01*
G75*
G02*
X13520000Y16157500I-100000J0D01*
G01*
X13320000Y16157500D01*
G75*
G02*
X13220000Y16257500I0J100000D01*
G01*
X13220000Y16607500D01*
G75*
G02*
X13320000Y16707500I100000J0D01*
G01*
G37*
G36*
G01*
X13300000Y16032500D02*
X13540000Y16032500D01*
G75*
G02*
X13620000Y15952500I0J-80000D01*
G01*
X13620000Y15612500D01*
G75*
G02*
X13540000Y15532500I-80000J0D01*
G01*
X13300000Y15532500D01*
G75*
G02*
X13220000Y15612500I0J80000D01*
G01*
X13220000Y15952500D01*
G75*
G02*
X13300000Y16032500I80000J0D01*
G01*
G37*
G36*
G01*
X11800000Y16707500D02*
X12040000Y16707500D01*
G75*
G02*
X12120000Y16627500I0J-80000D01*
G01*
X12120000Y16287500D01*
G75*
G02*
X12040000Y16207500I-80000J0D01*
G01*
X11800000Y16207500D01*
G75*
G02*
X11720000Y16287500I0J80000D01*
G01*
X11720000Y16627500D01*
G75*
G02*
X11800000Y16707500I80000J0D01*
G01*
G37*
G36*
G01*
X11820000Y16032500D02*
X12020000Y16032500D01*
G75*
G02*
X12120000Y15932500I0J-100000D01*
G01*
X12120000Y15632500D01*
G75*
G02*
X12020000Y15532500I-100000J0D01*
G01*
X11820000Y15532500D01*
G75*
G02*
X11720000Y15632500I0J100000D01*
G01*
X11720000Y15932500D01*
G75*
G02*
X11820000Y16032500I100000J0D01*
G01*
G37*
G36*
G01*
X8925355Y25585153D02*
X12885153Y21625355D01*
G75*
G02*
X12885153Y21554645I-35355J-35355D01*
G01*
X8925355Y17594847D01*
G75*
G02*
X8854645Y17594847I-35355J35355D01*
G01*
X4894847Y21554645D01*
G75*
G02*
X4894847Y21625355I35355J35355D01*
G01*
X8854645Y25585153D01*
G75*
G02*
X8925355Y25585153I35355J-35355D01*
G01*
G37*
G36*
G01*
X13106124Y21510451D02*
X13671810Y20944765D01*
G75*
G02*
X13671810Y20821021I-61872J-61872D01*
G01*
X13548066Y20697277D01*
G75*
G02*
X13424322Y20697277I-61872J61872D01*
G01*
X12858636Y21262963D01*
G75*
G02*
X12858636Y21386707I61872J61872D01*
G01*
X12982380Y21510451D01*
G75*
G02*
X13106124Y21510451I61872J-61872D01*
G01*
G37*
G36*
G01*
X12752571Y21156898D02*
X13318257Y20591212D01*
G75*
G02*
X13318257Y20467468I-61872J-61872D01*
G01*
X13194513Y20343724D01*
G75*
G02*
X13070769Y20343724I-61872J61872D01*
G01*
X12505083Y20909410D01*
G75*
G02*
X12505083Y21033154I61872J61872D01*
G01*
X12628827Y21156898D01*
G75*
G02*
X12752571Y21156898I61872J-61872D01*
G01*
G37*
G36*
G01*
X12399017Y20803344D02*
X12964703Y20237658D01*
G75*
G02*
X12964703Y20113914I-61872J-61872D01*
G01*
X12840959Y19990170D01*
G75*
G02*
X12717215Y19990170I-61872J61872D01*
G01*
X12151529Y20555856D01*
G75*
G02*
X12151529Y20679600I61872J61872D01*
G01*
X12275273Y20803344D01*
G75*
G02*
X12399017Y20803344I61872J-61872D01*
G01*
G37*
G36*
G01*
X12045464Y20449791D02*
X12611150Y19884105D01*
G75*
G02*
X12611150Y19760361I-61872J-61872D01*
G01*
X12487406Y19636617D01*
G75*
G02*
X12363662Y19636617I-61872J61872D01*
G01*
X11797976Y20202303D01*
G75*
G02*
X11797976Y20326047I61872J61872D01*
G01*
X11921720Y20449791D01*
G75*
G02*
X12045464Y20449791I61872J-61872D01*
G01*
G37*
G36*
G01*
X11691911Y20096238D02*
X12257597Y19530552D01*
G75*
G02*
X12257597Y19406808I-61872J-61872D01*
G01*
X12133853Y19283064D01*
G75*
G02*
X12010109Y19283064I-61872J61872D01*
G01*
X11444423Y19848750D01*
G75*
G02*
X11444423Y19972494I61872J61872D01*
G01*
X11568167Y20096238D01*
G75*
G02*
X11691911Y20096238I61872J-61872D01*
G01*
G37*
G36*
G01*
X11338357Y19742684D02*
X11904043Y19176998D01*
G75*
G02*
X11904043Y19053254I-61872J-61872D01*
G01*
X11780299Y18929510D01*
G75*
G02*
X11656555Y18929510I-61872J61872D01*
G01*
X11090869Y19495196D01*
G75*
G02*
X11090869Y19618940I61872J61872D01*
G01*
X11214613Y19742684D01*
G75*
G02*
X11338357Y19742684I61872J-61872D01*
G01*
G37*
G36*
G01*
X10984804Y19389131D02*
X11550490Y18823445D01*
G75*
G02*
X11550490Y18699701I-61872J-61872D01*
G01*
X11426746Y18575957D01*
G75*
G02*
X11303002Y18575957I-61872J61872D01*
G01*
X10737316Y19141643D01*
G75*
G02*
X10737316Y19265387I61872J61872D01*
G01*
X10861060Y19389131D01*
G75*
G02*
X10984804Y19389131I61872J-61872D01*
G01*
G37*
G36*
G01*
X10631250Y19035577D02*
X11196936Y18469891D01*
G75*
G02*
X11196936Y18346147I-61872J-61872D01*
G01*
X11073192Y18222403D01*
G75*
G02*
X10949448Y18222403I-61872J61872D01*
G01*
X10383762Y18788089D01*
G75*
G02*
X10383762Y18911833I61872J61872D01*
G01*
X10507506Y19035577D01*
G75*
G02*
X10631250Y19035577I61872J-61872D01*
G01*
G37*
G36*
G01*
X10277697Y18682024D02*
X10843383Y18116338D01*
G75*
G02*
X10843383Y17992594I-61872J-61872D01*
G01*
X10719639Y17868850D01*
G75*
G02*
X10595895Y17868850I-61872J61872D01*
G01*
X10030209Y18434536D01*
G75*
G02*
X10030209Y18558280I61872J61872D01*
G01*
X10153953Y18682024D01*
G75*
G02*
X10277697Y18682024I61872J-61872D01*
G01*
G37*
G36*
G01*
X9924144Y18328471D02*
X10489830Y17762785D01*
G75*
G02*
X10489830Y17639041I-61872J-61872D01*
G01*
X10366086Y17515297D01*
G75*
G02*
X10242342Y17515297I-61872J61872D01*
G01*
X9676656Y18080983D01*
G75*
G02*
X9676656Y18204727I61872J61872D01*
G01*
X9800400Y18328471D01*
G75*
G02*
X9924144Y18328471I61872J-61872D01*
G01*
G37*
G36*
G01*
X9570590Y17974917D02*
X10136276Y17409231D01*
G75*
G02*
X10136276Y17285487I-61872J-61872D01*
G01*
X10012532Y17161743D01*
G75*
G02*
X9888788Y17161743I-61872J61872D01*
G01*
X9323102Y17727429D01*
G75*
G02*
X9323102Y17851173I61872J61872D01*
G01*
X9446846Y17974917D01*
G75*
G02*
X9570590Y17974917I61872J-61872D01*
G01*
G37*
G36*
G01*
X9217037Y17621364D02*
X9782723Y17055678D01*
G75*
G02*
X9782723Y16931934I-61872J-61872D01*
G01*
X9658979Y16808190D01*
G75*
G02*
X9535235Y16808190I-61872J61872D01*
G01*
X8969549Y17373876D01*
G75*
G02*
X8969549Y17497620I61872J61872D01*
G01*
X9093293Y17621364D01*
G75*
G02*
X9217037Y17621364I61872J-61872D01*
G01*
G37*
G36*
G01*
X8686707Y17621364D02*
X8810451Y17497620D01*
G75*
G02*
X8810451Y17373876I-61872J-61872D01*
G01*
X8244765Y16808190D01*
G75*
G02*
X8121021Y16808190I-61872J61872D01*
G01*
X7997277Y16931934D01*
G75*
G02*
X7997277Y17055678I61872J61872D01*
G01*
X8562963Y17621364D01*
G75*
G02*
X8686707Y17621364I61872J-61872D01*
G01*
G37*
G36*
G01*
X8333154Y17974917D02*
X8456898Y17851173D01*
G75*
G02*
X8456898Y17727429I-61872J-61872D01*
G01*
X7891212Y17161743D01*
G75*
G02*
X7767468Y17161743I-61872J61872D01*
G01*
X7643724Y17285487D01*
G75*
G02*
X7643724Y17409231I61872J61872D01*
G01*
X8209410Y17974917D01*
G75*
G02*
X8333154Y17974917I61872J-61872D01*
G01*
G37*
G36*
G01*
X7979600Y18328471D02*
X8103344Y18204727D01*
G75*
G02*
X8103344Y18080983I-61872J-61872D01*
G01*
X7537658Y17515297D01*
G75*
G02*
X7413914Y17515297I-61872J61872D01*
G01*
X7290170Y17639041D01*
G75*
G02*
X7290170Y17762785I61872J61872D01*
G01*
X7855856Y18328471D01*
G75*
G02*
X7979600Y18328471I61872J-61872D01*
G01*
G37*
G36*
G01*
X7626047Y18682024D02*
X7749791Y18558280D01*
G75*
G02*
X7749791Y18434536I-61872J-61872D01*
G01*
X7184105Y17868850D01*
G75*
G02*
X7060361Y17868850I-61872J61872D01*
G01*
X6936617Y17992594D01*
G75*
G02*
X6936617Y18116338I61872J61872D01*
G01*
X7502303Y18682024D01*
G75*
G02*
X7626047Y18682024I61872J-61872D01*
G01*
G37*
G36*
G01*
X7272494Y19035577D02*
X7396238Y18911833D01*
G75*
G02*
X7396238Y18788089I-61872J-61872D01*
G01*
X6830552Y18222403D01*
G75*
G02*
X6706808Y18222403I-61872J61872D01*
G01*
X6583064Y18346147D01*
G75*
G02*
X6583064Y18469891I61872J61872D01*
G01*
X7148750Y19035577D01*
G75*
G02*
X7272494Y19035577I61872J-61872D01*
G01*
G37*
G36*
G01*
X6918940Y19389131D02*
X7042684Y19265387D01*
G75*
G02*
X7042684Y19141643I-61872J-61872D01*
G01*
X6476998Y18575957D01*
G75*
G02*
X6353254Y18575957I-61872J61872D01*
G01*
X6229510Y18699701D01*
G75*
G02*
X6229510Y18823445I61872J61872D01*
G01*
X6795196Y19389131D01*
G75*
G02*
X6918940Y19389131I61872J-61872D01*
G01*
G37*
G36*
G01*
X6565387Y19742684D02*
X6689131Y19618940D01*
G75*
G02*
X6689131Y19495196I-61872J-61872D01*
G01*
X6123445Y18929510D01*
G75*
G02*
X5999701Y18929510I-61872J61872D01*
G01*
X5875957Y19053254D01*
G75*
G02*
X5875957Y19176998I61872J61872D01*
G01*
X6441643Y19742684D01*
G75*
G02*
X6565387Y19742684I61872J-61872D01*
G01*
G37*
G36*
G01*
X6211833Y20096238D02*
X6335577Y19972494D01*
G75*
G02*
X6335577Y19848750I-61872J-61872D01*
G01*
X5769891Y19283064D01*
G75*
G02*
X5646147Y19283064I-61872J61872D01*
G01*
X5522403Y19406808D01*
G75*
G02*
X5522403Y19530552I61872J61872D01*
G01*
X6088089Y20096238D01*
G75*
G02*
X6211833Y20096238I61872J-61872D01*
G01*
G37*
G36*
G01*
X5858280Y20449791D02*
X5982024Y20326047D01*
G75*
G02*
X5982024Y20202303I-61872J-61872D01*
G01*
X5416338Y19636617D01*
G75*
G02*
X5292594Y19636617I-61872J61872D01*
G01*
X5168850Y19760361D01*
G75*
G02*
X5168850Y19884105I61872J61872D01*
G01*
X5734536Y20449791D01*
G75*
G02*
X5858280Y20449791I61872J-61872D01*
G01*
G37*
G36*
G01*
X5504727Y20803344D02*
X5628471Y20679600D01*
G75*
G02*
X5628471Y20555856I-61872J-61872D01*
G01*
X5062785Y19990170D01*
G75*
G02*
X4939041Y19990170I-61872J61872D01*
G01*
X4815297Y20113914D01*
G75*
G02*
X4815297Y20237658I61872J61872D01*
G01*
X5380983Y20803344D01*
G75*
G02*
X5504727Y20803344I61872J-61872D01*
G01*
G37*
G36*
G01*
X5151173Y21156898D02*
X5274917Y21033154D01*
G75*
G02*
X5274917Y20909410I-61872J-61872D01*
G01*
X4709231Y20343724D01*
G75*
G02*
X4585487Y20343724I-61872J61872D01*
G01*
X4461743Y20467468D01*
G75*
G02*
X4461743Y20591212I61872J61872D01*
G01*
X5027429Y21156898D01*
G75*
G02*
X5151173Y21156898I61872J-61872D01*
G01*
G37*
G36*
G01*
X4797620Y21510451D02*
X4921364Y21386707D01*
G75*
G02*
X4921364Y21262963I-61872J-61872D01*
G01*
X4355678Y20697277D01*
G75*
G02*
X4231934Y20697277I-61872J61872D01*
G01*
X4108190Y20821021D01*
G75*
G02*
X4108190Y20944765I61872J61872D01*
G01*
X4673876Y21510451D01*
G75*
G02*
X4797620Y21510451I61872J-61872D01*
G01*
G37*
G36*
G01*
X4355678Y22482723D02*
X4921364Y21917037D01*
G75*
G02*
X4921364Y21793293I-61872J-61872D01*
G01*
X4797620Y21669549D01*
G75*
G02*
X4673876Y21669549I-61872J61872D01*
G01*
X4108190Y22235235D01*
G75*
G02*
X4108190Y22358979I61872J61872D01*
G01*
X4231934Y22482723D01*
G75*
G02*
X4355678Y22482723I61872J-61872D01*
G01*
G37*
G36*
G01*
X4709231Y22836276D02*
X5274917Y22270590D01*
G75*
G02*
X5274917Y22146846I-61872J-61872D01*
G01*
X5151173Y22023102D01*
G75*
G02*
X5027429Y22023102I-61872J61872D01*
G01*
X4461743Y22588788D01*
G75*
G02*
X4461743Y22712532I61872J61872D01*
G01*
X4585487Y22836276D01*
G75*
G02*
X4709231Y22836276I61872J-61872D01*
G01*
G37*
G36*
G01*
X5062785Y23189830D02*
X5628471Y22624144D01*
G75*
G02*
X5628471Y22500400I-61872J-61872D01*
G01*
X5504727Y22376656D01*
G75*
G02*
X5380983Y22376656I-61872J61872D01*
G01*
X4815297Y22942342D01*
G75*
G02*
X4815297Y23066086I61872J61872D01*
G01*
X4939041Y23189830D01*
G75*
G02*
X5062785Y23189830I61872J-61872D01*
G01*
G37*
G36*
G01*
X5416338Y23543383D02*
X5982024Y22977697D01*
G75*
G02*
X5982024Y22853953I-61872J-61872D01*
G01*
X5858280Y22730209D01*
G75*
G02*
X5734536Y22730209I-61872J61872D01*
G01*
X5168850Y23295895D01*
G75*
G02*
X5168850Y23419639I61872J61872D01*
G01*
X5292594Y23543383D01*
G75*
G02*
X5416338Y23543383I61872J-61872D01*
G01*
G37*
G36*
G01*
X5769891Y23896936D02*
X6335577Y23331250D01*
G75*
G02*
X6335577Y23207506I-61872J-61872D01*
G01*
X6211833Y23083762D01*
G75*
G02*
X6088089Y23083762I-61872J61872D01*
G01*
X5522403Y23649448D01*
G75*
G02*
X5522403Y23773192I61872J61872D01*
G01*
X5646147Y23896936D01*
G75*
G02*
X5769891Y23896936I61872J-61872D01*
G01*
G37*
G36*
G01*
X6123445Y24250490D02*
X6689131Y23684804D01*
G75*
G02*
X6689131Y23561060I-61872J-61872D01*
G01*
X6565387Y23437316D01*
G75*
G02*
X6441643Y23437316I-61872J61872D01*
G01*
X5875957Y24003002D01*
G75*
G02*
X5875957Y24126746I61872J61872D01*
G01*
X5999701Y24250490D01*
G75*
G02*
X6123445Y24250490I61872J-61872D01*
G01*
G37*
G36*
G01*
X6476998Y24604043D02*
X7042684Y24038357D01*
G75*
G02*
X7042684Y23914613I-61872J-61872D01*
G01*
X6918940Y23790869D01*
G75*
G02*
X6795196Y23790869I-61872J61872D01*
G01*
X6229510Y24356555D01*
G75*
G02*
X6229510Y24480299I61872J61872D01*
G01*
X6353254Y24604043D01*
G75*
G02*
X6476998Y24604043I61872J-61872D01*
G01*
G37*
G36*
G01*
X6830552Y24957597D02*
X7396238Y24391911D01*
G75*
G02*
X7396238Y24268167I-61872J-61872D01*
G01*
X7272494Y24144423D01*
G75*
G02*
X7148750Y24144423I-61872J61872D01*
G01*
X6583064Y24710109D01*
G75*
G02*
X6583064Y24833853I61872J61872D01*
G01*
X6706808Y24957597D01*
G75*
G02*
X6830552Y24957597I61872J-61872D01*
G01*
G37*
G36*
G01*
X7184105Y25311150D02*
X7749791Y24745464D01*
G75*
G02*
X7749791Y24621720I-61872J-61872D01*
G01*
X7626047Y24497976D01*
G75*
G02*
X7502303Y24497976I-61872J61872D01*
G01*
X6936617Y25063662D01*
G75*
G02*
X6936617Y25187406I61872J61872D01*
G01*
X7060361Y25311150D01*
G75*
G02*
X7184105Y25311150I61872J-61872D01*
G01*
G37*
G36*
G01*
X7537658Y25664703D02*
X8103344Y25099017D01*
G75*
G02*
X8103344Y24975273I-61872J-61872D01*
G01*
X7979600Y24851529D01*
G75*
G02*
X7855856Y24851529I-61872J61872D01*
G01*
X7290170Y25417215D01*
G75*
G02*
X7290170Y25540959I61872J61872D01*
G01*
X7413914Y25664703D01*
G75*
G02*
X7537658Y25664703I61872J-61872D01*
G01*
G37*
G36*
G01*
X7891212Y26018257D02*
X8456898Y25452571D01*
G75*
G02*
X8456898Y25328827I-61872J-61872D01*
G01*
X8333154Y25205083D01*
G75*
G02*
X8209410Y25205083I-61872J61872D01*
G01*
X7643724Y25770769D01*
G75*
G02*
X7643724Y25894513I61872J61872D01*
G01*
X7767468Y26018257D01*
G75*
G02*
X7891212Y26018257I61872J-61872D01*
G01*
G37*
G36*
G01*
X8244765Y26371810D02*
X8810451Y25806124D01*
G75*
G02*
X8810451Y25682380I-61872J-61872D01*
G01*
X8686707Y25558636D01*
G75*
G02*
X8562963Y25558636I-61872J61872D01*
G01*
X7997277Y26124322D01*
G75*
G02*
X7997277Y26248066I61872J61872D01*
G01*
X8121021Y26371810D01*
G75*
G02*
X8244765Y26371810I61872J-61872D01*
G01*
G37*
G36*
G01*
X9658979Y26371810D02*
X9782723Y26248066D01*
G75*
G02*
X9782723Y26124322I-61872J-61872D01*
G01*
X9217037Y25558636D01*
G75*
G02*
X9093293Y25558636I-61872J61872D01*
G01*
X8969549Y25682380D01*
G75*
G02*
X8969549Y25806124I61872J61872D01*
G01*
X9535235Y26371810D01*
G75*
G02*
X9658979Y26371810I61872J-61872D01*
G01*
G37*
G36*
G01*
X10012532Y26018257D02*
X10136276Y25894513D01*
G75*
G02*
X10136276Y25770769I-61872J-61872D01*
G01*
X9570590Y25205083D01*
G75*
G02*
X9446846Y25205083I-61872J61872D01*
G01*
X9323102Y25328827D01*
G75*
G02*
X9323102Y25452571I61872J61872D01*
G01*
X9888788Y26018257D01*
G75*
G02*
X10012532Y26018257I61872J-61872D01*
G01*
G37*
G36*
G01*
X10366086Y25664703D02*
X10489830Y25540959D01*
G75*
G02*
X10489830Y25417215I-61872J-61872D01*
G01*
X9924144Y24851529D01*
G75*
G02*
X9800400Y24851529I-61872J61872D01*
G01*
X9676656Y24975273D01*
G75*
G02*
X9676656Y25099017I61872J61872D01*
G01*
X10242342Y25664703D01*
G75*
G02*
X10366086Y25664703I61872J-61872D01*
G01*
G37*
G36*
G01*
X10719639Y25311150D02*
X10843383Y25187406D01*
G75*
G02*
X10843383Y25063662I-61872J-61872D01*
G01*
X10277697Y24497976D01*
G75*
G02*
X10153953Y24497976I-61872J61872D01*
G01*
X10030209Y24621720D01*
G75*
G02*
X10030209Y24745464I61872J61872D01*
G01*
X10595895Y25311150D01*
G75*
G02*
X10719639Y25311150I61872J-61872D01*
G01*
G37*
G36*
G01*
X11073192Y24957597D02*
X11196936Y24833853D01*
G75*
G02*
X11196936Y24710109I-61872J-61872D01*
G01*
X10631250Y24144423D01*
G75*
G02*
X10507506Y24144423I-61872J61872D01*
G01*
X10383762Y24268167D01*
G75*
G02*
X10383762Y24391911I61872J61872D01*
G01*
X10949448Y24957597D01*
G75*
G02*
X11073192Y24957597I61872J-61872D01*
G01*
G37*
G36*
G01*
X11426746Y24604043D02*
X11550490Y24480299D01*
G75*
G02*
X11550490Y24356555I-61872J-61872D01*
G01*
X10984804Y23790869D01*
G75*
G02*
X10861060Y23790869I-61872J61872D01*
G01*
X10737316Y23914613D01*
G75*
G02*
X10737316Y24038357I61872J61872D01*
G01*
X11303002Y24604043D01*
G75*
G02*
X11426746Y24604043I61872J-61872D01*
G01*
G37*
G36*
G01*
X11780299Y24250490D02*
X11904043Y24126746D01*
G75*
G02*
X11904043Y24003002I-61872J-61872D01*
G01*
X11338357Y23437316D01*
G75*
G02*
X11214613Y23437316I-61872J61872D01*
G01*
X11090869Y23561060D01*
G75*
G02*
X11090869Y23684804I61872J61872D01*
G01*
X11656555Y24250490D01*
G75*
G02*
X11780299Y24250490I61872J-61872D01*
G01*
G37*
G36*
G01*
X12133853Y23896936D02*
X12257597Y23773192D01*
G75*
G02*
X12257597Y23649448I-61872J-61872D01*
G01*
X11691911Y23083762D01*
G75*
G02*
X11568167Y23083762I-61872J61872D01*
G01*
X11444423Y23207506D01*
G75*
G02*
X11444423Y23331250I61872J61872D01*
G01*
X12010109Y23896936D01*
G75*
G02*
X12133853Y23896936I61872J-61872D01*
G01*
G37*
G36*
G01*
X12487406Y23543383D02*
X12611150Y23419639D01*
G75*
G02*
X12611150Y23295895I-61872J-61872D01*
G01*
X12045464Y22730209D01*
G75*
G02*
X11921720Y22730209I-61872J61872D01*
G01*
X11797976Y22853953D01*
G75*
G02*
X11797976Y22977697I61872J61872D01*
G01*
X12363662Y23543383D01*
G75*
G02*
X12487406Y23543383I61872J-61872D01*
G01*
G37*
G36*
G01*
X12840959Y23189830D02*
X12964703Y23066086D01*
G75*
G02*
X12964703Y22942342I-61872J-61872D01*
G01*
X12399017Y22376656D01*
G75*
G02*
X12275273Y22376656I-61872J61872D01*
G01*
X12151529Y22500400D01*
G75*
G02*
X12151529Y22624144I61872J61872D01*
G01*
X12717215Y23189830D01*
G75*
G02*
X12840959Y23189830I61872J-61872D01*
G01*
G37*
G36*
G01*
X13194513Y22836276D02*
X13318257Y22712532D01*
G75*
G02*
X13318257Y22588788I-61872J-61872D01*
G01*
X12752571Y22023102D01*
G75*
G02*
X12628827Y22023102I-61872J61872D01*
G01*
X12505083Y22146846D01*
G75*
G02*
X12505083Y22270590I61872J61872D01*
G01*
X13070769Y22836276D01*
G75*
G02*
X13194513Y22836276I61872J-61872D01*
G01*
G37*
G36*
G01*
X13548066Y22482723D02*
X13671810Y22358979D01*
G75*
G02*
X13671810Y22235235I-61872J-61872D01*
G01*
X13106124Y21669549D01*
G75*
G02*
X12982380Y21669549I-61872J61872D01*
G01*
X12858636Y21793293D01*
G75*
G02*
X12858636Y21917037I61872J61872D01*
G01*
X13424322Y22482723D01*
G75*
G02*
X13548066Y22482723I61872J-61872D01*
G01*
G37*
D17*
X12240000Y32940000D03*
X11840000Y32940000D03*
X11440000Y32940000D03*
X12240000Y32540000D03*
X11840000Y32540000D03*
X11440000Y32540000D03*
X12240000Y32140000D03*
X11840000Y32140000D03*
X11440000Y32140000D03*
G36*
G01*
X5445000Y30440000D02*
X5695000Y30440000D01*
G75*
G02*
X5820000Y30315000I0J-125000D01*
G01*
X5820000Y30005000D01*
G75*
G02*
X5695000Y29880000I-125000J0D01*
G01*
X5445000Y29880000D01*
G75*
G02*
X5320000Y30005000I0J125000D01*
G01*
X5320000Y30315000D01*
G75*
G02*
X5445000Y30440000I125000J0D01*
G01*
G37*
G36*
G01*
X5445000Y31080000D02*
X5695000Y31080000D01*
G75*
G02*
X5820000Y30955000I0J-125000D01*
G01*
X5820000Y30645000D01*
G75*
G02*
X5695000Y30520000I-125000J0D01*
G01*
X5445000Y30520000D01*
G75*
G02*
X5320000Y30645000I0J125000D01*
G01*
X5320000Y30955000D01*
G75*
G02*
X5445000Y31080000I125000J0D01*
G01*
G37*
G36*
G01*
X3145000Y30440000D02*
X3395000Y30440000D01*
G75*
G02*
X3520000Y30315000I0J-125000D01*
G01*
X3520000Y30005000D01*
G75*
G02*
X3395000Y29880000I-125000J0D01*
G01*
X3145000Y29880000D01*
G75*
G02*
X3020000Y30005000I0J125000D01*
G01*
X3020000Y30315000D01*
G75*
G02*
X3145000Y30440000I125000J0D01*
G01*
G37*
G36*
G01*
X3145000Y31080000D02*
X3395000Y31080000D01*
G75*
G02*
X3520000Y30955000I0J-125000D01*
G01*
X3520000Y30645000D01*
G75*
G02*
X3395000Y30520000I-125000J0D01*
G01*
X3145000Y30520000D01*
G75*
G02*
X3020000Y30645000I0J125000D01*
G01*
X3020000Y30955000D01*
G75*
G02*
X3145000Y31080000I125000J0D01*
G01*
G37*
G36*
G01*
X13128528Y25166167D02*
X13022462Y25060101D01*
G75*
G02*
X12916396Y25060101I-53033J53033D01*
G01*
X12350710Y25625787D01*
G75*
G02*
X12350710Y25731853I53033J53033D01*
G01*
X12456776Y25837919D01*
G75*
G02*
X12562842Y25837919I53033J-53033D01*
G01*
X13128528Y25272233D01*
G75*
G02*
X13128528Y25166167I-53033J-53033D01*
G01*
G37*
G36*
G01*
X13411371Y25449009D02*
X13305305Y25342943D01*
G75*
G02*
X13199239Y25342943I-53033J53033D01*
G01*
X12633553Y25908629D01*
G75*
G02*
X12633553Y26014695I53033J53033D01*
G01*
X12739619Y26120761D01*
G75*
G02*
X12845685Y26120761I53033J-53033D01*
G01*
X13411371Y25555075D01*
G75*
G02*
X13411371Y25449009I-53033J-53033D01*
G01*
G37*
G36*
G01*
X13694214Y25731852D02*
X13588148Y25625786D01*
G75*
G02*
X13482082Y25625786I-53033J53033D01*
G01*
X12916396Y26191472D01*
G75*
G02*
X12916396Y26297538I53033J53033D01*
G01*
X13022462Y26403604D01*
G75*
G02*
X13128528Y26403604I53033J-53033D01*
G01*
X13694214Y25837918D01*
G75*
G02*
X13694214Y25731852I-53033J-53033D01*
G01*
G37*
G36*
G01*
X13977057Y26014695D02*
X13870991Y25908629D01*
G75*
G02*
X13764925Y25908629I-53033J53033D01*
G01*
X13199239Y26474315D01*
G75*
G02*
X13199239Y26580381I53033J53033D01*
G01*
X13305305Y26686447D01*
G75*
G02*
X13411371Y26686447I53033J-53033D01*
G01*
X13977057Y26120761D01*
G75*
G02*
X13977057Y26014695I-53033J-53033D01*
G01*
G37*
G36*
G01*
X14259899Y26297538D02*
X14153833Y26191472D01*
G75*
G02*
X14047767Y26191472I-53033J53033D01*
G01*
X13482081Y26757158D01*
G75*
G02*
X13482081Y26863224I53033J53033D01*
G01*
X13588147Y26969290D01*
G75*
G02*
X13694213Y26969290I53033J-53033D01*
G01*
X14259899Y26403604D01*
G75*
G02*
X14259899Y26297538I-53033J-53033D01*
G01*
G37*
G36*
G01*
X14259899Y27676396D02*
X13694213Y27110710D01*
G75*
G02*
X13588147Y27110710I-53033J53033D01*
G01*
X13482081Y27216776D01*
G75*
G02*
X13482081Y27322842I53033J53033D01*
G01*
X14047767Y27888528D01*
G75*
G02*
X14153833Y27888528I53033J-53033D01*
G01*
X14259899Y27782462D01*
G75*
G02*
X14259899Y27676396I-53033J-53033D01*
G01*
G37*
G36*
G01*
X13977057Y27959239D02*
X13411371Y27393553D01*
G75*
G02*
X13305305Y27393553I-53033J53033D01*
G01*
X13199239Y27499619D01*
G75*
G02*
X13199239Y27605685I53033J53033D01*
G01*
X13764925Y28171371D01*
G75*
G02*
X13870991Y28171371I53033J-53033D01*
G01*
X13977057Y28065305D01*
G75*
G02*
X13977057Y27959239I-53033J-53033D01*
G01*
G37*
G36*
G01*
X13694214Y28242082D02*
X13128528Y27676396D01*
G75*
G02*
X13022462Y27676396I-53033J53033D01*
G01*
X12916396Y27782462D01*
G75*
G02*
X12916396Y27888528I53033J53033D01*
G01*
X13482082Y28454214D01*
G75*
G02*
X13588148Y28454214I53033J-53033D01*
G01*
X13694214Y28348148D01*
G75*
G02*
X13694214Y28242082I-53033J-53033D01*
G01*
G37*
G36*
G01*
X13411371Y28524925D02*
X12845685Y27959239D01*
G75*
G02*
X12739619Y27959239I-53033J53033D01*
G01*
X12633553Y28065305D01*
G75*
G02*
X12633553Y28171371I53033J53033D01*
G01*
X13199239Y28737057D01*
G75*
G02*
X13305305Y28737057I53033J-53033D01*
G01*
X13411371Y28630991D01*
G75*
G02*
X13411371Y28524925I-53033J-53033D01*
G01*
G37*
G36*
G01*
X13128528Y28807767D02*
X12562842Y28242081D01*
G75*
G02*
X12456776Y28242081I-53033J53033D01*
G01*
X12350710Y28348147D01*
G75*
G02*
X12350710Y28454213I53033J53033D01*
G01*
X12916396Y29019899D01*
G75*
G02*
X13022462Y29019899I53033J-53033D01*
G01*
X13128528Y28913833D01*
G75*
G02*
X13128528Y28807767I-53033J-53033D01*
G01*
G37*
G36*
G01*
X12209290Y28348147D02*
X12103224Y28242081D01*
G75*
G02*
X11997158Y28242081I-53033J53033D01*
G01*
X11431472Y28807767D01*
G75*
G02*
X11431472Y28913833I53033J53033D01*
G01*
X11537538Y29019899D01*
G75*
G02*
X11643604Y29019899I53033J-53033D01*
G01*
X12209290Y28454213D01*
G75*
G02*
X12209290Y28348147I-53033J-53033D01*
G01*
G37*
G36*
G01*
X11926447Y28065305D02*
X11820381Y27959239D01*
G75*
G02*
X11714315Y27959239I-53033J53033D01*
G01*
X11148629Y28524925D01*
G75*
G02*
X11148629Y28630991I53033J53033D01*
G01*
X11254695Y28737057D01*
G75*
G02*
X11360761Y28737057I53033J-53033D01*
G01*
X11926447Y28171371D01*
G75*
G02*
X11926447Y28065305I-53033J-53033D01*
G01*
G37*
G36*
G01*
X11643604Y27782462D02*
X11537538Y27676396D01*
G75*
G02*
X11431472Y27676396I-53033J53033D01*
G01*
X10865786Y28242082D01*
G75*
G02*
X10865786Y28348148I53033J53033D01*
G01*
X10971852Y28454214D01*
G75*
G02*
X11077918Y28454214I53033J-53033D01*
G01*
X11643604Y27888528D01*
G75*
G02*
X11643604Y27782462I-53033J-53033D01*
G01*
G37*
G36*
G01*
X11360761Y27499619D02*
X11254695Y27393553D01*
G75*
G02*
X11148629Y27393553I-53033J53033D01*
G01*
X10582943Y27959239D01*
G75*
G02*
X10582943Y28065305I53033J53033D01*
G01*
X10689009Y28171371D01*
G75*
G02*
X10795075Y28171371I53033J-53033D01*
G01*
X11360761Y27605685D01*
G75*
G02*
X11360761Y27499619I-53033J-53033D01*
G01*
G37*
G36*
G01*
X11077919Y27216776D02*
X10971853Y27110710D01*
G75*
G02*
X10865787Y27110710I-53033J53033D01*
G01*
X10300101Y27676396D01*
G75*
G02*
X10300101Y27782462I53033J53033D01*
G01*
X10406167Y27888528D01*
G75*
G02*
X10512233Y27888528I53033J-53033D01*
G01*
X11077919Y27322842D01*
G75*
G02*
X11077919Y27216776I-53033J-53033D01*
G01*
G37*
G36*
G01*
X11077919Y26757158D02*
X10512233Y26191472D01*
G75*
G02*
X10406167Y26191472I-53033J53033D01*
G01*
X10300101Y26297538D01*
G75*
G02*
X10300101Y26403604I53033J53033D01*
G01*
X10865787Y26969290D01*
G75*
G02*
X10971853Y26969290I53033J-53033D01*
G01*
X11077919Y26863224D01*
G75*
G02*
X11077919Y26757158I-53033J-53033D01*
G01*
G37*
G36*
G01*
X11360761Y26474315D02*
X10795075Y25908629D01*
G75*
G02*
X10689009Y25908629I-53033J53033D01*
G01*
X10582943Y26014695D01*
G75*
G02*
X10582943Y26120761I53033J53033D01*
G01*
X11148629Y26686447D01*
G75*
G02*
X11254695Y26686447I53033J-53033D01*
G01*
X11360761Y26580381D01*
G75*
G02*
X11360761Y26474315I-53033J-53033D01*
G01*
G37*
G36*
G01*
X11643604Y26191472D02*
X11077918Y25625786D01*
G75*
G02*
X10971852Y25625786I-53033J53033D01*
G01*
X10865786Y25731852D01*
G75*
G02*
X10865786Y25837918I53033J53033D01*
G01*
X11431472Y26403604D01*
G75*
G02*
X11537538Y26403604I53033J-53033D01*
G01*
X11643604Y26297538D01*
G75*
G02*
X11643604Y26191472I-53033J-53033D01*
G01*
G37*
G36*
G01*
X11926447Y25908629D02*
X11360761Y25342943D01*
G75*
G02*
X11254695Y25342943I-53033J53033D01*
G01*
X11148629Y25449009D01*
G75*
G02*
X11148629Y25555075I53033J53033D01*
G01*
X11714315Y26120761D01*
G75*
G02*
X11820381Y26120761I53033J-53033D01*
G01*
X11926447Y26014695D01*
G75*
G02*
X11926447Y25908629I-53033J-53033D01*
G01*
G37*
G36*
G01*
X12209290Y25625787D02*
X11643604Y25060101D01*
G75*
G02*
X11537538Y25060101I-53033J53033D01*
G01*
X11431472Y25166167D01*
G75*
G02*
X11431472Y25272233I53033J53033D01*
G01*
X11997158Y25837919D01*
G75*
G02*
X12103224Y25837919I53033J-53033D01*
G01*
X12209290Y25731853D01*
G75*
G02*
X12209290Y25625787I-53033J-53033D01*
G01*
G37*
G36*
G01*
X13482081Y27004645D02*
X12315355Y25837919D01*
G75*
G02*
X12244645Y25837919I-35355J35355D01*
G01*
X11077919Y27004645D01*
G75*
G02*
X11077919Y27075355I35355J35355D01*
G01*
X12244645Y28242081D01*
G75*
G02*
X12315355Y28242081I35355J-35355D01*
G01*
X13482081Y27075355D01*
G75*
G02*
X13482081Y27004645I-35355J-35355D01*
G01*
G37*
D10*
X4830000Y29470000D03*
X4330000Y29470000D03*
X5580000Y29040000D03*
X5080000Y29040000D03*
X5330000Y29470000D03*
X4080000Y29040000D03*
X5830000Y29470000D03*
X3830000Y29470000D03*
G36*
G01*
X11370000Y4635000D02*
X11370000Y4885000D01*
G75*
G02*
X11495000Y5010000I125000J0D01*
G01*
X11805000Y5010000D01*
G75*
G02*
X11930000Y4885000I0J-125000D01*
G01*
X11930000Y4635000D01*
G75*
G02*
X11805000Y4510000I-125000J0D01*
G01*
X11495000Y4510000D01*
G75*
G02*
X11370000Y4635000I0J125000D01*
G01*
G37*
G36*
G01*
X10730000Y4635000D02*
X10730000Y4885000D01*
G75*
G02*
X10855000Y5010000I125000J0D01*
G01*
X11165000Y5010000D01*
G75*
G02*
X11290000Y4885000I0J-125000D01*
G01*
X11290000Y4635000D01*
G75*
G02*
X11165000Y4510000I-125000J0D01*
G01*
X10855000Y4510000D01*
G75*
G02*
X10730000Y4635000I0J125000D01*
G01*
G37*
D11*
X16510000Y26670000D03*
X16510000Y29210000D03*
X16510000Y31750000D03*
X16510000Y34290000D03*
X16510000Y36830000D03*
X16510000Y39370000D03*
G36*
G01*
X4474039Y7928303D02*
X4641977Y8096241D01*
G75*
G02*
X4809915Y8096241I83969J-83969D01*
G01*
X5066241Y7839915D01*
G75*
G02*
X5066241Y7671977I-83969J-83969D01*
G01*
X4898303Y7504039D01*
G75*
G02*
X4730365Y7504039I-83969J83969D01*
G01*
X4474039Y7760365D01*
G75*
G02*
X4474039Y7928303I83969J83969D01*
G01*
G37*
G36*
G01*
X3713899Y7168163D02*
X3881837Y7336101D01*
G75*
G02*
X4049775Y7336101I83969J-83969D01*
G01*
X4306101Y7079775D01*
G75*
G02*
X4306101Y6911837I-83969J-83969D01*
G01*
X4138163Y6743899D01*
G75*
G02*
X3970225Y6743899I-83969J83969D01*
G01*
X3713899Y7000225D01*
G75*
G02*
X3713899Y7168163I83969J83969D01*
G01*
G37*
G36*
G01*
X2799079Y8869640D02*
X2940500Y9011061D01*
G75*
G02*
X3081922Y9011061I70711J-70711D01*
G01*
X3470831Y8622152D01*
G75*
G02*
X3470831Y8480730I-70711J-70711D01*
G01*
X3329410Y8339309D01*
G75*
G02*
X3187988Y8339309I-70711J70711D01*
G01*
X2799079Y8728218D01*
G75*
G02*
X2799079Y8869640I70711J70711D01*
G01*
G37*
G36*
G01*
X4107227Y7561492D02*
X4248648Y7702913D01*
G75*
G02*
X4390070Y7702913I70711J-70711D01*
G01*
X4778979Y7314004D01*
G75*
G02*
X4778979Y7172582I-70711J-70711D01*
G01*
X4637558Y7031161D01*
G75*
G02*
X4496136Y7031161I-70711J70711D01*
G01*
X4107227Y7420070D01*
G75*
G02*
X4107227Y7561492I70711J70711D01*
G01*
G37*
G36*
G01*
X2511817Y8370245D02*
X2679755Y8538183D01*
G75*
G02*
X2847693Y8538183I83969J-83969D01*
G01*
X3104019Y8281857D01*
G75*
G02*
X3104019Y8113919I-83969J-83969D01*
G01*
X2936081Y7945981D01*
G75*
G02*
X2768143Y7945981I-83969J83969D01*
G01*
X2511817Y8202307D01*
G75*
G02*
X2511817Y8370245I83969J83969D01*
G01*
G37*
G36*
G01*
X3271957Y9130385D02*
X3439895Y9298323D01*
G75*
G02*
X3607833Y9298323I83969J-83969D01*
G01*
X3864159Y9041997D01*
G75*
G02*
X3864159Y8874059I-83969J-83969D01*
G01*
X3696221Y8706121D01*
G75*
G02*
X3528283Y8706121I-83969J83969D01*
G01*
X3271957Y8962447D01*
G75*
G02*
X3271957Y9130385I83969J83969D01*
G01*
G37*
G36*
G01*
X3800000Y31860000D02*
X3300000Y31860000D01*
G75*
G02*
X3150000Y32010000I0J150000D01*
G01*
X3150000Y32310000D01*
G75*
G02*
X3300000Y32460000I150000J0D01*
G01*
X3800000Y32460000D01*
G75*
G02*
X3950000Y32310000I0J-150000D01*
G01*
X3950000Y32010000D01*
G75*
G02*
X3800000Y31860000I-150000J0D01*
G01*
G37*
G36*
G01*
X3800000Y32660000D02*
X3300000Y32660000D01*
G75*
G02*
X3150000Y32810000I0J150000D01*
G01*
X3150000Y33110000D01*
G75*
G02*
X3300000Y33260000I150000J0D01*
G01*
X3800000Y33260000D01*
G75*
G02*
X3950000Y33110000I0J-150000D01*
G01*
X3950000Y32810000D01*
G75*
G02*
X3800000Y32660000I-150000J0D01*
G01*
G37*
G36*
G01*
X5720000Y31860000D02*
X5220000Y31860000D01*
G75*
G02*
X5070000Y32010000I0J150000D01*
G01*
X5070000Y32310000D01*
G75*
G02*
X5220000Y32460000I150000J0D01*
G01*
X5720000Y32460000D01*
G75*
G02*
X5870000Y32310000I0J-150000D01*
G01*
X5870000Y32010000D01*
G75*
G02*
X5720000Y31860000I-150000J0D01*
G01*
G37*
G36*
G01*
X5720000Y32660000D02*
X5220000Y32660000D01*
G75*
G02*
X5070000Y32810000I0J150000D01*
G01*
X5070000Y33110000D01*
G75*
G02*
X5220000Y33260000I150000J0D01*
G01*
X5720000Y33260000D01*
G75*
G02*
X5870000Y33110000I0J-150000D01*
G01*
X5870000Y32810000D01*
G75*
G02*
X5720000Y32660000I-150000J0D01*
G01*
G37*
G36*
G01*
X8361750Y30009000D02*
X7861250Y30009000D01*
G75*
G02*
X7780000Y30090250I0J81250D01*
G01*
X7780000Y30252750D01*
G75*
G02*
X7861250Y30334000I81250J0D01*
G01*
X8361750Y30334000D01*
G75*
G02*
X8443000Y30252750I0J-81250D01*
G01*
X8443000Y30090250D01*
G75*
G02*
X8361750Y30009000I-81250J0D01*
G01*
G37*
G36*
G01*
X8361750Y30409000D02*
X7861250Y30409000D01*
G75*
G02*
X7780000Y30490250I0J81250D01*
G01*
X7780000Y30652750D01*
G75*
G02*
X7861250Y30734000I81250J0D01*
G01*
X8361750Y30734000D01*
G75*
G02*
X8443000Y30652750I0J-81250D01*
G01*
X8443000Y30490250D01*
G75*
G02*
X8361750Y30409000I-81250J0D01*
G01*
G37*
G36*
G01*
X8361750Y30809000D02*
X7861250Y30809000D01*
G75*
G02*
X7780000Y30890250I0J81250D01*
G01*
X7780000Y31052750D01*
G75*
G02*
X7861250Y31134000I81250J0D01*
G01*
X8361750Y31134000D01*
G75*
G02*
X8443000Y31052750I0J-81250D01*
G01*
X8443000Y30890250D01*
G75*
G02*
X8361750Y30809000I-81250J0D01*
G01*
G37*
G36*
G01*
X8842500Y31390250D02*
X8842500Y30889750D01*
G75*
G02*
X8761250Y30808500I-81250J0D01*
G01*
X8598750Y30808500D01*
G75*
G02*
X8517500Y30889750I0J81250D01*
G01*
X8517500Y31390250D01*
G75*
G02*
X8598750Y31471500I81250J0D01*
G01*
X8761250Y31471500D01*
G75*
G02*
X8842500Y31390250I0J-81250D01*
G01*
G37*
G36*
G01*
X9242500Y31390250D02*
X9242500Y30889750D01*
G75*
G02*
X9161250Y30808500I-81250J0D01*
G01*
X8998750Y30808500D01*
G75*
G02*
X8917500Y30889750I0J81250D01*
G01*
X8917500Y31390250D01*
G75*
G02*
X8998750Y31471500I81250J0D01*
G01*
X9161250Y31471500D01*
G75*
G02*
X9242500Y31390250I0J-81250D01*
G01*
G37*
G36*
G01*
X9898750Y30809000D02*
X9398250Y30809000D01*
G75*
G02*
X9317000Y30890250I0J81250D01*
G01*
X9317000Y31052750D01*
G75*
G02*
X9398250Y31134000I81250J0D01*
G01*
X9898750Y31134000D01*
G75*
G02*
X9980000Y31052750I0J-81250D01*
G01*
X9980000Y30890250D01*
G75*
G02*
X9898750Y30809000I-81250J0D01*
G01*
G37*
G36*
G01*
X9898750Y30409000D02*
X9398250Y30409000D01*
G75*
G02*
X9317000Y30490250I0J81250D01*
G01*
X9317000Y30652750D01*
G75*
G02*
X9398250Y30734000I81250J0D01*
G01*
X9898750Y30734000D01*
G75*
G02*
X9980000Y30652750I0J-81250D01*
G01*
X9980000Y30490250D01*
G75*
G02*
X9898750Y30409000I-81250J0D01*
G01*
G37*
G36*
G01*
X9898750Y30009000D02*
X9398250Y30009000D01*
G75*
G02*
X9317000Y30090250I0J81250D01*
G01*
X9317000Y30252750D01*
G75*
G02*
X9398250Y30334000I81250J0D01*
G01*
X9898750Y30334000D01*
G75*
G02*
X9980000Y30252750I0J-81250D01*
G01*
X9980000Y30090250D01*
G75*
G02*
X9898750Y30009000I-81250J0D01*
G01*
G37*
G36*
G01*
X9242500Y30253250D02*
X9242500Y29752750D01*
G75*
G02*
X9161250Y29671500I-81250J0D01*
G01*
X8998750Y29671500D01*
G75*
G02*
X8917500Y29752750I0J81250D01*
G01*
X8917500Y30253250D01*
G75*
G02*
X8998750Y30334500I81250J0D01*
G01*
X9161250Y30334500D01*
G75*
G02*
X9242500Y30253250I0J-81250D01*
G01*
G37*
G36*
G01*
X8842500Y30353250D02*
X8842500Y29752750D01*
G75*
G02*
X8761250Y29671500I-81250J0D01*
G01*
X8598750Y29671500D01*
G75*
G02*
X8517500Y29752750I0J81250D01*
G01*
X8517500Y30353250D01*
G75*
G02*
X8598750Y30434500I81250J0D01*
G01*
X8761250Y30434500D01*
G75*
G02*
X8842500Y30353250I0J-81250D01*
G01*
G37*
G36*
G01*
X10465000Y33170000D02*
X10465000Y32710000D01*
G75*
G02*
X10395000Y32640000I-70000J0D01*
G01*
X10185000Y32640000D01*
G75*
G02*
X10115000Y32710000I0J70000D01*
G01*
X10115000Y33170000D01*
G75*
G02*
X10185000Y33240000I70000J0D01*
G01*
X10395000Y33240000D01*
G75*
G02*
X10465000Y33170000I0J-70000D01*
G01*
G37*
G36*
G01*
X8065000Y33170000D02*
X8065000Y32810000D01*
G75*
G02*
X7995000Y32740000I-70000J0D01*
G01*
X7785000Y32740000D01*
G75*
G02*
X7715000Y32810000I0J70000D01*
G01*
X7715000Y33170000D01*
G75*
G02*
X7785000Y33240000I70000J0D01*
G01*
X7995000Y33240000D01*
G75*
G02*
X8065000Y33170000I0J-70000D01*
G01*
G37*
G36*
G01*
X10065000Y33170000D02*
X10065000Y32810000D01*
G75*
G02*
X9995000Y32740000I-70000J0D01*
G01*
X9785000Y32740000D01*
G75*
G02*
X9715000Y32810000I0J70000D01*
G01*
X9715000Y33170000D01*
G75*
G02*
X9785000Y33240000I70000J0D01*
G01*
X9995000Y33240000D01*
G75*
G02*
X10065000Y33170000I0J-70000D01*
G01*
G37*
G36*
G01*
X8465000Y33170000D02*
X8465000Y32810000D01*
G75*
G02*
X8395000Y32740000I-70000J0D01*
G01*
X8185000Y32740000D01*
G75*
G02*
X8115000Y32810000I0J70000D01*
G01*
X8115000Y33170000D01*
G75*
G02*
X8185000Y33240000I70000J0D01*
G01*
X8395000Y33240000D01*
G75*
G02*
X8465000Y33170000I0J-70000D01*
G01*
G37*
G36*
G01*
X9665000Y33170000D02*
X9665000Y32810000D01*
G75*
G02*
X9595000Y32740000I-70000J0D01*
G01*
X9385000Y32740000D01*
G75*
G02*
X9315000Y32810000I0J70000D01*
G01*
X9315000Y33170000D01*
G75*
G02*
X9385000Y33240000I70000J0D01*
G01*
X9595000Y33240000D01*
G75*
G02*
X9665000Y33170000I0J-70000D01*
G01*
G37*
G36*
G01*
X8865000Y33170000D02*
X8865000Y32810000D01*
G75*
G02*
X8795000Y32740000I-70000J0D01*
G01*
X8585000Y32740000D01*
G75*
G02*
X8515000Y32810000I0J70000D01*
G01*
X8515000Y33170000D01*
G75*
G02*
X8585000Y33240000I70000J0D01*
G01*
X8795000Y33240000D01*
G75*
G02*
X8865000Y33170000I0J-70000D01*
G01*
G37*
G36*
G01*
X9265000Y33170000D02*
X9265000Y32810000D01*
G75*
G02*
X9195000Y32740000I-70000J0D01*
G01*
X8985000Y32740000D01*
G75*
G02*
X8915000Y32810000I0J70000D01*
G01*
X8915000Y33170000D01*
G75*
G02*
X8985000Y33240000I70000J0D01*
G01*
X9195000Y33240000D01*
G75*
G02*
X9265000Y33170000I0J-70000D01*
G01*
G37*
G36*
G01*
X7665000Y33170000D02*
X7665000Y32810000D01*
G75*
G02*
X7595000Y32740000I-70000J0D01*
G01*
X7385000Y32740000D01*
G75*
G02*
X7315000Y32810000I0J70000D01*
G01*
X7315000Y33170000D01*
G75*
G02*
X7385000Y33240000I70000J0D01*
G01*
X7595000Y33240000D01*
G75*
G02*
X7665000Y33170000I0J-70000D01*
G01*
G37*
G36*
G01*
X9770000Y32570000D02*
X9770000Y32060000D01*
G75*
G02*
X9650000Y31940000I-120000J0D01*
G01*
X9290000Y31940000D01*
G75*
G02*
X9170000Y32060000I0J120000D01*
G01*
X9170000Y32570000D01*
G75*
G02*
X9290000Y32690000I120000J0D01*
G01*
X9650000Y32690000D01*
G75*
G02*
X9770000Y32570000I0J-120000D01*
G01*
G37*
G36*
G01*
X8610000Y32570000D02*
X8610000Y32060000D01*
G75*
G02*
X8490000Y31940000I-120000J0D01*
G01*
X8130000Y31940000D01*
G75*
G02*
X8010000Y32060000I0J120000D01*
G01*
X8010000Y32570000D01*
G75*
G02*
X8130000Y32690000I120000J0D01*
G01*
X8490000Y32690000D01*
G75*
G02*
X8610000Y32570000I0J-120000D01*
G01*
G37*
X16510000Y1270000D03*
X16510000Y3810000D03*
X16510000Y6350000D03*
X16510000Y8890000D03*
X16510000Y11430000D03*
X16510000Y13970000D03*
X16510000Y16510000D03*
X16510000Y19050000D03*
X16510000Y21590000D03*
X16510000Y24130000D03*
G36*
G01*
X8885000Y28830000D02*
X9135000Y28830000D01*
G75*
G02*
X9260000Y28705000I0J-125000D01*
G01*
X9260000Y28395000D01*
G75*
G02*
X9135000Y28270000I-125000J0D01*
G01*
X8885000Y28270000D01*
G75*
G02*
X8760000Y28395000I0J125000D01*
G01*
X8760000Y28705000D01*
G75*
G02*
X8885000Y28830000I125000J0D01*
G01*
G37*
G36*
G01*
X8885000Y29470000D02*
X9135000Y29470000D01*
G75*
G02*
X9260000Y29345000I0J-125000D01*
G01*
X9260000Y29035000D01*
G75*
G02*
X9135000Y28910000I-125000J0D01*
G01*
X8885000Y28910000D01*
G75*
G02*
X8760000Y29035000I0J125000D01*
G01*
X8760000Y29345000D01*
G75*
G02*
X8885000Y29470000I125000J0D01*
G01*
G37*
G36*
G01*
X10760104Y5826673D02*
X10583327Y5649896D01*
G75*
G02*
X10406551Y5649896I-88388J88388D01*
G01*
X10187348Y5869099D01*
G75*
G02*
X10187348Y6045875I88388J88388D01*
G01*
X10364125Y6222652D01*
G75*
G02*
X10540901Y6222652I88388J-88388D01*
G01*
X10760104Y6003449D01*
G75*
G02*
X10760104Y5826673I-88388J-88388D01*
G01*
G37*
G36*
G01*
X11212652Y5374125D02*
X11035875Y5197348D01*
G75*
G02*
X10859099Y5197348I-88388J88388D01*
G01*
X10639896Y5416551D01*
G75*
G02*
X10639896Y5593327I88388J88388D01*
G01*
X10816673Y5770104D01*
G75*
G02*
X10993449Y5770104I88388J-88388D01*
G01*
X11212652Y5550901D01*
G75*
G02*
X11212652Y5374125I-88388J-88388D01*
G01*
G37*
G36*
G01*
X7022548Y14966863D02*
X6683137Y14627452D01*
G75*
G02*
X6456863Y14627452I-113137J113137D01*
G01*
X6117452Y14966863D01*
G75*
G02*
X6117452Y15193137I113137J113137D01*
G01*
X6456863Y15532548D01*
G75*
G02*
X6683137Y15532548I113137J-113137D01*
G01*
X7022548Y15193137D01*
G75*
G02*
X7022548Y14966863I-113137J-113137D01*
G01*
G37*
G36*
G01*
X6244731Y14189046D02*
X5905320Y13849635D01*
G75*
G02*
X5679046Y13849635I-113137J113137D01*
G01*
X5339635Y14189046D01*
G75*
G02*
X5339635Y14415320I113137J113137D01*
G01*
X5679046Y14754731D01*
G75*
G02*
X5905320Y14754731I113137J-113137D01*
G01*
X6244731Y14415320D01*
G75*
G02*
X6244731Y14189046I-113137J-113137D01*
G01*
G37*
G36*
G01*
X6244731Y15744680D02*
X5905320Y15405269D01*
G75*
G02*
X5679046Y15405269I-113137J113137D01*
G01*
X5339635Y15744680D01*
G75*
G02*
X5339635Y15970954I113137J113137D01*
G01*
X5679046Y16310365D01*
G75*
G02*
X5905320Y16310365I113137J-113137D01*
G01*
X6244731Y15970954D01*
G75*
G02*
X6244731Y15744680I-113137J-113137D01*
G01*
G37*
G36*
G01*
X5466914Y14966863D02*
X5127503Y14627452D01*
G75*
G02*
X4901229Y14627452I-113137J113137D01*
G01*
X4561818Y14966863D01*
G75*
G02*
X4561818Y15193137I113137J113137D01*
G01*
X4901229Y15532548D01*
G75*
G02*
X5127503Y15532548I113137J-113137D01*
G01*
X5466914Y15193137D01*
G75*
G02*
X5466914Y14966863I-113137J-113137D01*
G01*
G37*
G36*
G01*
X3969046Y12149635D02*
X3629635Y12489046D01*
G75*
G02*
X3629635Y12715320I113137J113137D01*
G01*
X3969046Y13054731D01*
G75*
G02*
X4195320Y13054731I113137J-113137D01*
G01*
X4534731Y12715320D01*
G75*
G02*
X4534731Y12489046I-113137J-113137D01*
G01*
X4195320Y12149635D01*
G75*
G02*
X3969046Y12149635I-113137J113137D01*
G01*
G37*
G36*
G01*
X3191229Y12927452D02*
X2851818Y13266863D01*
G75*
G02*
X2851818Y13493137I113137J113137D01*
G01*
X3191229Y13832548D01*
G75*
G02*
X3417503Y13832548I113137J-113137D01*
G01*
X3756914Y13493137D01*
G75*
G02*
X3756914Y13266863I-113137J-113137D01*
G01*
X3417503Y12927452D01*
G75*
G02*
X3191229Y12927452I-113137J113137D01*
G01*
G37*
G36*
G01*
X4746863Y12927452D02*
X4407452Y13266863D01*
G75*
G02*
X4407452Y13493137I113137J113137D01*
G01*
X4746863Y13832548D01*
G75*
G02*
X4973137Y13832548I113137J-113137D01*
G01*
X5312548Y13493137D01*
G75*
G02*
X5312548Y13266863I-113137J-113137D01*
G01*
X4973137Y12927452D01*
G75*
G02*
X4746863Y12927452I-113137J113137D01*
G01*
G37*
G36*
G01*
X3969046Y13705269D02*
X3629635Y14044680D01*
G75*
G02*
X3629635Y14270954I113137J113137D01*
G01*
X3969046Y14610365D01*
G75*
G02*
X4195320Y14610365I113137J-113137D01*
G01*
X4534731Y14270954D01*
G75*
G02*
X4534731Y14044680I-113137J-113137D01*
G01*
X4195320Y13705269D01*
G75*
G02*
X3969046Y13705269I-113137J113137D01*
G01*
G37*
G36*
G01*
X2973397Y15983103D02*
X2824905Y16131595D01*
G75*
G02*
X2824905Y16230589I49497J49497D01*
G01*
X3079463Y16485147D01*
G75*
G02*
X3178457Y16485147I49497J-49497D01*
G01*
X3326949Y16336655D01*
G75*
G02*
X3326949Y16237661I-49497J-49497D01*
G01*
X3072391Y15983103D01*
G75*
G02*
X2973397Y15983103I-49497J49497D01*
G01*
G37*
G36*
G01*
X3291595Y15664905D02*
X3143103Y15813397D01*
G75*
G02*
X3143103Y15912391I49497J49497D01*
G01*
X3397661Y16166949D01*
G75*
G02*
X3496655Y16166949I49497J-49497D01*
G01*
X3645147Y16018457D01*
G75*
G02*
X3645147Y15919463I-49497J-49497D01*
G01*
X3390589Y15664905D01*
G75*
G02*
X3291595Y15664905I-49497J49497D01*
G01*
G37*
G36*
G01*
X3791872Y16154575D02*
X3314575Y16631872D01*
G75*
G02*
X3314575Y16720260I44194J44194D01*
G01*
X3579740Y16985425D01*
G75*
G02*
X3668128Y16985425I44194J-44194D01*
G01*
X4145425Y16508128D01*
G75*
G02*
X4145425Y16419740I-44194J-44194D01*
G01*
X3880260Y16154575D01*
G75*
G02*
X3791872Y16154575I-44194J44194D01*
G01*
G37*
G36*
G01*
X12673021Y10654645D02*
X8925355Y6906979D01*
G75*
G02*
X8854645Y6906979I-35355J35355D01*
G01*
X5106979Y10654645D01*
G75*
G02*
X5106979Y10725355I35355J35355D01*
G01*
X8854645Y14473021D01*
G75*
G02*
X8925355Y14473021I35355J-35355D01*
G01*
X12673021Y10725355D01*
G75*
G02*
X12673021Y10654645I-35355J-35355D01*
G01*
G37*
G36*
G01*
X8775095Y6438520D02*
X8262443Y5925868D01*
G75*
G02*
X8138699Y5925868I-61872J61872D01*
G01*
X8014955Y6049612D01*
G75*
G02*
X8014955Y6173356I61872J61872D01*
G01*
X8527607Y6686008D01*
G75*
G02*
X8651351Y6686008I61872J-61872D01*
G01*
X8775095Y6562264D01*
G75*
G02*
X8775095Y6438520I-61872J-61872D01*
G01*
G37*
G36*
G01*
X8421542Y6792073D02*
X7908890Y6279421D01*
G75*
G02*
X7785146Y6279421I-61872J61872D01*
G01*
X7661402Y6403165D01*
G75*
G02*
X7661402Y6526909I61872J61872D01*
G01*
X8174054Y7039561D01*
G75*
G02*
X8297798Y7039561I61872J-61872D01*
G01*
X8421542Y6915817D01*
G75*
G02*
X8421542Y6792073I-61872J-61872D01*
G01*
G37*
G36*
G01*
X8067988Y7145627D02*
X7555336Y6632975D01*
G75*
G02*
X7431592Y6632975I-61872J61872D01*
G01*
X7307848Y6756719D01*
G75*
G02*
X7307848Y6880463I61872J61872D01*
G01*
X7820500Y7393115D01*
G75*
G02*
X7944244Y7393115I61872J-61872D01*
G01*
X8067988Y7269371D01*
G75*
G02*
X8067988Y7145627I-61872J-61872D01*
G01*
G37*
G36*
G01*
X7714435Y7499180D02*
X7201783Y6986528D01*
G75*
G02*
X7078039Y6986528I-61872J61872D01*
G01*
X6954295Y7110272D01*
G75*
G02*
X6954295Y7234016I61872J61872D01*
G01*
X7466947Y7746668D01*
G75*
G02*
X7590691Y7746668I61872J-61872D01*
G01*
X7714435Y7622924D01*
G75*
G02*
X7714435Y7499180I-61872J-61872D01*
G01*
G37*
G36*
G01*
X7360882Y7852734D02*
X6848230Y7340082D01*
G75*
G02*
X6724486Y7340082I-61872J61872D01*
G01*
X6600742Y7463826D01*
G75*
G02*
X6600742Y7587570I61872J61872D01*
G01*
X7113394Y8100222D01*
G75*
G02*
X7237138Y8100222I61872J-61872D01*
G01*
X7360882Y7976478D01*
G75*
G02*
X7360882Y7852734I-61872J-61872D01*
G01*
G37*
G36*
G01*
X7007328Y8206287D02*
X6494676Y7693635D01*
G75*
G02*
X6370932Y7693635I-61872J61872D01*
G01*
X6247188Y7817379D01*
G75*
G02*
X6247188Y7941123I61872J61872D01*
G01*
X6759840Y8453775D01*
G75*
G02*
X6883584Y8453775I61872J-61872D01*
G01*
X7007328Y8330031D01*
G75*
G02*
X7007328Y8206287I-61872J-61872D01*
G01*
G37*
G36*
G01*
X6653775Y8559840D02*
X6141123Y8047188D01*
G75*
G02*
X6017379Y8047188I-61872J61872D01*
G01*
X5893635Y8170932D01*
G75*
G02*
X5893635Y8294676I61872J61872D01*
G01*
X6406287Y8807328D01*
G75*
G02*
X6530031Y8807328I61872J-61872D01*
G01*
X6653775Y8683584D01*
G75*
G02*
X6653775Y8559840I-61872J-61872D01*
G01*
G37*
G36*
G01*
X6300222Y8913394D02*
X5787570Y8400742D01*
G75*
G02*
X5663826Y8400742I-61872J61872D01*
G01*
X5540082Y8524486D01*
G75*
G02*
X5540082Y8648230I61872J61872D01*
G01*
X6052734Y9160882D01*
G75*
G02*
X6176478Y9160882I61872J-61872D01*
G01*
X6300222Y9037138D01*
G75*
G02*
X6300222Y8913394I-61872J-61872D01*
G01*
G37*
G36*
G01*
X5946668Y9266947D02*
X5434016Y8754295D01*
G75*
G02*
X5310272Y8754295I-61872J61872D01*
G01*
X5186528Y8878039D01*
G75*
G02*
X5186528Y9001783I61872J61872D01*
G01*
X5699180Y9514435D01*
G75*
G02*
X5822924Y9514435I61872J-61872D01*
G01*
X5946668Y9390691D01*
G75*
G02*
X5946668Y9266947I-61872J-61872D01*
G01*
G37*
G36*
G01*
X5593115Y9620500D02*
X5080463Y9107848D01*
G75*
G02*
X4956719Y9107848I-61872J61872D01*
G01*
X4832975Y9231592D01*
G75*
G02*
X4832975Y9355336I61872J61872D01*
G01*
X5345627Y9867988D01*
G75*
G02*
X5469371Y9867988I61872J-61872D01*
G01*
X5593115Y9744244D01*
G75*
G02*
X5593115Y9620500I-61872J-61872D01*
G01*
G37*
G36*
G01*
X5239561Y9974054D02*
X4726909Y9461402D01*
G75*
G02*
X4603165Y9461402I-61872J61872D01*
G01*
X4479421Y9585146D01*
G75*
G02*
X4479421Y9708890I61872J61872D01*
G01*
X4992073Y10221542D01*
G75*
G02*
X5115817Y10221542I61872J-61872D01*
G01*
X5239561Y10097798D01*
G75*
G02*
X5239561Y9974054I-61872J-61872D01*
G01*
G37*
G36*
G01*
X4886008Y10327607D02*
X4373356Y9814955D01*
G75*
G02*
X4249612Y9814955I-61872J61872D01*
G01*
X4125868Y9938699D01*
G75*
G02*
X4125868Y10062443I61872J61872D01*
G01*
X4638520Y10575095D01*
G75*
G02*
X4762264Y10575095I61872J-61872D01*
G01*
X4886008Y10451351D01*
G75*
G02*
X4886008Y10327607I-61872J-61872D01*
G01*
G37*
G36*
G01*
X4886008Y10928649D02*
X4762264Y10804905D01*
G75*
G02*
X4638520Y10804905I-61872J61872D01*
G01*
X4125868Y11317557D01*
G75*
G02*
X4125868Y11441301I61872J61872D01*
G01*
X4249612Y11565045D01*
G75*
G02*
X4373356Y11565045I61872J-61872D01*
G01*
X4886008Y11052393D01*
G75*
G02*
X4886008Y10928649I-61872J-61872D01*
G01*
G37*
G36*
G01*
X5239561Y11282202D02*
X5115817Y11158458D01*
G75*
G02*
X4992073Y11158458I-61872J61872D01*
G01*
X4479421Y11671110D01*
G75*
G02*
X4479421Y11794854I61872J61872D01*
G01*
X4603165Y11918598D01*
G75*
G02*
X4726909Y11918598I61872J-61872D01*
G01*
X5239561Y11405946D01*
G75*
G02*
X5239561Y11282202I-61872J-61872D01*
G01*
G37*
G36*
G01*
X5593115Y11635756D02*
X5469371Y11512012D01*
G75*
G02*
X5345627Y11512012I-61872J61872D01*
G01*
X4832975Y12024664D01*
G75*
G02*
X4832975Y12148408I61872J61872D01*
G01*
X4956719Y12272152D01*
G75*
G02*
X5080463Y12272152I61872J-61872D01*
G01*
X5593115Y11759500D01*
G75*
G02*
X5593115Y11635756I-61872J-61872D01*
G01*
G37*
G36*
G01*
X5946668Y11989309D02*
X5822924Y11865565D01*
G75*
G02*
X5699180Y11865565I-61872J61872D01*
G01*
X5186528Y12378217D01*
G75*
G02*
X5186528Y12501961I61872J61872D01*
G01*
X5310272Y12625705D01*
G75*
G02*
X5434016Y12625705I61872J-61872D01*
G01*
X5946668Y12113053D01*
G75*
G02*
X5946668Y11989309I-61872J-61872D01*
G01*
G37*
G36*
G01*
X6300222Y12342862D02*
X6176478Y12219118D01*
G75*
G02*
X6052734Y12219118I-61872J61872D01*
G01*
X5540082Y12731770D01*
G75*
G02*
X5540082Y12855514I61872J61872D01*
G01*
X5663826Y12979258D01*
G75*
G02*
X5787570Y12979258I61872J-61872D01*
G01*
X6300222Y12466606D01*
G75*
G02*
X6300222Y12342862I-61872J-61872D01*
G01*
G37*
G36*
G01*
X6653775Y12696416D02*
X6530031Y12572672D01*
G75*
G02*
X6406287Y12572672I-61872J61872D01*
G01*
X5893635Y13085324D01*
G75*
G02*
X5893635Y13209068I61872J61872D01*
G01*
X6017379Y13332812D01*
G75*
G02*
X6141123Y13332812I61872J-61872D01*
G01*
X6653775Y12820160D01*
G75*
G02*
X6653775Y12696416I-61872J-61872D01*
G01*
G37*
G36*
G01*
X7007328Y13049969D02*
X6883584Y12926225D01*
G75*
G02*
X6759840Y12926225I-61872J61872D01*
G01*
X6247188Y13438877D01*
G75*
G02*
X6247188Y13562621I61872J61872D01*
G01*
X6370932Y13686365D01*
G75*
G02*
X6494676Y13686365I61872J-61872D01*
G01*
X7007328Y13173713D01*
G75*
G02*
X7007328Y13049969I-61872J-61872D01*
G01*
G37*
G36*
G01*
X7360882Y13403522D02*
X7237138Y13279778D01*
G75*
G02*
X7113394Y13279778I-61872J61872D01*
G01*
X6600742Y13792430D01*
G75*
G02*
X6600742Y13916174I61872J61872D01*
G01*
X6724486Y14039918D01*
G75*
G02*
X6848230Y14039918I61872J-61872D01*
G01*
X7360882Y13527266D01*
G75*
G02*
X7360882Y13403522I-61872J-61872D01*
G01*
G37*
G36*
G01*
X7714435Y13757076D02*
X7590691Y13633332D01*
G75*
G02*
X7466947Y13633332I-61872J61872D01*
G01*
X6954295Y14145984D01*
G75*
G02*
X6954295Y14269728I61872J61872D01*
G01*
X7078039Y14393472D01*
G75*
G02*
X7201783Y14393472I61872J-61872D01*
G01*
X7714435Y13880820D01*
G75*
G02*
X7714435Y13757076I-61872J-61872D01*
G01*
G37*
G36*
G01*
X8067988Y14110629D02*
X7944244Y13986885D01*
G75*
G02*
X7820500Y13986885I-61872J61872D01*
G01*
X7307848Y14499537D01*
G75*
G02*
X7307848Y14623281I61872J61872D01*
G01*
X7431592Y14747025D01*
G75*
G02*
X7555336Y14747025I61872J-61872D01*
G01*
X8067988Y14234373D01*
G75*
G02*
X8067988Y14110629I-61872J-61872D01*
G01*
G37*
G36*
G01*
X8421542Y14464183D02*
X8297798Y14340439D01*
G75*
G02*
X8174054Y14340439I-61872J61872D01*
G01*
X7661402Y14853091D01*
G75*
G02*
X7661402Y14976835I61872J61872D01*
G01*
X7785146Y15100579D01*
G75*
G02*
X7908890Y15100579I61872J-61872D01*
G01*
X8421542Y14587927D01*
G75*
G02*
X8421542Y14464183I-61872J-61872D01*
G01*
G37*
G36*
G01*
X8775095Y14817736D02*
X8651351Y14693992D01*
G75*
G02*
X8527607Y14693992I-61872J61872D01*
G01*
X8014955Y15206644D01*
G75*
G02*
X8014955Y15330388I61872J61872D01*
G01*
X8138699Y15454132D01*
G75*
G02*
X8262443Y15454132I61872J-61872D01*
G01*
X8775095Y14941480D01*
G75*
G02*
X8775095Y14817736I-61872J-61872D01*
G01*
G37*
G36*
G01*
X9765045Y15206644D02*
X9252393Y14693992D01*
G75*
G02*
X9128649Y14693992I-61872J61872D01*
G01*
X9004905Y14817736D01*
G75*
G02*
X9004905Y14941480I61872J61872D01*
G01*
X9517557Y15454132D01*
G75*
G02*
X9641301Y15454132I61872J-61872D01*
G01*
X9765045Y15330388D01*
G75*
G02*
X9765045Y15206644I-61872J-61872D01*
G01*
G37*
G36*
G01*
X10118598Y14853091D02*
X9605946Y14340439D01*
G75*
G02*
X9482202Y14340439I-61872J61872D01*
G01*
X9358458Y14464183D01*
G75*
G02*
X9358458Y14587927I61872J61872D01*
G01*
X9871110Y15100579D01*
G75*
G02*
X9994854Y15100579I61872J-61872D01*
G01*
X10118598Y14976835D01*
G75*
G02*
X10118598Y14853091I-61872J-61872D01*
G01*
G37*
G36*
G01*
X10472152Y14499537D02*
X9959500Y13986885D01*
G75*
G02*
X9835756Y13986885I-61872J61872D01*
G01*
X9712012Y14110629D01*
G75*
G02*
X9712012Y14234373I61872J61872D01*
G01*
X10224664Y14747025D01*
G75*
G02*
X10348408Y14747025I61872J-61872D01*
G01*
X10472152Y14623281D01*
G75*
G02*
X10472152Y14499537I-61872J-61872D01*
G01*
G37*
G36*
G01*
X10825705Y14145984D02*
X10313053Y13633332D01*
G75*
G02*
X10189309Y13633332I-61872J61872D01*
G01*
X10065565Y13757076D01*
G75*
G02*
X10065565Y13880820I61872J61872D01*
G01*
X10578217Y14393472D01*
G75*
G02*
X10701961Y14393472I61872J-61872D01*
G01*
X10825705Y14269728D01*
G75*
G02*
X10825705Y14145984I-61872J-61872D01*
G01*
G37*
G36*
G01*
X11179258Y13792430D02*
X10666606Y13279778D01*
G75*
G02*
X10542862Y13279778I-61872J61872D01*
G01*
X10419118Y13403522D01*
G75*
G02*
X10419118Y13527266I61872J61872D01*
G01*
X10931770Y14039918D01*
G75*
G02*
X11055514Y14039918I61872J-61872D01*
G01*
X11179258Y13916174D01*
G75*
G02*
X11179258Y13792430I-61872J-61872D01*
G01*
G37*
G36*
G01*
X11532812Y13438877D02*
X11020160Y12926225D01*
G75*
G02*
X10896416Y12926225I-61872J61872D01*
G01*
X10772672Y13049969D01*
G75*
G02*
X10772672Y13173713I61872J61872D01*
G01*
X11285324Y13686365D01*
G75*
G02*
X11409068Y13686365I61872J-61872D01*
G01*
X11532812Y13562621D01*
G75*
G02*
X11532812Y13438877I-61872J-61872D01*
G01*
G37*
G36*
G01*
X11886365Y13085324D02*
X11373713Y12572672D01*
G75*
G02*
X11249969Y12572672I-61872J61872D01*
G01*
X11126225Y12696416D01*
G75*
G02*
X11126225Y12820160I61872J61872D01*
G01*
X11638877Y13332812D01*
G75*
G02*
X11762621Y13332812I61872J-61872D01*
G01*
X11886365Y13209068D01*
G75*
G02*
X11886365Y13085324I-61872J-61872D01*
G01*
G37*
G36*
G01*
X12239918Y12731770D02*
X11727266Y12219118D01*
G75*
G02*
X11603522Y12219118I-61872J61872D01*
G01*
X11479778Y12342862D01*
G75*
G02*
X11479778Y12466606I61872J61872D01*
G01*
X11992430Y12979258D01*
G75*
G02*
X12116174Y12979258I61872J-61872D01*
G01*
X12239918Y12855514D01*
G75*
G02*
X12239918Y12731770I-61872J-61872D01*
G01*
G37*
G36*
G01*
X12593472Y12378217D02*
X12080820Y11865565D01*
G75*
G02*
X11957076Y11865565I-61872J61872D01*
G01*
X11833332Y11989309D01*
G75*
G02*
X11833332Y12113053I61872J61872D01*
G01*
X12345984Y12625705D01*
G75*
G02*
X12469728Y12625705I61872J-61872D01*
G01*
X12593472Y12501961D01*
G75*
G02*
X12593472Y12378217I-61872J-61872D01*
G01*
G37*
G36*
G01*
X12947025Y12024664D02*
X12434373Y11512012D01*
G75*
G02*
X12310629Y11512012I-61872J61872D01*
G01*
X12186885Y11635756D01*
G75*
G02*
X12186885Y11759500I61872J61872D01*
G01*
X12699537Y12272152D01*
G75*
G02*
X12823281Y12272152I61872J-61872D01*
G01*
X12947025Y12148408D01*
G75*
G02*
X12947025Y12024664I-61872J-61872D01*
G01*
G37*
G36*
G01*
X13300579Y11671110D02*
X12787927Y11158458D01*
G75*
G02*
X12664183Y11158458I-61872J61872D01*
G01*
X12540439Y11282202D01*
G75*
G02*
X12540439Y11405946I61872J61872D01*
G01*
X13053091Y11918598D01*
G75*
G02*
X13176835Y11918598I61872J-61872D01*
G01*
X13300579Y11794854D01*
G75*
G02*
X13300579Y11671110I-61872J-61872D01*
G01*
G37*
G36*
G01*
X13654132Y11317557D02*
X13141480Y10804905D01*
G75*
G02*
X13017736Y10804905I-61872J61872D01*
G01*
X12893992Y10928649D01*
G75*
G02*
X12893992Y11052393I61872J61872D01*
G01*
X13406644Y11565045D01*
G75*
G02*
X13530388Y11565045I61872J-61872D01*
G01*
X13654132Y11441301D01*
G75*
G02*
X13654132Y11317557I-61872J-61872D01*
G01*
G37*
G36*
G01*
X13654132Y9938699D02*
X13530388Y9814955D01*
G75*
G02*
X13406644Y9814955I-61872J61872D01*
G01*
X12893992Y10327607D01*
G75*
G02*
X12893992Y10451351I61872J61872D01*
G01*
X13017736Y10575095D01*
G75*
G02*
X13141480Y10575095I61872J-61872D01*
G01*
X13654132Y10062443D01*
G75*
G02*
X13654132Y9938699I-61872J-61872D01*
G01*
G37*
G36*
G01*
X13300579Y9585146D02*
X13176835Y9461402D01*
G75*
G02*
X13053091Y9461402I-61872J61872D01*
G01*
X12540439Y9974054D01*
G75*
G02*
X12540439Y10097798I61872J61872D01*
G01*
X12664183Y10221542D01*
G75*
G02*
X12787927Y10221542I61872J-61872D01*
G01*
X13300579Y9708890D01*
G75*
G02*
X13300579Y9585146I-61872J-61872D01*
G01*
G37*
G36*
G01*
X12947025Y9231592D02*
X12823281Y9107848D01*
G75*
G02*
X12699537Y9107848I-61872J61872D01*
G01*
X12186885Y9620500D01*
G75*
G02*
X12186885Y9744244I61872J61872D01*
G01*
X12310629Y9867988D01*
G75*
G02*
X12434373Y9867988I61872J-61872D01*
G01*
X12947025Y9355336D01*
G75*
G02*
X12947025Y9231592I-61872J-61872D01*
G01*
G37*
G36*
G01*
X12593472Y8878039D02*
X12469728Y8754295D01*
G75*
G02*
X12345984Y8754295I-61872J61872D01*
G01*
X11833332Y9266947D01*
G75*
G02*
X11833332Y9390691I61872J61872D01*
G01*
X11957076Y9514435D01*
G75*
G02*
X12080820Y9514435I61872J-61872D01*
G01*
X12593472Y9001783D01*
G75*
G02*
X12593472Y8878039I-61872J-61872D01*
G01*
G37*
G36*
G01*
X12239918Y8524486D02*
X12116174Y8400742D01*
G75*
G02*
X11992430Y8400742I-61872J61872D01*
G01*
X11479778Y8913394D01*
G75*
G02*
X11479778Y9037138I61872J61872D01*
G01*
X11603522Y9160882D01*
G75*
G02*
X11727266Y9160882I61872J-61872D01*
G01*
X12239918Y8648230D01*
G75*
G02*
X12239918Y8524486I-61872J-61872D01*
G01*
G37*
G36*
G01*
X11886365Y8170932D02*
X11762621Y8047188D01*
G75*
G02*
X11638877Y8047188I-61872J61872D01*
G01*
X11126225Y8559840D01*
G75*
G02*
X11126225Y8683584I61872J61872D01*
G01*
X11249969Y8807328D01*
G75*
G02*
X11373713Y8807328I61872J-61872D01*
G01*
X11886365Y8294676D01*
G75*
G02*
X11886365Y8170932I-61872J-61872D01*
G01*
G37*
G36*
G01*
X11532812Y7817379D02*
X11409068Y7693635D01*
G75*
G02*
X11285324Y7693635I-61872J61872D01*
G01*
X10772672Y8206287D01*
G75*
G02*
X10772672Y8330031I61872J61872D01*
G01*
X10896416Y8453775D01*
G75*
G02*
X11020160Y8453775I61872J-61872D01*
G01*
X11532812Y7941123D01*
G75*
G02*
X11532812Y7817379I-61872J-61872D01*
G01*
G37*
G36*
G01*
X11179258Y7463826D02*
X11055514Y7340082D01*
G75*
G02*
X10931770Y7340082I-61872J61872D01*
G01*
X10419118Y7852734D01*
G75*
G02*
X10419118Y7976478I61872J61872D01*
G01*
X10542862Y8100222D01*
G75*
G02*
X10666606Y8100222I61872J-61872D01*
G01*
X11179258Y7587570D01*
G75*
G02*
X11179258Y7463826I-61872J-61872D01*
G01*
G37*
G36*
G01*
X10825705Y7110272D02*
X10701961Y6986528D01*
G75*
G02*
X10578217Y6986528I-61872J61872D01*
G01*
X10065565Y7499180D01*
G75*
G02*
X10065565Y7622924I61872J61872D01*
G01*
X10189309Y7746668D01*
G75*
G02*
X10313053Y7746668I61872J-61872D01*
G01*
X10825705Y7234016D01*
G75*
G02*
X10825705Y7110272I-61872J-61872D01*
G01*
G37*
G36*
G01*
X10472152Y6756719D02*
X10348408Y6632975D01*
G75*
G02*
X10224664Y6632975I-61872J61872D01*
G01*
X9712012Y7145627D01*
G75*
G02*
X9712012Y7269371I61872J61872D01*
G01*
X9835756Y7393115D01*
G75*
G02*
X9959500Y7393115I61872J-61872D01*
G01*
X10472152Y6880463D01*
G75*
G02*
X10472152Y6756719I-61872J-61872D01*
G01*
G37*
G36*
G01*
X10118598Y6403165D02*
X9994854Y6279421D01*
G75*
G02*
X9871110Y6279421I-61872J61872D01*
G01*
X9358458Y6792073D01*
G75*
G02*
X9358458Y6915817I61872J61872D01*
G01*
X9482202Y7039561D01*
G75*
G02*
X9605946Y7039561I61872J-61872D01*
G01*
X10118598Y6526909D01*
G75*
G02*
X10118598Y6403165I-61872J-61872D01*
G01*
G37*
G36*
G01*
X9765045Y6049612D02*
X9641301Y5925868D01*
G75*
G02*
X9517557Y5925868I-61872J61872D01*
G01*
X9004905Y6438520D01*
G75*
G02*
X9004905Y6562264I61872J61872D01*
G01*
X9128649Y6686008D01*
G75*
G02*
X9252393Y6686008I61872J-61872D01*
G01*
X9765045Y6173356D01*
G75*
G02*
X9765045Y6049612I-61872J-61872D01*
G01*
G37*
G36*
G01*
X7772947Y1846170D02*
X7596170Y2022947D01*
G75*
G02*
X7596170Y2199723I88388J88388D01*
G01*
X7815373Y2418926D01*
G75*
G02*
X7992149Y2418926I88388J-88388D01*
G01*
X8168926Y2242149D01*
G75*
G02*
X8168926Y2065373I-88388J-88388D01*
G01*
X7949723Y1846170D01*
G75*
G02*
X7772947Y1846170I-88388J88388D01*
G01*
G37*
G36*
G01*
X7320399Y1393622D02*
X7143622Y1570399D01*
G75*
G02*
X7143622Y1747175I88388J88388D01*
G01*
X7362825Y1966378D01*
G75*
G02*
X7539601Y1966378I88388J-88388D01*
G01*
X7716378Y1789601D01*
G75*
G02*
X7716378Y1612825I-88388J-88388D01*
G01*
X7497175Y1393622D01*
G75*
G02*
X7320399Y1393622I-88388J88388D01*
G01*
G37*
X1270000Y1270000D03*
X1270000Y3810000D03*
X1270000Y6350000D03*
X1270000Y8890000D03*
X1270000Y11430000D03*
X1270000Y13970000D03*
X1270000Y16510000D03*
X1270000Y19050000D03*
X1270000Y21590000D03*
X1270000Y24130000D03*
G36*
G01*
X5704645Y2486167D02*
X3866167Y4324645D01*
G75*
G02*
X3866167Y4395355I35355J35355D01*
G01*
X5704645Y6233833D01*
G75*
G02*
X5775355Y6233833I35355J-35355D01*
G01*
X7613833Y4395355D01*
G75*
G02*
X7613833Y4324645I-35355J-35355D01*
G01*
X5775355Y2486167D01*
G75*
G02*
X5704645Y2486167I-35355J35355D01*
G01*
G37*
G36*
G01*
X3627518Y4457227D02*
X3097188Y4987557D01*
G75*
G02*
X3097188Y5111301I61872J61872D01*
G01*
X3220932Y5235045D01*
G75*
G02*
X3344676Y5235045I61872J-61872D01*
G01*
X3875006Y4704715D01*
G75*
G02*
X3875006Y4580971I-61872J-61872D01*
G01*
X3751262Y4457227D01*
G75*
G02*
X3627518Y4457227I-61872J61872D01*
G01*
G37*
G36*
G01*
X3981072Y4810780D02*
X3450742Y5341110D01*
G75*
G02*
X3450742Y5464854I61872J61872D01*
G01*
X3574486Y5588598D01*
G75*
G02*
X3698230Y5588598I61872J-61872D01*
G01*
X4228560Y5058268D01*
G75*
G02*
X4228560Y4934524I-61872J-61872D01*
G01*
X4104816Y4810780D01*
G75*
G02*
X3981072Y4810780I-61872J61872D01*
G01*
G37*
G36*
G01*
X4334625Y5164334D02*
X3804295Y5694664D01*
G75*
G02*
X3804295Y5818408I61872J61872D01*
G01*
X3928039Y5942152D01*
G75*
G02*
X4051783Y5942152I61872J-61872D01*
G01*
X4582113Y5411822D01*
G75*
G02*
X4582113Y5288078I-61872J-61872D01*
G01*
X4458369Y5164334D01*
G75*
G02*
X4334625Y5164334I-61872J61872D01*
G01*
G37*
G36*
G01*
X4688178Y5517887D02*
X4157848Y6048217D01*
G75*
G02*
X4157848Y6171961I61872J61872D01*
G01*
X4281592Y6295705D01*
G75*
G02*
X4405336Y6295705I61872J-61872D01*
G01*
X4935666Y5765375D01*
G75*
G02*
X4935666Y5641631I-61872J-61872D01*
G01*
X4811922Y5517887D01*
G75*
G02*
X4688178Y5517887I-61872J61872D01*
G01*
G37*
G36*
G01*
X5041732Y5871440D02*
X4511402Y6401770D01*
G75*
G02*
X4511402Y6525514I61872J61872D01*
G01*
X4635146Y6649258D01*
G75*
G02*
X4758890Y6649258I61872J-61872D01*
G01*
X5289220Y6118928D01*
G75*
G02*
X5289220Y5995184I-61872J-61872D01*
G01*
X5165476Y5871440D01*
G75*
G02*
X5041732Y5871440I-61872J61872D01*
G01*
G37*
G36*
G01*
X5395285Y6224994D02*
X4864955Y6755324D01*
G75*
G02*
X4864955Y6879068I61872J61872D01*
G01*
X4988699Y7002812D01*
G75*
G02*
X5112443Y7002812I61872J-61872D01*
G01*
X5642773Y6472482D01*
G75*
G02*
X5642773Y6348738I-61872J-61872D01*
G01*
X5519029Y6224994D01*
G75*
G02*
X5395285Y6224994I-61872J61872D01*
G01*
G37*
G36*
G01*
X5960971Y6224994D02*
X5837227Y6348738D01*
G75*
G02*
X5837227Y6472482I61872J61872D01*
G01*
X6367557Y7002812D01*
G75*
G02*
X6491301Y7002812I61872J-61872D01*
G01*
X6615045Y6879068D01*
G75*
G02*
X6615045Y6755324I-61872J-61872D01*
G01*
X6084715Y6224994D01*
G75*
G02*
X5960971Y6224994I-61872J61872D01*
G01*
G37*
G36*
G01*
X6314524Y5871440D02*
X6190780Y5995184D01*
G75*
G02*
X6190780Y6118928I61872J61872D01*
G01*
X6721110Y6649258D01*
G75*
G02*
X6844854Y6649258I61872J-61872D01*
G01*
X6968598Y6525514D01*
G75*
G02*
X6968598Y6401770I-61872J-61872D01*
G01*
X6438268Y5871440D01*
G75*
G02*
X6314524Y5871440I-61872J61872D01*
G01*
G37*
G36*
G01*
X6668078Y5517887D02*
X6544334Y5641631D01*
G75*
G02*
X6544334Y5765375I61872J61872D01*
G01*
X7074664Y6295705D01*
G75*
G02*
X7198408Y6295705I61872J-61872D01*
G01*
X7322152Y6171961D01*
G75*
G02*
X7322152Y6048217I-61872J-61872D01*
G01*
X6791822Y5517887D01*
G75*
G02*
X6668078Y5517887I-61872J61872D01*
G01*
G37*
G36*
G01*
X7021631Y5164334D02*
X6897887Y5288078D01*
G75*
G02*
X6897887Y5411822I61872J61872D01*
G01*
X7428217Y5942152D01*
G75*
G02*
X7551961Y5942152I61872J-61872D01*
G01*
X7675705Y5818408D01*
G75*
G02*
X7675705Y5694664I-61872J-61872D01*
G01*
X7145375Y5164334D01*
G75*
G02*
X7021631Y5164334I-61872J61872D01*
G01*
G37*
G36*
G01*
X7375184Y4810780D02*
X7251440Y4934524D01*
G75*
G02*
X7251440Y5058268I61872J61872D01*
G01*
X7781770Y5588598D01*
G75*
G02*
X7905514Y5588598I61872J-61872D01*
G01*
X8029258Y5464854D01*
G75*
G02*
X8029258Y5341110I-61872J-61872D01*
G01*
X7498928Y4810780D01*
G75*
G02*
X7375184Y4810780I-61872J61872D01*
G01*
G37*
G36*
G01*
X7728738Y4457227D02*
X7604994Y4580971D01*
G75*
G02*
X7604994Y4704715I61872J61872D01*
G01*
X8135324Y5235045D01*
G75*
G02*
X8259068Y5235045I61872J-61872D01*
G01*
X8382812Y5111301D01*
G75*
G02*
X8382812Y4987557I-61872J-61872D01*
G01*
X7852482Y4457227D01*
G75*
G02*
X7728738Y4457227I-61872J61872D01*
G01*
G37*
G36*
G01*
X8135324Y3484955D02*
X7604994Y4015285D01*
G75*
G02*
X7604994Y4139029I61872J61872D01*
G01*
X7728738Y4262773D01*
G75*
G02*
X7852482Y4262773I61872J-61872D01*
G01*
X8382812Y3732443D01*
G75*
G02*
X8382812Y3608699I-61872J-61872D01*
G01*
X8259068Y3484955D01*
G75*
G02*
X8135324Y3484955I-61872J61872D01*
G01*
G37*
G36*
G01*
X7781770Y3131402D02*
X7251440Y3661732D01*
G75*
G02*
X7251440Y3785476I61872J61872D01*
G01*
X7375184Y3909220D01*
G75*
G02*
X7498928Y3909220I61872J-61872D01*
G01*
X8029258Y3378890D01*
G75*
G02*
X8029258Y3255146I-61872J-61872D01*
G01*
X7905514Y3131402D01*
G75*
G02*
X7781770Y3131402I-61872J61872D01*
G01*
G37*
G36*
G01*
X7428217Y2777848D02*
X6897887Y3308178D01*
G75*
G02*
X6897887Y3431922I61872J61872D01*
G01*
X7021631Y3555666D01*
G75*
G02*
X7145375Y3555666I61872J-61872D01*
G01*
X7675705Y3025336D01*
G75*
G02*
X7675705Y2901592I-61872J-61872D01*
G01*
X7551961Y2777848D01*
G75*
G02*
X7428217Y2777848I-61872J61872D01*
G01*
G37*
G36*
G01*
X7074664Y2424295D02*
X6544334Y2954625D01*
G75*
G02*
X6544334Y3078369I61872J61872D01*
G01*
X6668078Y3202113D01*
G75*
G02*
X6791822Y3202113I61872J-61872D01*
G01*
X7322152Y2671783D01*
G75*
G02*
X7322152Y2548039I-61872J-61872D01*
G01*
X7198408Y2424295D01*
G75*
G02*
X7074664Y2424295I-61872J61872D01*
G01*
G37*
G36*
G01*
X6721110Y2070742D02*
X6190780Y2601072D01*
G75*
G02*
X6190780Y2724816I61872J61872D01*
G01*
X6314524Y2848560D01*
G75*
G02*
X6438268Y2848560I61872J-61872D01*
G01*
X6968598Y2318230D01*
G75*
G02*
X6968598Y2194486I-61872J-61872D01*
G01*
X6844854Y2070742D01*
G75*
G02*
X6721110Y2070742I-61872J61872D01*
G01*
G37*
G36*
G01*
X6367557Y1717188D02*
X5837227Y2247518D01*
G75*
G02*
X5837227Y2371262I61872J61872D01*
G01*
X5960971Y2495006D01*
G75*
G02*
X6084715Y2495006I61872J-61872D01*
G01*
X6615045Y1964676D01*
G75*
G02*
X6615045Y1840932I-61872J-61872D01*
G01*
X6491301Y1717188D01*
G75*
G02*
X6367557Y1717188I-61872J61872D01*
G01*
G37*
G36*
G01*
X4988699Y1717188D02*
X4864955Y1840932D01*
G75*
G02*
X4864955Y1964676I61872J61872D01*
G01*
X5395285Y2495006D01*
G75*
G02*
X5519029Y2495006I61872J-61872D01*
G01*
X5642773Y2371262D01*
G75*
G02*
X5642773Y2247518I-61872J-61872D01*
G01*
X5112443Y1717188D01*
G75*
G02*
X4988699Y1717188I-61872J61872D01*
G01*
G37*
G36*
G01*
X4635146Y2070742D02*
X4511402Y2194486D01*
G75*
G02*
X4511402Y2318230I61872J61872D01*
G01*
X5041732Y2848560D01*
G75*
G02*
X5165476Y2848560I61872J-61872D01*
G01*
X5289220Y2724816D01*
G75*
G02*
X5289220Y2601072I-61872J-61872D01*
G01*
X4758890Y2070742D01*
G75*
G02*
X4635146Y2070742I-61872J61872D01*
G01*
G37*
G36*
G01*
X4281592Y2424295D02*
X4157848Y2548039D01*
G75*
G02*
X4157848Y2671783I61872J61872D01*
G01*
X4688178Y3202113D01*
G75*
G02*
X4811922Y3202113I61872J-61872D01*
G01*
X4935666Y3078369D01*
G75*
G02*
X4935666Y2954625I-61872J-61872D01*
G01*
X4405336Y2424295D01*
G75*
G02*
X4281592Y2424295I-61872J61872D01*
G01*
G37*
G36*
G01*
X3928039Y2777848D02*
X3804295Y2901592D01*
G75*
G02*
X3804295Y3025336I61872J61872D01*
G01*
X4334625Y3555666D01*
G75*
G02*
X4458369Y3555666I61872J-61872D01*
G01*
X4582113Y3431922D01*
G75*
G02*
X4582113Y3308178I-61872J-61872D01*
G01*
X4051783Y2777848D01*
G75*
G02*
X3928039Y2777848I-61872J61872D01*
G01*
G37*
G36*
G01*
X3574486Y3131402D02*
X3450742Y3255146D01*
G75*
G02*
X3450742Y3378890I61872J61872D01*
G01*
X3981072Y3909220D01*
G75*
G02*
X4104816Y3909220I61872J-61872D01*
G01*
X4228560Y3785476D01*
G75*
G02*
X4228560Y3661732I-61872J-61872D01*
G01*
X3698230Y3131402D01*
G75*
G02*
X3574486Y3131402I-61872J61872D01*
G01*
G37*
G36*
G01*
X3220932Y3484955D02*
X3097188Y3608699D01*
G75*
G02*
X3097188Y3732443I61872J61872D01*
G01*
X3627518Y4262773D01*
G75*
G02*
X3751262Y4262773I61872J-61872D01*
G01*
X3875006Y4139029D01*
G75*
G02*
X3875006Y4015285I-61872J-61872D01*
G01*
X3344676Y3484955D01*
G75*
G02*
X3220932Y3484955I-61872J61872D01*
G01*
G37*
G36*
G01*
X10555000Y30610000D02*
X10305000Y30610000D01*
G75*
G02*
X10180000Y30735000I0J125000D01*
G01*
X10180000Y31045000D01*
G75*
G02*
X10305000Y31170000I125000J0D01*
G01*
X10555000Y31170000D01*
G75*
G02*
X10680000Y31045000I0J-125000D01*
G01*
X10680000Y30735000D01*
G75*
G02*
X10555000Y30610000I-125000J0D01*
G01*
G37*
G36*
G01*
X10555000Y29970000D02*
X10305000Y29970000D01*
G75*
G02*
X10180000Y30095000I0J125000D01*
G01*
X10180000Y30405000D01*
G75*
G02*
X10305000Y30530000I125000J0D01*
G01*
X10555000Y30530000D01*
G75*
G02*
X10680000Y30405000I0J-125000D01*
G01*
X10680000Y30095000D01*
G75*
G02*
X10555000Y29970000I-125000J0D01*
G01*
G37*
G36*
G01*
X14510000Y30715000D02*
X14510000Y30965000D01*
G75*
G02*
X14635000Y31090000I125000J0D01*
G01*
X14945000Y31090000D01*
G75*
G02*
X15070000Y30965000I0J-125000D01*
G01*
X15070000Y30715000D01*
G75*
G02*
X14945000Y30590000I-125000J0D01*
G01*
X14635000Y30590000D01*
G75*
G02*
X14510000Y30715000I0J125000D01*
G01*
G37*
G36*
G01*
X13870000Y30715000D02*
X13870000Y30965000D01*
G75*
G02*
X13995000Y31090000I125000J0D01*
G01*
X14305000Y31090000D01*
G75*
G02*
X14430000Y30965000I0J-125000D01*
G01*
X14430000Y30715000D01*
G75*
G02*
X14305000Y30590000I-125000J0D01*
G01*
X13995000Y30590000D01*
G75*
G02*
X13870000Y30715000I0J125000D01*
G01*
G37*
G36*
G01*
X7460000Y15965000D02*
X7460000Y16215000D01*
G75*
G02*
X7585000Y16340000I125000J0D01*
G01*
X7895000Y16340000D01*
G75*
G02*
X8020000Y16215000I0J-125000D01*
G01*
X8020000Y15965000D01*
G75*
G02*
X7895000Y15840000I-125000J0D01*
G01*
X7585000Y15840000D01*
G75*
G02*
X7460000Y15965000I0J125000D01*
G01*
G37*
G36*
G01*
X6820000Y15965000D02*
X6820000Y16215000D01*
G75*
G02*
X6945000Y16340000I125000J0D01*
G01*
X7255000Y16340000D01*
G75*
G02*
X7380000Y16215000I0J-125000D01*
G01*
X7380000Y15965000D01*
G75*
G02*
X7255000Y15840000I-125000J0D01*
G01*
X6945000Y15840000D01*
G75*
G02*
X6820000Y15965000I0J125000D01*
G01*
G37*
G36*
G01*
X4459601Y23856378D02*
X4636378Y23679601D01*
G75*
G02*
X4636378Y23502825I-88388J-88388D01*
G01*
X4417175Y23283622D01*
G75*
G02*
X4240399Y23283622I-88388J88388D01*
G01*
X4063622Y23460399D01*
G75*
G02*
X4063622Y23637175I88388J88388D01*
G01*
X4282825Y23856378D01*
G75*
G02*
X4459601Y23856378I88388J-88388D01*
G01*
G37*
G36*
G01*
X4912149Y24308926D02*
X5088926Y24132149D01*
G75*
G02*
X5088926Y23955373I-88388J-88388D01*
G01*
X4869723Y23736170D01*
G75*
G02*
X4692947Y23736170I-88388J88388D01*
G01*
X4516170Y23912947D01*
G75*
G02*
X4516170Y24089723I88388J88388D01*
G01*
X4735373Y24308926D01*
G75*
G02*
X4912149Y24308926I88388J-88388D01*
G01*
G37*
G36*
G01*
X6625000Y32600000D02*
X6235000Y32600000D01*
G75*
G02*
X6070000Y32765000I0J165000D01*
G01*
X6070000Y33095000D01*
G75*
G02*
X6235000Y33260000I165000J0D01*
G01*
X6625000Y33260000D01*
G75*
G02*
X6790000Y33095000I0J-165000D01*
G01*
X6790000Y32765000D01*
G75*
G02*
X6625000Y32600000I-165000J0D01*
G01*
G37*
G36*
G01*
X6625000Y31640000D02*
X6235000Y31640000D01*
G75*
G02*
X6070000Y31805000I0J165000D01*
G01*
X6070000Y32135000D01*
G75*
G02*
X6235000Y32300000I165000J0D01*
G01*
X6625000Y32300000D01*
G75*
G02*
X6790000Y32135000I0J-165000D01*
G01*
X6790000Y31805000D01*
G75*
G02*
X6625000Y31640000I-165000J0D01*
G01*
G37*
G36*
G01*
X4705000Y32600000D02*
X4315000Y32600000D01*
G75*
G02*
X4150000Y32765000I0J165000D01*
G01*
X4150000Y33095000D01*
G75*
G02*
X4315000Y33260000I165000J0D01*
G01*
X4705000Y33260000D01*
G75*
G02*
X4870000Y33095000I0J-165000D01*
G01*
X4870000Y32765000D01*
G75*
G02*
X4705000Y32600000I-165000J0D01*
G01*
G37*
G36*
G01*
X4705000Y31640000D02*
X4315000Y31640000D01*
G75*
G02*
X4150000Y31805000I0J165000D01*
G01*
X4150000Y32135000D01*
G75*
G02*
X4315000Y32300000I165000J0D01*
G01*
X4705000Y32300000D01*
G75*
G02*
X4870000Y32135000I0J-165000D01*
G01*
X4870000Y31805000D01*
G75*
G02*
X4705000Y31640000I-165000J0D01*
G01*
G37*
G36*
G01*
X14430000Y30265000D02*
X14430000Y30015000D01*
G75*
G02*
X14305000Y29890000I-125000J0D01*
G01*
X13995000Y29890000D01*
G75*
G02*
X13870000Y30015000I0J125000D01*
G01*
X13870000Y30265000D01*
G75*
G02*
X13995000Y30390000I125000J0D01*
G01*
X14305000Y30390000D01*
G75*
G02*
X14430000Y30265000I0J-125000D01*
G01*
G37*
G36*
G01*
X15070000Y30265000D02*
X15070000Y30015000D01*
G75*
G02*
X14945000Y29890000I-125000J0D01*
G01*
X14635000Y29890000D01*
G75*
G02*
X14510000Y30015000I0J125000D01*
G01*
X14510000Y30265000D01*
G75*
G02*
X14635000Y30390000I125000J0D01*
G01*
X14945000Y30390000D01*
G75*
G02*
X15070000Y30265000I0J-125000D01*
G01*
G37*
G36*
G01*
X14430000Y29565000D02*
X14430000Y29315000D01*
G75*
G02*
X14305000Y29190000I-125000J0D01*
G01*
X13995000Y29190000D01*
G75*
G02*
X13870000Y29315000I0J125000D01*
G01*
X13870000Y29565000D01*
G75*
G02*
X13995000Y29690000I125000J0D01*
G01*
X14305000Y29690000D01*
G75*
G02*
X14430000Y29565000I0J-125000D01*
G01*
G37*
G36*
G01*
X15070000Y29565000D02*
X15070000Y29315000D01*
G75*
G02*
X14945000Y29190000I-125000J0D01*
G01*
X14635000Y29190000D01*
G75*
G02*
X14510000Y29315000I0J125000D01*
G01*
X14510000Y29565000D01*
G75*
G02*
X14635000Y29690000I125000J0D01*
G01*
X14945000Y29690000D01*
G75*
G02*
X15070000Y29565000I0J-125000D01*
G01*
G37*
G36*
G01*
X3969375Y15776152D02*
X4146152Y15599375D01*
G75*
G02*
X4146152Y15422599I-88388J-88388D01*
G01*
X3926949Y15203396D01*
G75*
G02*
X3750173Y15203396I-88388J88388D01*
G01*
X3573396Y15380173D01*
G75*
G02*
X3573396Y15556949I88388J88388D01*
G01*
X3792599Y15776152D01*
G75*
G02*
X3969375Y15776152I88388J-88388D01*
G01*
G37*
G36*
G01*
X4421923Y16228700D02*
X4598700Y16051923D01*
G75*
G02*
X4598700Y15875147I-88388J-88388D01*
G01*
X4379497Y15655944D01*
G75*
G02*
X4202721Y15655944I-88388J88388D01*
G01*
X4025944Y15832721D01*
G75*
G02*
X4025944Y16009497I88388J88388D01*
G01*
X4245147Y16228700D01*
G75*
G02*
X4421923Y16228700I88388J-88388D01*
G01*
G37*
G36*
G01*
X13095000Y32630000D02*
X12845000Y32630000D01*
G75*
G02*
X12720000Y32755000I0J125000D01*
G01*
X12720000Y33065000D01*
G75*
G02*
X12845000Y33190000I125000J0D01*
G01*
X13095000Y33190000D01*
G75*
G02*
X13220000Y33065000I0J-125000D01*
G01*
X13220000Y32755000D01*
G75*
G02*
X13095000Y32630000I-125000J0D01*
G01*
G37*
G36*
G01*
X13095000Y31990000D02*
X12845000Y31990000D01*
G75*
G02*
X12720000Y32115000I0J125000D01*
G01*
X12720000Y32425000D01*
G75*
G02*
X12845000Y32550000I125000J0D01*
G01*
X13095000Y32550000D01*
G75*
G02*
X13220000Y32425000I0J-125000D01*
G01*
X13220000Y32115000D01*
G75*
G02*
X13095000Y31990000I-125000J0D01*
G01*
G37*
G36*
G01*
X9585000Y28830000D02*
X9835000Y28830000D01*
G75*
G02*
X9960000Y28705000I0J-125000D01*
G01*
X9960000Y28395000D01*
G75*
G02*
X9835000Y28270000I-125000J0D01*
G01*
X9585000Y28270000D01*
G75*
G02*
X9460000Y28395000I0J125000D01*
G01*
X9460000Y28705000D01*
G75*
G02*
X9585000Y28830000I125000J0D01*
G01*
G37*
G36*
G01*
X9585000Y29470000D02*
X9835000Y29470000D01*
G75*
G02*
X9960000Y29345000I0J-125000D01*
G01*
X9960000Y29035000D01*
G75*
G02*
X9835000Y28910000I-125000J0D01*
G01*
X9585000Y28910000D01*
G75*
G02*
X9460000Y29035000I0J125000D01*
G01*
X9460000Y29345000D01*
G75*
G02*
X9585000Y29470000I125000J0D01*
G01*
G37*
G36*
G01*
X4993327Y18420104D02*
X5170104Y18243327D01*
G75*
G02*
X5170104Y18066551I-88388J-88388D01*
G01*
X4950901Y17847348D01*
G75*
G02*
X4774125Y17847348I-88388J88388D01*
G01*
X4597348Y18024125D01*
G75*
G02*
X4597348Y18200901I88388J88388D01*
G01*
X4816551Y18420104D01*
G75*
G02*
X4993327Y18420104I88388J-88388D01*
G01*
G37*
G36*
G01*
X5445875Y18872652D02*
X5622652Y18695875D01*
G75*
G02*
X5622652Y18519099I-88388J-88388D01*
G01*
X5403449Y18299896D01*
G75*
G02*
X5226673Y18299896I-88388J88388D01*
G01*
X5049896Y18476673D01*
G75*
G02*
X5049896Y18653449I88388J88388D01*
G01*
X5269099Y18872652D01*
G75*
G02*
X5445875Y18872652I88388J-88388D01*
G01*
G37*
G36*
G01*
X12506378Y7380399D02*
X12329601Y7203622D01*
G75*
G02*
X12152825Y7203622I-88388J88388D01*
G01*
X11933622Y7422825D01*
G75*
G02*
X11933622Y7599601I88388J88388D01*
G01*
X12110399Y7776378D01*
G75*
G02*
X12287175Y7776378I88388J-88388D01*
G01*
X12506378Y7557175D01*
G75*
G02*
X12506378Y7380399I-88388J-88388D01*
G01*
G37*
G36*
G01*
X12958926Y6927851D02*
X12782149Y6751074D01*
G75*
G02*
X12605373Y6751074I-88388J88388D01*
G01*
X12386170Y6970277D01*
G75*
G02*
X12386170Y7147053I88388J88388D01*
G01*
X12562947Y7323830D01*
G75*
G02*
X12739723Y7323830I88388J-88388D01*
G01*
X12958926Y7104627D01*
G75*
G02*
X12958926Y6927851I-88388J-88388D01*
G01*
G37*
G36*
G01*
X13006378Y7880399D02*
X12829601Y7703622D01*
G75*
G02*
X12652825Y7703622I-88388J88388D01*
G01*
X12433622Y7922825D01*
G75*
G02*
X12433622Y8099601I88388J88388D01*
G01*
X12610399Y8276378D01*
G75*
G02*
X12787175Y8276378I88388J-88388D01*
G01*
X13006378Y8057175D01*
G75*
G02*
X13006378Y7880399I-88388J-88388D01*
G01*
G37*
G36*
G01*
X13458926Y7427851D02*
X13282149Y7251074D01*
G75*
G02*
X13105373Y7251074I-88388J88388D01*
G01*
X12886170Y7470277D01*
G75*
G02*
X12886170Y7647053I88388J88388D01*
G01*
X13062947Y7823830D01*
G75*
G02*
X13239723Y7823830I88388J-88388D01*
G01*
X13458926Y7604627D01*
G75*
G02*
X13458926Y7427851I-88388J-88388D01*
G01*
G37*
G36*
G01*
X3155000Y6305000D02*
X2905000Y6305000D01*
G75*
G02*
X2780000Y6430000I0J125000D01*
G01*
X2780000Y6740000D01*
G75*
G02*
X2905000Y6865000I125000J0D01*
G01*
X3155000Y6865000D01*
G75*
G02*
X3280000Y6740000I0J-125000D01*
G01*
X3280000Y6430000D01*
G75*
G02*
X3155000Y6305000I-125000J0D01*
G01*
G37*
G36*
G01*
X3155000Y5665000D02*
X2905000Y5665000D01*
G75*
G02*
X2780000Y5790000I0J125000D01*
G01*
X2780000Y6100000D01*
G75*
G02*
X2905000Y6225000I125000J0D01*
G01*
X3155000Y6225000D01*
G75*
G02*
X3280000Y6100000I0J-125000D01*
G01*
X3280000Y5790000D01*
G75*
G02*
X3155000Y5665000I-125000J0D01*
G01*
G37*
G36*
G01*
X11965000Y30610000D02*
X11715000Y30610000D01*
G75*
G02*
X11590000Y30735000I0J125000D01*
G01*
X11590000Y31045000D01*
G75*
G02*
X11715000Y31170000I125000J0D01*
G01*
X11965000Y31170000D01*
G75*
G02*
X12090000Y31045000I0J-125000D01*
G01*
X12090000Y30735000D01*
G75*
G02*
X11965000Y30610000I-125000J0D01*
G01*
G37*
G36*
G01*
X11965000Y29970000D02*
X11715000Y29970000D01*
G75*
G02*
X11590000Y30095000I0J125000D01*
G01*
X11590000Y30405000D01*
G75*
G02*
X11715000Y30530000I125000J0D01*
G01*
X11965000Y30530000D01*
G75*
G02*
X12090000Y30405000I0J-125000D01*
G01*
X12090000Y30095000D01*
G75*
G02*
X11965000Y29970000I-125000J0D01*
G01*
G37*
G36*
G01*
X13792947Y12816170D02*
X13616170Y12992947D01*
G75*
G02*
X13616170Y13169723I88388J88388D01*
G01*
X13835373Y13388926D01*
G75*
G02*
X14012149Y13388926I88388J-88388D01*
G01*
X14188926Y13212149D01*
G75*
G02*
X14188926Y13035373I-88388J-88388D01*
G01*
X13969723Y12816170D01*
G75*
G02*
X13792947Y12816170I-88388J88388D01*
G01*
G37*
G36*
G01*
X13340399Y12363622D02*
X13163622Y12540399D01*
G75*
G02*
X13163622Y12717175I88388J88388D01*
G01*
X13382825Y12936378D01*
G75*
G02*
X13559601Y12936378I88388J-88388D01*
G01*
X13736378Y12759601D01*
G75*
G02*
X13736378Y12582825I-88388J-88388D01*
G01*
X13517175Y12363622D01*
G75*
G02*
X13340399Y12363622I-88388J88388D01*
G01*
G37*
G36*
G01*
X13292947Y13316170D02*
X13116170Y13492947D01*
G75*
G02*
X13116170Y13669723I88388J88388D01*
G01*
X13335373Y13888926D01*
G75*
G02*
X13512149Y13888926I88388J-88388D01*
G01*
X13688926Y13712149D01*
G75*
G02*
X13688926Y13535373I-88388J-88388D01*
G01*
X13469723Y13316170D01*
G75*
G02*
X13292947Y13316170I-88388J88388D01*
G01*
G37*
G36*
G01*
X12840399Y12863622D02*
X12663622Y13040399D01*
G75*
G02*
X12663622Y13217175I88388J88388D01*
G01*
X12882825Y13436378D01*
G75*
G02*
X13059601Y13436378I88388J-88388D01*
G01*
X13236378Y13259601D01*
G75*
G02*
X13236378Y13082825I-88388J-88388D01*
G01*
X13017175Y12863622D01*
G75*
G02*
X12840399Y12863622I-88388J88388D01*
G01*
G37*
G36*
G01*
X14275000Y8820000D02*
X14525000Y8820000D01*
G75*
G02*
X14650000Y8695000I0J-125000D01*
G01*
X14650000Y8385000D01*
G75*
G02*
X14525000Y8260000I-125000J0D01*
G01*
X14275000Y8260000D01*
G75*
G02*
X14150000Y8385000I0J125000D01*
G01*
X14150000Y8695000D01*
G75*
G02*
X14275000Y8820000I125000J0D01*
G01*
G37*
G36*
G01*
X14275000Y9460000D02*
X14525000Y9460000D01*
G75*
G02*
X14650000Y9335000I0J-125000D01*
G01*
X14650000Y9025000D01*
G75*
G02*
X14525000Y8900000I-125000J0D01*
G01*
X14275000Y8900000D01*
G75*
G02*
X14150000Y9025000I0J125000D01*
G01*
X14150000Y9335000D01*
G75*
G02*
X14275000Y9460000I125000J0D01*
G01*
G37*
G36*
G01*
X14865000Y21630000D02*
X14615000Y21630000D01*
G75*
G02*
X14490000Y21755000I0J125000D01*
G01*
X14490000Y22065000D01*
G75*
G02*
X14615000Y22190000I125000J0D01*
G01*
X14865000Y22190000D01*
G75*
G02*
X14990000Y22065000I0J-125000D01*
G01*
X14990000Y21755000D01*
G75*
G02*
X14865000Y21630000I-125000J0D01*
G01*
G37*
G36*
G01*
X14865000Y20990000D02*
X14615000Y20990000D01*
G75*
G02*
X14490000Y21115000I0J125000D01*
G01*
X14490000Y21425000D01*
G75*
G02*
X14615000Y21550000I125000J0D01*
G01*
X14865000Y21550000D01*
G75*
G02*
X14990000Y21425000I0J-125000D01*
G01*
X14990000Y21115000D01*
G75*
G02*
X14865000Y20990000I-125000J0D01*
G01*
G37*
G36*
G01*
X4190625Y24243848D02*
X4013848Y24420625D01*
G75*
G02*
X4013848Y24597401I88388J88388D01*
G01*
X4233051Y24816604D01*
G75*
G02*
X4409827Y24816604I88388J-88388D01*
G01*
X4586604Y24639827D01*
G75*
G02*
X4586604Y24463051I-88388J-88388D01*
G01*
X4367401Y24243848D01*
G75*
G02*
X4190625Y24243848I-88388J88388D01*
G01*
G37*
G36*
G01*
X3738077Y23791300D02*
X3561300Y23968077D01*
G75*
G02*
X3561300Y24144853I88388J88388D01*
G01*
X3780503Y24364056D01*
G75*
G02*
X3957279Y24364056I88388J-88388D01*
G01*
X4134056Y24187279D01*
G75*
G02*
X4134056Y24010503I-88388J-88388D01*
G01*
X3914853Y23791300D01*
G75*
G02*
X3738077Y23791300I-88388J88388D01*
G01*
G37*
G36*
G01*
X5483327Y17920104D02*
X5660104Y17743327D01*
G75*
G02*
X5660104Y17566551I-88388J-88388D01*
G01*
X5440901Y17347348D01*
G75*
G02*
X5264125Y17347348I-88388J88388D01*
G01*
X5087348Y17524125D01*
G75*
G02*
X5087348Y17700901I88388J88388D01*
G01*
X5306551Y17920104D01*
G75*
G02*
X5483327Y17920104I88388J-88388D01*
G01*
G37*
G36*
G01*
X5935875Y18372652D02*
X6112652Y18195875D01*
G75*
G02*
X6112652Y18019099I-88388J-88388D01*
G01*
X5893449Y17799896D01*
G75*
G02*
X5716673Y17799896I-88388J88388D01*
G01*
X5539896Y17976673D01*
G75*
G02*
X5539896Y18153449I88388J88388D01*
G01*
X5759099Y18372652D01*
G75*
G02*
X5935875Y18372652I88388J-88388D01*
G01*
G37*
G36*
G01*
X3911820Y19163951D02*
X3636049Y18888180D01*
G75*
G02*
X3402703Y18888180I-116673J116673D01*
G01*
X3169358Y19121525D01*
G75*
G02*
X3169358Y19354871I116673J116673D01*
G01*
X3445129Y19630642D01*
G75*
G02*
X3678475Y19630642I116673J-116673D01*
G01*
X3911820Y19397297D01*
G75*
G02*
X3911820Y19163951I-116673J-116673D01*
G01*
G37*
G36*
G01*
X4590642Y18485129D02*
X4314871Y18209358D01*
G75*
G02*
X4081525Y18209358I-116673J116673D01*
G01*
X3848180Y18442703D01*
G75*
G02*
X3848180Y18676049I116673J116673D01*
G01*
X4123951Y18951820D01*
G75*
G02*
X4357297Y18951820I116673J-116673D01*
G01*
X4590642Y18718475D01*
G75*
G02*
X4590642Y18485129I-116673J-116673D01*
G01*
G37*
G36*
G01*
X4670104Y19466673D02*
X4493327Y19289896D01*
G75*
G02*
X4316551Y19289896I-88388J88388D01*
G01*
X4097348Y19509099D01*
G75*
G02*
X4097348Y19685875I88388J88388D01*
G01*
X4274125Y19862652D01*
G75*
G02*
X4450901Y19862652I88388J-88388D01*
G01*
X4670104Y19643449D01*
G75*
G02*
X4670104Y19466673I-88388J-88388D01*
G01*
G37*
G36*
G01*
X5122652Y19014125D02*
X4945875Y18837348D01*
G75*
G02*
X4769099Y18837348I-88388J88388D01*
G01*
X4549896Y19056551D01*
G75*
G02*
X4549896Y19233327I88388J88388D01*
G01*
X4726673Y19410104D01*
G75*
G02*
X4903449Y19410104I88388J-88388D01*
G01*
X5122652Y19190901D01*
G75*
G02*
X5122652Y19014125I-88388J-88388D01*
G01*
G37*
G36*
G01*
X14756673Y23679896D02*
X14579896Y23856673D01*
G75*
G02*
X14579896Y24033449I88388J88388D01*
G01*
X14799099Y24252652D01*
G75*
G02*
X14975875Y24252652I88388J-88388D01*
G01*
X15152652Y24075875D01*
G75*
G02*
X15152652Y23899099I-88388J-88388D01*
G01*
X14933449Y23679896D01*
G75*
G02*
X14756673Y23679896I-88388J88388D01*
G01*
G37*
G36*
G01*
X14304125Y23227348D02*
X14127348Y23404125D01*
G75*
G02*
X14127348Y23580901I88388J88388D01*
G01*
X14346551Y23800104D01*
G75*
G02*
X14523327Y23800104I88388J-88388D01*
G01*
X14700104Y23623327D01*
G75*
G02*
X14700104Y23446551I-88388J-88388D01*
G01*
X14480901Y23227348D01*
G75*
G02*
X14304125Y23227348I-88388J88388D01*
G01*
G37*
G36*
G01*
X14256673Y24179896D02*
X14079896Y24356673D01*
G75*
G02*
X14079896Y24533449I88388J88388D01*
G01*
X14299099Y24752652D01*
G75*
G02*
X14475875Y24752652I88388J-88388D01*
G01*
X14652652Y24575875D01*
G75*
G02*
X14652652Y24399099I-88388J-88388D01*
G01*
X14433449Y24179896D01*
G75*
G02*
X14256673Y24179896I-88388J88388D01*
G01*
G37*
G36*
G01*
X13804125Y23727348D02*
X13627348Y23904125D01*
G75*
G02*
X13627348Y24080901I88388J88388D01*
G01*
X13846551Y24300104D01*
G75*
G02*
X14023327Y24300104I88388J-88388D01*
G01*
X14200104Y24123327D01*
G75*
G02*
X14200104Y23946551I-88388J-88388D01*
G01*
X13980901Y23727348D01*
G75*
G02*
X13804125Y23727348I-88388J88388D01*
G01*
G37*
G36*
G01*
X13762947Y24676170D02*
X13586170Y24852947D01*
G75*
G02*
X13586170Y25029723I88388J88388D01*
G01*
X13805373Y25248926D01*
G75*
G02*
X13982149Y25248926I88388J-88388D01*
G01*
X14158926Y25072149D01*
G75*
G02*
X14158926Y24895373I-88388J-88388D01*
G01*
X13939723Y24676170D01*
G75*
G02*
X13762947Y24676170I-88388J88388D01*
G01*
G37*
G36*
G01*
X13310399Y24223622D02*
X13133622Y24400399D01*
G75*
G02*
X13133622Y24577175I88388J88388D01*
G01*
X13352825Y24796378D01*
G75*
G02*
X13529601Y24796378I88388J-88388D01*
G01*
X13706378Y24619601D01*
G75*
G02*
X13706378Y24442825I-88388J-88388D01*
G01*
X13487175Y24223622D01*
G75*
G02*
X13310399Y24223622I-88388J88388D01*
G01*
G37*
G36*
G01*
X14965000Y28430000D02*
X14715000Y28430000D01*
G75*
G02*
X14590000Y28555000I0J125000D01*
G01*
X14590000Y28865000D01*
G75*
G02*
X14715000Y28990000I125000J0D01*
G01*
X14965000Y28990000D01*
G75*
G02*
X15090000Y28865000I0J-125000D01*
G01*
X15090000Y28555000D01*
G75*
G02*
X14965000Y28430000I-125000J0D01*
G01*
G37*
G36*
G01*
X14965000Y27790000D02*
X14715000Y27790000D01*
G75*
G02*
X14590000Y27915000I0J125000D01*
G01*
X14590000Y28225000D01*
G75*
G02*
X14715000Y28350000I125000J0D01*
G01*
X14965000Y28350000D01*
G75*
G02*
X15090000Y28225000I0J-125000D01*
G01*
X15090000Y27915000D01*
G75*
G02*
X14965000Y27790000I-125000J0D01*
G01*
G37*
G36*
G01*
X11255000Y30610000D02*
X11005000Y30610000D01*
G75*
G02*
X10880000Y30735000I0J125000D01*
G01*
X10880000Y31045000D01*
G75*
G02*
X11005000Y31170000I125000J0D01*
G01*
X11255000Y31170000D01*
G75*
G02*
X11380000Y31045000I0J-125000D01*
G01*
X11380000Y30735000D01*
G75*
G02*
X11255000Y30610000I-125000J0D01*
G01*
G37*
G36*
G01*
X11255000Y29970000D02*
X11005000Y29970000D01*
G75*
G02*
X10880000Y30095000I0J125000D01*
G01*
X10880000Y30405000D01*
G75*
G02*
X11005000Y30530000I125000J0D01*
G01*
X11255000Y30530000D01*
G75*
G02*
X11380000Y30405000I0J-125000D01*
G01*
X11380000Y30095000D01*
G75*
G02*
X11255000Y29970000I-125000J0D01*
G01*
G37*
G36*
G01*
X14430000Y31665000D02*
X14430000Y31415000D01*
G75*
G02*
X14305000Y31290000I-125000J0D01*
G01*
X13995000Y31290000D01*
G75*
G02*
X13870000Y31415000I0J125000D01*
G01*
X13870000Y31665000D01*
G75*
G02*
X13995000Y31790000I125000J0D01*
G01*
X14305000Y31790000D01*
G75*
G02*
X14430000Y31665000I0J-125000D01*
G01*
G37*
G36*
G01*
X15070000Y31665000D02*
X15070000Y31415000D01*
G75*
G02*
X14945000Y31290000I-125000J0D01*
G01*
X14635000Y31290000D01*
G75*
G02*
X14510000Y31415000I0J125000D01*
G01*
X14510000Y31665000D01*
G75*
G02*
X14635000Y31790000I125000J0D01*
G01*
X14945000Y31790000D01*
G75*
G02*
X15070000Y31665000I0J-125000D01*
G01*
G37*
G36*
G01*
X3468873Y2376898D02*
X3193102Y2101127D01*
G75*
G02*
X2959756Y2101127I-116673J116673D01*
G01*
X2726411Y2334472D01*
G75*
G02*
X2726411Y2567818I116673J116673D01*
G01*
X3002182Y2843589D01*
G75*
G02*
X3235528Y2843589I116673J-116673D01*
G01*
X3468873Y2610244D01*
G75*
G02*
X3468873Y2376898I-116673J-116673D01*
G01*
G37*
G36*
G01*
X4147695Y1698076D02*
X3871924Y1422305D01*
G75*
G02*
X3638578Y1422305I-116673J116673D01*
G01*
X3405233Y1655650D01*
G75*
G02*
X3405233Y1888996I116673J116673D01*
G01*
X3681004Y2164767D01*
G75*
G02*
X3914350Y2164767I116673J-116673D01*
G01*
X4147695Y1931422D01*
G75*
G02*
X4147695Y1698076I-116673J-116673D01*
G01*
G37*
G36*
G01*
X15060000Y32365000D02*
X15060000Y32115000D01*
G75*
G02*
X14935000Y31990000I-125000J0D01*
G01*
X14625000Y31990000D01*
G75*
G02*
X14500000Y32115000I0J125000D01*
G01*
X14500000Y32365000D01*
G75*
G02*
X14625000Y32490000I125000J0D01*
G01*
X14935000Y32490000D01*
G75*
G02*
X15060000Y32365000I0J-125000D01*
G01*
G37*
G36*
G01*
X14420000Y32365000D02*
X14420000Y32115000D01*
G75*
G02*
X14295000Y31990000I-125000J0D01*
G01*
X13985000Y31990000D01*
G75*
G02*
X13860000Y32115000I0J125000D01*
G01*
X13860000Y32365000D01*
G75*
G02*
X13985000Y32490000I125000J0D01*
G01*
X14295000Y32490000D01*
G75*
G02*
X14420000Y32365000I0J-125000D01*
G01*
G37*
G36*
G01*
X12675000Y30610000D02*
X12425000Y30610000D01*
G75*
G02*
X12300000Y30735000I0J125000D01*
G01*
X12300000Y31045000D01*
G75*
G02*
X12425000Y31170000I125000J0D01*
G01*
X12675000Y31170000D01*
G75*
G02*
X12800000Y31045000I0J-125000D01*
G01*
X12800000Y30735000D01*
G75*
G02*
X12675000Y30610000I-125000J0D01*
G01*
G37*
G36*
G01*
X12675000Y29970000D02*
X12425000Y29970000D01*
G75*
G02*
X12300000Y30095000I0J125000D01*
G01*
X12300000Y30405000D01*
G75*
G02*
X12425000Y30530000I125000J0D01*
G01*
X12675000Y30530000D01*
G75*
G02*
X12800000Y30405000I0J-125000D01*
G01*
X12800000Y30095000D01*
G75*
G02*
X12675000Y29970000I-125000J0D01*
G01*
G37*
G36*
G01*
X13870000Y32815000D02*
X13870000Y33065000D01*
G75*
G02*
X13995000Y33190000I125000J0D01*
G01*
X14305000Y33190000D01*
G75*
G02*
X14430000Y33065000I0J-125000D01*
G01*
X14430000Y32815000D01*
G75*
G02*
X14305000Y32690000I-125000J0D01*
G01*
X13995000Y32690000D01*
G75*
G02*
X13870000Y32815000I0J125000D01*
G01*
G37*
G36*
G01*
X14510000Y32815000D02*
X14510000Y33065000D01*
G75*
G02*
X14635000Y33190000I125000J0D01*
G01*
X14945000Y33190000D01*
G75*
G02*
X15070000Y33065000I0J-125000D01*
G01*
X15070000Y32815000D01*
G75*
G02*
X14945000Y32690000I-125000J0D01*
G01*
X14635000Y32690000D01*
G75*
G02*
X14510000Y32815000I0J125000D01*
G01*
G37*
G36*
G01*
X14579896Y25113327D02*
X14756673Y25290104D01*
G75*
G02*
X14933449Y25290104I88388J-88388D01*
G01*
X15152652Y25070901D01*
G75*
G02*
X15152652Y24894125I-88388J-88388D01*
G01*
X14975875Y24717348D01*
G75*
G02*
X14799099Y24717348I-88388J88388D01*
G01*
X14579896Y24936551D01*
G75*
G02*
X14579896Y25113327I88388J88388D01*
G01*
G37*
G36*
G01*
X14127348Y25565875D02*
X14304125Y25742652D01*
G75*
G02*
X14480901Y25742652I88388J-88388D01*
G01*
X14700104Y25523449D01*
G75*
G02*
X14700104Y25346673I-88388J-88388D01*
G01*
X14523327Y25169896D01*
G75*
G02*
X14346551Y25169896I-88388J88388D01*
G01*
X14127348Y25389099D01*
G75*
G02*
X14127348Y25565875I88388J88388D01*
G01*
G37*
G36*
G01*
X13383622Y8139601D02*
X13560399Y8316378D01*
G75*
G02*
X13737175Y8316378I88388J-88388D01*
G01*
X13956378Y8097175D01*
G75*
G02*
X13956378Y7920399I-88388J-88388D01*
G01*
X13779601Y7743622D01*
G75*
G02*
X13602825Y7743622I-88388J88388D01*
G01*
X13383622Y7962825D01*
G75*
G02*
X13383622Y8139601I88388J88388D01*
G01*
G37*
G36*
G01*
X12931074Y8592149D02*
X13107851Y8768926D01*
G75*
G02*
X13284627Y8768926I88388J-88388D01*
G01*
X13503830Y8549723D01*
G75*
G02*
X13503830Y8372947I-88388J-88388D01*
G01*
X13327053Y8196170D01*
G75*
G02*
X13150277Y8196170I-88388J88388D01*
G01*
X12931074Y8415373D01*
G75*
G02*
X12931074Y8592149I88388J88388D01*
G01*
G37*
G36*
G01*
X11233622Y5999601D02*
X11410399Y6176378D01*
G75*
G02*
X11587175Y6176378I88388J-88388D01*
G01*
X11806378Y5957175D01*
G75*
G02*
X11806378Y5780399I-88388J-88388D01*
G01*
X11629601Y5603622D01*
G75*
G02*
X11452825Y5603622I-88388J88388D01*
G01*
X11233622Y5822825D01*
G75*
G02*
X11233622Y5999601I88388J88388D01*
G01*
G37*
G36*
G01*
X10781074Y6452149D02*
X10957851Y6628926D01*
G75*
G02*
X11134627Y6628926I88388J-88388D01*
G01*
X11353830Y6409723D01*
G75*
G02*
X11353830Y6232947I-88388J-88388D01*
G01*
X11177053Y6056170D01*
G75*
G02*
X11000277Y6056170I-88388J88388D01*
G01*
X10781074Y6275373D01*
G75*
G02*
X10781074Y6452149I88388J88388D01*
G01*
G37*
G36*
G01*
X11308769Y6975460D02*
X11584540Y7251231D01*
G75*
G02*
X11817886Y7251231I116673J-116673D01*
G01*
X12051231Y7017886D01*
G75*
G02*
X12051231Y6784540I-116673J-116673D01*
G01*
X11775460Y6508769D01*
G75*
G02*
X11542114Y6508769I-116673J116673D01*
G01*
X11308769Y6742114D01*
G75*
G02*
X11308769Y6975460I116673J116673D01*
G01*
G37*
G36*
G01*
X11987591Y6296638D02*
X12263362Y6572409D01*
G75*
G02*
X12496708Y6572409I116673J-116673D01*
G01*
X12730053Y6339064D01*
G75*
G02*
X12730053Y6105718I-116673J-116673D01*
G01*
X12454282Y5829947D01*
G75*
G02*
X12220936Y5829947I-116673J116673D01*
G01*
X11987591Y6063292D01*
G75*
G02*
X11987591Y6296638I116673J116673D01*
G01*
G37*
G36*
G01*
X2925000Y21550000D02*
X3175000Y21550000D01*
G75*
G02*
X3300000Y21425000I0J-125000D01*
G01*
X3300000Y21115000D01*
G75*
G02*
X3175000Y20990000I-125000J0D01*
G01*
X2925000Y20990000D01*
G75*
G02*
X2800000Y21115000I0J125000D01*
G01*
X2800000Y21425000D01*
G75*
G02*
X2925000Y21550000I125000J0D01*
G01*
G37*
G36*
G01*
X2925000Y22190000D02*
X3175000Y22190000D01*
G75*
G02*
X3300000Y22065000I0J-125000D01*
G01*
X3300000Y21755000D01*
G75*
G02*
X3175000Y21630000I-125000J0D01*
G01*
X2925000Y21630000D01*
G75*
G02*
X2800000Y21755000I0J125000D01*
G01*
X2800000Y22065000D01*
G75*
G02*
X2925000Y22190000I125000J0D01*
G01*
G37*
M02*
