G04 #@! TF.GenerationSoftware,KiCad,Pcbnew,5.1.8-1.fc33*
G04 #@! TF.CreationDate,2020-12-01T15:42:06+01:00*
G04 #@! TF.ProjectId,reDIP-sx,72654449-502d-4737-982e-6b696361645f,0.1*
G04 #@! TF.SameCoordinates,PX5e28010PY8011a50*
G04 #@! TF.FileFunction,Soldermask,Top*
G04 #@! TF.FilePolarity,Negative*
%FSLAX46Y46*%
G04 Gerber Fmt 4.6, Leading zero omitted, Abs format (unit mm)*
G04 Created by KiCad (PCBNEW 5.1.8-1.fc33) date 2020-12-01 15:42:06*
%MOMM*%
%LPD*%
G01*
G04 APERTURE LIST*
%ADD10O,1.050000X2.350000*%
%ADD11O,1.050000X2.050000*%
%ADD12O,0.650000X0.650000*%
%ADD13O,0.900000X0.650000*%
%ADD14C,0.250000*%
%ADD15C,0.200000*%
%ADD16C,1.650000*%
G04 APERTURE END LIST*
G36*
G01*
X10310000Y2600000D02*
X10310000Y3860000D01*
G75*
G02*
X10380000Y3930000I70000J0D01*
G01*
X11640000Y3930000D01*
G75*
G02*
X11710000Y3860000I0J-70000D01*
G01*
X11710000Y2600000D01*
G75*
G02*
X11640000Y2530000I-70000J0D01*
G01*
X10380000Y2530000D01*
G75*
G02*
X10310000Y2600000I0J70000D01*
G01*
G37*
G36*
G01*
X12460000Y2600000D02*
X12460000Y3860000D01*
G75*
G02*
X12530000Y3930000I70000J0D01*
G01*
X13790000Y3930000D01*
G75*
G02*
X13860000Y3860000I0J-70000D01*
G01*
X13860000Y2600000D01*
G75*
G02*
X13790000Y2530000I-70000J0D01*
G01*
X12530000Y2530000D01*
G75*
G02*
X12460000Y2600000I0J70000D01*
G01*
G37*
G36*
G01*
X12460000Y450000D02*
X12460000Y1710000D01*
G75*
G02*
X12530000Y1780000I70000J0D01*
G01*
X13790000Y1780000D01*
G75*
G02*
X13860000Y1710000I0J-70000D01*
G01*
X13860000Y450000D01*
G75*
G02*
X13790000Y380000I-70000J0D01*
G01*
X12530000Y380000D01*
G75*
G02*
X12460000Y450000I0J70000D01*
G01*
G37*
G36*
G01*
X10310000Y450000D02*
X10310000Y1710000D01*
G75*
G02*
X10380000Y1780000I70000J0D01*
G01*
X11640000Y1780000D01*
G75*
G02*
X11710000Y1710000I0J-70000D01*
G01*
X11710000Y450000D01*
G75*
G02*
X11640000Y380000I-70000J0D01*
G01*
X10380000Y380000D01*
G75*
G02*
X10310000Y450000I0J70000D01*
G01*
G37*
G36*
G01*
X6075000Y34940900D02*
X6075000Y34039100D01*
G75*
G02*
X6000900Y33965000I-74100J0D01*
G01*
X5579100Y33965000D01*
G75*
G02*
X5505000Y34039100I0J74100D01*
G01*
X5505000Y34940900D01*
G75*
G02*
X5579100Y35015000I74100J0D01*
G01*
X6000900Y35015000D01*
G75*
G02*
X6075000Y34940900I0J-74100D01*
G01*
G37*
G36*
G01*
X6825000Y34940900D02*
X6825000Y34039100D01*
G75*
G02*
X6750900Y33965000I-74100J0D01*
G01*
X6329100Y33965000D01*
G75*
G02*
X6255000Y34039100I0J74100D01*
G01*
X6255000Y34940900D01*
G75*
G02*
X6329100Y35015000I74100J0D01*
G01*
X6750900Y35015000D01*
G75*
G02*
X6825000Y34940900I0J-74100D01*
G01*
G37*
G36*
G01*
X11525000Y34940900D02*
X11525000Y34039100D01*
G75*
G02*
X11450900Y33965000I-74100J0D01*
G01*
X11029100Y33965000D01*
G75*
G02*
X10955000Y34039100I0J74100D01*
G01*
X10955000Y34940900D01*
G75*
G02*
X11029100Y35015000I74100J0D01*
G01*
X11450900Y35015000D01*
G75*
G02*
X11525000Y34940900I0J-74100D01*
G01*
G37*
G36*
G01*
X12275000Y34940900D02*
X12275000Y34039100D01*
G75*
G02*
X12200900Y33965000I-74100J0D01*
G01*
X11779100Y33965000D01*
G75*
G02*
X11705000Y34039100I0J74100D01*
G01*
X11705000Y34940900D01*
G75*
G02*
X11779100Y35015000I74100J0D01*
G01*
X12200900Y35015000D01*
G75*
G02*
X12275000Y34940900I0J-74100D01*
G01*
G37*
G36*
G01*
X10815000Y39505000D02*
X10815000Y37875000D01*
G75*
G02*
X10605000Y37665000I-210000J0D01*
G01*
X9975000Y37665000D01*
G75*
G02*
X9765000Y37875000I0J210000D01*
G01*
X9765000Y39505000D01*
G75*
G02*
X9975000Y39715000I210000J0D01*
G01*
X10605000Y39715000D01*
G75*
G02*
X10815000Y39505000I0J-210000D01*
G01*
G37*
G36*
G01*
X8015000Y39505000D02*
X8015000Y37875000D01*
G75*
G02*
X7805000Y37665000I-210000J0D01*
G01*
X7175000Y37665000D01*
G75*
G02*
X6965000Y37875000I0J210000D01*
G01*
X6965000Y39505000D01*
G75*
G02*
X7175000Y39715000I210000J0D01*
G01*
X7805000Y39715000D01*
G75*
G02*
X8015000Y39505000I0J-210000D01*
G01*
G37*
D10*
X13210000Y38690000D03*
X4570000Y38690000D03*
D11*
X13210000Y34865000D03*
X4570000Y34865000D03*
D12*
X11890000Y35590000D03*
D13*
X5890000Y35590000D03*
G36*
G01*
X12275000Y34940900D02*
X12275000Y34039100D01*
G75*
G02*
X12200900Y33965000I-74100J0D01*
G01*
X11779100Y33965000D01*
G75*
G02*
X11705000Y34039100I0J74100D01*
G01*
X11705000Y34940900D01*
G75*
G02*
X11779100Y35015000I74100J0D01*
G01*
X12200900Y35015000D01*
G75*
G02*
X12275000Y34940900I0J-74100D01*
G01*
G37*
G36*
G01*
X11525000Y34940900D02*
X11525000Y34039100D01*
G75*
G02*
X11450900Y33965000I-74100J0D01*
G01*
X11029100Y33965000D01*
G75*
G02*
X10955000Y34039100I0J74100D01*
G01*
X10955000Y34940900D01*
G75*
G02*
X11029100Y35015000I74100J0D01*
G01*
X11450900Y35015000D01*
G75*
G02*
X11525000Y34940900I0J-74100D01*
G01*
G37*
G36*
G01*
X6075000Y34940900D02*
X6075000Y34039100D01*
G75*
G02*
X6000900Y33965000I-74100J0D01*
G01*
X5579100Y33965000D01*
G75*
G02*
X5505000Y34039100I0J74100D01*
G01*
X5505000Y34940900D01*
G75*
G02*
X5579100Y35015000I74100J0D01*
G01*
X6000900Y35015000D01*
G75*
G02*
X6075000Y34940900I0J-74100D01*
G01*
G37*
G36*
G01*
X6825000Y34940900D02*
X6825000Y34039100D01*
G75*
G02*
X6750900Y33965000I-74100J0D01*
G01*
X6329100Y33965000D01*
G75*
G02*
X6255000Y34039100I0J74100D01*
G01*
X6255000Y34940900D01*
G75*
G02*
X6329100Y35015000I74100J0D01*
G01*
X6750900Y35015000D01*
G75*
G02*
X6825000Y34940900I0J-74100D01*
G01*
G37*
G36*
G01*
X10800000Y34935000D02*
X10800000Y34045000D01*
G75*
G02*
X10720000Y33965000I-80000J0D01*
G01*
X10560000Y33965000D01*
G75*
G02*
X10480000Y34045000I0J80000D01*
G01*
X10480000Y34935000D01*
G75*
G02*
X10560000Y35015000I80000J0D01*
G01*
X10720000Y35015000D01*
G75*
G02*
X10800000Y34935000I0J-80000D01*
G01*
G37*
G36*
G01*
X10300000Y34935000D02*
X10300000Y34045000D01*
G75*
G02*
X10220000Y33965000I-80000J0D01*
G01*
X10060000Y33965000D01*
G75*
G02*
X9980000Y34045000I0J80000D01*
G01*
X9980000Y34935000D01*
G75*
G02*
X10060000Y35015000I80000J0D01*
G01*
X10220000Y35015000D01*
G75*
G02*
X10300000Y34935000I0J-80000D01*
G01*
G37*
G36*
G01*
X9800000Y34935000D02*
X9800000Y34045000D01*
G75*
G02*
X9720000Y33965000I-80000J0D01*
G01*
X9560000Y33965000D01*
G75*
G02*
X9480000Y34045000I0J80000D01*
G01*
X9480000Y34935000D01*
G75*
G02*
X9560000Y35015000I80000J0D01*
G01*
X9720000Y35015000D01*
G75*
G02*
X9800000Y34935000I0J-80000D01*
G01*
G37*
G36*
G01*
X9300000Y34935000D02*
X9300000Y34045000D01*
G75*
G02*
X9220000Y33965000I-80000J0D01*
G01*
X9060000Y33965000D01*
G75*
G02*
X8980000Y34045000I0J80000D01*
G01*
X8980000Y34935000D01*
G75*
G02*
X9060000Y35015000I80000J0D01*
G01*
X9220000Y35015000D01*
G75*
G02*
X9300000Y34935000I0J-80000D01*
G01*
G37*
G36*
G01*
X8800000Y34935000D02*
X8800000Y34045000D01*
G75*
G02*
X8720000Y33965000I-80000J0D01*
G01*
X8560000Y33965000D01*
G75*
G02*
X8480000Y34045000I0J80000D01*
G01*
X8480000Y34935000D01*
G75*
G02*
X8560000Y35015000I80000J0D01*
G01*
X8720000Y35015000D01*
G75*
G02*
X8800000Y34935000I0J-80000D01*
G01*
G37*
G36*
G01*
X8300000Y34935000D02*
X8300000Y34045000D01*
G75*
G02*
X8220000Y33965000I-80000J0D01*
G01*
X8060000Y33965000D01*
G75*
G02*
X7980000Y34045000I0J80000D01*
G01*
X7980000Y34935000D01*
G75*
G02*
X8060000Y35015000I80000J0D01*
G01*
X8220000Y35015000D01*
G75*
G02*
X8300000Y34935000I0J-80000D01*
G01*
G37*
G36*
G01*
X7800000Y34935000D02*
X7800000Y34045000D01*
G75*
G02*
X7720000Y33965000I-80000J0D01*
G01*
X7560000Y33965000D01*
G75*
G02*
X7480000Y34045000I0J80000D01*
G01*
X7480000Y34935000D01*
G75*
G02*
X7560000Y35015000I80000J0D01*
G01*
X7720000Y35015000D01*
G75*
G02*
X7800000Y34935000I0J-80000D01*
G01*
G37*
G36*
G01*
X7300000Y34935000D02*
X7300000Y34045000D01*
G75*
G02*
X7220000Y33965000I-80000J0D01*
G01*
X7060000Y33965000D01*
G75*
G02*
X6980000Y34045000I0J80000D01*
G01*
X6980000Y34935000D01*
G75*
G02*
X7060000Y35015000I80000J0D01*
G01*
X7220000Y35015000D01*
G75*
G02*
X7300000Y34935000I0J-80000D01*
G01*
G37*
G36*
G01*
X12815000Y16682500D02*
X13025000Y16682500D01*
G75*
G02*
X13095000Y16612500I0J-70000D01*
G01*
X13095000Y16302500D01*
G75*
G02*
X13025000Y16232500I-70000J0D01*
G01*
X12815000Y16232500D01*
G75*
G02*
X12745000Y16302500I0J70000D01*
G01*
X12745000Y16612500D01*
G75*
G02*
X12815000Y16682500I70000J0D01*
G01*
G37*
G36*
G01*
X12315000Y16682500D02*
X12525000Y16682500D01*
G75*
G02*
X12595000Y16612500I0J-70000D01*
G01*
X12595000Y16302500D01*
G75*
G02*
X12525000Y16232500I-70000J0D01*
G01*
X12315000Y16232500D01*
G75*
G02*
X12245000Y16302500I0J70000D01*
G01*
X12245000Y16612500D01*
G75*
G02*
X12315000Y16682500I70000J0D01*
G01*
G37*
G36*
G01*
X12815000Y16007500D02*
X13025000Y16007500D01*
G75*
G02*
X13095000Y15937500I0J-70000D01*
G01*
X13095000Y15627500D01*
G75*
G02*
X13025000Y15557500I-70000J0D01*
G01*
X12815000Y15557500D01*
G75*
G02*
X12745000Y15627500I0J70000D01*
G01*
X12745000Y15937500D01*
G75*
G02*
X12815000Y16007500I70000J0D01*
G01*
G37*
G36*
G01*
X12315000Y16007500D02*
X12525000Y16007500D01*
G75*
G02*
X12595000Y15937500I0J-70000D01*
G01*
X12595000Y15627500D01*
G75*
G02*
X12525000Y15557500I-70000J0D01*
G01*
X12315000Y15557500D01*
G75*
G02*
X12245000Y15627500I0J70000D01*
G01*
X12245000Y15937500D01*
G75*
G02*
X12315000Y16007500I70000J0D01*
G01*
G37*
G36*
G01*
X13332500Y16682500D02*
X13507500Y16682500D01*
G75*
G02*
X13595000Y16595000I0J-87500D01*
G01*
X13595000Y16270000D01*
G75*
G02*
X13507500Y16182500I-87500J0D01*
G01*
X13332500Y16182500D01*
G75*
G02*
X13245000Y16270000I0J87500D01*
G01*
X13245000Y16595000D01*
G75*
G02*
X13332500Y16682500I87500J0D01*
G01*
G37*
G36*
G01*
X13315000Y16007500D02*
X13525000Y16007500D01*
G75*
G02*
X13595000Y15937500I0J-70000D01*
G01*
X13595000Y15627500D01*
G75*
G02*
X13525000Y15557500I-70000J0D01*
G01*
X13315000Y15557500D01*
G75*
G02*
X13245000Y15627500I0J70000D01*
G01*
X13245000Y15937500D01*
G75*
G02*
X13315000Y16007500I70000J0D01*
G01*
G37*
G36*
G01*
X11815000Y16682500D02*
X12025000Y16682500D01*
G75*
G02*
X12095000Y16612500I0J-70000D01*
G01*
X12095000Y16302500D01*
G75*
G02*
X12025000Y16232500I-70000J0D01*
G01*
X11815000Y16232500D01*
G75*
G02*
X11745000Y16302500I0J70000D01*
G01*
X11745000Y16612500D01*
G75*
G02*
X11815000Y16682500I70000J0D01*
G01*
G37*
G36*
G01*
X11832500Y16007500D02*
X12007500Y16007500D01*
G75*
G02*
X12095000Y15920000I0J-87500D01*
G01*
X12095000Y15645000D01*
G75*
G02*
X12007500Y15557500I-87500J0D01*
G01*
X11832500Y15557500D01*
G75*
G02*
X11745000Y15645000I0J87500D01*
G01*
X11745000Y15920000D01*
G75*
G02*
X11832500Y16007500I87500J0D01*
G01*
G37*
G36*
G01*
X8907678Y25567476D02*
X12867476Y21607678D01*
G75*
G02*
X12867476Y21572322I-17678J-17678D01*
G01*
X8907678Y17612524D01*
G75*
G02*
X8872322Y17612524I-17678J17678D01*
G01*
X4912524Y21572322D01*
G75*
G02*
X4912524Y21607678I17678J17678D01*
G01*
X8872322Y25567476D01*
G75*
G02*
X8907678Y25567476I17678J-17678D01*
G01*
G37*
G36*
G01*
X13097285Y21483934D02*
X13645293Y20935926D01*
G75*
G02*
X13645293Y20829860I-53033J-53033D01*
G01*
X13539227Y20723794D01*
G75*
G02*
X13433161Y20723794I-53033J53033D01*
G01*
X12885153Y21271802D01*
G75*
G02*
X12885153Y21377868I53033J53033D01*
G01*
X12991219Y21483934D01*
G75*
G02*
X13097285Y21483934I53033J-53033D01*
G01*
G37*
G36*
G01*
X12743732Y21130381D02*
X13291740Y20582373D01*
G75*
G02*
X13291740Y20476307I-53033J-53033D01*
G01*
X13185674Y20370241D01*
G75*
G02*
X13079608Y20370241I-53033J53033D01*
G01*
X12531600Y20918249D01*
G75*
G02*
X12531600Y21024315I53033J53033D01*
G01*
X12637666Y21130381D01*
G75*
G02*
X12743732Y21130381I53033J-53033D01*
G01*
G37*
G36*
G01*
X12390178Y20776827D02*
X12938186Y20228819D01*
G75*
G02*
X12938186Y20122753I-53033J-53033D01*
G01*
X12832120Y20016687D01*
G75*
G02*
X12726054Y20016687I-53033J53033D01*
G01*
X12178046Y20564695D01*
G75*
G02*
X12178046Y20670761I53033J53033D01*
G01*
X12284112Y20776827D01*
G75*
G02*
X12390178Y20776827I53033J-53033D01*
G01*
G37*
G36*
G01*
X12036625Y20423274D02*
X12584633Y19875266D01*
G75*
G02*
X12584633Y19769200I-53033J-53033D01*
G01*
X12478567Y19663134D01*
G75*
G02*
X12372501Y19663134I-53033J53033D01*
G01*
X11824493Y20211142D01*
G75*
G02*
X11824493Y20317208I53033J53033D01*
G01*
X11930559Y20423274D01*
G75*
G02*
X12036625Y20423274I53033J-53033D01*
G01*
G37*
G36*
G01*
X11683072Y20069721D02*
X12231080Y19521713D01*
G75*
G02*
X12231080Y19415647I-53033J-53033D01*
G01*
X12125014Y19309581D01*
G75*
G02*
X12018948Y19309581I-53033J53033D01*
G01*
X11470940Y19857589D01*
G75*
G02*
X11470940Y19963655I53033J53033D01*
G01*
X11577006Y20069721D01*
G75*
G02*
X11683072Y20069721I53033J-53033D01*
G01*
G37*
G36*
G01*
X11329518Y19716167D02*
X11877526Y19168159D01*
G75*
G02*
X11877526Y19062093I-53033J-53033D01*
G01*
X11771460Y18956027D01*
G75*
G02*
X11665394Y18956027I-53033J53033D01*
G01*
X11117386Y19504035D01*
G75*
G02*
X11117386Y19610101I53033J53033D01*
G01*
X11223452Y19716167D01*
G75*
G02*
X11329518Y19716167I53033J-53033D01*
G01*
G37*
G36*
G01*
X10975965Y19362614D02*
X11523973Y18814606D01*
G75*
G02*
X11523973Y18708540I-53033J-53033D01*
G01*
X11417907Y18602474D01*
G75*
G02*
X11311841Y18602474I-53033J53033D01*
G01*
X10763833Y19150482D01*
G75*
G02*
X10763833Y19256548I53033J53033D01*
G01*
X10869899Y19362614D01*
G75*
G02*
X10975965Y19362614I53033J-53033D01*
G01*
G37*
G36*
G01*
X10622411Y19009060D02*
X11170419Y18461052D01*
G75*
G02*
X11170419Y18354986I-53033J-53033D01*
G01*
X11064353Y18248920D01*
G75*
G02*
X10958287Y18248920I-53033J53033D01*
G01*
X10410279Y18796928D01*
G75*
G02*
X10410279Y18902994I53033J53033D01*
G01*
X10516345Y19009060D01*
G75*
G02*
X10622411Y19009060I53033J-53033D01*
G01*
G37*
G36*
G01*
X10268858Y18655507D02*
X10816866Y18107499D01*
G75*
G02*
X10816866Y18001433I-53033J-53033D01*
G01*
X10710800Y17895367D01*
G75*
G02*
X10604734Y17895367I-53033J53033D01*
G01*
X10056726Y18443375D01*
G75*
G02*
X10056726Y18549441I53033J53033D01*
G01*
X10162792Y18655507D01*
G75*
G02*
X10268858Y18655507I53033J-53033D01*
G01*
G37*
G36*
G01*
X9915305Y18301954D02*
X10463313Y17753946D01*
G75*
G02*
X10463313Y17647880I-53033J-53033D01*
G01*
X10357247Y17541814D01*
G75*
G02*
X10251181Y17541814I-53033J53033D01*
G01*
X9703173Y18089822D01*
G75*
G02*
X9703173Y18195888I53033J53033D01*
G01*
X9809239Y18301954D01*
G75*
G02*
X9915305Y18301954I53033J-53033D01*
G01*
G37*
G36*
G01*
X9561751Y17948400D02*
X10109759Y17400392D01*
G75*
G02*
X10109759Y17294326I-53033J-53033D01*
G01*
X10003693Y17188260D01*
G75*
G02*
X9897627Y17188260I-53033J53033D01*
G01*
X9349619Y17736268D01*
G75*
G02*
X9349619Y17842334I53033J53033D01*
G01*
X9455685Y17948400D01*
G75*
G02*
X9561751Y17948400I53033J-53033D01*
G01*
G37*
G36*
G01*
X9208198Y17594847D02*
X9756206Y17046839D01*
G75*
G02*
X9756206Y16940773I-53033J-53033D01*
G01*
X9650140Y16834707D01*
G75*
G02*
X9544074Y16834707I-53033J53033D01*
G01*
X8996066Y17382715D01*
G75*
G02*
X8996066Y17488781I53033J53033D01*
G01*
X9102132Y17594847D01*
G75*
G02*
X9208198Y17594847I53033J-53033D01*
G01*
G37*
G36*
G01*
X8677868Y17594847D02*
X8783934Y17488781D01*
G75*
G02*
X8783934Y17382715I-53033J-53033D01*
G01*
X8235926Y16834707D01*
G75*
G02*
X8129860Y16834707I-53033J53033D01*
G01*
X8023794Y16940773D01*
G75*
G02*
X8023794Y17046839I53033J53033D01*
G01*
X8571802Y17594847D01*
G75*
G02*
X8677868Y17594847I53033J-53033D01*
G01*
G37*
G36*
G01*
X8324315Y17948400D02*
X8430381Y17842334D01*
G75*
G02*
X8430381Y17736268I-53033J-53033D01*
G01*
X7882373Y17188260D01*
G75*
G02*
X7776307Y17188260I-53033J53033D01*
G01*
X7670241Y17294326D01*
G75*
G02*
X7670241Y17400392I53033J53033D01*
G01*
X8218249Y17948400D01*
G75*
G02*
X8324315Y17948400I53033J-53033D01*
G01*
G37*
G36*
G01*
X7970761Y18301954D02*
X8076827Y18195888D01*
G75*
G02*
X8076827Y18089822I-53033J-53033D01*
G01*
X7528819Y17541814D01*
G75*
G02*
X7422753Y17541814I-53033J53033D01*
G01*
X7316687Y17647880D01*
G75*
G02*
X7316687Y17753946I53033J53033D01*
G01*
X7864695Y18301954D01*
G75*
G02*
X7970761Y18301954I53033J-53033D01*
G01*
G37*
G36*
G01*
X7617208Y18655507D02*
X7723274Y18549441D01*
G75*
G02*
X7723274Y18443375I-53033J-53033D01*
G01*
X7175266Y17895367D01*
G75*
G02*
X7069200Y17895367I-53033J53033D01*
G01*
X6963134Y18001433D01*
G75*
G02*
X6963134Y18107499I53033J53033D01*
G01*
X7511142Y18655507D01*
G75*
G02*
X7617208Y18655507I53033J-53033D01*
G01*
G37*
G36*
G01*
X7263655Y19009060D02*
X7369721Y18902994D01*
G75*
G02*
X7369721Y18796928I-53033J-53033D01*
G01*
X6821713Y18248920D01*
G75*
G02*
X6715647Y18248920I-53033J53033D01*
G01*
X6609581Y18354986D01*
G75*
G02*
X6609581Y18461052I53033J53033D01*
G01*
X7157589Y19009060D01*
G75*
G02*
X7263655Y19009060I53033J-53033D01*
G01*
G37*
G36*
G01*
X6910101Y19362614D02*
X7016167Y19256548D01*
G75*
G02*
X7016167Y19150482I-53033J-53033D01*
G01*
X6468159Y18602474D01*
G75*
G02*
X6362093Y18602474I-53033J53033D01*
G01*
X6256027Y18708540D01*
G75*
G02*
X6256027Y18814606I53033J53033D01*
G01*
X6804035Y19362614D01*
G75*
G02*
X6910101Y19362614I53033J-53033D01*
G01*
G37*
G36*
G01*
X6556548Y19716167D02*
X6662614Y19610101D01*
G75*
G02*
X6662614Y19504035I-53033J-53033D01*
G01*
X6114606Y18956027D01*
G75*
G02*
X6008540Y18956027I-53033J53033D01*
G01*
X5902474Y19062093D01*
G75*
G02*
X5902474Y19168159I53033J53033D01*
G01*
X6450482Y19716167D01*
G75*
G02*
X6556548Y19716167I53033J-53033D01*
G01*
G37*
G36*
G01*
X6202994Y20069721D02*
X6309060Y19963655D01*
G75*
G02*
X6309060Y19857589I-53033J-53033D01*
G01*
X5761052Y19309581D01*
G75*
G02*
X5654986Y19309581I-53033J53033D01*
G01*
X5548920Y19415647D01*
G75*
G02*
X5548920Y19521713I53033J53033D01*
G01*
X6096928Y20069721D01*
G75*
G02*
X6202994Y20069721I53033J-53033D01*
G01*
G37*
G36*
G01*
X5849441Y20423274D02*
X5955507Y20317208D01*
G75*
G02*
X5955507Y20211142I-53033J-53033D01*
G01*
X5407499Y19663134D01*
G75*
G02*
X5301433Y19663134I-53033J53033D01*
G01*
X5195367Y19769200D01*
G75*
G02*
X5195367Y19875266I53033J53033D01*
G01*
X5743375Y20423274D01*
G75*
G02*
X5849441Y20423274I53033J-53033D01*
G01*
G37*
G36*
G01*
X5495888Y20776827D02*
X5601954Y20670761D01*
G75*
G02*
X5601954Y20564695I-53033J-53033D01*
G01*
X5053946Y20016687D01*
G75*
G02*
X4947880Y20016687I-53033J53033D01*
G01*
X4841814Y20122753D01*
G75*
G02*
X4841814Y20228819I53033J53033D01*
G01*
X5389822Y20776827D01*
G75*
G02*
X5495888Y20776827I53033J-53033D01*
G01*
G37*
G36*
G01*
X5142334Y21130381D02*
X5248400Y21024315D01*
G75*
G02*
X5248400Y20918249I-53033J-53033D01*
G01*
X4700392Y20370241D01*
G75*
G02*
X4594326Y20370241I-53033J53033D01*
G01*
X4488260Y20476307D01*
G75*
G02*
X4488260Y20582373I53033J53033D01*
G01*
X5036268Y21130381D01*
G75*
G02*
X5142334Y21130381I53033J-53033D01*
G01*
G37*
G36*
G01*
X4788781Y21483934D02*
X4894847Y21377868D01*
G75*
G02*
X4894847Y21271802I-53033J-53033D01*
G01*
X4346839Y20723794D01*
G75*
G02*
X4240773Y20723794I-53033J53033D01*
G01*
X4134707Y20829860D01*
G75*
G02*
X4134707Y20935926I53033J53033D01*
G01*
X4682715Y21483934D01*
G75*
G02*
X4788781Y21483934I53033J-53033D01*
G01*
G37*
G36*
G01*
X4346839Y22456206D02*
X4894847Y21908198D01*
G75*
G02*
X4894847Y21802132I-53033J-53033D01*
G01*
X4788781Y21696066D01*
G75*
G02*
X4682715Y21696066I-53033J53033D01*
G01*
X4134707Y22244074D01*
G75*
G02*
X4134707Y22350140I53033J53033D01*
G01*
X4240773Y22456206D01*
G75*
G02*
X4346839Y22456206I53033J-53033D01*
G01*
G37*
G36*
G01*
X4700392Y22809759D02*
X5248400Y22261751D01*
G75*
G02*
X5248400Y22155685I-53033J-53033D01*
G01*
X5142334Y22049619D01*
G75*
G02*
X5036268Y22049619I-53033J53033D01*
G01*
X4488260Y22597627D01*
G75*
G02*
X4488260Y22703693I53033J53033D01*
G01*
X4594326Y22809759D01*
G75*
G02*
X4700392Y22809759I53033J-53033D01*
G01*
G37*
G36*
G01*
X5053946Y23163313D02*
X5601954Y22615305D01*
G75*
G02*
X5601954Y22509239I-53033J-53033D01*
G01*
X5495888Y22403173D01*
G75*
G02*
X5389822Y22403173I-53033J53033D01*
G01*
X4841814Y22951181D01*
G75*
G02*
X4841814Y23057247I53033J53033D01*
G01*
X4947880Y23163313D01*
G75*
G02*
X5053946Y23163313I53033J-53033D01*
G01*
G37*
G36*
G01*
X5407499Y23516866D02*
X5955507Y22968858D01*
G75*
G02*
X5955507Y22862792I-53033J-53033D01*
G01*
X5849441Y22756726D01*
G75*
G02*
X5743375Y22756726I-53033J53033D01*
G01*
X5195367Y23304734D01*
G75*
G02*
X5195367Y23410800I53033J53033D01*
G01*
X5301433Y23516866D01*
G75*
G02*
X5407499Y23516866I53033J-53033D01*
G01*
G37*
G36*
G01*
X5761052Y23870419D02*
X6309060Y23322411D01*
G75*
G02*
X6309060Y23216345I-53033J-53033D01*
G01*
X6202994Y23110279D01*
G75*
G02*
X6096928Y23110279I-53033J53033D01*
G01*
X5548920Y23658287D01*
G75*
G02*
X5548920Y23764353I53033J53033D01*
G01*
X5654986Y23870419D01*
G75*
G02*
X5761052Y23870419I53033J-53033D01*
G01*
G37*
G36*
G01*
X6114606Y24223973D02*
X6662614Y23675965D01*
G75*
G02*
X6662614Y23569899I-53033J-53033D01*
G01*
X6556548Y23463833D01*
G75*
G02*
X6450482Y23463833I-53033J53033D01*
G01*
X5902474Y24011841D01*
G75*
G02*
X5902474Y24117907I53033J53033D01*
G01*
X6008540Y24223973D01*
G75*
G02*
X6114606Y24223973I53033J-53033D01*
G01*
G37*
G36*
G01*
X6468159Y24577526D02*
X7016167Y24029518D01*
G75*
G02*
X7016167Y23923452I-53033J-53033D01*
G01*
X6910101Y23817386D01*
G75*
G02*
X6804035Y23817386I-53033J53033D01*
G01*
X6256027Y24365394D01*
G75*
G02*
X6256027Y24471460I53033J53033D01*
G01*
X6362093Y24577526D01*
G75*
G02*
X6468159Y24577526I53033J-53033D01*
G01*
G37*
G36*
G01*
X6821713Y24931080D02*
X7369721Y24383072D01*
G75*
G02*
X7369721Y24277006I-53033J-53033D01*
G01*
X7263655Y24170940D01*
G75*
G02*
X7157589Y24170940I-53033J53033D01*
G01*
X6609581Y24718948D01*
G75*
G02*
X6609581Y24825014I53033J53033D01*
G01*
X6715647Y24931080D01*
G75*
G02*
X6821713Y24931080I53033J-53033D01*
G01*
G37*
G36*
G01*
X7175266Y25284633D02*
X7723274Y24736625D01*
G75*
G02*
X7723274Y24630559I-53033J-53033D01*
G01*
X7617208Y24524493D01*
G75*
G02*
X7511142Y24524493I-53033J53033D01*
G01*
X6963134Y25072501D01*
G75*
G02*
X6963134Y25178567I53033J53033D01*
G01*
X7069200Y25284633D01*
G75*
G02*
X7175266Y25284633I53033J-53033D01*
G01*
G37*
G36*
G01*
X7528819Y25638186D02*
X8076827Y25090178D01*
G75*
G02*
X8076827Y24984112I-53033J-53033D01*
G01*
X7970761Y24878046D01*
G75*
G02*
X7864695Y24878046I-53033J53033D01*
G01*
X7316687Y25426054D01*
G75*
G02*
X7316687Y25532120I53033J53033D01*
G01*
X7422753Y25638186D01*
G75*
G02*
X7528819Y25638186I53033J-53033D01*
G01*
G37*
G36*
G01*
X7882373Y25991740D02*
X8430381Y25443732D01*
G75*
G02*
X8430381Y25337666I-53033J-53033D01*
G01*
X8324315Y25231600D01*
G75*
G02*
X8218249Y25231600I-53033J53033D01*
G01*
X7670241Y25779608D01*
G75*
G02*
X7670241Y25885674I53033J53033D01*
G01*
X7776307Y25991740D01*
G75*
G02*
X7882373Y25991740I53033J-53033D01*
G01*
G37*
G36*
G01*
X8235926Y26345293D02*
X8783934Y25797285D01*
G75*
G02*
X8783934Y25691219I-53033J-53033D01*
G01*
X8677868Y25585153D01*
G75*
G02*
X8571802Y25585153I-53033J53033D01*
G01*
X8023794Y26133161D01*
G75*
G02*
X8023794Y26239227I53033J53033D01*
G01*
X8129860Y26345293D01*
G75*
G02*
X8235926Y26345293I53033J-53033D01*
G01*
G37*
G36*
G01*
X9650140Y26345293D02*
X9756206Y26239227D01*
G75*
G02*
X9756206Y26133161I-53033J-53033D01*
G01*
X9208198Y25585153D01*
G75*
G02*
X9102132Y25585153I-53033J53033D01*
G01*
X8996066Y25691219D01*
G75*
G02*
X8996066Y25797285I53033J53033D01*
G01*
X9544074Y26345293D01*
G75*
G02*
X9650140Y26345293I53033J-53033D01*
G01*
G37*
G36*
G01*
X10003693Y25991740D02*
X10109759Y25885674D01*
G75*
G02*
X10109759Y25779608I-53033J-53033D01*
G01*
X9561751Y25231600D01*
G75*
G02*
X9455685Y25231600I-53033J53033D01*
G01*
X9349619Y25337666D01*
G75*
G02*
X9349619Y25443732I53033J53033D01*
G01*
X9897627Y25991740D01*
G75*
G02*
X10003693Y25991740I53033J-53033D01*
G01*
G37*
G36*
G01*
X10357247Y25638186D02*
X10463313Y25532120D01*
G75*
G02*
X10463313Y25426054I-53033J-53033D01*
G01*
X9915305Y24878046D01*
G75*
G02*
X9809239Y24878046I-53033J53033D01*
G01*
X9703173Y24984112D01*
G75*
G02*
X9703173Y25090178I53033J53033D01*
G01*
X10251181Y25638186D01*
G75*
G02*
X10357247Y25638186I53033J-53033D01*
G01*
G37*
G36*
G01*
X10710800Y25284633D02*
X10816866Y25178567D01*
G75*
G02*
X10816866Y25072501I-53033J-53033D01*
G01*
X10268858Y24524493D01*
G75*
G02*
X10162792Y24524493I-53033J53033D01*
G01*
X10056726Y24630559D01*
G75*
G02*
X10056726Y24736625I53033J53033D01*
G01*
X10604734Y25284633D01*
G75*
G02*
X10710800Y25284633I53033J-53033D01*
G01*
G37*
G36*
G01*
X11064353Y24931080D02*
X11170419Y24825014D01*
G75*
G02*
X11170419Y24718948I-53033J-53033D01*
G01*
X10622411Y24170940D01*
G75*
G02*
X10516345Y24170940I-53033J53033D01*
G01*
X10410279Y24277006D01*
G75*
G02*
X10410279Y24383072I53033J53033D01*
G01*
X10958287Y24931080D01*
G75*
G02*
X11064353Y24931080I53033J-53033D01*
G01*
G37*
G36*
G01*
X11417907Y24577526D02*
X11523973Y24471460D01*
G75*
G02*
X11523973Y24365394I-53033J-53033D01*
G01*
X10975965Y23817386D01*
G75*
G02*
X10869899Y23817386I-53033J53033D01*
G01*
X10763833Y23923452D01*
G75*
G02*
X10763833Y24029518I53033J53033D01*
G01*
X11311841Y24577526D01*
G75*
G02*
X11417907Y24577526I53033J-53033D01*
G01*
G37*
G36*
G01*
X11771460Y24223973D02*
X11877526Y24117907D01*
G75*
G02*
X11877526Y24011841I-53033J-53033D01*
G01*
X11329518Y23463833D01*
G75*
G02*
X11223452Y23463833I-53033J53033D01*
G01*
X11117386Y23569899D01*
G75*
G02*
X11117386Y23675965I53033J53033D01*
G01*
X11665394Y24223973D01*
G75*
G02*
X11771460Y24223973I53033J-53033D01*
G01*
G37*
G36*
G01*
X12125014Y23870419D02*
X12231080Y23764353D01*
G75*
G02*
X12231080Y23658287I-53033J-53033D01*
G01*
X11683072Y23110279D01*
G75*
G02*
X11577006Y23110279I-53033J53033D01*
G01*
X11470940Y23216345D01*
G75*
G02*
X11470940Y23322411I53033J53033D01*
G01*
X12018948Y23870419D01*
G75*
G02*
X12125014Y23870419I53033J-53033D01*
G01*
G37*
G36*
G01*
X12478567Y23516866D02*
X12584633Y23410800D01*
G75*
G02*
X12584633Y23304734I-53033J-53033D01*
G01*
X12036625Y22756726D01*
G75*
G02*
X11930559Y22756726I-53033J53033D01*
G01*
X11824493Y22862792D01*
G75*
G02*
X11824493Y22968858I53033J53033D01*
G01*
X12372501Y23516866D01*
G75*
G02*
X12478567Y23516866I53033J-53033D01*
G01*
G37*
G36*
G01*
X12832120Y23163313D02*
X12938186Y23057247D01*
G75*
G02*
X12938186Y22951181I-53033J-53033D01*
G01*
X12390178Y22403173D01*
G75*
G02*
X12284112Y22403173I-53033J53033D01*
G01*
X12178046Y22509239D01*
G75*
G02*
X12178046Y22615305I53033J53033D01*
G01*
X12726054Y23163313D01*
G75*
G02*
X12832120Y23163313I53033J-53033D01*
G01*
G37*
G36*
G01*
X13185674Y22809759D02*
X13291740Y22703693D01*
G75*
G02*
X13291740Y22597627I-53033J-53033D01*
G01*
X12743732Y22049619D01*
G75*
G02*
X12637666Y22049619I-53033J53033D01*
G01*
X12531600Y22155685D01*
G75*
G02*
X12531600Y22261751I53033J53033D01*
G01*
X13079608Y22809759D01*
G75*
G02*
X13185674Y22809759I53033J-53033D01*
G01*
G37*
G36*
G01*
X13539227Y22456206D02*
X13645293Y22350140D01*
G75*
G02*
X13645293Y22244074I-53033J-53033D01*
G01*
X13097285Y21696066D01*
G75*
G02*
X12991219Y21696066I-53033J53033D01*
G01*
X12885153Y21802132D01*
G75*
G02*
X12885153Y21908198I53033J53033D01*
G01*
X13433161Y22456206D01*
G75*
G02*
X13539227Y22456206I53033J-53033D01*
G01*
G37*
D14*
X5805000Y28945000D03*
X6155000Y28945000D03*
X5805000Y29295000D03*
X6155000Y29295000D03*
X4145000Y28955000D03*
X4495000Y28955000D03*
X4145000Y29305000D03*
X4495000Y29305000D03*
X12240000Y32940000D03*
X11840000Y32940000D03*
X11440000Y32940000D03*
X12240000Y32540000D03*
X11840000Y32540000D03*
X11440000Y32540000D03*
X12240000Y32140000D03*
X11840000Y32140000D03*
X11440000Y32140000D03*
G36*
G01*
X5915000Y28382500D02*
X5915000Y28157500D01*
G75*
G02*
X5802500Y28045000I-112500J0D01*
G01*
X5517500Y28045000D01*
G75*
G02*
X5405000Y28157500I0J112500D01*
G01*
X5405000Y28382500D01*
G75*
G02*
X5517500Y28495000I112500J0D01*
G01*
X5802500Y28495000D01*
G75*
G02*
X5915000Y28382500I0J-112500D01*
G01*
G37*
G36*
G01*
X6555000Y28382500D02*
X6555000Y28157500D01*
G75*
G02*
X6442500Y28045000I-112500J0D01*
G01*
X6157500Y28045000D01*
G75*
G02*
X6045000Y28157500I0J112500D01*
G01*
X6045000Y28382500D01*
G75*
G02*
X6157500Y28495000I112500J0D01*
G01*
X6442500Y28495000D01*
G75*
G02*
X6555000Y28382500I0J-112500D01*
G01*
G37*
G36*
G01*
X4255000Y28392500D02*
X4255000Y28167500D01*
G75*
G02*
X4142500Y28055000I-112500J0D01*
G01*
X3857500Y28055000D01*
G75*
G02*
X3745000Y28167500I0J112500D01*
G01*
X3745000Y28392500D01*
G75*
G02*
X3857500Y28505000I112500J0D01*
G01*
X4142500Y28505000D01*
G75*
G02*
X4255000Y28392500I0J-112500D01*
G01*
G37*
G36*
G01*
X4895000Y28392500D02*
X4895000Y28167500D01*
G75*
G02*
X4782500Y28055000I-112500J0D01*
G01*
X4497500Y28055000D01*
G75*
G02*
X4385000Y28167500I0J112500D01*
G01*
X4385000Y28392500D01*
G75*
G02*
X4497500Y28505000I112500J0D01*
G01*
X4782500Y28505000D01*
G75*
G02*
X4895000Y28392500I0J-112500D01*
G01*
G37*
G36*
G01*
X13102011Y25175006D02*
X13013623Y25086618D01*
G75*
G02*
X12925235Y25086618I-44194J44194D01*
G01*
X12377227Y25634626D01*
G75*
G02*
X12377227Y25723014I44194J44194D01*
G01*
X12465615Y25811402D01*
G75*
G02*
X12554003Y25811402I44194J-44194D01*
G01*
X13102011Y25263394D01*
G75*
G02*
X13102011Y25175006I-44194J-44194D01*
G01*
G37*
G36*
G01*
X13384854Y25457848D02*
X13296466Y25369460D01*
G75*
G02*
X13208078Y25369460I-44194J44194D01*
G01*
X12660070Y25917468D01*
G75*
G02*
X12660070Y26005856I44194J44194D01*
G01*
X12748458Y26094244D01*
G75*
G02*
X12836846Y26094244I44194J-44194D01*
G01*
X13384854Y25546236D01*
G75*
G02*
X13384854Y25457848I-44194J-44194D01*
G01*
G37*
G36*
G01*
X13667697Y25740691D02*
X13579309Y25652303D01*
G75*
G02*
X13490921Y25652303I-44194J44194D01*
G01*
X12942913Y26200311D01*
G75*
G02*
X12942913Y26288699I44194J44194D01*
G01*
X13031301Y26377087D01*
G75*
G02*
X13119689Y26377087I44194J-44194D01*
G01*
X13667697Y25829079D01*
G75*
G02*
X13667697Y25740691I-44194J-44194D01*
G01*
G37*
G36*
G01*
X13950540Y26023534D02*
X13862152Y25935146D01*
G75*
G02*
X13773764Y25935146I-44194J44194D01*
G01*
X13225756Y26483154D01*
G75*
G02*
X13225756Y26571542I44194J44194D01*
G01*
X13314144Y26659930D01*
G75*
G02*
X13402532Y26659930I44194J-44194D01*
G01*
X13950540Y26111922D01*
G75*
G02*
X13950540Y26023534I-44194J-44194D01*
G01*
G37*
G36*
G01*
X14233382Y26306377D02*
X14144994Y26217989D01*
G75*
G02*
X14056606Y26217989I-44194J44194D01*
G01*
X13508598Y26765997D01*
G75*
G02*
X13508598Y26854385I44194J44194D01*
G01*
X13596986Y26942773D01*
G75*
G02*
X13685374Y26942773I44194J-44194D01*
G01*
X14233382Y26394765D01*
G75*
G02*
X14233382Y26306377I-44194J-44194D01*
G01*
G37*
G36*
G01*
X14233382Y27685235D02*
X13685374Y27137227D01*
G75*
G02*
X13596986Y27137227I-44194J44194D01*
G01*
X13508598Y27225615D01*
G75*
G02*
X13508598Y27314003I44194J44194D01*
G01*
X14056606Y27862011D01*
G75*
G02*
X14144994Y27862011I44194J-44194D01*
G01*
X14233382Y27773623D01*
G75*
G02*
X14233382Y27685235I-44194J-44194D01*
G01*
G37*
G36*
G01*
X13950540Y27968078D02*
X13402532Y27420070D01*
G75*
G02*
X13314144Y27420070I-44194J44194D01*
G01*
X13225756Y27508458D01*
G75*
G02*
X13225756Y27596846I44194J44194D01*
G01*
X13773764Y28144854D01*
G75*
G02*
X13862152Y28144854I44194J-44194D01*
G01*
X13950540Y28056466D01*
G75*
G02*
X13950540Y27968078I-44194J-44194D01*
G01*
G37*
G36*
G01*
X13667697Y28250921D02*
X13119689Y27702913D01*
G75*
G02*
X13031301Y27702913I-44194J44194D01*
G01*
X12942913Y27791301D01*
G75*
G02*
X12942913Y27879689I44194J44194D01*
G01*
X13490921Y28427697D01*
G75*
G02*
X13579309Y28427697I44194J-44194D01*
G01*
X13667697Y28339309D01*
G75*
G02*
X13667697Y28250921I-44194J-44194D01*
G01*
G37*
G36*
G01*
X13384854Y28533764D02*
X12836846Y27985756D01*
G75*
G02*
X12748458Y27985756I-44194J44194D01*
G01*
X12660070Y28074144D01*
G75*
G02*
X12660070Y28162532I44194J44194D01*
G01*
X13208078Y28710540D01*
G75*
G02*
X13296466Y28710540I44194J-44194D01*
G01*
X13384854Y28622152D01*
G75*
G02*
X13384854Y28533764I-44194J-44194D01*
G01*
G37*
G36*
G01*
X13102011Y28816606D02*
X12554003Y28268598D01*
G75*
G02*
X12465615Y28268598I-44194J44194D01*
G01*
X12377227Y28356986D01*
G75*
G02*
X12377227Y28445374I44194J44194D01*
G01*
X12925235Y28993382D01*
G75*
G02*
X13013623Y28993382I44194J-44194D01*
G01*
X13102011Y28904994D01*
G75*
G02*
X13102011Y28816606I-44194J-44194D01*
G01*
G37*
G36*
G01*
X12182773Y28356986D02*
X12094385Y28268598D01*
G75*
G02*
X12005997Y28268598I-44194J44194D01*
G01*
X11457989Y28816606D01*
G75*
G02*
X11457989Y28904994I44194J44194D01*
G01*
X11546377Y28993382D01*
G75*
G02*
X11634765Y28993382I44194J-44194D01*
G01*
X12182773Y28445374D01*
G75*
G02*
X12182773Y28356986I-44194J-44194D01*
G01*
G37*
G36*
G01*
X11899930Y28074144D02*
X11811542Y27985756D01*
G75*
G02*
X11723154Y27985756I-44194J44194D01*
G01*
X11175146Y28533764D01*
G75*
G02*
X11175146Y28622152I44194J44194D01*
G01*
X11263534Y28710540D01*
G75*
G02*
X11351922Y28710540I44194J-44194D01*
G01*
X11899930Y28162532D01*
G75*
G02*
X11899930Y28074144I-44194J-44194D01*
G01*
G37*
G36*
G01*
X11617087Y27791301D02*
X11528699Y27702913D01*
G75*
G02*
X11440311Y27702913I-44194J44194D01*
G01*
X10892303Y28250921D01*
G75*
G02*
X10892303Y28339309I44194J44194D01*
G01*
X10980691Y28427697D01*
G75*
G02*
X11069079Y28427697I44194J-44194D01*
G01*
X11617087Y27879689D01*
G75*
G02*
X11617087Y27791301I-44194J-44194D01*
G01*
G37*
G36*
G01*
X11334244Y27508458D02*
X11245856Y27420070D01*
G75*
G02*
X11157468Y27420070I-44194J44194D01*
G01*
X10609460Y27968078D01*
G75*
G02*
X10609460Y28056466I44194J44194D01*
G01*
X10697848Y28144854D01*
G75*
G02*
X10786236Y28144854I44194J-44194D01*
G01*
X11334244Y27596846D01*
G75*
G02*
X11334244Y27508458I-44194J-44194D01*
G01*
G37*
G36*
G01*
X11051402Y27225615D02*
X10963014Y27137227D01*
G75*
G02*
X10874626Y27137227I-44194J44194D01*
G01*
X10326618Y27685235D01*
G75*
G02*
X10326618Y27773623I44194J44194D01*
G01*
X10415006Y27862011D01*
G75*
G02*
X10503394Y27862011I44194J-44194D01*
G01*
X11051402Y27314003D01*
G75*
G02*
X11051402Y27225615I-44194J-44194D01*
G01*
G37*
G36*
G01*
X11051402Y26765997D02*
X10503394Y26217989D01*
G75*
G02*
X10415006Y26217989I-44194J44194D01*
G01*
X10326618Y26306377D01*
G75*
G02*
X10326618Y26394765I44194J44194D01*
G01*
X10874626Y26942773D01*
G75*
G02*
X10963014Y26942773I44194J-44194D01*
G01*
X11051402Y26854385D01*
G75*
G02*
X11051402Y26765997I-44194J-44194D01*
G01*
G37*
G36*
G01*
X11334244Y26483154D02*
X10786236Y25935146D01*
G75*
G02*
X10697848Y25935146I-44194J44194D01*
G01*
X10609460Y26023534D01*
G75*
G02*
X10609460Y26111922I44194J44194D01*
G01*
X11157468Y26659930D01*
G75*
G02*
X11245856Y26659930I44194J-44194D01*
G01*
X11334244Y26571542D01*
G75*
G02*
X11334244Y26483154I-44194J-44194D01*
G01*
G37*
G36*
G01*
X11617087Y26200311D02*
X11069079Y25652303D01*
G75*
G02*
X10980691Y25652303I-44194J44194D01*
G01*
X10892303Y25740691D01*
G75*
G02*
X10892303Y25829079I44194J44194D01*
G01*
X11440311Y26377087D01*
G75*
G02*
X11528699Y26377087I44194J-44194D01*
G01*
X11617087Y26288699D01*
G75*
G02*
X11617087Y26200311I-44194J-44194D01*
G01*
G37*
G36*
G01*
X11899930Y25917468D02*
X11351922Y25369460D01*
G75*
G02*
X11263534Y25369460I-44194J44194D01*
G01*
X11175146Y25457848D01*
G75*
G02*
X11175146Y25546236I44194J44194D01*
G01*
X11723154Y26094244D01*
G75*
G02*
X11811542Y26094244I44194J-44194D01*
G01*
X11899930Y26005856D01*
G75*
G02*
X11899930Y25917468I-44194J-44194D01*
G01*
G37*
G36*
G01*
X12182773Y25634626D02*
X11634765Y25086618D01*
G75*
G02*
X11546377Y25086618I-44194J44194D01*
G01*
X11457989Y25175006D01*
G75*
G02*
X11457989Y25263394I44194J44194D01*
G01*
X12005997Y25811402D01*
G75*
G02*
X12094385Y25811402I44194J-44194D01*
G01*
X12182773Y25723014D01*
G75*
G02*
X12182773Y25634626I-44194J-44194D01*
G01*
G37*
G36*
G01*
X13464404Y27022322D02*
X12297678Y25855596D01*
G75*
G02*
X12262322Y25855596I-17678J17678D01*
G01*
X11095596Y27022322D01*
G75*
G02*
X11095596Y27057678I17678J17678D01*
G01*
X12262322Y28224404D01*
G75*
G02*
X12297678Y28224404I17678J-17678D01*
G01*
X13464404Y27057678D01*
G75*
G02*
X13464404Y27022322I-17678J-17678D01*
G01*
G37*
D15*
X6550000Y28700000D03*
X5410000Y28690000D03*
X4890000Y28700000D03*
X3750000Y28700000D03*
X6300000Y27860000D03*
X5660000Y27860000D03*
X5230000Y29110000D03*
X3560000Y29110000D03*
X5070000Y28280000D03*
X3560000Y28280000D03*
X4650000Y27870000D03*
X4010000Y27870000D03*
G36*
G01*
X11395000Y4647500D02*
X11395000Y4872500D01*
G75*
G02*
X11507500Y4985000I112500J0D01*
G01*
X11792500Y4985000D01*
G75*
G02*
X11905000Y4872500I0J-112500D01*
G01*
X11905000Y4647500D01*
G75*
G02*
X11792500Y4535000I-112500J0D01*
G01*
X11507500Y4535000D01*
G75*
G02*
X11395000Y4647500I0J112500D01*
G01*
G37*
G36*
G01*
X10755000Y4647500D02*
X10755000Y4872500D01*
G75*
G02*
X10867500Y4985000I112500J0D01*
G01*
X11152500Y4985000D01*
G75*
G02*
X11265000Y4872500I0J-112500D01*
G01*
X11265000Y4647500D01*
G75*
G02*
X11152500Y4535000I-112500J0D01*
G01*
X10867500Y4535000D01*
G75*
G02*
X10755000Y4647500I0J112500D01*
G01*
G37*
D16*
X16510000Y26670000D03*
X16510000Y29210000D03*
X16510000Y31750000D03*
X16510000Y34290000D03*
X16510000Y36830000D03*
X16510000Y39370000D03*
X1270000Y26670000D03*
X1270000Y29210000D03*
X1270000Y31750000D03*
X1270000Y34290000D03*
X1270000Y36830000D03*
X1270000Y39370000D03*
G36*
G01*
X4500556Y7919464D02*
X4650816Y8069724D01*
G75*
G02*
X4801076Y8069724I75130J-75130D01*
G01*
X5039724Y7831076D01*
G75*
G02*
X5039724Y7680816I-75130J-75130D01*
G01*
X4889464Y7530556D01*
G75*
G02*
X4739204Y7530556I-75130J75130D01*
G01*
X4500556Y7769204D01*
G75*
G02*
X4500556Y7919464I75130J75130D01*
G01*
G37*
G36*
G01*
X3740416Y7159324D02*
X3890676Y7309584D01*
G75*
G02*
X4040936Y7309584I75130J-75130D01*
G01*
X4279584Y7070936D01*
G75*
G02*
X4279584Y6920676I-75130J-75130D01*
G01*
X4129324Y6770416D01*
G75*
G02*
X3979064Y6770416I-75130J75130D01*
G01*
X3740416Y7009064D01*
G75*
G02*
X3740416Y7159324I75130J75130D01*
G01*
G37*
G36*
G01*
X2825596Y8860801D02*
X2949339Y8984544D01*
G75*
G02*
X3073083Y8984544I61872J-61872D01*
G01*
X3444314Y8613313D01*
G75*
G02*
X3444314Y8489569I-61872J-61872D01*
G01*
X3320571Y8365826D01*
G75*
G02*
X3196827Y8365826I-61872J61872D01*
G01*
X2825596Y8737057D01*
G75*
G02*
X2825596Y8860801I61872J61872D01*
G01*
G37*
G36*
G01*
X4133744Y7552653D02*
X4257487Y7676396D01*
G75*
G02*
X4381231Y7676396I61872J-61872D01*
G01*
X4752462Y7305165D01*
G75*
G02*
X4752462Y7181421I-61872J-61872D01*
G01*
X4628719Y7057678D01*
G75*
G02*
X4504975Y7057678I-61872J61872D01*
G01*
X4133744Y7428909D01*
G75*
G02*
X4133744Y7552653I61872J61872D01*
G01*
G37*
G36*
G01*
X2538334Y8361406D02*
X2688594Y8511666D01*
G75*
G02*
X2838854Y8511666I75130J-75130D01*
G01*
X3077502Y8273018D01*
G75*
G02*
X3077502Y8122758I-75130J-75130D01*
G01*
X2927242Y7972498D01*
G75*
G02*
X2776982Y7972498I-75130J75130D01*
G01*
X2538334Y8211146D01*
G75*
G02*
X2538334Y8361406I75130J75130D01*
G01*
G37*
G36*
G01*
X3298474Y9121546D02*
X3448734Y9271806D01*
G75*
G02*
X3598994Y9271806I75130J-75130D01*
G01*
X3837642Y9033158D01*
G75*
G02*
X3837642Y8882898I-75130J-75130D01*
G01*
X3687382Y8732638D01*
G75*
G02*
X3537122Y8732638I-75130J75130D01*
G01*
X3298474Y8971286D01*
G75*
G02*
X3298474Y9121546I75130J75130D01*
G01*
G37*
G36*
G01*
X4567500Y31825000D02*
X4092500Y31825000D01*
G75*
G02*
X3955000Y31962500I0J137500D01*
G01*
X3955000Y32237500D01*
G75*
G02*
X4092500Y32375000I137500J0D01*
G01*
X4567500Y32375000D01*
G75*
G02*
X4705000Y32237500I0J-137500D01*
G01*
X4705000Y31962500D01*
G75*
G02*
X4567500Y31825000I-137500J0D01*
G01*
G37*
G36*
G01*
X4567500Y32625000D02*
X4092500Y32625000D01*
G75*
G02*
X3955000Y32762500I0J137500D01*
G01*
X3955000Y33037500D01*
G75*
G02*
X4092500Y33175000I137500J0D01*
G01*
X4567500Y33175000D01*
G75*
G02*
X4705000Y33037500I0J-137500D01*
G01*
X4705000Y32762500D01*
G75*
G02*
X4567500Y32625000I-137500J0D01*
G01*
G37*
G36*
G01*
X6207500Y31825000D02*
X5732500Y31825000D01*
G75*
G02*
X5595000Y31962500I0J137500D01*
G01*
X5595000Y32237500D01*
G75*
G02*
X5732500Y32375000I137500J0D01*
G01*
X6207500Y32375000D01*
G75*
G02*
X6345000Y32237500I0J-137500D01*
G01*
X6345000Y31962500D01*
G75*
G02*
X6207500Y31825000I-137500J0D01*
G01*
G37*
G36*
G01*
X6207500Y32625000D02*
X5732500Y32625000D01*
G75*
G02*
X5595000Y32762500I0J137500D01*
G01*
X5595000Y33037500D01*
G75*
G02*
X5732500Y33175000I137500J0D01*
G01*
X6207500Y33175000D01*
G75*
G02*
X6345000Y33037500I0J-137500D01*
G01*
X6345000Y32762500D01*
G75*
G02*
X6207500Y32625000I-137500J0D01*
G01*
G37*
G36*
G01*
X8349250Y30034000D02*
X7873750Y30034000D01*
G75*
G02*
X7805000Y30102750I0J68750D01*
G01*
X7805000Y30240250D01*
G75*
G02*
X7873750Y30309000I68750J0D01*
G01*
X8349250Y30309000D01*
G75*
G02*
X8418000Y30240250I0J-68750D01*
G01*
X8418000Y30102750D01*
G75*
G02*
X8349250Y30034000I-68750J0D01*
G01*
G37*
G36*
G01*
X8349250Y30434000D02*
X7873750Y30434000D01*
G75*
G02*
X7805000Y30502750I0J68750D01*
G01*
X7805000Y30640250D01*
G75*
G02*
X7873750Y30709000I68750J0D01*
G01*
X8349250Y30709000D01*
G75*
G02*
X8418000Y30640250I0J-68750D01*
G01*
X8418000Y30502750D01*
G75*
G02*
X8349250Y30434000I-68750J0D01*
G01*
G37*
G36*
G01*
X8349250Y30834000D02*
X7873750Y30834000D01*
G75*
G02*
X7805000Y30902750I0J68750D01*
G01*
X7805000Y31040250D01*
G75*
G02*
X7873750Y31109000I68750J0D01*
G01*
X8349250Y31109000D01*
G75*
G02*
X8418000Y31040250I0J-68750D01*
G01*
X8418000Y30902750D01*
G75*
G02*
X8349250Y30834000I-68750J0D01*
G01*
G37*
G36*
G01*
X8817500Y31377750D02*
X8817500Y30902250D01*
G75*
G02*
X8748750Y30833500I-68750J0D01*
G01*
X8611250Y30833500D01*
G75*
G02*
X8542500Y30902250I0J68750D01*
G01*
X8542500Y31377750D01*
G75*
G02*
X8611250Y31446500I68750J0D01*
G01*
X8748750Y31446500D01*
G75*
G02*
X8817500Y31377750I0J-68750D01*
G01*
G37*
G36*
G01*
X9217500Y31377750D02*
X9217500Y30902250D01*
G75*
G02*
X9148750Y30833500I-68750J0D01*
G01*
X9011250Y30833500D01*
G75*
G02*
X8942500Y30902250I0J68750D01*
G01*
X8942500Y31377750D01*
G75*
G02*
X9011250Y31446500I68750J0D01*
G01*
X9148750Y31446500D01*
G75*
G02*
X9217500Y31377750I0J-68750D01*
G01*
G37*
G36*
G01*
X9886250Y30834000D02*
X9410750Y30834000D01*
G75*
G02*
X9342000Y30902750I0J68750D01*
G01*
X9342000Y31040250D01*
G75*
G02*
X9410750Y31109000I68750J0D01*
G01*
X9886250Y31109000D01*
G75*
G02*
X9955000Y31040250I0J-68750D01*
G01*
X9955000Y30902750D01*
G75*
G02*
X9886250Y30834000I-68750J0D01*
G01*
G37*
G36*
G01*
X9886250Y30434000D02*
X9410750Y30434000D01*
G75*
G02*
X9342000Y30502750I0J68750D01*
G01*
X9342000Y30640250D01*
G75*
G02*
X9410750Y30709000I68750J0D01*
G01*
X9886250Y30709000D01*
G75*
G02*
X9955000Y30640250I0J-68750D01*
G01*
X9955000Y30502750D01*
G75*
G02*
X9886250Y30434000I-68750J0D01*
G01*
G37*
G36*
G01*
X9886250Y30034000D02*
X9410750Y30034000D01*
G75*
G02*
X9342000Y30102750I0J68750D01*
G01*
X9342000Y30240250D01*
G75*
G02*
X9410750Y30309000I68750J0D01*
G01*
X9886250Y30309000D01*
G75*
G02*
X9955000Y30240250I0J-68750D01*
G01*
X9955000Y30102750D01*
G75*
G02*
X9886250Y30034000I-68750J0D01*
G01*
G37*
G36*
G01*
X9217500Y30240750D02*
X9217500Y29765250D01*
G75*
G02*
X9148750Y29696500I-68750J0D01*
G01*
X9011250Y29696500D01*
G75*
G02*
X8942500Y29765250I0J68750D01*
G01*
X8942500Y30240750D01*
G75*
G02*
X9011250Y30309500I68750J0D01*
G01*
X9148750Y30309500D01*
G75*
G02*
X9217500Y30240750I0J-68750D01*
G01*
G37*
G36*
G01*
X8817500Y30340750D02*
X8817500Y29765250D01*
G75*
G02*
X8748750Y29696500I-68750J0D01*
G01*
X8611250Y29696500D01*
G75*
G02*
X8542500Y29765250I0J68750D01*
G01*
X8542500Y30340750D01*
G75*
G02*
X8611250Y30409500I68750J0D01*
G01*
X8748750Y30409500D01*
G75*
G02*
X8817500Y30340750I0J-68750D01*
G01*
G37*
G36*
G01*
X10440000Y33155000D02*
X10440000Y32725000D01*
G75*
G02*
X10380000Y32665000I-60000J0D01*
G01*
X10200000Y32665000D01*
G75*
G02*
X10140000Y32725000I0J60000D01*
G01*
X10140000Y33155000D01*
G75*
G02*
X10200000Y33215000I60000J0D01*
G01*
X10380000Y33215000D01*
G75*
G02*
X10440000Y33155000I0J-60000D01*
G01*
G37*
G36*
G01*
X8040000Y33155000D02*
X8040000Y32825000D01*
G75*
G02*
X7980000Y32765000I-60000J0D01*
G01*
X7800000Y32765000D01*
G75*
G02*
X7740000Y32825000I0J60000D01*
G01*
X7740000Y33155000D01*
G75*
G02*
X7800000Y33215000I60000J0D01*
G01*
X7980000Y33215000D01*
G75*
G02*
X8040000Y33155000I0J-60000D01*
G01*
G37*
G36*
G01*
X10040000Y33155000D02*
X10040000Y32825000D01*
G75*
G02*
X9980000Y32765000I-60000J0D01*
G01*
X9800000Y32765000D01*
G75*
G02*
X9740000Y32825000I0J60000D01*
G01*
X9740000Y33155000D01*
G75*
G02*
X9800000Y33215000I60000J0D01*
G01*
X9980000Y33215000D01*
G75*
G02*
X10040000Y33155000I0J-60000D01*
G01*
G37*
G36*
G01*
X8440000Y33155000D02*
X8440000Y32825000D01*
G75*
G02*
X8380000Y32765000I-60000J0D01*
G01*
X8200000Y32765000D01*
G75*
G02*
X8140000Y32825000I0J60000D01*
G01*
X8140000Y33155000D01*
G75*
G02*
X8200000Y33215000I60000J0D01*
G01*
X8380000Y33215000D01*
G75*
G02*
X8440000Y33155000I0J-60000D01*
G01*
G37*
G36*
G01*
X9640000Y33155000D02*
X9640000Y32825000D01*
G75*
G02*
X9580000Y32765000I-60000J0D01*
G01*
X9400000Y32765000D01*
G75*
G02*
X9340000Y32825000I0J60000D01*
G01*
X9340000Y33155000D01*
G75*
G02*
X9400000Y33215000I60000J0D01*
G01*
X9580000Y33215000D01*
G75*
G02*
X9640000Y33155000I0J-60000D01*
G01*
G37*
G36*
G01*
X8840000Y33155000D02*
X8840000Y32825000D01*
G75*
G02*
X8780000Y32765000I-60000J0D01*
G01*
X8600000Y32765000D01*
G75*
G02*
X8540000Y32825000I0J60000D01*
G01*
X8540000Y33155000D01*
G75*
G02*
X8600000Y33215000I60000J0D01*
G01*
X8780000Y33215000D01*
G75*
G02*
X8840000Y33155000I0J-60000D01*
G01*
G37*
G36*
G01*
X9240000Y33155000D02*
X9240000Y32825000D01*
G75*
G02*
X9180000Y32765000I-60000J0D01*
G01*
X9000000Y32765000D01*
G75*
G02*
X8940000Y32825000I0J60000D01*
G01*
X8940000Y33155000D01*
G75*
G02*
X9000000Y33215000I60000J0D01*
G01*
X9180000Y33215000D01*
G75*
G02*
X9240000Y33155000I0J-60000D01*
G01*
G37*
G36*
G01*
X7640000Y33155000D02*
X7640000Y32825000D01*
G75*
G02*
X7580000Y32765000I-60000J0D01*
G01*
X7400000Y32765000D01*
G75*
G02*
X7340000Y32825000I0J60000D01*
G01*
X7340000Y33155000D01*
G75*
G02*
X7400000Y33215000I60000J0D01*
G01*
X7580000Y33215000D01*
G75*
G02*
X7640000Y33155000I0J-60000D01*
G01*
G37*
G36*
G01*
X9745000Y32555000D02*
X9745000Y32075000D01*
G75*
G02*
X9635000Y31965000I-110000J0D01*
G01*
X9305000Y31965000D01*
G75*
G02*
X9195000Y32075000I0J110000D01*
G01*
X9195000Y32555000D01*
G75*
G02*
X9305000Y32665000I110000J0D01*
G01*
X9635000Y32665000D01*
G75*
G02*
X9745000Y32555000I0J-110000D01*
G01*
G37*
G36*
G01*
X8585000Y32555000D02*
X8585000Y32075000D01*
G75*
G02*
X8475000Y31965000I-110000J0D01*
G01*
X8145000Y31965000D01*
G75*
G02*
X8035000Y32075000I0J110000D01*
G01*
X8035000Y32555000D01*
G75*
G02*
X8145000Y32665000I110000J0D01*
G01*
X8475000Y32665000D01*
G75*
G02*
X8585000Y32555000I0J-110000D01*
G01*
G37*
X16510000Y1270000D03*
X16510000Y3810000D03*
X16510000Y6350000D03*
X16510000Y8890000D03*
X16510000Y11430000D03*
X16510000Y13970000D03*
X16510000Y16510000D03*
X16510000Y19050000D03*
X16510000Y21590000D03*
X16510000Y24130000D03*
G36*
G01*
X8897500Y28805000D02*
X9122500Y28805000D01*
G75*
G02*
X9235000Y28692500I0J-112500D01*
G01*
X9235000Y28407500D01*
G75*
G02*
X9122500Y28295000I-112500J0D01*
G01*
X8897500Y28295000D01*
G75*
G02*
X8785000Y28407500I0J112500D01*
G01*
X8785000Y28692500D01*
G75*
G02*
X8897500Y28805000I112500J0D01*
G01*
G37*
G36*
G01*
X8897500Y29445000D02*
X9122500Y29445000D01*
G75*
G02*
X9235000Y29332500I0J-112500D01*
G01*
X9235000Y29047500D01*
G75*
G02*
X9122500Y28935000I-112500J0D01*
G01*
X8897500Y28935000D01*
G75*
G02*
X8785000Y29047500I0J112500D01*
G01*
X8785000Y29332500D01*
G75*
G02*
X8897500Y29445000I112500J0D01*
G01*
G37*
G36*
G01*
X10733588Y5835511D02*
X10574489Y5676412D01*
G75*
G02*
X10415389Y5676412I-79550J79550D01*
G01*
X10213864Y5877937D01*
G75*
G02*
X10213864Y6037037I79550J79550D01*
G01*
X10372963Y6196136D01*
G75*
G02*
X10532063Y6196136I79550J-79550D01*
G01*
X10733588Y5994611D01*
G75*
G02*
X10733588Y5835511I-79550J-79550D01*
G01*
G37*
G36*
G01*
X11186136Y5382963D02*
X11027037Y5223864D01*
G75*
G02*
X10867937Y5223864I-79550J79550D01*
G01*
X10666412Y5425389D01*
G75*
G02*
X10666412Y5584489I79550J79550D01*
G01*
X10825511Y5743588D01*
G75*
G02*
X10984611Y5743588I79550J-79550D01*
G01*
X11186136Y5542063D01*
G75*
G02*
X11186136Y5382963I-79550J-79550D01*
G01*
G37*
G36*
G01*
X6994264Y14973934D02*
X6676066Y14655736D01*
G75*
G02*
X6463934Y14655736I-106066J106066D01*
G01*
X6145736Y14973934D01*
G75*
G02*
X6145736Y15186066I106066J106066D01*
G01*
X6463934Y15504264D01*
G75*
G02*
X6676066Y15504264I106066J-106066D01*
G01*
X6994264Y15186066D01*
G75*
G02*
X6994264Y14973934I-106066J-106066D01*
G01*
G37*
G36*
G01*
X6216447Y14196117D02*
X5898249Y13877919D01*
G75*
G02*
X5686117Y13877919I-106066J106066D01*
G01*
X5367919Y14196117D01*
G75*
G02*
X5367919Y14408249I106066J106066D01*
G01*
X5686117Y14726447D01*
G75*
G02*
X5898249Y14726447I106066J-106066D01*
G01*
X6216447Y14408249D01*
G75*
G02*
X6216447Y14196117I-106066J-106066D01*
G01*
G37*
G36*
G01*
X6216447Y15751751D02*
X5898249Y15433553D01*
G75*
G02*
X5686117Y15433553I-106066J106066D01*
G01*
X5367919Y15751751D01*
G75*
G02*
X5367919Y15963883I106066J106066D01*
G01*
X5686117Y16282081D01*
G75*
G02*
X5898249Y16282081I106066J-106066D01*
G01*
X6216447Y15963883D01*
G75*
G02*
X6216447Y15751751I-106066J-106066D01*
G01*
G37*
G36*
G01*
X5438630Y14973934D02*
X5120432Y14655736D01*
G75*
G02*
X4908300Y14655736I-106066J106066D01*
G01*
X4590102Y14973934D01*
G75*
G02*
X4590102Y15186066I106066J106066D01*
G01*
X4908300Y15504264D01*
G75*
G02*
X5120432Y15504264I106066J-106066D01*
G01*
X5438630Y15186066D01*
G75*
G02*
X5438630Y14973934I-106066J-106066D01*
G01*
G37*
G36*
G01*
X3976117Y12177919D02*
X3657919Y12496117D01*
G75*
G02*
X3657919Y12708249I106066J106066D01*
G01*
X3976117Y13026447D01*
G75*
G02*
X4188249Y13026447I106066J-106066D01*
G01*
X4506447Y12708249D01*
G75*
G02*
X4506447Y12496117I-106066J-106066D01*
G01*
X4188249Y12177919D01*
G75*
G02*
X3976117Y12177919I-106066J106066D01*
G01*
G37*
G36*
G01*
X3198300Y12955736D02*
X2880102Y13273934D01*
G75*
G02*
X2880102Y13486066I106066J106066D01*
G01*
X3198300Y13804264D01*
G75*
G02*
X3410432Y13804264I106066J-106066D01*
G01*
X3728630Y13486066D01*
G75*
G02*
X3728630Y13273934I-106066J-106066D01*
G01*
X3410432Y12955736D01*
G75*
G02*
X3198300Y12955736I-106066J106066D01*
G01*
G37*
G36*
G01*
X4753934Y12955736D02*
X4435736Y13273934D01*
G75*
G02*
X4435736Y13486066I106066J106066D01*
G01*
X4753934Y13804264D01*
G75*
G02*
X4966066Y13804264I106066J-106066D01*
G01*
X5284264Y13486066D01*
G75*
G02*
X5284264Y13273934I-106066J-106066D01*
G01*
X4966066Y12955736D01*
G75*
G02*
X4753934Y12955736I-106066J106066D01*
G01*
G37*
G36*
G01*
X3976117Y13733553D02*
X3657919Y14051751D01*
G75*
G02*
X3657919Y14263883I106066J106066D01*
G01*
X3976117Y14582081D01*
G75*
G02*
X4188249Y14582081I106066J-106066D01*
G01*
X4506447Y14263883D01*
G75*
G02*
X4506447Y14051751I-106066J-106066D01*
G01*
X4188249Y13733553D01*
G75*
G02*
X3976117Y13733553I-106066J106066D01*
G01*
G37*
G36*
G01*
X2980468Y16011387D02*
X2853189Y16138666D01*
G75*
G02*
X2853189Y16223518I42426J42426D01*
G01*
X3086534Y16456863D01*
G75*
G02*
X3171386Y16456863I42426J-42426D01*
G01*
X3298665Y16329584D01*
G75*
G02*
X3298665Y16244732I-42426J-42426D01*
G01*
X3065320Y16011387D01*
G75*
G02*
X2980468Y16011387I-42426J42426D01*
G01*
G37*
G36*
G01*
X3298666Y15693189D02*
X3171387Y15820468D01*
G75*
G02*
X3171387Y15905320I42426J42426D01*
G01*
X3404732Y16138665D01*
G75*
G02*
X3489584Y16138665I42426J-42426D01*
G01*
X3616863Y16011386D01*
G75*
G02*
X3616863Y15926534I-42426J-42426D01*
G01*
X3383518Y15693189D01*
G75*
G02*
X3298666Y15693189I-42426J42426D01*
G01*
G37*
G36*
G01*
X3796291Y16185510D02*
X3345510Y16636291D01*
G75*
G02*
X3345510Y16715841I39775J39775D01*
G01*
X3584159Y16954490D01*
G75*
G02*
X3663709Y16954490I39775J-39775D01*
G01*
X4114490Y16503709D01*
G75*
G02*
X4114490Y16424159I-39775J-39775D01*
G01*
X3875841Y16185510D01*
G75*
G02*
X3796291Y16185510I-39775J39775D01*
G01*
G37*
G36*
G01*
X12655344Y10672323D02*
X8907677Y6924656D01*
G75*
G02*
X8872323Y6924656I-17677J17677D01*
G01*
X5124656Y10672323D01*
G75*
G02*
X5124656Y10707677I17677J17677D01*
G01*
X8872323Y14455344D01*
G75*
G02*
X8907677Y14455344I17677J-17677D01*
G01*
X12655344Y10707677D01*
G75*
G02*
X12655344Y10672323I-17677J-17677D01*
G01*
G37*
G36*
G01*
X8748578Y6447359D02*
X8253604Y5952385D01*
G75*
G02*
X8147538Y5952385I-53033J53033D01*
G01*
X8041472Y6058451D01*
G75*
G02*
X8041472Y6164517I53033J53033D01*
G01*
X8536446Y6659491D01*
G75*
G02*
X8642512Y6659491I53033J-53033D01*
G01*
X8748578Y6553425D01*
G75*
G02*
X8748578Y6447359I-53033J-53033D01*
G01*
G37*
G36*
G01*
X8395025Y6800912D02*
X7900051Y6305938D01*
G75*
G02*
X7793985Y6305938I-53033J53033D01*
G01*
X7687919Y6412004D01*
G75*
G02*
X7687919Y6518070I53033J53033D01*
G01*
X8182893Y7013044D01*
G75*
G02*
X8288959Y7013044I53033J-53033D01*
G01*
X8395025Y6906978D01*
G75*
G02*
X8395025Y6800912I-53033J-53033D01*
G01*
G37*
G36*
G01*
X8041471Y7154466D02*
X7546497Y6659492D01*
G75*
G02*
X7440431Y6659492I-53033J53033D01*
G01*
X7334365Y6765558D01*
G75*
G02*
X7334365Y6871624I53033J53033D01*
G01*
X7829339Y7366598D01*
G75*
G02*
X7935405Y7366598I53033J-53033D01*
G01*
X8041471Y7260532D01*
G75*
G02*
X8041471Y7154466I-53033J-53033D01*
G01*
G37*
G36*
G01*
X7687918Y7508019D02*
X7192944Y7013045D01*
G75*
G02*
X7086878Y7013045I-53033J53033D01*
G01*
X6980812Y7119111D01*
G75*
G02*
X6980812Y7225177I53033J53033D01*
G01*
X7475786Y7720151D01*
G75*
G02*
X7581852Y7720151I53033J-53033D01*
G01*
X7687918Y7614085D01*
G75*
G02*
X7687918Y7508019I-53033J-53033D01*
G01*
G37*
G36*
G01*
X7334365Y7861573D02*
X6839391Y7366599D01*
G75*
G02*
X6733325Y7366599I-53033J53033D01*
G01*
X6627259Y7472665D01*
G75*
G02*
X6627259Y7578731I53033J53033D01*
G01*
X7122233Y8073705D01*
G75*
G02*
X7228299Y8073705I53033J-53033D01*
G01*
X7334365Y7967639D01*
G75*
G02*
X7334365Y7861573I-53033J-53033D01*
G01*
G37*
G36*
G01*
X6980811Y8215126D02*
X6485837Y7720152D01*
G75*
G02*
X6379771Y7720152I-53033J53033D01*
G01*
X6273705Y7826218D01*
G75*
G02*
X6273705Y7932284I53033J53033D01*
G01*
X6768679Y8427258D01*
G75*
G02*
X6874745Y8427258I53033J-53033D01*
G01*
X6980811Y8321192D01*
G75*
G02*
X6980811Y8215126I-53033J-53033D01*
G01*
G37*
G36*
G01*
X6627258Y8568679D02*
X6132284Y8073705D01*
G75*
G02*
X6026218Y8073705I-53033J53033D01*
G01*
X5920152Y8179771D01*
G75*
G02*
X5920152Y8285837I53033J53033D01*
G01*
X6415126Y8780811D01*
G75*
G02*
X6521192Y8780811I53033J-53033D01*
G01*
X6627258Y8674745D01*
G75*
G02*
X6627258Y8568679I-53033J-53033D01*
G01*
G37*
G36*
G01*
X6273705Y8922233D02*
X5778731Y8427259D01*
G75*
G02*
X5672665Y8427259I-53033J53033D01*
G01*
X5566599Y8533325D01*
G75*
G02*
X5566599Y8639391I53033J53033D01*
G01*
X6061573Y9134365D01*
G75*
G02*
X6167639Y9134365I53033J-53033D01*
G01*
X6273705Y9028299D01*
G75*
G02*
X6273705Y8922233I-53033J-53033D01*
G01*
G37*
G36*
G01*
X5920151Y9275786D02*
X5425177Y8780812D01*
G75*
G02*
X5319111Y8780812I-53033J53033D01*
G01*
X5213045Y8886878D01*
G75*
G02*
X5213045Y8992944I53033J53033D01*
G01*
X5708019Y9487918D01*
G75*
G02*
X5814085Y9487918I53033J-53033D01*
G01*
X5920151Y9381852D01*
G75*
G02*
X5920151Y9275786I-53033J-53033D01*
G01*
G37*
G36*
G01*
X5566598Y9629339D02*
X5071624Y9134365D01*
G75*
G02*
X4965558Y9134365I-53033J53033D01*
G01*
X4859492Y9240431D01*
G75*
G02*
X4859492Y9346497I53033J53033D01*
G01*
X5354466Y9841471D01*
G75*
G02*
X5460532Y9841471I53033J-53033D01*
G01*
X5566598Y9735405D01*
G75*
G02*
X5566598Y9629339I-53033J-53033D01*
G01*
G37*
G36*
G01*
X5213044Y9982893D02*
X4718070Y9487919D01*
G75*
G02*
X4612004Y9487919I-53033J53033D01*
G01*
X4505938Y9593985D01*
G75*
G02*
X4505938Y9700051I53033J53033D01*
G01*
X5000912Y10195025D01*
G75*
G02*
X5106978Y10195025I53033J-53033D01*
G01*
X5213044Y10088959D01*
G75*
G02*
X5213044Y9982893I-53033J-53033D01*
G01*
G37*
G36*
G01*
X4859491Y10336446D02*
X4364517Y9841472D01*
G75*
G02*
X4258451Y9841472I-53033J53033D01*
G01*
X4152385Y9947538D01*
G75*
G02*
X4152385Y10053604I53033J53033D01*
G01*
X4647359Y10548578D01*
G75*
G02*
X4753425Y10548578I53033J-53033D01*
G01*
X4859491Y10442512D01*
G75*
G02*
X4859491Y10336446I-53033J-53033D01*
G01*
G37*
G36*
G01*
X4859491Y10937488D02*
X4753425Y10831422D01*
G75*
G02*
X4647359Y10831422I-53033J53033D01*
G01*
X4152385Y11326396D01*
G75*
G02*
X4152385Y11432462I53033J53033D01*
G01*
X4258451Y11538528D01*
G75*
G02*
X4364517Y11538528I53033J-53033D01*
G01*
X4859491Y11043554D01*
G75*
G02*
X4859491Y10937488I-53033J-53033D01*
G01*
G37*
G36*
G01*
X5213044Y11291041D02*
X5106978Y11184975D01*
G75*
G02*
X5000912Y11184975I-53033J53033D01*
G01*
X4505938Y11679949D01*
G75*
G02*
X4505938Y11786015I53033J53033D01*
G01*
X4612004Y11892081D01*
G75*
G02*
X4718070Y11892081I53033J-53033D01*
G01*
X5213044Y11397107D01*
G75*
G02*
X5213044Y11291041I-53033J-53033D01*
G01*
G37*
G36*
G01*
X5566598Y11644595D02*
X5460532Y11538529D01*
G75*
G02*
X5354466Y11538529I-53033J53033D01*
G01*
X4859492Y12033503D01*
G75*
G02*
X4859492Y12139569I53033J53033D01*
G01*
X4965558Y12245635D01*
G75*
G02*
X5071624Y12245635I53033J-53033D01*
G01*
X5566598Y11750661D01*
G75*
G02*
X5566598Y11644595I-53033J-53033D01*
G01*
G37*
G36*
G01*
X5920151Y11998148D02*
X5814085Y11892082D01*
G75*
G02*
X5708019Y11892082I-53033J53033D01*
G01*
X5213045Y12387056D01*
G75*
G02*
X5213045Y12493122I53033J53033D01*
G01*
X5319111Y12599188D01*
G75*
G02*
X5425177Y12599188I53033J-53033D01*
G01*
X5920151Y12104214D01*
G75*
G02*
X5920151Y11998148I-53033J-53033D01*
G01*
G37*
G36*
G01*
X6273705Y12351701D02*
X6167639Y12245635D01*
G75*
G02*
X6061573Y12245635I-53033J53033D01*
G01*
X5566599Y12740609D01*
G75*
G02*
X5566599Y12846675I53033J53033D01*
G01*
X5672665Y12952741D01*
G75*
G02*
X5778731Y12952741I53033J-53033D01*
G01*
X6273705Y12457767D01*
G75*
G02*
X6273705Y12351701I-53033J-53033D01*
G01*
G37*
G36*
G01*
X6627258Y12705255D02*
X6521192Y12599189D01*
G75*
G02*
X6415126Y12599189I-53033J53033D01*
G01*
X5920152Y13094163D01*
G75*
G02*
X5920152Y13200229I53033J53033D01*
G01*
X6026218Y13306295D01*
G75*
G02*
X6132284Y13306295I53033J-53033D01*
G01*
X6627258Y12811321D01*
G75*
G02*
X6627258Y12705255I-53033J-53033D01*
G01*
G37*
G36*
G01*
X6980811Y13058808D02*
X6874745Y12952742D01*
G75*
G02*
X6768679Y12952742I-53033J53033D01*
G01*
X6273705Y13447716D01*
G75*
G02*
X6273705Y13553782I53033J53033D01*
G01*
X6379771Y13659848D01*
G75*
G02*
X6485837Y13659848I53033J-53033D01*
G01*
X6980811Y13164874D01*
G75*
G02*
X6980811Y13058808I-53033J-53033D01*
G01*
G37*
G36*
G01*
X7334365Y13412361D02*
X7228299Y13306295D01*
G75*
G02*
X7122233Y13306295I-53033J53033D01*
G01*
X6627259Y13801269D01*
G75*
G02*
X6627259Y13907335I53033J53033D01*
G01*
X6733325Y14013401D01*
G75*
G02*
X6839391Y14013401I53033J-53033D01*
G01*
X7334365Y13518427D01*
G75*
G02*
X7334365Y13412361I-53033J-53033D01*
G01*
G37*
G36*
G01*
X7687918Y13765915D02*
X7581852Y13659849D01*
G75*
G02*
X7475786Y13659849I-53033J53033D01*
G01*
X6980812Y14154823D01*
G75*
G02*
X6980812Y14260889I53033J53033D01*
G01*
X7086878Y14366955D01*
G75*
G02*
X7192944Y14366955I53033J-53033D01*
G01*
X7687918Y13871981D01*
G75*
G02*
X7687918Y13765915I-53033J-53033D01*
G01*
G37*
G36*
G01*
X8041471Y14119468D02*
X7935405Y14013402D01*
G75*
G02*
X7829339Y14013402I-53033J53033D01*
G01*
X7334365Y14508376D01*
G75*
G02*
X7334365Y14614442I53033J53033D01*
G01*
X7440431Y14720508D01*
G75*
G02*
X7546497Y14720508I53033J-53033D01*
G01*
X8041471Y14225534D01*
G75*
G02*
X8041471Y14119468I-53033J-53033D01*
G01*
G37*
G36*
G01*
X8395025Y14473022D02*
X8288959Y14366956D01*
G75*
G02*
X8182893Y14366956I-53033J53033D01*
G01*
X7687919Y14861930D01*
G75*
G02*
X7687919Y14967996I53033J53033D01*
G01*
X7793985Y15074062D01*
G75*
G02*
X7900051Y15074062I53033J-53033D01*
G01*
X8395025Y14579088D01*
G75*
G02*
X8395025Y14473022I-53033J-53033D01*
G01*
G37*
G36*
G01*
X8748578Y14826575D02*
X8642512Y14720509D01*
G75*
G02*
X8536446Y14720509I-53033J53033D01*
G01*
X8041472Y15215483D01*
G75*
G02*
X8041472Y15321549I53033J53033D01*
G01*
X8147538Y15427615D01*
G75*
G02*
X8253604Y15427615I53033J-53033D01*
G01*
X8748578Y14932641D01*
G75*
G02*
X8748578Y14826575I-53033J-53033D01*
G01*
G37*
G36*
G01*
X9738528Y15215483D02*
X9243554Y14720509D01*
G75*
G02*
X9137488Y14720509I-53033J53033D01*
G01*
X9031422Y14826575D01*
G75*
G02*
X9031422Y14932641I53033J53033D01*
G01*
X9526396Y15427615D01*
G75*
G02*
X9632462Y15427615I53033J-53033D01*
G01*
X9738528Y15321549D01*
G75*
G02*
X9738528Y15215483I-53033J-53033D01*
G01*
G37*
G36*
G01*
X10092081Y14861930D02*
X9597107Y14366956D01*
G75*
G02*
X9491041Y14366956I-53033J53033D01*
G01*
X9384975Y14473022D01*
G75*
G02*
X9384975Y14579088I53033J53033D01*
G01*
X9879949Y15074062D01*
G75*
G02*
X9986015Y15074062I53033J-53033D01*
G01*
X10092081Y14967996D01*
G75*
G02*
X10092081Y14861930I-53033J-53033D01*
G01*
G37*
G36*
G01*
X10445635Y14508376D02*
X9950661Y14013402D01*
G75*
G02*
X9844595Y14013402I-53033J53033D01*
G01*
X9738529Y14119468D01*
G75*
G02*
X9738529Y14225534I53033J53033D01*
G01*
X10233503Y14720508D01*
G75*
G02*
X10339569Y14720508I53033J-53033D01*
G01*
X10445635Y14614442D01*
G75*
G02*
X10445635Y14508376I-53033J-53033D01*
G01*
G37*
G36*
G01*
X10799188Y14154823D02*
X10304214Y13659849D01*
G75*
G02*
X10198148Y13659849I-53033J53033D01*
G01*
X10092082Y13765915D01*
G75*
G02*
X10092082Y13871981I53033J53033D01*
G01*
X10587056Y14366955D01*
G75*
G02*
X10693122Y14366955I53033J-53033D01*
G01*
X10799188Y14260889D01*
G75*
G02*
X10799188Y14154823I-53033J-53033D01*
G01*
G37*
G36*
G01*
X11152741Y13801269D02*
X10657767Y13306295D01*
G75*
G02*
X10551701Y13306295I-53033J53033D01*
G01*
X10445635Y13412361D01*
G75*
G02*
X10445635Y13518427I53033J53033D01*
G01*
X10940609Y14013401D01*
G75*
G02*
X11046675Y14013401I53033J-53033D01*
G01*
X11152741Y13907335D01*
G75*
G02*
X11152741Y13801269I-53033J-53033D01*
G01*
G37*
G36*
G01*
X11506295Y13447716D02*
X11011321Y12952742D01*
G75*
G02*
X10905255Y12952742I-53033J53033D01*
G01*
X10799189Y13058808D01*
G75*
G02*
X10799189Y13164874I53033J53033D01*
G01*
X11294163Y13659848D01*
G75*
G02*
X11400229Y13659848I53033J-53033D01*
G01*
X11506295Y13553782D01*
G75*
G02*
X11506295Y13447716I-53033J-53033D01*
G01*
G37*
G36*
G01*
X11859848Y13094163D02*
X11364874Y12599189D01*
G75*
G02*
X11258808Y12599189I-53033J53033D01*
G01*
X11152742Y12705255D01*
G75*
G02*
X11152742Y12811321I53033J53033D01*
G01*
X11647716Y13306295D01*
G75*
G02*
X11753782Y13306295I53033J-53033D01*
G01*
X11859848Y13200229D01*
G75*
G02*
X11859848Y13094163I-53033J-53033D01*
G01*
G37*
G36*
G01*
X12213401Y12740609D02*
X11718427Y12245635D01*
G75*
G02*
X11612361Y12245635I-53033J53033D01*
G01*
X11506295Y12351701D01*
G75*
G02*
X11506295Y12457767I53033J53033D01*
G01*
X12001269Y12952741D01*
G75*
G02*
X12107335Y12952741I53033J-53033D01*
G01*
X12213401Y12846675D01*
G75*
G02*
X12213401Y12740609I-53033J-53033D01*
G01*
G37*
G36*
G01*
X12566955Y12387056D02*
X12071981Y11892082D01*
G75*
G02*
X11965915Y11892082I-53033J53033D01*
G01*
X11859849Y11998148D01*
G75*
G02*
X11859849Y12104214I53033J53033D01*
G01*
X12354823Y12599188D01*
G75*
G02*
X12460889Y12599188I53033J-53033D01*
G01*
X12566955Y12493122D01*
G75*
G02*
X12566955Y12387056I-53033J-53033D01*
G01*
G37*
G36*
G01*
X12920508Y12033503D02*
X12425534Y11538529D01*
G75*
G02*
X12319468Y11538529I-53033J53033D01*
G01*
X12213402Y11644595D01*
G75*
G02*
X12213402Y11750661I53033J53033D01*
G01*
X12708376Y12245635D01*
G75*
G02*
X12814442Y12245635I53033J-53033D01*
G01*
X12920508Y12139569D01*
G75*
G02*
X12920508Y12033503I-53033J-53033D01*
G01*
G37*
G36*
G01*
X13274062Y11679949D02*
X12779088Y11184975D01*
G75*
G02*
X12673022Y11184975I-53033J53033D01*
G01*
X12566956Y11291041D01*
G75*
G02*
X12566956Y11397107I53033J53033D01*
G01*
X13061930Y11892081D01*
G75*
G02*
X13167996Y11892081I53033J-53033D01*
G01*
X13274062Y11786015D01*
G75*
G02*
X13274062Y11679949I-53033J-53033D01*
G01*
G37*
G36*
G01*
X13627615Y11326396D02*
X13132641Y10831422D01*
G75*
G02*
X13026575Y10831422I-53033J53033D01*
G01*
X12920509Y10937488D01*
G75*
G02*
X12920509Y11043554I53033J53033D01*
G01*
X13415483Y11538528D01*
G75*
G02*
X13521549Y11538528I53033J-53033D01*
G01*
X13627615Y11432462D01*
G75*
G02*
X13627615Y11326396I-53033J-53033D01*
G01*
G37*
G36*
G01*
X13627615Y9947538D02*
X13521549Y9841472D01*
G75*
G02*
X13415483Y9841472I-53033J53033D01*
G01*
X12920509Y10336446D01*
G75*
G02*
X12920509Y10442512I53033J53033D01*
G01*
X13026575Y10548578D01*
G75*
G02*
X13132641Y10548578I53033J-53033D01*
G01*
X13627615Y10053604D01*
G75*
G02*
X13627615Y9947538I-53033J-53033D01*
G01*
G37*
G36*
G01*
X13274062Y9593985D02*
X13167996Y9487919D01*
G75*
G02*
X13061930Y9487919I-53033J53033D01*
G01*
X12566956Y9982893D01*
G75*
G02*
X12566956Y10088959I53033J53033D01*
G01*
X12673022Y10195025D01*
G75*
G02*
X12779088Y10195025I53033J-53033D01*
G01*
X13274062Y9700051D01*
G75*
G02*
X13274062Y9593985I-53033J-53033D01*
G01*
G37*
G36*
G01*
X12920508Y9240431D02*
X12814442Y9134365D01*
G75*
G02*
X12708376Y9134365I-53033J53033D01*
G01*
X12213402Y9629339D01*
G75*
G02*
X12213402Y9735405I53033J53033D01*
G01*
X12319468Y9841471D01*
G75*
G02*
X12425534Y9841471I53033J-53033D01*
G01*
X12920508Y9346497D01*
G75*
G02*
X12920508Y9240431I-53033J-53033D01*
G01*
G37*
G36*
G01*
X12566955Y8886878D02*
X12460889Y8780812D01*
G75*
G02*
X12354823Y8780812I-53033J53033D01*
G01*
X11859849Y9275786D01*
G75*
G02*
X11859849Y9381852I53033J53033D01*
G01*
X11965915Y9487918D01*
G75*
G02*
X12071981Y9487918I53033J-53033D01*
G01*
X12566955Y8992944D01*
G75*
G02*
X12566955Y8886878I-53033J-53033D01*
G01*
G37*
G36*
G01*
X12213401Y8533325D02*
X12107335Y8427259D01*
G75*
G02*
X12001269Y8427259I-53033J53033D01*
G01*
X11506295Y8922233D01*
G75*
G02*
X11506295Y9028299I53033J53033D01*
G01*
X11612361Y9134365D01*
G75*
G02*
X11718427Y9134365I53033J-53033D01*
G01*
X12213401Y8639391D01*
G75*
G02*
X12213401Y8533325I-53033J-53033D01*
G01*
G37*
G36*
G01*
X11859848Y8179771D02*
X11753782Y8073705D01*
G75*
G02*
X11647716Y8073705I-53033J53033D01*
G01*
X11152742Y8568679D01*
G75*
G02*
X11152742Y8674745I53033J53033D01*
G01*
X11258808Y8780811D01*
G75*
G02*
X11364874Y8780811I53033J-53033D01*
G01*
X11859848Y8285837D01*
G75*
G02*
X11859848Y8179771I-53033J-53033D01*
G01*
G37*
G36*
G01*
X11506295Y7826218D02*
X11400229Y7720152D01*
G75*
G02*
X11294163Y7720152I-53033J53033D01*
G01*
X10799189Y8215126D01*
G75*
G02*
X10799189Y8321192I53033J53033D01*
G01*
X10905255Y8427258D01*
G75*
G02*
X11011321Y8427258I53033J-53033D01*
G01*
X11506295Y7932284D01*
G75*
G02*
X11506295Y7826218I-53033J-53033D01*
G01*
G37*
G36*
G01*
X11152741Y7472665D02*
X11046675Y7366599D01*
G75*
G02*
X10940609Y7366599I-53033J53033D01*
G01*
X10445635Y7861573D01*
G75*
G02*
X10445635Y7967639I53033J53033D01*
G01*
X10551701Y8073705D01*
G75*
G02*
X10657767Y8073705I53033J-53033D01*
G01*
X11152741Y7578731D01*
G75*
G02*
X11152741Y7472665I-53033J-53033D01*
G01*
G37*
G36*
G01*
X10799188Y7119111D02*
X10693122Y7013045D01*
G75*
G02*
X10587056Y7013045I-53033J53033D01*
G01*
X10092082Y7508019D01*
G75*
G02*
X10092082Y7614085I53033J53033D01*
G01*
X10198148Y7720151D01*
G75*
G02*
X10304214Y7720151I53033J-53033D01*
G01*
X10799188Y7225177D01*
G75*
G02*
X10799188Y7119111I-53033J-53033D01*
G01*
G37*
G36*
G01*
X10445635Y6765558D02*
X10339569Y6659492D01*
G75*
G02*
X10233503Y6659492I-53033J53033D01*
G01*
X9738529Y7154466D01*
G75*
G02*
X9738529Y7260532I53033J53033D01*
G01*
X9844595Y7366598D01*
G75*
G02*
X9950661Y7366598I53033J-53033D01*
G01*
X10445635Y6871624D01*
G75*
G02*
X10445635Y6765558I-53033J-53033D01*
G01*
G37*
G36*
G01*
X10092081Y6412004D02*
X9986015Y6305938D01*
G75*
G02*
X9879949Y6305938I-53033J53033D01*
G01*
X9384975Y6800912D01*
G75*
G02*
X9384975Y6906978I53033J53033D01*
G01*
X9491041Y7013044D01*
G75*
G02*
X9597107Y7013044I53033J-53033D01*
G01*
X10092081Y6518070D01*
G75*
G02*
X10092081Y6412004I-53033J-53033D01*
G01*
G37*
G36*
G01*
X9738528Y6058451D02*
X9632462Y5952385D01*
G75*
G02*
X9526396Y5952385I-53033J53033D01*
G01*
X9031422Y6447359D01*
G75*
G02*
X9031422Y6553425I53033J53033D01*
G01*
X9137488Y6659491D01*
G75*
G02*
X9243554Y6659491I53033J-53033D01*
G01*
X9738528Y6164517D01*
G75*
G02*
X9738528Y6058451I-53033J-53033D01*
G01*
G37*
G36*
G01*
X7781785Y1872686D02*
X7622686Y2031785D01*
G75*
G02*
X7622686Y2190885I79550J79550D01*
G01*
X7824211Y2392410D01*
G75*
G02*
X7983311Y2392410I79550J-79550D01*
G01*
X8142410Y2233311D01*
G75*
G02*
X8142410Y2074211I-79550J-79550D01*
G01*
X7940885Y1872686D01*
G75*
G02*
X7781785Y1872686I-79550J79550D01*
G01*
G37*
G36*
G01*
X7329237Y1420138D02*
X7170138Y1579237D01*
G75*
G02*
X7170138Y1738337I79550J79550D01*
G01*
X7371663Y1939862D01*
G75*
G02*
X7530763Y1939862I79550J-79550D01*
G01*
X7689862Y1780763D01*
G75*
G02*
X7689862Y1621663I-79550J-79550D01*
G01*
X7488337Y1420138D01*
G75*
G02*
X7329237Y1420138I-79550J79550D01*
G01*
G37*
X1270000Y1270000D03*
X1270000Y3810000D03*
X1270000Y6350000D03*
X1270000Y8890000D03*
X1270000Y11430000D03*
X1270000Y13970000D03*
X1270000Y16510000D03*
X1270000Y19050000D03*
X1270000Y21590000D03*
X1270000Y24130000D03*
G36*
G01*
X5722322Y2503844D02*
X3883844Y4342322D01*
G75*
G02*
X3883844Y4377678I17678J17678D01*
G01*
X5722322Y6216156D01*
G75*
G02*
X5757678Y6216156I17678J-17678D01*
G01*
X7596156Y4377678D01*
G75*
G02*
X7596156Y4342322I-17678J-17678D01*
G01*
X5757678Y2503844D01*
G75*
G02*
X5722322Y2503844I-17678J17678D01*
G01*
G37*
G36*
G01*
X3636357Y4483744D02*
X3123705Y4996396D01*
G75*
G02*
X3123705Y5102462I53033J53033D01*
G01*
X3229771Y5208528D01*
G75*
G02*
X3335837Y5208528I53033J-53033D01*
G01*
X3848489Y4695876D01*
G75*
G02*
X3848489Y4589810I-53033J-53033D01*
G01*
X3742423Y4483744D01*
G75*
G02*
X3636357Y4483744I-53033J53033D01*
G01*
G37*
G36*
G01*
X3989911Y4837297D02*
X3477259Y5349949D01*
G75*
G02*
X3477259Y5456015I53033J53033D01*
G01*
X3583325Y5562081D01*
G75*
G02*
X3689391Y5562081I53033J-53033D01*
G01*
X4202043Y5049429D01*
G75*
G02*
X4202043Y4943363I-53033J-53033D01*
G01*
X4095977Y4837297D01*
G75*
G02*
X3989911Y4837297I-53033J53033D01*
G01*
G37*
G36*
G01*
X4343464Y5190851D02*
X3830812Y5703503D01*
G75*
G02*
X3830812Y5809569I53033J53033D01*
G01*
X3936878Y5915635D01*
G75*
G02*
X4042944Y5915635I53033J-53033D01*
G01*
X4555596Y5402983D01*
G75*
G02*
X4555596Y5296917I-53033J-53033D01*
G01*
X4449530Y5190851D01*
G75*
G02*
X4343464Y5190851I-53033J53033D01*
G01*
G37*
G36*
G01*
X4697017Y5544404D02*
X4184365Y6057056D01*
G75*
G02*
X4184365Y6163122I53033J53033D01*
G01*
X4290431Y6269188D01*
G75*
G02*
X4396497Y6269188I53033J-53033D01*
G01*
X4909149Y5756536D01*
G75*
G02*
X4909149Y5650470I-53033J-53033D01*
G01*
X4803083Y5544404D01*
G75*
G02*
X4697017Y5544404I-53033J53033D01*
G01*
G37*
G36*
G01*
X5050571Y5897957D02*
X4537919Y6410609D01*
G75*
G02*
X4537919Y6516675I53033J53033D01*
G01*
X4643985Y6622741D01*
G75*
G02*
X4750051Y6622741I53033J-53033D01*
G01*
X5262703Y6110089D01*
G75*
G02*
X5262703Y6004023I-53033J-53033D01*
G01*
X5156637Y5897957D01*
G75*
G02*
X5050571Y5897957I-53033J53033D01*
G01*
G37*
G36*
G01*
X5404124Y6251511D02*
X4891472Y6764163D01*
G75*
G02*
X4891472Y6870229I53033J53033D01*
G01*
X4997538Y6976295D01*
G75*
G02*
X5103604Y6976295I53033J-53033D01*
G01*
X5616256Y6463643D01*
G75*
G02*
X5616256Y6357577I-53033J-53033D01*
G01*
X5510190Y6251511D01*
G75*
G02*
X5404124Y6251511I-53033J53033D01*
G01*
G37*
G36*
G01*
X5969810Y6251511D02*
X5863744Y6357577D01*
G75*
G02*
X5863744Y6463643I53033J53033D01*
G01*
X6376396Y6976295D01*
G75*
G02*
X6482462Y6976295I53033J-53033D01*
G01*
X6588528Y6870229D01*
G75*
G02*
X6588528Y6764163I-53033J-53033D01*
G01*
X6075876Y6251511D01*
G75*
G02*
X5969810Y6251511I-53033J53033D01*
G01*
G37*
G36*
G01*
X6323363Y5897957D02*
X6217297Y6004023D01*
G75*
G02*
X6217297Y6110089I53033J53033D01*
G01*
X6729949Y6622741D01*
G75*
G02*
X6836015Y6622741I53033J-53033D01*
G01*
X6942081Y6516675D01*
G75*
G02*
X6942081Y6410609I-53033J-53033D01*
G01*
X6429429Y5897957D01*
G75*
G02*
X6323363Y5897957I-53033J53033D01*
G01*
G37*
G36*
G01*
X6676917Y5544404D02*
X6570851Y5650470D01*
G75*
G02*
X6570851Y5756536I53033J53033D01*
G01*
X7083503Y6269188D01*
G75*
G02*
X7189569Y6269188I53033J-53033D01*
G01*
X7295635Y6163122D01*
G75*
G02*
X7295635Y6057056I-53033J-53033D01*
G01*
X6782983Y5544404D01*
G75*
G02*
X6676917Y5544404I-53033J53033D01*
G01*
G37*
G36*
G01*
X7030470Y5190851D02*
X6924404Y5296917D01*
G75*
G02*
X6924404Y5402983I53033J53033D01*
G01*
X7437056Y5915635D01*
G75*
G02*
X7543122Y5915635I53033J-53033D01*
G01*
X7649188Y5809569D01*
G75*
G02*
X7649188Y5703503I-53033J-53033D01*
G01*
X7136536Y5190851D01*
G75*
G02*
X7030470Y5190851I-53033J53033D01*
G01*
G37*
G36*
G01*
X7384023Y4837297D02*
X7277957Y4943363D01*
G75*
G02*
X7277957Y5049429I53033J53033D01*
G01*
X7790609Y5562081D01*
G75*
G02*
X7896675Y5562081I53033J-53033D01*
G01*
X8002741Y5456015D01*
G75*
G02*
X8002741Y5349949I-53033J-53033D01*
G01*
X7490089Y4837297D01*
G75*
G02*
X7384023Y4837297I-53033J53033D01*
G01*
G37*
G36*
G01*
X7737577Y4483744D02*
X7631511Y4589810D01*
G75*
G02*
X7631511Y4695876I53033J53033D01*
G01*
X8144163Y5208528D01*
G75*
G02*
X8250229Y5208528I53033J-53033D01*
G01*
X8356295Y5102462D01*
G75*
G02*
X8356295Y4996396I-53033J-53033D01*
G01*
X7843643Y4483744D01*
G75*
G02*
X7737577Y4483744I-53033J53033D01*
G01*
G37*
G36*
G01*
X8144163Y3511472D02*
X7631511Y4024124D01*
G75*
G02*
X7631511Y4130190I53033J53033D01*
G01*
X7737577Y4236256D01*
G75*
G02*
X7843643Y4236256I53033J-53033D01*
G01*
X8356295Y3723604D01*
G75*
G02*
X8356295Y3617538I-53033J-53033D01*
G01*
X8250229Y3511472D01*
G75*
G02*
X8144163Y3511472I-53033J53033D01*
G01*
G37*
G36*
G01*
X7790609Y3157919D02*
X7277957Y3670571D01*
G75*
G02*
X7277957Y3776637I53033J53033D01*
G01*
X7384023Y3882703D01*
G75*
G02*
X7490089Y3882703I53033J-53033D01*
G01*
X8002741Y3370051D01*
G75*
G02*
X8002741Y3263985I-53033J-53033D01*
G01*
X7896675Y3157919D01*
G75*
G02*
X7790609Y3157919I-53033J53033D01*
G01*
G37*
G36*
G01*
X7437056Y2804365D02*
X6924404Y3317017D01*
G75*
G02*
X6924404Y3423083I53033J53033D01*
G01*
X7030470Y3529149D01*
G75*
G02*
X7136536Y3529149I53033J-53033D01*
G01*
X7649188Y3016497D01*
G75*
G02*
X7649188Y2910431I-53033J-53033D01*
G01*
X7543122Y2804365D01*
G75*
G02*
X7437056Y2804365I-53033J53033D01*
G01*
G37*
G36*
G01*
X7083503Y2450812D02*
X6570851Y2963464D01*
G75*
G02*
X6570851Y3069530I53033J53033D01*
G01*
X6676917Y3175596D01*
G75*
G02*
X6782983Y3175596I53033J-53033D01*
G01*
X7295635Y2662944D01*
G75*
G02*
X7295635Y2556878I-53033J-53033D01*
G01*
X7189569Y2450812D01*
G75*
G02*
X7083503Y2450812I-53033J53033D01*
G01*
G37*
G36*
G01*
X6729949Y2097259D02*
X6217297Y2609911D01*
G75*
G02*
X6217297Y2715977I53033J53033D01*
G01*
X6323363Y2822043D01*
G75*
G02*
X6429429Y2822043I53033J-53033D01*
G01*
X6942081Y2309391D01*
G75*
G02*
X6942081Y2203325I-53033J-53033D01*
G01*
X6836015Y2097259D01*
G75*
G02*
X6729949Y2097259I-53033J53033D01*
G01*
G37*
G36*
G01*
X6376396Y1743705D02*
X5863744Y2256357D01*
G75*
G02*
X5863744Y2362423I53033J53033D01*
G01*
X5969810Y2468489D01*
G75*
G02*
X6075876Y2468489I53033J-53033D01*
G01*
X6588528Y1955837D01*
G75*
G02*
X6588528Y1849771I-53033J-53033D01*
G01*
X6482462Y1743705D01*
G75*
G02*
X6376396Y1743705I-53033J53033D01*
G01*
G37*
G36*
G01*
X4997538Y1743705D02*
X4891472Y1849771D01*
G75*
G02*
X4891472Y1955837I53033J53033D01*
G01*
X5404124Y2468489D01*
G75*
G02*
X5510190Y2468489I53033J-53033D01*
G01*
X5616256Y2362423D01*
G75*
G02*
X5616256Y2256357I-53033J-53033D01*
G01*
X5103604Y1743705D01*
G75*
G02*
X4997538Y1743705I-53033J53033D01*
G01*
G37*
G36*
G01*
X4643985Y2097259D02*
X4537919Y2203325D01*
G75*
G02*
X4537919Y2309391I53033J53033D01*
G01*
X5050571Y2822043D01*
G75*
G02*
X5156637Y2822043I53033J-53033D01*
G01*
X5262703Y2715977D01*
G75*
G02*
X5262703Y2609911I-53033J-53033D01*
G01*
X4750051Y2097259D01*
G75*
G02*
X4643985Y2097259I-53033J53033D01*
G01*
G37*
G36*
G01*
X4290431Y2450812D02*
X4184365Y2556878D01*
G75*
G02*
X4184365Y2662944I53033J53033D01*
G01*
X4697017Y3175596D01*
G75*
G02*
X4803083Y3175596I53033J-53033D01*
G01*
X4909149Y3069530D01*
G75*
G02*
X4909149Y2963464I-53033J-53033D01*
G01*
X4396497Y2450812D01*
G75*
G02*
X4290431Y2450812I-53033J53033D01*
G01*
G37*
G36*
G01*
X3936878Y2804365D02*
X3830812Y2910431D01*
G75*
G02*
X3830812Y3016497I53033J53033D01*
G01*
X4343464Y3529149D01*
G75*
G02*
X4449530Y3529149I53033J-53033D01*
G01*
X4555596Y3423083D01*
G75*
G02*
X4555596Y3317017I-53033J-53033D01*
G01*
X4042944Y2804365D01*
G75*
G02*
X3936878Y2804365I-53033J53033D01*
G01*
G37*
G36*
G01*
X3583325Y3157919D02*
X3477259Y3263985D01*
G75*
G02*
X3477259Y3370051I53033J53033D01*
G01*
X3989911Y3882703D01*
G75*
G02*
X4095977Y3882703I53033J-53033D01*
G01*
X4202043Y3776637D01*
G75*
G02*
X4202043Y3670571I-53033J-53033D01*
G01*
X3689391Y3157919D01*
G75*
G02*
X3583325Y3157919I-53033J53033D01*
G01*
G37*
G36*
G01*
X3229771Y3511472D02*
X3123705Y3617538D01*
G75*
G02*
X3123705Y3723604I53033J53033D01*
G01*
X3636357Y4236256D01*
G75*
G02*
X3742423Y4236256I53033J-53033D01*
G01*
X3848489Y4130190D01*
G75*
G02*
X3848489Y4024124I-53033J-53033D01*
G01*
X3335837Y3511472D01*
G75*
G02*
X3229771Y3511472I-53033J53033D01*
G01*
G37*
G36*
G01*
X10542500Y30635000D02*
X10317500Y30635000D01*
G75*
G02*
X10205000Y30747500I0J112500D01*
G01*
X10205000Y31032500D01*
G75*
G02*
X10317500Y31145000I112500J0D01*
G01*
X10542500Y31145000D01*
G75*
G02*
X10655000Y31032500I0J-112500D01*
G01*
X10655000Y30747500D01*
G75*
G02*
X10542500Y30635000I-112500J0D01*
G01*
G37*
G36*
G01*
X10542500Y29995000D02*
X10317500Y29995000D01*
G75*
G02*
X10205000Y30107500I0J112500D01*
G01*
X10205000Y30392500D01*
G75*
G02*
X10317500Y30505000I112500J0D01*
G01*
X10542500Y30505000D01*
G75*
G02*
X10655000Y30392500I0J-112500D01*
G01*
X10655000Y30107500D01*
G75*
G02*
X10542500Y29995000I-112500J0D01*
G01*
G37*
G36*
G01*
X13650763Y19949862D02*
X13809862Y19790763D01*
G75*
G02*
X13809862Y19631663I-79550J-79550D01*
G01*
X13608337Y19430138D01*
G75*
G02*
X13449237Y19430138I-79550J79550D01*
G01*
X13290138Y19589237D01*
G75*
G02*
X13290138Y19748337I79550J79550D01*
G01*
X13491663Y19949862D01*
G75*
G02*
X13650763Y19949862I79550J-79550D01*
G01*
G37*
G36*
G01*
X14103311Y20402410D02*
X14262410Y20243311D01*
G75*
G02*
X14262410Y20084211I-79550J-79550D01*
G01*
X14060885Y19882686D01*
G75*
G02*
X13901785Y19882686I-79550J79550D01*
G01*
X13742686Y20041785D01*
G75*
G02*
X13742686Y20200885I79550J79550D01*
G01*
X13944211Y20402410D01*
G75*
G02*
X14103311Y20402410I79550J-79550D01*
G01*
G37*
G36*
G01*
X14535000Y30727500D02*
X14535000Y30952500D01*
G75*
G02*
X14647500Y31065000I112500J0D01*
G01*
X14932500Y31065000D01*
G75*
G02*
X15045000Y30952500I0J-112500D01*
G01*
X15045000Y30727500D01*
G75*
G02*
X14932500Y30615000I-112500J0D01*
G01*
X14647500Y30615000D01*
G75*
G02*
X14535000Y30727500I0J112500D01*
G01*
G37*
G36*
G01*
X13895000Y30727500D02*
X13895000Y30952500D01*
G75*
G02*
X14007500Y31065000I112500J0D01*
G01*
X14292500Y31065000D01*
G75*
G02*
X14405000Y30952500I0J-112500D01*
G01*
X14405000Y30727500D01*
G75*
G02*
X14292500Y30615000I-112500J0D01*
G01*
X14007500Y30615000D01*
G75*
G02*
X13895000Y30727500I0J112500D01*
G01*
G37*
G36*
G01*
X7485000Y15977500D02*
X7485000Y16202500D01*
G75*
G02*
X7597500Y16315000I112500J0D01*
G01*
X7882500Y16315000D01*
G75*
G02*
X7995000Y16202500I0J-112500D01*
G01*
X7995000Y15977500D01*
G75*
G02*
X7882500Y15865000I-112500J0D01*
G01*
X7597500Y15865000D01*
G75*
G02*
X7485000Y15977500I0J112500D01*
G01*
G37*
G36*
G01*
X6845000Y15977500D02*
X6845000Y16202500D01*
G75*
G02*
X6957500Y16315000I112500J0D01*
G01*
X7242500Y16315000D01*
G75*
G02*
X7355000Y16202500I0J-112500D01*
G01*
X7355000Y15977500D01*
G75*
G02*
X7242500Y15865000I-112500J0D01*
G01*
X6957500Y15865000D01*
G75*
G02*
X6845000Y15977500I0J112500D01*
G01*
G37*
G36*
G01*
X4450763Y23829862D02*
X4609862Y23670763D01*
G75*
G02*
X4609862Y23511663I-79550J-79550D01*
G01*
X4408337Y23310138D01*
G75*
G02*
X4249237Y23310138I-79550J79550D01*
G01*
X4090138Y23469237D01*
G75*
G02*
X4090138Y23628337I79550J79550D01*
G01*
X4291663Y23829862D01*
G75*
G02*
X4450763Y23829862I79550J-79550D01*
G01*
G37*
G36*
G01*
X4903311Y24282410D02*
X5062410Y24123311D01*
G75*
G02*
X5062410Y23964211I-79550J-79550D01*
G01*
X4860885Y23762686D01*
G75*
G02*
X4701785Y23762686I-79550J79550D01*
G01*
X4542686Y23921785D01*
G75*
G02*
X4542686Y24080885I79550J79550D01*
G01*
X4744211Y24282410D01*
G75*
G02*
X4903311Y24282410I79550J-79550D01*
G01*
G37*
G36*
G01*
X6162500Y30735000D02*
X5797500Y30735000D01*
G75*
G02*
X5645000Y30887500I0J152500D01*
G01*
X5645000Y31192500D01*
G75*
G02*
X5797500Y31345000I152500J0D01*
G01*
X6162500Y31345000D01*
G75*
G02*
X6315000Y31192500I0J-152500D01*
G01*
X6315000Y30887500D01*
G75*
G02*
X6162500Y30735000I-152500J0D01*
G01*
G37*
G36*
G01*
X6162500Y29775000D02*
X5797500Y29775000D01*
G75*
G02*
X5645000Y29927500I0J152500D01*
G01*
X5645000Y30232500D01*
G75*
G02*
X5797500Y30385000I152500J0D01*
G01*
X6162500Y30385000D01*
G75*
G02*
X6315000Y30232500I0J-152500D01*
G01*
X6315000Y29927500D01*
G75*
G02*
X6162500Y29775000I-152500J0D01*
G01*
G37*
G36*
G01*
X4502500Y30735000D02*
X4137500Y30735000D01*
G75*
G02*
X3985000Y30887500I0J152500D01*
G01*
X3985000Y31192500D01*
G75*
G02*
X4137500Y31345000I152500J0D01*
G01*
X4502500Y31345000D01*
G75*
G02*
X4655000Y31192500I0J-152500D01*
G01*
X4655000Y30887500D01*
G75*
G02*
X4502500Y30735000I-152500J0D01*
G01*
G37*
G36*
G01*
X4502500Y29775000D02*
X4137500Y29775000D01*
G75*
G02*
X3985000Y29927500I0J152500D01*
G01*
X3985000Y30232500D01*
G75*
G02*
X4137500Y30385000I152500J0D01*
G01*
X4502500Y30385000D01*
G75*
G02*
X4655000Y30232500I0J-152500D01*
G01*
X4655000Y29927500D01*
G75*
G02*
X4502500Y29775000I-152500J0D01*
G01*
G37*
G36*
G01*
X14405000Y30252500D02*
X14405000Y30027500D01*
G75*
G02*
X14292500Y29915000I-112500J0D01*
G01*
X14007500Y29915000D01*
G75*
G02*
X13895000Y30027500I0J112500D01*
G01*
X13895000Y30252500D01*
G75*
G02*
X14007500Y30365000I112500J0D01*
G01*
X14292500Y30365000D01*
G75*
G02*
X14405000Y30252500I0J-112500D01*
G01*
G37*
G36*
G01*
X15045000Y30252500D02*
X15045000Y30027500D01*
G75*
G02*
X14932500Y29915000I-112500J0D01*
G01*
X14647500Y29915000D01*
G75*
G02*
X14535000Y30027500I0J112500D01*
G01*
X14535000Y30252500D01*
G75*
G02*
X14647500Y30365000I112500J0D01*
G01*
X14932500Y30365000D01*
G75*
G02*
X15045000Y30252500I0J-112500D01*
G01*
G37*
G36*
G01*
X14405000Y29552500D02*
X14405000Y29327500D01*
G75*
G02*
X14292500Y29215000I-112500J0D01*
G01*
X14007500Y29215000D01*
G75*
G02*
X13895000Y29327500I0J112500D01*
G01*
X13895000Y29552500D01*
G75*
G02*
X14007500Y29665000I112500J0D01*
G01*
X14292500Y29665000D01*
G75*
G02*
X14405000Y29552500I0J-112500D01*
G01*
G37*
G36*
G01*
X15045000Y29552500D02*
X15045000Y29327500D01*
G75*
G02*
X14932500Y29215000I-112500J0D01*
G01*
X14647500Y29215000D01*
G75*
G02*
X14535000Y29327500I0J112500D01*
G01*
X14535000Y29552500D01*
G75*
G02*
X14647500Y29665000I112500J0D01*
G01*
X14932500Y29665000D01*
G75*
G02*
X15045000Y29552500I0J-112500D01*
G01*
G37*
G36*
G01*
X3960537Y15749636D02*
X4119636Y15590537D01*
G75*
G02*
X4119636Y15431437I-79550J-79550D01*
G01*
X3918111Y15229912D01*
G75*
G02*
X3759011Y15229912I-79550J79550D01*
G01*
X3599912Y15389011D01*
G75*
G02*
X3599912Y15548111I79550J79550D01*
G01*
X3801437Y15749636D01*
G75*
G02*
X3960537Y15749636I79550J-79550D01*
G01*
G37*
G36*
G01*
X4413085Y16202184D02*
X4572184Y16043085D01*
G75*
G02*
X4572184Y15883985I-79550J-79550D01*
G01*
X4370659Y15682460D01*
G75*
G02*
X4211559Y15682460I-79550J79550D01*
G01*
X4052460Y15841559D01*
G75*
G02*
X4052460Y16000659I79550J79550D01*
G01*
X4253985Y16202184D01*
G75*
G02*
X4413085Y16202184I79550J-79550D01*
G01*
G37*
G36*
G01*
X13082500Y32655000D02*
X12857500Y32655000D01*
G75*
G02*
X12745000Y32767500I0J112500D01*
G01*
X12745000Y33052500D01*
G75*
G02*
X12857500Y33165000I112500J0D01*
G01*
X13082500Y33165000D01*
G75*
G02*
X13195000Y33052500I0J-112500D01*
G01*
X13195000Y32767500D01*
G75*
G02*
X13082500Y32655000I-112500J0D01*
G01*
G37*
G36*
G01*
X13082500Y32015000D02*
X12857500Y32015000D01*
G75*
G02*
X12745000Y32127500I0J112500D01*
G01*
X12745000Y32412500D01*
G75*
G02*
X12857500Y32525000I112500J0D01*
G01*
X13082500Y32525000D01*
G75*
G02*
X13195000Y32412500I0J-112500D01*
G01*
X13195000Y32127500D01*
G75*
G02*
X13082500Y32015000I-112500J0D01*
G01*
G37*
G36*
G01*
X9597500Y28805000D02*
X9822500Y28805000D01*
G75*
G02*
X9935000Y28692500I0J-112500D01*
G01*
X9935000Y28407500D01*
G75*
G02*
X9822500Y28295000I-112500J0D01*
G01*
X9597500Y28295000D01*
G75*
G02*
X9485000Y28407500I0J112500D01*
G01*
X9485000Y28692500D01*
G75*
G02*
X9597500Y28805000I112500J0D01*
G01*
G37*
G36*
G01*
X9597500Y29445000D02*
X9822500Y29445000D01*
G75*
G02*
X9935000Y29332500I0J-112500D01*
G01*
X9935000Y29047500D01*
G75*
G02*
X9822500Y28935000I-112500J0D01*
G01*
X9597500Y28935000D01*
G75*
G02*
X9485000Y29047500I0J112500D01*
G01*
X9485000Y29332500D01*
G75*
G02*
X9597500Y29445000I112500J0D01*
G01*
G37*
G36*
G01*
X4984489Y18393588D02*
X5143588Y18234489D01*
G75*
G02*
X5143588Y18075389I-79550J-79550D01*
G01*
X4942063Y17873864D01*
G75*
G02*
X4782963Y17873864I-79550J79550D01*
G01*
X4623864Y18032963D01*
G75*
G02*
X4623864Y18192063I79550J79550D01*
G01*
X4825389Y18393588D01*
G75*
G02*
X4984489Y18393588I79550J-79550D01*
G01*
G37*
G36*
G01*
X5437037Y18846136D02*
X5596136Y18687037D01*
G75*
G02*
X5596136Y18527937I-79550J-79550D01*
G01*
X5394611Y18326412D01*
G75*
G02*
X5235511Y18326412I-79550J79550D01*
G01*
X5076412Y18485511D01*
G75*
G02*
X5076412Y18644611I79550J79550D01*
G01*
X5277937Y18846136D01*
G75*
G02*
X5437037Y18846136I79550J-79550D01*
G01*
G37*
G36*
G01*
X12479862Y7389237D02*
X12320763Y7230138D01*
G75*
G02*
X12161663Y7230138I-79550J79550D01*
G01*
X11960138Y7431663D01*
G75*
G02*
X11960138Y7590763I79550J79550D01*
G01*
X12119237Y7749862D01*
G75*
G02*
X12278337Y7749862I79550J-79550D01*
G01*
X12479862Y7548337D01*
G75*
G02*
X12479862Y7389237I-79550J-79550D01*
G01*
G37*
G36*
G01*
X12932410Y6936689D02*
X12773311Y6777590D01*
G75*
G02*
X12614211Y6777590I-79550J79550D01*
G01*
X12412686Y6979115D01*
G75*
G02*
X12412686Y7138215I79550J79550D01*
G01*
X12571785Y7297314D01*
G75*
G02*
X12730885Y7297314I79550J-79550D01*
G01*
X12932410Y7095789D01*
G75*
G02*
X12932410Y6936689I-79550J-79550D01*
G01*
G37*
G36*
G01*
X12979862Y7889237D02*
X12820763Y7730138D01*
G75*
G02*
X12661663Y7730138I-79550J79550D01*
G01*
X12460138Y7931663D01*
G75*
G02*
X12460138Y8090763I79550J79550D01*
G01*
X12619237Y8249862D01*
G75*
G02*
X12778337Y8249862I79550J-79550D01*
G01*
X12979862Y8048337D01*
G75*
G02*
X12979862Y7889237I-79550J-79550D01*
G01*
G37*
G36*
G01*
X13432410Y7436689D02*
X13273311Y7277590D01*
G75*
G02*
X13114211Y7277590I-79550J79550D01*
G01*
X12912686Y7479115D01*
G75*
G02*
X12912686Y7638215I79550J79550D01*
G01*
X13071785Y7797314D01*
G75*
G02*
X13230885Y7797314I79550J-79550D01*
G01*
X13432410Y7595789D01*
G75*
G02*
X13432410Y7436689I-79550J-79550D01*
G01*
G37*
G36*
G01*
X3142500Y6330000D02*
X2917500Y6330000D01*
G75*
G02*
X2805000Y6442500I0J112500D01*
G01*
X2805000Y6727500D01*
G75*
G02*
X2917500Y6840000I112500J0D01*
G01*
X3142500Y6840000D01*
G75*
G02*
X3255000Y6727500I0J-112500D01*
G01*
X3255000Y6442500D01*
G75*
G02*
X3142500Y6330000I-112500J0D01*
G01*
G37*
G36*
G01*
X3142500Y5690000D02*
X2917500Y5690000D01*
G75*
G02*
X2805000Y5802500I0J112500D01*
G01*
X2805000Y6087500D01*
G75*
G02*
X2917500Y6200000I112500J0D01*
G01*
X3142500Y6200000D01*
G75*
G02*
X3255000Y6087500I0J-112500D01*
G01*
X3255000Y5802500D01*
G75*
G02*
X3142500Y5690000I-112500J0D01*
G01*
G37*
G36*
G01*
X11952500Y30635000D02*
X11727500Y30635000D01*
G75*
G02*
X11615000Y30747500I0J112500D01*
G01*
X11615000Y31032500D01*
G75*
G02*
X11727500Y31145000I112500J0D01*
G01*
X11952500Y31145000D01*
G75*
G02*
X12065000Y31032500I0J-112500D01*
G01*
X12065000Y30747500D01*
G75*
G02*
X11952500Y30635000I-112500J0D01*
G01*
G37*
G36*
G01*
X11952500Y29995000D02*
X11727500Y29995000D01*
G75*
G02*
X11615000Y30107500I0J112500D01*
G01*
X11615000Y30392500D01*
G75*
G02*
X11727500Y30505000I112500J0D01*
G01*
X11952500Y30505000D01*
G75*
G02*
X12065000Y30392500I0J-112500D01*
G01*
X12065000Y30107500D01*
G75*
G02*
X11952500Y29995000I-112500J0D01*
G01*
G37*
G36*
G01*
X13801785Y12842686D02*
X13642686Y13001785D01*
G75*
G02*
X13642686Y13160885I79550J79550D01*
G01*
X13844211Y13362410D01*
G75*
G02*
X14003311Y13362410I79550J-79550D01*
G01*
X14162410Y13203311D01*
G75*
G02*
X14162410Y13044211I-79550J-79550D01*
G01*
X13960885Y12842686D01*
G75*
G02*
X13801785Y12842686I-79550J79550D01*
G01*
G37*
G36*
G01*
X13349237Y12390138D02*
X13190138Y12549237D01*
G75*
G02*
X13190138Y12708337I79550J79550D01*
G01*
X13391663Y12909862D01*
G75*
G02*
X13550763Y12909862I79550J-79550D01*
G01*
X13709862Y12750763D01*
G75*
G02*
X13709862Y12591663I-79550J-79550D01*
G01*
X13508337Y12390138D01*
G75*
G02*
X13349237Y12390138I-79550J79550D01*
G01*
G37*
G36*
G01*
X13301785Y13342686D02*
X13142686Y13501785D01*
G75*
G02*
X13142686Y13660885I79550J79550D01*
G01*
X13344211Y13862410D01*
G75*
G02*
X13503311Y13862410I79550J-79550D01*
G01*
X13662410Y13703311D01*
G75*
G02*
X13662410Y13544211I-79550J-79550D01*
G01*
X13460885Y13342686D01*
G75*
G02*
X13301785Y13342686I-79550J79550D01*
G01*
G37*
G36*
G01*
X12849237Y12890138D02*
X12690138Y13049237D01*
G75*
G02*
X12690138Y13208337I79550J79550D01*
G01*
X12891663Y13409862D01*
G75*
G02*
X13050763Y13409862I79550J-79550D01*
G01*
X13209862Y13250763D01*
G75*
G02*
X13209862Y13091663I-79550J-79550D01*
G01*
X13008337Y12890138D01*
G75*
G02*
X12849237Y12890138I-79550J79550D01*
G01*
G37*
G36*
G01*
X14287500Y8795000D02*
X14512500Y8795000D01*
G75*
G02*
X14625000Y8682500I0J-112500D01*
G01*
X14625000Y8397500D01*
G75*
G02*
X14512500Y8285000I-112500J0D01*
G01*
X14287500Y8285000D01*
G75*
G02*
X14175000Y8397500I0J112500D01*
G01*
X14175000Y8682500D01*
G75*
G02*
X14287500Y8795000I112500J0D01*
G01*
G37*
G36*
G01*
X14287500Y9435000D02*
X14512500Y9435000D01*
G75*
G02*
X14625000Y9322500I0J-112500D01*
G01*
X14625000Y9037500D01*
G75*
G02*
X14512500Y8925000I-112500J0D01*
G01*
X14287500Y8925000D01*
G75*
G02*
X14175000Y9037500I0J112500D01*
G01*
X14175000Y9322500D01*
G75*
G02*
X14287500Y9435000I112500J0D01*
G01*
G37*
G36*
G01*
X14852500Y21655000D02*
X14627500Y21655000D01*
G75*
G02*
X14515000Y21767500I0J112500D01*
G01*
X14515000Y22052500D01*
G75*
G02*
X14627500Y22165000I112500J0D01*
G01*
X14852500Y22165000D01*
G75*
G02*
X14965000Y22052500I0J-112500D01*
G01*
X14965000Y21767500D01*
G75*
G02*
X14852500Y21655000I-112500J0D01*
G01*
G37*
G36*
G01*
X14852500Y21015000D02*
X14627500Y21015000D01*
G75*
G02*
X14515000Y21127500I0J112500D01*
G01*
X14515000Y21412500D01*
G75*
G02*
X14627500Y21525000I112500J0D01*
G01*
X14852500Y21525000D01*
G75*
G02*
X14965000Y21412500I0J-112500D01*
G01*
X14965000Y21127500D01*
G75*
G02*
X14852500Y21015000I-112500J0D01*
G01*
G37*
G36*
G01*
X4199463Y24270364D02*
X4040364Y24429463D01*
G75*
G02*
X4040364Y24588563I79550J79550D01*
G01*
X4241889Y24790088D01*
G75*
G02*
X4400989Y24790088I79550J-79550D01*
G01*
X4560088Y24630989D01*
G75*
G02*
X4560088Y24471889I-79550J-79550D01*
G01*
X4358563Y24270364D01*
G75*
G02*
X4199463Y24270364I-79550J79550D01*
G01*
G37*
G36*
G01*
X3746915Y23817816D02*
X3587816Y23976915D01*
G75*
G02*
X3587816Y24136015I79550J79550D01*
G01*
X3789341Y24337540D01*
G75*
G02*
X3948441Y24337540I79550J-79550D01*
G01*
X4107540Y24178441D01*
G75*
G02*
X4107540Y24019341I-79550J-79550D01*
G01*
X3906015Y23817816D01*
G75*
G02*
X3746915Y23817816I-79550J79550D01*
G01*
G37*
G36*
G01*
X5474489Y17893588D02*
X5633588Y17734489D01*
G75*
G02*
X5633588Y17575389I-79550J-79550D01*
G01*
X5432063Y17373864D01*
G75*
G02*
X5272963Y17373864I-79550J79550D01*
G01*
X5113864Y17532963D01*
G75*
G02*
X5113864Y17692063I79550J79550D01*
G01*
X5315389Y17893588D01*
G75*
G02*
X5474489Y17893588I79550J-79550D01*
G01*
G37*
G36*
G01*
X5927037Y18346136D02*
X6086136Y18187037D01*
G75*
G02*
X6086136Y18027937I-79550J-79550D01*
G01*
X5884611Y17826412D01*
G75*
G02*
X5725511Y17826412I-79550J79550D01*
G01*
X5566412Y17985511D01*
G75*
G02*
X5566412Y18144611I79550J79550D01*
G01*
X5767937Y18346136D01*
G75*
G02*
X5927037Y18346136I79550J-79550D01*
G01*
G37*
G36*
G01*
X3885304Y19172790D02*
X3627210Y18914696D01*
G75*
G02*
X3411542Y18914696I-107834J107834D01*
G01*
X3195874Y19130364D01*
G75*
G02*
X3195874Y19346032I107834J107834D01*
G01*
X3453968Y19604126D01*
G75*
G02*
X3669636Y19604126I107834J-107834D01*
G01*
X3885304Y19388458D01*
G75*
G02*
X3885304Y19172790I-107834J-107834D01*
G01*
G37*
G36*
G01*
X4564126Y18493968D02*
X4306032Y18235874D01*
G75*
G02*
X4090364Y18235874I-107834J107834D01*
G01*
X3874696Y18451542D01*
G75*
G02*
X3874696Y18667210I107834J107834D01*
G01*
X4132790Y18925304D01*
G75*
G02*
X4348458Y18925304I107834J-107834D01*
G01*
X4564126Y18709636D01*
G75*
G02*
X4564126Y18493968I-107834J-107834D01*
G01*
G37*
G36*
G01*
X4643588Y19475511D02*
X4484489Y19316412D01*
G75*
G02*
X4325389Y19316412I-79550J79550D01*
G01*
X4123864Y19517937D01*
G75*
G02*
X4123864Y19677037I79550J79550D01*
G01*
X4282963Y19836136D01*
G75*
G02*
X4442063Y19836136I79550J-79550D01*
G01*
X4643588Y19634611D01*
G75*
G02*
X4643588Y19475511I-79550J-79550D01*
G01*
G37*
G36*
G01*
X5096136Y19022963D02*
X4937037Y18863864D01*
G75*
G02*
X4777937Y18863864I-79550J79550D01*
G01*
X4576412Y19065389D01*
G75*
G02*
X4576412Y19224489I79550J79550D01*
G01*
X4735511Y19383588D01*
G75*
G02*
X4894611Y19383588I79550J-79550D01*
G01*
X5096136Y19182063D01*
G75*
G02*
X5096136Y19022963I-79550J-79550D01*
G01*
G37*
G36*
G01*
X14765511Y23706412D02*
X14606412Y23865511D01*
G75*
G02*
X14606412Y24024611I79550J79550D01*
G01*
X14807937Y24226136D01*
G75*
G02*
X14967037Y24226136I79550J-79550D01*
G01*
X15126136Y24067037D01*
G75*
G02*
X15126136Y23907937I-79550J-79550D01*
G01*
X14924611Y23706412D01*
G75*
G02*
X14765511Y23706412I-79550J79550D01*
G01*
G37*
G36*
G01*
X14312963Y23253864D02*
X14153864Y23412963D01*
G75*
G02*
X14153864Y23572063I79550J79550D01*
G01*
X14355389Y23773588D01*
G75*
G02*
X14514489Y23773588I79550J-79550D01*
G01*
X14673588Y23614489D01*
G75*
G02*
X14673588Y23455389I-79550J-79550D01*
G01*
X14472063Y23253864D01*
G75*
G02*
X14312963Y23253864I-79550J79550D01*
G01*
G37*
G36*
G01*
X14265511Y24206412D02*
X14106412Y24365511D01*
G75*
G02*
X14106412Y24524611I79550J79550D01*
G01*
X14307937Y24726136D01*
G75*
G02*
X14467037Y24726136I79550J-79550D01*
G01*
X14626136Y24567037D01*
G75*
G02*
X14626136Y24407937I-79550J-79550D01*
G01*
X14424611Y24206412D01*
G75*
G02*
X14265511Y24206412I-79550J79550D01*
G01*
G37*
G36*
G01*
X13812963Y23753864D02*
X13653864Y23912963D01*
G75*
G02*
X13653864Y24072063I79550J79550D01*
G01*
X13855389Y24273588D01*
G75*
G02*
X14014489Y24273588I79550J-79550D01*
G01*
X14173588Y24114489D01*
G75*
G02*
X14173588Y23955389I-79550J-79550D01*
G01*
X13972063Y23753864D01*
G75*
G02*
X13812963Y23753864I-79550J79550D01*
G01*
G37*
G36*
G01*
X13771785Y24702686D02*
X13612686Y24861785D01*
G75*
G02*
X13612686Y25020885I79550J79550D01*
G01*
X13814211Y25222410D01*
G75*
G02*
X13973311Y25222410I79550J-79550D01*
G01*
X14132410Y25063311D01*
G75*
G02*
X14132410Y24904211I-79550J-79550D01*
G01*
X13930885Y24702686D01*
G75*
G02*
X13771785Y24702686I-79550J79550D01*
G01*
G37*
G36*
G01*
X13319237Y24250138D02*
X13160138Y24409237D01*
G75*
G02*
X13160138Y24568337I79550J79550D01*
G01*
X13361663Y24769862D01*
G75*
G02*
X13520763Y24769862I79550J-79550D01*
G01*
X13679862Y24610763D01*
G75*
G02*
X13679862Y24451663I-79550J-79550D01*
G01*
X13478337Y24250138D01*
G75*
G02*
X13319237Y24250138I-79550J79550D01*
G01*
G37*
G36*
G01*
X14952500Y28455000D02*
X14727500Y28455000D01*
G75*
G02*
X14615000Y28567500I0J112500D01*
G01*
X14615000Y28852500D01*
G75*
G02*
X14727500Y28965000I112500J0D01*
G01*
X14952500Y28965000D01*
G75*
G02*
X15065000Y28852500I0J-112500D01*
G01*
X15065000Y28567500D01*
G75*
G02*
X14952500Y28455000I-112500J0D01*
G01*
G37*
G36*
G01*
X14952500Y27815000D02*
X14727500Y27815000D01*
G75*
G02*
X14615000Y27927500I0J112500D01*
G01*
X14615000Y28212500D01*
G75*
G02*
X14727500Y28325000I112500J0D01*
G01*
X14952500Y28325000D01*
G75*
G02*
X15065000Y28212500I0J-112500D01*
G01*
X15065000Y27927500D01*
G75*
G02*
X14952500Y27815000I-112500J0D01*
G01*
G37*
G36*
G01*
X11242500Y30635000D02*
X11017500Y30635000D01*
G75*
G02*
X10905000Y30747500I0J112500D01*
G01*
X10905000Y31032500D01*
G75*
G02*
X11017500Y31145000I112500J0D01*
G01*
X11242500Y31145000D01*
G75*
G02*
X11355000Y31032500I0J-112500D01*
G01*
X11355000Y30747500D01*
G75*
G02*
X11242500Y30635000I-112500J0D01*
G01*
G37*
G36*
G01*
X11242500Y29995000D02*
X11017500Y29995000D01*
G75*
G02*
X10905000Y30107500I0J112500D01*
G01*
X10905000Y30392500D01*
G75*
G02*
X11017500Y30505000I112500J0D01*
G01*
X11242500Y30505000D01*
G75*
G02*
X11355000Y30392500I0J-112500D01*
G01*
X11355000Y30107500D01*
G75*
G02*
X11242500Y29995000I-112500J0D01*
G01*
G37*
G36*
G01*
X14405000Y31652500D02*
X14405000Y31427500D01*
G75*
G02*
X14292500Y31315000I-112500J0D01*
G01*
X14007500Y31315000D01*
G75*
G02*
X13895000Y31427500I0J112500D01*
G01*
X13895000Y31652500D01*
G75*
G02*
X14007500Y31765000I112500J0D01*
G01*
X14292500Y31765000D01*
G75*
G02*
X14405000Y31652500I0J-112500D01*
G01*
G37*
G36*
G01*
X15045000Y31652500D02*
X15045000Y31427500D01*
G75*
G02*
X14932500Y31315000I-112500J0D01*
G01*
X14647500Y31315000D01*
G75*
G02*
X14535000Y31427500I0J112500D01*
G01*
X14535000Y31652500D01*
G75*
G02*
X14647500Y31765000I112500J0D01*
G01*
X14932500Y31765000D01*
G75*
G02*
X15045000Y31652500I0J-112500D01*
G01*
G37*
G36*
G01*
X3442357Y2385737D02*
X3184263Y2127643D01*
G75*
G02*
X2968595Y2127643I-107834J107834D01*
G01*
X2752927Y2343311D01*
G75*
G02*
X2752927Y2558979I107834J107834D01*
G01*
X3011021Y2817073D01*
G75*
G02*
X3226689Y2817073I107834J-107834D01*
G01*
X3442357Y2601405D01*
G75*
G02*
X3442357Y2385737I-107834J-107834D01*
G01*
G37*
G36*
G01*
X4121179Y1706915D02*
X3863085Y1448821D01*
G75*
G02*
X3647417Y1448821I-107834J107834D01*
G01*
X3431749Y1664489D01*
G75*
G02*
X3431749Y1880157I107834J107834D01*
G01*
X3689843Y2138251D01*
G75*
G02*
X3905511Y2138251I107834J-107834D01*
G01*
X4121179Y1922583D01*
G75*
G02*
X4121179Y1706915I-107834J-107834D01*
G01*
G37*
G36*
G01*
X14395000Y33052500D02*
X14395000Y32827500D01*
G75*
G02*
X14282500Y32715000I-112500J0D01*
G01*
X13997500Y32715000D01*
G75*
G02*
X13885000Y32827500I0J112500D01*
G01*
X13885000Y33052500D01*
G75*
G02*
X13997500Y33165000I112500J0D01*
G01*
X14282500Y33165000D01*
G75*
G02*
X14395000Y33052500I0J-112500D01*
G01*
G37*
G36*
G01*
X15035000Y33052500D02*
X15035000Y32827500D01*
G75*
G02*
X14922500Y32715000I-112500J0D01*
G01*
X14637500Y32715000D01*
G75*
G02*
X14525000Y32827500I0J112500D01*
G01*
X14525000Y33052500D01*
G75*
G02*
X14637500Y33165000I112500J0D01*
G01*
X14922500Y33165000D01*
G75*
G02*
X15035000Y33052500I0J-112500D01*
G01*
G37*
G36*
G01*
X12662500Y30635000D02*
X12437500Y30635000D01*
G75*
G02*
X12325000Y30747500I0J112500D01*
G01*
X12325000Y31032500D01*
G75*
G02*
X12437500Y31145000I112500J0D01*
G01*
X12662500Y31145000D01*
G75*
G02*
X12775000Y31032500I0J-112500D01*
G01*
X12775000Y30747500D01*
G75*
G02*
X12662500Y30635000I-112500J0D01*
G01*
G37*
G36*
G01*
X12662500Y29995000D02*
X12437500Y29995000D01*
G75*
G02*
X12325000Y30107500I0J112500D01*
G01*
X12325000Y30392500D01*
G75*
G02*
X12437500Y30505000I112500J0D01*
G01*
X12662500Y30505000D01*
G75*
G02*
X12775000Y30392500I0J-112500D01*
G01*
X12775000Y30107500D01*
G75*
G02*
X12662500Y29995000I-112500J0D01*
G01*
G37*
G36*
G01*
X14535000Y32127500D02*
X14535000Y32352500D01*
G75*
G02*
X14647500Y32465000I112500J0D01*
G01*
X14932500Y32465000D01*
G75*
G02*
X15045000Y32352500I0J-112500D01*
G01*
X15045000Y32127500D01*
G75*
G02*
X14932500Y32015000I-112500J0D01*
G01*
X14647500Y32015000D01*
G75*
G02*
X14535000Y32127500I0J112500D01*
G01*
G37*
G36*
G01*
X13895000Y32127500D02*
X13895000Y32352500D01*
G75*
G02*
X14007500Y32465000I112500J0D01*
G01*
X14292500Y32465000D01*
G75*
G02*
X14405000Y32352500I0J-112500D01*
G01*
X14405000Y32127500D01*
G75*
G02*
X14292500Y32015000I-112500J0D01*
G01*
X14007500Y32015000D01*
G75*
G02*
X13895000Y32127500I0J112500D01*
G01*
G37*
G36*
G01*
X14606412Y25104489D02*
X14765511Y25263588D01*
G75*
G02*
X14924611Y25263588I79550J-79550D01*
G01*
X15126136Y25062063D01*
G75*
G02*
X15126136Y24902963I-79550J-79550D01*
G01*
X14967037Y24743864D01*
G75*
G02*
X14807937Y24743864I-79550J79550D01*
G01*
X14606412Y24945389D01*
G75*
G02*
X14606412Y25104489I79550J79550D01*
G01*
G37*
G36*
G01*
X14153864Y25557037D02*
X14312963Y25716136D01*
G75*
G02*
X14472063Y25716136I79550J-79550D01*
G01*
X14673588Y25514611D01*
G75*
G02*
X14673588Y25355511I-79550J-79550D01*
G01*
X14514489Y25196412D01*
G75*
G02*
X14355389Y25196412I-79550J79550D01*
G01*
X14153864Y25397937D01*
G75*
G02*
X14153864Y25557037I79550J79550D01*
G01*
G37*
G36*
G01*
X13410138Y8130763D02*
X13569237Y8289862D01*
G75*
G02*
X13728337Y8289862I79550J-79550D01*
G01*
X13929862Y8088337D01*
G75*
G02*
X13929862Y7929237I-79550J-79550D01*
G01*
X13770763Y7770138D01*
G75*
G02*
X13611663Y7770138I-79550J79550D01*
G01*
X13410138Y7971663D01*
G75*
G02*
X13410138Y8130763I79550J79550D01*
G01*
G37*
G36*
G01*
X12957590Y8583311D02*
X13116689Y8742410D01*
G75*
G02*
X13275789Y8742410I79550J-79550D01*
G01*
X13477314Y8540885D01*
G75*
G02*
X13477314Y8381785I-79550J-79550D01*
G01*
X13318215Y8222686D01*
G75*
G02*
X13159115Y8222686I-79550J79550D01*
G01*
X12957590Y8424211D01*
G75*
G02*
X12957590Y8583311I79550J79550D01*
G01*
G37*
G36*
G01*
X11260138Y5990763D02*
X11419237Y6149862D01*
G75*
G02*
X11578337Y6149862I79550J-79550D01*
G01*
X11779862Y5948337D01*
G75*
G02*
X11779862Y5789237I-79550J-79550D01*
G01*
X11620763Y5630138D01*
G75*
G02*
X11461663Y5630138I-79550J79550D01*
G01*
X11260138Y5831663D01*
G75*
G02*
X11260138Y5990763I79550J79550D01*
G01*
G37*
G36*
G01*
X10807590Y6443311D02*
X10966689Y6602410D01*
G75*
G02*
X11125789Y6602410I79550J-79550D01*
G01*
X11327314Y6400885D01*
G75*
G02*
X11327314Y6241785I-79550J-79550D01*
G01*
X11168215Y6082686D01*
G75*
G02*
X11009115Y6082686I-79550J79550D01*
G01*
X10807590Y6284211D01*
G75*
G02*
X10807590Y6443311I79550J79550D01*
G01*
G37*
G36*
G01*
X11335285Y6966621D02*
X11593379Y7224715D01*
G75*
G02*
X11809047Y7224715I107834J-107834D01*
G01*
X12024715Y7009047D01*
G75*
G02*
X12024715Y6793379I-107834J-107834D01*
G01*
X11766621Y6535285D01*
G75*
G02*
X11550953Y6535285I-107834J107834D01*
G01*
X11335285Y6750953D01*
G75*
G02*
X11335285Y6966621I107834J107834D01*
G01*
G37*
G36*
G01*
X12014107Y6287799D02*
X12272201Y6545893D01*
G75*
G02*
X12487869Y6545893I107834J-107834D01*
G01*
X12703537Y6330225D01*
G75*
G02*
X12703537Y6114557I-107834J-107834D01*
G01*
X12445443Y5856463D01*
G75*
G02*
X12229775Y5856463I-107834J107834D01*
G01*
X12014107Y6072131D01*
G75*
G02*
X12014107Y6287799I107834J107834D01*
G01*
G37*
G36*
G01*
X2937500Y21525000D02*
X3162500Y21525000D01*
G75*
G02*
X3275000Y21412500I0J-112500D01*
G01*
X3275000Y21127500D01*
G75*
G02*
X3162500Y21015000I-112500J0D01*
G01*
X2937500Y21015000D01*
G75*
G02*
X2825000Y21127500I0J112500D01*
G01*
X2825000Y21412500D01*
G75*
G02*
X2937500Y21525000I112500J0D01*
G01*
G37*
G36*
G01*
X2937500Y22165000D02*
X3162500Y22165000D01*
G75*
G02*
X3275000Y22052500I0J-112500D01*
G01*
X3275000Y21767500D01*
G75*
G02*
X3162500Y21655000I-112500J0D01*
G01*
X2937500Y21655000D01*
G75*
G02*
X2825000Y21767500I0J112500D01*
G01*
X2825000Y22052500D01*
G75*
G02*
X2937500Y22165000I112500J0D01*
G01*
G37*
M02*
