G04 #@! TF.GenerationSoftware,KiCad,Pcbnew,5.1.8-1.fc33*
G04 #@! TF.CreationDate,2020-12-01T15:42:06+01:00*
G04 #@! TF.ProjectId,reDIP-sx,72654449-502d-4737-982e-6b696361645f,0.1*
G04 #@! TF.SameCoordinates,PX5e28010PY8011a50*
G04 #@! TF.FileFunction,Legend,Bot*
G04 #@! TF.FilePolarity,Positive*
%FSLAX46Y46*%
G04 Gerber Fmt 4.6, Leading zero omitted, Abs format (unit mm)*
G04 Created by KiCad (PCBNEW 5.1.8-1.fc33) date 2020-12-01 15:42:06*
%MOMM*%
%LPD*%
G01*
G04 APERTURE LIST*
%ADD10C,0.120000*%
%ADD11C,0.150000*%
%ADD12C,0.100000*%
G04 APERTURE END LIST*
D10*
X6874285Y8112858D02*
X6902857Y8141429D01*
X6931428Y8227143D01*
X6931428Y8284286D01*
X6902857Y8370000D01*
X6845714Y8427143D01*
X6788571Y8455715D01*
X6674285Y8484286D01*
X6588571Y8484286D01*
X6474285Y8455715D01*
X6417142Y8427143D01*
X6360000Y8370000D01*
X6331428Y8284286D01*
X6331428Y8227143D01*
X6360000Y8141429D01*
X6388571Y8112858D01*
X6617142Y7855715D02*
X6617142Y7655715D01*
X6931428Y7570000D02*
X6931428Y7855715D01*
X6331428Y7855715D01*
X6331428Y7570000D01*
X6931428Y6970000D02*
X6645714Y7170000D01*
X6931428Y7312858D02*
X6331428Y7312858D01*
X6331428Y7084286D01*
X6360000Y7027143D01*
X6388571Y6998572D01*
X6445714Y6970000D01*
X6531428Y6970000D01*
X6588571Y6998572D01*
X6617142Y7027143D01*
X6645714Y7084286D01*
X6645714Y7312858D01*
X6931428Y6712858D02*
X6331428Y6712858D01*
X6931428Y6370000D01*
X6331428Y6370000D01*
X6702857Y6084286D02*
X6702857Y5627143D01*
X6331428Y5227143D02*
X6331428Y5112858D01*
X6360000Y5055715D01*
X6417142Y4998572D01*
X6531428Y4970000D01*
X6731428Y4970000D01*
X6845714Y4998572D01*
X6902857Y5055715D01*
X6931428Y5112858D01*
X6931428Y5227143D01*
X6902857Y5284286D01*
X6845714Y5341429D01*
X6731428Y5370000D01*
X6531428Y5370000D01*
X6417142Y5341429D01*
X6360000Y5284286D01*
X6331428Y5227143D01*
X6931428Y4712858D02*
X6331428Y4712858D01*
X6617142Y4712858D02*
X6617142Y4370000D01*
X6931428Y4370000D02*
X6331428Y4370000D01*
X6931428Y3798572D02*
X6931428Y4084286D01*
X6331428Y4084286D01*
X6702857Y3598572D02*
X6702857Y3141429D01*
X6902857Y2884286D02*
X6931428Y2798572D01*
X6931428Y2655715D01*
X6902857Y2598572D01*
X6874285Y2570000D01*
X6817142Y2541429D01*
X6760000Y2541429D01*
X6702857Y2570000D01*
X6674285Y2598572D01*
X6645714Y2655715D01*
X6617142Y2770000D01*
X6588571Y2827143D01*
X6560000Y2855715D01*
X6502857Y2884286D01*
X6445714Y2884286D01*
X6388571Y2855715D01*
X6360000Y2827143D01*
X6331428Y2770000D01*
X6331428Y2627143D01*
X6360000Y2541429D01*
X6531428Y1884286D02*
X6931428Y1741429D01*
X6531428Y1598572D01*
X6388571Y1398572D02*
X6360000Y1370000D01*
X6331428Y1312858D01*
X6331428Y1170000D01*
X6360000Y1112858D01*
X6388571Y1084286D01*
X6445714Y1055715D01*
X6502857Y1055715D01*
X6588571Y1084286D01*
X6931428Y1427143D01*
X6931428Y1055715D01*
X3001428Y26555715D02*
X3401428Y26555715D01*
X2772857Y26698572D02*
X3201428Y26841429D01*
X3201428Y26470000D01*
X3610000Y25400000D02*
X3810000Y25400000D01*
X5670000Y30740000D02*
X5370000Y31040000D01*
X5970000Y31040000D02*
X5670000Y30740000D01*
X5670000Y32370000D02*
X5670000Y30740000D01*
X5670000Y33690000D02*
X5670000Y34980000D01*
X5670000Y34980000D02*
X5970000Y34680000D01*
X5370000Y34680000D02*
X5670000Y34980000D01*
X12130000Y34980000D02*
X12430000Y34680000D01*
X11830000Y34680000D02*
X12130000Y34980000D01*
X12130000Y33690000D02*
X12130000Y34980000D01*
X11580000Y33688572D02*
X11580000Y34288572D01*
X11237142Y33688572D01*
X11237142Y34288572D01*
X10865714Y33688572D02*
X10922857Y33717143D01*
X10951428Y33745715D01*
X10980000Y33802858D01*
X10980000Y33974286D01*
X10951428Y34031429D01*
X10922857Y34060000D01*
X10865714Y34088572D01*
X10780000Y34088572D01*
X10722857Y34060000D01*
X10694285Y34031429D01*
X10665714Y33974286D01*
X10665714Y33802858D01*
X10694285Y33745715D01*
X10722857Y33717143D01*
X10780000Y33688572D01*
X10865714Y33688572D01*
X9980000Y33717143D02*
X9894285Y33688572D01*
X9751428Y33688572D01*
X9694285Y33717143D01*
X9665714Y33745715D01*
X9637142Y33802858D01*
X9637142Y33860000D01*
X9665714Y33917143D01*
X9694285Y33945715D01*
X9751428Y33974286D01*
X9865714Y34002858D01*
X9922857Y34031429D01*
X9951428Y34060000D01*
X9980000Y34117143D01*
X9980000Y34174286D01*
X9951428Y34231429D01*
X9922857Y34260000D01*
X9865714Y34288572D01*
X9722857Y34288572D01*
X9637142Y34260000D01*
X9380000Y33688572D02*
X9380000Y34288572D01*
X9094285Y33688572D02*
X9094285Y34288572D01*
X8951428Y34288572D01*
X8865714Y34260000D01*
X8808571Y34202858D01*
X8780000Y34145715D01*
X8751428Y34031429D01*
X8751428Y33945715D01*
X8780000Y33831429D01*
X8808571Y33774286D01*
X8865714Y33717143D01*
X8951428Y33688572D01*
X9094285Y33688572D01*
X8037142Y34088572D02*
X8037142Y33488572D01*
X8037142Y34060000D02*
X7980000Y34088572D01*
X7865714Y34088572D01*
X7808571Y34060000D01*
X7780000Y34031429D01*
X7751428Y33974286D01*
X7751428Y33802858D01*
X7780000Y33745715D01*
X7808571Y33717143D01*
X7865714Y33688572D01*
X7980000Y33688572D01*
X8037142Y33717143D01*
X7494285Y33688572D02*
X7494285Y34088572D01*
X7494285Y34288572D02*
X7522857Y34260000D01*
X7494285Y34231429D01*
X7465714Y34260000D01*
X7494285Y34288572D01*
X7494285Y34231429D01*
X7208571Y34088572D02*
X7208571Y33688572D01*
X7208571Y34031429D02*
X7180000Y34060000D01*
X7122857Y34088572D01*
X7037142Y34088572D01*
X6980000Y34060000D01*
X6951428Y34002858D01*
X6951428Y33688572D01*
X6694285Y33717143D02*
X6637142Y33688572D01*
X6522857Y33688572D01*
X6465714Y33717143D01*
X6437142Y33774286D01*
X6437142Y33802858D01*
X6465714Y33860000D01*
X6522857Y33888572D01*
X6608571Y33888572D01*
X6665714Y33917143D01*
X6694285Y33974286D01*
X6694285Y34002858D01*
X6665714Y34060000D01*
X6608571Y34088572D01*
X6522857Y34088572D01*
X6465714Y34060000D01*
X6180000Y33745715D02*
X6151428Y33717143D01*
X6180000Y33688572D01*
X6208571Y33717143D01*
X6180000Y33745715D01*
X6180000Y33688572D01*
X6180000Y33917143D02*
X6208571Y34260000D01*
X6180000Y34288572D01*
X6151428Y34260000D01*
X6180000Y33917143D01*
X6180000Y34288572D01*
X14381428Y27470000D02*
X14981428Y27270000D01*
X14381428Y27070000D01*
X14924285Y26527143D02*
X14952857Y26555715D01*
X14981428Y26641429D01*
X14981428Y26698572D01*
X14952857Y26784286D01*
X14895714Y26841429D01*
X14838571Y26870000D01*
X14724285Y26898572D01*
X14638571Y26898572D01*
X14524285Y26870000D01*
X14467142Y26841429D01*
X14410000Y26784286D01*
X14381428Y26698572D01*
X14381428Y26641429D01*
X14410000Y26555715D01*
X14438571Y26527143D01*
X14924285Y25927143D02*
X14952857Y25955715D01*
X14981428Y26041429D01*
X14981428Y26098572D01*
X14952857Y26184286D01*
X14895714Y26241429D01*
X14838571Y26270000D01*
X14724285Y26298572D01*
X14638571Y26298572D01*
X14524285Y26270000D01*
X14467142Y26241429D01*
X14410000Y26184286D01*
X14381428Y26098572D01*
X14381428Y26041429D01*
X14410000Y25955715D01*
X14438571Y25927143D01*
X2801428Y23987143D02*
X2801428Y24272858D01*
X3087142Y24301429D01*
X3058571Y24272858D01*
X3030000Y24215715D01*
X3030000Y24072858D01*
X3058571Y24015715D01*
X3087142Y23987143D01*
X3144285Y23958572D01*
X3287142Y23958572D01*
X3344285Y23987143D01*
X3372857Y24015715D01*
X3401428Y24072858D01*
X3401428Y24215715D01*
X3372857Y24272858D01*
X3344285Y24301429D01*
X3401428Y34118572D02*
X3401428Y34461429D01*
X3401428Y34290000D02*
X2801428Y34290000D01*
X2887142Y34347143D01*
X2944285Y34404286D01*
X2972857Y34461429D01*
X14438571Y32207143D02*
X14410000Y32178572D01*
X14381428Y32121429D01*
X14381428Y31978572D01*
X14410000Y31921429D01*
X14438571Y31892858D01*
X14495714Y31864286D01*
X14552857Y31864286D01*
X14638571Y31892858D01*
X14981428Y32235715D01*
X14981428Y31864286D01*
X14381428Y31664286D02*
X14381428Y31264286D01*
X14981428Y31521429D01*
X12430000Y31040000D02*
X12130000Y30740000D01*
X12130000Y30740000D02*
X11830000Y31040000D01*
X12130000Y32370000D02*
X12130000Y30740000D01*
X3810000Y25400000D02*
X3810000Y33020000D01*
X14170000Y33020000D02*
X3810000Y33020000D01*
X2810000Y1727143D02*
X2781428Y1784286D01*
X2781428Y1870000D01*
X2810000Y1955715D01*
X2867142Y2012858D01*
X2924285Y2041429D01*
X3038571Y2070000D01*
X3124285Y2070000D01*
X3238571Y2041429D01*
X3295714Y2012858D01*
X3352857Y1955715D01*
X3381428Y1870000D01*
X3381428Y1812858D01*
X3352857Y1727143D01*
X3324285Y1698572D01*
X3124285Y1698572D01*
X3124285Y1812858D01*
X3381428Y1441429D02*
X2781428Y1441429D01*
X3381428Y1098572D01*
X2781428Y1098572D01*
X3381428Y812858D02*
X2781428Y812858D01*
X2781428Y670000D01*
X2810000Y584286D01*
X2867142Y527143D01*
X2924285Y498572D01*
X3038571Y470000D01*
X3124285Y470000D01*
X3238571Y498572D01*
X3295714Y527143D01*
X3352857Y584286D01*
X3381428Y670000D01*
X3381428Y812858D01*
X17580000Y33020000D02*
X14170000Y33020000D01*
X10608571Y31176191D02*
X11408571Y31176191D01*
X10646666Y31176191D02*
X10608571Y31100000D01*
X10608571Y30947620D01*
X10646666Y30871429D01*
X10684761Y30833334D01*
X10760952Y30795239D01*
X10989523Y30795239D01*
X11065714Y30833334D01*
X11103809Y30871429D01*
X11141904Y30947620D01*
X11141904Y31100000D01*
X11103809Y31176191D01*
X11141904Y30452381D02*
X10608571Y30452381D01*
X10341904Y30452381D02*
X10380000Y30490477D01*
X10418095Y30452381D01*
X10380000Y30414286D01*
X10341904Y30452381D01*
X10418095Y30452381D01*
X10608571Y30071429D02*
X11141904Y30071429D01*
X10684761Y30071429D02*
X10646666Y30033334D01*
X10608571Y29957143D01*
X10608571Y29842858D01*
X10646666Y29766667D01*
X10722857Y29728572D01*
X11141904Y29728572D01*
X11141904Y29233334D02*
X11103809Y29309524D01*
X11065714Y29347620D01*
X10989523Y29385715D01*
X10760952Y29385715D01*
X10684761Y29347620D01*
X10646666Y29309524D01*
X10608571Y29233334D01*
X10608571Y29119048D01*
X10646666Y29042858D01*
X10684761Y29004762D01*
X10760952Y28966667D01*
X10989523Y28966667D01*
X11065714Y29004762D01*
X11103809Y29042858D01*
X11141904Y29119048D01*
X11141904Y29233334D01*
X10608571Y28280953D02*
X11141904Y28280953D01*
X10608571Y28623810D02*
X11027619Y28623810D01*
X11103809Y28585715D01*
X11141904Y28509524D01*
X11141904Y28395239D01*
X11103809Y28319048D01*
X11065714Y28280953D01*
X10608571Y28014286D02*
X10608571Y27709524D01*
X10341904Y27900000D02*
X11027619Y27900000D01*
X11103809Y27861905D01*
X11141904Y27785715D01*
X11141904Y27709524D01*
X2268237Y34290000D02*
G75*
G03*
X2268237Y34290000I-1000000J0D01*
G01*
X3610000Y25400000D02*
X200000Y25400000D01*
X3610000Y35560000D02*
X200000Y35560000D01*
X17580000Y35560000D02*
X14170000Y35560000D01*
X11141428Y36293429D02*
X11141428Y36579143D01*
X10541428Y36579143D01*
X11141428Y36093429D02*
X10541428Y36093429D01*
X11141428Y35750572D01*
X10541428Y35750572D01*
X11141428Y35122000D02*
X10855714Y35322000D01*
X11141428Y35464858D02*
X10541428Y35464858D01*
X10541428Y35236286D01*
X10570000Y35179143D01*
X10598571Y35150572D01*
X10655714Y35122000D01*
X10741428Y35122000D01*
X10798571Y35150572D01*
X10827142Y35179143D01*
X10855714Y35236286D01*
X10855714Y35464858D01*
X7161428Y36293429D02*
X7161428Y36579143D01*
X6561428Y36579143D01*
X7161428Y36093429D02*
X6561428Y36093429D01*
X7161428Y35750572D01*
X6561428Y35750572D01*
X7161428Y35179143D02*
X7161428Y35464858D01*
X6561428Y35464858D01*
X8590000Y36264858D02*
X8561428Y36322000D01*
X8561428Y36407715D01*
X8590000Y36493429D01*
X8647142Y36550572D01*
X8704285Y36579143D01*
X8818571Y36607715D01*
X8904285Y36607715D01*
X9018571Y36579143D01*
X9075714Y36550572D01*
X9132857Y36493429D01*
X9161428Y36407715D01*
X9161428Y36350572D01*
X9132857Y36264858D01*
X9104285Y36236286D01*
X8904285Y36236286D01*
X8904285Y36350572D01*
X9161428Y35979143D02*
X8561428Y35979143D01*
X9161428Y35636286D01*
X8561428Y35636286D01*
X9161428Y35350572D02*
X8561428Y35350572D01*
X8561428Y35207715D01*
X8590000Y35122000D01*
X8647142Y35064858D01*
X8704285Y35036286D01*
X8818571Y35007715D01*
X8904285Y35007715D01*
X9018571Y35036286D01*
X9075714Y35064858D01*
X9132857Y35122000D01*
X9161428Y35207715D01*
X9161428Y35350572D01*
D11*
X8777619Y30751905D02*
X8777619Y30961429D01*
X8830000Y31066191D01*
X8882380Y31118572D01*
X9039523Y31223334D01*
X9249047Y31275715D01*
X9668095Y31275715D01*
X9772857Y31223334D01*
X9825238Y31170953D01*
X9877619Y31066191D01*
X9877619Y30856667D01*
X9825238Y30751905D01*
X9772857Y30699524D01*
X9668095Y30647143D01*
X9406190Y30647143D01*
X9301428Y30699524D01*
X9249047Y30751905D01*
X9196666Y30856667D01*
X9196666Y31066191D01*
X9249047Y31170953D01*
X9301428Y31223334D01*
X9406190Y31275715D01*
X8777619Y29651905D02*
X8777619Y30175715D01*
X9301428Y30228096D01*
X9249047Y30175715D01*
X9196666Y30070953D01*
X9196666Y29809048D01*
X9249047Y29704286D01*
X9301428Y29651905D01*
X9406190Y29599524D01*
X9668095Y29599524D01*
X9772857Y29651905D01*
X9825238Y29704286D01*
X9877619Y29809048D01*
X9877619Y30070953D01*
X9825238Y30175715D01*
X9772857Y30228096D01*
X9249047Y28970953D02*
X9196666Y29075715D01*
X9144285Y29128096D01*
X9039523Y29180477D01*
X8987142Y29180477D01*
X8882380Y29128096D01*
X8830000Y29075715D01*
X8777619Y28970953D01*
X8777619Y28761429D01*
X8830000Y28656667D01*
X8882380Y28604286D01*
X8987142Y28551905D01*
X9039523Y28551905D01*
X9144285Y28604286D01*
X9196666Y28656667D01*
X9249047Y28761429D01*
X9249047Y28970953D01*
X9301428Y29075715D01*
X9353809Y29128096D01*
X9458571Y29180477D01*
X9668095Y29180477D01*
X9772857Y29128096D01*
X9825238Y29075715D01*
X9877619Y28970953D01*
X9877619Y28761429D01*
X9825238Y28656667D01*
X9772857Y28604286D01*
X9668095Y28551905D01*
X9458571Y28551905D01*
X9353809Y28604286D01*
X9301428Y28656667D01*
X9249047Y28761429D01*
X9877619Y27504286D02*
X9877619Y28132858D01*
X9877619Y27818572D02*
X8777619Y27818572D01*
X8934761Y27923334D01*
X9039523Y28028096D01*
X9091904Y28132858D01*
X3632380Y10441429D02*
X3594285Y10517620D01*
X3594285Y10670000D01*
X3632380Y10746191D01*
X3708571Y10822381D01*
X3784761Y10860477D01*
X3937142Y10860477D01*
X4013333Y10822381D01*
X4089523Y10746191D01*
X4127619Y10670000D01*
X4127619Y10517620D01*
X4089523Y10441429D01*
X3327619Y10593810D02*
X3365714Y10784286D01*
X3480000Y10974762D01*
X3670476Y11089048D01*
X3860952Y11127143D01*
X4051428Y11089048D01*
X4241904Y10974762D01*
X4356190Y10784286D01*
X4394285Y10593810D01*
X4356190Y10403334D01*
X4241904Y10212858D01*
X4051428Y10098572D01*
X3860952Y10060477D01*
X3670476Y10098572D01*
X3480000Y10212858D01*
X3365714Y10403334D01*
X3327619Y10593810D01*
X3518095Y9755715D02*
X3480000Y9717620D01*
X3441904Y9641429D01*
X3441904Y9450953D01*
X3480000Y9374762D01*
X3518095Y9336667D01*
X3594285Y9298572D01*
X3670476Y9298572D01*
X3784761Y9336667D01*
X4241904Y9793810D01*
X4241904Y9298572D01*
X3441904Y8803334D02*
X3441904Y8727143D01*
X3480000Y8650953D01*
X3518095Y8612858D01*
X3594285Y8574762D01*
X3746666Y8536667D01*
X3937142Y8536667D01*
X4089523Y8574762D01*
X4165714Y8612858D01*
X4203809Y8650953D01*
X4241904Y8727143D01*
X4241904Y8803334D01*
X4203809Y8879524D01*
X4165714Y8917620D01*
X4089523Y8955715D01*
X3937142Y8993810D01*
X3746666Y8993810D01*
X3594285Y8955715D01*
X3518095Y8917620D01*
X3480000Y8879524D01*
X3441904Y8803334D01*
X3518095Y8231905D02*
X3480000Y8193810D01*
X3441904Y8117620D01*
X3441904Y7927143D01*
X3480000Y7850953D01*
X3518095Y7812858D01*
X3594285Y7774762D01*
X3670476Y7774762D01*
X3784761Y7812858D01*
X4241904Y8270000D01*
X4241904Y7774762D01*
X3441904Y7279524D02*
X3441904Y7203334D01*
X3480000Y7127143D01*
X3518095Y7089048D01*
X3594285Y7050953D01*
X3746666Y7012858D01*
X3937142Y7012858D01*
X4089523Y7050953D01*
X4165714Y7089048D01*
X4203809Y7127143D01*
X4241904Y7203334D01*
X4241904Y7279524D01*
X4203809Y7355715D01*
X4165714Y7393810D01*
X4089523Y7431905D01*
X3937142Y7470000D01*
X3746666Y7470000D01*
X3594285Y7431905D01*
X3518095Y7393810D01*
X3480000Y7355715D01*
X3441904Y7279524D01*
X5561904Y9678096D02*
X4761904Y9678096D01*
X4761904Y9487620D01*
X4800000Y9373334D01*
X4876190Y9297143D01*
X4952380Y9259048D01*
X5104761Y9220953D01*
X5219047Y9220953D01*
X5371428Y9259048D01*
X5447619Y9297143D01*
X5523809Y9373334D01*
X5561904Y9487620D01*
X5561904Y9678096D01*
X5561904Y8535239D02*
X5142857Y8535239D01*
X5066666Y8573334D01*
X5028571Y8649524D01*
X5028571Y8801905D01*
X5066666Y8878096D01*
X5523809Y8535239D02*
X5561904Y8611429D01*
X5561904Y8801905D01*
X5523809Y8878096D01*
X5447619Y8916191D01*
X5371428Y8916191D01*
X5295238Y8878096D01*
X5257142Y8801905D01*
X5257142Y8611429D01*
X5219047Y8535239D01*
X5028571Y7811429D02*
X5676190Y7811429D01*
X5752380Y7849524D01*
X5790476Y7887620D01*
X5828571Y7963810D01*
X5828571Y8078096D01*
X5790476Y8154286D01*
X5523809Y7811429D02*
X5561904Y7887620D01*
X5561904Y8040000D01*
X5523809Y8116191D01*
X5485714Y8154286D01*
X5409523Y8192381D01*
X5180952Y8192381D01*
X5104761Y8154286D01*
X5066666Y8116191D01*
X5028571Y8040000D01*
X5028571Y7887620D01*
X5066666Y7811429D01*
X5561904Y6440000D02*
X5561904Y6820953D01*
X4761904Y6820953D01*
X5523809Y5868572D02*
X5561904Y5944762D01*
X5561904Y6097143D01*
X5523809Y6173334D01*
X5447619Y6211429D01*
X5142857Y6211429D01*
X5066666Y6173334D01*
X5028571Y6097143D01*
X5028571Y5944762D01*
X5066666Y5868572D01*
X5142857Y5830477D01*
X5219047Y5830477D01*
X5295238Y6211429D01*
X5561904Y5487620D02*
X5028571Y5487620D01*
X5104761Y5487620D02*
X5066666Y5449524D01*
X5028571Y5373334D01*
X5028571Y5259048D01*
X5066666Y5182858D01*
X5142857Y5144762D01*
X5561904Y5144762D01*
X5142857Y5144762D02*
X5066666Y5106667D01*
X5028571Y5030477D01*
X5028571Y4916191D01*
X5066666Y4840000D01*
X5142857Y4801905D01*
X5561904Y4801905D01*
D10*
X11492857Y25204286D02*
X11521428Y25118572D01*
X11521428Y24975715D01*
X11492857Y24918572D01*
X11464285Y24890000D01*
X11407142Y24861429D01*
X11350000Y24861429D01*
X11292857Y24890000D01*
X11264285Y24918572D01*
X11235714Y24975715D01*
X11207142Y25090000D01*
X11178571Y25147143D01*
X11150000Y25175715D01*
X11092857Y25204286D01*
X11035714Y25204286D01*
X10978571Y25175715D01*
X10950000Y25147143D01*
X10921428Y25090000D01*
X10921428Y24947143D01*
X10950000Y24861429D01*
X11464285Y24261429D02*
X11492857Y24290000D01*
X11521428Y24375715D01*
X11521428Y24432858D01*
X11492857Y24518572D01*
X11435714Y24575715D01*
X11378571Y24604286D01*
X11264285Y24632858D01*
X11178571Y24632858D01*
X11064285Y24604286D01*
X11007142Y24575715D01*
X10950000Y24518572D01*
X10921428Y24432858D01*
X10921428Y24375715D01*
X10950000Y24290000D01*
X10978571Y24261429D01*
X11521428Y23718572D02*
X11521428Y24004286D01*
X10921428Y24004286D01*
X10092857Y26488572D02*
X10121428Y26402858D01*
X10121428Y26260000D01*
X10092857Y26202858D01*
X10064285Y26174286D01*
X10007142Y26145715D01*
X9950000Y26145715D01*
X9892857Y26174286D01*
X9864285Y26202858D01*
X9835714Y26260000D01*
X9807142Y26374286D01*
X9778571Y26431429D01*
X9750000Y26460000D01*
X9692857Y26488572D01*
X9635714Y26488572D01*
X9578571Y26460000D01*
X9550000Y26431429D01*
X9521428Y26374286D01*
X9521428Y26231429D01*
X9550000Y26145715D01*
X10121428Y25888572D02*
X9521428Y25888572D01*
X9521428Y25745715D01*
X9550000Y25660000D01*
X9607142Y25602858D01*
X9664285Y25574286D01*
X9778571Y25545715D01*
X9864285Y25545715D01*
X9978571Y25574286D01*
X10035714Y25602858D01*
X10092857Y25660000D01*
X10121428Y25745715D01*
X10121428Y25888572D01*
X9950000Y25317143D02*
X9950000Y25031429D01*
X10121428Y25374286D02*
X9521428Y25174286D01*
X10121428Y24974286D01*
X4751428Y28451429D02*
X4751428Y28794286D01*
X4751428Y28622858D02*
X4151428Y28622858D01*
X4237142Y28680000D01*
X4294285Y28737143D01*
X4322857Y28794286D01*
X4151428Y28280000D02*
X4751428Y28080000D01*
X4151428Y27880000D01*
X4208571Y27708572D02*
X4180000Y27680000D01*
X4151428Y27622858D01*
X4151428Y27480000D01*
X4180000Y27422858D01*
X4208571Y27394286D01*
X4265714Y27365715D01*
X4322857Y27365715D01*
X4408571Y27394286D01*
X4751428Y27737143D01*
X4751428Y27365715D01*
X14381428Y35032858D02*
X14381428Y34661429D01*
X14610000Y34861429D01*
X14610000Y34775715D01*
X14638571Y34718572D01*
X14667142Y34690000D01*
X14724285Y34661429D01*
X14867142Y34661429D01*
X14924285Y34690000D01*
X14952857Y34718572D01*
X14981428Y34775715D01*
X14981428Y34947143D01*
X14952857Y35004286D01*
X14924285Y35032858D01*
X14381428Y34490000D02*
X14981428Y34290000D01*
X14381428Y34090000D01*
X14381428Y33947143D02*
X14381428Y33575715D01*
X14610000Y33775715D01*
X14610000Y33690000D01*
X14638571Y33632858D01*
X14667142Y33604286D01*
X14724285Y33575715D01*
X14867142Y33575715D01*
X14924285Y33604286D01*
X14952857Y33632858D01*
X14981428Y33690000D01*
X14981428Y33861429D01*
X14952857Y33918572D01*
X14924285Y33947143D01*
X10031428Y5171429D02*
X9431428Y5171429D01*
X9431428Y4942858D02*
X9431428Y4571429D01*
X9660000Y4771429D01*
X9660000Y4685715D01*
X9688571Y4628572D01*
X9717142Y4600000D01*
X9774285Y4571429D01*
X9917142Y4571429D01*
X9974285Y4600000D01*
X10002857Y4628572D01*
X10031428Y4685715D01*
X10031428Y4857143D01*
X10002857Y4914286D01*
X9974285Y4942858D01*
X9431428Y4028572D02*
X9431428Y4314286D01*
X9717142Y4342858D01*
X9688571Y4314286D01*
X9660000Y4257143D01*
X9660000Y4114286D01*
X9688571Y4057143D01*
X9717142Y4028572D01*
X9774285Y4000000D01*
X9917142Y4000000D01*
X9974285Y4028572D01*
X10002857Y4057143D01*
X10031428Y4114286D01*
X10031428Y4257143D01*
X10002857Y4314286D01*
X9974285Y4342858D01*
X13031428Y5805715D02*
X12431428Y5805715D01*
X12431428Y5405715D02*
X12431428Y5291429D01*
X12460000Y5234286D01*
X12517142Y5177143D01*
X12631428Y5148572D01*
X12831428Y5148572D01*
X12945714Y5177143D01*
X13002857Y5234286D01*
X13031428Y5291429D01*
X13031428Y5405715D01*
X13002857Y5462858D01*
X12945714Y5520000D01*
X12831428Y5548572D01*
X12631428Y5548572D01*
X12517142Y5520000D01*
X12460000Y5462858D01*
X12431428Y5405715D01*
X12488571Y4920000D02*
X12460000Y4891429D01*
X12431428Y4834286D01*
X12431428Y4691429D01*
X12460000Y4634286D01*
X12488571Y4605715D01*
X12545714Y4577143D01*
X12602857Y4577143D01*
X12688571Y4605715D01*
X13031428Y4948572D01*
X13031428Y4577143D01*
X12431428Y4034286D02*
X12431428Y4320000D01*
X12717142Y4348572D01*
X12688571Y4320000D01*
X12660000Y4262858D01*
X12660000Y4120000D01*
X12688571Y4062858D01*
X12717142Y4034286D01*
X12774285Y4005715D01*
X12917142Y4005715D01*
X12974285Y4034286D01*
X13002857Y4062858D01*
X13031428Y4120000D01*
X13031428Y4262858D01*
X13002857Y4320000D01*
X12974285Y4348572D01*
X4231428Y3218572D02*
X3631428Y3218572D01*
X3631428Y3075715D01*
X3660000Y2990000D01*
X3717142Y2932858D01*
X3774285Y2904286D01*
X3888571Y2875715D01*
X3974285Y2875715D01*
X4088571Y2904286D01*
X4145714Y2932858D01*
X4202857Y2990000D01*
X4231428Y3075715D01*
X4231428Y3218572D01*
X4002857Y2618572D02*
X4002857Y2161429D01*
X4231428Y2390000D02*
X3774285Y2390000D01*
X5641428Y1828572D02*
X5041428Y1828572D01*
X5041428Y1685715D01*
X5070000Y1600000D01*
X5127142Y1542858D01*
X5184285Y1514286D01*
X5298571Y1485715D01*
X5384285Y1485715D01*
X5498571Y1514286D01*
X5555714Y1542858D01*
X5612857Y1600000D01*
X5641428Y1685715D01*
X5641428Y1828572D01*
X5412857Y1228572D02*
X5412857Y771429D01*
X2875000Y17910000D02*
X14105000Y17910000D01*
X2875000Y21410000D02*
X2875000Y17910000D01*
X14905000Y21410000D02*
X2875000Y21410000D01*
X14905000Y18710000D02*
X14905000Y21410000D01*
X14105000Y17910000D02*
X14905000Y18710000D01*
X4040000Y32183641D02*
X4040000Y31876359D01*
X4800000Y32183641D02*
X4800000Y31876359D01*
D12*
G36*
X7310000Y28419214D02*
G01*
X7467156Y28431936D01*
X7616237Y28468768D01*
X7755251Y28527708D01*
X7882201Y28606755D01*
X7995094Y28703909D01*
X8091933Y28817167D01*
X8170725Y28944529D01*
X8229475Y29083993D01*
X8266188Y29233559D01*
X8278869Y29391224D01*
X8266188Y29548889D01*
X8229475Y29698454D01*
X8170725Y29837918D01*
X8091933Y29965280D01*
X7995094Y30078538D01*
X7882201Y30175692D01*
X7755251Y30254739D01*
X7616237Y30313679D01*
X7467156Y30350511D01*
X7310000Y30363233D01*
X7152844Y30350511D01*
X7003763Y30313679D01*
X6864749Y30254739D01*
X6737799Y30175692D01*
X6624906Y30078538D01*
X6528067Y29965280D01*
X6449275Y29837918D01*
X6390525Y29698454D01*
X6353812Y29548889D01*
X6341131Y29391224D01*
X6353812Y29233559D01*
X6390525Y29083993D01*
X6449275Y28944529D01*
X6528067Y28817167D01*
X6624906Y28703909D01*
X6737799Y28606755D01*
X6864749Y28527708D01*
X7003763Y28468768D01*
X7152844Y28431936D01*
X7310000Y28419214D01*
G37*
G36*
X6363579Y32323247D02*
G01*
X6363579Y31835192D01*
X6397258Y31801513D01*
X8234900Y31801513D01*
X8268579Y31835192D01*
X8268579Y32323247D01*
X8234900Y32356927D01*
X6397258Y32356927D01*
X6363579Y32323247D01*
G37*
G36*
X6360700Y31666259D02*
G01*
X6360700Y31621752D01*
X6397113Y31460943D01*
X6477416Y31320164D01*
X6592340Y31207928D01*
X6732619Y31132748D01*
X6888983Y31103137D01*
X8234268Y31103137D01*
X8268473Y31137342D01*
X8268473Y31666259D01*
X8234268Y31700464D01*
X6394906Y31700464D01*
X6360700Y31666259D01*
G37*
G36*
X6360192Y30987020D02*
G01*
X6360192Y30942622D01*
X6395944Y30773530D01*
X6482022Y30631551D01*
X6604945Y30522753D01*
X6751236Y30453205D01*
X6907414Y30428977D01*
X8235566Y30428977D01*
X8269432Y30462844D01*
X8269432Y30987020D01*
X8235566Y31020887D01*
X6394059Y31020887D01*
X6360192Y30987020D01*
G37*
G36*
X6361886Y27790920D02*
G01*
X6361886Y26575040D01*
X6395752Y26541173D01*
X6896979Y26541173D01*
X6930846Y26575040D01*
X6930846Y28291233D01*
X6896979Y28325100D01*
X6845520Y28325100D01*
X6712651Y28298068D01*
X6583150Y28230562D01*
X6471720Y28123154D01*
X6393065Y27976416D01*
X6361886Y27790920D01*
G37*
G36*
X7041572Y28290498D02*
G01*
X7041572Y26558188D01*
X7075438Y26524322D01*
X7551707Y26524322D01*
X7585574Y26558188D01*
X7585574Y28290498D01*
X7551707Y28324365D01*
X7075438Y28324365D01*
X7041572Y28290498D01*
G37*
G36*
X7692846Y28285307D02*
G01*
X7692846Y26536940D01*
X7726712Y26503073D01*
X7768432Y26503073D01*
X7873901Y26523419D01*
X7986269Y26569879D01*
X8093771Y26647262D01*
X8184642Y26760376D01*
X8247115Y26914028D01*
X8269425Y27113025D01*
X8269425Y28285307D01*
X8235559Y28319173D01*
X7726712Y28319173D01*
X7692846Y28285307D01*
G37*
G36*
X14319035Y8489591D02*
G01*
X13985462Y8741386D01*
X14080910Y8746942D01*
X14174777Y8741386D01*
X14259412Y8724717D01*
X14334818Y8696936D01*
X14400994Y8658042D01*
X14457941Y8608036D01*
X14504611Y8550492D01*
X14537942Y8481393D01*
X14557937Y8400738D01*
X14564601Y8308528D01*
X14557937Y8216327D01*
X14537942Y8135673D01*
X14504611Y8066565D01*
X14457941Y8009002D01*
X14400994Y7959222D01*
X14334818Y7920502D01*
X14259412Y7892842D01*
X14174777Y7876246D01*
X14080910Y7870713D01*
X13985462Y7876246D01*
X13900036Y7892842D01*
X13824630Y7920502D01*
X13759245Y7959222D01*
X13703878Y8009002D01*
X13657218Y8066565D01*
X13623886Y8135673D01*
X13603885Y8216327D01*
X13597218Y8308528D01*
X13603885Y8400738D01*
X13623886Y8481393D01*
X13657218Y8550492D01*
X13703878Y8608036D01*
X13759245Y8658042D01*
X13824630Y8696936D01*
X13900036Y8724717D01*
X13985462Y8741386D01*
X14319035Y8489591D01*
X14255370Y8527153D01*
X14175995Y8549678D01*
X14080910Y8557183D01*
X13985825Y8549678D01*
X13906450Y8527153D01*
X13842785Y8489591D01*
X13796276Y8439438D01*
X13768371Y8379083D01*
X13759069Y8308528D01*
X13768408Y8238070D01*
X13796420Y8178026D01*
X13843095Y8128382D01*
X13906870Y8091348D01*
X13986143Y8069119D01*
X14080910Y8061707D01*
X14175995Y8069119D01*
X14255370Y8091348D01*
X14319035Y8128382D01*
X14365544Y8178026D01*
X14393449Y8238070D01*
X14402751Y8308528D01*
X14393449Y8379083D01*
X14365544Y8439438D01*
X14319035Y8489591D01*
G37*
G36*
X13799996Y9123674D02*
G01*
X13625124Y9625359D01*
X14539176Y9625359D01*
X14539176Y9438704D01*
X14180749Y9438704D01*
X14180749Y9241501D01*
X14188040Y9170580D01*
X14209894Y9126461D01*
X14253615Y9103135D01*
X14326476Y9094534D01*
X14411432Y9093300D01*
X14490187Y9085239D01*
X14539176Y9072821D01*
X14539176Y8862600D01*
X14516232Y8862600D01*
X14464142Y8897331D01*
X14379187Y8902288D01*
X14317795Y8902288D01*
X14234009Y8908885D01*
X14174858Y8928658D01*
X14133395Y8964234D01*
X14102614Y9018264D01*
X14067350Y8953308D01*
X14013628Y8909732D01*
X13950145Y8885092D01*
X13885573Y8876870D01*
X13834571Y8881216D01*
X13789455Y8894227D01*
X13712560Y8941358D01*
X13675516Y8981286D01*
X13648688Y9029112D01*
X13631950Y9091990D01*
X13625124Y9177014D01*
X13625124Y9625359D01*
X13799996Y9123674D01*
X13842175Y9082286D01*
X13911619Y9068482D01*
X13975805Y9082751D01*
X14014557Y9125543D01*
X14025720Y9165853D01*
X14029441Y9222275D01*
X14029441Y9438704D01*
X13783874Y9438704D01*
X13783874Y9216701D01*
X13787910Y9162435D01*
X13799996Y9123674D01*
G37*
G36*
X14343840Y10264045D02*
G01*
X13625124Y10099104D01*
X13625124Y9824396D01*
X14539176Y9824396D01*
X14539176Y10002355D01*
X13920920Y10002355D01*
X13846196Y10001738D01*
X13772091Y10001120D01*
X14539176Y10174140D01*
X14539176Y10359542D01*
X13772091Y10531328D01*
X13846196Y10530710D01*
X13920920Y10530075D01*
X14539176Y10530075D01*
X14539176Y10708052D01*
X13625124Y10708052D01*
X13625124Y10430239D01*
X14343840Y10264045D01*
G37*
G36*
X13625124Y11090339D02*
G01*
X14539176Y11090339D01*
X14539176Y10900580D01*
X13625124Y10900580D01*
X13625124Y11090339D01*
G37*
G36*
X14539176Y12013047D02*
G01*
X13625124Y12013047D01*
X13625124Y11812740D01*
X14263225Y11448744D01*
X13625124Y11448744D01*
X13625124Y11270767D01*
X14539176Y11270767D01*
X14539176Y11461761D01*
X13889914Y11835071D01*
X14539176Y11835071D01*
X14539176Y12013047D01*
G37*
G36*
X12335857Y13936832D02*
G01*
X12344059Y13936832D01*
X12424475Y13940341D01*
X12505219Y13948922D01*
X12586167Y13962371D01*
X12667193Y13980479D01*
X12748174Y14003041D01*
X12828986Y14029850D01*
X12909504Y14060699D01*
X12989604Y14095381D01*
X13069161Y14133689D01*
X13148051Y14175417D01*
X13226150Y14220359D01*
X13303333Y14268307D01*
X13379477Y14319054D01*
X13454456Y14372395D01*
X13528146Y14428122D01*
X13600424Y14486029D01*
X13671164Y14545909D01*
X13740242Y14607555D01*
X13807535Y14670761D01*
X13872917Y14735320D01*
X13936264Y14801024D01*
X13997453Y14867668D01*
X14056358Y14935045D01*
X14112855Y15002948D01*
X14166820Y15071171D01*
X14218129Y15139506D01*
X14266657Y15207747D01*
X14312280Y15275687D01*
X14354873Y15343120D01*
X14394313Y15409839D01*
X14430474Y15475637D01*
X14463233Y15540307D01*
X14492465Y15603643D01*
X14518046Y15665439D01*
X14539852Y15725486D01*
X14539721Y15689805D01*
X14539745Y15609348D01*
X14539858Y15502192D01*
X14539993Y15386412D01*
X14540085Y15280085D01*
X14540067Y15201288D01*
X14539873Y15168097D01*
X14509903Y15098735D01*
X14475904Y15028859D01*
X14438027Y14958649D01*
X14396423Y14888287D01*
X14351243Y14817951D01*
X14302638Y14747821D01*
X14250759Y14678079D01*
X14195755Y14608903D01*
X14137780Y14540473D01*
X14076982Y14472970D01*
X14013514Y14406574D01*
X13947525Y14341464D01*
X13879168Y14277820D01*
X13808592Y14215823D01*
X13735949Y14155652D01*
X13661389Y14097488D01*
X13585064Y14041510D01*
X13507124Y13987898D01*
X13427720Y13936832D01*
X14539314Y13936832D01*
X14539314Y13519602D01*
X12335857Y13518491D01*
X12335857Y13936832D01*
G37*
G36*
X12335945Y11661328D02*
G01*
X12365914Y11730672D01*
X12399912Y11800497D01*
X12437788Y11870627D01*
X12479391Y11940885D01*
X12524571Y12011095D01*
X12573176Y12081082D01*
X12625056Y12150669D01*
X12680060Y12219680D01*
X12738036Y12287938D01*
X12798834Y12355268D01*
X12862304Y12421493D01*
X12928293Y12486437D01*
X12996651Y12549925D01*
X13067227Y12611779D01*
X13139871Y12671824D01*
X13214431Y12729883D01*
X13290757Y12785781D01*
X13368697Y12839342D01*
X13448100Y12890388D01*
X12336510Y12890388D01*
X12336510Y13307618D01*
X14539948Y13307618D01*
X14539948Y12890388D01*
X14531763Y12890388D01*
X14451347Y12886872D01*
X14370603Y12878267D01*
X14289655Y12864781D01*
X14208629Y12846621D01*
X14127647Y12823996D01*
X14046836Y12797113D01*
X13966318Y12766178D01*
X13886218Y12731401D01*
X13806661Y12692989D01*
X13727771Y12651149D01*
X13649672Y12606089D01*
X13572488Y12558016D01*
X13496345Y12507139D01*
X13421366Y12453664D01*
X13347675Y12397799D01*
X13275398Y12339753D01*
X13204658Y12279732D01*
X13135579Y12217945D01*
X13068286Y12154598D01*
X13002904Y12089900D01*
X12939557Y12024059D01*
X12878368Y11957280D01*
X12819463Y11889774D01*
X12762965Y11821746D01*
X12709000Y11753405D01*
X12657691Y11684958D01*
X12609162Y11616613D01*
X12563539Y11548577D01*
X12520945Y11481059D01*
X12481505Y11414265D01*
X12445343Y11348404D01*
X12412584Y11283683D01*
X12383351Y11220309D01*
X12357769Y11158491D01*
X12335963Y11098435D01*
X12335783Y11129607D01*
X12335707Y11210106D01*
X12335708Y11320186D01*
X12335760Y11440096D01*
X12335835Y11550089D01*
X12335906Y11630415D01*
X12335945Y11661328D01*
G37*
G36*
X13861168Y7192321D02*
G01*
X14304474Y6995672D01*
X14230758Y6972807D01*
X14150065Y6959087D01*
X14062396Y6954514D01*
X13988610Y6958860D01*
X13911088Y6971870D01*
X13834508Y6996845D01*
X13763499Y7036993D01*
X13713132Y7080748D01*
X13674476Y7132633D01*
X13647531Y7192639D01*
X13633276Y7256218D01*
X13627687Y7334032D01*
X13627687Y7727803D01*
X14541747Y7727803D01*
X14541747Y7334032D01*
X14534926Y7255501D01*
X14514463Y7185602D01*
X14480358Y7124332D01*
X14432608Y7071692D01*
X14371214Y7027680D01*
X14304474Y6995672D01*
X13861168Y7192321D01*
X13918187Y7168038D01*
X13989603Y7153469D01*
X14075419Y7148612D01*
X14169529Y7155906D01*
X14249671Y7177751D01*
X14323744Y7222407D01*
X14368184Y7285249D01*
X14382997Y7366276D01*
X14382997Y7542383D01*
X13786437Y7542383D01*
X13786437Y7366276D01*
X13794743Y7289070D01*
X13819656Y7231086D01*
X13861168Y7192321D01*
G37*
D10*
X10700193Y12500193D02*
X12079052Y11121335D01*
X10700193Y12500193D02*
X9321335Y13879052D01*
X7079807Y8879807D02*
X8458665Y7500948D01*
X7079807Y8879807D02*
X4640288Y11319325D01*
D12*
G36*
X4526541Y12726016D02*
G01*
X4465879Y13052228D01*
X4449269Y13071536D01*
X4215986Y13171528D01*
X4190765Y13169941D01*
X3913746Y12979877D01*
X3891204Y12981961D01*
X3653813Y13219352D01*
X3651729Y13241874D01*
X3845166Y13523755D01*
X3846992Y13549095D01*
X3754421Y13775235D01*
X3735331Y13791904D01*
X3397928Y13854709D01*
X3383462Y13872112D01*
X3383462Y14207868D01*
X3397928Y14225251D01*
X3735331Y14288037D01*
X3754421Y14304706D01*
X3846992Y14530865D01*
X3845166Y14556205D01*
X3651729Y14838066D01*
X3653813Y14860609D01*
X3891204Y15098019D01*
X3913746Y15100103D01*
X4190765Y14910019D01*
X4215986Y14908452D01*
X4449269Y15008464D01*
X4465879Y15027772D01*
X4526541Y15353964D01*
X4543964Y15368430D01*
X4879700Y15368410D01*
X4897123Y15353944D01*
X4956337Y15035749D01*
X4973065Y15016858D01*
X5221211Y14917520D01*
X5246552Y14919406D01*
X5509938Y15100142D01*
X5532500Y15098059D01*
X5769891Y14860628D01*
X5771974Y14838086D01*
X5594393Y14579363D01*
X5593539Y14554558D01*
X5654460Y14440457D01*
X5647554Y14421704D01*
X5079090Y14186437D01*
X5057838Y14193343D01*
X5040355Y14221898D01*
X5026524Y14239956D01*
X4945324Y14330162D01*
X4838596Y14389773D01*
X4713767Y14411306D01*
X4596407Y14392376D01*
X4494482Y14339663D01*
X4414108Y14259286D01*
X4361399Y14157362D01*
X4342470Y14040010D01*
X4361399Y13922660D01*
X4414108Y13820741D01*
X4494482Y13740370D01*
X4596407Y13687662D01*
X4713767Y13668733D01*
X4838596Y13690262D01*
X4945324Y13749869D01*
X5026524Y13840084D01*
X5040355Y13858102D01*
X5057838Y13886657D01*
X5079090Y13893563D01*
X5647574Y13658315D01*
X5654479Y13639563D01*
X5593559Y13525461D01*
X5594412Y13500657D01*
X5771994Y13241914D01*
X5769911Y13219391D01*
X5532520Y12981961D01*
X5509957Y12979877D01*
X5246571Y13160634D01*
X5221231Y13162499D01*
X4973085Y13063162D01*
X4956357Y13044290D01*
X4897143Y12726096D01*
X4879720Y12711630D01*
X4543984Y12711590D01*
X4526541Y12726016D01*
G37*
D10*
X2991428Y32520000D02*
X3420000Y32520000D01*
X3505714Y32548572D01*
X3562857Y32605715D01*
X3591428Y32691429D01*
X3591428Y32748572D01*
X3591428Y32234286D02*
X2991428Y32234286D01*
X2991428Y32005715D01*
X3020000Y31948572D01*
X3048571Y31920000D01*
X3105714Y31891429D01*
X3191428Y31891429D01*
X3248571Y31920000D01*
X3277142Y31948572D01*
X3305714Y32005715D01*
X3305714Y32234286D01*
X3591428Y31320000D02*
X3591428Y31662858D01*
X3591428Y31491429D02*
X2991428Y31491429D01*
X3077142Y31548572D01*
X3134285Y31605715D01*
X3162857Y31662858D01*
M02*
