G04 #@! TF.GenerationSoftware,KiCad,Pcbnew,5.1.8-1.fc33*
G04 #@! TF.CreationDate,2020-12-01T15:42:06+01:00*
G04 #@! TF.ProjectId,reDIP-sx,72654449-502d-4737-982e-6b696361645f,0.1*
G04 #@! TF.SameCoordinates,PX5e28010PY8011a50*
G04 #@! TF.FileFunction,Legend,Top*
G04 #@! TF.FilePolarity,Positive*
%FSLAX46Y46*%
G04 Gerber Fmt 4.6, Leading zero omitted, Abs format (unit mm)*
G04 Created by KiCad (PCBNEW 5.1.8-1.fc33) date 2020-12-01 15:42:06*
%MOMM*%
%LPD*%
G01*
G04 APERTURE LIST*
%ADD10C,0.120000*%
%ADD11C,0.150000*%
%ADD12C,0.200000*%
%ADD13C,0.100000*%
G04 APERTURE END LIST*
D10*
X1966243Y5502336D02*
X2168274Y5300305D01*
X1804619Y5421523D02*
X2370304Y5704366D01*
X2087461Y5138681D01*
X2612741Y5461929D02*
X2875380Y5199290D01*
X2572335Y5179087D01*
X2632944Y5118478D01*
X2653147Y5057868D01*
X2653147Y5017462D01*
X2632944Y4956853D01*
X2531928Y4855838D01*
X2471319Y4835635D01*
X2430913Y4835635D01*
X2370304Y4855838D01*
X2249086Y4977056D01*
X2228883Y5037665D01*
X2228883Y5078072D01*
X1996243Y10552336D02*
X2198274Y10350305D01*
X1834619Y10471523D02*
X2400304Y10754366D01*
X2117461Y10188681D01*
X2481116Y9825026D02*
X2238680Y10067462D01*
X2359898Y9946244D02*
X2784162Y10370508D01*
X2683147Y10350305D01*
X2602335Y10350305D01*
X2541725Y10370508D01*
X14874923Y12651219D02*
X15299187Y13075483D01*
X15400203Y12974468D01*
X15440609Y12893655D01*
X15440609Y12812843D01*
X15420406Y12752234D01*
X15359796Y12651219D01*
X15299187Y12590610D01*
X15198172Y12530000D01*
X15137563Y12509797D01*
X15056751Y12509797D01*
X14975938Y12550204D01*
X14874923Y12651219D01*
X15763857Y12327970D02*
X15481015Y12045127D01*
X15824467Y12590610D02*
X15420406Y12388579D01*
X15683045Y12125939D01*
X14864923Y10121219D02*
X15289187Y10545483D01*
X15390203Y10444468D01*
X15430609Y10363655D01*
X15430609Y10282843D01*
X15410406Y10222234D01*
X15349796Y10121219D01*
X15289187Y10060610D01*
X15188172Y10000000D01*
X15127563Y9979797D01*
X15046751Y9979797D01*
X14965938Y10020204D01*
X14864923Y10121219D01*
X15673045Y10161625D02*
X15935685Y9898985D01*
X15632639Y9878782D01*
X15693248Y9818173D01*
X15713451Y9757564D01*
X15713451Y9717158D01*
X15693248Y9656549D01*
X15592233Y9555533D01*
X15531624Y9535330D01*
X15491218Y9535330D01*
X15430609Y9555533D01*
X15309390Y9676752D01*
X15289187Y9737361D01*
X15289187Y9777767D01*
X14854923Y7631219D02*
X15279187Y8055483D01*
X15380203Y7954468D01*
X15420609Y7873655D01*
X15420609Y7792843D01*
X15400406Y7732234D01*
X15339796Y7631219D01*
X15279187Y7570610D01*
X15178172Y7510000D01*
X15117563Y7489797D01*
X15036751Y7489797D01*
X14955938Y7530204D01*
X14854923Y7631219D01*
X15642842Y7611016D02*
X15683248Y7611016D01*
X15743857Y7590813D01*
X15844873Y7489797D01*
X15865076Y7429188D01*
X15865076Y7388782D01*
X15844873Y7328173D01*
X15804467Y7287767D01*
X15723654Y7247361D01*
X15238781Y7247361D01*
X15501421Y6984721D01*
X14844923Y4991219D02*
X15269187Y5415483D01*
X15370203Y5314468D01*
X15410609Y5233655D01*
X15410609Y5152843D01*
X15390406Y5092234D01*
X15329796Y4991219D01*
X15269187Y4930610D01*
X15168172Y4870000D01*
X15107563Y4849797D01*
X15026751Y4849797D01*
X14945938Y4890204D01*
X14844923Y4991219D01*
X15491421Y4344721D02*
X15248984Y4587158D01*
X15370203Y4465939D02*
X15794467Y4890204D01*
X15693451Y4870000D01*
X15612639Y4870000D01*
X15552030Y4890204D01*
X2419687Y23991871D02*
X2843951Y23567607D01*
X2155431Y23040711D02*
X2216040Y23384163D01*
X1912994Y23283148D02*
X2337258Y23707412D01*
X2498883Y23545787D01*
X2519086Y23485178D01*
X2519086Y23444772D01*
X2498883Y23384163D01*
X2438274Y23323554D01*
X2377664Y23303351D01*
X2337258Y23303351D01*
X2276649Y23323554D01*
X2115025Y23485178D01*
X2843951Y23567607D02*
X3227809Y23183749D01*
X2559492Y23081117D02*
X2700913Y22939696D01*
X2539289Y22656853D02*
X2337258Y22858884D01*
X2761522Y23283148D01*
X2963553Y23081117D01*
X3227809Y23183749D02*
X3631870Y22779688D01*
X2721116Y22515432D02*
X2761522Y22434620D01*
X2862538Y22333604D01*
X2923147Y22313401D01*
X2963553Y22313401D01*
X3024162Y22333604D01*
X3064568Y22374010D01*
X3084771Y22434620D01*
X3084771Y22475026D01*
X3064568Y22535635D01*
X3003959Y22636650D01*
X2983756Y22697259D01*
X2983756Y22737665D01*
X3003959Y22798275D01*
X3044365Y22838681D01*
X3104974Y22858884D01*
X3145380Y22858884D01*
X3205990Y22838681D01*
X3307005Y22737665D01*
X3347411Y22656853D01*
X2601928Y20732742D02*
X1854416Y20631726D01*
X1975634Y20510508D02*
X1955431Y20571117D01*
X1955431Y20651929D01*
X2016040Y20752945D01*
X2157461Y20894366D01*
X2258477Y20954975D01*
X2339289Y20954975D01*
X2399898Y20934772D01*
X2480710Y20853960D01*
X2500913Y20793351D01*
X2500913Y20712539D01*
X2440304Y20611523D01*
X2298883Y20470102D01*
X2197867Y20409493D01*
X2117055Y20409493D01*
X2056446Y20429696D01*
X1975634Y20510508D01*
X2702944Y20550914D02*
X2743350Y20550914D01*
X2803959Y20530711D01*
X2904974Y20429696D01*
X2925177Y20369087D01*
X2925177Y20328681D01*
X2904974Y20268072D01*
X2864568Y20227665D01*
X2783756Y20187259D01*
X2298883Y20187259D01*
X2561522Y19924620D01*
X2084720Y17881422D02*
X2145329Y18224874D01*
X1842284Y18123858D02*
X2266548Y18548123D01*
X2428172Y18386498D01*
X2448375Y18325889D01*
X2448375Y18285483D01*
X2428172Y18224874D01*
X2367563Y18164265D01*
X2306954Y18144062D01*
X2266548Y18144062D01*
X2205938Y18164265D01*
X2044314Y18325889D01*
X3014061Y17841016D02*
X2104923Y17659188D01*
X3217707Y17963850D02*
X3702580Y17478977D01*
X3094873Y17719797D02*
X2771624Y17194518D01*
X3155482Y17416752D01*
X2933248Y17032894D01*
X3458528Y17356143D01*
X2341616Y16129942D02*
X2765880Y15705678D01*
X2117766Y15219188D02*
X2077360Y15219188D01*
X1996548Y15259594D01*
X1956142Y15300000D01*
X1915735Y15380813D01*
X1915735Y15461625D01*
X1935938Y15522234D01*
X1996548Y15623249D01*
X2057157Y15683858D01*
X2158172Y15744468D01*
X2218781Y15764671D01*
X2299593Y15764671D01*
X2380406Y15724265D01*
X2420812Y15683858D01*
X2461218Y15603046D01*
X2461218Y15562640D01*
X2765880Y15705678D02*
X3169941Y15301617D01*
X2259187Y15037361D02*
X2299593Y14956549D01*
X2400609Y14855533D01*
X2461218Y14835330D01*
X2501624Y14835330D01*
X2562233Y14855533D01*
X2602639Y14895939D01*
X2622842Y14956549D01*
X2622842Y14996955D01*
X2602639Y15057564D01*
X2542030Y15158579D01*
X2521827Y15219188D01*
X2521827Y15259594D01*
X2542030Y15320204D01*
X2582436Y15360610D01*
X2643045Y15380813D01*
X2683451Y15380813D01*
X2744061Y15360610D01*
X2845076Y15259594D01*
X2885482Y15178782D01*
X1816243Y13022336D02*
X2018274Y12820305D01*
X1654619Y12941523D02*
X2220304Y13224366D01*
X1937461Y12658681D01*
X2583959Y12860711D02*
X2624365Y12820305D01*
X2644568Y12759696D01*
X2644568Y12719290D01*
X2624365Y12658681D01*
X2563756Y12557665D01*
X2462741Y12456650D01*
X2361725Y12396041D01*
X2301116Y12375838D01*
X2260710Y12375838D01*
X2200101Y12396041D01*
X2159695Y12436447D01*
X2139492Y12497056D01*
X2139492Y12537462D01*
X2159695Y12598072D01*
X2220304Y12699087D01*
X2321319Y12800102D01*
X2422335Y12860711D01*
X2482944Y12880914D01*
X2523350Y12880914D01*
X2583959Y12860711D01*
X1906243Y2982336D02*
X2108274Y2780305D01*
X1744619Y2901523D02*
X2310304Y3184366D01*
X2027461Y2618681D01*
X2633553Y2578275D02*
X2350710Y2295432D01*
X2694162Y2840914D02*
X2290101Y2638884D01*
X2552741Y2376244D01*
X14854923Y2461219D02*
X15279187Y2885483D01*
X15380203Y2784468D01*
X15420609Y2703655D01*
X15420609Y2622843D01*
X15400406Y2562234D01*
X15339796Y2461219D01*
X15279187Y2400610D01*
X15178172Y2340000D01*
X15117563Y2319797D01*
X15036751Y2319797D01*
X14955938Y2360204D01*
X14854923Y2461219D01*
X15784264Y2380407D02*
X15824670Y2340000D01*
X15844873Y2279391D01*
X15844873Y2238985D01*
X15824670Y2178376D01*
X15764061Y2077361D01*
X15663045Y1976346D01*
X15562030Y1915736D01*
X15501421Y1895533D01*
X15461015Y1895533D01*
X15400406Y1915736D01*
X15360000Y1956143D01*
X15339796Y2016752D01*
X15339796Y2057158D01*
X15360000Y2117767D01*
X15420609Y2218782D01*
X15521624Y2319797D01*
X15622639Y2380407D01*
X15683248Y2400610D01*
X15723654Y2400610D01*
X15784264Y2380407D01*
X14844923Y20241219D02*
X15269187Y20665483D01*
X15370203Y20564468D01*
X15410609Y20483655D01*
X15410609Y20402843D01*
X15390406Y20342234D01*
X15329796Y20241219D01*
X15269187Y20180610D01*
X15168172Y20120000D01*
X15107563Y20099797D01*
X15026751Y20099797D01*
X14945938Y20140204D01*
X14844923Y20241219D01*
X15653045Y20281625D02*
X15935888Y19998782D01*
X15329796Y19756346D01*
X14915126Y22761016D02*
X15339390Y23185280D01*
X15501015Y23023655D01*
X15521218Y22963046D01*
X15521218Y22922640D01*
X15501015Y22862031D01*
X15440406Y22801422D01*
X15379796Y22781219D01*
X15339390Y22781219D01*
X15278781Y22801422D01*
X15117157Y22963046D01*
X15622233Y22457970D02*
X15420203Y22255939D01*
X15703045Y22821625D02*
X15622233Y22457970D01*
X15985888Y22538782D01*
X14914923Y25341219D02*
X15339187Y25765483D01*
X15500812Y25603858D01*
X15521015Y25543249D01*
X15521015Y25502843D01*
X15500812Y25442234D01*
X15440203Y25381625D01*
X15379593Y25361422D01*
X15339187Y25361422D01*
X15278578Y25381625D01*
X15116954Y25543249D01*
X15723045Y25381625D02*
X15581624Y24674518D01*
X16005888Y25098782D02*
X15298781Y24957361D01*
X17188071Y28118072D02*
X17612335Y28542336D01*
X17551928Y31072742D02*
X17632741Y30991929D01*
X17652944Y30931320D01*
X17652944Y30850508D01*
X17592335Y30749493D01*
X17450913Y30608072D01*
X17349898Y30547462D01*
X17269086Y30547462D01*
X17208477Y30567665D01*
X17127664Y30648478D01*
X17107461Y30709087D01*
X17107461Y30789899D01*
X17168071Y30890914D01*
X17309492Y31032336D01*
X17410507Y31092945D01*
X17491319Y31092945D01*
X17551928Y31072742D01*
X14988571Y35032858D02*
X14988571Y34661429D01*
X14760000Y34861429D01*
X14760000Y34775715D01*
X14731428Y34718572D01*
X14702857Y34690000D01*
X14645714Y34661429D01*
X14502857Y34661429D01*
X14445714Y34690000D01*
X14417142Y34718572D01*
X14388571Y34775715D01*
X14388571Y34947143D01*
X14417142Y35004286D01*
X14445714Y35032858D01*
X14988571Y34490000D02*
X14388571Y34290000D01*
X14988571Y34090000D01*
X14988571Y33947143D02*
X14988571Y33575715D01*
X14760000Y33775715D01*
X14760000Y33690000D01*
X14731428Y33632858D01*
X14702857Y33604286D01*
X14645714Y33575715D01*
X14502857Y33575715D01*
X14445714Y33604286D01*
X14417142Y33632858D01*
X14388571Y33690000D01*
X14388571Y33861429D01*
X14417142Y33918572D01*
X14445714Y33947143D01*
X17580000Y33020000D02*
X16510000Y33020000D01*
X15559390Y30261219D02*
X15700812Y30119797D01*
X15539187Y29836955D02*
X15337157Y30038985D01*
X15761421Y30463249D01*
X15963451Y30261219D01*
X15448274Y32720305D02*
X15650304Y32518275D01*
X15286649Y32639493D02*
X15852335Y32922336D01*
X15569492Y32356650D01*
X2268237Y34290000D02*
G75*
G03*
X2268237Y34290000I-1000000J0D01*
G01*
D11*
X2104094Y615094D02*
X2535093Y184095D01*
D10*
X15324094Y27885094D02*
X15755093Y27454095D01*
X15324094Y27454095D02*
X15755093Y27885094D01*
X3610000Y35560000D02*
X200000Y35560000D01*
X1270000Y25400000D02*
X200000Y25400000D01*
X17580000Y35560000D02*
X14170000Y35560000D01*
X2970000Y27098572D02*
X2970000Y26812858D01*
X2798571Y27155715D02*
X3398571Y26955715D01*
X2798571Y26755715D01*
X3141428Y26470000D02*
X3170000Y26527143D01*
X3198571Y26555715D01*
X3255714Y26584286D01*
X3284285Y26584286D01*
X3341428Y26555715D01*
X3370000Y26527143D01*
X3398571Y26470000D01*
X3398571Y26355715D01*
X3370000Y26298572D01*
X3341428Y26270000D01*
X3284285Y26241429D01*
X3255714Y26241429D01*
X3198571Y26270000D01*
X3170000Y26298572D01*
X3141428Y26355715D01*
X3141428Y26470000D01*
X3112857Y26527143D01*
X3084285Y26555715D01*
X3027142Y26584286D01*
X2912857Y26584286D01*
X2855714Y26555715D01*
X2827142Y26527143D01*
X2798571Y26470000D01*
X2798571Y26355715D01*
X2827142Y26298572D01*
X2855714Y26270000D01*
X2912857Y26241429D01*
X3027142Y26241429D01*
X3084285Y26270000D01*
X3112857Y26298572D01*
X3141428Y26355715D01*
X2970000Y29638572D02*
X2970000Y29352858D01*
X2798571Y29695715D02*
X3398571Y29495715D01*
X2798571Y29295715D01*
X3398571Y29152858D02*
X3398571Y28752858D01*
X2798571Y29010000D01*
X2970000Y32178572D02*
X2970000Y31892858D01*
X2798571Y32235715D02*
X3398571Y32035715D01*
X2798571Y31835715D01*
X3398571Y31378572D02*
X3398571Y31492858D01*
X3370000Y31550000D01*
X3341428Y31578572D01*
X3255714Y31635715D01*
X3141428Y31664286D01*
X2912857Y31664286D01*
X2855714Y31635715D01*
X2827142Y31607143D01*
X2798571Y31550000D01*
X2798571Y31435715D01*
X2827142Y31378572D01*
X2855714Y31350000D01*
X2912857Y31321429D01*
X3055714Y31321429D01*
X3112857Y31350000D01*
X3141428Y31378572D01*
X3170000Y31435715D01*
X3170000Y31550000D01*
X3141428Y31607143D01*
X3112857Y31635715D01*
X3055714Y31664286D01*
X2970000Y34718572D02*
X2970000Y34432858D01*
X2798571Y34775715D02*
X3398571Y34575715D01*
X2798571Y34375715D01*
X3398571Y33890000D02*
X3398571Y34175715D01*
X3112857Y34204286D01*
X3141428Y34175715D01*
X3170000Y34118572D01*
X3170000Y33975715D01*
X3141428Y33918572D01*
X3112857Y33890000D01*
X3055714Y33861429D01*
X2912857Y33861429D01*
X2855714Y33890000D01*
X2827142Y33918572D01*
X2798571Y33975715D01*
X2798571Y34118572D01*
X2827142Y34175715D01*
X2855714Y34204286D01*
X3658000Y37572858D02*
X3658000Y37287143D01*
X2798571Y37430000D02*
X3398571Y37430000D01*
X3658000Y37287143D02*
X3658000Y36658572D01*
X3398571Y37030000D02*
X3398571Y36915715D01*
X3370000Y36858572D01*
X3312857Y36801429D01*
X3198571Y36772858D01*
X2998571Y36772858D01*
X2884285Y36801429D01*
X2827142Y36858572D01*
X2798571Y36915715D01*
X2798571Y37030000D01*
X2827142Y37087143D01*
X2884285Y37144286D01*
X2998571Y37172858D01*
X3198571Y37172858D01*
X3312857Y37144286D01*
X3370000Y37087143D01*
X3398571Y37030000D01*
X3658000Y36658572D02*
X3658000Y36087143D01*
X3341428Y36544286D02*
X3370000Y36515715D01*
X3398571Y36458572D01*
X3398571Y36315715D01*
X3370000Y36258572D01*
X3341428Y36230000D01*
X3284285Y36201429D01*
X3227142Y36201429D01*
X3141428Y36230000D01*
X2798571Y36572858D01*
X2798571Y36201429D01*
X3658000Y40112858D02*
X3658000Y39827143D01*
X2798571Y39970000D02*
X3398571Y39970000D01*
X3658000Y39827143D02*
X3658000Y39198572D01*
X3398571Y39570000D02*
X3398571Y39455715D01*
X3370000Y39398572D01*
X3312857Y39341429D01*
X3198571Y39312858D01*
X2998571Y39312858D01*
X2884285Y39341429D01*
X2827142Y39398572D01*
X2798571Y39455715D01*
X2798571Y39570000D01*
X2827142Y39627143D01*
X2884285Y39684286D01*
X2998571Y39712858D01*
X3198571Y39712858D01*
X3312857Y39684286D01*
X3370000Y39627143D01*
X3398571Y39570000D01*
X3658000Y39198572D02*
X3658000Y38627143D01*
X2798571Y38741429D02*
X2798571Y39084286D01*
X2798571Y38912858D02*
X3398571Y38912858D01*
X3312857Y38970000D01*
X3255714Y39027143D01*
X3227142Y39084286D01*
X14702857Y37387143D02*
X14702857Y37187143D01*
X14388571Y37101429D02*
X14388571Y37387143D01*
X14988571Y37387143D01*
X14988571Y37101429D01*
X14388571Y36844286D02*
X14988571Y36844286D01*
X14931428Y36587143D02*
X14960000Y36558572D01*
X14988571Y36501429D01*
X14988571Y36358572D01*
X14960000Y36301429D01*
X14931428Y36272858D01*
X14874285Y36244286D01*
X14817142Y36244286D01*
X14731428Y36272858D01*
X14388571Y36615715D01*
X14388571Y36244286D01*
X14560000Y40112858D02*
X14560000Y39827143D01*
X14388571Y40170000D02*
X14988571Y39970000D01*
X14388571Y39770000D01*
X14988571Y39455715D02*
X14988571Y39341429D01*
X14960000Y39284286D01*
X14902857Y39227143D01*
X14788571Y39198572D01*
X14588571Y39198572D01*
X14474285Y39227143D01*
X14417142Y39284286D01*
X14388571Y39341429D01*
X14388571Y39455715D01*
X14417142Y39512858D01*
X14474285Y39570000D01*
X14588571Y39598572D01*
X14788571Y39598572D01*
X14902857Y39570000D01*
X14960000Y39512858D01*
X14988571Y39455715D01*
X14931428Y38970000D02*
X14960000Y38941429D01*
X14988571Y38884286D01*
X14988571Y38741429D01*
X14960000Y38684286D01*
X14931428Y38655715D01*
X14874285Y38627143D01*
X14817142Y38627143D01*
X14731428Y38655715D01*
X14388571Y38998572D01*
X14388571Y38627143D01*
D12*
X14175238Y14889048D02*
X14127619Y14793810D01*
X14127619Y14603334D01*
X14175238Y14508096D01*
X14270476Y14460477D01*
X14318095Y14460477D01*
X14413333Y14508096D01*
X14460952Y14603334D01*
X14460952Y14746191D01*
X14508571Y14841429D01*
X14603809Y14889048D01*
X14651428Y14889048D01*
X14746666Y14841429D01*
X14794285Y14746191D01*
X14794285Y14603334D01*
X14746666Y14508096D01*
X14127619Y14127143D02*
X14794285Y13603334D01*
X14794285Y14127143D02*
X14127619Y13603334D01*
X14127619Y19218096D02*
X14794285Y19218096D01*
X14603809Y19218096D02*
X14699047Y19170477D01*
X14746666Y19122858D01*
X14794285Y19027620D01*
X14794285Y18932381D01*
X14175238Y18218096D02*
X14127619Y18313334D01*
X14127619Y18503810D01*
X14175238Y18599048D01*
X14270476Y18646667D01*
X14651428Y18646667D01*
X14746666Y18599048D01*
X14794285Y18503810D01*
X14794285Y18313334D01*
X14746666Y18218096D01*
X14651428Y18170477D01*
X14556190Y18170477D01*
X14460952Y18646667D01*
X14127619Y17741905D02*
X15127619Y17741905D01*
X15127619Y17503810D01*
X15080000Y17360953D01*
X14984761Y17265715D01*
X14889523Y17218096D01*
X14699047Y17170477D01*
X14556190Y17170477D01*
X14365714Y17218096D01*
X14270476Y17265715D01*
X14175238Y17360953D01*
X14127619Y17503810D01*
X14127619Y17741905D01*
X14127619Y16741905D02*
X15127619Y16741905D01*
X14127619Y16265715D02*
X15127619Y16265715D01*
X15127619Y15884762D01*
X15080000Y15789524D01*
X15032380Y15741905D01*
X14937142Y15694286D01*
X14794285Y15694286D01*
X14699047Y15741905D01*
X14651428Y15789524D01*
X14603809Y15884762D01*
X14603809Y16265715D01*
D10*
X10015000Y4215000D02*
X10635000Y4215000D01*
X10165000Y4065000D02*
X10015000Y4215000D01*
D13*
X14135000Y2755000D02*
X14135000Y1555000D01*
X11595000Y15420000D02*
X11495000Y15420000D01*
X11495000Y15670000D02*
X11495000Y15420000D01*
X13745000Y15420000D02*
X13845000Y15420000D01*
X13845000Y15420000D02*
X13845000Y15670000D01*
X11495000Y16820000D02*
X11495000Y16570000D01*
X11595000Y16820000D02*
X11495000Y16820000D01*
X13845000Y16820000D02*
X13845000Y16570000D01*
D10*
X13659435Y21254124D02*
X13995311Y21590000D01*
X3784689Y21590000D02*
X4120565Y21254124D01*
X4120565Y21925876D02*
X3784689Y21590000D01*
X8890000Y26695311D02*
X9225876Y26359435D01*
X8554124Y26359435D02*
X8890000Y26695311D01*
X8890000Y16484689D02*
X8554124Y16820565D01*
X9225876Y16820565D02*
X8890000Y16484689D01*
D13*
X6400000Y29540000D02*
X6400000Y29390000D01*
X6400000Y28850000D02*
X6400000Y28700000D01*
X5560000Y29540000D02*
X5560000Y29390000D01*
X5560000Y29540000D02*
X5710000Y29540000D01*
X6250000Y28700000D02*
X6400000Y28700000D01*
X5560000Y28850000D02*
X5560000Y28700000D01*
X5560000Y28700000D02*
X5710000Y28700000D01*
X4740000Y29550000D02*
X4740000Y29400000D01*
X4740000Y28860000D02*
X4740000Y28710000D01*
X3900000Y29550000D02*
X3900000Y29400000D01*
X3900000Y29550000D02*
X4050000Y29550000D01*
X4590000Y28710000D02*
X4740000Y28710000D01*
X3900000Y28860000D02*
X3900000Y28710000D01*
X3900000Y28710000D02*
X4050000Y28710000D01*
X11160000Y32970000D02*
X11160000Y33220000D01*
X12520000Y31860000D02*
X12520000Y32110000D01*
X12520000Y31860000D02*
X12270000Y31860000D01*
X12520000Y33220000D02*
X12270000Y33220000D01*
X12520000Y32970000D02*
X12520000Y33220000D01*
X11410000Y33220000D02*
X11160000Y33220000D01*
X11160000Y31860000D02*
X11160000Y32110000D01*
D10*
X10321314Y26721802D02*
X10003116Y27040000D01*
X10003116Y27040000D02*
X10321314Y27358198D01*
X14238686Y27358198D02*
X14556884Y27040000D01*
X14556884Y27040000D02*
X14238686Y26721802D01*
X12598198Y28998686D02*
X12280000Y29316884D01*
X12280000Y29316884D02*
X11961802Y28998686D01*
X11961802Y25081314D02*
X12280000Y24763116D01*
X4991111Y8091822D02*
X3647608Y9435325D01*
X2586947Y7950400D02*
X3718318Y6819029D01*
X4400000Y31690000D02*
X4330000Y31570000D01*
X4260000Y31690000D02*
X4400000Y31690000D01*
X4330000Y31570000D02*
X4260000Y31690000D01*
X6040000Y31690000D02*
X5970000Y31570000D01*
X5900000Y31690000D02*
X6040000Y31690000D01*
X5970000Y31570000D02*
X5900000Y31690000D01*
D13*
X7830000Y29871500D02*
X7830000Y29721500D01*
X9930000Y29721500D02*
X9680000Y29721500D01*
X9930000Y29871500D02*
X9930000Y29721500D01*
X9930000Y31421500D02*
X9680000Y31421500D01*
X9930000Y31271500D02*
X9930000Y31421500D01*
X7830000Y31421500D02*
X8080000Y31421500D01*
X7830000Y31271500D02*
X7830000Y31421500D01*
X7040000Y33290000D02*
X7240000Y33290000D01*
X7040000Y32990000D02*
X7040000Y33290000D01*
X7240000Y31890000D02*
X7040000Y31890000D01*
X7040000Y31890000D02*
X7040000Y32190000D01*
X10740000Y31890000D02*
X10540000Y31890000D01*
X10740000Y32190000D02*
X10740000Y31890000D01*
X10740000Y33290000D02*
X10740000Y32990000D01*
D10*
X5792183Y13382944D02*
X5353777Y13821350D01*
X5792183Y13595076D02*
X5792183Y13382944D01*
X2385127Y13380000D02*
X2823533Y13818406D01*
X2597259Y13380000D02*
X2385127Y13380000D01*
D13*
X2619843Y16181092D02*
X2796619Y16357868D01*
X3447158Y17008407D02*
X3623934Y17185183D01*
X3730000Y17079117D02*
X3623934Y17185183D01*
X4168407Y16287158D02*
X4345183Y16463934D01*
X4345183Y16463934D02*
X4239117Y16570000D01*
X3341092Y15459843D02*
X3517868Y15636619D01*
X3341092Y15459843D02*
X3235026Y15565909D01*
D10*
X4120565Y10354124D02*
X3784689Y10690000D01*
X3784689Y10690000D02*
X4120565Y11025876D01*
X13659435Y11025876D02*
X13995311Y10690000D01*
X13995311Y10690000D02*
X13659435Y10354124D01*
X9225876Y15459435D02*
X8890000Y15795311D01*
X8890000Y15795311D02*
X8554124Y15459435D01*
X8554124Y5920565D02*
X8890000Y5584689D01*
X5404124Y7008115D02*
X5740000Y7343991D01*
X5740000Y7343991D02*
X6075876Y7008115D01*
X6075876Y1711885D02*
X5740000Y1376009D01*
X5740000Y1376009D02*
X5404124Y1711885D01*
X8388115Y4024124D02*
X8723991Y4360000D01*
X8723991Y4360000D02*
X8388115Y4695876D01*
X3091885Y4695876D02*
X2756009Y4360000D01*
X5620000Y30452164D02*
X5620000Y30667836D01*
X6340000Y30452164D02*
X6340000Y30667836D01*
X3960000Y30452164D02*
X3960000Y30667836D01*
X4680000Y30452164D02*
X4680000Y30667836D01*
X3701693Y18589190D02*
X3549190Y18741693D01*
X4210810Y19098307D02*
X4058307Y19250810D01*
X3258746Y1802137D02*
X3106243Y1954640D01*
X3767863Y2311254D02*
X3615360Y2463757D01*
X11688601Y6362282D02*
X11841104Y6209779D01*
X12197718Y6871399D02*
X12350221Y6718896D01*
M02*
