G04 #@! TF.GenerationSoftware,KiCad,Pcbnew,5.1.10-1.fc34*
G04 #@! TF.CreationDate,2021-05-13T21:06:21+02:00*
G04 #@! TF.ProjectId,reDIP-SX,72654449-502d-4535-982e-6b696361645f,0.3*
G04 #@! TF.SameCoordinates,PX5e28010PY8011a50*
G04 #@! TF.FileFunction,Copper,L2,Inr*
G04 #@! TF.FilePolarity,Positive*
%FSLAX46Y46*%
G04 Gerber Fmt 4.6, Leading zero omitted, Abs format (unit mm)*
G04 Created by KiCad (PCBNEW 5.1.10-1.fc34) date 2021-05-13 21:06:21*
%MOMM*%
%LPD*%
G01*
G04 APERTURE LIST*
G04 #@! TA.AperFunction,ComponentPad*
%ADD10O,1.200000X2.500000*%
G04 #@! TD*
G04 #@! TA.AperFunction,ComponentPad*
%ADD11O,1.200000X2.200000*%
G04 #@! TD*
G04 #@! TA.AperFunction,ComponentPad*
%ADD12C,1.600000*%
G04 #@! TD*
G04 #@! TA.AperFunction,ViaPad*
%ADD13C,0.400000*%
G04 #@! TD*
G04 #@! TA.AperFunction,Conductor*
%ADD14C,0.400000*%
G04 #@! TD*
G04 #@! TA.AperFunction,Conductor*
%ADD15C,0.250000*%
G04 #@! TD*
G04 #@! TA.AperFunction,Conductor*
%ADD16C,0.200000*%
G04 #@! TD*
G04 #@! TA.AperFunction,Conductor*
%ADD17C,0.100000*%
G04 #@! TD*
G04 #@! TA.AperFunction,Conductor*
%ADD18C,0.350000*%
G04 #@! TD*
G04 APERTURE END LIST*
D10*
G04 #@! TO.N,GND*
G04 #@! TO.C,J1*
X13210000Y38690000D03*
X4570000Y38690000D03*
D11*
X13210000Y34865000D03*
X4570000Y34865000D03*
G04 #@! TD*
D12*
G04 #@! TO.N,/A8*
G04 #@! TO.C,J5*
X1270000Y26670000D03*
G04 #@! TO.N,/A7*
X1270000Y29210000D03*
G04 #@! TO.N,/A6*
X1270000Y31750000D03*
G04 #@! TO.N,/A5*
X1270000Y34290000D03*
G04 #@! TO.N,/~IO2~*
X1270000Y36830000D03*
G04 #@! TO.N,/~IO1~*
X1270000Y39370000D03*
G04 #@! TD*
G04 #@! TO.N,VCC*
G04 #@! TO.C,J6*
X16510000Y26670000D03*
G04 #@! TO.N,/EXT_IN*
X16510000Y29210000D03*
G04 #@! TO.N,/AUDIO_OUT*
X16510000Y31750000D03*
G04 #@! TO.N,/AUDIO_OUT_2*
X16510000Y34290000D03*
G04 #@! TO.N,/EXT_IN_2*
X16510000Y36830000D03*
G04 #@! TO.N,+3V3*
X16510000Y39370000D03*
G04 #@! TD*
G04 #@! TO.N,/D0*
G04 #@! TO.C,J8*
X16510000Y1270000D03*
G04 #@! TO.N,/D1*
X16510000Y3810000D03*
G04 #@! TO.N,/D2*
X16510000Y6350000D03*
G04 #@! TO.N,/D3*
X16510000Y8890000D03*
G04 #@! TO.N,/D4*
X16510000Y11430000D03*
G04 #@! TO.N,/D5*
X16510000Y13970000D03*
G04 #@! TO.N,/D6*
X16510000Y16510000D03*
G04 #@! TO.N,/D7*
X16510000Y19050000D03*
G04 #@! TO.N,/POT_Y*
X16510000Y21590000D03*
G04 #@! TO.N,/POT_X*
X16510000Y24130000D03*
G04 #@! TD*
G04 #@! TO.N,GND*
G04 #@! TO.C,J7*
X1270000Y1270000D03*
G04 #@! TO.N,/A4*
X1270000Y3810000D03*
G04 #@! TO.N,/A3*
X1270000Y6350000D03*
G04 #@! TO.N,/A2*
X1270000Y8890000D03*
G04 #@! TO.N,/A1*
X1270000Y11430000D03*
G04 #@! TO.N,/A0*
X1270000Y13970000D03*
G04 #@! TO.N,/~CS~*
X1270000Y16510000D03*
G04 #@! TO.N,/R_~W~*
X1270000Y19050000D03*
G04 #@! TO.N,/\u00D82*
X1270000Y21590000D03*
G04 #@! TO.N,/~RES~*
X1270000Y24130000D03*
G04 #@! TD*
D13*
G04 #@! TO.N,GND*
X15910000Y17780000D03*
X1870000Y20070000D03*
X1870000Y20570000D03*
X14740000Y24200000D03*
X15290000Y28770000D03*
X5580000Y29040000D03*
X5080000Y29040000D03*
X3990000Y24840000D03*
X4330000Y29470000D03*
X4830000Y29470000D03*
X3830000Y29470000D03*
X6520000Y3580000D03*
X4970000Y3580000D03*
X4970000Y5130000D03*
X6510000Y5130000D03*
X12710000Y27500000D03*
X11830000Y26620000D03*
X12710000Y26620000D03*
X11830000Y27500000D03*
X9830000Y9750000D03*
X10770000Y10700000D03*
X7020000Y10680000D03*
X7970000Y9760000D03*
X7970000Y11620000D03*
X9820000Y11600000D03*
X8890000Y10690000D03*
X8890000Y12550000D03*
X8890000Y21590000D03*
X9890000Y20610000D03*
X10890000Y21580000D03*
X8890000Y19600000D03*
X7900000Y20610000D03*
X6910000Y21590000D03*
X8890000Y23640000D03*
X5740000Y4360000D03*
X15910000Y2540000D03*
X3900000Y18040000D03*
X13780000Y6070000D03*
X8300000Y31760000D03*
X5330000Y29470000D03*
X4580000Y29040000D03*
X8900000Y8830000D03*
X7090000Y15590000D03*
X4230000Y15140000D03*
X4220000Y11820000D03*
X15310000Y25400000D03*
X15910000Y5080000D03*
X10430000Y31340000D03*
X3380000Y3060000D03*
X7940000Y2870000D03*
X4080000Y29040000D03*
X5830000Y29470000D03*
X12720000Y5080000D03*
X15210000Y3800000D03*
X15210000Y1290000D03*
X13780000Y5080000D03*
X6480000Y33440000D03*
X12630000Y18260000D03*
X8890000Y36890000D03*
X13800000Y21540000D03*
G04 #@! TO.N,+3V3*
X1870000Y12900000D03*
X3380000Y1400000D03*
X3820000Y14850000D03*
X3540000Y24390000D03*
X3810000Y31360000D03*
X9830000Y5860000D03*
X5960000Y7480000D03*
X4050000Y9750000D03*
X11600000Y13750000D03*
X14390000Y7310000D03*
X10430000Y29510000D03*
X6870000Y17790000D03*
X13740000Y25510000D03*
X12240000Y31780000D03*
X11440000Y31780000D03*
X10890000Y6910000D03*
X10550000Y6570000D03*
X3310000Y31360000D03*
X3350000Y7410000D03*
X7240000Y6560000D03*
X6290000Y25920000D03*
G04 #@! TO.N,+1V2*
X5610000Y31360000D03*
X5810000Y18860000D03*
X14240000Y23670000D03*
X6110000Y31360000D03*
G04 #@! TO.N,VBUS*
X5910000Y25540000D03*
X9470000Y31760000D03*
X11240000Y35230000D03*
G04 #@! TO.N,/LINE_OUT_2*
X15270000Y29510000D03*
G04 #@! TO.N,/LINE_OUT*
X15270000Y30210000D03*
G04 #@! TO.N,/CC2*
X11960000Y7970000D03*
X7640000Y35230000D03*
G04 #@! TO.N,/CC1*
X7490000Y32480000D03*
X10640000Y35230000D03*
X11600000Y7620000D03*
G04 #@! TO.N,/POT_X*
X13030000Y17860000D03*
G04 #@! TO.N,/POT_Y*
X13800000Y18760000D03*
G04 #@! TO.N,/IO25*
X13700000Y11870000D03*
G04 #@! TO.N,/I2C_SDA*
X12680000Y12700000D03*
X10750000Y25570000D03*
G04 #@! TO.N,/I2C_SCL*
X13030000Y12340000D03*
X11110000Y25210000D03*
X12250000Y24610000D03*
G04 #@! TO.N,/A_SEL*
X8010000Y31320000D03*
X14850000Y13210000D03*
G04 #@! TO.N,/RXD*
X5470000Y8330000D03*
X4440000Y6720000D03*
G04 #@! TO.N,/TXD*
X5110000Y8680000D03*
X4080000Y6370000D03*
G04 #@! TO.N,/~CRESET~*
X11930000Y25000000D03*
X13730000Y9740000D03*
G04 #@! TO.N,/CDONE*
X13020000Y9030000D03*
X11750000Y24530000D03*
G04 #@! TO.N,/ICE_POT_X*
X15910000Y12700000D03*
X11250000Y7260000D03*
G04 #@! TO.N,/ICE_POT_Y*
X12310000Y8330000D03*
X11610000Y14460000D03*
G04 #@! TO.N,/ICE_A5*
X11980000Y18850000D03*
G04 #@! TO.N,/ICE_A6*
X8880000Y15580000D03*
G04 #@! TO.N,/ICE_A7*
X6160000Y18500000D03*
G04 #@! TO.N,/ICE_A8*
X6510000Y18140000D03*
G04 #@! TO.N,/ICE_~RES~*
X4260000Y17680000D03*
G04 #@! TO.N,/ICE_D4*
X13760000Y20620000D03*
G04 #@! TO.N,/ICE_D3*
X13400000Y20270000D03*
G04 #@! TO.N,/ICE_D2*
X13040000Y19920000D03*
G04 #@! TO.N,/ICE_D1*
X12690000Y19560000D03*
G04 #@! TO.N,/ICE_D0*
X12330000Y19210000D03*
G04 #@! TO.N,/ICE_A4*
X5840000Y17710000D03*
G04 #@! TO.N,/ICE_A3*
X5100000Y19550000D03*
G04 #@! TO.N,/ICE_\u00D82*
X1870000Y17530000D03*
G04 #@! TO.N,/ICE_A2*
X4740000Y19910000D03*
G04 #@! TO.N,/ICE_A1*
X4390000Y20270000D03*
G04 #@! TO.N,/ICE_A0*
X4030000Y20620000D03*
G04 #@! TO.N,/ICE_~CS~*
X3940000Y21610000D03*
G04 #@! TO.N,/ICE_R_~W~*
X1870000Y18030000D03*
G04 #@! TO.N,/ICE_D7*
X13620000Y23550000D03*
G04 #@! TO.N,/ICE_D6*
X13120000Y23540000D03*
G04 #@! TO.N,/ICE_D5*
X12640000Y23700000D03*
G04 #@! TO.N,/SBU1*
X7140000Y35230000D03*
X10290000Y32460000D03*
G04 #@! TO.N,/D-*
X4090000Y2350000D03*
X8390000Y29490000D03*
G04 #@! TO.N,/D+*
X3730000Y2700000D03*
X8010000Y29820000D03*
G04 #@! TO.N,+5V*
X4460000Y31360000D03*
X13800000Y18240000D03*
X8130000Y15720000D03*
X4960000Y31370000D03*
G04 #@! TO.N,/ICE_~IO2~*
X11270000Y18140000D03*
G04 #@! TO.N,/ICE_~IO1~*
X11620000Y18500000D03*
G04 #@! TO.N,Net-(C11-Pad1)*
X13760000Y28550000D03*
X13680000Y33010000D03*
G04 #@! TO.N,/ESP_EN*
X5130000Y7440000D03*
X13790000Y8980000D03*
G04 #@! TO.N,/VBUS_DET*
X7040000Y2000000D03*
G04 #@! TO.N,/I35*
X13700000Y10420000D03*
G04 #@! TO.N,Net-(C19-Pad2)*
X13680000Y31610000D03*
X14100000Y25860000D03*
X10150000Y28620000D03*
G04 #@! TO.N,Net-(C18-Pad2)*
X13680000Y32310000D03*
X13210000Y24990000D03*
X8410000Y28810000D03*
G04 #@! TO.N,Net-(R5-Pad1)*
X3040000Y5470000D03*
X7400000Y2350000D03*
G04 #@! TO.N,/SYS_CLK*
X3350000Y7910000D03*
X10760000Y28560000D03*
X10190000Y15180000D03*
X5450000Y23970000D03*
G04 #@! TO.N,/SPI_RAM_~CS~*
X5470000Y13050000D03*
X5080000Y23630000D03*
G04 #@! TO.N,/I2S_WCLK*
X10370000Y28170000D03*
X4400000Y9390000D03*
G04 #@! TO.N,/I2S_BCLK*
X10080000Y27760000D03*
X4760000Y12350000D03*
G04 #@! TO.N,/I2S_DOUT*
X4750000Y9030000D03*
X10040000Y26280000D03*
G04 #@! TO.N,/I2S_DIN*
X5820000Y7970000D03*
X10400000Y25930000D03*
G04 #@! TO.N,/SPI_SIO3*
X6690000Y14300000D03*
X5980000Y13590000D03*
X9830000Y15530000D03*
X5800000Y24330000D03*
G04 #@! TO.N,/SPI_SIO2*
X10540000Y14820000D03*
X6160000Y24680000D03*
G04 #@! TO.N,/SPI_ICE_~CS~*
X10900000Y14470000D03*
X6870000Y25400000D03*
G04 #@! TO.N,/SPI_SIO0*
X11250000Y14110000D03*
X7570000Y26090000D03*
G04 #@! TO.N,/SPI_SIO1*
X11970000Y13410000D03*
X6520000Y25040000D03*
X6420000Y7280000D03*
G04 #@! TO.N,/SPI_SCLK*
X7690000Y26850000D03*
X12320000Y13050000D03*
G04 #@! TO.N,VCC*
X4050000Y33460000D03*
X3550000Y33460000D03*
G04 #@! TD*
D14*
G04 #@! TO.N,+3V3*
X10550000Y6570000D02*
X10540000Y6570000D01*
D15*
G04 #@! TO.N,+1V2*
X5610000Y31360000D02*
X6110000Y31360000D01*
X6110000Y30750344D02*
X6110000Y31360000D01*
X6925172Y28744828D02*
X6925172Y29935172D01*
X12415997Y24104999D02*
X11565001Y24104999D01*
X12435999Y24125001D02*
X12415997Y24104999D01*
X6925172Y29935172D02*
X6110000Y30750344D01*
X13784999Y24125001D02*
X12435999Y24125001D01*
X14240000Y23670000D02*
X13784999Y24125001D01*
X9210000Y26460000D02*
X6925172Y28744828D01*
X11565001Y24104999D02*
X9210000Y26460000D01*
X5960000Y19950000D02*
X5960000Y19010000D01*
X4940000Y20970000D02*
X5960000Y19950000D01*
X5960000Y19010000D02*
X5810000Y18860000D01*
X4940000Y22190000D02*
X4940000Y20970000D01*
X9210000Y26460000D02*
X4940000Y22190000D01*
G04 #@! TO.N,VBUS*
X11240000Y35220000D02*
X11240000Y34250000D01*
X9470000Y32480000D02*
X9470000Y31780000D01*
X11240000Y34250000D02*
X9470000Y32480000D01*
D16*
G04 #@! TO.N,+5V*
X4460000Y31360000D02*
X4950000Y31360000D01*
X8150000Y15710000D02*
X9640000Y17200000D01*
X8130000Y25980998D02*
X4510000Y22360998D01*
X6187998Y16770000D02*
X7090000Y16770000D01*
X6550000Y29780000D02*
X6550000Y28600367D01*
X6550000Y28600367D02*
X8130000Y27020367D01*
X4960000Y31370000D02*
X6550000Y29780000D01*
X4510000Y22360998D02*
X4510000Y20800000D01*
X8130000Y27020367D02*
X8130000Y25980998D01*
X4510000Y20800000D02*
X5535001Y19774999D01*
X5535001Y19275001D02*
X5404999Y19144999D01*
X5404999Y19144999D02*
X5404999Y17552999D01*
X7090000Y16770000D02*
X8150000Y15710000D01*
X5535001Y19774999D02*
X5535001Y19275001D01*
X5404999Y17552999D02*
X6187998Y16770000D01*
X9640000Y17200000D02*
X13310000Y17200000D01*
X13800000Y17690000D02*
X13800000Y18240000D01*
X13310000Y17200000D02*
X13800000Y17690000D01*
G04 #@! TD*
D17*
G04 #@! TO.N,GND*
X15872537Y40146751D02*
X15733249Y40007463D01*
X15623811Y39843678D01*
X15548429Y39661689D01*
X15510000Y39468491D01*
X15510000Y39271509D01*
X15548429Y39078311D01*
X15623811Y38896322D01*
X15733249Y38732537D01*
X15872537Y38593249D01*
X16036322Y38483811D01*
X16218311Y38408429D01*
X16411509Y38370000D01*
X16608491Y38370000D01*
X16801689Y38408429D01*
X16983678Y38483811D01*
X17147463Y38593249D01*
X17286751Y38732537D01*
X17330001Y38797265D01*
X17330001Y37402735D01*
X17286751Y37467463D01*
X17147463Y37606751D01*
X16983678Y37716189D01*
X16801689Y37791571D01*
X16608491Y37830000D01*
X16411509Y37830000D01*
X16218311Y37791571D01*
X16036322Y37716189D01*
X15872537Y37606751D01*
X15733249Y37467463D01*
X15623811Y37303678D01*
X15548429Y37121689D01*
X15510000Y36928491D01*
X15510000Y36731509D01*
X15548429Y36538311D01*
X15623811Y36356322D01*
X15733249Y36192537D01*
X15872537Y36053249D01*
X16036322Y35943811D01*
X16218311Y35868429D01*
X16411509Y35830000D01*
X16608491Y35830000D01*
X16801689Y35868429D01*
X16983678Y35943811D01*
X17147463Y36053249D01*
X17286751Y36192537D01*
X17330001Y36257265D01*
X17330001Y34862735D01*
X17286751Y34927463D01*
X17147463Y35066751D01*
X16983678Y35176189D01*
X16801689Y35251571D01*
X16608491Y35290000D01*
X16411509Y35290000D01*
X16218311Y35251571D01*
X16036322Y35176189D01*
X15872537Y35066751D01*
X15733249Y34927463D01*
X15623811Y34763678D01*
X15548429Y34581689D01*
X15510000Y34388491D01*
X15510000Y34191509D01*
X15548429Y33998311D01*
X15623811Y33816322D01*
X15733249Y33652537D01*
X15872537Y33513249D01*
X16036322Y33403811D01*
X16218311Y33328429D01*
X16411509Y33290000D01*
X16608491Y33290000D01*
X16801689Y33328429D01*
X16983678Y33403811D01*
X17147463Y33513249D01*
X17286751Y33652537D01*
X17330001Y33717265D01*
X17330001Y32322735D01*
X17286751Y32387463D01*
X17147463Y32526751D01*
X16983678Y32636189D01*
X16801689Y32711571D01*
X16608491Y32750000D01*
X16411509Y32750000D01*
X16218311Y32711571D01*
X16036322Y32636189D01*
X15872537Y32526751D01*
X15733249Y32387463D01*
X15623811Y32223678D01*
X15548429Y32041689D01*
X15510000Y31848491D01*
X15510000Y31651509D01*
X15548429Y31458311D01*
X15623811Y31276322D01*
X15733249Y31112537D01*
X15872537Y30973249D01*
X16036322Y30863811D01*
X16218311Y30788429D01*
X16411509Y30750000D01*
X16608491Y30750000D01*
X16801689Y30788429D01*
X16983678Y30863811D01*
X17147463Y30973249D01*
X17286751Y31112537D01*
X17330001Y31177265D01*
X17330001Y29782735D01*
X17286751Y29847463D01*
X17147463Y29986751D01*
X16983678Y30096189D01*
X16801689Y30171571D01*
X16608491Y30210000D01*
X16411509Y30210000D01*
X16218311Y30171571D01*
X16036322Y30096189D01*
X15872537Y29986751D01*
X15733249Y29847463D01*
X15628259Y29690335D01*
X15624475Y29699471D01*
X15580700Y29764985D01*
X15524985Y29820700D01*
X15466168Y29860000D01*
X15524985Y29899300D01*
X15580700Y29955015D01*
X15624475Y30020529D01*
X15654628Y30093324D01*
X15670000Y30170603D01*
X15670000Y30249397D01*
X15654628Y30326676D01*
X15624475Y30399471D01*
X15580700Y30464985D01*
X15524985Y30520700D01*
X15459471Y30564475D01*
X15386676Y30594628D01*
X15309397Y30610000D01*
X15230603Y30610000D01*
X15153324Y30594628D01*
X15080529Y30564475D01*
X15015015Y30520700D01*
X14959300Y30464985D01*
X14915525Y30399471D01*
X14885372Y30326676D01*
X14870000Y30249397D01*
X14870000Y30170603D01*
X14885372Y30093324D01*
X14915525Y30020529D01*
X14959300Y29955015D01*
X15015015Y29899300D01*
X15073832Y29860000D01*
X15015015Y29820700D01*
X14959300Y29764985D01*
X14915525Y29699471D01*
X14885372Y29626676D01*
X14870000Y29549397D01*
X14870000Y29470603D01*
X14885372Y29393324D01*
X14915525Y29320529D01*
X14959300Y29255015D01*
X15015015Y29199300D01*
X15080529Y29155525D01*
X15153324Y29125372D01*
X15230603Y29110000D01*
X15309397Y29110000D01*
X15386676Y29125372D01*
X15459471Y29155525D01*
X15510000Y29189287D01*
X15510000Y29111509D01*
X15548429Y28918311D01*
X15623811Y28736322D01*
X15733249Y28572537D01*
X15872537Y28433249D01*
X16036322Y28323811D01*
X16218311Y28248429D01*
X16411509Y28210000D01*
X16608491Y28210000D01*
X16801689Y28248429D01*
X16983678Y28323811D01*
X17147463Y28433249D01*
X17286751Y28572537D01*
X17330001Y28637265D01*
X17330001Y27242736D01*
X17286751Y27307463D01*
X17147463Y27446751D01*
X16983678Y27556189D01*
X16801689Y27631571D01*
X16608491Y27670000D01*
X16411509Y27670000D01*
X16218311Y27631571D01*
X16036322Y27556189D01*
X15872537Y27446751D01*
X15733249Y27307463D01*
X15623811Y27143678D01*
X15548429Y26961689D01*
X15510000Y26768491D01*
X15510000Y26571509D01*
X15548429Y26378311D01*
X15623811Y26196322D01*
X15733249Y26032537D01*
X15872537Y25893249D01*
X16036322Y25783811D01*
X16218311Y25708429D01*
X16411509Y25670000D01*
X16608491Y25670000D01*
X16801689Y25708429D01*
X16983678Y25783811D01*
X17147463Y25893249D01*
X17286751Y26032537D01*
X17330001Y26097264D01*
X17330001Y24702736D01*
X17286751Y24767463D01*
X17147463Y24906751D01*
X16983678Y25016189D01*
X16801689Y25091571D01*
X16608491Y25130000D01*
X16411509Y25130000D01*
X16218311Y25091571D01*
X16036322Y25016189D01*
X15872537Y24906751D01*
X15733249Y24767463D01*
X15623811Y24603678D01*
X15548429Y24421689D01*
X15510000Y24228491D01*
X15510000Y24031509D01*
X15548429Y23838311D01*
X15623811Y23656322D01*
X15733249Y23492537D01*
X15872537Y23353249D01*
X16036322Y23243811D01*
X16218311Y23168429D01*
X16411509Y23130000D01*
X16608491Y23130000D01*
X16801689Y23168429D01*
X16983678Y23243811D01*
X17147463Y23353249D01*
X17286751Y23492537D01*
X17330001Y23557264D01*
X17330001Y22162736D01*
X17286751Y22227463D01*
X17147463Y22366751D01*
X16983678Y22476189D01*
X16801689Y22551571D01*
X16608491Y22590000D01*
X16411509Y22590000D01*
X16218311Y22551571D01*
X16036322Y22476189D01*
X15872537Y22366751D01*
X15733249Y22227463D01*
X15623811Y22063678D01*
X15548429Y21881689D01*
X15510000Y21688491D01*
X15510000Y21491509D01*
X15548429Y21298311D01*
X15623811Y21116322D01*
X15733249Y20952537D01*
X15872537Y20813249D01*
X16036322Y20703811D01*
X16218311Y20628429D01*
X16411509Y20590000D01*
X16608491Y20590000D01*
X16801689Y20628429D01*
X16983678Y20703811D01*
X17147463Y20813249D01*
X17286751Y20952537D01*
X17330001Y21017264D01*
X17330000Y19622736D01*
X17286751Y19687463D01*
X17147463Y19826751D01*
X16983678Y19936189D01*
X16801689Y20011571D01*
X16608491Y20050000D01*
X16411509Y20050000D01*
X16218311Y20011571D01*
X16036322Y19936189D01*
X15872537Y19826751D01*
X15733249Y19687463D01*
X15623811Y19523678D01*
X15548429Y19341689D01*
X15510000Y19148491D01*
X15510000Y18951509D01*
X15548429Y18758311D01*
X15623811Y18576322D01*
X15733249Y18412537D01*
X15872537Y18273249D01*
X16036322Y18163811D01*
X16218311Y18088429D01*
X16411509Y18050000D01*
X16608491Y18050000D01*
X16801689Y18088429D01*
X16983678Y18163811D01*
X17147463Y18273249D01*
X17286751Y18412537D01*
X17330000Y18477264D01*
X17330000Y17082736D01*
X17286751Y17147463D01*
X17147463Y17286751D01*
X16983678Y17396189D01*
X16801689Y17471571D01*
X16608491Y17510000D01*
X16411509Y17510000D01*
X16218311Y17471571D01*
X16036322Y17396189D01*
X15872537Y17286751D01*
X15733249Y17147463D01*
X15623811Y16983678D01*
X15548429Y16801689D01*
X15510000Y16608491D01*
X15510000Y16411509D01*
X15548429Y16218311D01*
X15623811Y16036322D01*
X15733249Y15872537D01*
X15872537Y15733249D01*
X16036322Y15623811D01*
X16218311Y15548429D01*
X16411509Y15510000D01*
X16608491Y15510000D01*
X16801689Y15548429D01*
X16983678Y15623811D01*
X17147463Y15733249D01*
X17286751Y15872537D01*
X17330000Y15937264D01*
X17330000Y14542736D01*
X17286751Y14607463D01*
X17147463Y14746751D01*
X16983678Y14856189D01*
X16801689Y14931571D01*
X16608491Y14970000D01*
X16411509Y14970000D01*
X16218311Y14931571D01*
X16036322Y14856189D01*
X15872537Y14746751D01*
X15733249Y14607463D01*
X15623811Y14443678D01*
X15548429Y14261689D01*
X15510000Y14068491D01*
X15510000Y13871509D01*
X15548429Y13678311D01*
X15623811Y13496322D01*
X15733249Y13332537D01*
X15872537Y13193249D01*
X16036322Y13083811D01*
X16218311Y13008429D01*
X16411509Y12970000D01*
X16608491Y12970000D01*
X16801689Y13008429D01*
X16983678Y13083811D01*
X17147463Y13193249D01*
X17286751Y13332537D01*
X17330000Y13397264D01*
X17330000Y12002736D01*
X17286751Y12067463D01*
X17147463Y12206751D01*
X16983678Y12316189D01*
X16801689Y12391571D01*
X16608491Y12430000D01*
X16411509Y12430000D01*
X16218311Y12391571D01*
X16036322Y12316189D01*
X15872537Y12206751D01*
X15733249Y12067463D01*
X15623811Y11903678D01*
X15548429Y11721689D01*
X15510000Y11528491D01*
X15510000Y11331509D01*
X15548429Y11138311D01*
X15623811Y10956322D01*
X15733249Y10792537D01*
X15872537Y10653249D01*
X16036322Y10543811D01*
X16218311Y10468429D01*
X16411509Y10430000D01*
X16608491Y10430000D01*
X16801689Y10468429D01*
X16983678Y10543811D01*
X17147463Y10653249D01*
X17286751Y10792537D01*
X17330000Y10857264D01*
X17330000Y9462736D01*
X17286751Y9527463D01*
X17147463Y9666751D01*
X16983678Y9776189D01*
X16801689Y9851571D01*
X16608491Y9890000D01*
X16411509Y9890000D01*
X16218311Y9851571D01*
X16036322Y9776189D01*
X15872537Y9666751D01*
X15733249Y9527463D01*
X15623811Y9363678D01*
X15548429Y9181689D01*
X15510000Y8988491D01*
X15510000Y8791509D01*
X15548429Y8598311D01*
X15623811Y8416322D01*
X15733249Y8252537D01*
X15872537Y8113249D01*
X16036322Y8003811D01*
X16218311Y7928429D01*
X16411509Y7890000D01*
X16608491Y7890000D01*
X16801689Y7928429D01*
X16983678Y8003811D01*
X17147463Y8113249D01*
X17286751Y8252537D01*
X17330000Y8317264D01*
X17330000Y6922736D01*
X17286751Y6987463D01*
X17147463Y7126751D01*
X16983678Y7236189D01*
X16801689Y7311571D01*
X16608491Y7350000D01*
X16411509Y7350000D01*
X16218311Y7311571D01*
X16036322Y7236189D01*
X15872537Y7126751D01*
X15733249Y6987463D01*
X15623811Y6823678D01*
X15548429Y6641689D01*
X15510000Y6448491D01*
X15510000Y6251509D01*
X15548429Y6058311D01*
X15623811Y5876322D01*
X15733249Y5712537D01*
X15872537Y5573249D01*
X16036322Y5463811D01*
X16218311Y5388429D01*
X16411509Y5350000D01*
X16608491Y5350000D01*
X16801689Y5388429D01*
X16983678Y5463811D01*
X17147463Y5573249D01*
X17286751Y5712537D01*
X17330000Y5777264D01*
X17330000Y4382736D01*
X17286751Y4447463D01*
X17147463Y4586751D01*
X16983678Y4696189D01*
X16801689Y4771571D01*
X16608491Y4810000D01*
X16411509Y4810000D01*
X16218311Y4771571D01*
X16036322Y4696189D01*
X15872537Y4586751D01*
X15733249Y4447463D01*
X15623811Y4283678D01*
X15548429Y4101689D01*
X15510000Y3908491D01*
X15510000Y3711509D01*
X15548429Y3518311D01*
X15623811Y3336322D01*
X15733249Y3172537D01*
X15872537Y3033249D01*
X16036322Y2923811D01*
X16218311Y2848429D01*
X16411509Y2810000D01*
X16608491Y2810000D01*
X16801689Y2848429D01*
X16983678Y2923811D01*
X17147463Y3033249D01*
X17286751Y3172537D01*
X17330000Y3237264D01*
X17330000Y1842736D01*
X17286751Y1907463D01*
X17147463Y2046751D01*
X16983678Y2156189D01*
X16801689Y2231571D01*
X16608491Y2270000D01*
X16411509Y2270000D01*
X16218311Y2231571D01*
X16036322Y2156189D01*
X15872537Y2046751D01*
X15733249Y1907463D01*
X15623811Y1743678D01*
X15548429Y1561689D01*
X15510000Y1368491D01*
X15510000Y1171509D01*
X15548429Y978311D01*
X15623811Y796322D01*
X15733249Y632537D01*
X15872537Y493249D01*
X15937263Y450000D01*
X1823092Y450000D01*
X1890054Y543880D01*
X1270000Y1163934D01*
X649946Y543880D01*
X716908Y450000D01*
X522005Y450000D01*
X490706Y453069D01*
X481772Y455767D01*
X473525Y460152D01*
X466288Y466054D01*
X460338Y473246D01*
X455894Y481464D01*
X453135Y490377D01*
X450000Y520207D01*
X450000Y716908D01*
X543880Y649946D01*
X1163934Y1270000D01*
X1376066Y1270000D01*
X1996120Y649946D01*
X2124749Y741694D01*
X2211392Y918599D01*
X2261859Y1109007D01*
X2274209Y1305603D01*
X2256226Y1439397D01*
X2980000Y1439397D01*
X2980000Y1360603D01*
X2995372Y1283324D01*
X3025525Y1210529D01*
X3069300Y1145015D01*
X3125015Y1089300D01*
X3190529Y1045525D01*
X3263324Y1015372D01*
X3340603Y1000000D01*
X3419397Y1000000D01*
X3496676Y1015372D01*
X3569471Y1045525D01*
X3634985Y1089300D01*
X3690700Y1145015D01*
X3734475Y1210529D01*
X3764628Y1283324D01*
X3780000Y1360603D01*
X3780000Y1439397D01*
X3764628Y1516676D01*
X3734475Y1589471D01*
X3690700Y1654985D01*
X3634985Y1710700D01*
X3569471Y1754475D01*
X3496676Y1784628D01*
X3419397Y1800000D01*
X3340603Y1800000D01*
X3263324Y1784628D01*
X3190529Y1754475D01*
X3125015Y1710700D01*
X3069300Y1654985D01*
X3025525Y1589471D01*
X2995372Y1516676D01*
X2980000Y1439397D01*
X2256226Y1439397D01*
X2247968Y1500830D01*
X2184143Y1687187D01*
X2124749Y1798306D01*
X1996120Y1890054D01*
X1376066Y1270000D01*
X1163934Y1270000D01*
X543880Y1890054D01*
X450000Y1823092D01*
X450000Y1996120D01*
X649946Y1996120D01*
X1270000Y1376066D01*
X1890054Y1996120D01*
X1798306Y2124749D01*
X1621401Y2211392D01*
X1430993Y2261859D01*
X1234397Y2274209D01*
X1039170Y2247968D01*
X852813Y2184143D01*
X741694Y2124749D01*
X649946Y1996120D01*
X450000Y1996120D01*
X450000Y2739397D01*
X3330000Y2739397D01*
X3330000Y2660603D01*
X3345372Y2583324D01*
X3375525Y2510529D01*
X3419300Y2445015D01*
X3475015Y2389300D01*
X3540529Y2345525D01*
X3613324Y2315372D01*
X3690603Y2300000D01*
X3692109Y2300000D01*
X3705372Y2233324D01*
X3735525Y2160529D01*
X3779300Y2095015D01*
X3835015Y2039300D01*
X3900529Y1995525D01*
X3973324Y1965372D01*
X4050603Y1950000D01*
X4129397Y1950000D01*
X4206676Y1965372D01*
X4279471Y1995525D01*
X4344985Y2039300D01*
X4345082Y2039397D01*
X6640000Y2039397D01*
X6640000Y1960603D01*
X6655372Y1883324D01*
X6685525Y1810529D01*
X6729300Y1745015D01*
X6785015Y1689300D01*
X6850529Y1645525D01*
X6923324Y1615372D01*
X7000603Y1600000D01*
X7079397Y1600000D01*
X7156676Y1615372D01*
X7229471Y1645525D01*
X7294985Y1689300D01*
X7350700Y1745015D01*
X7394475Y1810529D01*
X7424628Y1883324D01*
X7437891Y1950000D01*
X7439397Y1950000D01*
X7516676Y1965372D01*
X7589471Y1995525D01*
X7654985Y2039300D01*
X7710700Y2095015D01*
X7754475Y2160529D01*
X7784628Y2233324D01*
X7800000Y2310603D01*
X7800000Y2389397D01*
X7784628Y2466676D01*
X7754475Y2539471D01*
X7710700Y2604985D01*
X7654985Y2660700D01*
X7589471Y2704475D01*
X7516676Y2734628D01*
X7439397Y2750000D01*
X7360603Y2750000D01*
X7283324Y2734628D01*
X7210529Y2704475D01*
X7145015Y2660700D01*
X7089300Y2604985D01*
X7045525Y2539471D01*
X7015372Y2466676D01*
X7002109Y2400000D01*
X7000603Y2400000D01*
X6923324Y2384628D01*
X6850529Y2354475D01*
X6785015Y2310700D01*
X6729300Y2254985D01*
X6685525Y2189471D01*
X6655372Y2116676D01*
X6640000Y2039397D01*
X4345082Y2039397D01*
X4400700Y2095015D01*
X4444475Y2160529D01*
X4474628Y2233324D01*
X4490000Y2310603D01*
X4490000Y2389397D01*
X4474628Y2466676D01*
X4444475Y2539471D01*
X4400700Y2604985D01*
X4344985Y2660700D01*
X4279471Y2704475D01*
X4206676Y2734628D01*
X4129397Y2750000D01*
X4127891Y2750000D01*
X4114628Y2816676D01*
X4084475Y2889471D01*
X4040700Y2954985D01*
X3984985Y3010700D01*
X3919471Y3054475D01*
X3846676Y3084628D01*
X3769397Y3100000D01*
X3690603Y3100000D01*
X3613324Y3084628D01*
X3540529Y3054475D01*
X3475015Y3010700D01*
X3419300Y2954985D01*
X3375525Y2889471D01*
X3345372Y2816676D01*
X3330000Y2739397D01*
X450000Y2739397D01*
X450000Y3237263D01*
X493249Y3172537D01*
X632537Y3033249D01*
X796322Y2923811D01*
X978311Y2848429D01*
X1171509Y2810000D01*
X1368491Y2810000D01*
X1561689Y2848429D01*
X1743678Y2923811D01*
X1907463Y3033249D01*
X2046751Y3172537D01*
X2156189Y3336322D01*
X2231571Y3518311D01*
X2270000Y3711509D01*
X2270000Y3908491D01*
X2231571Y4101689D01*
X2156189Y4283678D01*
X2046751Y4447463D01*
X1907463Y4586751D01*
X1743678Y4696189D01*
X1561689Y4771571D01*
X1368491Y4810000D01*
X1171509Y4810000D01*
X978311Y4771571D01*
X796322Y4696189D01*
X632537Y4586751D01*
X493249Y4447463D01*
X450000Y4382737D01*
X450000Y5777263D01*
X493249Y5712537D01*
X632537Y5573249D01*
X796322Y5463811D01*
X978311Y5388429D01*
X1171509Y5350000D01*
X1368491Y5350000D01*
X1561689Y5388429D01*
X1743678Y5463811D01*
X1811902Y5509397D01*
X2640000Y5509397D01*
X2640000Y5430603D01*
X2655372Y5353324D01*
X2685525Y5280529D01*
X2729300Y5215015D01*
X2785015Y5159300D01*
X2850529Y5115525D01*
X2923324Y5085372D01*
X3000603Y5070000D01*
X3079397Y5070000D01*
X3156676Y5085372D01*
X3229471Y5115525D01*
X3294985Y5159300D01*
X3350700Y5215015D01*
X3394475Y5280529D01*
X3424628Y5353324D01*
X3440000Y5430603D01*
X3440000Y5509397D01*
X3424628Y5586676D01*
X3394475Y5659471D01*
X3350700Y5724985D01*
X3294985Y5780700D01*
X3229471Y5824475D01*
X3156676Y5854628D01*
X3079397Y5870000D01*
X3000603Y5870000D01*
X2923324Y5854628D01*
X2850529Y5824475D01*
X2785015Y5780700D01*
X2729300Y5724985D01*
X2685525Y5659471D01*
X2655372Y5586676D01*
X2640000Y5509397D01*
X1811902Y5509397D01*
X1907463Y5573249D01*
X2046751Y5712537D01*
X2156189Y5876322D01*
X2165746Y5899397D01*
X9430000Y5899397D01*
X9430000Y5820603D01*
X9445372Y5743324D01*
X9475525Y5670529D01*
X9519300Y5605015D01*
X9575015Y5549300D01*
X9640529Y5505525D01*
X9713324Y5475372D01*
X9790603Y5460000D01*
X9869397Y5460000D01*
X9946676Y5475372D01*
X10019471Y5505525D01*
X10084985Y5549300D01*
X10140700Y5605015D01*
X10184475Y5670529D01*
X10214628Y5743324D01*
X10230000Y5820603D01*
X10230000Y5899397D01*
X10214628Y5976676D01*
X10184475Y6049471D01*
X10140700Y6114985D01*
X10084985Y6170700D01*
X10019471Y6214475D01*
X9946676Y6244628D01*
X9869397Y6260000D01*
X9790603Y6260000D01*
X9713324Y6244628D01*
X9640529Y6214475D01*
X9575015Y6170700D01*
X9519300Y6114985D01*
X9475525Y6049471D01*
X9445372Y5976676D01*
X9430000Y5899397D01*
X2165746Y5899397D01*
X2231571Y6058311D01*
X2270000Y6251509D01*
X2270000Y6409397D01*
X3680000Y6409397D01*
X3680000Y6330603D01*
X3695372Y6253324D01*
X3725525Y6180529D01*
X3769300Y6115015D01*
X3825015Y6059300D01*
X3890529Y6015525D01*
X3963324Y5985372D01*
X4040603Y5970000D01*
X4119397Y5970000D01*
X4196676Y5985372D01*
X4269471Y6015525D01*
X4334985Y6059300D01*
X4390700Y6115015D01*
X4434475Y6180529D01*
X4464628Y6253324D01*
X4477891Y6320000D01*
X4479397Y6320000D01*
X4556676Y6335372D01*
X4629471Y6365525D01*
X4694985Y6409300D01*
X4750700Y6465015D01*
X4794475Y6530529D01*
X4823001Y6599397D01*
X6840000Y6599397D01*
X6840000Y6520603D01*
X6855372Y6443324D01*
X6885525Y6370529D01*
X6929300Y6305015D01*
X6985015Y6249300D01*
X7050529Y6205525D01*
X7123324Y6175372D01*
X7200603Y6160000D01*
X7279397Y6160000D01*
X7356676Y6175372D01*
X7429471Y6205525D01*
X7494985Y6249300D01*
X7550700Y6305015D01*
X7594475Y6370529D01*
X7624628Y6443324D01*
X7640000Y6520603D01*
X7640000Y6570000D01*
X10138065Y6570000D01*
X10145788Y6491586D01*
X10168660Y6416186D01*
X10205803Y6346697D01*
X10255789Y6285789D01*
X10316697Y6235803D01*
X10386186Y6198660D01*
X10461586Y6175788D01*
X10501041Y6171902D01*
X10510603Y6170000D01*
X10589397Y6170000D01*
X10608767Y6173853D01*
X10628414Y6175788D01*
X10647309Y6181520D01*
X10666676Y6185372D01*
X10684917Y6192928D01*
X10703814Y6198660D01*
X10721231Y6207970D01*
X10739471Y6215525D01*
X10755887Y6226494D01*
X10773303Y6235803D01*
X10788567Y6248330D01*
X10804985Y6259300D01*
X10818948Y6273263D01*
X10834211Y6285789D01*
X10846737Y6301052D01*
X10860700Y6315015D01*
X10871670Y6331433D01*
X10884197Y6346697D01*
X10893506Y6364113D01*
X10904475Y6380529D01*
X10912030Y6398769D01*
X10921340Y6416186D01*
X10927072Y6435083D01*
X10934628Y6453324D01*
X10938480Y6472691D01*
X10944212Y6491586D01*
X10946147Y6511233D01*
X10946582Y6513418D01*
X11006676Y6525372D01*
X11079471Y6555525D01*
X11144985Y6599300D01*
X11200700Y6655015D01*
X11244475Y6720529D01*
X11274628Y6793324D01*
X11287891Y6860000D01*
X11289397Y6860000D01*
X11366676Y6875372D01*
X11439471Y6905525D01*
X11504985Y6949300D01*
X11560700Y7005015D01*
X11604475Y7070529D01*
X11634628Y7143324D01*
X11650000Y7220603D01*
X11650000Y7222109D01*
X11716676Y7235372D01*
X11789471Y7265525D01*
X11854985Y7309300D01*
X11895082Y7349397D01*
X13990000Y7349397D01*
X13990000Y7270603D01*
X14005372Y7193324D01*
X14035525Y7120529D01*
X14079300Y7055015D01*
X14135015Y6999300D01*
X14200529Y6955525D01*
X14273324Y6925372D01*
X14350603Y6910000D01*
X14429397Y6910000D01*
X14506676Y6925372D01*
X14579471Y6955525D01*
X14644985Y6999300D01*
X14700700Y7055015D01*
X14744475Y7120529D01*
X14774628Y7193324D01*
X14790000Y7270603D01*
X14790000Y7349397D01*
X14774628Y7426676D01*
X14744475Y7499471D01*
X14700700Y7564985D01*
X14644985Y7620700D01*
X14579471Y7664475D01*
X14506676Y7694628D01*
X14429397Y7710000D01*
X14350603Y7710000D01*
X14273324Y7694628D01*
X14200529Y7664475D01*
X14135015Y7620700D01*
X14079300Y7564985D01*
X14035525Y7499471D01*
X14005372Y7426676D01*
X13990000Y7349397D01*
X11895082Y7349397D01*
X11910700Y7365015D01*
X11954475Y7430529D01*
X11984628Y7503324D01*
X11997891Y7570000D01*
X11999397Y7570000D01*
X12076676Y7585372D01*
X12149471Y7615525D01*
X12214985Y7659300D01*
X12270700Y7715015D01*
X12314475Y7780529D01*
X12344628Y7853324D01*
X12360000Y7930603D01*
X12360000Y7932109D01*
X12426676Y7945372D01*
X12499471Y7975525D01*
X12564985Y8019300D01*
X12620700Y8075015D01*
X12664475Y8140529D01*
X12694628Y8213324D01*
X12710000Y8290603D01*
X12710000Y8369397D01*
X12694628Y8446676D01*
X12664475Y8519471D01*
X12620700Y8584985D01*
X12564985Y8640700D01*
X12499471Y8684475D01*
X12426676Y8714628D01*
X12349397Y8730000D01*
X12270603Y8730000D01*
X12193324Y8714628D01*
X12120529Y8684475D01*
X12055015Y8640700D01*
X11999300Y8584985D01*
X11955525Y8519471D01*
X11925372Y8446676D01*
X11910000Y8369397D01*
X11910000Y8367891D01*
X11843324Y8354628D01*
X11770529Y8324475D01*
X11705015Y8280700D01*
X11649300Y8224985D01*
X11605525Y8159471D01*
X11575372Y8086676D01*
X11562109Y8020000D01*
X11560603Y8020000D01*
X11483324Y8004628D01*
X11410529Y7974475D01*
X11345015Y7930700D01*
X11289300Y7874985D01*
X11245525Y7809471D01*
X11215372Y7736676D01*
X11200000Y7659397D01*
X11200000Y7657891D01*
X11133324Y7644628D01*
X11060529Y7614475D01*
X10995015Y7570700D01*
X10939300Y7514985D01*
X10895525Y7449471D01*
X10865372Y7376676D01*
X10852109Y7310000D01*
X10850603Y7310000D01*
X10773324Y7294628D01*
X10700529Y7264475D01*
X10635015Y7220700D01*
X10579300Y7164985D01*
X10535525Y7099471D01*
X10505372Y7026676D01*
X10493574Y6967362D01*
X10461586Y6964212D01*
X10386186Y6941340D01*
X10316697Y6904197D01*
X10255789Y6854211D01*
X10205803Y6793303D01*
X10168660Y6723814D01*
X10145788Y6648414D01*
X10138065Y6570000D01*
X7640000Y6570000D01*
X7640000Y6599397D01*
X7624628Y6676676D01*
X7594475Y6749471D01*
X7550700Y6814985D01*
X7494985Y6870700D01*
X7429471Y6914475D01*
X7356676Y6944628D01*
X7279397Y6960000D01*
X7200603Y6960000D01*
X7123324Y6944628D01*
X7050529Y6914475D01*
X6985015Y6870700D01*
X6929300Y6814985D01*
X6885525Y6749471D01*
X6855372Y6676676D01*
X6840000Y6599397D01*
X4823001Y6599397D01*
X4824628Y6603324D01*
X4840000Y6680603D01*
X4840000Y6759397D01*
X4824628Y6836676D01*
X4794475Y6909471D01*
X4750700Y6974985D01*
X4694985Y7030700D01*
X4629471Y7074475D01*
X4556676Y7104628D01*
X4479397Y7120000D01*
X4400603Y7120000D01*
X4323324Y7104628D01*
X4250529Y7074475D01*
X4185015Y7030700D01*
X4129300Y6974985D01*
X4085525Y6909471D01*
X4055372Y6836676D01*
X4042109Y6770000D01*
X4040603Y6770000D01*
X3963324Y6754628D01*
X3890529Y6724475D01*
X3825015Y6680700D01*
X3769300Y6624985D01*
X3725525Y6559471D01*
X3695372Y6486676D01*
X3680000Y6409397D01*
X2270000Y6409397D01*
X2270000Y6448491D01*
X2231571Y6641689D01*
X2156189Y6823678D01*
X2046751Y6987463D01*
X1907463Y7126751D01*
X1743678Y7236189D01*
X1561689Y7311571D01*
X1368491Y7350000D01*
X1171509Y7350000D01*
X978311Y7311571D01*
X796322Y7236189D01*
X632537Y7126751D01*
X493249Y6987463D01*
X450000Y6922737D01*
X450000Y8317263D01*
X493249Y8252537D01*
X632537Y8113249D01*
X796322Y8003811D01*
X978311Y7928429D01*
X1171509Y7890000D01*
X1368491Y7890000D01*
X1561689Y7928429D01*
X1612310Y7949397D01*
X2950000Y7949397D01*
X2950000Y7870603D01*
X2965372Y7793324D01*
X2995525Y7720529D01*
X3035969Y7660000D01*
X2995525Y7599471D01*
X2965372Y7526676D01*
X2950000Y7449397D01*
X2950000Y7370603D01*
X2965372Y7293324D01*
X2995525Y7220529D01*
X3039300Y7155015D01*
X3095015Y7099300D01*
X3160529Y7055525D01*
X3233324Y7025372D01*
X3310603Y7010000D01*
X3389397Y7010000D01*
X3466676Y7025372D01*
X3539471Y7055525D01*
X3604985Y7099300D01*
X3660700Y7155015D01*
X3704475Y7220529D01*
X3734628Y7293324D01*
X3750000Y7370603D01*
X3750000Y7449397D01*
X3744033Y7479397D01*
X4730000Y7479397D01*
X4730000Y7400603D01*
X4745372Y7323324D01*
X4775525Y7250529D01*
X4819300Y7185015D01*
X4875015Y7129300D01*
X4940529Y7085525D01*
X5013324Y7055372D01*
X5090603Y7040000D01*
X5169397Y7040000D01*
X5246676Y7055372D01*
X5319471Y7085525D01*
X5384985Y7129300D01*
X5440700Y7185015D01*
X5484475Y7250529D01*
X5514628Y7323324D01*
X5530000Y7400603D01*
X5530000Y7479397D01*
X5514628Y7556676D01*
X5484475Y7629471D01*
X5440700Y7694985D01*
X5384985Y7750700D01*
X5319471Y7794475D01*
X5246676Y7824628D01*
X5169397Y7840000D01*
X5090603Y7840000D01*
X5013324Y7824628D01*
X4940529Y7794475D01*
X4875015Y7750700D01*
X4819300Y7694985D01*
X4775525Y7629471D01*
X4745372Y7556676D01*
X4730000Y7479397D01*
X3744033Y7479397D01*
X3734628Y7526676D01*
X3704475Y7599471D01*
X3664031Y7660000D01*
X3704475Y7720529D01*
X3734628Y7793324D01*
X3750000Y7870603D01*
X3750000Y7949397D01*
X3734628Y8026676D01*
X3704475Y8099471D01*
X3660700Y8164985D01*
X3604985Y8220700D01*
X3539471Y8264475D01*
X3466676Y8294628D01*
X3389397Y8310000D01*
X3310603Y8310000D01*
X3233324Y8294628D01*
X3160529Y8264475D01*
X3095015Y8220700D01*
X3039300Y8164985D01*
X2995525Y8099471D01*
X2965372Y8026676D01*
X2950000Y7949397D01*
X1612310Y7949397D01*
X1743678Y8003811D01*
X1907463Y8113249D01*
X2046751Y8252537D01*
X2156189Y8416322D01*
X2231571Y8598311D01*
X2270000Y8791509D01*
X2270000Y8988491D01*
X2231571Y9181689D01*
X2156189Y9363678D01*
X2046751Y9527463D01*
X1907463Y9666751D01*
X1743678Y9776189D01*
X1711791Y9789397D01*
X3650000Y9789397D01*
X3650000Y9710603D01*
X3665372Y9633324D01*
X3695525Y9560529D01*
X3739300Y9495015D01*
X3795015Y9439300D01*
X3860529Y9395525D01*
X3933324Y9365372D01*
X4000000Y9352109D01*
X4000000Y9350603D01*
X4015372Y9273324D01*
X4045525Y9200529D01*
X4089300Y9135015D01*
X4145015Y9079300D01*
X4210529Y9035525D01*
X4283324Y9005372D01*
X4350000Y8992109D01*
X4350000Y8990603D01*
X4365372Y8913324D01*
X4395525Y8840529D01*
X4439300Y8775015D01*
X4495015Y8719300D01*
X4560529Y8675525D01*
X4633324Y8645372D01*
X4710603Y8630000D01*
X4712109Y8630000D01*
X4725372Y8563324D01*
X4755525Y8490529D01*
X4799300Y8425015D01*
X4855015Y8369300D01*
X4920529Y8325525D01*
X4993324Y8295372D01*
X5070603Y8280000D01*
X5072109Y8280000D01*
X5085372Y8213324D01*
X5115525Y8140529D01*
X5159300Y8075015D01*
X5215015Y8019300D01*
X5280529Y7975525D01*
X5353324Y7945372D01*
X5420000Y7932109D01*
X5420000Y7930603D01*
X5435372Y7853324D01*
X5465525Y7780529D01*
X5509300Y7715015D01*
X5565015Y7659300D01*
X5593444Y7640305D01*
X5575372Y7596676D01*
X5560000Y7519397D01*
X5560000Y7440603D01*
X5575372Y7363324D01*
X5605525Y7290529D01*
X5649300Y7225015D01*
X5705015Y7169300D01*
X5770529Y7125525D01*
X5843324Y7095372D01*
X5920603Y7080000D01*
X5999397Y7080000D01*
X6064520Y7092954D01*
X6065525Y7090529D01*
X6109300Y7025015D01*
X6165015Y6969300D01*
X6230529Y6925525D01*
X6303324Y6895372D01*
X6380603Y6880000D01*
X6459397Y6880000D01*
X6536676Y6895372D01*
X6609471Y6925525D01*
X6674985Y6969300D01*
X6730700Y7025015D01*
X6774475Y7090529D01*
X6804628Y7163324D01*
X6820000Y7240603D01*
X6820000Y7319397D01*
X6804628Y7396676D01*
X6774475Y7469471D01*
X6730700Y7534985D01*
X6674985Y7590700D01*
X6609471Y7634475D01*
X6536676Y7664628D01*
X6459397Y7680000D01*
X6380603Y7680000D01*
X6315480Y7667046D01*
X6314475Y7669471D01*
X6270700Y7734985D01*
X6214985Y7790700D01*
X6186556Y7809695D01*
X6204628Y7853324D01*
X6220000Y7930603D01*
X6220000Y8009397D01*
X6204628Y8086676D01*
X6174475Y8159471D01*
X6130700Y8224985D01*
X6074985Y8280700D01*
X6009471Y8324475D01*
X5936676Y8354628D01*
X5870000Y8367891D01*
X5870000Y8369397D01*
X5854628Y8446676D01*
X5824475Y8519471D01*
X5780700Y8584985D01*
X5724985Y8640700D01*
X5659471Y8684475D01*
X5586676Y8714628D01*
X5509397Y8730000D01*
X5507891Y8730000D01*
X5494628Y8796676D01*
X5464475Y8869471D01*
X5420700Y8934985D01*
X5364985Y8990700D01*
X5299471Y9034475D01*
X5226676Y9064628D01*
X5202702Y9069397D01*
X12620000Y9069397D01*
X12620000Y8990603D01*
X12635372Y8913324D01*
X12665525Y8840529D01*
X12709300Y8775015D01*
X12765015Y8719300D01*
X12830529Y8675525D01*
X12903324Y8645372D01*
X12980603Y8630000D01*
X13059397Y8630000D01*
X13136676Y8645372D01*
X13209471Y8675525D01*
X13274985Y8719300D01*
X13330700Y8775015D01*
X13374475Y8840529D01*
X13398412Y8898316D01*
X13405372Y8863324D01*
X13435525Y8790529D01*
X13479300Y8725015D01*
X13535015Y8669300D01*
X13600529Y8625525D01*
X13673324Y8595372D01*
X13750603Y8580000D01*
X13829397Y8580000D01*
X13906676Y8595372D01*
X13979471Y8625525D01*
X14044985Y8669300D01*
X14100700Y8725015D01*
X14144475Y8790529D01*
X14174628Y8863324D01*
X14190000Y8940603D01*
X14190000Y9019397D01*
X14174628Y9096676D01*
X14144475Y9169471D01*
X14100700Y9234985D01*
X14044985Y9290700D01*
X13979471Y9334475D01*
X13906676Y9364628D01*
X13881238Y9369688D01*
X13919471Y9385525D01*
X13984985Y9429300D01*
X14040700Y9485015D01*
X14084475Y9550529D01*
X14114628Y9623324D01*
X14130000Y9700603D01*
X14130000Y9779397D01*
X14114628Y9856676D01*
X14084475Y9929471D01*
X14040700Y9994985D01*
X13984985Y10050700D01*
X13926134Y10090023D01*
X13954985Y10109300D01*
X14010700Y10165015D01*
X14054475Y10230529D01*
X14084628Y10303324D01*
X14100000Y10380603D01*
X14100000Y10459397D01*
X14084628Y10536676D01*
X14054475Y10609471D01*
X14010700Y10674985D01*
X13954985Y10730700D01*
X13889471Y10774475D01*
X13816676Y10804628D01*
X13739397Y10820000D01*
X13660603Y10820000D01*
X13583324Y10804628D01*
X13510529Y10774475D01*
X13445015Y10730700D01*
X13389300Y10674985D01*
X13345525Y10609471D01*
X13315372Y10536676D01*
X13300000Y10459397D01*
X13300000Y10380603D01*
X13315372Y10303324D01*
X13345525Y10230529D01*
X13389300Y10165015D01*
X13445015Y10109300D01*
X13503866Y10069977D01*
X13475015Y10050700D01*
X13419300Y9994985D01*
X13375525Y9929471D01*
X13345372Y9856676D01*
X13330000Y9779397D01*
X13330000Y9700603D01*
X13345372Y9623324D01*
X13375525Y9550529D01*
X13419300Y9485015D01*
X13475015Y9429300D01*
X13540529Y9385525D01*
X13613324Y9355372D01*
X13638762Y9350312D01*
X13600529Y9334475D01*
X13535015Y9290700D01*
X13479300Y9234985D01*
X13435525Y9169471D01*
X13411588Y9111684D01*
X13404628Y9146676D01*
X13374475Y9219471D01*
X13330700Y9284985D01*
X13274985Y9340700D01*
X13209471Y9384475D01*
X13136676Y9414628D01*
X13059397Y9430000D01*
X12980603Y9430000D01*
X12903324Y9414628D01*
X12830529Y9384475D01*
X12765015Y9340700D01*
X12709300Y9284985D01*
X12665525Y9219471D01*
X12635372Y9146676D01*
X12620000Y9069397D01*
X5202702Y9069397D01*
X5149397Y9080000D01*
X5147891Y9080000D01*
X5134628Y9146676D01*
X5104475Y9219471D01*
X5060700Y9284985D01*
X5004985Y9340700D01*
X4939471Y9384475D01*
X4866676Y9414628D01*
X4800000Y9427891D01*
X4800000Y9429397D01*
X4784628Y9506676D01*
X4754475Y9579471D01*
X4710700Y9644985D01*
X4654985Y9700700D01*
X4589471Y9744475D01*
X4516676Y9774628D01*
X4450000Y9787891D01*
X4450000Y9789397D01*
X4434628Y9866676D01*
X4404475Y9939471D01*
X4360700Y10004985D01*
X4304985Y10060700D01*
X4239471Y10104475D01*
X4166676Y10134628D01*
X4089397Y10150000D01*
X4010603Y10150000D01*
X3933324Y10134628D01*
X3860529Y10104475D01*
X3795015Y10060700D01*
X3739300Y10004985D01*
X3695525Y9939471D01*
X3665372Y9866676D01*
X3650000Y9789397D01*
X1711791Y9789397D01*
X1561689Y9851571D01*
X1368491Y9890000D01*
X1171509Y9890000D01*
X978311Y9851571D01*
X796322Y9776189D01*
X632537Y9666751D01*
X493249Y9527463D01*
X450000Y9462737D01*
X450000Y10857263D01*
X493249Y10792537D01*
X632537Y10653249D01*
X796322Y10543811D01*
X978311Y10468429D01*
X1171509Y10430000D01*
X1368491Y10430000D01*
X1561689Y10468429D01*
X1743678Y10543811D01*
X1907463Y10653249D01*
X2046751Y10792537D01*
X2156189Y10956322D01*
X2231571Y11138311D01*
X2270000Y11331509D01*
X2270000Y11528491D01*
X2231571Y11721689D01*
X2156189Y11903678D01*
X2152368Y11909397D01*
X13300000Y11909397D01*
X13300000Y11830603D01*
X13315372Y11753324D01*
X13345525Y11680529D01*
X13389300Y11615015D01*
X13445015Y11559300D01*
X13510529Y11515525D01*
X13583324Y11485372D01*
X13660603Y11470000D01*
X13739397Y11470000D01*
X13816676Y11485372D01*
X13889471Y11515525D01*
X13954985Y11559300D01*
X14010700Y11615015D01*
X14054475Y11680529D01*
X14084628Y11753324D01*
X14100000Y11830603D01*
X14100000Y11909397D01*
X14084628Y11986676D01*
X14054475Y12059471D01*
X14010700Y12124985D01*
X13954985Y12180700D01*
X13889471Y12224475D01*
X13816676Y12254628D01*
X13739397Y12270000D01*
X13660603Y12270000D01*
X13583324Y12254628D01*
X13510529Y12224475D01*
X13445015Y12180700D01*
X13389300Y12124985D01*
X13345525Y12059471D01*
X13315372Y11986676D01*
X13300000Y11909397D01*
X2152368Y11909397D01*
X2046751Y12067463D01*
X1907463Y12206751D01*
X1743678Y12316189D01*
X1566938Y12389397D01*
X4360000Y12389397D01*
X4360000Y12310603D01*
X4375372Y12233324D01*
X4405525Y12160529D01*
X4449300Y12095015D01*
X4505015Y12039300D01*
X4570529Y11995525D01*
X4643324Y11965372D01*
X4720603Y11950000D01*
X4799397Y11950000D01*
X4876676Y11965372D01*
X4949471Y11995525D01*
X5014985Y12039300D01*
X5070700Y12095015D01*
X5114475Y12160529D01*
X5144628Y12233324D01*
X5160000Y12310603D01*
X5160000Y12389397D01*
X5144628Y12466676D01*
X5114475Y12539471D01*
X5070700Y12604985D01*
X5014985Y12660700D01*
X4949471Y12704475D01*
X4876676Y12734628D01*
X4799397Y12750000D01*
X4720603Y12750000D01*
X4643324Y12734628D01*
X4570529Y12704475D01*
X4505015Y12660700D01*
X4449300Y12604985D01*
X4405525Y12539471D01*
X4375372Y12466676D01*
X4360000Y12389397D01*
X1566938Y12389397D01*
X1561689Y12391571D01*
X1368491Y12430000D01*
X1171509Y12430000D01*
X978311Y12391571D01*
X796322Y12316189D01*
X632537Y12206751D01*
X493249Y12067463D01*
X450000Y12002737D01*
X450000Y13397263D01*
X493249Y13332537D01*
X632537Y13193249D01*
X796322Y13083811D01*
X978311Y13008429D01*
X1171509Y12970000D01*
X1368491Y12970000D01*
X1480520Y12992284D01*
X1470000Y12939397D01*
X1470000Y12860603D01*
X1485372Y12783324D01*
X1515525Y12710529D01*
X1559300Y12645015D01*
X1615015Y12589300D01*
X1680529Y12545525D01*
X1753324Y12515372D01*
X1830603Y12500000D01*
X1909397Y12500000D01*
X1986676Y12515372D01*
X2059471Y12545525D01*
X2124985Y12589300D01*
X2180700Y12645015D01*
X2224475Y12710529D01*
X2254628Y12783324D01*
X2270000Y12860603D01*
X2270000Y12939397D01*
X2254628Y13016676D01*
X2224506Y13089397D01*
X5070000Y13089397D01*
X5070000Y13010603D01*
X5085372Y12933324D01*
X5115525Y12860529D01*
X5159300Y12795015D01*
X5215015Y12739300D01*
X5280529Y12695525D01*
X5353324Y12665372D01*
X5430603Y12650000D01*
X5509397Y12650000D01*
X5586676Y12665372D01*
X5659471Y12695525D01*
X5724985Y12739300D01*
X5780700Y12795015D01*
X5824475Y12860529D01*
X5854628Y12933324D01*
X5870000Y13010603D01*
X5870000Y13089397D01*
X5854628Y13166676D01*
X5833479Y13217734D01*
X5863324Y13205372D01*
X5940603Y13190000D01*
X6019397Y13190000D01*
X6096676Y13205372D01*
X6169471Y13235525D01*
X6234985Y13279300D01*
X6290700Y13335015D01*
X6334475Y13400529D01*
X6364628Y13473324D01*
X6380000Y13550603D01*
X6380000Y13629397D01*
X6364628Y13706676D01*
X6334475Y13779471D01*
X6290700Y13844985D01*
X6234985Y13900700D01*
X6169471Y13944475D01*
X6096676Y13974628D01*
X6019397Y13990000D01*
X5940603Y13990000D01*
X5863324Y13974628D01*
X5790529Y13944475D01*
X5725015Y13900700D01*
X5669300Y13844985D01*
X5625525Y13779471D01*
X5595372Y13706676D01*
X5580000Y13629397D01*
X5580000Y13550603D01*
X5595372Y13473324D01*
X5616521Y13422266D01*
X5586676Y13434628D01*
X5509397Y13450000D01*
X5430603Y13450000D01*
X5353324Y13434628D01*
X5280529Y13404475D01*
X5215015Y13360700D01*
X5159300Y13304985D01*
X5115525Y13239471D01*
X5085372Y13166676D01*
X5070000Y13089397D01*
X2224506Y13089397D01*
X2224475Y13089471D01*
X2180700Y13154985D01*
X2124985Y13210700D01*
X2059471Y13254475D01*
X1995279Y13281065D01*
X2046751Y13332537D01*
X2156189Y13496322D01*
X2231571Y13678311D01*
X2270000Y13871509D01*
X2270000Y14068491D01*
X2231571Y14261689D01*
X2199384Y14339397D01*
X6290000Y14339397D01*
X6290000Y14260603D01*
X6305372Y14183324D01*
X6335525Y14110529D01*
X6379300Y14045015D01*
X6435015Y13989300D01*
X6500529Y13945525D01*
X6573324Y13915372D01*
X6650603Y13900000D01*
X6729397Y13900000D01*
X6806676Y13915372D01*
X6879471Y13945525D01*
X6944985Y13989300D01*
X7000700Y14045015D01*
X7044475Y14110529D01*
X7074628Y14183324D01*
X7090000Y14260603D01*
X7090000Y14339397D01*
X7074628Y14416676D01*
X7044475Y14489471D01*
X7000700Y14554985D01*
X6944985Y14610700D01*
X6879471Y14654475D01*
X6806676Y14684628D01*
X6729397Y14700000D01*
X6650603Y14700000D01*
X6573324Y14684628D01*
X6500529Y14654475D01*
X6435015Y14610700D01*
X6379300Y14554985D01*
X6335525Y14489471D01*
X6305372Y14416676D01*
X6290000Y14339397D01*
X2199384Y14339397D01*
X2156189Y14443678D01*
X2046751Y14607463D01*
X1907463Y14746751D01*
X1743678Y14856189D01*
X1663507Y14889397D01*
X3420000Y14889397D01*
X3420000Y14810603D01*
X3435372Y14733324D01*
X3465525Y14660529D01*
X3509300Y14595015D01*
X3565015Y14539300D01*
X3630529Y14495525D01*
X3703324Y14465372D01*
X3780603Y14450000D01*
X3859397Y14450000D01*
X3936676Y14465372D01*
X4009471Y14495525D01*
X4074985Y14539300D01*
X4130700Y14595015D01*
X4174475Y14660529D01*
X4204628Y14733324D01*
X4220000Y14810603D01*
X4220000Y14889397D01*
X4204628Y14966676D01*
X4174475Y15039471D01*
X4130700Y15104985D01*
X4074985Y15160700D01*
X4009471Y15204475D01*
X3936676Y15234628D01*
X3859397Y15250000D01*
X3780603Y15250000D01*
X3703324Y15234628D01*
X3630529Y15204475D01*
X3565015Y15160700D01*
X3509300Y15104985D01*
X3465525Y15039471D01*
X3435372Y14966676D01*
X3420000Y14889397D01*
X1663507Y14889397D01*
X1561689Y14931571D01*
X1368491Y14970000D01*
X1171509Y14970000D01*
X978311Y14931571D01*
X796322Y14856189D01*
X632537Y14746751D01*
X493249Y14607463D01*
X450000Y14542737D01*
X450000Y15937263D01*
X493249Y15872537D01*
X632537Y15733249D01*
X796322Y15623811D01*
X978311Y15548429D01*
X1171509Y15510000D01*
X1368491Y15510000D01*
X1561689Y15548429D01*
X1743678Y15623811D01*
X1907463Y15733249D01*
X2046751Y15872537D01*
X2156189Y16036322D01*
X2231571Y16218311D01*
X2270000Y16411509D01*
X2270000Y16608491D01*
X2231571Y16801689D01*
X2156189Y16983678D01*
X2046751Y17147463D01*
X2030634Y17163580D01*
X2059471Y17175525D01*
X2124985Y17219300D01*
X2180700Y17275015D01*
X2224475Y17340529D01*
X2254628Y17413324D01*
X2270000Y17490603D01*
X2270000Y17569397D01*
X2254628Y17646676D01*
X2224506Y17719397D01*
X3860000Y17719397D01*
X3860000Y17640603D01*
X3875372Y17563324D01*
X3905525Y17490529D01*
X3949300Y17425015D01*
X4005015Y17369300D01*
X4070529Y17325525D01*
X4143324Y17295372D01*
X4220603Y17280000D01*
X4299397Y17280000D01*
X4376676Y17295372D01*
X4449471Y17325525D01*
X4514985Y17369300D01*
X4570700Y17425015D01*
X4614475Y17490529D01*
X4644628Y17563324D01*
X4660000Y17640603D01*
X4660000Y17719397D01*
X4644628Y17796676D01*
X4614475Y17869471D01*
X4570700Y17934985D01*
X4514985Y17990700D01*
X4449471Y18034475D01*
X4376676Y18064628D01*
X4299397Y18080000D01*
X4220603Y18080000D01*
X4143324Y18064628D01*
X4070529Y18034475D01*
X4005015Y17990700D01*
X3949300Y17934985D01*
X3905525Y17869471D01*
X3875372Y17796676D01*
X3860000Y17719397D01*
X2224506Y17719397D01*
X2224475Y17719471D01*
X2184031Y17780000D01*
X2224475Y17840529D01*
X2254628Y17913324D01*
X2270000Y17990603D01*
X2270000Y18069397D01*
X2254628Y18146676D01*
X2224475Y18219471D01*
X2180700Y18284985D01*
X2124985Y18340700D01*
X2059471Y18384475D01*
X2030634Y18396420D01*
X2046751Y18412537D01*
X2156189Y18576322D01*
X2231571Y18758311D01*
X2270000Y18951509D01*
X2270000Y19148491D01*
X2231571Y19341689D01*
X2156189Y19523678D01*
X2046751Y19687463D01*
X1907463Y19826751D01*
X1743678Y19936189D01*
X1561689Y20011571D01*
X1368491Y20050000D01*
X1171509Y20050000D01*
X978311Y20011571D01*
X796322Y19936189D01*
X632537Y19826751D01*
X493249Y19687463D01*
X450000Y19622737D01*
X450000Y21017263D01*
X493249Y20952537D01*
X632537Y20813249D01*
X796322Y20703811D01*
X978311Y20628429D01*
X1171509Y20590000D01*
X1368491Y20590000D01*
X1561689Y20628429D01*
X1743678Y20703811D01*
X1907463Y20813249D01*
X2046751Y20952537D01*
X2156189Y21116322D01*
X2231571Y21298311D01*
X2270000Y21491509D01*
X2270000Y21688491D01*
X2231571Y21881689D01*
X2156189Y22063678D01*
X2046751Y22227463D01*
X1907463Y22366751D01*
X1743678Y22476189D01*
X1561689Y22551571D01*
X1368491Y22590000D01*
X1171509Y22590000D01*
X978311Y22551571D01*
X796322Y22476189D01*
X632537Y22366751D01*
X493249Y22227463D01*
X450000Y22162737D01*
X450000Y23557263D01*
X493249Y23492537D01*
X632537Y23353249D01*
X796322Y23243811D01*
X978311Y23168429D01*
X1171509Y23130000D01*
X1368491Y23130000D01*
X1561689Y23168429D01*
X1743678Y23243811D01*
X1907463Y23353249D01*
X2046751Y23492537D01*
X2156189Y23656322D01*
X2231571Y23838311D01*
X2270000Y24031509D01*
X2270000Y24228491D01*
X2231571Y24421689D01*
X2228379Y24429397D01*
X3140000Y24429397D01*
X3140000Y24350603D01*
X3155372Y24273324D01*
X3185525Y24200529D01*
X3229300Y24135015D01*
X3285015Y24079300D01*
X3350529Y24035525D01*
X3423324Y24005372D01*
X3500603Y23990000D01*
X3579397Y23990000D01*
X3656676Y24005372D01*
X3729471Y24035525D01*
X3794985Y24079300D01*
X3850700Y24135015D01*
X3894475Y24200529D01*
X3924628Y24273324D01*
X3940000Y24350603D01*
X3940000Y24429397D01*
X3924628Y24506676D01*
X3894475Y24579471D01*
X3850700Y24644985D01*
X3794985Y24700700D01*
X3729471Y24744475D01*
X3656676Y24774628D01*
X3579397Y24790000D01*
X3500603Y24790000D01*
X3423324Y24774628D01*
X3350529Y24744475D01*
X3285015Y24700700D01*
X3229300Y24644985D01*
X3185525Y24579471D01*
X3155372Y24506676D01*
X3140000Y24429397D01*
X2228379Y24429397D01*
X2156189Y24603678D01*
X2046751Y24767463D01*
X1907463Y24906751D01*
X1743678Y25016189D01*
X1561689Y25091571D01*
X1368491Y25130000D01*
X1171509Y25130000D01*
X978311Y25091571D01*
X796322Y25016189D01*
X632537Y24906751D01*
X493249Y24767463D01*
X450000Y24702737D01*
X450000Y26097263D01*
X493249Y26032537D01*
X632537Y25893249D01*
X796322Y25783811D01*
X978311Y25708429D01*
X1171509Y25670000D01*
X1368491Y25670000D01*
X1561689Y25708429D01*
X1743678Y25783811D01*
X1907463Y25893249D01*
X2046751Y26032537D01*
X2156189Y26196322D01*
X2231571Y26378311D01*
X2270000Y26571509D01*
X2270000Y26768491D01*
X2231571Y26961689D01*
X2156189Y27143678D01*
X2046751Y27307463D01*
X1907463Y27446751D01*
X1743678Y27556189D01*
X1561689Y27631571D01*
X1368491Y27670000D01*
X1171509Y27670000D01*
X978311Y27631571D01*
X796322Y27556189D01*
X632537Y27446751D01*
X493249Y27307463D01*
X450000Y27242737D01*
X450000Y28637263D01*
X493249Y28572537D01*
X632537Y28433249D01*
X796322Y28323811D01*
X978311Y28248429D01*
X1171509Y28210000D01*
X1368491Y28210000D01*
X1561689Y28248429D01*
X1743678Y28323811D01*
X1907463Y28433249D01*
X2046751Y28572537D01*
X2156189Y28736322D01*
X2231571Y28918311D01*
X2270000Y29111509D01*
X2270000Y29308491D01*
X2231571Y29501689D01*
X2156189Y29683678D01*
X2046751Y29847463D01*
X1907463Y29986751D01*
X1743678Y30096189D01*
X1561689Y30171571D01*
X1368491Y30210000D01*
X1171509Y30210000D01*
X978311Y30171571D01*
X796322Y30096189D01*
X632537Y29986751D01*
X493249Y29847463D01*
X450000Y29782737D01*
X450000Y31177263D01*
X493249Y31112537D01*
X632537Y30973249D01*
X796322Y30863811D01*
X978311Y30788429D01*
X1171509Y30750000D01*
X1368491Y30750000D01*
X1561689Y30788429D01*
X1743678Y30863811D01*
X1907463Y30973249D01*
X2046751Y31112537D01*
X2156189Y31276322D01*
X2207168Y31399397D01*
X2910000Y31399397D01*
X2910000Y31320603D01*
X2925372Y31243324D01*
X2955525Y31170529D01*
X2999300Y31105015D01*
X3055015Y31049300D01*
X3120529Y31005525D01*
X3193324Y30975372D01*
X3270603Y30960000D01*
X3349397Y30960000D01*
X3426676Y30975372D01*
X3499471Y31005525D01*
X3560000Y31045969D01*
X3620529Y31005525D01*
X3693324Y30975372D01*
X3770603Y30960000D01*
X3849397Y30960000D01*
X3926676Y30975372D01*
X3999471Y31005525D01*
X4064985Y31049300D01*
X4120700Y31105015D01*
X4135000Y31126416D01*
X4149300Y31105015D01*
X4205015Y31049300D01*
X4270529Y31005525D01*
X4343324Y30975372D01*
X4420603Y30960000D01*
X4499397Y30960000D01*
X4576676Y30975372D01*
X4649471Y31005525D01*
X4714985Y31049300D01*
X4716986Y31051301D01*
X4770529Y31015525D01*
X4843324Y30985372D01*
X4920603Y30970000D01*
X4935737Y30970000D01*
X6250000Y29655736D01*
X6250001Y28615100D01*
X6248550Y28600367D01*
X6254342Y28541557D01*
X6271497Y28485007D01*
X6299353Y28432890D01*
X6318139Y28410000D01*
X6336843Y28387209D01*
X6348285Y28377819D01*
X7515448Y27210655D01*
X7500529Y27204475D01*
X7435015Y27160700D01*
X7379300Y27104985D01*
X7335525Y27039471D01*
X7305372Y26966676D01*
X7290000Y26889397D01*
X7290000Y26810603D01*
X7305372Y26733324D01*
X7335525Y26660529D01*
X7379300Y26595015D01*
X7435015Y26539300D01*
X7500529Y26495525D01*
X7519297Y26487751D01*
X7453324Y26474628D01*
X7380529Y26444475D01*
X7315015Y26400700D01*
X7259300Y26344985D01*
X7215525Y26279471D01*
X7185372Y26206676D01*
X7170000Y26129397D01*
X7170000Y26050603D01*
X7185372Y25973324D01*
X7215525Y25900529D01*
X7259300Y25835015D01*
X7315015Y25779300D01*
X7380529Y25735525D01*
X7436909Y25712171D01*
X7250758Y25526020D01*
X7224475Y25589471D01*
X7180700Y25654985D01*
X7124985Y25710700D01*
X7059471Y25754475D01*
X6986676Y25784628D01*
X6909397Y25800000D01*
X6830603Y25800000D01*
X6753324Y25784628D01*
X6680529Y25754475D01*
X6644301Y25730268D01*
X6644475Y25730529D01*
X6674628Y25803324D01*
X6690000Y25880603D01*
X6690000Y25959397D01*
X6674628Y26036676D01*
X6644475Y26109471D01*
X6600700Y26174985D01*
X6544985Y26230700D01*
X6479471Y26274475D01*
X6406676Y26304628D01*
X6329397Y26320000D01*
X6250603Y26320000D01*
X6173324Y26304628D01*
X6100529Y26274475D01*
X6035015Y26230700D01*
X5979300Y26174985D01*
X5935525Y26109471D01*
X5905372Y26036676D01*
X5890000Y25959397D01*
X5890000Y25940000D01*
X5870603Y25940000D01*
X5793324Y25924628D01*
X5720529Y25894475D01*
X5655015Y25850700D01*
X5599300Y25794985D01*
X5555525Y25729471D01*
X5525372Y25656676D01*
X5510000Y25579397D01*
X5510000Y25500603D01*
X5525372Y25423324D01*
X5555525Y25350529D01*
X5599300Y25285015D01*
X5655015Y25229300D01*
X5720529Y25185525D01*
X5793324Y25155372D01*
X5870603Y25140000D01*
X5949397Y25140000D01*
X6026676Y25155372D01*
X6099471Y25185525D01*
X6164985Y25229300D01*
X6166268Y25230583D01*
X6165525Y25229471D01*
X6135372Y25156676D01*
X6120100Y25079900D01*
X6043324Y25064628D01*
X5970529Y25034475D01*
X5905015Y24990700D01*
X5849300Y24934985D01*
X5805525Y24869471D01*
X5775372Y24796676D01*
X5762109Y24730000D01*
X5760603Y24730000D01*
X5683324Y24714628D01*
X5610529Y24684475D01*
X5545015Y24640700D01*
X5489300Y24584985D01*
X5445525Y24519471D01*
X5415372Y24446676D01*
X5400000Y24369397D01*
X5400000Y24367891D01*
X5333324Y24354628D01*
X5260529Y24324475D01*
X5195015Y24280700D01*
X5139300Y24224985D01*
X5095525Y24159471D01*
X5065372Y24086676D01*
X5054098Y24030000D01*
X5040603Y24030000D01*
X4963324Y24014628D01*
X4890529Y23984475D01*
X4825015Y23940700D01*
X4769300Y23884985D01*
X4725525Y23819471D01*
X4695372Y23746676D01*
X4680000Y23669397D01*
X4680000Y23590603D01*
X4695372Y23513324D01*
X4725525Y23440529D01*
X4769300Y23375015D01*
X4825015Y23319300D01*
X4890529Y23275525D01*
X4963324Y23245372D01*
X4968985Y23244246D01*
X4308290Y22583551D01*
X4296842Y22574156D01*
X4278308Y22551571D01*
X4259353Y22528475D01*
X4252991Y22516572D01*
X4231496Y22476357D01*
X4214341Y22419807D01*
X4210000Y22375730D01*
X4210000Y22375721D01*
X4208550Y22360998D01*
X4210000Y22346275D01*
X4210000Y21905685D01*
X4194985Y21920700D01*
X4129471Y21964475D01*
X4056676Y21994628D01*
X3979397Y22010000D01*
X3900603Y22010000D01*
X3823324Y21994628D01*
X3750529Y21964475D01*
X3685015Y21920700D01*
X3629300Y21864985D01*
X3585525Y21799471D01*
X3555372Y21726676D01*
X3540000Y21649397D01*
X3540000Y21570603D01*
X3555372Y21493324D01*
X3585525Y21420529D01*
X3629300Y21355015D01*
X3685015Y21299300D01*
X3750529Y21255525D01*
X3823324Y21225372D01*
X3900603Y21210000D01*
X3979397Y21210000D01*
X4056676Y21225372D01*
X4129471Y21255525D01*
X4194985Y21299300D01*
X4210001Y21314316D01*
X4210001Y20978398D01*
X4146676Y21004628D01*
X4069397Y21020000D01*
X3990603Y21020000D01*
X3913324Y21004628D01*
X3840529Y20974475D01*
X3775015Y20930700D01*
X3719300Y20874985D01*
X3675525Y20809471D01*
X3645372Y20736676D01*
X3630000Y20659397D01*
X3630000Y20580603D01*
X3645372Y20503324D01*
X3675525Y20430529D01*
X3719300Y20365015D01*
X3775015Y20309300D01*
X3840529Y20265525D01*
X3913324Y20235372D01*
X3990603Y20220000D01*
X3992109Y20220000D01*
X4005372Y20153324D01*
X4035525Y20080529D01*
X4079300Y20015015D01*
X4135015Y19959300D01*
X4200529Y19915525D01*
X4273324Y19885372D01*
X4340000Y19872109D01*
X4340000Y19870603D01*
X4355372Y19793324D01*
X4385525Y19720529D01*
X4429300Y19655015D01*
X4485015Y19599300D01*
X4550529Y19555525D01*
X4623324Y19525372D01*
X4700100Y19510100D01*
X4715372Y19433324D01*
X4745525Y19360529D01*
X4789300Y19295015D01*
X4845015Y19239300D01*
X4910529Y19195525D01*
X4983324Y19165372D01*
X5060603Y19150000D01*
X5104042Y19150000D01*
X5103549Y19144999D01*
X5104999Y19130276D01*
X5105000Y17567732D01*
X5103549Y17552999D01*
X5109341Y17494189D01*
X5126496Y17437639D01*
X5154352Y17385522D01*
X5182450Y17351285D01*
X5191842Y17339841D01*
X5203284Y17330451D01*
X5965448Y16568286D01*
X5974840Y16556842D01*
X5986283Y16547451D01*
X6020520Y16519353D01*
X6072637Y16491496D01*
X6085799Y16487503D01*
X6129188Y16474341D01*
X6173265Y16470000D01*
X6173268Y16470000D01*
X6187998Y16468549D01*
X6202728Y16470000D01*
X6965737Y16470000D01*
X7730000Y15705736D01*
X7730000Y15680603D01*
X7745372Y15603324D01*
X7775525Y15530529D01*
X7819300Y15465015D01*
X7875015Y15409300D01*
X7940529Y15365525D01*
X8013324Y15335372D01*
X8090603Y15320000D01*
X8169397Y15320000D01*
X8246676Y15335372D01*
X8319471Y15365525D01*
X8384985Y15409300D01*
X8440700Y15465015D01*
X8482571Y15527679D01*
X8495372Y15463324D01*
X8525525Y15390529D01*
X8569300Y15325015D01*
X8625015Y15269300D01*
X8690529Y15225525D01*
X8763324Y15195372D01*
X8840603Y15180000D01*
X8919397Y15180000D01*
X8996676Y15195372D01*
X9069471Y15225525D01*
X9134985Y15269300D01*
X9190700Y15325015D01*
X9234475Y15390529D01*
X9264628Y15463324D01*
X9280000Y15540603D01*
X9280000Y15569397D01*
X9430000Y15569397D01*
X9430000Y15490603D01*
X9445372Y15413324D01*
X9475525Y15340529D01*
X9519300Y15275015D01*
X9575015Y15219300D01*
X9640529Y15175525D01*
X9713324Y15145372D01*
X9790603Y15130000D01*
X9792109Y15130000D01*
X9805372Y15063324D01*
X9835525Y14990529D01*
X9879300Y14925015D01*
X9935015Y14869300D01*
X10000529Y14825525D01*
X10073324Y14795372D01*
X10140000Y14782109D01*
X10140000Y14780603D01*
X10155372Y14703324D01*
X10185525Y14630529D01*
X10229300Y14565015D01*
X10285015Y14509300D01*
X10350529Y14465525D01*
X10423324Y14435372D01*
X10500603Y14420000D01*
X10502109Y14420000D01*
X10515372Y14353324D01*
X10545525Y14280529D01*
X10589300Y14215015D01*
X10645015Y14159300D01*
X10710529Y14115525D01*
X10783324Y14085372D01*
X10850000Y14072109D01*
X10850000Y14070603D01*
X10865372Y13993324D01*
X10895525Y13920529D01*
X10939300Y13855015D01*
X10995015Y13799300D01*
X11060529Y13755525D01*
X11133324Y13725372D01*
X11200000Y13712109D01*
X11200000Y13710603D01*
X11215372Y13633324D01*
X11245525Y13560529D01*
X11289300Y13495015D01*
X11345015Y13439300D01*
X11410529Y13395525D01*
X11483324Y13365372D01*
X11560603Y13350000D01*
X11574098Y13350000D01*
X11585372Y13293324D01*
X11615525Y13220529D01*
X11659300Y13155015D01*
X11715015Y13099300D01*
X11780529Y13055525D01*
X11853324Y13025372D01*
X11920000Y13012109D01*
X11920000Y13010603D01*
X11935372Y12933324D01*
X11965525Y12860529D01*
X12009300Y12795015D01*
X12065015Y12739300D01*
X12130529Y12695525D01*
X12203324Y12665372D01*
X12280603Y12650000D01*
X12282109Y12650000D01*
X12295372Y12583324D01*
X12325525Y12510529D01*
X12369300Y12445015D01*
X12425015Y12389300D01*
X12490529Y12345525D01*
X12563324Y12315372D01*
X12630000Y12302109D01*
X12630000Y12300603D01*
X12645372Y12223324D01*
X12675525Y12150529D01*
X12719300Y12085015D01*
X12775015Y12029300D01*
X12840529Y11985525D01*
X12913324Y11955372D01*
X12990603Y11940000D01*
X13069397Y11940000D01*
X13146676Y11955372D01*
X13219471Y11985525D01*
X13284985Y12029300D01*
X13340700Y12085015D01*
X13384475Y12150529D01*
X13414628Y12223324D01*
X13430000Y12300603D01*
X13430000Y12379397D01*
X13414628Y12456676D01*
X13384475Y12529471D01*
X13340700Y12594985D01*
X13284985Y12650700D01*
X13219471Y12694475D01*
X13146676Y12724628D01*
X13080000Y12737891D01*
X13080000Y12739397D01*
X15510000Y12739397D01*
X15510000Y12660603D01*
X15525372Y12583324D01*
X15555525Y12510529D01*
X15599300Y12445015D01*
X15655015Y12389300D01*
X15720529Y12345525D01*
X15793324Y12315372D01*
X15870603Y12300000D01*
X15949397Y12300000D01*
X16026676Y12315372D01*
X16099471Y12345525D01*
X16164985Y12389300D01*
X16220700Y12445015D01*
X16264475Y12510529D01*
X16294628Y12583324D01*
X16310000Y12660603D01*
X16310000Y12739397D01*
X16294628Y12816676D01*
X16264475Y12889471D01*
X16220700Y12954985D01*
X16164985Y13010700D01*
X16099471Y13054475D01*
X16026676Y13084628D01*
X15949397Y13100000D01*
X15870603Y13100000D01*
X15793324Y13084628D01*
X15720529Y13054475D01*
X15655015Y13010700D01*
X15599300Y12954985D01*
X15555525Y12889471D01*
X15525372Y12816676D01*
X15510000Y12739397D01*
X13080000Y12739397D01*
X13064628Y12816676D01*
X13034475Y12889471D01*
X12990700Y12954985D01*
X12934985Y13010700D01*
X12869471Y13054475D01*
X12796676Y13084628D01*
X12719397Y13100000D01*
X12717891Y13100000D01*
X12704628Y13166676D01*
X12674475Y13239471D01*
X12667843Y13249397D01*
X14450000Y13249397D01*
X14450000Y13170603D01*
X14465372Y13093324D01*
X14495525Y13020529D01*
X14539300Y12955015D01*
X14595015Y12899300D01*
X14660529Y12855525D01*
X14733324Y12825372D01*
X14810603Y12810000D01*
X14889397Y12810000D01*
X14966676Y12825372D01*
X15039471Y12855525D01*
X15104985Y12899300D01*
X15160700Y12955015D01*
X15204475Y13020529D01*
X15234628Y13093324D01*
X15250000Y13170603D01*
X15250000Y13249397D01*
X15234628Y13326676D01*
X15204475Y13399471D01*
X15160700Y13464985D01*
X15104985Y13520700D01*
X15039471Y13564475D01*
X14966676Y13594628D01*
X14889397Y13610000D01*
X14810603Y13610000D01*
X14733324Y13594628D01*
X14660529Y13564475D01*
X14595015Y13520700D01*
X14539300Y13464985D01*
X14495525Y13399471D01*
X14465372Y13326676D01*
X14450000Y13249397D01*
X12667843Y13249397D01*
X12630700Y13304985D01*
X12574985Y13360700D01*
X12509471Y13404475D01*
X12436676Y13434628D01*
X12370000Y13447891D01*
X12370000Y13449397D01*
X12354628Y13526676D01*
X12324475Y13599471D01*
X12280700Y13664985D01*
X12224985Y13720700D01*
X12159471Y13764475D01*
X12086676Y13794628D01*
X12009397Y13810000D01*
X11995902Y13810000D01*
X11984628Y13866676D01*
X11954475Y13939471D01*
X11910700Y14004985D01*
X11854985Y14060700D01*
X11792328Y14102566D01*
X11799471Y14105525D01*
X11864985Y14149300D01*
X11920700Y14205015D01*
X11964475Y14270529D01*
X11994628Y14343324D01*
X12010000Y14420603D01*
X12010000Y14499397D01*
X11994628Y14576676D01*
X11964475Y14649471D01*
X11920700Y14714985D01*
X11864985Y14770700D01*
X11799471Y14814475D01*
X11726676Y14844628D01*
X11649397Y14860000D01*
X11570603Y14860000D01*
X11493324Y14844628D01*
X11420529Y14814475D01*
X11355015Y14770700D01*
X11299300Y14714985D01*
X11257434Y14652328D01*
X11254475Y14659471D01*
X11210700Y14724985D01*
X11154985Y14780700D01*
X11089471Y14824475D01*
X11016676Y14854628D01*
X10939397Y14870000D01*
X10937891Y14870000D01*
X10924628Y14936676D01*
X10894475Y15009471D01*
X10850700Y15074985D01*
X10794985Y15130700D01*
X10729471Y15174475D01*
X10656676Y15204628D01*
X10590000Y15217891D01*
X10590000Y15219397D01*
X10574628Y15296676D01*
X10544475Y15369471D01*
X10500700Y15434985D01*
X10444985Y15490700D01*
X10379471Y15534475D01*
X10306676Y15564628D01*
X10229397Y15580000D01*
X10227891Y15580000D01*
X10214628Y15646676D01*
X10184475Y15719471D01*
X10140700Y15784985D01*
X10084985Y15840700D01*
X10019471Y15884475D01*
X9946676Y15914628D01*
X9869397Y15930000D01*
X9790603Y15930000D01*
X9713324Y15914628D01*
X9640529Y15884475D01*
X9575015Y15840700D01*
X9519300Y15784985D01*
X9475525Y15719471D01*
X9445372Y15646676D01*
X9430000Y15569397D01*
X9280000Y15569397D01*
X9280000Y15619397D01*
X9264628Y15696676D01*
X9234475Y15769471D01*
X9190700Y15834985D01*
X9134985Y15890700D01*
X9069471Y15934475D01*
X8996676Y15964628D01*
X8919397Y15980000D01*
X8844263Y15980000D01*
X9764264Y16900000D01*
X13295277Y16900000D01*
X13310000Y16898550D01*
X13324723Y16900000D01*
X13324733Y16900000D01*
X13368810Y16904341D01*
X13425360Y16921496D01*
X13477477Y16949353D01*
X13523158Y16986842D01*
X13532553Y16998290D01*
X14001716Y17467452D01*
X14013158Y17476842D01*
X14024391Y17490529D01*
X14050647Y17522522D01*
X14078504Y17574640D01*
X14084172Y17593324D01*
X14095659Y17631190D01*
X14100000Y17675267D01*
X14100000Y17675270D01*
X14101451Y17690000D01*
X14100000Y17704730D01*
X14100000Y17974315D01*
X14110700Y17985015D01*
X14154475Y18050529D01*
X14184628Y18123324D01*
X14200000Y18200603D01*
X14200000Y18279397D01*
X14184628Y18356676D01*
X14154475Y18429471D01*
X14110700Y18494985D01*
X14105685Y18500000D01*
X14110700Y18505015D01*
X14154475Y18570529D01*
X14184628Y18643324D01*
X14200000Y18720603D01*
X14200000Y18799397D01*
X14184628Y18876676D01*
X14154475Y18949471D01*
X14110700Y19014985D01*
X14054985Y19070700D01*
X13989471Y19114475D01*
X13916676Y19144628D01*
X13839397Y19160000D01*
X13760603Y19160000D01*
X13683324Y19144628D01*
X13610529Y19114475D01*
X13545015Y19070700D01*
X13489300Y19014985D01*
X13445525Y18949471D01*
X13415372Y18876676D01*
X13400000Y18799397D01*
X13400000Y18720603D01*
X13415372Y18643324D01*
X13445525Y18570529D01*
X13489300Y18505015D01*
X13494315Y18500000D01*
X13489300Y18494985D01*
X13445525Y18429471D01*
X13415372Y18356676D01*
X13400000Y18279397D01*
X13400000Y18200603D01*
X13415372Y18123324D01*
X13445525Y18050529D01*
X13489300Y17985015D01*
X13500001Y17974314D01*
X13500000Y17814264D01*
X13404423Y17718686D01*
X13414628Y17743324D01*
X13430000Y17820603D01*
X13430000Y17899397D01*
X13414628Y17976676D01*
X13384475Y18049471D01*
X13340700Y18114985D01*
X13284985Y18170700D01*
X13219471Y18214475D01*
X13146676Y18244628D01*
X13069397Y18260000D01*
X12990603Y18260000D01*
X12913324Y18244628D01*
X12840529Y18214475D01*
X12775015Y18170700D01*
X12719300Y18114985D01*
X12675525Y18049471D01*
X12645372Y17976676D01*
X12630000Y17899397D01*
X12630000Y17820603D01*
X12645372Y17743324D01*
X12675525Y17670529D01*
X12719300Y17605015D01*
X12775015Y17549300D01*
X12840529Y17505525D01*
X12853867Y17500000D01*
X9654722Y17500000D01*
X9639999Y17501450D01*
X9625276Y17500000D01*
X9625267Y17500000D01*
X9581190Y17495659D01*
X9524640Y17478504D01*
X9500379Y17465536D01*
X9472522Y17450647D01*
X9441290Y17425015D01*
X9426842Y17413158D01*
X9417451Y17401715D01*
X8150000Y16134263D01*
X7312553Y16971710D01*
X7303158Y16983158D01*
X7257477Y17020647D01*
X7205360Y17048504D01*
X7148810Y17065659D01*
X7104733Y17070000D01*
X7104723Y17070000D01*
X7090000Y17071450D01*
X7075277Y17070000D01*
X6312262Y17070000D01*
X6027537Y17354724D01*
X6029471Y17355525D01*
X6094985Y17399300D01*
X6150700Y17455015D01*
X6194475Y17520529D01*
X6224628Y17593324D01*
X6240000Y17670603D01*
X6240000Y17749397D01*
X6224628Y17826676D01*
X6201285Y17883030D01*
X6255015Y17829300D01*
X6320529Y17785525D01*
X6393324Y17755372D01*
X6470603Y17740000D01*
X6472109Y17740000D01*
X6485372Y17673324D01*
X6515525Y17600529D01*
X6559300Y17535015D01*
X6615015Y17479300D01*
X6680529Y17435525D01*
X6753324Y17405372D01*
X6830603Y17390000D01*
X6909397Y17390000D01*
X6986676Y17405372D01*
X7059471Y17435525D01*
X7124985Y17479300D01*
X7180700Y17535015D01*
X7224475Y17600529D01*
X7254628Y17673324D01*
X7270000Y17750603D01*
X7270000Y17829397D01*
X7254628Y17906676D01*
X7224475Y17979471D01*
X7180700Y18044985D01*
X7124985Y18100700D01*
X7059471Y18144475D01*
X6986676Y18174628D01*
X6962702Y18179397D01*
X10870000Y18179397D01*
X10870000Y18100603D01*
X10885372Y18023324D01*
X10915525Y17950529D01*
X10959300Y17885015D01*
X11015015Y17829300D01*
X11080529Y17785525D01*
X11153324Y17755372D01*
X11230603Y17740000D01*
X11309397Y17740000D01*
X11386676Y17755372D01*
X11459471Y17785525D01*
X11524985Y17829300D01*
X11580700Y17885015D01*
X11624475Y17950529D01*
X11654628Y18023324D01*
X11670000Y18100603D01*
X11670000Y18102109D01*
X11736676Y18115372D01*
X11809471Y18145525D01*
X11874985Y18189300D01*
X11930700Y18245015D01*
X11974475Y18310529D01*
X12004628Y18383324D01*
X12017891Y18450000D01*
X12019397Y18450000D01*
X12096676Y18465372D01*
X12169471Y18495525D01*
X12234985Y18539300D01*
X12290700Y18595015D01*
X12334475Y18660529D01*
X12364628Y18733324D01*
X12380000Y18810603D01*
X12380000Y18812109D01*
X12446676Y18825372D01*
X12519471Y18855525D01*
X12584985Y18899300D01*
X12640700Y18955015D01*
X12684475Y19020529D01*
X12714628Y19093324D01*
X12727891Y19160000D01*
X12729397Y19160000D01*
X12806676Y19175372D01*
X12879471Y19205525D01*
X12944985Y19249300D01*
X13000700Y19305015D01*
X13044475Y19370529D01*
X13074628Y19443324D01*
X13090000Y19520603D01*
X13090000Y19522109D01*
X13156676Y19535372D01*
X13229471Y19565525D01*
X13294985Y19609300D01*
X13350700Y19665015D01*
X13394475Y19730529D01*
X13424628Y19803324D01*
X13437891Y19870000D01*
X13439397Y19870000D01*
X13516676Y19885372D01*
X13589471Y19915525D01*
X13654985Y19959300D01*
X13710700Y20015015D01*
X13754475Y20080529D01*
X13784628Y20153324D01*
X13797891Y20220000D01*
X13799397Y20220000D01*
X13876676Y20235372D01*
X13949471Y20265525D01*
X14014985Y20309300D01*
X14070700Y20365015D01*
X14114475Y20430529D01*
X14144628Y20503324D01*
X14160000Y20580603D01*
X14160000Y20659397D01*
X14144628Y20736676D01*
X14114475Y20809471D01*
X14070700Y20874985D01*
X14014985Y20930700D01*
X13949471Y20974475D01*
X13876676Y21004628D01*
X13799397Y21020000D01*
X13720603Y21020000D01*
X13643324Y21004628D01*
X13570529Y20974475D01*
X13505015Y20930700D01*
X13449300Y20874985D01*
X13405525Y20809471D01*
X13375372Y20736676D01*
X13362109Y20670000D01*
X13360603Y20670000D01*
X13283324Y20654628D01*
X13210529Y20624475D01*
X13145015Y20580700D01*
X13089300Y20524985D01*
X13045525Y20459471D01*
X13015372Y20386676D01*
X13002109Y20320000D01*
X13000603Y20320000D01*
X12923324Y20304628D01*
X12850529Y20274475D01*
X12785015Y20230700D01*
X12729300Y20174985D01*
X12685525Y20109471D01*
X12655372Y20036676D01*
X12640000Y19959397D01*
X12640000Y19957891D01*
X12573324Y19944628D01*
X12500529Y19914475D01*
X12435015Y19870700D01*
X12379300Y19814985D01*
X12335525Y19749471D01*
X12305372Y19676676D01*
X12292109Y19610000D01*
X12290603Y19610000D01*
X12213324Y19594628D01*
X12140529Y19564475D01*
X12075015Y19520700D01*
X12019300Y19464985D01*
X11975525Y19399471D01*
X11945372Y19326676D01*
X11930000Y19249397D01*
X11930000Y19247891D01*
X11863324Y19234628D01*
X11790529Y19204475D01*
X11725015Y19160700D01*
X11669300Y19104985D01*
X11625525Y19039471D01*
X11595372Y18966676D01*
X11582109Y18900000D01*
X11580603Y18900000D01*
X11503324Y18884628D01*
X11430529Y18854475D01*
X11365015Y18810700D01*
X11309300Y18754985D01*
X11265525Y18689471D01*
X11235372Y18616676D01*
X11220000Y18539397D01*
X11220000Y18537891D01*
X11153324Y18524628D01*
X11080529Y18494475D01*
X11015015Y18450700D01*
X10959300Y18394985D01*
X10915525Y18329471D01*
X10885372Y18256676D01*
X10870000Y18179397D01*
X6962702Y18179397D01*
X6909397Y18190000D01*
X6907891Y18190000D01*
X6894628Y18256676D01*
X6864475Y18329471D01*
X6820700Y18394985D01*
X6764985Y18450700D01*
X6699471Y18494475D01*
X6626676Y18524628D01*
X6560000Y18537891D01*
X6560000Y18539397D01*
X6544628Y18616676D01*
X6514475Y18689471D01*
X6470700Y18754985D01*
X6414985Y18810700D01*
X6349471Y18854475D01*
X6276676Y18884628D01*
X6262451Y18887458D01*
X6266255Y18900000D01*
X6280297Y18946288D01*
X6282982Y18973550D01*
X6285000Y18994039D01*
X6285000Y18994046D01*
X6286571Y19009999D01*
X6285000Y19025952D01*
X6285000Y19934047D01*
X6286571Y19950000D01*
X6285000Y19965953D01*
X6285000Y19965961D01*
X6280297Y20013711D01*
X6261713Y20074974D01*
X6231535Y20131434D01*
X6190921Y20180921D01*
X6178524Y20191095D01*
X5265000Y21104618D01*
X5265000Y22055382D01*
X9210000Y26000381D01*
X11323905Y23886476D01*
X11334080Y23874078D01*
X11383567Y23833464D01*
X11414976Y23816676D01*
X11440027Y23803286D01*
X11501289Y23784702D01*
X11507363Y23784104D01*
X11549040Y23779999D01*
X11549047Y23779999D01*
X11565000Y23778428D01*
X11580953Y23779999D01*
X12248076Y23779999D01*
X12240000Y23739397D01*
X12240000Y23660603D01*
X12255372Y23583324D01*
X12285525Y23510529D01*
X12329300Y23445015D01*
X12385015Y23389300D01*
X12450529Y23345525D01*
X12523324Y23315372D01*
X12600603Y23300000D01*
X12679397Y23300000D01*
X12756676Y23315372D01*
X12782006Y23325864D01*
X12809300Y23285015D01*
X12865015Y23229300D01*
X12930529Y23185525D01*
X13003324Y23155372D01*
X13080603Y23140000D01*
X13159397Y23140000D01*
X13236676Y23155372D01*
X13309471Y23185525D01*
X13374985Y23229300D01*
X13376986Y23231301D01*
X13430529Y23195525D01*
X13503324Y23165372D01*
X13580603Y23150000D01*
X13659397Y23150000D01*
X13736676Y23165372D01*
X13809471Y23195525D01*
X13874985Y23239300D01*
X13930700Y23295015D01*
X13974475Y23360529D01*
X13977202Y23367113D01*
X13985015Y23359300D01*
X14050529Y23315525D01*
X14123324Y23285372D01*
X14200603Y23270000D01*
X14279397Y23270000D01*
X14356676Y23285372D01*
X14429471Y23315525D01*
X14494985Y23359300D01*
X14550700Y23415015D01*
X14594475Y23480529D01*
X14624628Y23553324D01*
X14640000Y23630603D01*
X14640000Y23709397D01*
X14624628Y23786676D01*
X14594475Y23859471D01*
X14550700Y23924985D01*
X14494985Y23980700D01*
X14429471Y24024475D01*
X14356676Y24054628D01*
X14304641Y24064979D01*
X14026099Y24343519D01*
X14015920Y24355922D01*
X13966433Y24396536D01*
X13909973Y24426714D01*
X13848710Y24445298D01*
X13800960Y24450001D01*
X13800952Y24450001D01*
X13784999Y24451572D01*
X13769046Y24450001D01*
X12616683Y24450001D01*
X12634628Y24493324D01*
X12650000Y24570603D01*
X12650000Y24649397D01*
X12634628Y24726676D01*
X12604475Y24799471D01*
X12560700Y24864985D01*
X12504985Y24920700D01*
X12439471Y24964475D01*
X12366676Y24994628D01*
X12330000Y25001923D01*
X12330000Y25029397D01*
X12810000Y25029397D01*
X12810000Y24950603D01*
X12825372Y24873324D01*
X12855525Y24800529D01*
X12899300Y24735015D01*
X12955015Y24679300D01*
X13020529Y24635525D01*
X13093324Y24605372D01*
X13170603Y24590000D01*
X13249397Y24590000D01*
X13326676Y24605372D01*
X13399471Y24635525D01*
X13464985Y24679300D01*
X13520700Y24735015D01*
X13564475Y24800529D01*
X13594628Y24873324D01*
X13610000Y24950603D01*
X13610000Y25029397D01*
X13594628Y25106676D01*
X13579337Y25143592D01*
X13623324Y25125372D01*
X13700603Y25110000D01*
X13779397Y25110000D01*
X13856676Y25125372D01*
X13929471Y25155525D01*
X13994985Y25199300D01*
X14050700Y25255015D01*
X14094475Y25320529D01*
X14124628Y25393324D01*
X14137891Y25460000D01*
X14139397Y25460000D01*
X14216676Y25475372D01*
X14289471Y25505525D01*
X14354985Y25549300D01*
X14410700Y25605015D01*
X14454475Y25670529D01*
X14484628Y25743324D01*
X14500000Y25820603D01*
X14500000Y25899397D01*
X14484628Y25976676D01*
X14454475Y26049471D01*
X14410700Y26114985D01*
X14354985Y26170700D01*
X14289471Y26214475D01*
X14216676Y26244628D01*
X14139397Y26260000D01*
X14060603Y26260000D01*
X13983324Y26244628D01*
X13910529Y26214475D01*
X13845015Y26170700D01*
X13789300Y26114985D01*
X13745525Y26049471D01*
X13715372Y25976676D01*
X13702109Y25910000D01*
X13700603Y25910000D01*
X13623324Y25894628D01*
X13550529Y25864475D01*
X13485015Y25820700D01*
X13429300Y25764985D01*
X13385525Y25699471D01*
X13355372Y25626676D01*
X13340000Y25549397D01*
X13340000Y25470603D01*
X13355372Y25393324D01*
X13370663Y25356408D01*
X13326676Y25374628D01*
X13249397Y25390000D01*
X13170603Y25390000D01*
X13093324Y25374628D01*
X13020529Y25344475D01*
X12955015Y25300700D01*
X12899300Y25244985D01*
X12855525Y25179471D01*
X12825372Y25106676D01*
X12810000Y25029397D01*
X12330000Y25029397D01*
X12330000Y25039397D01*
X12314628Y25116676D01*
X12284475Y25189471D01*
X12240700Y25254985D01*
X12184985Y25310700D01*
X12119471Y25354475D01*
X12046676Y25384628D01*
X11969397Y25400000D01*
X11890603Y25400000D01*
X11813324Y25384628D01*
X11740529Y25354475D01*
X11675015Y25310700D01*
X11619300Y25254985D01*
X11575525Y25189471D01*
X11545372Y25116676D01*
X11530000Y25039397D01*
X11530000Y24960603D01*
X11545372Y24883324D01*
X11548284Y24876293D01*
X11495015Y24840700D01*
X11439300Y24784985D01*
X11401382Y24728237D01*
X11281527Y24848092D01*
X11299471Y24855525D01*
X11364985Y24899300D01*
X11420700Y24955015D01*
X11464475Y25020529D01*
X11494628Y25093324D01*
X11510000Y25170603D01*
X11510000Y25249397D01*
X11494628Y25326676D01*
X11464475Y25399471D01*
X11420700Y25464985D01*
X11364985Y25520700D01*
X11299471Y25564475D01*
X11226676Y25594628D01*
X11149900Y25609900D01*
X11134628Y25686676D01*
X11104475Y25759471D01*
X11060700Y25824985D01*
X11004985Y25880700D01*
X10939471Y25924475D01*
X10866676Y25954628D01*
X10800000Y25967891D01*
X10800000Y25969397D01*
X10784628Y26046676D01*
X10754475Y26119471D01*
X10710700Y26184985D01*
X10654985Y26240700D01*
X10589471Y26284475D01*
X10516676Y26314628D01*
X10439397Y26330000D01*
X10437891Y26330000D01*
X10424628Y26396676D01*
X10394475Y26469471D01*
X10350700Y26534985D01*
X10294985Y26590700D01*
X10229471Y26634475D01*
X10156676Y26664628D01*
X10079397Y26680000D01*
X10000603Y26680000D01*
X9923324Y26664628D01*
X9850529Y26634475D01*
X9785015Y26590700D01*
X9729300Y26534985D01*
X9685525Y26469471D01*
X9678092Y26451526D01*
X9451105Y26678513D01*
X9451096Y26678524D01*
X9451089Y26678531D01*
X9440921Y26690921D01*
X9428531Y26701089D01*
X8330222Y27799397D01*
X9680000Y27799397D01*
X9680000Y27720603D01*
X9695372Y27643324D01*
X9725525Y27570529D01*
X9769300Y27505015D01*
X9825015Y27449300D01*
X9890529Y27405525D01*
X9963324Y27375372D01*
X10040603Y27360000D01*
X10119397Y27360000D01*
X10196676Y27375372D01*
X10269471Y27405525D01*
X10334985Y27449300D01*
X10390700Y27505015D01*
X10434475Y27570529D01*
X10464628Y27643324D01*
X10480000Y27720603D01*
X10480000Y27784044D01*
X10486676Y27785372D01*
X10559471Y27815525D01*
X10624985Y27859300D01*
X10680700Y27915015D01*
X10724475Y27980529D01*
X10754628Y28053324D01*
X10770000Y28130603D01*
X10770000Y28160000D01*
X10799397Y28160000D01*
X10876676Y28175372D01*
X10949471Y28205525D01*
X11014985Y28249300D01*
X11070700Y28305015D01*
X11114475Y28370529D01*
X11144628Y28443324D01*
X11160000Y28520603D01*
X11160000Y28589397D01*
X13360000Y28589397D01*
X13360000Y28510603D01*
X13375372Y28433324D01*
X13405525Y28360529D01*
X13449300Y28295015D01*
X13505015Y28239300D01*
X13570529Y28195525D01*
X13643324Y28165372D01*
X13720603Y28150000D01*
X13799397Y28150000D01*
X13876676Y28165372D01*
X13949471Y28195525D01*
X14014985Y28239300D01*
X14070700Y28295015D01*
X14114475Y28360529D01*
X14144628Y28433324D01*
X14160000Y28510603D01*
X14160000Y28589397D01*
X14144628Y28666676D01*
X14114475Y28739471D01*
X14070700Y28804985D01*
X14014985Y28860700D01*
X13949471Y28904475D01*
X13876676Y28934628D01*
X13799397Y28950000D01*
X13720603Y28950000D01*
X13643324Y28934628D01*
X13570529Y28904475D01*
X13505015Y28860700D01*
X13449300Y28804985D01*
X13405525Y28739471D01*
X13375372Y28666676D01*
X13360000Y28589397D01*
X11160000Y28589397D01*
X11160000Y28599397D01*
X11144628Y28676676D01*
X11114475Y28749471D01*
X11070700Y28814985D01*
X11014985Y28870700D01*
X10949471Y28914475D01*
X10876676Y28944628D01*
X10799397Y28960000D01*
X10720603Y28960000D01*
X10643324Y28944628D01*
X10570529Y28914475D01*
X10505015Y28870700D01*
X10480166Y28845851D01*
X10460700Y28874985D01*
X10404985Y28930700D01*
X10339471Y28974475D01*
X10266676Y29004628D01*
X10189397Y29020000D01*
X10110603Y29020000D01*
X10033324Y29004628D01*
X9960529Y28974475D01*
X9895015Y28930700D01*
X9839300Y28874985D01*
X9795525Y28809471D01*
X9765372Y28736676D01*
X9750000Y28659397D01*
X9750000Y28580603D01*
X9765372Y28503324D01*
X9795525Y28430529D01*
X9839300Y28365015D01*
X9895015Y28309300D01*
X9960529Y28265525D01*
X9979594Y28257628D01*
X9970000Y28209397D01*
X9970000Y28145956D01*
X9963324Y28144628D01*
X9890529Y28114475D01*
X9825015Y28070700D01*
X9769300Y28014985D01*
X9725525Y27949471D01*
X9695372Y27876676D01*
X9680000Y27799397D01*
X8330222Y27799397D01*
X7250172Y28879446D01*
X7250172Y29859397D01*
X7610000Y29859397D01*
X7610000Y29780603D01*
X7625372Y29703324D01*
X7655525Y29630529D01*
X7699300Y29565015D01*
X7755015Y29509300D01*
X7820529Y29465525D01*
X7893324Y29435372D01*
X7970603Y29420000D01*
X7996087Y29420000D01*
X8005372Y29373324D01*
X8035525Y29300529D01*
X8079300Y29235015D01*
X8135015Y29179300D01*
X8188866Y29143318D01*
X8155015Y29120700D01*
X8099300Y29064985D01*
X8055525Y28999471D01*
X8025372Y28926676D01*
X8010000Y28849397D01*
X8010000Y28770603D01*
X8025372Y28693324D01*
X8055525Y28620529D01*
X8099300Y28555015D01*
X8155015Y28499300D01*
X8220529Y28455525D01*
X8293324Y28425372D01*
X8370603Y28410000D01*
X8449397Y28410000D01*
X8526676Y28425372D01*
X8599471Y28455525D01*
X8664985Y28499300D01*
X8720700Y28555015D01*
X8764475Y28620529D01*
X8794628Y28693324D01*
X8810000Y28770603D01*
X8810000Y28849397D01*
X8794628Y28926676D01*
X8764475Y28999471D01*
X8720700Y29064985D01*
X8664985Y29120700D01*
X8611134Y29156682D01*
X8644985Y29179300D01*
X8700700Y29235015D01*
X8744475Y29300529D01*
X8774628Y29373324D01*
X8790000Y29450603D01*
X8790000Y29529397D01*
X8786022Y29549397D01*
X10030000Y29549397D01*
X10030000Y29470603D01*
X10045372Y29393324D01*
X10075525Y29320529D01*
X10119300Y29255015D01*
X10175015Y29199300D01*
X10240529Y29155525D01*
X10313324Y29125372D01*
X10390603Y29110000D01*
X10469397Y29110000D01*
X10546676Y29125372D01*
X10619471Y29155525D01*
X10684985Y29199300D01*
X10740700Y29255015D01*
X10784475Y29320529D01*
X10814628Y29393324D01*
X10830000Y29470603D01*
X10830000Y29549397D01*
X10814628Y29626676D01*
X10784475Y29699471D01*
X10740700Y29764985D01*
X10684985Y29820700D01*
X10619471Y29864475D01*
X10546676Y29894628D01*
X10469397Y29910000D01*
X10390603Y29910000D01*
X10313324Y29894628D01*
X10240529Y29864475D01*
X10175015Y29820700D01*
X10119300Y29764985D01*
X10075525Y29699471D01*
X10045372Y29626676D01*
X10030000Y29549397D01*
X8786022Y29549397D01*
X8774628Y29606676D01*
X8744475Y29679471D01*
X8700700Y29744985D01*
X8644985Y29800700D01*
X8579471Y29844475D01*
X8506676Y29874628D01*
X8429397Y29890000D01*
X8403913Y29890000D01*
X8394628Y29936676D01*
X8364475Y30009471D01*
X8320700Y30074985D01*
X8264985Y30130700D01*
X8199471Y30174475D01*
X8126676Y30204628D01*
X8049397Y30220000D01*
X7970603Y30220000D01*
X7893324Y30204628D01*
X7820529Y30174475D01*
X7755015Y30130700D01*
X7699300Y30074985D01*
X7655525Y30009471D01*
X7625372Y29936676D01*
X7610000Y29859397D01*
X7250172Y29859397D01*
X7250172Y29919220D01*
X7251743Y29935173D01*
X7250172Y29951126D01*
X7250172Y29951133D01*
X7245469Y29998883D01*
X7235834Y30030647D01*
X7226885Y30060146D01*
X7196707Y30116606D01*
X7156093Y30166093D01*
X7143695Y30176268D01*
X6435000Y30884962D01*
X6435000Y31126416D01*
X6464475Y31170529D01*
X6494628Y31243324D01*
X6510000Y31320603D01*
X6510000Y31359397D01*
X7610000Y31359397D01*
X7610000Y31280603D01*
X7625372Y31203324D01*
X7655525Y31130529D01*
X7699300Y31065015D01*
X7755015Y31009300D01*
X7820529Y30965525D01*
X7893324Y30935372D01*
X7970603Y30920000D01*
X8049397Y30920000D01*
X8126676Y30935372D01*
X8199471Y30965525D01*
X8264985Y31009300D01*
X8320700Y31065015D01*
X8364475Y31130529D01*
X8394628Y31203324D01*
X8410000Y31280603D01*
X8410000Y31359397D01*
X8394628Y31436676D01*
X8364475Y31509471D01*
X8320700Y31574985D01*
X8264985Y31630700D01*
X8199471Y31674475D01*
X8126676Y31704628D01*
X8049397Y31720000D01*
X7970603Y31720000D01*
X7893324Y31704628D01*
X7820529Y31674475D01*
X7755015Y31630700D01*
X7699300Y31574985D01*
X7655525Y31509471D01*
X7625372Y31436676D01*
X7610000Y31359397D01*
X6510000Y31359397D01*
X6510000Y31399397D01*
X6494628Y31476676D01*
X6464475Y31549471D01*
X6420700Y31614985D01*
X6364985Y31670700D01*
X6299471Y31714475D01*
X6226676Y31744628D01*
X6149397Y31760000D01*
X6070603Y31760000D01*
X5993324Y31744628D01*
X5920529Y31714475D01*
X5876416Y31685000D01*
X5843584Y31685000D01*
X5799471Y31714475D01*
X5726676Y31744628D01*
X5649397Y31760000D01*
X5570603Y31760000D01*
X5493324Y31744628D01*
X5420529Y31714475D01*
X5355015Y31670700D01*
X5299300Y31614985D01*
X5288341Y31598584D01*
X5270700Y31624985D01*
X5214985Y31680700D01*
X5149471Y31724475D01*
X5076676Y31754628D01*
X4999397Y31770000D01*
X4920603Y31770000D01*
X4843324Y31754628D01*
X4770529Y31724475D01*
X4705015Y31680700D01*
X4703014Y31678699D01*
X4649471Y31714475D01*
X4576676Y31744628D01*
X4499397Y31760000D01*
X4420603Y31760000D01*
X4343324Y31744628D01*
X4270529Y31714475D01*
X4205015Y31670700D01*
X4149300Y31614985D01*
X4135000Y31593584D01*
X4120700Y31614985D01*
X4064985Y31670700D01*
X3999471Y31714475D01*
X3926676Y31744628D01*
X3849397Y31760000D01*
X3770603Y31760000D01*
X3693324Y31744628D01*
X3620529Y31714475D01*
X3560000Y31674031D01*
X3499471Y31714475D01*
X3426676Y31744628D01*
X3349397Y31760000D01*
X3270603Y31760000D01*
X3193324Y31744628D01*
X3120529Y31714475D01*
X3055015Y31670700D01*
X2999300Y31614985D01*
X2955525Y31549471D01*
X2925372Y31476676D01*
X2910000Y31399397D01*
X2207168Y31399397D01*
X2231571Y31458311D01*
X2270000Y31651509D01*
X2270000Y31848491D01*
X2231571Y32041689D01*
X2156189Y32223678D01*
X2046751Y32387463D01*
X1907463Y32526751D01*
X1743678Y32636189D01*
X1561689Y32711571D01*
X1368491Y32750000D01*
X1171509Y32750000D01*
X978311Y32711571D01*
X796322Y32636189D01*
X632537Y32526751D01*
X493249Y32387463D01*
X450000Y32322737D01*
X450000Y33717263D01*
X493249Y33652537D01*
X632537Y33513249D01*
X796322Y33403811D01*
X978311Y33328429D01*
X1171509Y33290000D01*
X1368491Y33290000D01*
X1561689Y33328429D01*
X1743678Y33403811D01*
X1886732Y33499397D01*
X3150000Y33499397D01*
X3150000Y33420603D01*
X3165372Y33343324D01*
X3195525Y33270529D01*
X3239300Y33205015D01*
X3295015Y33149300D01*
X3360529Y33105525D01*
X3433324Y33075372D01*
X3510603Y33060000D01*
X3589397Y33060000D01*
X3666676Y33075372D01*
X3739471Y33105525D01*
X3800000Y33145969D01*
X3860529Y33105525D01*
X3933324Y33075372D01*
X4010603Y33060000D01*
X4089397Y33060000D01*
X4166676Y33075372D01*
X4239471Y33105525D01*
X4304985Y33149300D01*
X4360700Y33205015D01*
X4404475Y33270529D01*
X4434628Y33343324D01*
X4450000Y33420603D01*
X4450000Y33499397D01*
X4434628Y33576676D01*
X4424019Y33602289D01*
X4495000Y33618759D01*
X4495000Y34790000D01*
X4645000Y34790000D01*
X4645000Y33618759D01*
X4768673Y33590062D01*
X4806857Y33597195D01*
X4952097Y33658157D01*
X5082653Y33746282D01*
X5193508Y33858184D01*
X5280402Y33989563D01*
X5339996Y34135369D01*
X5370000Y34290000D01*
X5370000Y34790000D01*
X4645000Y34790000D01*
X4495000Y34790000D01*
X3770000Y34790000D01*
X3770000Y34290000D01*
X3800004Y34135369D01*
X3859598Y33989563D01*
X3946492Y33858184D01*
X3955543Y33849048D01*
X3933324Y33844628D01*
X3860529Y33814475D01*
X3800000Y33774031D01*
X3739471Y33814475D01*
X3666676Y33844628D01*
X3589397Y33860000D01*
X3510603Y33860000D01*
X3433324Y33844628D01*
X3360529Y33814475D01*
X3295015Y33770700D01*
X3239300Y33714985D01*
X3195525Y33649471D01*
X3165372Y33576676D01*
X3150000Y33499397D01*
X1886732Y33499397D01*
X1907463Y33513249D01*
X2046751Y33652537D01*
X2156189Y33816322D01*
X2231571Y33998311D01*
X2270000Y34191509D01*
X2270000Y34388491D01*
X2231571Y34581689D01*
X2156189Y34763678D01*
X2046751Y34927463D01*
X1907463Y35066751D01*
X1743678Y35176189D01*
X1561689Y35251571D01*
X1368491Y35290000D01*
X1171509Y35290000D01*
X978311Y35251571D01*
X796322Y35176189D01*
X632537Y35066751D01*
X493249Y34927463D01*
X450000Y34862737D01*
X450000Y35440000D01*
X3770000Y35440000D01*
X3770000Y34940000D01*
X4495000Y34940000D01*
X4495000Y36111241D01*
X4645000Y36111241D01*
X4645000Y34940000D01*
X5370000Y34940000D01*
X5370000Y35283155D01*
X5409736Y35234736D01*
X5485871Y35172254D01*
X5572733Y35125825D01*
X5666983Y35097235D01*
X5740440Y35090000D01*
X6039560Y35090000D01*
X6113017Y35097235D01*
X6207267Y35125825D01*
X6294129Y35172254D01*
X6370264Y35234736D01*
X6398709Y35269397D01*
X6740000Y35269397D01*
X6740000Y35190603D01*
X6755372Y35113324D01*
X6785525Y35040529D01*
X6829300Y34975015D01*
X6885015Y34919300D01*
X6950529Y34875525D01*
X6980000Y34863318D01*
X6980000Y33404943D01*
X6982140Y33375763D01*
X7003427Y33231424D01*
X7020274Y33175549D01*
X7082321Y33043501D01*
X7114581Y32994867D01*
X7212107Y32886352D01*
X7233204Y32866080D01*
X7284355Y32823668D01*
X7235015Y32790700D01*
X7179300Y32734985D01*
X7135525Y32669471D01*
X7105372Y32596676D01*
X7090000Y32519397D01*
X7090000Y32440603D01*
X7105372Y32363324D01*
X7135525Y32290529D01*
X7179300Y32225015D01*
X7235015Y32169300D01*
X7300529Y32125525D01*
X7373324Y32095372D01*
X7450603Y32080000D01*
X7529397Y32080000D01*
X7606676Y32095372D01*
X7679471Y32125525D01*
X7744985Y32169300D01*
X7800700Y32225015D01*
X7844475Y32290529D01*
X7865662Y32341680D01*
X8899768Y31484255D01*
X8918823Y31470270D01*
X9017890Y31406209D01*
X9060263Y31385439D01*
X9171582Y31346373D01*
X9217643Y31336108D01*
X9335016Y31324212D01*
X9358631Y31323223D01*
X9549794Y31326519D01*
X9575479Y31328622D01*
X9702698Y31347353D01*
X9752199Y31361327D01*
X9870433Y31411885D01*
X9914735Y31438023D01*
X10016164Y31517065D01*
X10035429Y31534182D01*
X10317509Y31819397D01*
X11040000Y31819397D01*
X11040000Y31740603D01*
X11055372Y31663324D01*
X11085525Y31590529D01*
X11129300Y31525015D01*
X11185015Y31469300D01*
X11250529Y31425525D01*
X11323324Y31395372D01*
X11400603Y31380000D01*
X11479397Y31380000D01*
X11556676Y31395372D01*
X11629471Y31425525D01*
X11694985Y31469300D01*
X11750700Y31525015D01*
X11794475Y31590529D01*
X11824628Y31663324D01*
X11840000Y31740603D01*
X11855372Y31663324D01*
X11885525Y31590529D01*
X11929300Y31525015D01*
X11985015Y31469300D01*
X12050529Y31425525D01*
X12123324Y31395372D01*
X12200603Y31380000D01*
X12279397Y31380000D01*
X12356676Y31395372D01*
X12429471Y31425525D01*
X12494985Y31469300D01*
X12550700Y31525015D01*
X12594475Y31590529D01*
X12624628Y31663324D01*
X12640000Y31740603D01*
X12640000Y31819397D01*
X12624628Y31896676D01*
X12594475Y31969471D01*
X12550700Y32034985D01*
X12494985Y32090700D01*
X12429471Y32134475D01*
X12356676Y32164628D01*
X12279397Y32180000D01*
X12200603Y32180000D01*
X12123324Y32164628D01*
X12050529Y32134475D01*
X11985015Y32090700D01*
X11929300Y32034985D01*
X11885525Y31969471D01*
X11855372Y31896676D01*
X11840000Y31819397D01*
X11824628Y31896676D01*
X11794475Y31969471D01*
X11750700Y32034985D01*
X11694985Y32090700D01*
X11629471Y32134475D01*
X11556676Y32164628D01*
X11479397Y32180000D01*
X11400603Y32180000D01*
X11323324Y32164628D01*
X11250529Y32134475D01*
X11185015Y32090700D01*
X11129300Y32034985D01*
X11085525Y31969471D01*
X11055372Y31896676D01*
X11040000Y31819397D01*
X10317509Y31819397D01*
X11533993Y33049397D01*
X13280000Y33049397D01*
X13280000Y32970603D01*
X13295372Y32893324D01*
X13325525Y32820529D01*
X13369300Y32755015D01*
X13425015Y32699300D01*
X13483832Y32660000D01*
X13425015Y32620700D01*
X13369300Y32564985D01*
X13325525Y32499471D01*
X13295372Y32426676D01*
X13280000Y32349397D01*
X13280000Y32270603D01*
X13295372Y32193324D01*
X13325525Y32120529D01*
X13369300Y32055015D01*
X13425015Y31999300D01*
X13483832Y31960000D01*
X13425015Y31920700D01*
X13369300Y31864985D01*
X13325525Y31799471D01*
X13295372Y31726676D01*
X13280000Y31649397D01*
X13280000Y31570603D01*
X13295372Y31493324D01*
X13325525Y31420529D01*
X13369300Y31355015D01*
X13425015Y31299300D01*
X13490529Y31255525D01*
X13563324Y31225372D01*
X13640603Y31210000D01*
X13719397Y31210000D01*
X13796676Y31225372D01*
X13869471Y31255525D01*
X13934985Y31299300D01*
X13990700Y31355015D01*
X14034475Y31420529D01*
X14064628Y31493324D01*
X14080000Y31570603D01*
X14080000Y31649397D01*
X14064628Y31726676D01*
X14034475Y31799471D01*
X13990700Y31864985D01*
X13934985Y31920700D01*
X13876168Y31960000D01*
X13934985Y31999300D01*
X13990700Y32055015D01*
X14034475Y32120529D01*
X14064628Y32193324D01*
X14080000Y32270603D01*
X14080000Y32349397D01*
X14064628Y32426676D01*
X14034475Y32499471D01*
X13990700Y32564985D01*
X13934985Y32620700D01*
X13876168Y32660000D01*
X13934985Y32699300D01*
X13990700Y32755015D01*
X14034475Y32820529D01*
X14064628Y32893324D01*
X14080000Y32970603D01*
X14080000Y33049397D01*
X14064628Y33126676D01*
X14034475Y33199471D01*
X13990700Y33264985D01*
X13934985Y33320700D01*
X13869471Y33364475D01*
X13796676Y33394628D01*
X13719397Y33410000D01*
X13640603Y33410000D01*
X13563324Y33394628D01*
X13490529Y33364475D01*
X13425015Y33320700D01*
X13369300Y33264985D01*
X13325525Y33199471D01*
X13295372Y33126676D01*
X13280000Y33049397D01*
X11533993Y33049397D01*
X11547702Y33063258D01*
X11564730Y33082875D01*
X11643160Y33186066D01*
X11668918Y33231062D01*
X11718187Y33350946D01*
X11731513Y33401048D01*
X11748313Y33529567D01*
X11750000Y33555490D01*
X11750000Y34790000D01*
X12410000Y34790000D01*
X12410000Y34290000D01*
X12440004Y34135369D01*
X12499598Y33989563D01*
X12586492Y33858184D01*
X12697347Y33746282D01*
X12827903Y33658157D01*
X12973143Y33597195D01*
X13011327Y33590062D01*
X13135000Y33618759D01*
X13135000Y34790000D01*
X13285000Y34790000D01*
X13285000Y33618759D01*
X13408673Y33590062D01*
X13446857Y33597195D01*
X13592097Y33658157D01*
X13722653Y33746282D01*
X13833508Y33858184D01*
X13920402Y33989563D01*
X13979996Y34135369D01*
X14010000Y34290000D01*
X14010000Y34790000D01*
X13285000Y34790000D01*
X13135000Y34790000D01*
X12410000Y34790000D01*
X11750000Y34790000D01*
X11750000Y34930000D01*
X11748289Y34956105D01*
X11731252Y35085515D01*
X11722498Y35118186D01*
X11744155Y35109215D01*
X11840754Y35090000D01*
X11939246Y35090000D01*
X12035845Y35109215D01*
X12126839Y35146906D01*
X12208731Y35201625D01*
X12278375Y35271269D01*
X12333094Y35353161D01*
X12369063Y35440000D01*
X12410000Y35440000D01*
X12410000Y34940000D01*
X13135000Y34940000D01*
X13135000Y36111241D01*
X13285000Y36111241D01*
X13285000Y34940000D01*
X14010000Y34940000D01*
X14010000Y35440000D01*
X13979996Y35594631D01*
X13920402Y35740437D01*
X13833508Y35871816D01*
X13722653Y35983718D01*
X13592097Y36071843D01*
X13446857Y36132805D01*
X13408673Y36139938D01*
X13285000Y36111241D01*
X13135000Y36111241D01*
X13011327Y36139938D01*
X12973143Y36132805D01*
X12827903Y36071843D01*
X12697347Y35983718D01*
X12586492Y35871816D01*
X12499598Y35740437D01*
X12440004Y35594631D01*
X12410000Y35440000D01*
X12369063Y35440000D01*
X12370785Y35444155D01*
X12390000Y35540754D01*
X12390000Y35639246D01*
X12370785Y35735845D01*
X12333094Y35826839D01*
X12278375Y35908731D01*
X12208731Y35978375D01*
X12126839Y36033094D01*
X12035845Y36070785D01*
X11939246Y36090000D01*
X11840754Y36090000D01*
X11744155Y36070785D01*
X11653161Y36033094D01*
X11571269Y35978375D01*
X11501625Y35908731D01*
X11446906Y35826839D01*
X11409215Y35735845D01*
X11390000Y35639246D01*
X11390000Y35600825D01*
X11356676Y35614628D01*
X11279397Y35630000D01*
X11200603Y35630000D01*
X11145845Y35619108D01*
X11076105Y35628289D01*
X11050000Y35630000D01*
X7680000Y35630000D01*
X7679546Y35629970D01*
X7679397Y35630000D01*
X7600603Y35630000D01*
X7523324Y35614628D01*
X7498117Y35604187D01*
X7474053Y35597739D01*
X7372546Y35555693D01*
X7329471Y35584475D01*
X7256676Y35614628D01*
X7179397Y35630000D01*
X7100603Y35630000D01*
X7023324Y35614628D01*
X6950529Y35584475D01*
X6885015Y35540700D01*
X6829300Y35484985D01*
X6785525Y35419471D01*
X6755372Y35346676D01*
X6740000Y35269397D01*
X6398709Y35269397D01*
X6432746Y35310871D01*
X6479175Y35397733D01*
X6507765Y35491983D01*
X6517419Y35590000D01*
X6507765Y35688017D01*
X6479175Y35782267D01*
X6432746Y35869129D01*
X6370264Y35945264D01*
X6294129Y36007746D01*
X6207267Y36054175D01*
X6113017Y36082765D01*
X6039560Y36090000D01*
X5740440Y36090000D01*
X5666983Y36082765D01*
X5572733Y36054175D01*
X5485871Y36007746D01*
X5409736Y35945264D01*
X5347254Y35869129D01*
X5300825Y35782267D01*
X5284841Y35729575D01*
X5280402Y35740437D01*
X5193508Y35871816D01*
X5082653Y35983718D01*
X4952097Y36071843D01*
X4806857Y36132805D01*
X4768673Y36139938D01*
X4645000Y36111241D01*
X4495000Y36111241D01*
X4371327Y36139938D01*
X4333143Y36132805D01*
X4187903Y36071843D01*
X4057347Y35983718D01*
X3946492Y35871816D01*
X3859598Y35740437D01*
X3800004Y35594631D01*
X3770000Y35440000D01*
X450000Y35440000D01*
X450000Y36257263D01*
X493249Y36192537D01*
X632537Y36053249D01*
X796322Y35943811D01*
X978311Y35868429D01*
X1171509Y35830000D01*
X1368491Y35830000D01*
X1561689Y35868429D01*
X1743678Y35943811D01*
X1907463Y36053249D01*
X2046751Y36192537D01*
X2156189Y36356322D01*
X2231571Y36538311D01*
X2270000Y36731509D01*
X2270000Y36928491D01*
X2231571Y37121689D01*
X2156189Y37303678D01*
X2046751Y37467463D01*
X1907463Y37606751D01*
X1743678Y37716189D01*
X1561689Y37791571D01*
X1368491Y37830000D01*
X1171509Y37830000D01*
X978311Y37791571D01*
X796322Y37716189D01*
X632537Y37606751D01*
X493249Y37467463D01*
X450000Y37402737D01*
X450000Y38797263D01*
X493249Y38732537D01*
X632537Y38593249D01*
X796322Y38483811D01*
X978311Y38408429D01*
X1171509Y38370000D01*
X1368491Y38370000D01*
X1561689Y38408429D01*
X1743678Y38483811D01*
X1907463Y38593249D01*
X1929214Y38615000D01*
X3770000Y38615000D01*
X3770000Y37965000D01*
X3800004Y37810369D01*
X3859598Y37664563D01*
X3946492Y37533184D01*
X4057347Y37421282D01*
X4187903Y37333157D01*
X4333143Y37272195D01*
X4371327Y37265062D01*
X4495000Y37293759D01*
X4495000Y38615000D01*
X4645000Y38615000D01*
X4645000Y37293759D01*
X4768673Y37265062D01*
X4806857Y37272195D01*
X4952097Y37333157D01*
X5082653Y37421282D01*
X5193508Y37533184D01*
X5280402Y37664563D01*
X5339996Y37810369D01*
X5370000Y37965000D01*
X5370000Y38615000D01*
X12410000Y38615000D01*
X12410000Y37965000D01*
X12440004Y37810369D01*
X12499598Y37664563D01*
X12586492Y37533184D01*
X12697347Y37421282D01*
X12827903Y37333157D01*
X12973143Y37272195D01*
X13011327Y37265062D01*
X13135000Y37293759D01*
X13135000Y38615000D01*
X13285000Y38615000D01*
X13285000Y37293759D01*
X13408673Y37265062D01*
X13446857Y37272195D01*
X13592097Y37333157D01*
X13722653Y37421282D01*
X13833508Y37533184D01*
X13920402Y37664563D01*
X13979996Y37810369D01*
X14010000Y37965000D01*
X14010000Y38615000D01*
X13285000Y38615000D01*
X13135000Y38615000D01*
X12410000Y38615000D01*
X5370000Y38615000D01*
X4645000Y38615000D01*
X4495000Y38615000D01*
X3770000Y38615000D01*
X1929214Y38615000D01*
X2046751Y38732537D01*
X2156189Y38896322D01*
X2231571Y39078311D01*
X2270000Y39271509D01*
X2270000Y39415000D01*
X3770000Y39415000D01*
X3770000Y38765000D01*
X4495000Y38765000D01*
X4495000Y40086241D01*
X4645000Y40086241D01*
X4645000Y38765000D01*
X5370000Y38765000D01*
X5370000Y39415000D01*
X12410000Y39415000D01*
X12410000Y38765000D01*
X13135000Y38765000D01*
X13135000Y40086241D01*
X13285000Y40086241D01*
X13285000Y38765000D01*
X14010000Y38765000D01*
X14010000Y39415000D01*
X13979996Y39569631D01*
X13920402Y39715437D01*
X13833508Y39846816D01*
X13722653Y39958718D01*
X13592097Y40046843D01*
X13446857Y40107805D01*
X13408673Y40114938D01*
X13285000Y40086241D01*
X13135000Y40086241D01*
X13011327Y40114938D01*
X12973143Y40107805D01*
X12827903Y40046843D01*
X12697347Y39958718D01*
X12586492Y39846816D01*
X12499598Y39715437D01*
X12440004Y39569631D01*
X12410000Y39415000D01*
X5370000Y39415000D01*
X5339996Y39569631D01*
X5280402Y39715437D01*
X5193508Y39846816D01*
X5082653Y39958718D01*
X4952097Y40046843D01*
X4806857Y40107805D01*
X4768673Y40114938D01*
X4645000Y40086241D01*
X4495000Y40086241D01*
X4371327Y40114938D01*
X4333143Y40107805D01*
X4187903Y40046843D01*
X4057347Y39958718D01*
X3946492Y39846816D01*
X3859598Y39715437D01*
X3800004Y39569631D01*
X3770000Y39415000D01*
X2270000Y39415000D01*
X2270000Y39468491D01*
X2231571Y39661689D01*
X2156189Y39843678D01*
X2046751Y40007463D01*
X1907463Y40146751D01*
X1842737Y40190000D01*
X15937263Y40190000D01*
X15872537Y40146751D01*
G04 #@! TA.AperFunction,Conductor*
D18*
G36*
X15872537Y40146751D02*
G01*
X15733249Y40007463D01*
X15623811Y39843678D01*
X15548429Y39661689D01*
X15510000Y39468491D01*
X15510000Y39271509D01*
X15548429Y39078311D01*
X15623811Y38896322D01*
X15733249Y38732537D01*
X15872537Y38593249D01*
X16036322Y38483811D01*
X16218311Y38408429D01*
X16411509Y38370000D01*
X16608491Y38370000D01*
X16801689Y38408429D01*
X16983678Y38483811D01*
X17147463Y38593249D01*
X17286751Y38732537D01*
X17330001Y38797265D01*
X17330001Y37402735D01*
X17286751Y37467463D01*
X17147463Y37606751D01*
X16983678Y37716189D01*
X16801689Y37791571D01*
X16608491Y37830000D01*
X16411509Y37830000D01*
X16218311Y37791571D01*
X16036322Y37716189D01*
X15872537Y37606751D01*
X15733249Y37467463D01*
X15623811Y37303678D01*
X15548429Y37121689D01*
X15510000Y36928491D01*
X15510000Y36731509D01*
X15548429Y36538311D01*
X15623811Y36356322D01*
X15733249Y36192537D01*
X15872537Y36053249D01*
X16036322Y35943811D01*
X16218311Y35868429D01*
X16411509Y35830000D01*
X16608491Y35830000D01*
X16801689Y35868429D01*
X16983678Y35943811D01*
X17147463Y36053249D01*
X17286751Y36192537D01*
X17330001Y36257265D01*
X17330001Y34862735D01*
X17286751Y34927463D01*
X17147463Y35066751D01*
X16983678Y35176189D01*
X16801689Y35251571D01*
X16608491Y35290000D01*
X16411509Y35290000D01*
X16218311Y35251571D01*
X16036322Y35176189D01*
X15872537Y35066751D01*
X15733249Y34927463D01*
X15623811Y34763678D01*
X15548429Y34581689D01*
X15510000Y34388491D01*
X15510000Y34191509D01*
X15548429Y33998311D01*
X15623811Y33816322D01*
X15733249Y33652537D01*
X15872537Y33513249D01*
X16036322Y33403811D01*
X16218311Y33328429D01*
X16411509Y33290000D01*
X16608491Y33290000D01*
X16801689Y33328429D01*
X16983678Y33403811D01*
X17147463Y33513249D01*
X17286751Y33652537D01*
X17330001Y33717265D01*
X17330001Y32322735D01*
X17286751Y32387463D01*
X17147463Y32526751D01*
X16983678Y32636189D01*
X16801689Y32711571D01*
X16608491Y32750000D01*
X16411509Y32750000D01*
X16218311Y32711571D01*
X16036322Y32636189D01*
X15872537Y32526751D01*
X15733249Y32387463D01*
X15623811Y32223678D01*
X15548429Y32041689D01*
X15510000Y31848491D01*
X15510000Y31651509D01*
X15548429Y31458311D01*
X15623811Y31276322D01*
X15733249Y31112537D01*
X15872537Y30973249D01*
X16036322Y30863811D01*
X16218311Y30788429D01*
X16411509Y30750000D01*
X16608491Y30750000D01*
X16801689Y30788429D01*
X16983678Y30863811D01*
X17147463Y30973249D01*
X17286751Y31112537D01*
X17330001Y31177265D01*
X17330001Y29782735D01*
X17286751Y29847463D01*
X17147463Y29986751D01*
X16983678Y30096189D01*
X16801689Y30171571D01*
X16608491Y30210000D01*
X16411509Y30210000D01*
X16218311Y30171571D01*
X16036322Y30096189D01*
X15872537Y29986751D01*
X15733249Y29847463D01*
X15628259Y29690335D01*
X15624475Y29699471D01*
X15580700Y29764985D01*
X15524985Y29820700D01*
X15466168Y29860000D01*
X15524985Y29899300D01*
X15580700Y29955015D01*
X15624475Y30020529D01*
X15654628Y30093324D01*
X15670000Y30170603D01*
X15670000Y30249397D01*
X15654628Y30326676D01*
X15624475Y30399471D01*
X15580700Y30464985D01*
X15524985Y30520700D01*
X15459471Y30564475D01*
X15386676Y30594628D01*
X15309397Y30610000D01*
X15230603Y30610000D01*
X15153324Y30594628D01*
X15080529Y30564475D01*
X15015015Y30520700D01*
X14959300Y30464985D01*
X14915525Y30399471D01*
X14885372Y30326676D01*
X14870000Y30249397D01*
X14870000Y30170603D01*
X14885372Y30093324D01*
X14915525Y30020529D01*
X14959300Y29955015D01*
X15015015Y29899300D01*
X15073832Y29860000D01*
X15015015Y29820700D01*
X14959300Y29764985D01*
X14915525Y29699471D01*
X14885372Y29626676D01*
X14870000Y29549397D01*
X14870000Y29470603D01*
X14885372Y29393324D01*
X14915525Y29320529D01*
X14959300Y29255015D01*
X15015015Y29199300D01*
X15080529Y29155525D01*
X15153324Y29125372D01*
X15230603Y29110000D01*
X15309397Y29110000D01*
X15386676Y29125372D01*
X15459471Y29155525D01*
X15510000Y29189287D01*
X15510000Y29111509D01*
X15548429Y28918311D01*
X15623811Y28736322D01*
X15733249Y28572537D01*
X15872537Y28433249D01*
X16036322Y28323811D01*
X16218311Y28248429D01*
X16411509Y28210000D01*
X16608491Y28210000D01*
X16801689Y28248429D01*
X16983678Y28323811D01*
X17147463Y28433249D01*
X17286751Y28572537D01*
X17330001Y28637265D01*
X17330001Y27242736D01*
X17286751Y27307463D01*
X17147463Y27446751D01*
X16983678Y27556189D01*
X16801689Y27631571D01*
X16608491Y27670000D01*
X16411509Y27670000D01*
X16218311Y27631571D01*
X16036322Y27556189D01*
X15872537Y27446751D01*
X15733249Y27307463D01*
X15623811Y27143678D01*
X15548429Y26961689D01*
X15510000Y26768491D01*
X15510000Y26571509D01*
X15548429Y26378311D01*
X15623811Y26196322D01*
X15733249Y26032537D01*
X15872537Y25893249D01*
X16036322Y25783811D01*
X16218311Y25708429D01*
X16411509Y25670000D01*
X16608491Y25670000D01*
X16801689Y25708429D01*
X16983678Y25783811D01*
X17147463Y25893249D01*
X17286751Y26032537D01*
X17330001Y26097264D01*
X17330001Y24702736D01*
X17286751Y24767463D01*
X17147463Y24906751D01*
X16983678Y25016189D01*
X16801689Y25091571D01*
X16608491Y25130000D01*
X16411509Y25130000D01*
X16218311Y25091571D01*
X16036322Y25016189D01*
X15872537Y24906751D01*
X15733249Y24767463D01*
X15623811Y24603678D01*
X15548429Y24421689D01*
X15510000Y24228491D01*
X15510000Y24031509D01*
X15548429Y23838311D01*
X15623811Y23656322D01*
X15733249Y23492537D01*
X15872537Y23353249D01*
X16036322Y23243811D01*
X16218311Y23168429D01*
X16411509Y23130000D01*
X16608491Y23130000D01*
X16801689Y23168429D01*
X16983678Y23243811D01*
X17147463Y23353249D01*
X17286751Y23492537D01*
X17330001Y23557264D01*
X17330001Y22162736D01*
X17286751Y22227463D01*
X17147463Y22366751D01*
X16983678Y22476189D01*
X16801689Y22551571D01*
X16608491Y22590000D01*
X16411509Y22590000D01*
X16218311Y22551571D01*
X16036322Y22476189D01*
X15872537Y22366751D01*
X15733249Y22227463D01*
X15623811Y22063678D01*
X15548429Y21881689D01*
X15510000Y21688491D01*
X15510000Y21491509D01*
X15548429Y21298311D01*
X15623811Y21116322D01*
X15733249Y20952537D01*
X15872537Y20813249D01*
X16036322Y20703811D01*
X16218311Y20628429D01*
X16411509Y20590000D01*
X16608491Y20590000D01*
X16801689Y20628429D01*
X16983678Y20703811D01*
X17147463Y20813249D01*
X17286751Y20952537D01*
X17330001Y21017264D01*
X17330000Y19622736D01*
X17286751Y19687463D01*
X17147463Y19826751D01*
X16983678Y19936189D01*
X16801689Y20011571D01*
X16608491Y20050000D01*
X16411509Y20050000D01*
X16218311Y20011571D01*
X16036322Y19936189D01*
X15872537Y19826751D01*
X15733249Y19687463D01*
X15623811Y19523678D01*
X15548429Y19341689D01*
X15510000Y19148491D01*
X15510000Y18951509D01*
X15548429Y18758311D01*
X15623811Y18576322D01*
X15733249Y18412537D01*
X15872537Y18273249D01*
X16036322Y18163811D01*
X16218311Y18088429D01*
X16411509Y18050000D01*
X16608491Y18050000D01*
X16801689Y18088429D01*
X16983678Y18163811D01*
X17147463Y18273249D01*
X17286751Y18412537D01*
X17330000Y18477264D01*
X17330000Y17082736D01*
X17286751Y17147463D01*
X17147463Y17286751D01*
X16983678Y17396189D01*
X16801689Y17471571D01*
X16608491Y17510000D01*
X16411509Y17510000D01*
X16218311Y17471571D01*
X16036322Y17396189D01*
X15872537Y17286751D01*
X15733249Y17147463D01*
X15623811Y16983678D01*
X15548429Y16801689D01*
X15510000Y16608491D01*
X15510000Y16411509D01*
X15548429Y16218311D01*
X15623811Y16036322D01*
X15733249Y15872537D01*
X15872537Y15733249D01*
X16036322Y15623811D01*
X16218311Y15548429D01*
X16411509Y15510000D01*
X16608491Y15510000D01*
X16801689Y15548429D01*
X16983678Y15623811D01*
X17147463Y15733249D01*
X17286751Y15872537D01*
X17330000Y15937264D01*
X17330000Y14542736D01*
X17286751Y14607463D01*
X17147463Y14746751D01*
X16983678Y14856189D01*
X16801689Y14931571D01*
X16608491Y14970000D01*
X16411509Y14970000D01*
X16218311Y14931571D01*
X16036322Y14856189D01*
X15872537Y14746751D01*
X15733249Y14607463D01*
X15623811Y14443678D01*
X15548429Y14261689D01*
X15510000Y14068491D01*
X15510000Y13871509D01*
X15548429Y13678311D01*
X15623811Y13496322D01*
X15733249Y13332537D01*
X15872537Y13193249D01*
X16036322Y13083811D01*
X16218311Y13008429D01*
X16411509Y12970000D01*
X16608491Y12970000D01*
X16801689Y13008429D01*
X16983678Y13083811D01*
X17147463Y13193249D01*
X17286751Y13332537D01*
X17330000Y13397264D01*
X17330000Y12002736D01*
X17286751Y12067463D01*
X17147463Y12206751D01*
X16983678Y12316189D01*
X16801689Y12391571D01*
X16608491Y12430000D01*
X16411509Y12430000D01*
X16218311Y12391571D01*
X16036322Y12316189D01*
X15872537Y12206751D01*
X15733249Y12067463D01*
X15623811Y11903678D01*
X15548429Y11721689D01*
X15510000Y11528491D01*
X15510000Y11331509D01*
X15548429Y11138311D01*
X15623811Y10956322D01*
X15733249Y10792537D01*
X15872537Y10653249D01*
X16036322Y10543811D01*
X16218311Y10468429D01*
X16411509Y10430000D01*
X16608491Y10430000D01*
X16801689Y10468429D01*
X16983678Y10543811D01*
X17147463Y10653249D01*
X17286751Y10792537D01*
X17330000Y10857264D01*
X17330000Y9462736D01*
X17286751Y9527463D01*
X17147463Y9666751D01*
X16983678Y9776189D01*
X16801689Y9851571D01*
X16608491Y9890000D01*
X16411509Y9890000D01*
X16218311Y9851571D01*
X16036322Y9776189D01*
X15872537Y9666751D01*
X15733249Y9527463D01*
X15623811Y9363678D01*
X15548429Y9181689D01*
X15510000Y8988491D01*
X15510000Y8791509D01*
X15548429Y8598311D01*
X15623811Y8416322D01*
X15733249Y8252537D01*
X15872537Y8113249D01*
X16036322Y8003811D01*
X16218311Y7928429D01*
X16411509Y7890000D01*
X16608491Y7890000D01*
X16801689Y7928429D01*
X16983678Y8003811D01*
X17147463Y8113249D01*
X17286751Y8252537D01*
X17330000Y8317264D01*
X17330000Y6922736D01*
X17286751Y6987463D01*
X17147463Y7126751D01*
X16983678Y7236189D01*
X16801689Y7311571D01*
X16608491Y7350000D01*
X16411509Y7350000D01*
X16218311Y7311571D01*
X16036322Y7236189D01*
X15872537Y7126751D01*
X15733249Y6987463D01*
X15623811Y6823678D01*
X15548429Y6641689D01*
X15510000Y6448491D01*
X15510000Y6251509D01*
X15548429Y6058311D01*
X15623811Y5876322D01*
X15733249Y5712537D01*
X15872537Y5573249D01*
X16036322Y5463811D01*
X16218311Y5388429D01*
X16411509Y5350000D01*
X16608491Y5350000D01*
X16801689Y5388429D01*
X16983678Y5463811D01*
X17147463Y5573249D01*
X17286751Y5712537D01*
X17330000Y5777264D01*
X17330000Y4382736D01*
X17286751Y4447463D01*
X17147463Y4586751D01*
X16983678Y4696189D01*
X16801689Y4771571D01*
X16608491Y4810000D01*
X16411509Y4810000D01*
X16218311Y4771571D01*
X16036322Y4696189D01*
X15872537Y4586751D01*
X15733249Y4447463D01*
X15623811Y4283678D01*
X15548429Y4101689D01*
X15510000Y3908491D01*
X15510000Y3711509D01*
X15548429Y3518311D01*
X15623811Y3336322D01*
X15733249Y3172537D01*
X15872537Y3033249D01*
X16036322Y2923811D01*
X16218311Y2848429D01*
X16411509Y2810000D01*
X16608491Y2810000D01*
X16801689Y2848429D01*
X16983678Y2923811D01*
X17147463Y3033249D01*
X17286751Y3172537D01*
X17330000Y3237264D01*
X17330000Y1842736D01*
X17286751Y1907463D01*
X17147463Y2046751D01*
X16983678Y2156189D01*
X16801689Y2231571D01*
X16608491Y2270000D01*
X16411509Y2270000D01*
X16218311Y2231571D01*
X16036322Y2156189D01*
X15872537Y2046751D01*
X15733249Y1907463D01*
X15623811Y1743678D01*
X15548429Y1561689D01*
X15510000Y1368491D01*
X15510000Y1171509D01*
X15548429Y978311D01*
X15623811Y796322D01*
X15733249Y632537D01*
X15872537Y493249D01*
X15937263Y450000D01*
X1823092Y450000D01*
X1890054Y543880D01*
X1270000Y1163934D01*
X649946Y543880D01*
X716908Y450000D01*
X522005Y450000D01*
X490706Y453069D01*
X481772Y455767D01*
X473525Y460152D01*
X466288Y466054D01*
X460338Y473246D01*
X455894Y481464D01*
X453135Y490377D01*
X450000Y520207D01*
X450000Y716908D01*
X543880Y649946D01*
X1163934Y1270000D01*
X1376066Y1270000D01*
X1996120Y649946D01*
X2124749Y741694D01*
X2211392Y918599D01*
X2261859Y1109007D01*
X2274209Y1305603D01*
X2256226Y1439397D01*
X2980000Y1439397D01*
X2980000Y1360603D01*
X2995372Y1283324D01*
X3025525Y1210529D01*
X3069300Y1145015D01*
X3125015Y1089300D01*
X3190529Y1045525D01*
X3263324Y1015372D01*
X3340603Y1000000D01*
X3419397Y1000000D01*
X3496676Y1015372D01*
X3569471Y1045525D01*
X3634985Y1089300D01*
X3690700Y1145015D01*
X3734475Y1210529D01*
X3764628Y1283324D01*
X3780000Y1360603D01*
X3780000Y1439397D01*
X3764628Y1516676D01*
X3734475Y1589471D01*
X3690700Y1654985D01*
X3634985Y1710700D01*
X3569471Y1754475D01*
X3496676Y1784628D01*
X3419397Y1800000D01*
X3340603Y1800000D01*
X3263324Y1784628D01*
X3190529Y1754475D01*
X3125015Y1710700D01*
X3069300Y1654985D01*
X3025525Y1589471D01*
X2995372Y1516676D01*
X2980000Y1439397D01*
X2256226Y1439397D01*
X2247968Y1500830D01*
X2184143Y1687187D01*
X2124749Y1798306D01*
X1996120Y1890054D01*
X1376066Y1270000D01*
X1163934Y1270000D01*
X543880Y1890054D01*
X450000Y1823092D01*
X450000Y1996120D01*
X649946Y1996120D01*
X1270000Y1376066D01*
X1890054Y1996120D01*
X1798306Y2124749D01*
X1621401Y2211392D01*
X1430993Y2261859D01*
X1234397Y2274209D01*
X1039170Y2247968D01*
X852813Y2184143D01*
X741694Y2124749D01*
X649946Y1996120D01*
X450000Y1996120D01*
X450000Y2739397D01*
X3330000Y2739397D01*
X3330000Y2660603D01*
X3345372Y2583324D01*
X3375525Y2510529D01*
X3419300Y2445015D01*
X3475015Y2389300D01*
X3540529Y2345525D01*
X3613324Y2315372D01*
X3690603Y2300000D01*
X3692109Y2300000D01*
X3705372Y2233324D01*
X3735525Y2160529D01*
X3779300Y2095015D01*
X3835015Y2039300D01*
X3900529Y1995525D01*
X3973324Y1965372D01*
X4050603Y1950000D01*
X4129397Y1950000D01*
X4206676Y1965372D01*
X4279471Y1995525D01*
X4344985Y2039300D01*
X4345082Y2039397D01*
X6640000Y2039397D01*
X6640000Y1960603D01*
X6655372Y1883324D01*
X6685525Y1810529D01*
X6729300Y1745015D01*
X6785015Y1689300D01*
X6850529Y1645525D01*
X6923324Y1615372D01*
X7000603Y1600000D01*
X7079397Y1600000D01*
X7156676Y1615372D01*
X7229471Y1645525D01*
X7294985Y1689300D01*
X7350700Y1745015D01*
X7394475Y1810529D01*
X7424628Y1883324D01*
X7437891Y1950000D01*
X7439397Y1950000D01*
X7516676Y1965372D01*
X7589471Y1995525D01*
X7654985Y2039300D01*
X7710700Y2095015D01*
X7754475Y2160529D01*
X7784628Y2233324D01*
X7800000Y2310603D01*
X7800000Y2389397D01*
X7784628Y2466676D01*
X7754475Y2539471D01*
X7710700Y2604985D01*
X7654985Y2660700D01*
X7589471Y2704475D01*
X7516676Y2734628D01*
X7439397Y2750000D01*
X7360603Y2750000D01*
X7283324Y2734628D01*
X7210529Y2704475D01*
X7145015Y2660700D01*
X7089300Y2604985D01*
X7045525Y2539471D01*
X7015372Y2466676D01*
X7002109Y2400000D01*
X7000603Y2400000D01*
X6923324Y2384628D01*
X6850529Y2354475D01*
X6785015Y2310700D01*
X6729300Y2254985D01*
X6685525Y2189471D01*
X6655372Y2116676D01*
X6640000Y2039397D01*
X4345082Y2039397D01*
X4400700Y2095015D01*
X4444475Y2160529D01*
X4474628Y2233324D01*
X4490000Y2310603D01*
X4490000Y2389397D01*
X4474628Y2466676D01*
X4444475Y2539471D01*
X4400700Y2604985D01*
X4344985Y2660700D01*
X4279471Y2704475D01*
X4206676Y2734628D01*
X4129397Y2750000D01*
X4127891Y2750000D01*
X4114628Y2816676D01*
X4084475Y2889471D01*
X4040700Y2954985D01*
X3984985Y3010700D01*
X3919471Y3054475D01*
X3846676Y3084628D01*
X3769397Y3100000D01*
X3690603Y3100000D01*
X3613324Y3084628D01*
X3540529Y3054475D01*
X3475015Y3010700D01*
X3419300Y2954985D01*
X3375525Y2889471D01*
X3345372Y2816676D01*
X3330000Y2739397D01*
X450000Y2739397D01*
X450000Y3237263D01*
X493249Y3172537D01*
X632537Y3033249D01*
X796322Y2923811D01*
X978311Y2848429D01*
X1171509Y2810000D01*
X1368491Y2810000D01*
X1561689Y2848429D01*
X1743678Y2923811D01*
X1907463Y3033249D01*
X2046751Y3172537D01*
X2156189Y3336322D01*
X2231571Y3518311D01*
X2270000Y3711509D01*
X2270000Y3908491D01*
X2231571Y4101689D01*
X2156189Y4283678D01*
X2046751Y4447463D01*
X1907463Y4586751D01*
X1743678Y4696189D01*
X1561689Y4771571D01*
X1368491Y4810000D01*
X1171509Y4810000D01*
X978311Y4771571D01*
X796322Y4696189D01*
X632537Y4586751D01*
X493249Y4447463D01*
X450000Y4382737D01*
X450000Y5777263D01*
X493249Y5712537D01*
X632537Y5573249D01*
X796322Y5463811D01*
X978311Y5388429D01*
X1171509Y5350000D01*
X1368491Y5350000D01*
X1561689Y5388429D01*
X1743678Y5463811D01*
X1811902Y5509397D01*
X2640000Y5509397D01*
X2640000Y5430603D01*
X2655372Y5353324D01*
X2685525Y5280529D01*
X2729300Y5215015D01*
X2785015Y5159300D01*
X2850529Y5115525D01*
X2923324Y5085372D01*
X3000603Y5070000D01*
X3079397Y5070000D01*
X3156676Y5085372D01*
X3229471Y5115525D01*
X3294985Y5159300D01*
X3350700Y5215015D01*
X3394475Y5280529D01*
X3424628Y5353324D01*
X3440000Y5430603D01*
X3440000Y5509397D01*
X3424628Y5586676D01*
X3394475Y5659471D01*
X3350700Y5724985D01*
X3294985Y5780700D01*
X3229471Y5824475D01*
X3156676Y5854628D01*
X3079397Y5870000D01*
X3000603Y5870000D01*
X2923324Y5854628D01*
X2850529Y5824475D01*
X2785015Y5780700D01*
X2729300Y5724985D01*
X2685525Y5659471D01*
X2655372Y5586676D01*
X2640000Y5509397D01*
X1811902Y5509397D01*
X1907463Y5573249D01*
X2046751Y5712537D01*
X2156189Y5876322D01*
X2165746Y5899397D01*
X9430000Y5899397D01*
X9430000Y5820603D01*
X9445372Y5743324D01*
X9475525Y5670529D01*
X9519300Y5605015D01*
X9575015Y5549300D01*
X9640529Y5505525D01*
X9713324Y5475372D01*
X9790603Y5460000D01*
X9869397Y5460000D01*
X9946676Y5475372D01*
X10019471Y5505525D01*
X10084985Y5549300D01*
X10140700Y5605015D01*
X10184475Y5670529D01*
X10214628Y5743324D01*
X10230000Y5820603D01*
X10230000Y5899397D01*
X10214628Y5976676D01*
X10184475Y6049471D01*
X10140700Y6114985D01*
X10084985Y6170700D01*
X10019471Y6214475D01*
X9946676Y6244628D01*
X9869397Y6260000D01*
X9790603Y6260000D01*
X9713324Y6244628D01*
X9640529Y6214475D01*
X9575015Y6170700D01*
X9519300Y6114985D01*
X9475525Y6049471D01*
X9445372Y5976676D01*
X9430000Y5899397D01*
X2165746Y5899397D01*
X2231571Y6058311D01*
X2270000Y6251509D01*
X2270000Y6409397D01*
X3680000Y6409397D01*
X3680000Y6330603D01*
X3695372Y6253324D01*
X3725525Y6180529D01*
X3769300Y6115015D01*
X3825015Y6059300D01*
X3890529Y6015525D01*
X3963324Y5985372D01*
X4040603Y5970000D01*
X4119397Y5970000D01*
X4196676Y5985372D01*
X4269471Y6015525D01*
X4334985Y6059300D01*
X4390700Y6115015D01*
X4434475Y6180529D01*
X4464628Y6253324D01*
X4477891Y6320000D01*
X4479397Y6320000D01*
X4556676Y6335372D01*
X4629471Y6365525D01*
X4694985Y6409300D01*
X4750700Y6465015D01*
X4794475Y6530529D01*
X4823001Y6599397D01*
X6840000Y6599397D01*
X6840000Y6520603D01*
X6855372Y6443324D01*
X6885525Y6370529D01*
X6929300Y6305015D01*
X6985015Y6249300D01*
X7050529Y6205525D01*
X7123324Y6175372D01*
X7200603Y6160000D01*
X7279397Y6160000D01*
X7356676Y6175372D01*
X7429471Y6205525D01*
X7494985Y6249300D01*
X7550700Y6305015D01*
X7594475Y6370529D01*
X7624628Y6443324D01*
X7640000Y6520603D01*
X7640000Y6570000D01*
X10138065Y6570000D01*
X10145788Y6491586D01*
X10168660Y6416186D01*
X10205803Y6346697D01*
X10255789Y6285789D01*
X10316697Y6235803D01*
X10386186Y6198660D01*
X10461586Y6175788D01*
X10501041Y6171902D01*
X10510603Y6170000D01*
X10589397Y6170000D01*
X10608767Y6173853D01*
X10628414Y6175788D01*
X10647309Y6181520D01*
X10666676Y6185372D01*
X10684917Y6192928D01*
X10703814Y6198660D01*
X10721231Y6207970D01*
X10739471Y6215525D01*
X10755887Y6226494D01*
X10773303Y6235803D01*
X10788567Y6248330D01*
X10804985Y6259300D01*
X10818948Y6273263D01*
X10834211Y6285789D01*
X10846737Y6301052D01*
X10860700Y6315015D01*
X10871670Y6331433D01*
X10884197Y6346697D01*
X10893506Y6364113D01*
X10904475Y6380529D01*
X10912030Y6398769D01*
X10921340Y6416186D01*
X10927072Y6435083D01*
X10934628Y6453324D01*
X10938480Y6472691D01*
X10944212Y6491586D01*
X10946147Y6511233D01*
X10946582Y6513418D01*
X11006676Y6525372D01*
X11079471Y6555525D01*
X11144985Y6599300D01*
X11200700Y6655015D01*
X11244475Y6720529D01*
X11274628Y6793324D01*
X11287891Y6860000D01*
X11289397Y6860000D01*
X11366676Y6875372D01*
X11439471Y6905525D01*
X11504985Y6949300D01*
X11560700Y7005015D01*
X11604475Y7070529D01*
X11634628Y7143324D01*
X11650000Y7220603D01*
X11650000Y7222109D01*
X11716676Y7235372D01*
X11789471Y7265525D01*
X11854985Y7309300D01*
X11895082Y7349397D01*
X13990000Y7349397D01*
X13990000Y7270603D01*
X14005372Y7193324D01*
X14035525Y7120529D01*
X14079300Y7055015D01*
X14135015Y6999300D01*
X14200529Y6955525D01*
X14273324Y6925372D01*
X14350603Y6910000D01*
X14429397Y6910000D01*
X14506676Y6925372D01*
X14579471Y6955525D01*
X14644985Y6999300D01*
X14700700Y7055015D01*
X14744475Y7120529D01*
X14774628Y7193324D01*
X14790000Y7270603D01*
X14790000Y7349397D01*
X14774628Y7426676D01*
X14744475Y7499471D01*
X14700700Y7564985D01*
X14644985Y7620700D01*
X14579471Y7664475D01*
X14506676Y7694628D01*
X14429397Y7710000D01*
X14350603Y7710000D01*
X14273324Y7694628D01*
X14200529Y7664475D01*
X14135015Y7620700D01*
X14079300Y7564985D01*
X14035525Y7499471D01*
X14005372Y7426676D01*
X13990000Y7349397D01*
X11895082Y7349397D01*
X11910700Y7365015D01*
X11954475Y7430529D01*
X11984628Y7503324D01*
X11997891Y7570000D01*
X11999397Y7570000D01*
X12076676Y7585372D01*
X12149471Y7615525D01*
X12214985Y7659300D01*
X12270700Y7715015D01*
X12314475Y7780529D01*
X12344628Y7853324D01*
X12360000Y7930603D01*
X12360000Y7932109D01*
X12426676Y7945372D01*
X12499471Y7975525D01*
X12564985Y8019300D01*
X12620700Y8075015D01*
X12664475Y8140529D01*
X12694628Y8213324D01*
X12710000Y8290603D01*
X12710000Y8369397D01*
X12694628Y8446676D01*
X12664475Y8519471D01*
X12620700Y8584985D01*
X12564985Y8640700D01*
X12499471Y8684475D01*
X12426676Y8714628D01*
X12349397Y8730000D01*
X12270603Y8730000D01*
X12193324Y8714628D01*
X12120529Y8684475D01*
X12055015Y8640700D01*
X11999300Y8584985D01*
X11955525Y8519471D01*
X11925372Y8446676D01*
X11910000Y8369397D01*
X11910000Y8367891D01*
X11843324Y8354628D01*
X11770529Y8324475D01*
X11705015Y8280700D01*
X11649300Y8224985D01*
X11605525Y8159471D01*
X11575372Y8086676D01*
X11562109Y8020000D01*
X11560603Y8020000D01*
X11483324Y8004628D01*
X11410529Y7974475D01*
X11345015Y7930700D01*
X11289300Y7874985D01*
X11245525Y7809471D01*
X11215372Y7736676D01*
X11200000Y7659397D01*
X11200000Y7657891D01*
X11133324Y7644628D01*
X11060529Y7614475D01*
X10995015Y7570700D01*
X10939300Y7514985D01*
X10895525Y7449471D01*
X10865372Y7376676D01*
X10852109Y7310000D01*
X10850603Y7310000D01*
X10773324Y7294628D01*
X10700529Y7264475D01*
X10635015Y7220700D01*
X10579300Y7164985D01*
X10535525Y7099471D01*
X10505372Y7026676D01*
X10493574Y6967362D01*
X10461586Y6964212D01*
X10386186Y6941340D01*
X10316697Y6904197D01*
X10255789Y6854211D01*
X10205803Y6793303D01*
X10168660Y6723814D01*
X10145788Y6648414D01*
X10138065Y6570000D01*
X7640000Y6570000D01*
X7640000Y6599397D01*
X7624628Y6676676D01*
X7594475Y6749471D01*
X7550700Y6814985D01*
X7494985Y6870700D01*
X7429471Y6914475D01*
X7356676Y6944628D01*
X7279397Y6960000D01*
X7200603Y6960000D01*
X7123324Y6944628D01*
X7050529Y6914475D01*
X6985015Y6870700D01*
X6929300Y6814985D01*
X6885525Y6749471D01*
X6855372Y6676676D01*
X6840000Y6599397D01*
X4823001Y6599397D01*
X4824628Y6603324D01*
X4840000Y6680603D01*
X4840000Y6759397D01*
X4824628Y6836676D01*
X4794475Y6909471D01*
X4750700Y6974985D01*
X4694985Y7030700D01*
X4629471Y7074475D01*
X4556676Y7104628D01*
X4479397Y7120000D01*
X4400603Y7120000D01*
X4323324Y7104628D01*
X4250529Y7074475D01*
X4185015Y7030700D01*
X4129300Y6974985D01*
X4085525Y6909471D01*
X4055372Y6836676D01*
X4042109Y6770000D01*
X4040603Y6770000D01*
X3963324Y6754628D01*
X3890529Y6724475D01*
X3825015Y6680700D01*
X3769300Y6624985D01*
X3725525Y6559471D01*
X3695372Y6486676D01*
X3680000Y6409397D01*
X2270000Y6409397D01*
X2270000Y6448491D01*
X2231571Y6641689D01*
X2156189Y6823678D01*
X2046751Y6987463D01*
X1907463Y7126751D01*
X1743678Y7236189D01*
X1561689Y7311571D01*
X1368491Y7350000D01*
X1171509Y7350000D01*
X978311Y7311571D01*
X796322Y7236189D01*
X632537Y7126751D01*
X493249Y6987463D01*
X450000Y6922737D01*
X450000Y8317263D01*
X493249Y8252537D01*
X632537Y8113249D01*
X796322Y8003811D01*
X978311Y7928429D01*
X1171509Y7890000D01*
X1368491Y7890000D01*
X1561689Y7928429D01*
X1612310Y7949397D01*
X2950000Y7949397D01*
X2950000Y7870603D01*
X2965372Y7793324D01*
X2995525Y7720529D01*
X3035969Y7660000D01*
X2995525Y7599471D01*
X2965372Y7526676D01*
X2950000Y7449397D01*
X2950000Y7370603D01*
X2965372Y7293324D01*
X2995525Y7220529D01*
X3039300Y7155015D01*
X3095015Y7099300D01*
X3160529Y7055525D01*
X3233324Y7025372D01*
X3310603Y7010000D01*
X3389397Y7010000D01*
X3466676Y7025372D01*
X3539471Y7055525D01*
X3604985Y7099300D01*
X3660700Y7155015D01*
X3704475Y7220529D01*
X3734628Y7293324D01*
X3750000Y7370603D01*
X3750000Y7449397D01*
X3744033Y7479397D01*
X4730000Y7479397D01*
X4730000Y7400603D01*
X4745372Y7323324D01*
X4775525Y7250529D01*
X4819300Y7185015D01*
X4875015Y7129300D01*
X4940529Y7085525D01*
X5013324Y7055372D01*
X5090603Y7040000D01*
X5169397Y7040000D01*
X5246676Y7055372D01*
X5319471Y7085525D01*
X5384985Y7129300D01*
X5440700Y7185015D01*
X5484475Y7250529D01*
X5514628Y7323324D01*
X5530000Y7400603D01*
X5530000Y7479397D01*
X5514628Y7556676D01*
X5484475Y7629471D01*
X5440700Y7694985D01*
X5384985Y7750700D01*
X5319471Y7794475D01*
X5246676Y7824628D01*
X5169397Y7840000D01*
X5090603Y7840000D01*
X5013324Y7824628D01*
X4940529Y7794475D01*
X4875015Y7750700D01*
X4819300Y7694985D01*
X4775525Y7629471D01*
X4745372Y7556676D01*
X4730000Y7479397D01*
X3744033Y7479397D01*
X3734628Y7526676D01*
X3704475Y7599471D01*
X3664031Y7660000D01*
X3704475Y7720529D01*
X3734628Y7793324D01*
X3750000Y7870603D01*
X3750000Y7949397D01*
X3734628Y8026676D01*
X3704475Y8099471D01*
X3660700Y8164985D01*
X3604985Y8220700D01*
X3539471Y8264475D01*
X3466676Y8294628D01*
X3389397Y8310000D01*
X3310603Y8310000D01*
X3233324Y8294628D01*
X3160529Y8264475D01*
X3095015Y8220700D01*
X3039300Y8164985D01*
X2995525Y8099471D01*
X2965372Y8026676D01*
X2950000Y7949397D01*
X1612310Y7949397D01*
X1743678Y8003811D01*
X1907463Y8113249D01*
X2046751Y8252537D01*
X2156189Y8416322D01*
X2231571Y8598311D01*
X2270000Y8791509D01*
X2270000Y8988491D01*
X2231571Y9181689D01*
X2156189Y9363678D01*
X2046751Y9527463D01*
X1907463Y9666751D01*
X1743678Y9776189D01*
X1711791Y9789397D01*
X3650000Y9789397D01*
X3650000Y9710603D01*
X3665372Y9633324D01*
X3695525Y9560529D01*
X3739300Y9495015D01*
X3795015Y9439300D01*
X3860529Y9395525D01*
X3933324Y9365372D01*
X4000000Y9352109D01*
X4000000Y9350603D01*
X4015372Y9273324D01*
X4045525Y9200529D01*
X4089300Y9135015D01*
X4145015Y9079300D01*
X4210529Y9035525D01*
X4283324Y9005372D01*
X4350000Y8992109D01*
X4350000Y8990603D01*
X4365372Y8913324D01*
X4395525Y8840529D01*
X4439300Y8775015D01*
X4495015Y8719300D01*
X4560529Y8675525D01*
X4633324Y8645372D01*
X4710603Y8630000D01*
X4712109Y8630000D01*
X4725372Y8563324D01*
X4755525Y8490529D01*
X4799300Y8425015D01*
X4855015Y8369300D01*
X4920529Y8325525D01*
X4993324Y8295372D01*
X5070603Y8280000D01*
X5072109Y8280000D01*
X5085372Y8213324D01*
X5115525Y8140529D01*
X5159300Y8075015D01*
X5215015Y8019300D01*
X5280529Y7975525D01*
X5353324Y7945372D01*
X5420000Y7932109D01*
X5420000Y7930603D01*
X5435372Y7853324D01*
X5465525Y7780529D01*
X5509300Y7715015D01*
X5565015Y7659300D01*
X5593444Y7640305D01*
X5575372Y7596676D01*
X5560000Y7519397D01*
X5560000Y7440603D01*
X5575372Y7363324D01*
X5605525Y7290529D01*
X5649300Y7225015D01*
X5705015Y7169300D01*
X5770529Y7125525D01*
X5843324Y7095372D01*
X5920603Y7080000D01*
X5999397Y7080000D01*
X6064520Y7092954D01*
X6065525Y7090529D01*
X6109300Y7025015D01*
X6165015Y6969300D01*
X6230529Y6925525D01*
X6303324Y6895372D01*
X6380603Y6880000D01*
X6459397Y6880000D01*
X6536676Y6895372D01*
X6609471Y6925525D01*
X6674985Y6969300D01*
X6730700Y7025015D01*
X6774475Y7090529D01*
X6804628Y7163324D01*
X6820000Y7240603D01*
X6820000Y7319397D01*
X6804628Y7396676D01*
X6774475Y7469471D01*
X6730700Y7534985D01*
X6674985Y7590700D01*
X6609471Y7634475D01*
X6536676Y7664628D01*
X6459397Y7680000D01*
X6380603Y7680000D01*
X6315480Y7667046D01*
X6314475Y7669471D01*
X6270700Y7734985D01*
X6214985Y7790700D01*
X6186556Y7809695D01*
X6204628Y7853324D01*
X6220000Y7930603D01*
X6220000Y8009397D01*
X6204628Y8086676D01*
X6174475Y8159471D01*
X6130700Y8224985D01*
X6074985Y8280700D01*
X6009471Y8324475D01*
X5936676Y8354628D01*
X5870000Y8367891D01*
X5870000Y8369397D01*
X5854628Y8446676D01*
X5824475Y8519471D01*
X5780700Y8584985D01*
X5724985Y8640700D01*
X5659471Y8684475D01*
X5586676Y8714628D01*
X5509397Y8730000D01*
X5507891Y8730000D01*
X5494628Y8796676D01*
X5464475Y8869471D01*
X5420700Y8934985D01*
X5364985Y8990700D01*
X5299471Y9034475D01*
X5226676Y9064628D01*
X5202702Y9069397D01*
X12620000Y9069397D01*
X12620000Y8990603D01*
X12635372Y8913324D01*
X12665525Y8840529D01*
X12709300Y8775015D01*
X12765015Y8719300D01*
X12830529Y8675525D01*
X12903324Y8645372D01*
X12980603Y8630000D01*
X13059397Y8630000D01*
X13136676Y8645372D01*
X13209471Y8675525D01*
X13274985Y8719300D01*
X13330700Y8775015D01*
X13374475Y8840529D01*
X13398412Y8898316D01*
X13405372Y8863324D01*
X13435525Y8790529D01*
X13479300Y8725015D01*
X13535015Y8669300D01*
X13600529Y8625525D01*
X13673324Y8595372D01*
X13750603Y8580000D01*
X13829397Y8580000D01*
X13906676Y8595372D01*
X13979471Y8625525D01*
X14044985Y8669300D01*
X14100700Y8725015D01*
X14144475Y8790529D01*
X14174628Y8863324D01*
X14190000Y8940603D01*
X14190000Y9019397D01*
X14174628Y9096676D01*
X14144475Y9169471D01*
X14100700Y9234985D01*
X14044985Y9290700D01*
X13979471Y9334475D01*
X13906676Y9364628D01*
X13881238Y9369688D01*
X13919471Y9385525D01*
X13984985Y9429300D01*
X14040700Y9485015D01*
X14084475Y9550529D01*
X14114628Y9623324D01*
X14130000Y9700603D01*
X14130000Y9779397D01*
X14114628Y9856676D01*
X14084475Y9929471D01*
X14040700Y9994985D01*
X13984985Y10050700D01*
X13926134Y10090023D01*
X13954985Y10109300D01*
X14010700Y10165015D01*
X14054475Y10230529D01*
X14084628Y10303324D01*
X14100000Y10380603D01*
X14100000Y10459397D01*
X14084628Y10536676D01*
X14054475Y10609471D01*
X14010700Y10674985D01*
X13954985Y10730700D01*
X13889471Y10774475D01*
X13816676Y10804628D01*
X13739397Y10820000D01*
X13660603Y10820000D01*
X13583324Y10804628D01*
X13510529Y10774475D01*
X13445015Y10730700D01*
X13389300Y10674985D01*
X13345525Y10609471D01*
X13315372Y10536676D01*
X13300000Y10459397D01*
X13300000Y10380603D01*
X13315372Y10303324D01*
X13345525Y10230529D01*
X13389300Y10165015D01*
X13445015Y10109300D01*
X13503866Y10069977D01*
X13475015Y10050700D01*
X13419300Y9994985D01*
X13375525Y9929471D01*
X13345372Y9856676D01*
X13330000Y9779397D01*
X13330000Y9700603D01*
X13345372Y9623324D01*
X13375525Y9550529D01*
X13419300Y9485015D01*
X13475015Y9429300D01*
X13540529Y9385525D01*
X13613324Y9355372D01*
X13638762Y9350312D01*
X13600529Y9334475D01*
X13535015Y9290700D01*
X13479300Y9234985D01*
X13435525Y9169471D01*
X13411588Y9111684D01*
X13404628Y9146676D01*
X13374475Y9219471D01*
X13330700Y9284985D01*
X13274985Y9340700D01*
X13209471Y9384475D01*
X13136676Y9414628D01*
X13059397Y9430000D01*
X12980603Y9430000D01*
X12903324Y9414628D01*
X12830529Y9384475D01*
X12765015Y9340700D01*
X12709300Y9284985D01*
X12665525Y9219471D01*
X12635372Y9146676D01*
X12620000Y9069397D01*
X5202702Y9069397D01*
X5149397Y9080000D01*
X5147891Y9080000D01*
X5134628Y9146676D01*
X5104475Y9219471D01*
X5060700Y9284985D01*
X5004985Y9340700D01*
X4939471Y9384475D01*
X4866676Y9414628D01*
X4800000Y9427891D01*
X4800000Y9429397D01*
X4784628Y9506676D01*
X4754475Y9579471D01*
X4710700Y9644985D01*
X4654985Y9700700D01*
X4589471Y9744475D01*
X4516676Y9774628D01*
X4450000Y9787891D01*
X4450000Y9789397D01*
X4434628Y9866676D01*
X4404475Y9939471D01*
X4360700Y10004985D01*
X4304985Y10060700D01*
X4239471Y10104475D01*
X4166676Y10134628D01*
X4089397Y10150000D01*
X4010603Y10150000D01*
X3933324Y10134628D01*
X3860529Y10104475D01*
X3795015Y10060700D01*
X3739300Y10004985D01*
X3695525Y9939471D01*
X3665372Y9866676D01*
X3650000Y9789397D01*
X1711791Y9789397D01*
X1561689Y9851571D01*
X1368491Y9890000D01*
X1171509Y9890000D01*
X978311Y9851571D01*
X796322Y9776189D01*
X632537Y9666751D01*
X493249Y9527463D01*
X450000Y9462737D01*
X450000Y10857263D01*
X493249Y10792537D01*
X632537Y10653249D01*
X796322Y10543811D01*
X978311Y10468429D01*
X1171509Y10430000D01*
X1368491Y10430000D01*
X1561689Y10468429D01*
X1743678Y10543811D01*
X1907463Y10653249D01*
X2046751Y10792537D01*
X2156189Y10956322D01*
X2231571Y11138311D01*
X2270000Y11331509D01*
X2270000Y11528491D01*
X2231571Y11721689D01*
X2156189Y11903678D01*
X2152368Y11909397D01*
X13300000Y11909397D01*
X13300000Y11830603D01*
X13315372Y11753324D01*
X13345525Y11680529D01*
X13389300Y11615015D01*
X13445015Y11559300D01*
X13510529Y11515525D01*
X13583324Y11485372D01*
X13660603Y11470000D01*
X13739397Y11470000D01*
X13816676Y11485372D01*
X13889471Y11515525D01*
X13954985Y11559300D01*
X14010700Y11615015D01*
X14054475Y11680529D01*
X14084628Y11753324D01*
X14100000Y11830603D01*
X14100000Y11909397D01*
X14084628Y11986676D01*
X14054475Y12059471D01*
X14010700Y12124985D01*
X13954985Y12180700D01*
X13889471Y12224475D01*
X13816676Y12254628D01*
X13739397Y12270000D01*
X13660603Y12270000D01*
X13583324Y12254628D01*
X13510529Y12224475D01*
X13445015Y12180700D01*
X13389300Y12124985D01*
X13345525Y12059471D01*
X13315372Y11986676D01*
X13300000Y11909397D01*
X2152368Y11909397D01*
X2046751Y12067463D01*
X1907463Y12206751D01*
X1743678Y12316189D01*
X1566938Y12389397D01*
X4360000Y12389397D01*
X4360000Y12310603D01*
X4375372Y12233324D01*
X4405525Y12160529D01*
X4449300Y12095015D01*
X4505015Y12039300D01*
X4570529Y11995525D01*
X4643324Y11965372D01*
X4720603Y11950000D01*
X4799397Y11950000D01*
X4876676Y11965372D01*
X4949471Y11995525D01*
X5014985Y12039300D01*
X5070700Y12095015D01*
X5114475Y12160529D01*
X5144628Y12233324D01*
X5160000Y12310603D01*
X5160000Y12389397D01*
X5144628Y12466676D01*
X5114475Y12539471D01*
X5070700Y12604985D01*
X5014985Y12660700D01*
X4949471Y12704475D01*
X4876676Y12734628D01*
X4799397Y12750000D01*
X4720603Y12750000D01*
X4643324Y12734628D01*
X4570529Y12704475D01*
X4505015Y12660700D01*
X4449300Y12604985D01*
X4405525Y12539471D01*
X4375372Y12466676D01*
X4360000Y12389397D01*
X1566938Y12389397D01*
X1561689Y12391571D01*
X1368491Y12430000D01*
X1171509Y12430000D01*
X978311Y12391571D01*
X796322Y12316189D01*
X632537Y12206751D01*
X493249Y12067463D01*
X450000Y12002737D01*
X450000Y13397263D01*
X493249Y13332537D01*
X632537Y13193249D01*
X796322Y13083811D01*
X978311Y13008429D01*
X1171509Y12970000D01*
X1368491Y12970000D01*
X1480520Y12992284D01*
X1470000Y12939397D01*
X1470000Y12860603D01*
X1485372Y12783324D01*
X1515525Y12710529D01*
X1559300Y12645015D01*
X1615015Y12589300D01*
X1680529Y12545525D01*
X1753324Y12515372D01*
X1830603Y12500000D01*
X1909397Y12500000D01*
X1986676Y12515372D01*
X2059471Y12545525D01*
X2124985Y12589300D01*
X2180700Y12645015D01*
X2224475Y12710529D01*
X2254628Y12783324D01*
X2270000Y12860603D01*
X2270000Y12939397D01*
X2254628Y13016676D01*
X2224506Y13089397D01*
X5070000Y13089397D01*
X5070000Y13010603D01*
X5085372Y12933324D01*
X5115525Y12860529D01*
X5159300Y12795015D01*
X5215015Y12739300D01*
X5280529Y12695525D01*
X5353324Y12665372D01*
X5430603Y12650000D01*
X5509397Y12650000D01*
X5586676Y12665372D01*
X5659471Y12695525D01*
X5724985Y12739300D01*
X5780700Y12795015D01*
X5824475Y12860529D01*
X5854628Y12933324D01*
X5870000Y13010603D01*
X5870000Y13089397D01*
X5854628Y13166676D01*
X5833479Y13217734D01*
X5863324Y13205372D01*
X5940603Y13190000D01*
X6019397Y13190000D01*
X6096676Y13205372D01*
X6169471Y13235525D01*
X6234985Y13279300D01*
X6290700Y13335015D01*
X6334475Y13400529D01*
X6364628Y13473324D01*
X6380000Y13550603D01*
X6380000Y13629397D01*
X6364628Y13706676D01*
X6334475Y13779471D01*
X6290700Y13844985D01*
X6234985Y13900700D01*
X6169471Y13944475D01*
X6096676Y13974628D01*
X6019397Y13990000D01*
X5940603Y13990000D01*
X5863324Y13974628D01*
X5790529Y13944475D01*
X5725015Y13900700D01*
X5669300Y13844985D01*
X5625525Y13779471D01*
X5595372Y13706676D01*
X5580000Y13629397D01*
X5580000Y13550603D01*
X5595372Y13473324D01*
X5616521Y13422266D01*
X5586676Y13434628D01*
X5509397Y13450000D01*
X5430603Y13450000D01*
X5353324Y13434628D01*
X5280529Y13404475D01*
X5215015Y13360700D01*
X5159300Y13304985D01*
X5115525Y13239471D01*
X5085372Y13166676D01*
X5070000Y13089397D01*
X2224506Y13089397D01*
X2224475Y13089471D01*
X2180700Y13154985D01*
X2124985Y13210700D01*
X2059471Y13254475D01*
X1995279Y13281065D01*
X2046751Y13332537D01*
X2156189Y13496322D01*
X2231571Y13678311D01*
X2270000Y13871509D01*
X2270000Y14068491D01*
X2231571Y14261689D01*
X2199384Y14339397D01*
X6290000Y14339397D01*
X6290000Y14260603D01*
X6305372Y14183324D01*
X6335525Y14110529D01*
X6379300Y14045015D01*
X6435015Y13989300D01*
X6500529Y13945525D01*
X6573324Y13915372D01*
X6650603Y13900000D01*
X6729397Y13900000D01*
X6806676Y13915372D01*
X6879471Y13945525D01*
X6944985Y13989300D01*
X7000700Y14045015D01*
X7044475Y14110529D01*
X7074628Y14183324D01*
X7090000Y14260603D01*
X7090000Y14339397D01*
X7074628Y14416676D01*
X7044475Y14489471D01*
X7000700Y14554985D01*
X6944985Y14610700D01*
X6879471Y14654475D01*
X6806676Y14684628D01*
X6729397Y14700000D01*
X6650603Y14700000D01*
X6573324Y14684628D01*
X6500529Y14654475D01*
X6435015Y14610700D01*
X6379300Y14554985D01*
X6335525Y14489471D01*
X6305372Y14416676D01*
X6290000Y14339397D01*
X2199384Y14339397D01*
X2156189Y14443678D01*
X2046751Y14607463D01*
X1907463Y14746751D01*
X1743678Y14856189D01*
X1663507Y14889397D01*
X3420000Y14889397D01*
X3420000Y14810603D01*
X3435372Y14733324D01*
X3465525Y14660529D01*
X3509300Y14595015D01*
X3565015Y14539300D01*
X3630529Y14495525D01*
X3703324Y14465372D01*
X3780603Y14450000D01*
X3859397Y14450000D01*
X3936676Y14465372D01*
X4009471Y14495525D01*
X4074985Y14539300D01*
X4130700Y14595015D01*
X4174475Y14660529D01*
X4204628Y14733324D01*
X4220000Y14810603D01*
X4220000Y14889397D01*
X4204628Y14966676D01*
X4174475Y15039471D01*
X4130700Y15104985D01*
X4074985Y15160700D01*
X4009471Y15204475D01*
X3936676Y15234628D01*
X3859397Y15250000D01*
X3780603Y15250000D01*
X3703324Y15234628D01*
X3630529Y15204475D01*
X3565015Y15160700D01*
X3509300Y15104985D01*
X3465525Y15039471D01*
X3435372Y14966676D01*
X3420000Y14889397D01*
X1663507Y14889397D01*
X1561689Y14931571D01*
X1368491Y14970000D01*
X1171509Y14970000D01*
X978311Y14931571D01*
X796322Y14856189D01*
X632537Y14746751D01*
X493249Y14607463D01*
X450000Y14542737D01*
X450000Y15937263D01*
X493249Y15872537D01*
X632537Y15733249D01*
X796322Y15623811D01*
X978311Y15548429D01*
X1171509Y15510000D01*
X1368491Y15510000D01*
X1561689Y15548429D01*
X1743678Y15623811D01*
X1907463Y15733249D01*
X2046751Y15872537D01*
X2156189Y16036322D01*
X2231571Y16218311D01*
X2270000Y16411509D01*
X2270000Y16608491D01*
X2231571Y16801689D01*
X2156189Y16983678D01*
X2046751Y17147463D01*
X2030634Y17163580D01*
X2059471Y17175525D01*
X2124985Y17219300D01*
X2180700Y17275015D01*
X2224475Y17340529D01*
X2254628Y17413324D01*
X2270000Y17490603D01*
X2270000Y17569397D01*
X2254628Y17646676D01*
X2224506Y17719397D01*
X3860000Y17719397D01*
X3860000Y17640603D01*
X3875372Y17563324D01*
X3905525Y17490529D01*
X3949300Y17425015D01*
X4005015Y17369300D01*
X4070529Y17325525D01*
X4143324Y17295372D01*
X4220603Y17280000D01*
X4299397Y17280000D01*
X4376676Y17295372D01*
X4449471Y17325525D01*
X4514985Y17369300D01*
X4570700Y17425015D01*
X4614475Y17490529D01*
X4644628Y17563324D01*
X4660000Y17640603D01*
X4660000Y17719397D01*
X4644628Y17796676D01*
X4614475Y17869471D01*
X4570700Y17934985D01*
X4514985Y17990700D01*
X4449471Y18034475D01*
X4376676Y18064628D01*
X4299397Y18080000D01*
X4220603Y18080000D01*
X4143324Y18064628D01*
X4070529Y18034475D01*
X4005015Y17990700D01*
X3949300Y17934985D01*
X3905525Y17869471D01*
X3875372Y17796676D01*
X3860000Y17719397D01*
X2224506Y17719397D01*
X2224475Y17719471D01*
X2184031Y17780000D01*
X2224475Y17840529D01*
X2254628Y17913324D01*
X2270000Y17990603D01*
X2270000Y18069397D01*
X2254628Y18146676D01*
X2224475Y18219471D01*
X2180700Y18284985D01*
X2124985Y18340700D01*
X2059471Y18384475D01*
X2030634Y18396420D01*
X2046751Y18412537D01*
X2156189Y18576322D01*
X2231571Y18758311D01*
X2270000Y18951509D01*
X2270000Y19148491D01*
X2231571Y19341689D01*
X2156189Y19523678D01*
X2046751Y19687463D01*
X1907463Y19826751D01*
X1743678Y19936189D01*
X1561689Y20011571D01*
X1368491Y20050000D01*
X1171509Y20050000D01*
X978311Y20011571D01*
X796322Y19936189D01*
X632537Y19826751D01*
X493249Y19687463D01*
X450000Y19622737D01*
X450000Y21017263D01*
X493249Y20952537D01*
X632537Y20813249D01*
X796322Y20703811D01*
X978311Y20628429D01*
X1171509Y20590000D01*
X1368491Y20590000D01*
X1561689Y20628429D01*
X1743678Y20703811D01*
X1907463Y20813249D01*
X2046751Y20952537D01*
X2156189Y21116322D01*
X2231571Y21298311D01*
X2270000Y21491509D01*
X2270000Y21688491D01*
X2231571Y21881689D01*
X2156189Y22063678D01*
X2046751Y22227463D01*
X1907463Y22366751D01*
X1743678Y22476189D01*
X1561689Y22551571D01*
X1368491Y22590000D01*
X1171509Y22590000D01*
X978311Y22551571D01*
X796322Y22476189D01*
X632537Y22366751D01*
X493249Y22227463D01*
X450000Y22162737D01*
X450000Y23557263D01*
X493249Y23492537D01*
X632537Y23353249D01*
X796322Y23243811D01*
X978311Y23168429D01*
X1171509Y23130000D01*
X1368491Y23130000D01*
X1561689Y23168429D01*
X1743678Y23243811D01*
X1907463Y23353249D01*
X2046751Y23492537D01*
X2156189Y23656322D01*
X2231571Y23838311D01*
X2270000Y24031509D01*
X2270000Y24228491D01*
X2231571Y24421689D01*
X2228379Y24429397D01*
X3140000Y24429397D01*
X3140000Y24350603D01*
X3155372Y24273324D01*
X3185525Y24200529D01*
X3229300Y24135015D01*
X3285015Y24079300D01*
X3350529Y24035525D01*
X3423324Y24005372D01*
X3500603Y23990000D01*
X3579397Y23990000D01*
X3656676Y24005372D01*
X3729471Y24035525D01*
X3794985Y24079300D01*
X3850700Y24135015D01*
X3894475Y24200529D01*
X3924628Y24273324D01*
X3940000Y24350603D01*
X3940000Y24429397D01*
X3924628Y24506676D01*
X3894475Y24579471D01*
X3850700Y24644985D01*
X3794985Y24700700D01*
X3729471Y24744475D01*
X3656676Y24774628D01*
X3579397Y24790000D01*
X3500603Y24790000D01*
X3423324Y24774628D01*
X3350529Y24744475D01*
X3285015Y24700700D01*
X3229300Y24644985D01*
X3185525Y24579471D01*
X3155372Y24506676D01*
X3140000Y24429397D01*
X2228379Y24429397D01*
X2156189Y24603678D01*
X2046751Y24767463D01*
X1907463Y24906751D01*
X1743678Y25016189D01*
X1561689Y25091571D01*
X1368491Y25130000D01*
X1171509Y25130000D01*
X978311Y25091571D01*
X796322Y25016189D01*
X632537Y24906751D01*
X493249Y24767463D01*
X450000Y24702737D01*
X450000Y26097263D01*
X493249Y26032537D01*
X632537Y25893249D01*
X796322Y25783811D01*
X978311Y25708429D01*
X1171509Y25670000D01*
X1368491Y25670000D01*
X1561689Y25708429D01*
X1743678Y25783811D01*
X1907463Y25893249D01*
X2046751Y26032537D01*
X2156189Y26196322D01*
X2231571Y26378311D01*
X2270000Y26571509D01*
X2270000Y26768491D01*
X2231571Y26961689D01*
X2156189Y27143678D01*
X2046751Y27307463D01*
X1907463Y27446751D01*
X1743678Y27556189D01*
X1561689Y27631571D01*
X1368491Y27670000D01*
X1171509Y27670000D01*
X978311Y27631571D01*
X796322Y27556189D01*
X632537Y27446751D01*
X493249Y27307463D01*
X450000Y27242737D01*
X450000Y28637263D01*
X493249Y28572537D01*
X632537Y28433249D01*
X796322Y28323811D01*
X978311Y28248429D01*
X1171509Y28210000D01*
X1368491Y28210000D01*
X1561689Y28248429D01*
X1743678Y28323811D01*
X1907463Y28433249D01*
X2046751Y28572537D01*
X2156189Y28736322D01*
X2231571Y28918311D01*
X2270000Y29111509D01*
X2270000Y29308491D01*
X2231571Y29501689D01*
X2156189Y29683678D01*
X2046751Y29847463D01*
X1907463Y29986751D01*
X1743678Y30096189D01*
X1561689Y30171571D01*
X1368491Y30210000D01*
X1171509Y30210000D01*
X978311Y30171571D01*
X796322Y30096189D01*
X632537Y29986751D01*
X493249Y29847463D01*
X450000Y29782737D01*
X450000Y31177263D01*
X493249Y31112537D01*
X632537Y30973249D01*
X796322Y30863811D01*
X978311Y30788429D01*
X1171509Y30750000D01*
X1368491Y30750000D01*
X1561689Y30788429D01*
X1743678Y30863811D01*
X1907463Y30973249D01*
X2046751Y31112537D01*
X2156189Y31276322D01*
X2207168Y31399397D01*
X2910000Y31399397D01*
X2910000Y31320603D01*
X2925372Y31243324D01*
X2955525Y31170529D01*
X2999300Y31105015D01*
X3055015Y31049300D01*
X3120529Y31005525D01*
X3193324Y30975372D01*
X3270603Y30960000D01*
X3349397Y30960000D01*
X3426676Y30975372D01*
X3499471Y31005525D01*
X3560000Y31045969D01*
X3620529Y31005525D01*
X3693324Y30975372D01*
X3770603Y30960000D01*
X3849397Y30960000D01*
X3926676Y30975372D01*
X3999471Y31005525D01*
X4064985Y31049300D01*
X4120700Y31105015D01*
X4135000Y31126416D01*
X4149300Y31105015D01*
X4205015Y31049300D01*
X4270529Y31005525D01*
X4343324Y30975372D01*
X4420603Y30960000D01*
X4499397Y30960000D01*
X4576676Y30975372D01*
X4649471Y31005525D01*
X4714985Y31049300D01*
X4716986Y31051301D01*
X4770529Y31015525D01*
X4843324Y30985372D01*
X4920603Y30970000D01*
X4935737Y30970000D01*
X6250000Y29655736D01*
X6250001Y28615100D01*
X6248550Y28600367D01*
X6254342Y28541557D01*
X6271497Y28485007D01*
X6299353Y28432890D01*
X6318139Y28410000D01*
X6336843Y28387209D01*
X6348285Y28377819D01*
X7515448Y27210655D01*
X7500529Y27204475D01*
X7435015Y27160700D01*
X7379300Y27104985D01*
X7335525Y27039471D01*
X7305372Y26966676D01*
X7290000Y26889397D01*
X7290000Y26810603D01*
X7305372Y26733324D01*
X7335525Y26660529D01*
X7379300Y26595015D01*
X7435015Y26539300D01*
X7500529Y26495525D01*
X7519297Y26487751D01*
X7453324Y26474628D01*
X7380529Y26444475D01*
X7315015Y26400700D01*
X7259300Y26344985D01*
X7215525Y26279471D01*
X7185372Y26206676D01*
X7170000Y26129397D01*
X7170000Y26050603D01*
X7185372Y25973324D01*
X7215525Y25900529D01*
X7259300Y25835015D01*
X7315015Y25779300D01*
X7380529Y25735525D01*
X7436909Y25712171D01*
X7250758Y25526020D01*
X7224475Y25589471D01*
X7180700Y25654985D01*
X7124985Y25710700D01*
X7059471Y25754475D01*
X6986676Y25784628D01*
X6909397Y25800000D01*
X6830603Y25800000D01*
X6753324Y25784628D01*
X6680529Y25754475D01*
X6644301Y25730268D01*
X6644475Y25730529D01*
X6674628Y25803324D01*
X6690000Y25880603D01*
X6690000Y25959397D01*
X6674628Y26036676D01*
X6644475Y26109471D01*
X6600700Y26174985D01*
X6544985Y26230700D01*
X6479471Y26274475D01*
X6406676Y26304628D01*
X6329397Y26320000D01*
X6250603Y26320000D01*
X6173324Y26304628D01*
X6100529Y26274475D01*
X6035015Y26230700D01*
X5979300Y26174985D01*
X5935525Y26109471D01*
X5905372Y26036676D01*
X5890000Y25959397D01*
X5890000Y25940000D01*
X5870603Y25940000D01*
X5793324Y25924628D01*
X5720529Y25894475D01*
X5655015Y25850700D01*
X5599300Y25794985D01*
X5555525Y25729471D01*
X5525372Y25656676D01*
X5510000Y25579397D01*
X5510000Y25500603D01*
X5525372Y25423324D01*
X5555525Y25350529D01*
X5599300Y25285015D01*
X5655015Y25229300D01*
X5720529Y25185525D01*
X5793324Y25155372D01*
X5870603Y25140000D01*
X5949397Y25140000D01*
X6026676Y25155372D01*
X6099471Y25185525D01*
X6164985Y25229300D01*
X6166268Y25230583D01*
X6165525Y25229471D01*
X6135372Y25156676D01*
X6120100Y25079900D01*
X6043324Y25064628D01*
X5970529Y25034475D01*
X5905015Y24990700D01*
X5849300Y24934985D01*
X5805525Y24869471D01*
X5775372Y24796676D01*
X5762109Y24730000D01*
X5760603Y24730000D01*
X5683324Y24714628D01*
X5610529Y24684475D01*
X5545015Y24640700D01*
X5489300Y24584985D01*
X5445525Y24519471D01*
X5415372Y24446676D01*
X5400000Y24369397D01*
X5400000Y24367891D01*
X5333324Y24354628D01*
X5260529Y24324475D01*
X5195015Y24280700D01*
X5139300Y24224985D01*
X5095525Y24159471D01*
X5065372Y24086676D01*
X5054098Y24030000D01*
X5040603Y24030000D01*
X4963324Y24014628D01*
X4890529Y23984475D01*
X4825015Y23940700D01*
X4769300Y23884985D01*
X4725525Y23819471D01*
X4695372Y23746676D01*
X4680000Y23669397D01*
X4680000Y23590603D01*
X4695372Y23513324D01*
X4725525Y23440529D01*
X4769300Y23375015D01*
X4825015Y23319300D01*
X4890529Y23275525D01*
X4963324Y23245372D01*
X4968985Y23244246D01*
X4308290Y22583551D01*
X4296842Y22574156D01*
X4278308Y22551571D01*
X4259353Y22528475D01*
X4252991Y22516572D01*
X4231496Y22476357D01*
X4214341Y22419807D01*
X4210000Y22375730D01*
X4210000Y22375721D01*
X4208550Y22360998D01*
X4210000Y22346275D01*
X4210000Y21905685D01*
X4194985Y21920700D01*
X4129471Y21964475D01*
X4056676Y21994628D01*
X3979397Y22010000D01*
X3900603Y22010000D01*
X3823324Y21994628D01*
X3750529Y21964475D01*
X3685015Y21920700D01*
X3629300Y21864985D01*
X3585525Y21799471D01*
X3555372Y21726676D01*
X3540000Y21649397D01*
X3540000Y21570603D01*
X3555372Y21493324D01*
X3585525Y21420529D01*
X3629300Y21355015D01*
X3685015Y21299300D01*
X3750529Y21255525D01*
X3823324Y21225372D01*
X3900603Y21210000D01*
X3979397Y21210000D01*
X4056676Y21225372D01*
X4129471Y21255525D01*
X4194985Y21299300D01*
X4210001Y21314316D01*
X4210001Y20978398D01*
X4146676Y21004628D01*
X4069397Y21020000D01*
X3990603Y21020000D01*
X3913324Y21004628D01*
X3840529Y20974475D01*
X3775015Y20930700D01*
X3719300Y20874985D01*
X3675525Y20809471D01*
X3645372Y20736676D01*
X3630000Y20659397D01*
X3630000Y20580603D01*
X3645372Y20503324D01*
X3675525Y20430529D01*
X3719300Y20365015D01*
X3775015Y20309300D01*
X3840529Y20265525D01*
X3913324Y20235372D01*
X3990603Y20220000D01*
X3992109Y20220000D01*
X4005372Y20153324D01*
X4035525Y20080529D01*
X4079300Y20015015D01*
X4135015Y19959300D01*
X4200529Y19915525D01*
X4273324Y19885372D01*
X4340000Y19872109D01*
X4340000Y19870603D01*
X4355372Y19793324D01*
X4385525Y19720529D01*
X4429300Y19655015D01*
X4485015Y19599300D01*
X4550529Y19555525D01*
X4623324Y19525372D01*
X4700100Y19510100D01*
X4715372Y19433324D01*
X4745525Y19360529D01*
X4789300Y19295015D01*
X4845015Y19239300D01*
X4910529Y19195525D01*
X4983324Y19165372D01*
X5060603Y19150000D01*
X5104042Y19150000D01*
X5103549Y19144999D01*
X5104999Y19130276D01*
X5105000Y17567732D01*
X5103549Y17552999D01*
X5109341Y17494189D01*
X5126496Y17437639D01*
X5154352Y17385522D01*
X5182450Y17351285D01*
X5191842Y17339841D01*
X5203284Y17330451D01*
X5965448Y16568286D01*
X5974840Y16556842D01*
X5986283Y16547451D01*
X6020520Y16519353D01*
X6072637Y16491496D01*
X6085799Y16487503D01*
X6129188Y16474341D01*
X6173265Y16470000D01*
X6173268Y16470000D01*
X6187998Y16468549D01*
X6202728Y16470000D01*
X6965737Y16470000D01*
X7730000Y15705736D01*
X7730000Y15680603D01*
X7745372Y15603324D01*
X7775525Y15530529D01*
X7819300Y15465015D01*
X7875015Y15409300D01*
X7940529Y15365525D01*
X8013324Y15335372D01*
X8090603Y15320000D01*
X8169397Y15320000D01*
X8246676Y15335372D01*
X8319471Y15365525D01*
X8384985Y15409300D01*
X8440700Y15465015D01*
X8482571Y15527679D01*
X8495372Y15463324D01*
X8525525Y15390529D01*
X8569300Y15325015D01*
X8625015Y15269300D01*
X8690529Y15225525D01*
X8763324Y15195372D01*
X8840603Y15180000D01*
X8919397Y15180000D01*
X8996676Y15195372D01*
X9069471Y15225525D01*
X9134985Y15269300D01*
X9190700Y15325015D01*
X9234475Y15390529D01*
X9264628Y15463324D01*
X9280000Y15540603D01*
X9280000Y15569397D01*
X9430000Y15569397D01*
X9430000Y15490603D01*
X9445372Y15413324D01*
X9475525Y15340529D01*
X9519300Y15275015D01*
X9575015Y15219300D01*
X9640529Y15175525D01*
X9713324Y15145372D01*
X9790603Y15130000D01*
X9792109Y15130000D01*
X9805372Y15063324D01*
X9835525Y14990529D01*
X9879300Y14925015D01*
X9935015Y14869300D01*
X10000529Y14825525D01*
X10073324Y14795372D01*
X10140000Y14782109D01*
X10140000Y14780603D01*
X10155372Y14703324D01*
X10185525Y14630529D01*
X10229300Y14565015D01*
X10285015Y14509300D01*
X10350529Y14465525D01*
X10423324Y14435372D01*
X10500603Y14420000D01*
X10502109Y14420000D01*
X10515372Y14353324D01*
X10545525Y14280529D01*
X10589300Y14215015D01*
X10645015Y14159300D01*
X10710529Y14115525D01*
X10783324Y14085372D01*
X10850000Y14072109D01*
X10850000Y14070603D01*
X10865372Y13993324D01*
X10895525Y13920529D01*
X10939300Y13855015D01*
X10995015Y13799300D01*
X11060529Y13755525D01*
X11133324Y13725372D01*
X11200000Y13712109D01*
X11200000Y13710603D01*
X11215372Y13633324D01*
X11245525Y13560529D01*
X11289300Y13495015D01*
X11345015Y13439300D01*
X11410529Y13395525D01*
X11483324Y13365372D01*
X11560603Y13350000D01*
X11574098Y13350000D01*
X11585372Y13293324D01*
X11615525Y13220529D01*
X11659300Y13155015D01*
X11715015Y13099300D01*
X11780529Y13055525D01*
X11853324Y13025372D01*
X11920000Y13012109D01*
X11920000Y13010603D01*
X11935372Y12933324D01*
X11965525Y12860529D01*
X12009300Y12795015D01*
X12065015Y12739300D01*
X12130529Y12695525D01*
X12203324Y12665372D01*
X12280603Y12650000D01*
X12282109Y12650000D01*
X12295372Y12583324D01*
X12325525Y12510529D01*
X12369300Y12445015D01*
X12425015Y12389300D01*
X12490529Y12345525D01*
X12563324Y12315372D01*
X12630000Y12302109D01*
X12630000Y12300603D01*
X12645372Y12223324D01*
X12675525Y12150529D01*
X12719300Y12085015D01*
X12775015Y12029300D01*
X12840529Y11985525D01*
X12913324Y11955372D01*
X12990603Y11940000D01*
X13069397Y11940000D01*
X13146676Y11955372D01*
X13219471Y11985525D01*
X13284985Y12029300D01*
X13340700Y12085015D01*
X13384475Y12150529D01*
X13414628Y12223324D01*
X13430000Y12300603D01*
X13430000Y12379397D01*
X13414628Y12456676D01*
X13384475Y12529471D01*
X13340700Y12594985D01*
X13284985Y12650700D01*
X13219471Y12694475D01*
X13146676Y12724628D01*
X13080000Y12737891D01*
X13080000Y12739397D01*
X15510000Y12739397D01*
X15510000Y12660603D01*
X15525372Y12583324D01*
X15555525Y12510529D01*
X15599300Y12445015D01*
X15655015Y12389300D01*
X15720529Y12345525D01*
X15793324Y12315372D01*
X15870603Y12300000D01*
X15949397Y12300000D01*
X16026676Y12315372D01*
X16099471Y12345525D01*
X16164985Y12389300D01*
X16220700Y12445015D01*
X16264475Y12510529D01*
X16294628Y12583324D01*
X16310000Y12660603D01*
X16310000Y12739397D01*
X16294628Y12816676D01*
X16264475Y12889471D01*
X16220700Y12954985D01*
X16164985Y13010700D01*
X16099471Y13054475D01*
X16026676Y13084628D01*
X15949397Y13100000D01*
X15870603Y13100000D01*
X15793324Y13084628D01*
X15720529Y13054475D01*
X15655015Y13010700D01*
X15599300Y12954985D01*
X15555525Y12889471D01*
X15525372Y12816676D01*
X15510000Y12739397D01*
X13080000Y12739397D01*
X13064628Y12816676D01*
X13034475Y12889471D01*
X12990700Y12954985D01*
X12934985Y13010700D01*
X12869471Y13054475D01*
X12796676Y13084628D01*
X12719397Y13100000D01*
X12717891Y13100000D01*
X12704628Y13166676D01*
X12674475Y13239471D01*
X12667843Y13249397D01*
X14450000Y13249397D01*
X14450000Y13170603D01*
X14465372Y13093324D01*
X14495525Y13020529D01*
X14539300Y12955015D01*
X14595015Y12899300D01*
X14660529Y12855525D01*
X14733324Y12825372D01*
X14810603Y12810000D01*
X14889397Y12810000D01*
X14966676Y12825372D01*
X15039471Y12855525D01*
X15104985Y12899300D01*
X15160700Y12955015D01*
X15204475Y13020529D01*
X15234628Y13093324D01*
X15250000Y13170603D01*
X15250000Y13249397D01*
X15234628Y13326676D01*
X15204475Y13399471D01*
X15160700Y13464985D01*
X15104985Y13520700D01*
X15039471Y13564475D01*
X14966676Y13594628D01*
X14889397Y13610000D01*
X14810603Y13610000D01*
X14733324Y13594628D01*
X14660529Y13564475D01*
X14595015Y13520700D01*
X14539300Y13464985D01*
X14495525Y13399471D01*
X14465372Y13326676D01*
X14450000Y13249397D01*
X12667843Y13249397D01*
X12630700Y13304985D01*
X12574985Y13360700D01*
X12509471Y13404475D01*
X12436676Y13434628D01*
X12370000Y13447891D01*
X12370000Y13449397D01*
X12354628Y13526676D01*
X12324475Y13599471D01*
X12280700Y13664985D01*
X12224985Y13720700D01*
X12159471Y13764475D01*
X12086676Y13794628D01*
X12009397Y13810000D01*
X11995902Y13810000D01*
X11984628Y13866676D01*
X11954475Y13939471D01*
X11910700Y14004985D01*
X11854985Y14060700D01*
X11792328Y14102566D01*
X11799471Y14105525D01*
X11864985Y14149300D01*
X11920700Y14205015D01*
X11964475Y14270529D01*
X11994628Y14343324D01*
X12010000Y14420603D01*
X12010000Y14499397D01*
X11994628Y14576676D01*
X11964475Y14649471D01*
X11920700Y14714985D01*
X11864985Y14770700D01*
X11799471Y14814475D01*
X11726676Y14844628D01*
X11649397Y14860000D01*
X11570603Y14860000D01*
X11493324Y14844628D01*
X11420529Y14814475D01*
X11355015Y14770700D01*
X11299300Y14714985D01*
X11257434Y14652328D01*
X11254475Y14659471D01*
X11210700Y14724985D01*
X11154985Y14780700D01*
X11089471Y14824475D01*
X11016676Y14854628D01*
X10939397Y14870000D01*
X10937891Y14870000D01*
X10924628Y14936676D01*
X10894475Y15009471D01*
X10850700Y15074985D01*
X10794985Y15130700D01*
X10729471Y15174475D01*
X10656676Y15204628D01*
X10590000Y15217891D01*
X10590000Y15219397D01*
X10574628Y15296676D01*
X10544475Y15369471D01*
X10500700Y15434985D01*
X10444985Y15490700D01*
X10379471Y15534475D01*
X10306676Y15564628D01*
X10229397Y15580000D01*
X10227891Y15580000D01*
X10214628Y15646676D01*
X10184475Y15719471D01*
X10140700Y15784985D01*
X10084985Y15840700D01*
X10019471Y15884475D01*
X9946676Y15914628D01*
X9869397Y15930000D01*
X9790603Y15930000D01*
X9713324Y15914628D01*
X9640529Y15884475D01*
X9575015Y15840700D01*
X9519300Y15784985D01*
X9475525Y15719471D01*
X9445372Y15646676D01*
X9430000Y15569397D01*
X9280000Y15569397D01*
X9280000Y15619397D01*
X9264628Y15696676D01*
X9234475Y15769471D01*
X9190700Y15834985D01*
X9134985Y15890700D01*
X9069471Y15934475D01*
X8996676Y15964628D01*
X8919397Y15980000D01*
X8844263Y15980000D01*
X9764264Y16900000D01*
X13295277Y16900000D01*
X13310000Y16898550D01*
X13324723Y16900000D01*
X13324733Y16900000D01*
X13368810Y16904341D01*
X13425360Y16921496D01*
X13477477Y16949353D01*
X13523158Y16986842D01*
X13532553Y16998290D01*
X14001716Y17467452D01*
X14013158Y17476842D01*
X14024391Y17490529D01*
X14050647Y17522522D01*
X14078504Y17574640D01*
X14084172Y17593324D01*
X14095659Y17631190D01*
X14100000Y17675267D01*
X14100000Y17675270D01*
X14101451Y17690000D01*
X14100000Y17704730D01*
X14100000Y17974315D01*
X14110700Y17985015D01*
X14154475Y18050529D01*
X14184628Y18123324D01*
X14200000Y18200603D01*
X14200000Y18279397D01*
X14184628Y18356676D01*
X14154475Y18429471D01*
X14110700Y18494985D01*
X14105685Y18500000D01*
X14110700Y18505015D01*
X14154475Y18570529D01*
X14184628Y18643324D01*
X14200000Y18720603D01*
X14200000Y18799397D01*
X14184628Y18876676D01*
X14154475Y18949471D01*
X14110700Y19014985D01*
X14054985Y19070700D01*
X13989471Y19114475D01*
X13916676Y19144628D01*
X13839397Y19160000D01*
X13760603Y19160000D01*
X13683324Y19144628D01*
X13610529Y19114475D01*
X13545015Y19070700D01*
X13489300Y19014985D01*
X13445525Y18949471D01*
X13415372Y18876676D01*
X13400000Y18799397D01*
X13400000Y18720603D01*
X13415372Y18643324D01*
X13445525Y18570529D01*
X13489300Y18505015D01*
X13494315Y18500000D01*
X13489300Y18494985D01*
X13445525Y18429471D01*
X13415372Y18356676D01*
X13400000Y18279397D01*
X13400000Y18200603D01*
X13415372Y18123324D01*
X13445525Y18050529D01*
X13489300Y17985015D01*
X13500001Y17974314D01*
X13500000Y17814264D01*
X13404423Y17718686D01*
X13414628Y17743324D01*
X13430000Y17820603D01*
X13430000Y17899397D01*
X13414628Y17976676D01*
X13384475Y18049471D01*
X13340700Y18114985D01*
X13284985Y18170700D01*
X13219471Y18214475D01*
X13146676Y18244628D01*
X13069397Y18260000D01*
X12990603Y18260000D01*
X12913324Y18244628D01*
X12840529Y18214475D01*
X12775015Y18170700D01*
X12719300Y18114985D01*
X12675525Y18049471D01*
X12645372Y17976676D01*
X12630000Y17899397D01*
X12630000Y17820603D01*
X12645372Y17743324D01*
X12675525Y17670529D01*
X12719300Y17605015D01*
X12775015Y17549300D01*
X12840529Y17505525D01*
X12853867Y17500000D01*
X9654722Y17500000D01*
X9639999Y17501450D01*
X9625276Y17500000D01*
X9625267Y17500000D01*
X9581190Y17495659D01*
X9524640Y17478504D01*
X9500379Y17465536D01*
X9472522Y17450647D01*
X9441290Y17425015D01*
X9426842Y17413158D01*
X9417451Y17401715D01*
X8150000Y16134263D01*
X7312553Y16971710D01*
X7303158Y16983158D01*
X7257477Y17020647D01*
X7205360Y17048504D01*
X7148810Y17065659D01*
X7104733Y17070000D01*
X7104723Y17070000D01*
X7090000Y17071450D01*
X7075277Y17070000D01*
X6312262Y17070000D01*
X6027537Y17354724D01*
X6029471Y17355525D01*
X6094985Y17399300D01*
X6150700Y17455015D01*
X6194475Y17520529D01*
X6224628Y17593324D01*
X6240000Y17670603D01*
X6240000Y17749397D01*
X6224628Y17826676D01*
X6201285Y17883030D01*
X6255015Y17829300D01*
X6320529Y17785525D01*
X6393324Y17755372D01*
X6470603Y17740000D01*
X6472109Y17740000D01*
X6485372Y17673324D01*
X6515525Y17600529D01*
X6559300Y17535015D01*
X6615015Y17479300D01*
X6680529Y17435525D01*
X6753324Y17405372D01*
X6830603Y17390000D01*
X6909397Y17390000D01*
X6986676Y17405372D01*
X7059471Y17435525D01*
X7124985Y17479300D01*
X7180700Y17535015D01*
X7224475Y17600529D01*
X7254628Y17673324D01*
X7270000Y17750603D01*
X7270000Y17829397D01*
X7254628Y17906676D01*
X7224475Y17979471D01*
X7180700Y18044985D01*
X7124985Y18100700D01*
X7059471Y18144475D01*
X6986676Y18174628D01*
X6962702Y18179397D01*
X10870000Y18179397D01*
X10870000Y18100603D01*
X10885372Y18023324D01*
X10915525Y17950529D01*
X10959300Y17885015D01*
X11015015Y17829300D01*
X11080529Y17785525D01*
X11153324Y17755372D01*
X11230603Y17740000D01*
X11309397Y17740000D01*
X11386676Y17755372D01*
X11459471Y17785525D01*
X11524985Y17829300D01*
X11580700Y17885015D01*
X11624475Y17950529D01*
X11654628Y18023324D01*
X11670000Y18100603D01*
X11670000Y18102109D01*
X11736676Y18115372D01*
X11809471Y18145525D01*
X11874985Y18189300D01*
X11930700Y18245015D01*
X11974475Y18310529D01*
X12004628Y18383324D01*
X12017891Y18450000D01*
X12019397Y18450000D01*
X12096676Y18465372D01*
X12169471Y18495525D01*
X12234985Y18539300D01*
X12290700Y18595015D01*
X12334475Y18660529D01*
X12364628Y18733324D01*
X12380000Y18810603D01*
X12380000Y18812109D01*
X12446676Y18825372D01*
X12519471Y18855525D01*
X12584985Y18899300D01*
X12640700Y18955015D01*
X12684475Y19020529D01*
X12714628Y19093324D01*
X12727891Y19160000D01*
X12729397Y19160000D01*
X12806676Y19175372D01*
X12879471Y19205525D01*
X12944985Y19249300D01*
X13000700Y19305015D01*
X13044475Y19370529D01*
X13074628Y19443324D01*
X13090000Y19520603D01*
X13090000Y19522109D01*
X13156676Y19535372D01*
X13229471Y19565525D01*
X13294985Y19609300D01*
X13350700Y19665015D01*
X13394475Y19730529D01*
X13424628Y19803324D01*
X13437891Y19870000D01*
X13439397Y19870000D01*
X13516676Y19885372D01*
X13589471Y19915525D01*
X13654985Y19959300D01*
X13710700Y20015015D01*
X13754475Y20080529D01*
X13784628Y20153324D01*
X13797891Y20220000D01*
X13799397Y20220000D01*
X13876676Y20235372D01*
X13949471Y20265525D01*
X14014985Y20309300D01*
X14070700Y20365015D01*
X14114475Y20430529D01*
X14144628Y20503324D01*
X14160000Y20580603D01*
X14160000Y20659397D01*
X14144628Y20736676D01*
X14114475Y20809471D01*
X14070700Y20874985D01*
X14014985Y20930700D01*
X13949471Y20974475D01*
X13876676Y21004628D01*
X13799397Y21020000D01*
X13720603Y21020000D01*
X13643324Y21004628D01*
X13570529Y20974475D01*
X13505015Y20930700D01*
X13449300Y20874985D01*
X13405525Y20809471D01*
X13375372Y20736676D01*
X13362109Y20670000D01*
X13360603Y20670000D01*
X13283324Y20654628D01*
X13210529Y20624475D01*
X13145015Y20580700D01*
X13089300Y20524985D01*
X13045525Y20459471D01*
X13015372Y20386676D01*
X13002109Y20320000D01*
X13000603Y20320000D01*
X12923324Y20304628D01*
X12850529Y20274475D01*
X12785015Y20230700D01*
X12729300Y20174985D01*
X12685525Y20109471D01*
X12655372Y20036676D01*
X12640000Y19959397D01*
X12640000Y19957891D01*
X12573324Y19944628D01*
X12500529Y19914475D01*
X12435015Y19870700D01*
X12379300Y19814985D01*
X12335525Y19749471D01*
X12305372Y19676676D01*
X12292109Y19610000D01*
X12290603Y19610000D01*
X12213324Y19594628D01*
X12140529Y19564475D01*
X12075015Y19520700D01*
X12019300Y19464985D01*
X11975525Y19399471D01*
X11945372Y19326676D01*
X11930000Y19249397D01*
X11930000Y19247891D01*
X11863324Y19234628D01*
X11790529Y19204475D01*
X11725015Y19160700D01*
X11669300Y19104985D01*
X11625525Y19039471D01*
X11595372Y18966676D01*
X11582109Y18900000D01*
X11580603Y18900000D01*
X11503324Y18884628D01*
X11430529Y18854475D01*
X11365015Y18810700D01*
X11309300Y18754985D01*
X11265525Y18689471D01*
X11235372Y18616676D01*
X11220000Y18539397D01*
X11220000Y18537891D01*
X11153324Y18524628D01*
X11080529Y18494475D01*
X11015015Y18450700D01*
X10959300Y18394985D01*
X10915525Y18329471D01*
X10885372Y18256676D01*
X10870000Y18179397D01*
X6962702Y18179397D01*
X6909397Y18190000D01*
X6907891Y18190000D01*
X6894628Y18256676D01*
X6864475Y18329471D01*
X6820700Y18394985D01*
X6764985Y18450700D01*
X6699471Y18494475D01*
X6626676Y18524628D01*
X6560000Y18537891D01*
X6560000Y18539397D01*
X6544628Y18616676D01*
X6514475Y18689471D01*
X6470700Y18754985D01*
X6414985Y18810700D01*
X6349471Y18854475D01*
X6276676Y18884628D01*
X6262451Y18887458D01*
X6266255Y18900000D01*
X6280297Y18946288D01*
X6282982Y18973550D01*
X6285000Y18994039D01*
X6285000Y18994046D01*
X6286571Y19009999D01*
X6285000Y19025952D01*
X6285000Y19934047D01*
X6286571Y19950000D01*
X6285000Y19965953D01*
X6285000Y19965961D01*
X6280297Y20013711D01*
X6261713Y20074974D01*
X6231535Y20131434D01*
X6190921Y20180921D01*
X6178524Y20191095D01*
X5265000Y21104618D01*
X5265000Y22055382D01*
X9210000Y26000381D01*
X11323905Y23886476D01*
X11334080Y23874078D01*
X11383567Y23833464D01*
X11414976Y23816676D01*
X11440027Y23803286D01*
X11501289Y23784702D01*
X11507363Y23784104D01*
X11549040Y23779999D01*
X11549047Y23779999D01*
X11565000Y23778428D01*
X11580953Y23779999D01*
X12248076Y23779999D01*
X12240000Y23739397D01*
X12240000Y23660603D01*
X12255372Y23583324D01*
X12285525Y23510529D01*
X12329300Y23445015D01*
X12385015Y23389300D01*
X12450529Y23345525D01*
X12523324Y23315372D01*
X12600603Y23300000D01*
X12679397Y23300000D01*
X12756676Y23315372D01*
X12782006Y23325864D01*
X12809300Y23285015D01*
X12865015Y23229300D01*
X12930529Y23185525D01*
X13003324Y23155372D01*
X13080603Y23140000D01*
X13159397Y23140000D01*
X13236676Y23155372D01*
X13309471Y23185525D01*
X13374985Y23229300D01*
X13376986Y23231301D01*
X13430529Y23195525D01*
X13503324Y23165372D01*
X13580603Y23150000D01*
X13659397Y23150000D01*
X13736676Y23165372D01*
X13809471Y23195525D01*
X13874985Y23239300D01*
X13930700Y23295015D01*
X13974475Y23360529D01*
X13977202Y23367113D01*
X13985015Y23359300D01*
X14050529Y23315525D01*
X14123324Y23285372D01*
X14200603Y23270000D01*
X14279397Y23270000D01*
X14356676Y23285372D01*
X14429471Y23315525D01*
X14494985Y23359300D01*
X14550700Y23415015D01*
X14594475Y23480529D01*
X14624628Y23553324D01*
X14640000Y23630603D01*
X14640000Y23709397D01*
X14624628Y23786676D01*
X14594475Y23859471D01*
X14550700Y23924985D01*
X14494985Y23980700D01*
X14429471Y24024475D01*
X14356676Y24054628D01*
X14304641Y24064979D01*
X14026099Y24343519D01*
X14015920Y24355922D01*
X13966433Y24396536D01*
X13909973Y24426714D01*
X13848710Y24445298D01*
X13800960Y24450001D01*
X13800952Y24450001D01*
X13784999Y24451572D01*
X13769046Y24450001D01*
X12616683Y24450001D01*
X12634628Y24493324D01*
X12650000Y24570603D01*
X12650000Y24649397D01*
X12634628Y24726676D01*
X12604475Y24799471D01*
X12560700Y24864985D01*
X12504985Y24920700D01*
X12439471Y24964475D01*
X12366676Y24994628D01*
X12330000Y25001923D01*
X12330000Y25029397D01*
X12810000Y25029397D01*
X12810000Y24950603D01*
X12825372Y24873324D01*
X12855525Y24800529D01*
X12899300Y24735015D01*
X12955015Y24679300D01*
X13020529Y24635525D01*
X13093324Y24605372D01*
X13170603Y24590000D01*
X13249397Y24590000D01*
X13326676Y24605372D01*
X13399471Y24635525D01*
X13464985Y24679300D01*
X13520700Y24735015D01*
X13564475Y24800529D01*
X13594628Y24873324D01*
X13610000Y24950603D01*
X13610000Y25029397D01*
X13594628Y25106676D01*
X13579337Y25143592D01*
X13623324Y25125372D01*
X13700603Y25110000D01*
X13779397Y25110000D01*
X13856676Y25125372D01*
X13929471Y25155525D01*
X13994985Y25199300D01*
X14050700Y25255015D01*
X14094475Y25320529D01*
X14124628Y25393324D01*
X14137891Y25460000D01*
X14139397Y25460000D01*
X14216676Y25475372D01*
X14289471Y25505525D01*
X14354985Y25549300D01*
X14410700Y25605015D01*
X14454475Y25670529D01*
X14484628Y25743324D01*
X14500000Y25820603D01*
X14500000Y25899397D01*
X14484628Y25976676D01*
X14454475Y26049471D01*
X14410700Y26114985D01*
X14354985Y26170700D01*
X14289471Y26214475D01*
X14216676Y26244628D01*
X14139397Y26260000D01*
X14060603Y26260000D01*
X13983324Y26244628D01*
X13910529Y26214475D01*
X13845015Y26170700D01*
X13789300Y26114985D01*
X13745525Y26049471D01*
X13715372Y25976676D01*
X13702109Y25910000D01*
X13700603Y25910000D01*
X13623324Y25894628D01*
X13550529Y25864475D01*
X13485015Y25820700D01*
X13429300Y25764985D01*
X13385525Y25699471D01*
X13355372Y25626676D01*
X13340000Y25549397D01*
X13340000Y25470603D01*
X13355372Y25393324D01*
X13370663Y25356408D01*
X13326676Y25374628D01*
X13249397Y25390000D01*
X13170603Y25390000D01*
X13093324Y25374628D01*
X13020529Y25344475D01*
X12955015Y25300700D01*
X12899300Y25244985D01*
X12855525Y25179471D01*
X12825372Y25106676D01*
X12810000Y25029397D01*
X12330000Y25029397D01*
X12330000Y25039397D01*
X12314628Y25116676D01*
X12284475Y25189471D01*
X12240700Y25254985D01*
X12184985Y25310700D01*
X12119471Y25354475D01*
X12046676Y25384628D01*
X11969397Y25400000D01*
X11890603Y25400000D01*
X11813324Y25384628D01*
X11740529Y25354475D01*
X11675015Y25310700D01*
X11619300Y25254985D01*
X11575525Y25189471D01*
X11545372Y25116676D01*
X11530000Y25039397D01*
X11530000Y24960603D01*
X11545372Y24883324D01*
X11548284Y24876293D01*
X11495015Y24840700D01*
X11439300Y24784985D01*
X11401382Y24728237D01*
X11281527Y24848092D01*
X11299471Y24855525D01*
X11364985Y24899300D01*
X11420700Y24955015D01*
X11464475Y25020529D01*
X11494628Y25093324D01*
X11510000Y25170603D01*
X11510000Y25249397D01*
X11494628Y25326676D01*
X11464475Y25399471D01*
X11420700Y25464985D01*
X11364985Y25520700D01*
X11299471Y25564475D01*
X11226676Y25594628D01*
X11149900Y25609900D01*
X11134628Y25686676D01*
X11104475Y25759471D01*
X11060700Y25824985D01*
X11004985Y25880700D01*
X10939471Y25924475D01*
X10866676Y25954628D01*
X10800000Y25967891D01*
X10800000Y25969397D01*
X10784628Y26046676D01*
X10754475Y26119471D01*
X10710700Y26184985D01*
X10654985Y26240700D01*
X10589471Y26284475D01*
X10516676Y26314628D01*
X10439397Y26330000D01*
X10437891Y26330000D01*
X10424628Y26396676D01*
X10394475Y26469471D01*
X10350700Y26534985D01*
X10294985Y26590700D01*
X10229471Y26634475D01*
X10156676Y26664628D01*
X10079397Y26680000D01*
X10000603Y26680000D01*
X9923324Y26664628D01*
X9850529Y26634475D01*
X9785015Y26590700D01*
X9729300Y26534985D01*
X9685525Y26469471D01*
X9678092Y26451526D01*
X9451105Y26678513D01*
X9451096Y26678524D01*
X9451089Y26678531D01*
X9440921Y26690921D01*
X9428531Y26701089D01*
X8330222Y27799397D01*
X9680000Y27799397D01*
X9680000Y27720603D01*
X9695372Y27643324D01*
X9725525Y27570529D01*
X9769300Y27505015D01*
X9825015Y27449300D01*
X9890529Y27405525D01*
X9963324Y27375372D01*
X10040603Y27360000D01*
X10119397Y27360000D01*
X10196676Y27375372D01*
X10269471Y27405525D01*
X10334985Y27449300D01*
X10390700Y27505015D01*
X10434475Y27570529D01*
X10464628Y27643324D01*
X10480000Y27720603D01*
X10480000Y27784044D01*
X10486676Y27785372D01*
X10559471Y27815525D01*
X10624985Y27859300D01*
X10680700Y27915015D01*
X10724475Y27980529D01*
X10754628Y28053324D01*
X10770000Y28130603D01*
X10770000Y28160000D01*
X10799397Y28160000D01*
X10876676Y28175372D01*
X10949471Y28205525D01*
X11014985Y28249300D01*
X11070700Y28305015D01*
X11114475Y28370529D01*
X11144628Y28443324D01*
X11160000Y28520603D01*
X11160000Y28589397D01*
X13360000Y28589397D01*
X13360000Y28510603D01*
X13375372Y28433324D01*
X13405525Y28360529D01*
X13449300Y28295015D01*
X13505015Y28239300D01*
X13570529Y28195525D01*
X13643324Y28165372D01*
X13720603Y28150000D01*
X13799397Y28150000D01*
X13876676Y28165372D01*
X13949471Y28195525D01*
X14014985Y28239300D01*
X14070700Y28295015D01*
X14114475Y28360529D01*
X14144628Y28433324D01*
X14160000Y28510603D01*
X14160000Y28589397D01*
X14144628Y28666676D01*
X14114475Y28739471D01*
X14070700Y28804985D01*
X14014985Y28860700D01*
X13949471Y28904475D01*
X13876676Y28934628D01*
X13799397Y28950000D01*
X13720603Y28950000D01*
X13643324Y28934628D01*
X13570529Y28904475D01*
X13505015Y28860700D01*
X13449300Y28804985D01*
X13405525Y28739471D01*
X13375372Y28666676D01*
X13360000Y28589397D01*
X11160000Y28589397D01*
X11160000Y28599397D01*
X11144628Y28676676D01*
X11114475Y28749471D01*
X11070700Y28814985D01*
X11014985Y28870700D01*
X10949471Y28914475D01*
X10876676Y28944628D01*
X10799397Y28960000D01*
X10720603Y28960000D01*
X10643324Y28944628D01*
X10570529Y28914475D01*
X10505015Y28870700D01*
X10480166Y28845851D01*
X10460700Y28874985D01*
X10404985Y28930700D01*
X10339471Y28974475D01*
X10266676Y29004628D01*
X10189397Y29020000D01*
X10110603Y29020000D01*
X10033324Y29004628D01*
X9960529Y28974475D01*
X9895015Y28930700D01*
X9839300Y28874985D01*
X9795525Y28809471D01*
X9765372Y28736676D01*
X9750000Y28659397D01*
X9750000Y28580603D01*
X9765372Y28503324D01*
X9795525Y28430529D01*
X9839300Y28365015D01*
X9895015Y28309300D01*
X9960529Y28265525D01*
X9979594Y28257628D01*
X9970000Y28209397D01*
X9970000Y28145956D01*
X9963324Y28144628D01*
X9890529Y28114475D01*
X9825015Y28070700D01*
X9769300Y28014985D01*
X9725525Y27949471D01*
X9695372Y27876676D01*
X9680000Y27799397D01*
X8330222Y27799397D01*
X7250172Y28879446D01*
X7250172Y29859397D01*
X7610000Y29859397D01*
X7610000Y29780603D01*
X7625372Y29703324D01*
X7655525Y29630529D01*
X7699300Y29565015D01*
X7755015Y29509300D01*
X7820529Y29465525D01*
X7893324Y29435372D01*
X7970603Y29420000D01*
X7996087Y29420000D01*
X8005372Y29373324D01*
X8035525Y29300529D01*
X8079300Y29235015D01*
X8135015Y29179300D01*
X8188866Y29143318D01*
X8155015Y29120700D01*
X8099300Y29064985D01*
X8055525Y28999471D01*
X8025372Y28926676D01*
X8010000Y28849397D01*
X8010000Y28770603D01*
X8025372Y28693324D01*
X8055525Y28620529D01*
X8099300Y28555015D01*
X8155015Y28499300D01*
X8220529Y28455525D01*
X8293324Y28425372D01*
X8370603Y28410000D01*
X8449397Y28410000D01*
X8526676Y28425372D01*
X8599471Y28455525D01*
X8664985Y28499300D01*
X8720700Y28555015D01*
X8764475Y28620529D01*
X8794628Y28693324D01*
X8810000Y28770603D01*
X8810000Y28849397D01*
X8794628Y28926676D01*
X8764475Y28999471D01*
X8720700Y29064985D01*
X8664985Y29120700D01*
X8611134Y29156682D01*
X8644985Y29179300D01*
X8700700Y29235015D01*
X8744475Y29300529D01*
X8774628Y29373324D01*
X8790000Y29450603D01*
X8790000Y29529397D01*
X8786022Y29549397D01*
X10030000Y29549397D01*
X10030000Y29470603D01*
X10045372Y29393324D01*
X10075525Y29320529D01*
X10119300Y29255015D01*
X10175015Y29199300D01*
X10240529Y29155525D01*
X10313324Y29125372D01*
X10390603Y29110000D01*
X10469397Y29110000D01*
X10546676Y29125372D01*
X10619471Y29155525D01*
X10684985Y29199300D01*
X10740700Y29255015D01*
X10784475Y29320529D01*
X10814628Y29393324D01*
X10830000Y29470603D01*
X10830000Y29549397D01*
X10814628Y29626676D01*
X10784475Y29699471D01*
X10740700Y29764985D01*
X10684985Y29820700D01*
X10619471Y29864475D01*
X10546676Y29894628D01*
X10469397Y29910000D01*
X10390603Y29910000D01*
X10313324Y29894628D01*
X10240529Y29864475D01*
X10175015Y29820700D01*
X10119300Y29764985D01*
X10075525Y29699471D01*
X10045372Y29626676D01*
X10030000Y29549397D01*
X8786022Y29549397D01*
X8774628Y29606676D01*
X8744475Y29679471D01*
X8700700Y29744985D01*
X8644985Y29800700D01*
X8579471Y29844475D01*
X8506676Y29874628D01*
X8429397Y29890000D01*
X8403913Y29890000D01*
X8394628Y29936676D01*
X8364475Y30009471D01*
X8320700Y30074985D01*
X8264985Y30130700D01*
X8199471Y30174475D01*
X8126676Y30204628D01*
X8049397Y30220000D01*
X7970603Y30220000D01*
X7893324Y30204628D01*
X7820529Y30174475D01*
X7755015Y30130700D01*
X7699300Y30074985D01*
X7655525Y30009471D01*
X7625372Y29936676D01*
X7610000Y29859397D01*
X7250172Y29859397D01*
X7250172Y29919220D01*
X7251743Y29935173D01*
X7250172Y29951126D01*
X7250172Y29951133D01*
X7245469Y29998883D01*
X7235834Y30030647D01*
X7226885Y30060146D01*
X7196707Y30116606D01*
X7156093Y30166093D01*
X7143695Y30176268D01*
X6435000Y30884962D01*
X6435000Y31126416D01*
X6464475Y31170529D01*
X6494628Y31243324D01*
X6510000Y31320603D01*
X6510000Y31359397D01*
X7610000Y31359397D01*
X7610000Y31280603D01*
X7625372Y31203324D01*
X7655525Y31130529D01*
X7699300Y31065015D01*
X7755015Y31009300D01*
X7820529Y30965525D01*
X7893324Y30935372D01*
X7970603Y30920000D01*
X8049397Y30920000D01*
X8126676Y30935372D01*
X8199471Y30965525D01*
X8264985Y31009300D01*
X8320700Y31065015D01*
X8364475Y31130529D01*
X8394628Y31203324D01*
X8410000Y31280603D01*
X8410000Y31359397D01*
X8394628Y31436676D01*
X8364475Y31509471D01*
X8320700Y31574985D01*
X8264985Y31630700D01*
X8199471Y31674475D01*
X8126676Y31704628D01*
X8049397Y31720000D01*
X7970603Y31720000D01*
X7893324Y31704628D01*
X7820529Y31674475D01*
X7755015Y31630700D01*
X7699300Y31574985D01*
X7655525Y31509471D01*
X7625372Y31436676D01*
X7610000Y31359397D01*
X6510000Y31359397D01*
X6510000Y31399397D01*
X6494628Y31476676D01*
X6464475Y31549471D01*
X6420700Y31614985D01*
X6364985Y31670700D01*
X6299471Y31714475D01*
X6226676Y31744628D01*
X6149397Y31760000D01*
X6070603Y31760000D01*
X5993324Y31744628D01*
X5920529Y31714475D01*
X5876416Y31685000D01*
X5843584Y31685000D01*
X5799471Y31714475D01*
X5726676Y31744628D01*
X5649397Y31760000D01*
X5570603Y31760000D01*
X5493324Y31744628D01*
X5420529Y31714475D01*
X5355015Y31670700D01*
X5299300Y31614985D01*
X5288341Y31598584D01*
X5270700Y31624985D01*
X5214985Y31680700D01*
X5149471Y31724475D01*
X5076676Y31754628D01*
X4999397Y31770000D01*
X4920603Y31770000D01*
X4843324Y31754628D01*
X4770529Y31724475D01*
X4705015Y31680700D01*
X4703014Y31678699D01*
X4649471Y31714475D01*
X4576676Y31744628D01*
X4499397Y31760000D01*
X4420603Y31760000D01*
X4343324Y31744628D01*
X4270529Y31714475D01*
X4205015Y31670700D01*
X4149300Y31614985D01*
X4135000Y31593584D01*
X4120700Y31614985D01*
X4064985Y31670700D01*
X3999471Y31714475D01*
X3926676Y31744628D01*
X3849397Y31760000D01*
X3770603Y31760000D01*
X3693324Y31744628D01*
X3620529Y31714475D01*
X3560000Y31674031D01*
X3499471Y31714475D01*
X3426676Y31744628D01*
X3349397Y31760000D01*
X3270603Y31760000D01*
X3193324Y31744628D01*
X3120529Y31714475D01*
X3055015Y31670700D01*
X2999300Y31614985D01*
X2955525Y31549471D01*
X2925372Y31476676D01*
X2910000Y31399397D01*
X2207168Y31399397D01*
X2231571Y31458311D01*
X2270000Y31651509D01*
X2270000Y31848491D01*
X2231571Y32041689D01*
X2156189Y32223678D01*
X2046751Y32387463D01*
X1907463Y32526751D01*
X1743678Y32636189D01*
X1561689Y32711571D01*
X1368491Y32750000D01*
X1171509Y32750000D01*
X978311Y32711571D01*
X796322Y32636189D01*
X632537Y32526751D01*
X493249Y32387463D01*
X450000Y32322737D01*
X450000Y33717263D01*
X493249Y33652537D01*
X632537Y33513249D01*
X796322Y33403811D01*
X978311Y33328429D01*
X1171509Y33290000D01*
X1368491Y33290000D01*
X1561689Y33328429D01*
X1743678Y33403811D01*
X1886732Y33499397D01*
X3150000Y33499397D01*
X3150000Y33420603D01*
X3165372Y33343324D01*
X3195525Y33270529D01*
X3239300Y33205015D01*
X3295015Y33149300D01*
X3360529Y33105525D01*
X3433324Y33075372D01*
X3510603Y33060000D01*
X3589397Y33060000D01*
X3666676Y33075372D01*
X3739471Y33105525D01*
X3800000Y33145969D01*
X3860529Y33105525D01*
X3933324Y33075372D01*
X4010603Y33060000D01*
X4089397Y33060000D01*
X4166676Y33075372D01*
X4239471Y33105525D01*
X4304985Y33149300D01*
X4360700Y33205015D01*
X4404475Y33270529D01*
X4434628Y33343324D01*
X4450000Y33420603D01*
X4450000Y33499397D01*
X4434628Y33576676D01*
X4424019Y33602289D01*
X4495000Y33618759D01*
X4495000Y34790000D01*
X4645000Y34790000D01*
X4645000Y33618759D01*
X4768673Y33590062D01*
X4806857Y33597195D01*
X4952097Y33658157D01*
X5082653Y33746282D01*
X5193508Y33858184D01*
X5280402Y33989563D01*
X5339996Y34135369D01*
X5370000Y34290000D01*
X5370000Y34790000D01*
X4645000Y34790000D01*
X4495000Y34790000D01*
X3770000Y34790000D01*
X3770000Y34290000D01*
X3800004Y34135369D01*
X3859598Y33989563D01*
X3946492Y33858184D01*
X3955543Y33849048D01*
X3933324Y33844628D01*
X3860529Y33814475D01*
X3800000Y33774031D01*
X3739471Y33814475D01*
X3666676Y33844628D01*
X3589397Y33860000D01*
X3510603Y33860000D01*
X3433324Y33844628D01*
X3360529Y33814475D01*
X3295015Y33770700D01*
X3239300Y33714985D01*
X3195525Y33649471D01*
X3165372Y33576676D01*
X3150000Y33499397D01*
X1886732Y33499397D01*
X1907463Y33513249D01*
X2046751Y33652537D01*
X2156189Y33816322D01*
X2231571Y33998311D01*
X2270000Y34191509D01*
X2270000Y34388491D01*
X2231571Y34581689D01*
X2156189Y34763678D01*
X2046751Y34927463D01*
X1907463Y35066751D01*
X1743678Y35176189D01*
X1561689Y35251571D01*
X1368491Y35290000D01*
X1171509Y35290000D01*
X978311Y35251571D01*
X796322Y35176189D01*
X632537Y35066751D01*
X493249Y34927463D01*
X450000Y34862737D01*
X450000Y35440000D01*
X3770000Y35440000D01*
X3770000Y34940000D01*
X4495000Y34940000D01*
X4495000Y36111241D01*
X4645000Y36111241D01*
X4645000Y34940000D01*
X5370000Y34940000D01*
X5370000Y35283155D01*
X5409736Y35234736D01*
X5485871Y35172254D01*
X5572733Y35125825D01*
X5666983Y35097235D01*
X5740440Y35090000D01*
X6039560Y35090000D01*
X6113017Y35097235D01*
X6207267Y35125825D01*
X6294129Y35172254D01*
X6370264Y35234736D01*
X6398709Y35269397D01*
X6740000Y35269397D01*
X6740000Y35190603D01*
X6755372Y35113324D01*
X6785525Y35040529D01*
X6829300Y34975015D01*
X6885015Y34919300D01*
X6950529Y34875525D01*
X6980000Y34863318D01*
X6980000Y33404943D01*
X6982140Y33375763D01*
X7003427Y33231424D01*
X7020274Y33175549D01*
X7082321Y33043501D01*
X7114581Y32994867D01*
X7212107Y32886352D01*
X7233204Y32866080D01*
X7284355Y32823668D01*
X7235015Y32790700D01*
X7179300Y32734985D01*
X7135525Y32669471D01*
X7105372Y32596676D01*
X7090000Y32519397D01*
X7090000Y32440603D01*
X7105372Y32363324D01*
X7135525Y32290529D01*
X7179300Y32225015D01*
X7235015Y32169300D01*
X7300529Y32125525D01*
X7373324Y32095372D01*
X7450603Y32080000D01*
X7529397Y32080000D01*
X7606676Y32095372D01*
X7679471Y32125525D01*
X7744985Y32169300D01*
X7800700Y32225015D01*
X7844475Y32290529D01*
X7865662Y32341680D01*
X8899768Y31484255D01*
X8918823Y31470270D01*
X9017890Y31406209D01*
X9060263Y31385439D01*
X9171582Y31346373D01*
X9217643Y31336108D01*
X9335016Y31324212D01*
X9358631Y31323223D01*
X9549794Y31326519D01*
X9575479Y31328622D01*
X9702698Y31347353D01*
X9752199Y31361327D01*
X9870433Y31411885D01*
X9914735Y31438023D01*
X10016164Y31517065D01*
X10035429Y31534182D01*
X10317509Y31819397D01*
X11040000Y31819397D01*
X11040000Y31740603D01*
X11055372Y31663324D01*
X11085525Y31590529D01*
X11129300Y31525015D01*
X11185015Y31469300D01*
X11250529Y31425525D01*
X11323324Y31395372D01*
X11400603Y31380000D01*
X11479397Y31380000D01*
X11556676Y31395372D01*
X11629471Y31425525D01*
X11694985Y31469300D01*
X11750700Y31525015D01*
X11794475Y31590529D01*
X11824628Y31663324D01*
X11840000Y31740603D01*
X11855372Y31663324D01*
X11885525Y31590529D01*
X11929300Y31525015D01*
X11985015Y31469300D01*
X12050529Y31425525D01*
X12123324Y31395372D01*
X12200603Y31380000D01*
X12279397Y31380000D01*
X12356676Y31395372D01*
X12429471Y31425525D01*
X12494985Y31469300D01*
X12550700Y31525015D01*
X12594475Y31590529D01*
X12624628Y31663324D01*
X12640000Y31740603D01*
X12640000Y31819397D01*
X12624628Y31896676D01*
X12594475Y31969471D01*
X12550700Y32034985D01*
X12494985Y32090700D01*
X12429471Y32134475D01*
X12356676Y32164628D01*
X12279397Y32180000D01*
X12200603Y32180000D01*
X12123324Y32164628D01*
X12050529Y32134475D01*
X11985015Y32090700D01*
X11929300Y32034985D01*
X11885525Y31969471D01*
X11855372Y31896676D01*
X11840000Y31819397D01*
X11824628Y31896676D01*
X11794475Y31969471D01*
X11750700Y32034985D01*
X11694985Y32090700D01*
X11629471Y32134475D01*
X11556676Y32164628D01*
X11479397Y32180000D01*
X11400603Y32180000D01*
X11323324Y32164628D01*
X11250529Y32134475D01*
X11185015Y32090700D01*
X11129300Y32034985D01*
X11085525Y31969471D01*
X11055372Y31896676D01*
X11040000Y31819397D01*
X10317509Y31819397D01*
X11533993Y33049397D01*
X13280000Y33049397D01*
X13280000Y32970603D01*
X13295372Y32893324D01*
X13325525Y32820529D01*
X13369300Y32755015D01*
X13425015Y32699300D01*
X13483832Y32660000D01*
X13425015Y32620700D01*
X13369300Y32564985D01*
X13325525Y32499471D01*
X13295372Y32426676D01*
X13280000Y32349397D01*
X13280000Y32270603D01*
X13295372Y32193324D01*
X13325525Y32120529D01*
X13369300Y32055015D01*
X13425015Y31999300D01*
X13483832Y31960000D01*
X13425015Y31920700D01*
X13369300Y31864985D01*
X13325525Y31799471D01*
X13295372Y31726676D01*
X13280000Y31649397D01*
X13280000Y31570603D01*
X13295372Y31493324D01*
X13325525Y31420529D01*
X13369300Y31355015D01*
X13425015Y31299300D01*
X13490529Y31255525D01*
X13563324Y31225372D01*
X13640603Y31210000D01*
X13719397Y31210000D01*
X13796676Y31225372D01*
X13869471Y31255525D01*
X13934985Y31299300D01*
X13990700Y31355015D01*
X14034475Y31420529D01*
X14064628Y31493324D01*
X14080000Y31570603D01*
X14080000Y31649397D01*
X14064628Y31726676D01*
X14034475Y31799471D01*
X13990700Y31864985D01*
X13934985Y31920700D01*
X13876168Y31960000D01*
X13934985Y31999300D01*
X13990700Y32055015D01*
X14034475Y32120529D01*
X14064628Y32193324D01*
X14080000Y32270603D01*
X14080000Y32349397D01*
X14064628Y32426676D01*
X14034475Y32499471D01*
X13990700Y32564985D01*
X13934985Y32620700D01*
X13876168Y32660000D01*
X13934985Y32699300D01*
X13990700Y32755015D01*
X14034475Y32820529D01*
X14064628Y32893324D01*
X14080000Y32970603D01*
X14080000Y33049397D01*
X14064628Y33126676D01*
X14034475Y33199471D01*
X13990700Y33264985D01*
X13934985Y33320700D01*
X13869471Y33364475D01*
X13796676Y33394628D01*
X13719397Y33410000D01*
X13640603Y33410000D01*
X13563324Y33394628D01*
X13490529Y33364475D01*
X13425015Y33320700D01*
X13369300Y33264985D01*
X13325525Y33199471D01*
X13295372Y33126676D01*
X13280000Y33049397D01*
X11533993Y33049397D01*
X11547702Y33063258D01*
X11564730Y33082875D01*
X11643160Y33186066D01*
X11668918Y33231062D01*
X11718187Y33350946D01*
X11731513Y33401048D01*
X11748313Y33529567D01*
X11750000Y33555490D01*
X11750000Y34790000D01*
X12410000Y34790000D01*
X12410000Y34290000D01*
X12440004Y34135369D01*
X12499598Y33989563D01*
X12586492Y33858184D01*
X12697347Y33746282D01*
X12827903Y33658157D01*
X12973143Y33597195D01*
X13011327Y33590062D01*
X13135000Y33618759D01*
X13135000Y34790000D01*
X13285000Y34790000D01*
X13285000Y33618759D01*
X13408673Y33590062D01*
X13446857Y33597195D01*
X13592097Y33658157D01*
X13722653Y33746282D01*
X13833508Y33858184D01*
X13920402Y33989563D01*
X13979996Y34135369D01*
X14010000Y34290000D01*
X14010000Y34790000D01*
X13285000Y34790000D01*
X13135000Y34790000D01*
X12410000Y34790000D01*
X11750000Y34790000D01*
X11750000Y34930000D01*
X11748289Y34956105D01*
X11731252Y35085515D01*
X11722498Y35118186D01*
X11744155Y35109215D01*
X11840754Y35090000D01*
X11939246Y35090000D01*
X12035845Y35109215D01*
X12126839Y35146906D01*
X12208731Y35201625D01*
X12278375Y35271269D01*
X12333094Y35353161D01*
X12369063Y35440000D01*
X12410000Y35440000D01*
X12410000Y34940000D01*
X13135000Y34940000D01*
X13135000Y36111241D01*
X13285000Y36111241D01*
X13285000Y34940000D01*
X14010000Y34940000D01*
X14010000Y35440000D01*
X13979996Y35594631D01*
X13920402Y35740437D01*
X13833508Y35871816D01*
X13722653Y35983718D01*
X13592097Y36071843D01*
X13446857Y36132805D01*
X13408673Y36139938D01*
X13285000Y36111241D01*
X13135000Y36111241D01*
X13011327Y36139938D01*
X12973143Y36132805D01*
X12827903Y36071843D01*
X12697347Y35983718D01*
X12586492Y35871816D01*
X12499598Y35740437D01*
X12440004Y35594631D01*
X12410000Y35440000D01*
X12369063Y35440000D01*
X12370785Y35444155D01*
X12390000Y35540754D01*
X12390000Y35639246D01*
X12370785Y35735845D01*
X12333094Y35826839D01*
X12278375Y35908731D01*
X12208731Y35978375D01*
X12126839Y36033094D01*
X12035845Y36070785D01*
X11939246Y36090000D01*
X11840754Y36090000D01*
X11744155Y36070785D01*
X11653161Y36033094D01*
X11571269Y35978375D01*
X11501625Y35908731D01*
X11446906Y35826839D01*
X11409215Y35735845D01*
X11390000Y35639246D01*
X11390000Y35600825D01*
X11356676Y35614628D01*
X11279397Y35630000D01*
X11200603Y35630000D01*
X11145845Y35619108D01*
X11076105Y35628289D01*
X11050000Y35630000D01*
X7680000Y35630000D01*
X7679546Y35629970D01*
X7679397Y35630000D01*
X7600603Y35630000D01*
X7523324Y35614628D01*
X7498117Y35604187D01*
X7474053Y35597739D01*
X7372546Y35555693D01*
X7329471Y35584475D01*
X7256676Y35614628D01*
X7179397Y35630000D01*
X7100603Y35630000D01*
X7023324Y35614628D01*
X6950529Y35584475D01*
X6885015Y35540700D01*
X6829300Y35484985D01*
X6785525Y35419471D01*
X6755372Y35346676D01*
X6740000Y35269397D01*
X6398709Y35269397D01*
X6432746Y35310871D01*
X6479175Y35397733D01*
X6507765Y35491983D01*
X6517419Y35590000D01*
X6507765Y35688017D01*
X6479175Y35782267D01*
X6432746Y35869129D01*
X6370264Y35945264D01*
X6294129Y36007746D01*
X6207267Y36054175D01*
X6113017Y36082765D01*
X6039560Y36090000D01*
X5740440Y36090000D01*
X5666983Y36082765D01*
X5572733Y36054175D01*
X5485871Y36007746D01*
X5409736Y35945264D01*
X5347254Y35869129D01*
X5300825Y35782267D01*
X5284841Y35729575D01*
X5280402Y35740437D01*
X5193508Y35871816D01*
X5082653Y35983718D01*
X4952097Y36071843D01*
X4806857Y36132805D01*
X4768673Y36139938D01*
X4645000Y36111241D01*
X4495000Y36111241D01*
X4371327Y36139938D01*
X4333143Y36132805D01*
X4187903Y36071843D01*
X4057347Y35983718D01*
X3946492Y35871816D01*
X3859598Y35740437D01*
X3800004Y35594631D01*
X3770000Y35440000D01*
X450000Y35440000D01*
X450000Y36257263D01*
X493249Y36192537D01*
X632537Y36053249D01*
X796322Y35943811D01*
X978311Y35868429D01*
X1171509Y35830000D01*
X1368491Y35830000D01*
X1561689Y35868429D01*
X1743678Y35943811D01*
X1907463Y36053249D01*
X2046751Y36192537D01*
X2156189Y36356322D01*
X2231571Y36538311D01*
X2270000Y36731509D01*
X2270000Y36928491D01*
X2231571Y37121689D01*
X2156189Y37303678D01*
X2046751Y37467463D01*
X1907463Y37606751D01*
X1743678Y37716189D01*
X1561689Y37791571D01*
X1368491Y37830000D01*
X1171509Y37830000D01*
X978311Y37791571D01*
X796322Y37716189D01*
X632537Y37606751D01*
X493249Y37467463D01*
X450000Y37402737D01*
X450000Y38797263D01*
X493249Y38732537D01*
X632537Y38593249D01*
X796322Y38483811D01*
X978311Y38408429D01*
X1171509Y38370000D01*
X1368491Y38370000D01*
X1561689Y38408429D01*
X1743678Y38483811D01*
X1907463Y38593249D01*
X1929214Y38615000D01*
X3770000Y38615000D01*
X3770000Y37965000D01*
X3800004Y37810369D01*
X3859598Y37664563D01*
X3946492Y37533184D01*
X4057347Y37421282D01*
X4187903Y37333157D01*
X4333143Y37272195D01*
X4371327Y37265062D01*
X4495000Y37293759D01*
X4495000Y38615000D01*
X4645000Y38615000D01*
X4645000Y37293759D01*
X4768673Y37265062D01*
X4806857Y37272195D01*
X4952097Y37333157D01*
X5082653Y37421282D01*
X5193508Y37533184D01*
X5280402Y37664563D01*
X5339996Y37810369D01*
X5370000Y37965000D01*
X5370000Y38615000D01*
X12410000Y38615000D01*
X12410000Y37965000D01*
X12440004Y37810369D01*
X12499598Y37664563D01*
X12586492Y37533184D01*
X12697347Y37421282D01*
X12827903Y37333157D01*
X12973143Y37272195D01*
X13011327Y37265062D01*
X13135000Y37293759D01*
X13135000Y38615000D01*
X13285000Y38615000D01*
X13285000Y37293759D01*
X13408673Y37265062D01*
X13446857Y37272195D01*
X13592097Y37333157D01*
X13722653Y37421282D01*
X13833508Y37533184D01*
X13920402Y37664563D01*
X13979996Y37810369D01*
X14010000Y37965000D01*
X14010000Y38615000D01*
X13285000Y38615000D01*
X13135000Y38615000D01*
X12410000Y38615000D01*
X5370000Y38615000D01*
X4645000Y38615000D01*
X4495000Y38615000D01*
X3770000Y38615000D01*
X1929214Y38615000D01*
X2046751Y38732537D01*
X2156189Y38896322D01*
X2231571Y39078311D01*
X2270000Y39271509D01*
X2270000Y39415000D01*
X3770000Y39415000D01*
X3770000Y38765000D01*
X4495000Y38765000D01*
X4495000Y40086241D01*
X4645000Y40086241D01*
X4645000Y38765000D01*
X5370000Y38765000D01*
X5370000Y39415000D01*
X12410000Y39415000D01*
X12410000Y38765000D01*
X13135000Y38765000D01*
X13135000Y40086241D01*
X13285000Y40086241D01*
X13285000Y38765000D01*
X14010000Y38765000D01*
X14010000Y39415000D01*
X13979996Y39569631D01*
X13920402Y39715437D01*
X13833508Y39846816D01*
X13722653Y39958718D01*
X13592097Y40046843D01*
X13446857Y40107805D01*
X13408673Y40114938D01*
X13285000Y40086241D01*
X13135000Y40086241D01*
X13011327Y40114938D01*
X12973143Y40107805D01*
X12827903Y40046843D01*
X12697347Y39958718D01*
X12586492Y39846816D01*
X12499598Y39715437D01*
X12440004Y39569631D01*
X12410000Y39415000D01*
X5370000Y39415000D01*
X5339996Y39569631D01*
X5280402Y39715437D01*
X5193508Y39846816D01*
X5082653Y39958718D01*
X4952097Y40046843D01*
X4806857Y40107805D01*
X4768673Y40114938D01*
X4645000Y40086241D01*
X4495000Y40086241D01*
X4371327Y40114938D01*
X4333143Y40107805D01*
X4187903Y40046843D01*
X4057347Y39958718D01*
X3946492Y39846816D01*
X3859598Y39715437D01*
X3800004Y39569631D01*
X3770000Y39415000D01*
X2270000Y39415000D01*
X2270000Y39468491D01*
X2231571Y39661689D01*
X2156189Y39843678D01*
X2046751Y40007463D01*
X1907463Y40146751D01*
X1842737Y40190000D01*
X15937263Y40190000D01*
X15872537Y40146751D01*
G37*
G04 #@! TD.AperFunction*
G04 #@! TD*
D17*
G04 #@! TO.N,VBUS*
X10255372Y35346676D02*
X10240000Y35269397D01*
X10240000Y35190603D01*
X10255372Y35113324D01*
X10285525Y35040529D01*
X10329300Y34975015D01*
X10385015Y34919300D01*
X10450529Y34875525D01*
X10523324Y34845372D01*
X10600603Y34830000D01*
X10679397Y34830000D01*
X10756676Y34845372D01*
X10829471Y34875525D01*
X10894985Y34919300D01*
X10950700Y34975015D01*
X10994475Y35040529D01*
X11024628Y35113324D01*
X11040000Y35190603D01*
X11040000Y35269397D01*
X11024628Y35346676D01*
X11010825Y35380000D01*
X11046725Y35380000D01*
X11166357Y35364250D01*
X11274786Y35319337D01*
X11367893Y35247893D01*
X11439337Y35154786D01*
X11484250Y35046357D01*
X11500000Y34926725D01*
X11500000Y33558743D01*
X11484469Y33439933D01*
X11440168Y33332137D01*
X11367663Y33236741D01*
X10681363Y32542816D01*
X10674628Y32576676D01*
X10644475Y32649471D01*
X10600700Y32714985D01*
X10544985Y32770700D01*
X10479471Y32814475D01*
X10406676Y32844628D01*
X10329397Y32860000D01*
X10250603Y32860000D01*
X10173324Y32844628D01*
X10100529Y32814475D01*
X10035015Y32770700D01*
X9979300Y32714985D01*
X9935525Y32649471D01*
X9905372Y32576676D01*
X9890000Y32499397D01*
X9890000Y32420603D01*
X9905372Y32343324D01*
X9935525Y32270529D01*
X9979300Y32205015D01*
X10035015Y32149300D01*
X10100529Y32105525D01*
X10173324Y32075372D01*
X10211538Y32067771D01*
X9859951Y31712277D01*
X9766178Y31639202D01*
X9659869Y31593743D01*
X9542258Y31576426D01*
X9357275Y31573237D01*
X9248762Y31584235D01*
X9148651Y31619368D01*
X9057062Y31678593D01*
X7822700Y32702059D01*
X7800700Y32734985D01*
X7744985Y32790700D01*
X7679471Y32834475D01*
X7646555Y32848109D01*
X7395596Y33056191D01*
X7305451Y33156493D01*
X7249676Y33275194D01*
X7230000Y33408610D01*
X7230000Y34840066D01*
X7256676Y34845372D01*
X7329471Y34875525D01*
X7390000Y34915969D01*
X7450529Y34875525D01*
X7523324Y34845372D01*
X7600603Y34830000D01*
X7679397Y34830000D01*
X7756676Y34845372D01*
X7829471Y34875525D01*
X7894985Y34919300D01*
X7950700Y34975015D01*
X7994475Y35040529D01*
X8024628Y35113324D01*
X8040000Y35190603D01*
X8040000Y35269397D01*
X8024628Y35346676D01*
X8010825Y35380000D01*
X10269175Y35380000D01*
X10255372Y35346676D01*
G04 #@! TA.AperFunction,Conductor*
D18*
G36*
X10255372Y35346676D02*
G01*
X10240000Y35269397D01*
X10240000Y35190603D01*
X10255372Y35113324D01*
X10285525Y35040529D01*
X10329300Y34975015D01*
X10385015Y34919300D01*
X10450529Y34875525D01*
X10523324Y34845372D01*
X10600603Y34830000D01*
X10679397Y34830000D01*
X10756676Y34845372D01*
X10829471Y34875525D01*
X10894985Y34919300D01*
X10950700Y34975015D01*
X10994475Y35040529D01*
X11024628Y35113324D01*
X11040000Y35190603D01*
X11040000Y35269397D01*
X11024628Y35346676D01*
X11010825Y35380000D01*
X11046725Y35380000D01*
X11166357Y35364250D01*
X11274786Y35319337D01*
X11367893Y35247893D01*
X11439337Y35154786D01*
X11484250Y35046357D01*
X11500000Y34926725D01*
X11500000Y33558743D01*
X11484469Y33439933D01*
X11440168Y33332137D01*
X11367663Y33236741D01*
X10681363Y32542816D01*
X10674628Y32576676D01*
X10644475Y32649471D01*
X10600700Y32714985D01*
X10544985Y32770700D01*
X10479471Y32814475D01*
X10406676Y32844628D01*
X10329397Y32860000D01*
X10250603Y32860000D01*
X10173324Y32844628D01*
X10100529Y32814475D01*
X10035015Y32770700D01*
X9979300Y32714985D01*
X9935525Y32649471D01*
X9905372Y32576676D01*
X9890000Y32499397D01*
X9890000Y32420603D01*
X9905372Y32343324D01*
X9935525Y32270529D01*
X9979300Y32205015D01*
X10035015Y32149300D01*
X10100529Y32105525D01*
X10173324Y32075372D01*
X10211538Y32067771D01*
X9859951Y31712277D01*
X9766178Y31639202D01*
X9659869Y31593743D01*
X9542258Y31576426D01*
X9357275Y31573237D01*
X9248762Y31584235D01*
X9148651Y31619368D01*
X9057062Y31678593D01*
X7822700Y32702059D01*
X7800700Y32734985D01*
X7744985Y32790700D01*
X7679471Y32834475D01*
X7646555Y32848109D01*
X7395596Y33056191D01*
X7305451Y33156493D01*
X7249676Y33275194D01*
X7230000Y33408610D01*
X7230000Y34840066D01*
X7256676Y34845372D01*
X7329471Y34875525D01*
X7390000Y34915969D01*
X7450529Y34875525D01*
X7523324Y34845372D01*
X7600603Y34830000D01*
X7679397Y34830000D01*
X7756676Y34845372D01*
X7829471Y34875525D01*
X7894985Y34919300D01*
X7950700Y34975015D01*
X7994475Y35040529D01*
X8024628Y35113324D01*
X8040000Y35190603D01*
X8040000Y35269397D01*
X8024628Y35346676D01*
X8010825Y35380000D01*
X10269175Y35380000D01*
X10255372Y35346676D01*
G37*
G04 #@! TD.AperFunction*
G04 #@! TD*
M02*
