G04 #@! TF.GenerationSoftware,KiCad,Pcbnew,5.1.9-1.fc33*
G04 #@! TF.CreationDate,2021-05-01T23:08:35+02:00*
G04 #@! TF.ProjectId,reDIP-SX,72654449-502d-4535-982e-6b696361645f,0.2*
G04 #@! TF.SameCoordinates,PX5e28010PY8011a50*
G04 #@! TF.FileFunction,Soldermask,Top*
G04 #@! TF.FilePolarity,Negative*
%FSLAX46Y46*%
G04 Gerber Fmt 4.6, Leading zero omitted, Abs format (unit mm)*
G04 Created by KiCad (PCBNEW 5.1.9-1.fc33) date 2021-05-01 23:08:35*
%MOMM*%
%LPD*%
G01*
G04 APERTURE LIST*
%ADD10O,1.300000X2.600000*%
%ADD11O,1.300000X2.300000*%
%ADD12O,0.700000X0.700000*%
%ADD13O,0.950000X0.700000*%
%ADD14C,0.300000*%
%ADD15C,0.350000*%
%ADD16C,0.250000*%
%ADD17C,1.700000*%
G04 APERTURE END LIST*
G04 #@! TO.C,C28*
G36*
G01*
X3953327Y19070104D02*
X4130104Y18893327D01*
G75*
G02*
X4130104Y18716551I-88388J-88388D01*
G01*
X3910901Y18497348D01*
G75*
G02*
X3734125Y18497348I-88388J88388D01*
G01*
X3557348Y18674125D01*
G75*
G02*
X3557348Y18850901I88388J88388D01*
G01*
X3776551Y19070104D01*
G75*
G02*
X3953327Y19070104I88388J-88388D01*
G01*
G37*
G36*
G01*
X4405875Y19522652D02*
X4582652Y19345875D01*
G75*
G02*
X4582652Y19169099I-88388J-88388D01*
G01*
X4363449Y18949896D01*
G75*
G02*
X4186673Y18949896I-88388J88388D01*
G01*
X4009896Y19126673D01*
G75*
G02*
X4009896Y19303449I88388J88388D01*
G01*
X4229099Y19522652D01*
G75*
G02*
X4405875Y19522652I88388J-88388D01*
G01*
G37*
G04 #@! TD*
G04 #@! TO.C,U11*
G36*
G01*
X13821370Y15967868D02*
X13962792Y16109290D01*
G75*
G02*
X14104214Y16109290I70711J-70711D01*
G01*
X14528478Y15685026D01*
G75*
G02*
X14528478Y15543604I-70711J-70711D01*
G01*
X14387056Y15402182D01*
G75*
G02*
X14245634Y15402182I-70711J70711D01*
G01*
X13821370Y15826446D01*
G75*
G02*
X13821370Y15967868I70711J70711D01*
G01*
G37*
G36*
G01*
X13467817Y15614315D02*
X13609239Y15755737D01*
G75*
G02*
X13750661Y15755737I70711J-70711D01*
G01*
X14174925Y15331473D01*
G75*
G02*
X14174925Y15190051I-70711J-70711D01*
G01*
X14033503Y15048629D01*
G75*
G02*
X13892081Y15048629I-70711J70711D01*
G01*
X13467817Y15472893D01*
G75*
G02*
X13467817Y15614315I70711J70711D01*
G01*
G37*
G36*
G01*
X13114263Y15260761D02*
X13255685Y15402183D01*
G75*
G02*
X13397107Y15402183I70711J-70711D01*
G01*
X13821371Y14977919D01*
G75*
G02*
X13821371Y14836497I-70711J-70711D01*
G01*
X13679949Y14695075D01*
G75*
G02*
X13538527Y14695075I-70711J70711D01*
G01*
X13114263Y15119339D01*
G75*
G02*
X13114263Y15260761I70711J70711D01*
G01*
G37*
G36*
G01*
X12760710Y14907208D02*
X12902132Y15048630D01*
G75*
G02*
X13043554Y15048630I70711J-70711D01*
G01*
X13467818Y14624366D01*
G75*
G02*
X13467818Y14482944I-70711J-70711D01*
G01*
X13326396Y14341522D01*
G75*
G02*
X13184974Y14341522I-70711J70711D01*
G01*
X12760710Y14765786D01*
G75*
G02*
X12760710Y14907208I70711J70711D01*
G01*
G37*
G36*
G01*
X10851522Y16816396D02*
X10992944Y16957818D01*
G75*
G02*
X11134366Y16957818I70711J-70711D01*
G01*
X11558630Y16533554D01*
G75*
G02*
X11558630Y16392132I-70711J-70711D01*
G01*
X11417208Y16250710D01*
G75*
G02*
X11275786Y16250710I-70711J70711D01*
G01*
X10851522Y16674974D01*
G75*
G02*
X10851522Y16816396I70711J70711D01*
G01*
G37*
G36*
G01*
X11205075Y17169949D02*
X11346497Y17311371D01*
G75*
G02*
X11487919Y17311371I70711J-70711D01*
G01*
X11912183Y16887107D01*
G75*
G02*
X11912183Y16745685I-70711J-70711D01*
G01*
X11770761Y16604263D01*
G75*
G02*
X11629339Y16604263I-70711J70711D01*
G01*
X11205075Y17028527D01*
G75*
G02*
X11205075Y17169949I70711J70711D01*
G01*
G37*
G36*
G01*
X11558629Y17523503D02*
X11700051Y17664925D01*
G75*
G02*
X11841473Y17664925I70711J-70711D01*
G01*
X12265737Y17240661D01*
G75*
G02*
X12265737Y17099239I-70711J-70711D01*
G01*
X12124315Y16957817D01*
G75*
G02*
X11982893Y16957817I-70711J70711D01*
G01*
X11558629Y17382081D01*
G75*
G02*
X11558629Y17523503I70711J70711D01*
G01*
G37*
G36*
G01*
X11912182Y17877056D02*
X12053604Y18018478D01*
G75*
G02*
X12195026Y18018478I70711J-70711D01*
G01*
X12619290Y17594214D01*
G75*
G02*
X12619290Y17452792I-70711J-70711D01*
G01*
X12477868Y17311370D01*
G75*
G02*
X12336446Y17311370I-70711J70711D01*
G01*
X11912182Y17735634D01*
G75*
G02*
X11912182Y17877056I70711J70711D01*
G01*
G37*
G04 #@! TD*
G04 #@! TO.C,R10*
G36*
G01*
X6473327Y26880104D02*
X6650104Y26703327D01*
G75*
G02*
X6650104Y26526551I-88388J-88388D01*
G01*
X6430901Y26307348D01*
G75*
G02*
X6254125Y26307348I-88388J88388D01*
G01*
X6077348Y26484125D01*
G75*
G02*
X6077348Y26660901I88388J88388D01*
G01*
X6296551Y26880104D01*
G75*
G02*
X6473327Y26880104I88388J-88388D01*
G01*
G37*
G36*
G01*
X6925875Y27332652D02*
X7102652Y27155875D01*
G75*
G02*
X7102652Y26979099I-88388J-88388D01*
G01*
X6883449Y26759896D01*
G75*
G02*
X6706673Y26759896I-88388J88388D01*
G01*
X6529896Y26936673D01*
G75*
G02*
X6529896Y27113449I88388J88388D01*
G01*
X6749099Y27332652D01*
G75*
G02*
X6925875Y27332652I88388J-88388D01*
G01*
G37*
G04 #@! TD*
G04 #@! TO.C,J1*
G36*
G01*
X6100000Y34959400D02*
X6100000Y34020600D01*
G75*
G02*
X6019400Y33940000I-80600J0D01*
G01*
X5560600Y33940000D01*
G75*
G02*
X5480000Y34020600I0J80600D01*
G01*
X5480000Y34959400D01*
G75*
G02*
X5560600Y35040000I80600J0D01*
G01*
X6019400Y35040000D01*
G75*
G02*
X6100000Y34959400I0J-80600D01*
G01*
G37*
G36*
G01*
X6850000Y34959400D02*
X6850000Y34020600D01*
G75*
G02*
X6769400Y33940000I-80600J0D01*
G01*
X6310600Y33940000D01*
G75*
G02*
X6230000Y34020600I0J80600D01*
G01*
X6230000Y34959400D01*
G75*
G02*
X6310600Y35040000I80600J0D01*
G01*
X6769400Y35040000D01*
G75*
G02*
X6850000Y34959400I0J-80600D01*
G01*
G37*
G36*
G01*
X11550000Y34959400D02*
X11550000Y34020600D01*
G75*
G02*
X11469400Y33940000I-80600J0D01*
G01*
X11010600Y33940000D01*
G75*
G02*
X10930000Y34020600I0J80600D01*
G01*
X10930000Y34959400D01*
G75*
G02*
X11010600Y35040000I80600J0D01*
G01*
X11469400Y35040000D01*
G75*
G02*
X11550000Y34959400I0J-80600D01*
G01*
G37*
G36*
G01*
X12300000Y34959400D02*
X12300000Y34020600D01*
G75*
G02*
X12219400Y33940000I-80600J0D01*
G01*
X11760600Y33940000D01*
G75*
G02*
X11680000Y34020600I0J80600D01*
G01*
X11680000Y34959400D01*
G75*
G02*
X11760600Y35040000I80600J0D01*
G01*
X12219400Y35040000D01*
G75*
G02*
X12300000Y34959400I0J-80600D01*
G01*
G37*
G36*
G01*
X10840000Y39520000D02*
X10840000Y37860000D01*
G75*
G02*
X10620000Y37640000I-220000J0D01*
G01*
X9960000Y37640000D01*
G75*
G02*
X9740000Y37860000I0J220000D01*
G01*
X9740000Y39520000D01*
G75*
G02*
X9960000Y39740000I220000J0D01*
G01*
X10620000Y39740000D01*
G75*
G02*
X10840000Y39520000I0J-220000D01*
G01*
G37*
G36*
G01*
X8040000Y39520000D02*
X8040000Y37860000D01*
G75*
G02*
X7820000Y37640000I-220000J0D01*
G01*
X7160000Y37640000D01*
G75*
G02*
X6940000Y37860000I0J220000D01*
G01*
X6940000Y39520000D01*
G75*
G02*
X7160000Y39740000I220000J0D01*
G01*
X7820000Y39740000D01*
G75*
G02*
X8040000Y39520000I0J-220000D01*
G01*
G37*
D10*
X13210000Y38690000D03*
X4570000Y38690000D03*
D11*
X13210000Y34865000D03*
X4570000Y34865000D03*
D12*
X11890000Y35590000D03*
D13*
X5890000Y35590000D03*
G36*
G01*
X12300000Y34959400D02*
X12300000Y34020600D01*
G75*
G02*
X12219400Y33940000I-80600J0D01*
G01*
X11760600Y33940000D01*
G75*
G02*
X11680000Y34020600I0J80600D01*
G01*
X11680000Y34959400D01*
G75*
G02*
X11760600Y35040000I80600J0D01*
G01*
X12219400Y35040000D01*
G75*
G02*
X12300000Y34959400I0J-80600D01*
G01*
G37*
G36*
G01*
X11550000Y34959400D02*
X11550000Y34020600D01*
G75*
G02*
X11469400Y33940000I-80600J0D01*
G01*
X11010600Y33940000D01*
G75*
G02*
X10930000Y34020600I0J80600D01*
G01*
X10930000Y34959400D01*
G75*
G02*
X11010600Y35040000I80600J0D01*
G01*
X11469400Y35040000D01*
G75*
G02*
X11550000Y34959400I0J-80600D01*
G01*
G37*
G36*
G01*
X6100000Y34959400D02*
X6100000Y34020600D01*
G75*
G02*
X6019400Y33940000I-80600J0D01*
G01*
X5560600Y33940000D01*
G75*
G02*
X5480000Y34020600I0J80600D01*
G01*
X5480000Y34959400D01*
G75*
G02*
X5560600Y35040000I80600J0D01*
G01*
X6019400Y35040000D01*
G75*
G02*
X6100000Y34959400I0J-80600D01*
G01*
G37*
G36*
G01*
X6850000Y34959400D02*
X6850000Y34020600D01*
G75*
G02*
X6769400Y33940000I-80600J0D01*
G01*
X6310600Y33940000D01*
G75*
G02*
X6230000Y34020600I0J80600D01*
G01*
X6230000Y34959400D01*
G75*
G02*
X6310600Y35040000I80600J0D01*
G01*
X6769400Y35040000D01*
G75*
G02*
X6850000Y34959400I0J-80600D01*
G01*
G37*
G36*
G01*
X10825000Y34947500D02*
X10825000Y34032500D01*
G75*
G02*
X10732500Y33940000I-92500J0D01*
G01*
X10547500Y33940000D01*
G75*
G02*
X10455000Y34032500I0J92500D01*
G01*
X10455000Y34947500D01*
G75*
G02*
X10547500Y35040000I92500J0D01*
G01*
X10732500Y35040000D01*
G75*
G02*
X10825000Y34947500I0J-92500D01*
G01*
G37*
G36*
G01*
X10325000Y34947500D02*
X10325000Y34032500D01*
G75*
G02*
X10232500Y33940000I-92500J0D01*
G01*
X10047500Y33940000D01*
G75*
G02*
X9955000Y34032500I0J92500D01*
G01*
X9955000Y34947500D01*
G75*
G02*
X10047500Y35040000I92500J0D01*
G01*
X10232500Y35040000D01*
G75*
G02*
X10325000Y34947500I0J-92500D01*
G01*
G37*
G36*
G01*
X9825000Y34947500D02*
X9825000Y34032500D01*
G75*
G02*
X9732500Y33940000I-92500J0D01*
G01*
X9547500Y33940000D01*
G75*
G02*
X9455000Y34032500I0J92500D01*
G01*
X9455000Y34947500D01*
G75*
G02*
X9547500Y35040000I92500J0D01*
G01*
X9732500Y35040000D01*
G75*
G02*
X9825000Y34947500I0J-92500D01*
G01*
G37*
G36*
G01*
X9325000Y34947500D02*
X9325000Y34032500D01*
G75*
G02*
X9232500Y33940000I-92500J0D01*
G01*
X9047500Y33940000D01*
G75*
G02*
X8955000Y34032500I0J92500D01*
G01*
X8955000Y34947500D01*
G75*
G02*
X9047500Y35040000I92500J0D01*
G01*
X9232500Y35040000D01*
G75*
G02*
X9325000Y34947500I0J-92500D01*
G01*
G37*
G36*
G01*
X8825000Y34947500D02*
X8825000Y34032500D01*
G75*
G02*
X8732500Y33940000I-92500J0D01*
G01*
X8547500Y33940000D01*
G75*
G02*
X8455000Y34032500I0J92500D01*
G01*
X8455000Y34947500D01*
G75*
G02*
X8547500Y35040000I92500J0D01*
G01*
X8732500Y35040000D01*
G75*
G02*
X8825000Y34947500I0J-92500D01*
G01*
G37*
G36*
G01*
X8325000Y34947500D02*
X8325000Y34032500D01*
G75*
G02*
X8232500Y33940000I-92500J0D01*
G01*
X8047500Y33940000D01*
G75*
G02*
X7955000Y34032500I0J92500D01*
G01*
X7955000Y34947500D01*
G75*
G02*
X8047500Y35040000I92500J0D01*
G01*
X8232500Y35040000D01*
G75*
G02*
X8325000Y34947500I0J-92500D01*
G01*
G37*
G36*
G01*
X7825000Y34947500D02*
X7825000Y34032500D01*
G75*
G02*
X7732500Y33940000I-92500J0D01*
G01*
X7547500Y33940000D01*
G75*
G02*
X7455000Y34032500I0J92500D01*
G01*
X7455000Y34947500D01*
G75*
G02*
X7547500Y35040000I92500J0D01*
G01*
X7732500Y35040000D01*
G75*
G02*
X7825000Y34947500I0J-92500D01*
G01*
G37*
G36*
G01*
X7325000Y34947500D02*
X7325000Y34032500D01*
G75*
G02*
X7232500Y33940000I-92500J0D01*
G01*
X7047500Y33940000D01*
G75*
G02*
X6955000Y34032500I0J92500D01*
G01*
X6955000Y34947500D01*
G75*
G02*
X7047500Y35040000I92500J0D01*
G01*
X7232500Y35040000D01*
G75*
G02*
X7325000Y34947500I0J-92500D01*
G01*
G37*
G04 #@! TD*
G04 #@! TO.C,Q2*
G36*
G01*
X2970884Y15980590D02*
X2822392Y16129082D01*
G75*
G02*
X2822392Y16228076I49497J49497D01*
G01*
X3076950Y16482634D01*
G75*
G02*
X3175944Y16482634I49497J-49497D01*
G01*
X3324436Y16334142D01*
G75*
G02*
X3324436Y16235148I-49497J-49497D01*
G01*
X3069878Y15980590D01*
G75*
G02*
X2970884Y15980590I-49497J49497D01*
G01*
G37*
G36*
G01*
X3289082Y15662392D02*
X3140590Y15810884D01*
G75*
G02*
X3140590Y15909878I49497J49497D01*
G01*
X3395148Y16164436D01*
G75*
G02*
X3494142Y16164436I49497J-49497D01*
G01*
X3642634Y16015944D01*
G75*
G02*
X3642634Y15916950I-49497J-49497D01*
G01*
X3388076Y15662392D01*
G75*
G02*
X3289082Y15662392I-49497J49497D01*
G01*
G37*
G36*
G01*
X3789359Y16152062D02*
X3312062Y16629359D01*
G75*
G02*
X3312062Y16717747I44194J44194D01*
G01*
X3577227Y16982912D01*
G75*
G02*
X3665615Y16982912I44194J-44194D01*
G01*
X4142912Y16505615D01*
G75*
G02*
X4142912Y16417227I-44194J-44194D01*
G01*
X3877747Y16152062D01*
G75*
G02*
X3789359Y16152062I-44194J44194D01*
G01*
G37*
G04 #@! TD*
G04 #@! TO.C,Q1*
G36*
G01*
X3084990Y8132808D02*
X2917052Y7964870D01*
G75*
G02*
X2749114Y7964870I-83969J83969D01*
G01*
X2492788Y8221196D01*
G75*
G02*
X2492788Y8389134I83969J83969D01*
G01*
X2660726Y8557072D01*
G75*
G02*
X2828664Y8557072I83969J-83969D01*
G01*
X3084990Y8300746D01*
G75*
G02*
X3084990Y8132808I-83969J-83969D01*
G01*
G37*
G36*
G01*
X3845130Y8892948D02*
X3677192Y8725010D01*
G75*
G02*
X3509254Y8725010I-83969J83969D01*
G01*
X3252928Y8981336D01*
G75*
G02*
X3252928Y9149274I83969J83969D01*
G01*
X3420866Y9317212D01*
G75*
G02*
X3588804Y9317212I83969J-83969D01*
G01*
X3845130Y9060886D01*
G75*
G02*
X3845130Y8892948I-83969J-83969D01*
G01*
G37*
G36*
G01*
X4759950Y7191471D02*
X4618529Y7050050D01*
G75*
G02*
X4477107Y7050050I-70711J70711D01*
G01*
X4088198Y7438959D01*
G75*
G02*
X4088198Y7580381I70711J70711D01*
G01*
X4229619Y7721802D01*
G75*
G02*
X4371041Y7721802I70711J-70711D01*
G01*
X4759950Y7332893D01*
G75*
G02*
X4759950Y7191471I-70711J-70711D01*
G01*
G37*
G36*
G01*
X3451802Y8499619D02*
X3310381Y8358198D01*
G75*
G02*
X3168959Y8358198I-70711J70711D01*
G01*
X2780050Y8747107D01*
G75*
G02*
X2780050Y8888529I70711J70711D01*
G01*
X2921471Y9029950D01*
G75*
G02*
X3062893Y9029950I70711J-70711D01*
G01*
X3451802Y8641041D01*
G75*
G02*
X3451802Y8499619I-70711J-70711D01*
G01*
G37*
G36*
G01*
X5047212Y7690866D02*
X4879274Y7522928D01*
G75*
G02*
X4711336Y7522928I-83969J83969D01*
G01*
X4455010Y7779254D01*
G75*
G02*
X4455010Y7947192I83969J83969D01*
G01*
X4622948Y8115130D01*
G75*
G02*
X4790886Y8115130I83969J-83969D01*
G01*
X5047212Y7858804D01*
G75*
G02*
X5047212Y7690866I-83969J-83969D01*
G01*
G37*
G36*
G01*
X4287072Y6930726D02*
X4119134Y6762788D01*
G75*
G02*
X3951196Y6762788I-83969J83969D01*
G01*
X3694870Y7019114D01*
G75*
G02*
X3694870Y7187052I83969J83969D01*
G01*
X3862808Y7354990D01*
G75*
G02*
X4030746Y7354990I83969J-83969D01*
G01*
X4287072Y7098664D01*
G75*
G02*
X4287072Y6930726I-83969J-83969D01*
G01*
G37*
G04 #@! TD*
G04 #@! TO.C,U3*
G36*
G01*
X8361750Y30007500D02*
X7861250Y30007500D01*
G75*
G02*
X7780000Y30088750I0J81250D01*
G01*
X7780000Y30251250D01*
G75*
G02*
X7861250Y30332500I81250J0D01*
G01*
X8361750Y30332500D01*
G75*
G02*
X8443000Y30251250I0J-81250D01*
G01*
X8443000Y30088750D01*
G75*
G02*
X8361750Y30007500I-81250J0D01*
G01*
G37*
G36*
G01*
X8361750Y30407500D02*
X7861250Y30407500D01*
G75*
G02*
X7780000Y30488750I0J81250D01*
G01*
X7780000Y30651250D01*
G75*
G02*
X7861250Y30732500I81250J0D01*
G01*
X8361750Y30732500D01*
G75*
G02*
X8443000Y30651250I0J-81250D01*
G01*
X8443000Y30488750D01*
G75*
G02*
X8361750Y30407500I-81250J0D01*
G01*
G37*
G36*
G01*
X8361750Y30807500D02*
X7861250Y30807500D01*
G75*
G02*
X7780000Y30888750I0J81250D01*
G01*
X7780000Y31051250D01*
G75*
G02*
X7861250Y31132500I81250J0D01*
G01*
X8361750Y31132500D01*
G75*
G02*
X8443000Y31051250I0J-81250D01*
G01*
X8443000Y30888750D01*
G75*
G02*
X8361750Y30807500I-81250J0D01*
G01*
G37*
G36*
G01*
X8842500Y31388750D02*
X8842500Y30888250D01*
G75*
G02*
X8761250Y30807000I-81250J0D01*
G01*
X8598750Y30807000D01*
G75*
G02*
X8517500Y30888250I0J81250D01*
G01*
X8517500Y31388750D01*
G75*
G02*
X8598750Y31470000I81250J0D01*
G01*
X8761250Y31470000D01*
G75*
G02*
X8842500Y31388750I0J-81250D01*
G01*
G37*
G36*
G01*
X9242500Y31388750D02*
X9242500Y30888250D01*
G75*
G02*
X9161250Y30807000I-81250J0D01*
G01*
X8998750Y30807000D01*
G75*
G02*
X8917500Y30888250I0J81250D01*
G01*
X8917500Y31388750D01*
G75*
G02*
X8998750Y31470000I81250J0D01*
G01*
X9161250Y31470000D01*
G75*
G02*
X9242500Y31388750I0J-81250D01*
G01*
G37*
G36*
G01*
X9898750Y30807500D02*
X9398250Y30807500D01*
G75*
G02*
X9317000Y30888750I0J81250D01*
G01*
X9317000Y31051250D01*
G75*
G02*
X9398250Y31132500I81250J0D01*
G01*
X9898750Y31132500D01*
G75*
G02*
X9980000Y31051250I0J-81250D01*
G01*
X9980000Y30888750D01*
G75*
G02*
X9898750Y30807500I-81250J0D01*
G01*
G37*
G36*
G01*
X9898750Y30407500D02*
X9398250Y30407500D01*
G75*
G02*
X9317000Y30488750I0J81250D01*
G01*
X9317000Y30651250D01*
G75*
G02*
X9398250Y30732500I81250J0D01*
G01*
X9898750Y30732500D01*
G75*
G02*
X9980000Y30651250I0J-81250D01*
G01*
X9980000Y30488750D01*
G75*
G02*
X9898750Y30407500I-81250J0D01*
G01*
G37*
G36*
G01*
X9898750Y30007500D02*
X9398250Y30007500D01*
G75*
G02*
X9317000Y30088750I0J81250D01*
G01*
X9317000Y30251250D01*
G75*
G02*
X9398250Y30332500I81250J0D01*
G01*
X9898750Y30332500D01*
G75*
G02*
X9980000Y30251250I0J-81250D01*
G01*
X9980000Y30088750D01*
G75*
G02*
X9898750Y30007500I-81250J0D01*
G01*
G37*
G36*
G01*
X9242500Y30251750D02*
X9242500Y29751250D01*
G75*
G02*
X9161250Y29670000I-81250J0D01*
G01*
X8998750Y29670000D01*
G75*
G02*
X8917500Y29751250I0J81250D01*
G01*
X8917500Y30251750D01*
G75*
G02*
X8998750Y30333000I81250J0D01*
G01*
X9161250Y30333000D01*
G75*
G02*
X9242500Y30251750I0J-81250D01*
G01*
G37*
G36*
G01*
X8842500Y30351750D02*
X8842500Y29751250D01*
G75*
G02*
X8761250Y29670000I-81250J0D01*
G01*
X8598750Y29670000D01*
G75*
G02*
X8517500Y29751250I0J81250D01*
G01*
X8517500Y30351750D01*
G75*
G02*
X8598750Y30433000I81250J0D01*
G01*
X8761250Y30433000D01*
G75*
G02*
X8842500Y30351750I0J-81250D01*
G01*
G37*
G04 #@! TD*
G04 #@! TO.C,D3*
G36*
G01*
X10465000Y33170000D02*
X10465000Y32710000D01*
G75*
G02*
X10395000Y32640000I-70000J0D01*
G01*
X10185000Y32640000D01*
G75*
G02*
X10115000Y32710000I0J70000D01*
G01*
X10115000Y33170000D01*
G75*
G02*
X10185000Y33240000I70000J0D01*
G01*
X10395000Y33240000D01*
G75*
G02*
X10465000Y33170000I0J-70000D01*
G01*
G37*
G36*
G01*
X8065000Y33170000D02*
X8065000Y32810000D01*
G75*
G02*
X7995000Y32740000I-70000J0D01*
G01*
X7785000Y32740000D01*
G75*
G02*
X7715000Y32810000I0J70000D01*
G01*
X7715000Y33170000D01*
G75*
G02*
X7785000Y33240000I70000J0D01*
G01*
X7995000Y33240000D01*
G75*
G02*
X8065000Y33170000I0J-70000D01*
G01*
G37*
G36*
G01*
X10065000Y33170000D02*
X10065000Y32810000D01*
G75*
G02*
X9995000Y32740000I-70000J0D01*
G01*
X9785000Y32740000D01*
G75*
G02*
X9715000Y32810000I0J70000D01*
G01*
X9715000Y33170000D01*
G75*
G02*
X9785000Y33240000I70000J0D01*
G01*
X9995000Y33240000D01*
G75*
G02*
X10065000Y33170000I0J-70000D01*
G01*
G37*
G36*
G01*
X8465000Y33170000D02*
X8465000Y32810000D01*
G75*
G02*
X8395000Y32740000I-70000J0D01*
G01*
X8185000Y32740000D01*
G75*
G02*
X8115000Y32810000I0J70000D01*
G01*
X8115000Y33170000D01*
G75*
G02*
X8185000Y33240000I70000J0D01*
G01*
X8395000Y33240000D01*
G75*
G02*
X8465000Y33170000I0J-70000D01*
G01*
G37*
G36*
G01*
X9665000Y33170000D02*
X9665000Y32810000D01*
G75*
G02*
X9595000Y32740000I-70000J0D01*
G01*
X9385000Y32740000D01*
G75*
G02*
X9315000Y32810000I0J70000D01*
G01*
X9315000Y33170000D01*
G75*
G02*
X9385000Y33240000I70000J0D01*
G01*
X9595000Y33240000D01*
G75*
G02*
X9665000Y33170000I0J-70000D01*
G01*
G37*
G36*
G01*
X8865000Y33170000D02*
X8865000Y32810000D01*
G75*
G02*
X8795000Y32740000I-70000J0D01*
G01*
X8585000Y32740000D01*
G75*
G02*
X8515000Y32810000I0J70000D01*
G01*
X8515000Y33170000D01*
G75*
G02*
X8585000Y33240000I70000J0D01*
G01*
X8795000Y33240000D01*
G75*
G02*
X8865000Y33170000I0J-70000D01*
G01*
G37*
G36*
G01*
X9265000Y33170000D02*
X9265000Y32810000D01*
G75*
G02*
X9195000Y32740000I-70000J0D01*
G01*
X8985000Y32740000D01*
G75*
G02*
X8915000Y32810000I0J70000D01*
G01*
X8915000Y33170000D01*
G75*
G02*
X8985000Y33240000I70000J0D01*
G01*
X9195000Y33240000D01*
G75*
G02*
X9265000Y33170000I0J-70000D01*
G01*
G37*
G36*
G01*
X7665000Y33170000D02*
X7665000Y32810000D01*
G75*
G02*
X7595000Y32740000I-70000J0D01*
G01*
X7385000Y32740000D01*
G75*
G02*
X7315000Y32810000I0J70000D01*
G01*
X7315000Y33170000D01*
G75*
G02*
X7385000Y33240000I70000J0D01*
G01*
X7595000Y33240000D01*
G75*
G02*
X7665000Y33170000I0J-70000D01*
G01*
G37*
G36*
G01*
X9770000Y32570000D02*
X9770000Y32060000D01*
G75*
G02*
X9650000Y31940000I-120000J0D01*
G01*
X9290000Y31940000D01*
G75*
G02*
X9170000Y32060000I0J120000D01*
G01*
X9170000Y32570000D01*
G75*
G02*
X9290000Y32690000I120000J0D01*
G01*
X9650000Y32690000D01*
G75*
G02*
X9770000Y32570000I0J-120000D01*
G01*
G37*
G36*
G01*
X8610000Y32570000D02*
X8610000Y32060000D01*
G75*
G02*
X8490000Y31940000I-120000J0D01*
G01*
X8130000Y31940000D01*
G75*
G02*
X8010000Y32060000I0J120000D01*
G01*
X8010000Y32570000D01*
G75*
G02*
X8130000Y32690000I120000J0D01*
G01*
X8490000Y32690000D01*
G75*
G02*
X8610000Y32570000I0J-120000D01*
G01*
G37*
G04 #@! TD*
G04 #@! TO.C,AE1*
G36*
G01*
X10290000Y2572500D02*
X10290000Y3877500D01*
G75*
G02*
X10362500Y3950000I72500J0D01*
G01*
X11667500Y3950000D01*
G75*
G02*
X11740000Y3877500I0J-72500D01*
G01*
X11740000Y2572500D01*
G75*
G02*
X11667500Y2500000I-72500J0D01*
G01*
X10362500Y2500000D01*
G75*
G02*
X10290000Y2572500I0J72500D01*
G01*
G37*
G36*
G01*
X12440000Y2572500D02*
X12440000Y3877500D01*
G75*
G02*
X12512500Y3950000I72500J0D01*
G01*
X13817500Y3950000D01*
G75*
G02*
X13890000Y3877500I0J-72500D01*
G01*
X13890000Y2572500D01*
G75*
G02*
X13817500Y2500000I-72500J0D01*
G01*
X12512500Y2500000D01*
G75*
G02*
X12440000Y2572500I0J72500D01*
G01*
G37*
G36*
G01*
X12440000Y422500D02*
X12440000Y1727500D01*
G75*
G02*
X12512500Y1800000I72500J0D01*
G01*
X13817500Y1800000D01*
G75*
G02*
X13890000Y1727500I0J-72500D01*
G01*
X13890000Y422500D01*
G75*
G02*
X13817500Y350000I-72500J0D01*
G01*
X12512500Y350000D01*
G75*
G02*
X12440000Y422500I0J72500D01*
G01*
G37*
G36*
G01*
X10290000Y422500D02*
X10290000Y1727500D01*
G75*
G02*
X10362500Y1800000I72500J0D01*
G01*
X11667500Y1800000D01*
G75*
G02*
X11740000Y1727500I0J-72500D01*
G01*
X11740000Y422500D01*
G75*
G02*
X11667500Y350000I-72500J0D01*
G01*
X10362500Y350000D01*
G75*
G02*
X10290000Y422500I0J72500D01*
G01*
G37*
G04 #@! TD*
D14*
G04 #@! TO.C,U7*
X12240000Y32940000D03*
X11840000Y32940000D03*
X11440000Y32940000D03*
X12240000Y32540000D03*
X11840000Y32540000D03*
X11440000Y32540000D03*
X12240000Y32140000D03*
X11840000Y32140000D03*
X11440000Y32140000D03*
G04 #@! TD*
D15*
G04 #@! TO.C,U1*
G36*
X7379039Y30710245D02*
G01*
X7376194Y30700866D01*
X7371573Y30692221D01*
X7365355Y30684645D01*
X7357779Y30678427D01*
X7349134Y30673806D01*
X7339755Y30670961D01*
X7330000Y30670000D01*
X7130000Y30670000D01*
X7120245Y30670961D01*
X7110866Y30673806D01*
X7102221Y30678427D01*
X7094645Y30684645D01*
X6944645Y30834645D01*
X6938427Y30842221D01*
X6933806Y30850866D01*
X6930961Y30860245D01*
X6930000Y30870000D01*
X6930000Y30970000D01*
X6930961Y30979755D01*
X6933806Y30989134D01*
X6938427Y30997779D01*
X6944645Y31005355D01*
X6952221Y31011573D01*
X6960866Y31016194D01*
X6970245Y31019039D01*
X6980000Y31020000D01*
X7330000Y31020000D01*
X7339755Y31019039D01*
X7349134Y31016194D01*
X7357779Y31011573D01*
X7365355Y31005355D01*
X7371573Y30997779D01*
X7376194Y30989134D01*
X7379039Y30979755D01*
X7380000Y30970000D01*
X7380000Y30720000D01*
X7379039Y30710245D01*
G37*
G36*
X6930961Y30179755D02*
G01*
X6933806Y30189134D01*
X6938427Y30197779D01*
X6944645Y30205355D01*
X7094645Y30355355D01*
X7102221Y30361573D01*
X7110866Y30366194D01*
X7120245Y30369039D01*
X7130000Y30370000D01*
X7330000Y30370000D01*
X7339755Y30369039D01*
X7349134Y30366194D01*
X7357779Y30361573D01*
X7365355Y30355355D01*
X7371573Y30347779D01*
X7376194Y30339134D01*
X7379039Y30329755D01*
X7380000Y30320000D01*
X7380000Y30070000D01*
X7379039Y30060245D01*
X7376194Y30050866D01*
X7371573Y30042221D01*
X7365355Y30034645D01*
X7357779Y30028427D01*
X7349134Y30023806D01*
X7339755Y30020961D01*
X7330000Y30020000D01*
X6980000Y30020000D01*
X6970245Y30020961D01*
X6960866Y30023806D01*
X6952221Y30028427D01*
X6944645Y30034645D01*
X6938427Y30042221D01*
X6933806Y30050866D01*
X6930961Y30060245D01*
X6930000Y30070000D01*
X6930000Y30170000D01*
X6930961Y30179755D01*
G37*
G36*
X6529039Y30860245D02*
G01*
X6526194Y30850866D01*
X6521573Y30842221D01*
X6515355Y30834645D01*
X6365355Y30684645D01*
X6357779Y30678427D01*
X6349134Y30673806D01*
X6339755Y30670961D01*
X6330000Y30670000D01*
X6130000Y30670000D01*
X6120245Y30670961D01*
X6110866Y30673806D01*
X6102221Y30678427D01*
X6094645Y30684645D01*
X6088427Y30692221D01*
X6083806Y30700866D01*
X6080961Y30710245D01*
X6080000Y30720000D01*
X6080000Y30970000D01*
X6080961Y30979755D01*
X6083806Y30989134D01*
X6088427Y30997779D01*
X6094645Y31005355D01*
X6102221Y31011573D01*
X6110866Y31016194D01*
X6120245Y31019039D01*
X6130000Y31020000D01*
X6480000Y31020000D01*
X6489755Y31019039D01*
X6499134Y31016194D01*
X6507779Y31011573D01*
X6515355Y31005355D01*
X6521573Y30997779D01*
X6526194Y30989134D01*
X6529039Y30979755D01*
X6530000Y30970000D01*
X6530000Y30870000D01*
X6529039Y30860245D01*
G37*
G36*
X6080961Y30329755D02*
G01*
X6083806Y30339134D01*
X6088427Y30347779D01*
X6094645Y30355355D01*
X6102221Y30361573D01*
X6110866Y30366194D01*
X6120245Y30369039D01*
X6130000Y30370000D01*
X6330000Y30370000D01*
X6339755Y30369039D01*
X6349134Y30366194D01*
X6357779Y30361573D01*
X6365355Y30355355D01*
X6515355Y30205355D01*
X6521573Y30197779D01*
X6526194Y30189134D01*
X6529039Y30179755D01*
X6530000Y30170000D01*
X6530000Y30070000D01*
X6529039Y30060245D01*
X6526194Y30050866D01*
X6521573Y30042221D01*
X6515355Y30034645D01*
X6507779Y30028427D01*
X6499134Y30023806D01*
X6489755Y30020961D01*
X6480000Y30020000D01*
X6130000Y30020000D01*
X6120245Y30020961D01*
X6110866Y30023806D01*
X6102221Y30028427D01*
X6094645Y30034645D01*
X6088427Y30042221D01*
X6083806Y30050866D01*
X6080961Y30060245D01*
X6080000Y30070000D01*
X6080000Y30320000D01*
X6080961Y30329755D01*
G37*
G36*
G01*
X6694645Y30145234D02*
X6355234Y30484645D01*
G75*
G02*
X6355234Y30555355I35355J35355D01*
G01*
X6694645Y30894766D01*
G75*
G02*
X6765355Y30894766I35355J-35355D01*
G01*
X7104766Y30555355D01*
G75*
G02*
X7104766Y30484645I-35355J-35355D01*
G01*
X6765355Y30145234D01*
G75*
G02*
X6694645Y30145234I-35355J35355D01*
G01*
G37*
G04 #@! TD*
D16*
G04 #@! TO.C,SolderMask D0.25mm*
X4580000Y29040000D03*
G04 #@! TD*
G04 #@! TO.C,SolderMask D0.25mm*
X4830000Y29470000D03*
G04 #@! TD*
G04 #@! TO.C,SolderMask D0.25mm*
X4330000Y29470000D03*
G04 #@! TD*
G04 #@! TO.C,SolderMask D0.25mm*
X5580000Y29040000D03*
G04 #@! TD*
G04 #@! TO.C,SolderMask D0.25mm*
X5080000Y29040000D03*
G04 #@! TD*
G04 #@! TO.C,SolderMask D0.25mm*
X5330000Y29470000D03*
G04 #@! TD*
G04 #@! TO.C,SolderMask D0.25mm*
X4080000Y29040000D03*
G04 #@! TD*
G04 #@! TO.C,SolderMask D0.25mm*
X5830000Y29470000D03*
G04 #@! TD*
G04 #@! TO.C,SolderMask D0.25mm*
X3830000Y29470000D03*
G04 #@! TD*
G04 #@! TO.C,R13*
G36*
G01*
X7196673Y26259896D02*
X7019896Y26436673D01*
G75*
G02*
X7019896Y26613449I88388J88388D01*
G01*
X7239099Y26832652D01*
G75*
G02*
X7415875Y26832652I88388J-88388D01*
G01*
X7592652Y26655875D01*
G75*
G02*
X7592652Y26479099I-88388J-88388D01*
G01*
X7373449Y26259896D01*
G75*
G02*
X7196673Y26259896I-88388J88388D01*
G01*
G37*
G36*
G01*
X6744125Y25807348D02*
X6567348Y25984125D01*
G75*
G02*
X6567348Y26160901I88388J88388D01*
G01*
X6786551Y26380104D01*
G75*
G02*
X6963327Y26380104I88388J-88388D01*
G01*
X7140104Y26203327D01*
G75*
G02*
X7140104Y26026551I-88388J-88388D01*
G01*
X6920901Y25807348D01*
G75*
G02*
X6744125Y25807348I-88388J88388D01*
G01*
G37*
G04 #@! TD*
D17*
G04 #@! TO.C,J5*
X1270000Y26670000D03*
X1270000Y29210000D03*
X1270000Y31750000D03*
X1270000Y34290000D03*
X1270000Y36830000D03*
X1270000Y39370000D03*
G04 #@! TD*
D15*
G04 #@! TO.C,U2*
G36*
X5069039Y30710245D02*
G01*
X5066194Y30700866D01*
X5061573Y30692221D01*
X5055355Y30684645D01*
X5047779Y30678427D01*
X5039134Y30673806D01*
X5029755Y30670961D01*
X5020000Y30670000D01*
X4820000Y30670000D01*
X4810245Y30670961D01*
X4800866Y30673806D01*
X4792221Y30678427D01*
X4784645Y30684645D01*
X4634645Y30834645D01*
X4628427Y30842221D01*
X4623806Y30850866D01*
X4620961Y30860245D01*
X4620000Y30870000D01*
X4620000Y30970000D01*
X4620961Y30979755D01*
X4623806Y30989134D01*
X4628427Y30997779D01*
X4634645Y31005355D01*
X4642221Y31011573D01*
X4650866Y31016194D01*
X4660245Y31019039D01*
X4670000Y31020000D01*
X5020000Y31020000D01*
X5029755Y31019039D01*
X5039134Y31016194D01*
X5047779Y31011573D01*
X5055355Y31005355D01*
X5061573Y30997779D01*
X5066194Y30989134D01*
X5069039Y30979755D01*
X5070000Y30970000D01*
X5070000Y30720000D01*
X5069039Y30710245D01*
G37*
G36*
X4620961Y30179755D02*
G01*
X4623806Y30189134D01*
X4628427Y30197779D01*
X4634645Y30205355D01*
X4784645Y30355355D01*
X4792221Y30361573D01*
X4800866Y30366194D01*
X4810245Y30369039D01*
X4820000Y30370000D01*
X5020000Y30370000D01*
X5029755Y30369039D01*
X5039134Y30366194D01*
X5047779Y30361573D01*
X5055355Y30355355D01*
X5061573Y30347779D01*
X5066194Y30339134D01*
X5069039Y30329755D01*
X5070000Y30320000D01*
X5070000Y30070000D01*
X5069039Y30060245D01*
X5066194Y30050866D01*
X5061573Y30042221D01*
X5055355Y30034645D01*
X5047779Y30028427D01*
X5039134Y30023806D01*
X5029755Y30020961D01*
X5020000Y30020000D01*
X4670000Y30020000D01*
X4660245Y30020961D01*
X4650866Y30023806D01*
X4642221Y30028427D01*
X4634645Y30034645D01*
X4628427Y30042221D01*
X4623806Y30050866D01*
X4620961Y30060245D01*
X4620000Y30070000D01*
X4620000Y30170000D01*
X4620961Y30179755D01*
G37*
G36*
X4219039Y30860245D02*
G01*
X4216194Y30850866D01*
X4211573Y30842221D01*
X4205355Y30834645D01*
X4055355Y30684645D01*
X4047779Y30678427D01*
X4039134Y30673806D01*
X4029755Y30670961D01*
X4020000Y30670000D01*
X3820000Y30670000D01*
X3810245Y30670961D01*
X3800866Y30673806D01*
X3792221Y30678427D01*
X3784645Y30684645D01*
X3778427Y30692221D01*
X3773806Y30700866D01*
X3770961Y30710245D01*
X3770000Y30720000D01*
X3770000Y30970000D01*
X3770961Y30979755D01*
X3773806Y30989134D01*
X3778427Y30997779D01*
X3784645Y31005355D01*
X3792221Y31011573D01*
X3800866Y31016194D01*
X3810245Y31019039D01*
X3820000Y31020000D01*
X4170000Y31020000D01*
X4179755Y31019039D01*
X4189134Y31016194D01*
X4197779Y31011573D01*
X4205355Y31005355D01*
X4211573Y30997779D01*
X4216194Y30989134D01*
X4219039Y30979755D01*
X4220000Y30970000D01*
X4220000Y30870000D01*
X4219039Y30860245D01*
G37*
G36*
X3770961Y30329755D02*
G01*
X3773806Y30339134D01*
X3778427Y30347779D01*
X3784645Y30355355D01*
X3792221Y30361573D01*
X3800866Y30366194D01*
X3810245Y30369039D01*
X3820000Y30370000D01*
X4020000Y30370000D01*
X4029755Y30369039D01*
X4039134Y30366194D01*
X4047779Y30361573D01*
X4055355Y30355355D01*
X4205355Y30205355D01*
X4211573Y30197779D01*
X4216194Y30189134D01*
X4219039Y30179755D01*
X4220000Y30170000D01*
X4220000Y30070000D01*
X4219039Y30060245D01*
X4216194Y30050866D01*
X4211573Y30042221D01*
X4205355Y30034645D01*
X4197779Y30028427D01*
X4189134Y30023806D01*
X4179755Y30020961D01*
X4170000Y30020000D01*
X3820000Y30020000D01*
X3810245Y30020961D01*
X3800866Y30023806D01*
X3792221Y30028427D01*
X3784645Y30034645D01*
X3778427Y30042221D01*
X3773806Y30050866D01*
X3770961Y30060245D01*
X3770000Y30070000D01*
X3770000Y30320000D01*
X3770961Y30329755D01*
G37*
G36*
G01*
X4384645Y30145234D02*
X4045234Y30484645D01*
G75*
G02*
X4045234Y30555355I35355J35355D01*
G01*
X4384645Y30894766D01*
G75*
G02*
X4455355Y30894766I35355J-35355D01*
G01*
X4794766Y30555355D01*
G75*
G02*
X4794766Y30484645I-35355J-35355D01*
G01*
X4455355Y30145234D01*
G75*
G02*
X4384645Y30145234I-35355J35355D01*
G01*
G37*
G04 #@! TD*
G04 #@! TO.C,J9*
G36*
G01*
X2490000Y10315000D02*
X2490000Y11865000D01*
G75*
G02*
X2765000Y12140000I275000J0D01*
G01*
X3315000Y12140000D01*
G75*
G02*
X3590000Y11865000I0J-275000D01*
G01*
X3590000Y10315000D01*
G75*
G02*
X3315000Y10040000I-275000J0D01*
G01*
X2765000Y10040000D01*
G75*
G02*
X2490000Y10315000I0J275000D01*
G01*
G37*
G04 #@! TD*
G04 #@! TO.C,U8*
G36*
G01*
X8925355Y25585153D02*
X12885153Y21625355D01*
G75*
G02*
X12885153Y21554645I-35355J-35355D01*
G01*
X8925355Y17594847D01*
G75*
G02*
X8854645Y17594847I-35355J35355D01*
G01*
X4894847Y21554645D01*
G75*
G02*
X4894847Y21625355I35355J35355D01*
G01*
X8854645Y25585153D01*
G75*
G02*
X8925355Y25585153I35355J-35355D01*
G01*
G37*
G36*
G01*
X13106124Y21510451D02*
X13671810Y20944765D01*
G75*
G02*
X13671810Y20821021I-61872J-61872D01*
G01*
X13548066Y20697277D01*
G75*
G02*
X13424322Y20697277I-61872J61872D01*
G01*
X12858636Y21262963D01*
G75*
G02*
X12858636Y21386707I61872J61872D01*
G01*
X12982380Y21510451D01*
G75*
G02*
X13106124Y21510451I61872J-61872D01*
G01*
G37*
G36*
G01*
X12752571Y21156898D02*
X13318257Y20591212D01*
G75*
G02*
X13318257Y20467468I-61872J-61872D01*
G01*
X13194513Y20343724D01*
G75*
G02*
X13070769Y20343724I-61872J61872D01*
G01*
X12505083Y20909410D01*
G75*
G02*
X12505083Y21033154I61872J61872D01*
G01*
X12628827Y21156898D01*
G75*
G02*
X12752571Y21156898I61872J-61872D01*
G01*
G37*
G36*
G01*
X12399017Y20803344D02*
X12964703Y20237658D01*
G75*
G02*
X12964703Y20113914I-61872J-61872D01*
G01*
X12840959Y19990170D01*
G75*
G02*
X12717215Y19990170I-61872J61872D01*
G01*
X12151529Y20555856D01*
G75*
G02*
X12151529Y20679600I61872J61872D01*
G01*
X12275273Y20803344D01*
G75*
G02*
X12399017Y20803344I61872J-61872D01*
G01*
G37*
G36*
G01*
X12045464Y20449791D02*
X12611150Y19884105D01*
G75*
G02*
X12611150Y19760361I-61872J-61872D01*
G01*
X12487406Y19636617D01*
G75*
G02*
X12363662Y19636617I-61872J61872D01*
G01*
X11797976Y20202303D01*
G75*
G02*
X11797976Y20326047I61872J61872D01*
G01*
X11921720Y20449791D01*
G75*
G02*
X12045464Y20449791I61872J-61872D01*
G01*
G37*
G36*
G01*
X11691911Y20096238D02*
X12257597Y19530552D01*
G75*
G02*
X12257597Y19406808I-61872J-61872D01*
G01*
X12133853Y19283064D01*
G75*
G02*
X12010109Y19283064I-61872J61872D01*
G01*
X11444423Y19848750D01*
G75*
G02*
X11444423Y19972494I61872J61872D01*
G01*
X11568167Y20096238D01*
G75*
G02*
X11691911Y20096238I61872J-61872D01*
G01*
G37*
G36*
G01*
X11338357Y19742684D02*
X11904043Y19176998D01*
G75*
G02*
X11904043Y19053254I-61872J-61872D01*
G01*
X11780299Y18929510D01*
G75*
G02*
X11656555Y18929510I-61872J61872D01*
G01*
X11090869Y19495196D01*
G75*
G02*
X11090869Y19618940I61872J61872D01*
G01*
X11214613Y19742684D01*
G75*
G02*
X11338357Y19742684I61872J-61872D01*
G01*
G37*
G36*
G01*
X10984804Y19389131D02*
X11550490Y18823445D01*
G75*
G02*
X11550490Y18699701I-61872J-61872D01*
G01*
X11426746Y18575957D01*
G75*
G02*
X11303002Y18575957I-61872J61872D01*
G01*
X10737316Y19141643D01*
G75*
G02*
X10737316Y19265387I61872J61872D01*
G01*
X10861060Y19389131D01*
G75*
G02*
X10984804Y19389131I61872J-61872D01*
G01*
G37*
G36*
G01*
X10631250Y19035577D02*
X11196936Y18469891D01*
G75*
G02*
X11196936Y18346147I-61872J-61872D01*
G01*
X11073192Y18222403D01*
G75*
G02*
X10949448Y18222403I-61872J61872D01*
G01*
X10383762Y18788089D01*
G75*
G02*
X10383762Y18911833I61872J61872D01*
G01*
X10507506Y19035577D01*
G75*
G02*
X10631250Y19035577I61872J-61872D01*
G01*
G37*
G36*
G01*
X10277697Y18682024D02*
X10843383Y18116338D01*
G75*
G02*
X10843383Y17992594I-61872J-61872D01*
G01*
X10719639Y17868850D01*
G75*
G02*
X10595895Y17868850I-61872J61872D01*
G01*
X10030209Y18434536D01*
G75*
G02*
X10030209Y18558280I61872J61872D01*
G01*
X10153953Y18682024D01*
G75*
G02*
X10277697Y18682024I61872J-61872D01*
G01*
G37*
G36*
G01*
X9924144Y18328471D02*
X10489830Y17762785D01*
G75*
G02*
X10489830Y17639041I-61872J-61872D01*
G01*
X10366086Y17515297D01*
G75*
G02*
X10242342Y17515297I-61872J61872D01*
G01*
X9676656Y18080983D01*
G75*
G02*
X9676656Y18204727I61872J61872D01*
G01*
X9800400Y18328471D01*
G75*
G02*
X9924144Y18328471I61872J-61872D01*
G01*
G37*
G36*
G01*
X9570590Y17974917D02*
X10136276Y17409231D01*
G75*
G02*
X10136276Y17285487I-61872J-61872D01*
G01*
X10012532Y17161743D01*
G75*
G02*
X9888788Y17161743I-61872J61872D01*
G01*
X9323102Y17727429D01*
G75*
G02*
X9323102Y17851173I61872J61872D01*
G01*
X9446846Y17974917D01*
G75*
G02*
X9570590Y17974917I61872J-61872D01*
G01*
G37*
G36*
G01*
X9217037Y17621364D02*
X9782723Y17055678D01*
G75*
G02*
X9782723Y16931934I-61872J-61872D01*
G01*
X9658979Y16808190D01*
G75*
G02*
X9535235Y16808190I-61872J61872D01*
G01*
X8969549Y17373876D01*
G75*
G02*
X8969549Y17497620I61872J61872D01*
G01*
X9093293Y17621364D01*
G75*
G02*
X9217037Y17621364I61872J-61872D01*
G01*
G37*
G36*
G01*
X8686707Y17621364D02*
X8810451Y17497620D01*
G75*
G02*
X8810451Y17373876I-61872J-61872D01*
G01*
X8244765Y16808190D01*
G75*
G02*
X8121021Y16808190I-61872J61872D01*
G01*
X7997277Y16931934D01*
G75*
G02*
X7997277Y17055678I61872J61872D01*
G01*
X8562963Y17621364D01*
G75*
G02*
X8686707Y17621364I61872J-61872D01*
G01*
G37*
G36*
G01*
X8333154Y17974917D02*
X8456898Y17851173D01*
G75*
G02*
X8456898Y17727429I-61872J-61872D01*
G01*
X7891212Y17161743D01*
G75*
G02*
X7767468Y17161743I-61872J61872D01*
G01*
X7643724Y17285487D01*
G75*
G02*
X7643724Y17409231I61872J61872D01*
G01*
X8209410Y17974917D01*
G75*
G02*
X8333154Y17974917I61872J-61872D01*
G01*
G37*
G36*
G01*
X7979600Y18328471D02*
X8103344Y18204727D01*
G75*
G02*
X8103344Y18080983I-61872J-61872D01*
G01*
X7537658Y17515297D01*
G75*
G02*
X7413914Y17515297I-61872J61872D01*
G01*
X7290170Y17639041D01*
G75*
G02*
X7290170Y17762785I61872J61872D01*
G01*
X7855856Y18328471D01*
G75*
G02*
X7979600Y18328471I61872J-61872D01*
G01*
G37*
G36*
G01*
X7626047Y18682024D02*
X7749791Y18558280D01*
G75*
G02*
X7749791Y18434536I-61872J-61872D01*
G01*
X7184105Y17868850D01*
G75*
G02*
X7060361Y17868850I-61872J61872D01*
G01*
X6936617Y17992594D01*
G75*
G02*
X6936617Y18116338I61872J61872D01*
G01*
X7502303Y18682024D01*
G75*
G02*
X7626047Y18682024I61872J-61872D01*
G01*
G37*
G36*
G01*
X7272494Y19035577D02*
X7396238Y18911833D01*
G75*
G02*
X7396238Y18788089I-61872J-61872D01*
G01*
X6830552Y18222403D01*
G75*
G02*
X6706808Y18222403I-61872J61872D01*
G01*
X6583064Y18346147D01*
G75*
G02*
X6583064Y18469891I61872J61872D01*
G01*
X7148750Y19035577D01*
G75*
G02*
X7272494Y19035577I61872J-61872D01*
G01*
G37*
G36*
G01*
X6918940Y19389131D02*
X7042684Y19265387D01*
G75*
G02*
X7042684Y19141643I-61872J-61872D01*
G01*
X6476998Y18575957D01*
G75*
G02*
X6353254Y18575957I-61872J61872D01*
G01*
X6229510Y18699701D01*
G75*
G02*
X6229510Y18823445I61872J61872D01*
G01*
X6795196Y19389131D01*
G75*
G02*
X6918940Y19389131I61872J-61872D01*
G01*
G37*
G36*
G01*
X6565387Y19742684D02*
X6689131Y19618940D01*
G75*
G02*
X6689131Y19495196I-61872J-61872D01*
G01*
X6123445Y18929510D01*
G75*
G02*
X5999701Y18929510I-61872J61872D01*
G01*
X5875957Y19053254D01*
G75*
G02*
X5875957Y19176998I61872J61872D01*
G01*
X6441643Y19742684D01*
G75*
G02*
X6565387Y19742684I61872J-61872D01*
G01*
G37*
G36*
G01*
X6211833Y20096238D02*
X6335577Y19972494D01*
G75*
G02*
X6335577Y19848750I-61872J-61872D01*
G01*
X5769891Y19283064D01*
G75*
G02*
X5646147Y19283064I-61872J61872D01*
G01*
X5522403Y19406808D01*
G75*
G02*
X5522403Y19530552I61872J61872D01*
G01*
X6088089Y20096238D01*
G75*
G02*
X6211833Y20096238I61872J-61872D01*
G01*
G37*
G36*
G01*
X5858280Y20449791D02*
X5982024Y20326047D01*
G75*
G02*
X5982024Y20202303I-61872J-61872D01*
G01*
X5416338Y19636617D01*
G75*
G02*
X5292594Y19636617I-61872J61872D01*
G01*
X5168850Y19760361D01*
G75*
G02*
X5168850Y19884105I61872J61872D01*
G01*
X5734536Y20449791D01*
G75*
G02*
X5858280Y20449791I61872J-61872D01*
G01*
G37*
G36*
G01*
X5504727Y20803344D02*
X5628471Y20679600D01*
G75*
G02*
X5628471Y20555856I-61872J-61872D01*
G01*
X5062785Y19990170D01*
G75*
G02*
X4939041Y19990170I-61872J61872D01*
G01*
X4815297Y20113914D01*
G75*
G02*
X4815297Y20237658I61872J61872D01*
G01*
X5380983Y20803344D01*
G75*
G02*
X5504727Y20803344I61872J-61872D01*
G01*
G37*
G36*
G01*
X5151173Y21156898D02*
X5274917Y21033154D01*
G75*
G02*
X5274917Y20909410I-61872J-61872D01*
G01*
X4709231Y20343724D01*
G75*
G02*
X4585487Y20343724I-61872J61872D01*
G01*
X4461743Y20467468D01*
G75*
G02*
X4461743Y20591212I61872J61872D01*
G01*
X5027429Y21156898D01*
G75*
G02*
X5151173Y21156898I61872J-61872D01*
G01*
G37*
G36*
G01*
X4797620Y21510451D02*
X4921364Y21386707D01*
G75*
G02*
X4921364Y21262963I-61872J-61872D01*
G01*
X4355678Y20697277D01*
G75*
G02*
X4231934Y20697277I-61872J61872D01*
G01*
X4108190Y20821021D01*
G75*
G02*
X4108190Y20944765I61872J61872D01*
G01*
X4673876Y21510451D01*
G75*
G02*
X4797620Y21510451I61872J-61872D01*
G01*
G37*
G36*
G01*
X4355678Y22482723D02*
X4921364Y21917037D01*
G75*
G02*
X4921364Y21793293I-61872J-61872D01*
G01*
X4797620Y21669549D01*
G75*
G02*
X4673876Y21669549I-61872J61872D01*
G01*
X4108190Y22235235D01*
G75*
G02*
X4108190Y22358979I61872J61872D01*
G01*
X4231934Y22482723D01*
G75*
G02*
X4355678Y22482723I61872J-61872D01*
G01*
G37*
G36*
G01*
X4709231Y22836276D02*
X5274917Y22270590D01*
G75*
G02*
X5274917Y22146846I-61872J-61872D01*
G01*
X5151173Y22023102D01*
G75*
G02*
X5027429Y22023102I-61872J61872D01*
G01*
X4461743Y22588788D01*
G75*
G02*
X4461743Y22712532I61872J61872D01*
G01*
X4585487Y22836276D01*
G75*
G02*
X4709231Y22836276I61872J-61872D01*
G01*
G37*
G36*
G01*
X5062785Y23189830D02*
X5628471Y22624144D01*
G75*
G02*
X5628471Y22500400I-61872J-61872D01*
G01*
X5504727Y22376656D01*
G75*
G02*
X5380983Y22376656I-61872J61872D01*
G01*
X4815297Y22942342D01*
G75*
G02*
X4815297Y23066086I61872J61872D01*
G01*
X4939041Y23189830D01*
G75*
G02*
X5062785Y23189830I61872J-61872D01*
G01*
G37*
G36*
G01*
X5416338Y23543383D02*
X5982024Y22977697D01*
G75*
G02*
X5982024Y22853953I-61872J-61872D01*
G01*
X5858280Y22730209D01*
G75*
G02*
X5734536Y22730209I-61872J61872D01*
G01*
X5168850Y23295895D01*
G75*
G02*
X5168850Y23419639I61872J61872D01*
G01*
X5292594Y23543383D01*
G75*
G02*
X5416338Y23543383I61872J-61872D01*
G01*
G37*
G36*
G01*
X5769891Y23896936D02*
X6335577Y23331250D01*
G75*
G02*
X6335577Y23207506I-61872J-61872D01*
G01*
X6211833Y23083762D01*
G75*
G02*
X6088089Y23083762I-61872J61872D01*
G01*
X5522403Y23649448D01*
G75*
G02*
X5522403Y23773192I61872J61872D01*
G01*
X5646147Y23896936D01*
G75*
G02*
X5769891Y23896936I61872J-61872D01*
G01*
G37*
G36*
G01*
X6123445Y24250490D02*
X6689131Y23684804D01*
G75*
G02*
X6689131Y23561060I-61872J-61872D01*
G01*
X6565387Y23437316D01*
G75*
G02*
X6441643Y23437316I-61872J61872D01*
G01*
X5875957Y24003002D01*
G75*
G02*
X5875957Y24126746I61872J61872D01*
G01*
X5999701Y24250490D01*
G75*
G02*
X6123445Y24250490I61872J-61872D01*
G01*
G37*
G36*
G01*
X6476998Y24604043D02*
X7042684Y24038357D01*
G75*
G02*
X7042684Y23914613I-61872J-61872D01*
G01*
X6918940Y23790869D01*
G75*
G02*
X6795196Y23790869I-61872J61872D01*
G01*
X6229510Y24356555D01*
G75*
G02*
X6229510Y24480299I61872J61872D01*
G01*
X6353254Y24604043D01*
G75*
G02*
X6476998Y24604043I61872J-61872D01*
G01*
G37*
G36*
G01*
X6830552Y24957597D02*
X7396238Y24391911D01*
G75*
G02*
X7396238Y24268167I-61872J-61872D01*
G01*
X7272494Y24144423D01*
G75*
G02*
X7148750Y24144423I-61872J61872D01*
G01*
X6583064Y24710109D01*
G75*
G02*
X6583064Y24833853I61872J61872D01*
G01*
X6706808Y24957597D01*
G75*
G02*
X6830552Y24957597I61872J-61872D01*
G01*
G37*
G36*
G01*
X7184105Y25311150D02*
X7749791Y24745464D01*
G75*
G02*
X7749791Y24621720I-61872J-61872D01*
G01*
X7626047Y24497976D01*
G75*
G02*
X7502303Y24497976I-61872J61872D01*
G01*
X6936617Y25063662D01*
G75*
G02*
X6936617Y25187406I61872J61872D01*
G01*
X7060361Y25311150D01*
G75*
G02*
X7184105Y25311150I61872J-61872D01*
G01*
G37*
G36*
G01*
X7537658Y25664703D02*
X8103344Y25099017D01*
G75*
G02*
X8103344Y24975273I-61872J-61872D01*
G01*
X7979600Y24851529D01*
G75*
G02*
X7855856Y24851529I-61872J61872D01*
G01*
X7290170Y25417215D01*
G75*
G02*
X7290170Y25540959I61872J61872D01*
G01*
X7413914Y25664703D01*
G75*
G02*
X7537658Y25664703I61872J-61872D01*
G01*
G37*
G36*
G01*
X7891212Y26018257D02*
X8456898Y25452571D01*
G75*
G02*
X8456898Y25328827I-61872J-61872D01*
G01*
X8333154Y25205083D01*
G75*
G02*
X8209410Y25205083I-61872J61872D01*
G01*
X7643724Y25770769D01*
G75*
G02*
X7643724Y25894513I61872J61872D01*
G01*
X7767468Y26018257D01*
G75*
G02*
X7891212Y26018257I61872J-61872D01*
G01*
G37*
G36*
G01*
X8244765Y26371810D02*
X8810451Y25806124D01*
G75*
G02*
X8810451Y25682380I-61872J-61872D01*
G01*
X8686707Y25558636D01*
G75*
G02*
X8562963Y25558636I-61872J61872D01*
G01*
X7997277Y26124322D01*
G75*
G02*
X7997277Y26248066I61872J61872D01*
G01*
X8121021Y26371810D01*
G75*
G02*
X8244765Y26371810I61872J-61872D01*
G01*
G37*
G36*
G01*
X9658979Y26371810D02*
X9782723Y26248066D01*
G75*
G02*
X9782723Y26124322I-61872J-61872D01*
G01*
X9217037Y25558636D01*
G75*
G02*
X9093293Y25558636I-61872J61872D01*
G01*
X8969549Y25682380D01*
G75*
G02*
X8969549Y25806124I61872J61872D01*
G01*
X9535235Y26371810D01*
G75*
G02*
X9658979Y26371810I61872J-61872D01*
G01*
G37*
G36*
G01*
X10012532Y26018257D02*
X10136276Y25894513D01*
G75*
G02*
X10136276Y25770769I-61872J-61872D01*
G01*
X9570590Y25205083D01*
G75*
G02*
X9446846Y25205083I-61872J61872D01*
G01*
X9323102Y25328827D01*
G75*
G02*
X9323102Y25452571I61872J61872D01*
G01*
X9888788Y26018257D01*
G75*
G02*
X10012532Y26018257I61872J-61872D01*
G01*
G37*
G36*
G01*
X10366086Y25664703D02*
X10489830Y25540959D01*
G75*
G02*
X10489830Y25417215I-61872J-61872D01*
G01*
X9924144Y24851529D01*
G75*
G02*
X9800400Y24851529I-61872J61872D01*
G01*
X9676656Y24975273D01*
G75*
G02*
X9676656Y25099017I61872J61872D01*
G01*
X10242342Y25664703D01*
G75*
G02*
X10366086Y25664703I61872J-61872D01*
G01*
G37*
G36*
G01*
X10719639Y25311150D02*
X10843383Y25187406D01*
G75*
G02*
X10843383Y25063662I-61872J-61872D01*
G01*
X10277697Y24497976D01*
G75*
G02*
X10153953Y24497976I-61872J61872D01*
G01*
X10030209Y24621720D01*
G75*
G02*
X10030209Y24745464I61872J61872D01*
G01*
X10595895Y25311150D01*
G75*
G02*
X10719639Y25311150I61872J-61872D01*
G01*
G37*
G36*
G01*
X11073192Y24957597D02*
X11196936Y24833853D01*
G75*
G02*
X11196936Y24710109I-61872J-61872D01*
G01*
X10631250Y24144423D01*
G75*
G02*
X10507506Y24144423I-61872J61872D01*
G01*
X10383762Y24268167D01*
G75*
G02*
X10383762Y24391911I61872J61872D01*
G01*
X10949448Y24957597D01*
G75*
G02*
X11073192Y24957597I61872J-61872D01*
G01*
G37*
G36*
G01*
X11426746Y24604043D02*
X11550490Y24480299D01*
G75*
G02*
X11550490Y24356555I-61872J-61872D01*
G01*
X10984804Y23790869D01*
G75*
G02*
X10861060Y23790869I-61872J61872D01*
G01*
X10737316Y23914613D01*
G75*
G02*
X10737316Y24038357I61872J61872D01*
G01*
X11303002Y24604043D01*
G75*
G02*
X11426746Y24604043I61872J-61872D01*
G01*
G37*
G36*
G01*
X11780299Y24250490D02*
X11904043Y24126746D01*
G75*
G02*
X11904043Y24003002I-61872J-61872D01*
G01*
X11338357Y23437316D01*
G75*
G02*
X11214613Y23437316I-61872J61872D01*
G01*
X11090869Y23561060D01*
G75*
G02*
X11090869Y23684804I61872J61872D01*
G01*
X11656555Y24250490D01*
G75*
G02*
X11780299Y24250490I61872J-61872D01*
G01*
G37*
G36*
G01*
X12133853Y23896936D02*
X12257597Y23773192D01*
G75*
G02*
X12257597Y23649448I-61872J-61872D01*
G01*
X11691911Y23083762D01*
G75*
G02*
X11568167Y23083762I-61872J61872D01*
G01*
X11444423Y23207506D01*
G75*
G02*
X11444423Y23331250I61872J61872D01*
G01*
X12010109Y23896936D01*
G75*
G02*
X12133853Y23896936I61872J-61872D01*
G01*
G37*
G36*
G01*
X12487406Y23543383D02*
X12611150Y23419639D01*
G75*
G02*
X12611150Y23295895I-61872J-61872D01*
G01*
X12045464Y22730209D01*
G75*
G02*
X11921720Y22730209I-61872J61872D01*
G01*
X11797976Y22853953D01*
G75*
G02*
X11797976Y22977697I61872J61872D01*
G01*
X12363662Y23543383D01*
G75*
G02*
X12487406Y23543383I61872J-61872D01*
G01*
G37*
G36*
G01*
X12840959Y23189830D02*
X12964703Y23066086D01*
G75*
G02*
X12964703Y22942342I-61872J-61872D01*
G01*
X12399017Y22376656D01*
G75*
G02*
X12275273Y22376656I-61872J61872D01*
G01*
X12151529Y22500400D01*
G75*
G02*
X12151529Y22624144I61872J61872D01*
G01*
X12717215Y23189830D01*
G75*
G02*
X12840959Y23189830I61872J-61872D01*
G01*
G37*
G36*
G01*
X13194513Y22836276D02*
X13318257Y22712532D01*
G75*
G02*
X13318257Y22588788I-61872J-61872D01*
G01*
X12752571Y22023102D01*
G75*
G02*
X12628827Y22023102I-61872J61872D01*
G01*
X12505083Y22146846D01*
G75*
G02*
X12505083Y22270590I61872J61872D01*
G01*
X13070769Y22836276D01*
G75*
G02*
X13194513Y22836276I61872J-61872D01*
G01*
G37*
G36*
G01*
X13548066Y22482723D02*
X13671810Y22358979D01*
G75*
G02*
X13671810Y22235235I-61872J-61872D01*
G01*
X13106124Y21669549D01*
G75*
G02*
X12982380Y21669549I-61872J61872D01*
G01*
X12858636Y21793293D01*
G75*
G02*
X12858636Y21917037I61872J61872D01*
G01*
X13424322Y22482723D01*
G75*
G02*
X13548066Y22482723I61872J-61872D01*
G01*
G37*
G04 #@! TD*
G04 #@! TO.C,C2*
G36*
G01*
X5445000Y30440000D02*
X5695000Y30440000D01*
G75*
G02*
X5820000Y30315000I0J-125000D01*
G01*
X5820000Y30005000D01*
G75*
G02*
X5695000Y29880000I-125000J0D01*
G01*
X5445000Y29880000D01*
G75*
G02*
X5320000Y30005000I0J125000D01*
G01*
X5320000Y30315000D01*
G75*
G02*
X5445000Y30440000I125000J0D01*
G01*
G37*
G36*
G01*
X5445000Y31080000D02*
X5695000Y31080000D01*
G75*
G02*
X5820000Y30955000I0J-125000D01*
G01*
X5820000Y30645000D01*
G75*
G02*
X5695000Y30520000I-125000J0D01*
G01*
X5445000Y30520000D01*
G75*
G02*
X5320000Y30645000I0J125000D01*
G01*
X5320000Y30955000D01*
G75*
G02*
X5445000Y31080000I125000J0D01*
G01*
G37*
G04 #@! TD*
G04 #@! TO.C,C4*
G36*
G01*
X3145000Y30440000D02*
X3395000Y30440000D01*
G75*
G02*
X3520000Y30315000I0J-125000D01*
G01*
X3520000Y30005000D01*
G75*
G02*
X3395000Y29880000I-125000J0D01*
G01*
X3145000Y29880000D01*
G75*
G02*
X3020000Y30005000I0J125000D01*
G01*
X3020000Y30315000D01*
G75*
G02*
X3145000Y30440000I125000J0D01*
G01*
G37*
G36*
G01*
X3145000Y31080000D02*
X3395000Y31080000D01*
G75*
G02*
X3520000Y30955000I0J-125000D01*
G01*
X3520000Y30645000D01*
G75*
G02*
X3395000Y30520000I-125000J0D01*
G01*
X3145000Y30520000D01*
G75*
G02*
X3020000Y30645000I0J125000D01*
G01*
X3020000Y30955000D01*
G75*
G02*
X3145000Y31080000I125000J0D01*
G01*
G37*
G04 #@! TD*
G04 #@! TO.C,U4*
G36*
G01*
X13118528Y25186167D02*
X13012462Y25080101D01*
G75*
G02*
X12906396Y25080101I-53033J53033D01*
G01*
X12340710Y25645787D01*
G75*
G02*
X12340710Y25751853I53033J53033D01*
G01*
X12446776Y25857919D01*
G75*
G02*
X12552842Y25857919I53033J-53033D01*
G01*
X13118528Y25292233D01*
G75*
G02*
X13118528Y25186167I-53033J-53033D01*
G01*
G37*
G36*
G01*
X13401371Y25469009D02*
X13295305Y25362943D01*
G75*
G02*
X13189239Y25362943I-53033J53033D01*
G01*
X12623553Y25928629D01*
G75*
G02*
X12623553Y26034695I53033J53033D01*
G01*
X12729619Y26140761D01*
G75*
G02*
X12835685Y26140761I53033J-53033D01*
G01*
X13401371Y25575075D01*
G75*
G02*
X13401371Y25469009I-53033J-53033D01*
G01*
G37*
G36*
G01*
X13684214Y25751852D02*
X13578148Y25645786D01*
G75*
G02*
X13472082Y25645786I-53033J53033D01*
G01*
X12906396Y26211472D01*
G75*
G02*
X12906396Y26317538I53033J53033D01*
G01*
X13012462Y26423604D01*
G75*
G02*
X13118528Y26423604I53033J-53033D01*
G01*
X13684214Y25857918D01*
G75*
G02*
X13684214Y25751852I-53033J-53033D01*
G01*
G37*
G36*
G01*
X13967057Y26034695D02*
X13860991Y25928629D01*
G75*
G02*
X13754925Y25928629I-53033J53033D01*
G01*
X13189239Y26494315D01*
G75*
G02*
X13189239Y26600381I53033J53033D01*
G01*
X13295305Y26706447D01*
G75*
G02*
X13401371Y26706447I53033J-53033D01*
G01*
X13967057Y26140761D01*
G75*
G02*
X13967057Y26034695I-53033J-53033D01*
G01*
G37*
G36*
G01*
X14249899Y26317538D02*
X14143833Y26211472D01*
G75*
G02*
X14037767Y26211472I-53033J53033D01*
G01*
X13472081Y26777158D01*
G75*
G02*
X13472081Y26883224I53033J53033D01*
G01*
X13578147Y26989290D01*
G75*
G02*
X13684213Y26989290I53033J-53033D01*
G01*
X14249899Y26423604D01*
G75*
G02*
X14249899Y26317538I-53033J-53033D01*
G01*
G37*
G36*
G01*
X14249899Y27696396D02*
X13684213Y27130710D01*
G75*
G02*
X13578147Y27130710I-53033J53033D01*
G01*
X13472081Y27236776D01*
G75*
G02*
X13472081Y27342842I53033J53033D01*
G01*
X14037767Y27908528D01*
G75*
G02*
X14143833Y27908528I53033J-53033D01*
G01*
X14249899Y27802462D01*
G75*
G02*
X14249899Y27696396I-53033J-53033D01*
G01*
G37*
G36*
G01*
X13967057Y27979239D02*
X13401371Y27413553D01*
G75*
G02*
X13295305Y27413553I-53033J53033D01*
G01*
X13189239Y27519619D01*
G75*
G02*
X13189239Y27625685I53033J53033D01*
G01*
X13754925Y28191371D01*
G75*
G02*
X13860991Y28191371I53033J-53033D01*
G01*
X13967057Y28085305D01*
G75*
G02*
X13967057Y27979239I-53033J-53033D01*
G01*
G37*
G36*
G01*
X13684214Y28262082D02*
X13118528Y27696396D01*
G75*
G02*
X13012462Y27696396I-53033J53033D01*
G01*
X12906396Y27802462D01*
G75*
G02*
X12906396Y27908528I53033J53033D01*
G01*
X13472082Y28474214D01*
G75*
G02*
X13578148Y28474214I53033J-53033D01*
G01*
X13684214Y28368148D01*
G75*
G02*
X13684214Y28262082I-53033J-53033D01*
G01*
G37*
G36*
G01*
X13401371Y28544925D02*
X12835685Y27979239D01*
G75*
G02*
X12729619Y27979239I-53033J53033D01*
G01*
X12623553Y28085305D01*
G75*
G02*
X12623553Y28191371I53033J53033D01*
G01*
X13189239Y28757057D01*
G75*
G02*
X13295305Y28757057I53033J-53033D01*
G01*
X13401371Y28650991D01*
G75*
G02*
X13401371Y28544925I-53033J-53033D01*
G01*
G37*
G36*
G01*
X13118528Y28827767D02*
X12552842Y28262081D01*
G75*
G02*
X12446776Y28262081I-53033J53033D01*
G01*
X12340710Y28368147D01*
G75*
G02*
X12340710Y28474213I53033J53033D01*
G01*
X12906396Y29039899D01*
G75*
G02*
X13012462Y29039899I53033J-53033D01*
G01*
X13118528Y28933833D01*
G75*
G02*
X13118528Y28827767I-53033J-53033D01*
G01*
G37*
G36*
G01*
X12199290Y28368147D02*
X12093224Y28262081D01*
G75*
G02*
X11987158Y28262081I-53033J53033D01*
G01*
X11421472Y28827767D01*
G75*
G02*
X11421472Y28933833I53033J53033D01*
G01*
X11527538Y29039899D01*
G75*
G02*
X11633604Y29039899I53033J-53033D01*
G01*
X12199290Y28474213D01*
G75*
G02*
X12199290Y28368147I-53033J-53033D01*
G01*
G37*
G36*
G01*
X11916447Y28085305D02*
X11810381Y27979239D01*
G75*
G02*
X11704315Y27979239I-53033J53033D01*
G01*
X11138629Y28544925D01*
G75*
G02*
X11138629Y28650991I53033J53033D01*
G01*
X11244695Y28757057D01*
G75*
G02*
X11350761Y28757057I53033J-53033D01*
G01*
X11916447Y28191371D01*
G75*
G02*
X11916447Y28085305I-53033J-53033D01*
G01*
G37*
G36*
G01*
X11633604Y27802462D02*
X11527538Y27696396D01*
G75*
G02*
X11421472Y27696396I-53033J53033D01*
G01*
X10855786Y28262082D01*
G75*
G02*
X10855786Y28368148I53033J53033D01*
G01*
X10961852Y28474214D01*
G75*
G02*
X11067918Y28474214I53033J-53033D01*
G01*
X11633604Y27908528D01*
G75*
G02*
X11633604Y27802462I-53033J-53033D01*
G01*
G37*
G36*
G01*
X11350761Y27519619D02*
X11244695Y27413553D01*
G75*
G02*
X11138629Y27413553I-53033J53033D01*
G01*
X10572943Y27979239D01*
G75*
G02*
X10572943Y28085305I53033J53033D01*
G01*
X10679009Y28191371D01*
G75*
G02*
X10785075Y28191371I53033J-53033D01*
G01*
X11350761Y27625685D01*
G75*
G02*
X11350761Y27519619I-53033J-53033D01*
G01*
G37*
G36*
G01*
X11067919Y27236776D02*
X10961853Y27130710D01*
G75*
G02*
X10855787Y27130710I-53033J53033D01*
G01*
X10290101Y27696396D01*
G75*
G02*
X10290101Y27802462I53033J53033D01*
G01*
X10396167Y27908528D01*
G75*
G02*
X10502233Y27908528I53033J-53033D01*
G01*
X11067919Y27342842D01*
G75*
G02*
X11067919Y27236776I-53033J-53033D01*
G01*
G37*
G36*
G01*
X11067919Y26777158D02*
X10502233Y26211472D01*
G75*
G02*
X10396167Y26211472I-53033J53033D01*
G01*
X10290101Y26317538D01*
G75*
G02*
X10290101Y26423604I53033J53033D01*
G01*
X10855787Y26989290D01*
G75*
G02*
X10961853Y26989290I53033J-53033D01*
G01*
X11067919Y26883224D01*
G75*
G02*
X11067919Y26777158I-53033J-53033D01*
G01*
G37*
G36*
G01*
X11350761Y26494315D02*
X10785075Y25928629D01*
G75*
G02*
X10679009Y25928629I-53033J53033D01*
G01*
X10572943Y26034695D01*
G75*
G02*
X10572943Y26140761I53033J53033D01*
G01*
X11138629Y26706447D01*
G75*
G02*
X11244695Y26706447I53033J-53033D01*
G01*
X11350761Y26600381D01*
G75*
G02*
X11350761Y26494315I-53033J-53033D01*
G01*
G37*
G36*
G01*
X11633604Y26211472D02*
X11067918Y25645786D01*
G75*
G02*
X10961852Y25645786I-53033J53033D01*
G01*
X10855786Y25751852D01*
G75*
G02*
X10855786Y25857918I53033J53033D01*
G01*
X11421472Y26423604D01*
G75*
G02*
X11527538Y26423604I53033J-53033D01*
G01*
X11633604Y26317538D01*
G75*
G02*
X11633604Y26211472I-53033J-53033D01*
G01*
G37*
G36*
G01*
X11916447Y25928629D02*
X11350761Y25362943D01*
G75*
G02*
X11244695Y25362943I-53033J53033D01*
G01*
X11138629Y25469009D01*
G75*
G02*
X11138629Y25575075I53033J53033D01*
G01*
X11704315Y26140761D01*
G75*
G02*
X11810381Y26140761I53033J-53033D01*
G01*
X11916447Y26034695D01*
G75*
G02*
X11916447Y25928629I-53033J-53033D01*
G01*
G37*
G36*
G01*
X12199290Y25645787D02*
X11633604Y25080101D01*
G75*
G02*
X11527538Y25080101I-53033J53033D01*
G01*
X11421472Y25186167D01*
G75*
G02*
X11421472Y25292233I53033J53033D01*
G01*
X11987158Y25857919D01*
G75*
G02*
X12093224Y25857919I53033J-53033D01*
G01*
X12199290Y25751853D01*
G75*
G02*
X12199290Y25645787I-53033J-53033D01*
G01*
G37*
G36*
G01*
X13472081Y27024645D02*
X12305355Y25857919D01*
G75*
G02*
X12234645Y25857919I-35355J35355D01*
G01*
X11067919Y27024645D01*
G75*
G02*
X11067919Y27095355I35355J35355D01*
G01*
X12234645Y28262081D01*
G75*
G02*
X12305355Y28262081I35355J-35355D01*
G01*
X13472081Y27095355D01*
G75*
G02*
X13472081Y27024645I-35355J-35355D01*
G01*
G37*
G04 #@! TD*
G04 #@! TO.C,L1*
G36*
G01*
X11370000Y4635000D02*
X11370000Y4885000D01*
G75*
G02*
X11495000Y5010000I125000J0D01*
G01*
X11805000Y5010000D01*
G75*
G02*
X11930000Y4885000I0J-125000D01*
G01*
X11930000Y4635000D01*
G75*
G02*
X11805000Y4510000I-125000J0D01*
G01*
X11495000Y4510000D01*
G75*
G02*
X11370000Y4635000I0J125000D01*
G01*
G37*
G36*
G01*
X10730000Y4635000D02*
X10730000Y4885000D01*
G75*
G02*
X10855000Y5010000I125000J0D01*
G01*
X11165000Y5010000D01*
G75*
G02*
X11290000Y4885000I0J-125000D01*
G01*
X11290000Y4635000D01*
G75*
G02*
X11165000Y4510000I-125000J0D01*
G01*
X10855000Y4510000D01*
G75*
G02*
X10730000Y4635000I0J125000D01*
G01*
G37*
G04 #@! TD*
D17*
G04 #@! TO.C,J6*
X16510000Y26670000D03*
X16510000Y29210000D03*
X16510000Y31750000D03*
X16510000Y34290000D03*
X16510000Y36830000D03*
X16510000Y39370000D03*
G04 #@! TD*
G04 #@! TO.C,D2*
G36*
G01*
X3800000Y31860000D02*
X3300000Y31860000D01*
G75*
G02*
X3150000Y32010000I0J150000D01*
G01*
X3150000Y32310000D01*
G75*
G02*
X3300000Y32460000I150000J0D01*
G01*
X3800000Y32460000D01*
G75*
G02*
X3950000Y32310000I0J-150000D01*
G01*
X3950000Y32010000D01*
G75*
G02*
X3800000Y31860000I-150000J0D01*
G01*
G37*
G36*
G01*
X3800000Y32660000D02*
X3300000Y32660000D01*
G75*
G02*
X3150000Y32810000I0J150000D01*
G01*
X3150000Y33110000D01*
G75*
G02*
X3300000Y33260000I150000J0D01*
G01*
X3800000Y33260000D01*
G75*
G02*
X3950000Y33110000I0J-150000D01*
G01*
X3950000Y32810000D01*
G75*
G02*
X3800000Y32660000I-150000J0D01*
G01*
G37*
G04 #@! TD*
G04 #@! TO.C,D1*
G36*
G01*
X5720000Y31860000D02*
X5220000Y31860000D01*
G75*
G02*
X5070000Y32010000I0J150000D01*
G01*
X5070000Y32310000D01*
G75*
G02*
X5220000Y32460000I150000J0D01*
G01*
X5720000Y32460000D01*
G75*
G02*
X5870000Y32310000I0J-150000D01*
G01*
X5870000Y32010000D01*
G75*
G02*
X5720000Y31860000I-150000J0D01*
G01*
G37*
G36*
G01*
X5720000Y32660000D02*
X5220000Y32660000D01*
G75*
G02*
X5070000Y32810000I0J150000D01*
G01*
X5070000Y33110000D01*
G75*
G02*
X5220000Y33260000I150000J0D01*
G01*
X5720000Y33260000D01*
G75*
G02*
X5870000Y33110000I0J-150000D01*
G01*
X5870000Y32810000D01*
G75*
G02*
X5720000Y32660000I-150000J0D01*
G01*
G37*
G04 #@! TD*
G04 #@! TO.C,J8*
X16510000Y1270000D03*
X16510000Y3810000D03*
X16510000Y6350000D03*
X16510000Y8890000D03*
X16510000Y11430000D03*
X16510000Y13970000D03*
X16510000Y16510000D03*
X16510000Y19050000D03*
X16510000Y21590000D03*
X16510000Y24130000D03*
G04 #@! TD*
G04 #@! TO.C,C18*
G36*
G01*
X8885000Y28830000D02*
X9135000Y28830000D01*
G75*
G02*
X9260000Y28705000I0J-125000D01*
G01*
X9260000Y28395000D01*
G75*
G02*
X9135000Y28270000I-125000J0D01*
G01*
X8885000Y28270000D01*
G75*
G02*
X8760000Y28395000I0J125000D01*
G01*
X8760000Y28705000D01*
G75*
G02*
X8885000Y28830000I125000J0D01*
G01*
G37*
G36*
G01*
X8885000Y29470000D02*
X9135000Y29470000D01*
G75*
G02*
X9260000Y29345000I0J-125000D01*
G01*
X9260000Y29035000D01*
G75*
G02*
X9135000Y28910000I-125000J0D01*
G01*
X8885000Y28910000D01*
G75*
G02*
X8760000Y29035000I0J125000D01*
G01*
X8760000Y29345000D01*
G75*
G02*
X8885000Y29470000I125000J0D01*
G01*
G37*
G04 #@! TD*
G04 #@! TO.C,R1*
G36*
G01*
X10760104Y5826673D02*
X10583327Y5649896D01*
G75*
G02*
X10406551Y5649896I-88388J88388D01*
G01*
X10187348Y5869099D01*
G75*
G02*
X10187348Y6045875I88388J88388D01*
G01*
X10364125Y6222652D01*
G75*
G02*
X10540901Y6222652I88388J-88388D01*
G01*
X10760104Y6003449D01*
G75*
G02*
X10760104Y5826673I-88388J-88388D01*
G01*
G37*
G36*
G01*
X11212652Y5374125D02*
X11035875Y5197348D01*
G75*
G02*
X10859099Y5197348I-88388J88388D01*
G01*
X10639896Y5416551D01*
G75*
G02*
X10639896Y5593327I88388J88388D01*
G01*
X10816673Y5770104D01*
G75*
G02*
X10993449Y5770104I88388J-88388D01*
G01*
X11212652Y5550901D01*
G75*
G02*
X11212652Y5374125I-88388J-88388D01*
G01*
G37*
G04 #@! TD*
G04 #@! TO.C,D4*
G36*
G01*
X7020365Y14966863D02*
X6680954Y14627452D01*
G75*
G02*
X6454680Y14627452I-113137J113137D01*
G01*
X6115269Y14966863D01*
G75*
G02*
X6115269Y15193137I113137J113137D01*
G01*
X6454680Y15532548D01*
G75*
G02*
X6680954Y15532548I113137J-113137D01*
G01*
X7020365Y15193137D01*
G75*
G02*
X7020365Y14966863I-113137J-113137D01*
G01*
G37*
G36*
G01*
X6242548Y14189046D02*
X5903137Y13849635D01*
G75*
G02*
X5676863Y13849635I-113137J113137D01*
G01*
X5337452Y14189046D01*
G75*
G02*
X5337452Y14415320I113137J113137D01*
G01*
X5676863Y14754731D01*
G75*
G02*
X5903137Y14754731I113137J-113137D01*
G01*
X6242548Y14415320D01*
G75*
G02*
X6242548Y14189046I-113137J-113137D01*
G01*
G37*
G36*
G01*
X6242548Y15744680D02*
X5903137Y15405269D01*
G75*
G02*
X5676863Y15405269I-113137J113137D01*
G01*
X5337452Y15744680D01*
G75*
G02*
X5337452Y15970954I113137J113137D01*
G01*
X5676863Y16310365D01*
G75*
G02*
X5903137Y16310365I113137J-113137D01*
G01*
X6242548Y15970954D01*
G75*
G02*
X6242548Y15744680I-113137J-113137D01*
G01*
G37*
G36*
G01*
X5464731Y14966863D02*
X5125320Y14627452D01*
G75*
G02*
X4899046Y14627452I-113137J113137D01*
G01*
X4559635Y14966863D01*
G75*
G02*
X4559635Y15193137I113137J113137D01*
G01*
X4899046Y15532548D01*
G75*
G02*
X5125320Y15532548I113137J-113137D01*
G01*
X5464731Y15193137D01*
G75*
G02*
X5464731Y14966863I-113137J-113137D01*
G01*
G37*
G04 #@! TD*
G04 #@! TO.C,D5*
G36*
G01*
X3966863Y12149635D02*
X3627452Y12489046D01*
G75*
G02*
X3627452Y12715320I113137J113137D01*
G01*
X3966863Y13054731D01*
G75*
G02*
X4193137Y13054731I113137J-113137D01*
G01*
X4532548Y12715320D01*
G75*
G02*
X4532548Y12489046I-113137J-113137D01*
G01*
X4193137Y12149635D01*
G75*
G02*
X3966863Y12149635I-113137J113137D01*
G01*
G37*
G36*
G01*
X3189046Y12927452D02*
X2849635Y13266863D01*
G75*
G02*
X2849635Y13493137I113137J113137D01*
G01*
X3189046Y13832548D01*
G75*
G02*
X3415320Y13832548I113137J-113137D01*
G01*
X3754731Y13493137D01*
G75*
G02*
X3754731Y13266863I-113137J-113137D01*
G01*
X3415320Y12927452D01*
G75*
G02*
X3189046Y12927452I-113137J113137D01*
G01*
G37*
G36*
G01*
X4744680Y12927452D02*
X4405269Y13266863D01*
G75*
G02*
X4405269Y13493137I113137J113137D01*
G01*
X4744680Y13832548D01*
G75*
G02*
X4970954Y13832548I113137J-113137D01*
G01*
X5310365Y13493137D01*
G75*
G02*
X5310365Y13266863I-113137J-113137D01*
G01*
X4970954Y12927452D01*
G75*
G02*
X4744680Y12927452I-113137J113137D01*
G01*
G37*
G36*
G01*
X3966863Y13705269D02*
X3627452Y14044680D01*
G75*
G02*
X3627452Y14270954I113137J113137D01*
G01*
X3966863Y14610365D01*
G75*
G02*
X4193137Y14610365I113137J-113137D01*
G01*
X4532548Y14270954D01*
G75*
G02*
X4532548Y14044680I-113137J-113137D01*
G01*
X4193137Y13705269D01*
G75*
G02*
X3966863Y13705269I-113137J113137D01*
G01*
G37*
G04 #@! TD*
G04 #@! TO.C,U5*
G36*
G01*
X12673021Y10654645D02*
X8925355Y6906979D01*
G75*
G02*
X8854645Y6906979I-35355J35355D01*
G01*
X5106979Y10654645D01*
G75*
G02*
X5106979Y10725355I35355J35355D01*
G01*
X8854645Y14473021D01*
G75*
G02*
X8925355Y14473021I35355J-35355D01*
G01*
X12673021Y10725355D01*
G75*
G02*
X12673021Y10654645I-35355J-35355D01*
G01*
G37*
G36*
G01*
X8775095Y6438520D02*
X8262443Y5925868D01*
G75*
G02*
X8138699Y5925868I-61872J61872D01*
G01*
X8014955Y6049612D01*
G75*
G02*
X8014955Y6173356I61872J61872D01*
G01*
X8527607Y6686008D01*
G75*
G02*
X8651351Y6686008I61872J-61872D01*
G01*
X8775095Y6562264D01*
G75*
G02*
X8775095Y6438520I-61872J-61872D01*
G01*
G37*
G36*
G01*
X8421542Y6792073D02*
X7908890Y6279421D01*
G75*
G02*
X7785146Y6279421I-61872J61872D01*
G01*
X7661402Y6403165D01*
G75*
G02*
X7661402Y6526909I61872J61872D01*
G01*
X8174054Y7039561D01*
G75*
G02*
X8297798Y7039561I61872J-61872D01*
G01*
X8421542Y6915817D01*
G75*
G02*
X8421542Y6792073I-61872J-61872D01*
G01*
G37*
G36*
G01*
X8067988Y7145627D02*
X7555336Y6632975D01*
G75*
G02*
X7431592Y6632975I-61872J61872D01*
G01*
X7307848Y6756719D01*
G75*
G02*
X7307848Y6880463I61872J61872D01*
G01*
X7820500Y7393115D01*
G75*
G02*
X7944244Y7393115I61872J-61872D01*
G01*
X8067988Y7269371D01*
G75*
G02*
X8067988Y7145627I-61872J-61872D01*
G01*
G37*
G36*
G01*
X7714435Y7499180D02*
X7201783Y6986528D01*
G75*
G02*
X7078039Y6986528I-61872J61872D01*
G01*
X6954295Y7110272D01*
G75*
G02*
X6954295Y7234016I61872J61872D01*
G01*
X7466947Y7746668D01*
G75*
G02*
X7590691Y7746668I61872J-61872D01*
G01*
X7714435Y7622924D01*
G75*
G02*
X7714435Y7499180I-61872J-61872D01*
G01*
G37*
G36*
G01*
X7360882Y7852734D02*
X6848230Y7340082D01*
G75*
G02*
X6724486Y7340082I-61872J61872D01*
G01*
X6600742Y7463826D01*
G75*
G02*
X6600742Y7587570I61872J61872D01*
G01*
X7113394Y8100222D01*
G75*
G02*
X7237138Y8100222I61872J-61872D01*
G01*
X7360882Y7976478D01*
G75*
G02*
X7360882Y7852734I-61872J-61872D01*
G01*
G37*
G36*
G01*
X7007328Y8206287D02*
X6494676Y7693635D01*
G75*
G02*
X6370932Y7693635I-61872J61872D01*
G01*
X6247188Y7817379D01*
G75*
G02*
X6247188Y7941123I61872J61872D01*
G01*
X6759840Y8453775D01*
G75*
G02*
X6883584Y8453775I61872J-61872D01*
G01*
X7007328Y8330031D01*
G75*
G02*
X7007328Y8206287I-61872J-61872D01*
G01*
G37*
G36*
G01*
X6653775Y8559840D02*
X6141123Y8047188D01*
G75*
G02*
X6017379Y8047188I-61872J61872D01*
G01*
X5893635Y8170932D01*
G75*
G02*
X5893635Y8294676I61872J61872D01*
G01*
X6406287Y8807328D01*
G75*
G02*
X6530031Y8807328I61872J-61872D01*
G01*
X6653775Y8683584D01*
G75*
G02*
X6653775Y8559840I-61872J-61872D01*
G01*
G37*
G36*
G01*
X6300222Y8913394D02*
X5787570Y8400742D01*
G75*
G02*
X5663826Y8400742I-61872J61872D01*
G01*
X5540082Y8524486D01*
G75*
G02*
X5540082Y8648230I61872J61872D01*
G01*
X6052734Y9160882D01*
G75*
G02*
X6176478Y9160882I61872J-61872D01*
G01*
X6300222Y9037138D01*
G75*
G02*
X6300222Y8913394I-61872J-61872D01*
G01*
G37*
G36*
G01*
X5946668Y9266947D02*
X5434016Y8754295D01*
G75*
G02*
X5310272Y8754295I-61872J61872D01*
G01*
X5186528Y8878039D01*
G75*
G02*
X5186528Y9001783I61872J61872D01*
G01*
X5699180Y9514435D01*
G75*
G02*
X5822924Y9514435I61872J-61872D01*
G01*
X5946668Y9390691D01*
G75*
G02*
X5946668Y9266947I-61872J-61872D01*
G01*
G37*
G36*
G01*
X5593115Y9620500D02*
X5080463Y9107848D01*
G75*
G02*
X4956719Y9107848I-61872J61872D01*
G01*
X4832975Y9231592D01*
G75*
G02*
X4832975Y9355336I61872J61872D01*
G01*
X5345627Y9867988D01*
G75*
G02*
X5469371Y9867988I61872J-61872D01*
G01*
X5593115Y9744244D01*
G75*
G02*
X5593115Y9620500I-61872J-61872D01*
G01*
G37*
G36*
G01*
X5239561Y9974054D02*
X4726909Y9461402D01*
G75*
G02*
X4603165Y9461402I-61872J61872D01*
G01*
X4479421Y9585146D01*
G75*
G02*
X4479421Y9708890I61872J61872D01*
G01*
X4992073Y10221542D01*
G75*
G02*
X5115817Y10221542I61872J-61872D01*
G01*
X5239561Y10097798D01*
G75*
G02*
X5239561Y9974054I-61872J-61872D01*
G01*
G37*
G36*
G01*
X4886008Y10327607D02*
X4373356Y9814955D01*
G75*
G02*
X4249612Y9814955I-61872J61872D01*
G01*
X4125868Y9938699D01*
G75*
G02*
X4125868Y10062443I61872J61872D01*
G01*
X4638520Y10575095D01*
G75*
G02*
X4762264Y10575095I61872J-61872D01*
G01*
X4886008Y10451351D01*
G75*
G02*
X4886008Y10327607I-61872J-61872D01*
G01*
G37*
G36*
G01*
X4886008Y10928649D02*
X4762264Y10804905D01*
G75*
G02*
X4638520Y10804905I-61872J61872D01*
G01*
X4125868Y11317557D01*
G75*
G02*
X4125868Y11441301I61872J61872D01*
G01*
X4249612Y11565045D01*
G75*
G02*
X4373356Y11565045I61872J-61872D01*
G01*
X4886008Y11052393D01*
G75*
G02*
X4886008Y10928649I-61872J-61872D01*
G01*
G37*
G36*
G01*
X5239561Y11282202D02*
X5115817Y11158458D01*
G75*
G02*
X4992073Y11158458I-61872J61872D01*
G01*
X4479421Y11671110D01*
G75*
G02*
X4479421Y11794854I61872J61872D01*
G01*
X4603165Y11918598D01*
G75*
G02*
X4726909Y11918598I61872J-61872D01*
G01*
X5239561Y11405946D01*
G75*
G02*
X5239561Y11282202I-61872J-61872D01*
G01*
G37*
G36*
G01*
X5593115Y11635756D02*
X5469371Y11512012D01*
G75*
G02*
X5345627Y11512012I-61872J61872D01*
G01*
X4832975Y12024664D01*
G75*
G02*
X4832975Y12148408I61872J61872D01*
G01*
X4956719Y12272152D01*
G75*
G02*
X5080463Y12272152I61872J-61872D01*
G01*
X5593115Y11759500D01*
G75*
G02*
X5593115Y11635756I-61872J-61872D01*
G01*
G37*
G36*
G01*
X5946668Y11989309D02*
X5822924Y11865565D01*
G75*
G02*
X5699180Y11865565I-61872J61872D01*
G01*
X5186528Y12378217D01*
G75*
G02*
X5186528Y12501961I61872J61872D01*
G01*
X5310272Y12625705D01*
G75*
G02*
X5434016Y12625705I61872J-61872D01*
G01*
X5946668Y12113053D01*
G75*
G02*
X5946668Y11989309I-61872J-61872D01*
G01*
G37*
G36*
G01*
X6300222Y12342862D02*
X6176478Y12219118D01*
G75*
G02*
X6052734Y12219118I-61872J61872D01*
G01*
X5540082Y12731770D01*
G75*
G02*
X5540082Y12855514I61872J61872D01*
G01*
X5663826Y12979258D01*
G75*
G02*
X5787570Y12979258I61872J-61872D01*
G01*
X6300222Y12466606D01*
G75*
G02*
X6300222Y12342862I-61872J-61872D01*
G01*
G37*
G36*
G01*
X6653775Y12696416D02*
X6530031Y12572672D01*
G75*
G02*
X6406287Y12572672I-61872J61872D01*
G01*
X5893635Y13085324D01*
G75*
G02*
X5893635Y13209068I61872J61872D01*
G01*
X6017379Y13332812D01*
G75*
G02*
X6141123Y13332812I61872J-61872D01*
G01*
X6653775Y12820160D01*
G75*
G02*
X6653775Y12696416I-61872J-61872D01*
G01*
G37*
G36*
G01*
X7007328Y13049969D02*
X6883584Y12926225D01*
G75*
G02*
X6759840Y12926225I-61872J61872D01*
G01*
X6247188Y13438877D01*
G75*
G02*
X6247188Y13562621I61872J61872D01*
G01*
X6370932Y13686365D01*
G75*
G02*
X6494676Y13686365I61872J-61872D01*
G01*
X7007328Y13173713D01*
G75*
G02*
X7007328Y13049969I-61872J-61872D01*
G01*
G37*
G36*
G01*
X7360882Y13403522D02*
X7237138Y13279778D01*
G75*
G02*
X7113394Y13279778I-61872J61872D01*
G01*
X6600742Y13792430D01*
G75*
G02*
X6600742Y13916174I61872J61872D01*
G01*
X6724486Y14039918D01*
G75*
G02*
X6848230Y14039918I61872J-61872D01*
G01*
X7360882Y13527266D01*
G75*
G02*
X7360882Y13403522I-61872J-61872D01*
G01*
G37*
G36*
G01*
X7714435Y13757076D02*
X7590691Y13633332D01*
G75*
G02*
X7466947Y13633332I-61872J61872D01*
G01*
X6954295Y14145984D01*
G75*
G02*
X6954295Y14269728I61872J61872D01*
G01*
X7078039Y14393472D01*
G75*
G02*
X7201783Y14393472I61872J-61872D01*
G01*
X7714435Y13880820D01*
G75*
G02*
X7714435Y13757076I-61872J-61872D01*
G01*
G37*
G36*
G01*
X8067988Y14110629D02*
X7944244Y13986885D01*
G75*
G02*
X7820500Y13986885I-61872J61872D01*
G01*
X7307848Y14499537D01*
G75*
G02*
X7307848Y14623281I61872J61872D01*
G01*
X7431592Y14747025D01*
G75*
G02*
X7555336Y14747025I61872J-61872D01*
G01*
X8067988Y14234373D01*
G75*
G02*
X8067988Y14110629I-61872J-61872D01*
G01*
G37*
G36*
G01*
X8421542Y14464183D02*
X8297798Y14340439D01*
G75*
G02*
X8174054Y14340439I-61872J61872D01*
G01*
X7661402Y14853091D01*
G75*
G02*
X7661402Y14976835I61872J61872D01*
G01*
X7785146Y15100579D01*
G75*
G02*
X7908890Y15100579I61872J-61872D01*
G01*
X8421542Y14587927D01*
G75*
G02*
X8421542Y14464183I-61872J-61872D01*
G01*
G37*
G36*
G01*
X8775095Y14817736D02*
X8651351Y14693992D01*
G75*
G02*
X8527607Y14693992I-61872J61872D01*
G01*
X8014955Y15206644D01*
G75*
G02*
X8014955Y15330388I61872J61872D01*
G01*
X8138699Y15454132D01*
G75*
G02*
X8262443Y15454132I61872J-61872D01*
G01*
X8775095Y14941480D01*
G75*
G02*
X8775095Y14817736I-61872J-61872D01*
G01*
G37*
G36*
G01*
X9765045Y15206644D02*
X9252393Y14693992D01*
G75*
G02*
X9128649Y14693992I-61872J61872D01*
G01*
X9004905Y14817736D01*
G75*
G02*
X9004905Y14941480I61872J61872D01*
G01*
X9517557Y15454132D01*
G75*
G02*
X9641301Y15454132I61872J-61872D01*
G01*
X9765045Y15330388D01*
G75*
G02*
X9765045Y15206644I-61872J-61872D01*
G01*
G37*
G36*
G01*
X10118598Y14853091D02*
X9605946Y14340439D01*
G75*
G02*
X9482202Y14340439I-61872J61872D01*
G01*
X9358458Y14464183D01*
G75*
G02*
X9358458Y14587927I61872J61872D01*
G01*
X9871110Y15100579D01*
G75*
G02*
X9994854Y15100579I61872J-61872D01*
G01*
X10118598Y14976835D01*
G75*
G02*
X10118598Y14853091I-61872J-61872D01*
G01*
G37*
G36*
G01*
X10472152Y14499537D02*
X9959500Y13986885D01*
G75*
G02*
X9835756Y13986885I-61872J61872D01*
G01*
X9712012Y14110629D01*
G75*
G02*
X9712012Y14234373I61872J61872D01*
G01*
X10224664Y14747025D01*
G75*
G02*
X10348408Y14747025I61872J-61872D01*
G01*
X10472152Y14623281D01*
G75*
G02*
X10472152Y14499537I-61872J-61872D01*
G01*
G37*
G36*
G01*
X10825705Y14145984D02*
X10313053Y13633332D01*
G75*
G02*
X10189309Y13633332I-61872J61872D01*
G01*
X10065565Y13757076D01*
G75*
G02*
X10065565Y13880820I61872J61872D01*
G01*
X10578217Y14393472D01*
G75*
G02*
X10701961Y14393472I61872J-61872D01*
G01*
X10825705Y14269728D01*
G75*
G02*
X10825705Y14145984I-61872J-61872D01*
G01*
G37*
G36*
G01*
X11179258Y13792430D02*
X10666606Y13279778D01*
G75*
G02*
X10542862Y13279778I-61872J61872D01*
G01*
X10419118Y13403522D01*
G75*
G02*
X10419118Y13527266I61872J61872D01*
G01*
X10931770Y14039918D01*
G75*
G02*
X11055514Y14039918I61872J-61872D01*
G01*
X11179258Y13916174D01*
G75*
G02*
X11179258Y13792430I-61872J-61872D01*
G01*
G37*
G36*
G01*
X11532812Y13438877D02*
X11020160Y12926225D01*
G75*
G02*
X10896416Y12926225I-61872J61872D01*
G01*
X10772672Y13049969D01*
G75*
G02*
X10772672Y13173713I61872J61872D01*
G01*
X11285324Y13686365D01*
G75*
G02*
X11409068Y13686365I61872J-61872D01*
G01*
X11532812Y13562621D01*
G75*
G02*
X11532812Y13438877I-61872J-61872D01*
G01*
G37*
G36*
G01*
X11886365Y13085324D02*
X11373713Y12572672D01*
G75*
G02*
X11249969Y12572672I-61872J61872D01*
G01*
X11126225Y12696416D01*
G75*
G02*
X11126225Y12820160I61872J61872D01*
G01*
X11638877Y13332812D01*
G75*
G02*
X11762621Y13332812I61872J-61872D01*
G01*
X11886365Y13209068D01*
G75*
G02*
X11886365Y13085324I-61872J-61872D01*
G01*
G37*
G36*
G01*
X12239918Y12731770D02*
X11727266Y12219118D01*
G75*
G02*
X11603522Y12219118I-61872J61872D01*
G01*
X11479778Y12342862D01*
G75*
G02*
X11479778Y12466606I61872J61872D01*
G01*
X11992430Y12979258D01*
G75*
G02*
X12116174Y12979258I61872J-61872D01*
G01*
X12239918Y12855514D01*
G75*
G02*
X12239918Y12731770I-61872J-61872D01*
G01*
G37*
G36*
G01*
X12593472Y12378217D02*
X12080820Y11865565D01*
G75*
G02*
X11957076Y11865565I-61872J61872D01*
G01*
X11833332Y11989309D01*
G75*
G02*
X11833332Y12113053I61872J61872D01*
G01*
X12345984Y12625705D01*
G75*
G02*
X12469728Y12625705I61872J-61872D01*
G01*
X12593472Y12501961D01*
G75*
G02*
X12593472Y12378217I-61872J-61872D01*
G01*
G37*
G36*
G01*
X12947025Y12024664D02*
X12434373Y11512012D01*
G75*
G02*
X12310629Y11512012I-61872J61872D01*
G01*
X12186885Y11635756D01*
G75*
G02*
X12186885Y11759500I61872J61872D01*
G01*
X12699537Y12272152D01*
G75*
G02*
X12823281Y12272152I61872J-61872D01*
G01*
X12947025Y12148408D01*
G75*
G02*
X12947025Y12024664I-61872J-61872D01*
G01*
G37*
G36*
G01*
X13300579Y11671110D02*
X12787927Y11158458D01*
G75*
G02*
X12664183Y11158458I-61872J61872D01*
G01*
X12540439Y11282202D01*
G75*
G02*
X12540439Y11405946I61872J61872D01*
G01*
X13053091Y11918598D01*
G75*
G02*
X13176835Y11918598I61872J-61872D01*
G01*
X13300579Y11794854D01*
G75*
G02*
X13300579Y11671110I-61872J-61872D01*
G01*
G37*
G36*
G01*
X13654132Y11317557D02*
X13141480Y10804905D01*
G75*
G02*
X13017736Y10804905I-61872J61872D01*
G01*
X12893992Y10928649D01*
G75*
G02*
X12893992Y11052393I61872J61872D01*
G01*
X13406644Y11565045D01*
G75*
G02*
X13530388Y11565045I61872J-61872D01*
G01*
X13654132Y11441301D01*
G75*
G02*
X13654132Y11317557I-61872J-61872D01*
G01*
G37*
G36*
G01*
X13654132Y9938699D02*
X13530388Y9814955D01*
G75*
G02*
X13406644Y9814955I-61872J61872D01*
G01*
X12893992Y10327607D01*
G75*
G02*
X12893992Y10451351I61872J61872D01*
G01*
X13017736Y10575095D01*
G75*
G02*
X13141480Y10575095I61872J-61872D01*
G01*
X13654132Y10062443D01*
G75*
G02*
X13654132Y9938699I-61872J-61872D01*
G01*
G37*
G36*
G01*
X13300579Y9585146D02*
X13176835Y9461402D01*
G75*
G02*
X13053091Y9461402I-61872J61872D01*
G01*
X12540439Y9974054D01*
G75*
G02*
X12540439Y10097798I61872J61872D01*
G01*
X12664183Y10221542D01*
G75*
G02*
X12787927Y10221542I61872J-61872D01*
G01*
X13300579Y9708890D01*
G75*
G02*
X13300579Y9585146I-61872J-61872D01*
G01*
G37*
G36*
G01*
X12947025Y9231592D02*
X12823281Y9107848D01*
G75*
G02*
X12699537Y9107848I-61872J61872D01*
G01*
X12186885Y9620500D01*
G75*
G02*
X12186885Y9744244I61872J61872D01*
G01*
X12310629Y9867988D01*
G75*
G02*
X12434373Y9867988I61872J-61872D01*
G01*
X12947025Y9355336D01*
G75*
G02*
X12947025Y9231592I-61872J-61872D01*
G01*
G37*
G36*
G01*
X12593472Y8878039D02*
X12469728Y8754295D01*
G75*
G02*
X12345984Y8754295I-61872J61872D01*
G01*
X11833332Y9266947D01*
G75*
G02*
X11833332Y9390691I61872J61872D01*
G01*
X11957076Y9514435D01*
G75*
G02*
X12080820Y9514435I61872J-61872D01*
G01*
X12593472Y9001783D01*
G75*
G02*
X12593472Y8878039I-61872J-61872D01*
G01*
G37*
G36*
G01*
X12239918Y8524486D02*
X12116174Y8400742D01*
G75*
G02*
X11992430Y8400742I-61872J61872D01*
G01*
X11479778Y8913394D01*
G75*
G02*
X11479778Y9037138I61872J61872D01*
G01*
X11603522Y9160882D01*
G75*
G02*
X11727266Y9160882I61872J-61872D01*
G01*
X12239918Y8648230D01*
G75*
G02*
X12239918Y8524486I-61872J-61872D01*
G01*
G37*
G36*
G01*
X11886365Y8170932D02*
X11762621Y8047188D01*
G75*
G02*
X11638877Y8047188I-61872J61872D01*
G01*
X11126225Y8559840D01*
G75*
G02*
X11126225Y8683584I61872J61872D01*
G01*
X11249969Y8807328D01*
G75*
G02*
X11373713Y8807328I61872J-61872D01*
G01*
X11886365Y8294676D01*
G75*
G02*
X11886365Y8170932I-61872J-61872D01*
G01*
G37*
G36*
G01*
X11532812Y7817379D02*
X11409068Y7693635D01*
G75*
G02*
X11285324Y7693635I-61872J61872D01*
G01*
X10772672Y8206287D01*
G75*
G02*
X10772672Y8330031I61872J61872D01*
G01*
X10896416Y8453775D01*
G75*
G02*
X11020160Y8453775I61872J-61872D01*
G01*
X11532812Y7941123D01*
G75*
G02*
X11532812Y7817379I-61872J-61872D01*
G01*
G37*
G36*
G01*
X11179258Y7463826D02*
X11055514Y7340082D01*
G75*
G02*
X10931770Y7340082I-61872J61872D01*
G01*
X10419118Y7852734D01*
G75*
G02*
X10419118Y7976478I61872J61872D01*
G01*
X10542862Y8100222D01*
G75*
G02*
X10666606Y8100222I61872J-61872D01*
G01*
X11179258Y7587570D01*
G75*
G02*
X11179258Y7463826I-61872J-61872D01*
G01*
G37*
G36*
G01*
X10825705Y7110272D02*
X10701961Y6986528D01*
G75*
G02*
X10578217Y6986528I-61872J61872D01*
G01*
X10065565Y7499180D01*
G75*
G02*
X10065565Y7622924I61872J61872D01*
G01*
X10189309Y7746668D01*
G75*
G02*
X10313053Y7746668I61872J-61872D01*
G01*
X10825705Y7234016D01*
G75*
G02*
X10825705Y7110272I-61872J-61872D01*
G01*
G37*
G36*
G01*
X10472152Y6756719D02*
X10348408Y6632975D01*
G75*
G02*
X10224664Y6632975I-61872J61872D01*
G01*
X9712012Y7145627D01*
G75*
G02*
X9712012Y7269371I61872J61872D01*
G01*
X9835756Y7393115D01*
G75*
G02*
X9959500Y7393115I61872J-61872D01*
G01*
X10472152Y6880463D01*
G75*
G02*
X10472152Y6756719I-61872J-61872D01*
G01*
G37*
G36*
G01*
X10118598Y6403165D02*
X9994854Y6279421D01*
G75*
G02*
X9871110Y6279421I-61872J61872D01*
G01*
X9358458Y6792073D01*
G75*
G02*
X9358458Y6915817I61872J61872D01*
G01*
X9482202Y7039561D01*
G75*
G02*
X9605946Y7039561I61872J-61872D01*
G01*
X10118598Y6526909D01*
G75*
G02*
X10118598Y6403165I-61872J-61872D01*
G01*
G37*
G36*
G01*
X9765045Y6049612D02*
X9641301Y5925868D01*
G75*
G02*
X9517557Y5925868I-61872J61872D01*
G01*
X9004905Y6438520D01*
G75*
G02*
X9004905Y6562264I61872J61872D01*
G01*
X9128649Y6686008D01*
G75*
G02*
X9252393Y6686008I61872J-61872D01*
G01*
X9765045Y6173356D01*
G75*
G02*
X9765045Y6049612I-61872J-61872D01*
G01*
G37*
G04 #@! TD*
G04 #@! TO.C,C16*
G36*
G01*
X7786673Y1839896D02*
X7609896Y2016673D01*
G75*
G02*
X7609896Y2193449I88388J88388D01*
G01*
X7829099Y2412652D01*
G75*
G02*
X8005875Y2412652I88388J-88388D01*
G01*
X8182652Y2235875D01*
G75*
G02*
X8182652Y2059099I-88388J-88388D01*
G01*
X7963449Y1839896D01*
G75*
G02*
X7786673Y1839896I-88388J88388D01*
G01*
G37*
G36*
G01*
X7334125Y1387348D02*
X7157348Y1564125D01*
G75*
G02*
X7157348Y1740901I88388J88388D01*
G01*
X7376551Y1960104D01*
G75*
G02*
X7553327Y1960104I88388J-88388D01*
G01*
X7730104Y1783327D01*
G75*
G02*
X7730104Y1606551I-88388J-88388D01*
G01*
X7510901Y1387348D01*
G75*
G02*
X7334125Y1387348I-88388J88388D01*
G01*
G37*
G04 #@! TD*
G04 #@! TO.C,J7*
X1270000Y1270000D03*
X1270000Y3810000D03*
X1270000Y6350000D03*
X1270000Y8890000D03*
X1270000Y11430000D03*
X1270000Y13970000D03*
X1270000Y16510000D03*
X1270000Y19050000D03*
X1270000Y21590000D03*
X1270000Y24130000D03*
G04 #@! TD*
G04 #@! TO.C,U6*
G36*
G01*
X5704645Y2486167D02*
X3866167Y4324645D01*
G75*
G02*
X3866167Y4395355I35355J35355D01*
G01*
X5704645Y6233833D01*
G75*
G02*
X5775355Y6233833I35355J-35355D01*
G01*
X7613833Y4395355D01*
G75*
G02*
X7613833Y4324645I-35355J-35355D01*
G01*
X5775355Y2486167D01*
G75*
G02*
X5704645Y2486167I-35355J35355D01*
G01*
G37*
G36*
G01*
X3627518Y4457227D02*
X3097188Y4987557D01*
G75*
G02*
X3097188Y5111301I61872J61872D01*
G01*
X3220932Y5235045D01*
G75*
G02*
X3344676Y5235045I61872J-61872D01*
G01*
X3875006Y4704715D01*
G75*
G02*
X3875006Y4580971I-61872J-61872D01*
G01*
X3751262Y4457227D01*
G75*
G02*
X3627518Y4457227I-61872J61872D01*
G01*
G37*
G36*
G01*
X3981072Y4810780D02*
X3450742Y5341110D01*
G75*
G02*
X3450742Y5464854I61872J61872D01*
G01*
X3574486Y5588598D01*
G75*
G02*
X3698230Y5588598I61872J-61872D01*
G01*
X4228560Y5058268D01*
G75*
G02*
X4228560Y4934524I-61872J-61872D01*
G01*
X4104816Y4810780D01*
G75*
G02*
X3981072Y4810780I-61872J61872D01*
G01*
G37*
G36*
G01*
X4334625Y5164334D02*
X3804295Y5694664D01*
G75*
G02*
X3804295Y5818408I61872J61872D01*
G01*
X3928039Y5942152D01*
G75*
G02*
X4051783Y5942152I61872J-61872D01*
G01*
X4582113Y5411822D01*
G75*
G02*
X4582113Y5288078I-61872J-61872D01*
G01*
X4458369Y5164334D01*
G75*
G02*
X4334625Y5164334I-61872J61872D01*
G01*
G37*
G36*
G01*
X4688178Y5517887D02*
X4157848Y6048217D01*
G75*
G02*
X4157848Y6171961I61872J61872D01*
G01*
X4281592Y6295705D01*
G75*
G02*
X4405336Y6295705I61872J-61872D01*
G01*
X4935666Y5765375D01*
G75*
G02*
X4935666Y5641631I-61872J-61872D01*
G01*
X4811922Y5517887D01*
G75*
G02*
X4688178Y5517887I-61872J61872D01*
G01*
G37*
G36*
G01*
X5041732Y5871440D02*
X4511402Y6401770D01*
G75*
G02*
X4511402Y6525514I61872J61872D01*
G01*
X4635146Y6649258D01*
G75*
G02*
X4758890Y6649258I61872J-61872D01*
G01*
X5289220Y6118928D01*
G75*
G02*
X5289220Y5995184I-61872J-61872D01*
G01*
X5165476Y5871440D01*
G75*
G02*
X5041732Y5871440I-61872J61872D01*
G01*
G37*
G36*
G01*
X5395285Y6224994D02*
X4864955Y6755324D01*
G75*
G02*
X4864955Y6879068I61872J61872D01*
G01*
X4988699Y7002812D01*
G75*
G02*
X5112443Y7002812I61872J-61872D01*
G01*
X5642773Y6472482D01*
G75*
G02*
X5642773Y6348738I-61872J-61872D01*
G01*
X5519029Y6224994D01*
G75*
G02*
X5395285Y6224994I-61872J61872D01*
G01*
G37*
G36*
G01*
X5960971Y6224994D02*
X5837227Y6348738D01*
G75*
G02*
X5837227Y6472482I61872J61872D01*
G01*
X6367557Y7002812D01*
G75*
G02*
X6491301Y7002812I61872J-61872D01*
G01*
X6615045Y6879068D01*
G75*
G02*
X6615045Y6755324I-61872J-61872D01*
G01*
X6084715Y6224994D01*
G75*
G02*
X5960971Y6224994I-61872J61872D01*
G01*
G37*
G36*
G01*
X6314524Y5871440D02*
X6190780Y5995184D01*
G75*
G02*
X6190780Y6118928I61872J61872D01*
G01*
X6721110Y6649258D01*
G75*
G02*
X6844854Y6649258I61872J-61872D01*
G01*
X6968598Y6525514D01*
G75*
G02*
X6968598Y6401770I-61872J-61872D01*
G01*
X6438268Y5871440D01*
G75*
G02*
X6314524Y5871440I-61872J61872D01*
G01*
G37*
G36*
G01*
X6668078Y5517887D02*
X6544334Y5641631D01*
G75*
G02*
X6544334Y5765375I61872J61872D01*
G01*
X7074664Y6295705D01*
G75*
G02*
X7198408Y6295705I61872J-61872D01*
G01*
X7322152Y6171961D01*
G75*
G02*
X7322152Y6048217I-61872J-61872D01*
G01*
X6791822Y5517887D01*
G75*
G02*
X6668078Y5517887I-61872J61872D01*
G01*
G37*
G36*
G01*
X7021631Y5164334D02*
X6897887Y5288078D01*
G75*
G02*
X6897887Y5411822I61872J61872D01*
G01*
X7428217Y5942152D01*
G75*
G02*
X7551961Y5942152I61872J-61872D01*
G01*
X7675705Y5818408D01*
G75*
G02*
X7675705Y5694664I-61872J-61872D01*
G01*
X7145375Y5164334D01*
G75*
G02*
X7021631Y5164334I-61872J61872D01*
G01*
G37*
G36*
G01*
X7375184Y4810780D02*
X7251440Y4934524D01*
G75*
G02*
X7251440Y5058268I61872J61872D01*
G01*
X7781770Y5588598D01*
G75*
G02*
X7905514Y5588598I61872J-61872D01*
G01*
X8029258Y5464854D01*
G75*
G02*
X8029258Y5341110I-61872J-61872D01*
G01*
X7498928Y4810780D01*
G75*
G02*
X7375184Y4810780I-61872J61872D01*
G01*
G37*
G36*
G01*
X7728738Y4457227D02*
X7604994Y4580971D01*
G75*
G02*
X7604994Y4704715I61872J61872D01*
G01*
X8135324Y5235045D01*
G75*
G02*
X8259068Y5235045I61872J-61872D01*
G01*
X8382812Y5111301D01*
G75*
G02*
X8382812Y4987557I-61872J-61872D01*
G01*
X7852482Y4457227D01*
G75*
G02*
X7728738Y4457227I-61872J61872D01*
G01*
G37*
G36*
G01*
X8135324Y3484955D02*
X7604994Y4015285D01*
G75*
G02*
X7604994Y4139029I61872J61872D01*
G01*
X7728738Y4262773D01*
G75*
G02*
X7852482Y4262773I61872J-61872D01*
G01*
X8382812Y3732443D01*
G75*
G02*
X8382812Y3608699I-61872J-61872D01*
G01*
X8259068Y3484955D01*
G75*
G02*
X8135324Y3484955I-61872J61872D01*
G01*
G37*
G36*
G01*
X7781770Y3131402D02*
X7251440Y3661732D01*
G75*
G02*
X7251440Y3785476I61872J61872D01*
G01*
X7375184Y3909220D01*
G75*
G02*
X7498928Y3909220I61872J-61872D01*
G01*
X8029258Y3378890D01*
G75*
G02*
X8029258Y3255146I-61872J-61872D01*
G01*
X7905514Y3131402D01*
G75*
G02*
X7781770Y3131402I-61872J61872D01*
G01*
G37*
G36*
G01*
X7428217Y2777848D02*
X6897887Y3308178D01*
G75*
G02*
X6897887Y3431922I61872J61872D01*
G01*
X7021631Y3555666D01*
G75*
G02*
X7145375Y3555666I61872J-61872D01*
G01*
X7675705Y3025336D01*
G75*
G02*
X7675705Y2901592I-61872J-61872D01*
G01*
X7551961Y2777848D01*
G75*
G02*
X7428217Y2777848I-61872J61872D01*
G01*
G37*
G36*
G01*
X7074664Y2424295D02*
X6544334Y2954625D01*
G75*
G02*
X6544334Y3078369I61872J61872D01*
G01*
X6668078Y3202113D01*
G75*
G02*
X6791822Y3202113I61872J-61872D01*
G01*
X7322152Y2671783D01*
G75*
G02*
X7322152Y2548039I-61872J-61872D01*
G01*
X7198408Y2424295D01*
G75*
G02*
X7074664Y2424295I-61872J61872D01*
G01*
G37*
G36*
G01*
X6721110Y2070742D02*
X6190780Y2601072D01*
G75*
G02*
X6190780Y2724816I61872J61872D01*
G01*
X6314524Y2848560D01*
G75*
G02*
X6438268Y2848560I61872J-61872D01*
G01*
X6968598Y2318230D01*
G75*
G02*
X6968598Y2194486I-61872J-61872D01*
G01*
X6844854Y2070742D01*
G75*
G02*
X6721110Y2070742I-61872J61872D01*
G01*
G37*
G36*
G01*
X6367557Y1717188D02*
X5837227Y2247518D01*
G75*
G02*
X5837227Y2371262I61872J61872D01*
G01*
X5960971Y2495006D01*
G75*
G02*
X6084715Y2495006I61872J-61872D01*
G01*
X6615045Y1964676D01*
G75*
G02*
X6615045Y1840932I-61872J-61872D01*
G01*
X6491301Y1717188D01*
G75*
G02*
X6367557Y1717188I-61872J61872D01*
G01*
G37*
G36*
G01*
X4988699Y1717188D02*
X4864955Y1840932D01*
G75*
G02*
X4864955Y1964676I61872J61872D01*
G01*
X5395285Y2495006D01*
G75*
G02*
X5519029Y2495006I61872J-61872D01*
G01*
X5642773Y2371262D01*
G75*
G02*
X5642773Y2247518I-61872J-61872D01*
G01*
X5112443Y1717188D01*
G75*
G02*
X4988699Y1717188I-61872J61872D01*
G01*
G37*
G36*
G01*
X4635146Y2070742D02*
X4511402Y2194486D01*
G75*
G02*
X4511402Y2318230I61872J61872D01*
G01*
X5041732Y2848560D01*
G75*
G02*
X5165476Y2848560I61872J-61872D01*
G01*
X5289220Y2724816D01*
G75*
G02*
X5289220Y2601072I-61872J-61872D01*
G01*
X4758890Y2070742D01*
G75*
G02*
X4635146Y2070742I-61872J61872D01*
G01*
G37*
G36*
G01*
X4281592Y2424295D02*
X4157848Y2548039D01*
G75*
G02*
X4157848Y2671783I61872J61872D01*
G01*
X4688178Y3202113D01*
G75*
G02*
X4811922Y3202113I61872J-61872D01*
G01*
X4935666Y3078369D01*
G75*
G02*
X4935666Y2954625I-61872J-61872D01*
G01*
X4405336Y2424295D01*
G75*
G02*
X4281592Y2424295I-61872J61872D01*
G01*
G37*
G36*
G01*
X3928039Y2777848D02*
X3804295Y2901592D01*
G75*
G02*
X3804295Y3025336I61872J61872D01*
G01*
X4334625Y3555666D01*
G75*
G02*
X4458369Y3555666I61872J-61872D01*
G01*
X4582113Y3431922D01*
G75*
G02*
X4582113Y3308178I-61872J-61872D01*
G01*
X4051783Y2777848D01*
G75*
G02*
X3928039Y2777848I-61872J61872D01*
G01*
G37*
G36*
G01*
X3574486Y3131402D02*
X3450742Y3255146D01*
G75*
G02*
X3450742Y3378890I61872J61872D01*
G01*
X3981072Y3909220D01*
G75*
G02*
X4104816Y3909220I61872J-61872D01*
G01*
X4228560Y3785476D01*
G75*
G02*
X4228560Y3661732I-61872J-61872D01*
G01*
X3698230Y3131402D01*
G75*
G02*
X3574486Y3131402I-61872J61872D01*
G01*
G37*
G36*
G01*
X3220932Y3484955D02*
X3097188Y3608699D01*
G75*
G02*
X3097188Y3732443I61872J61872D01*
G01*
X3627518Y4262773D01*
G75*
G02*
X3751262Y4262773I61872J-61872D01*
G01*
X3875006Y4139029D01*
G75*
G02*
X3875006Y4015285I-61872J-61872D01*
G01*
X3344676Y3484955D01*
G75*
G02*
X3220932Y3484955I-61872J61872D01*
G01*
G37*
G04 #@! TD*
G04 #@! TO.C,C7*
G36*
G01*
X10555000Y30610000D02*
X10305000Y30610000D01*
G75*
G02*
X10180000Y30735000I0J125000D01*
G01*
X10180000Y31045000D01*
G75*
G02*
X10305000Y31170000I125000J0D01*
G01*
X10555000Y31170000D01*
G75*
G02*
X10680000Y31045000I0J-125000D01*
G01*
X10680000Y30735000D01*
G75*
G02*
X10555000Y30610000I-125000J0D01*
G01*
G37*
G36*
G01*
X10555000Y29970000D02*
X10305000Y29970000D01*
G75*
G02*
X10180000Y30095000I0J125000D01*
G01*
X10180000Y30405000D01*
G75*
G02*
X10305000Y30530000I125000J0D01*
G01*
X10555000Y30530000D01*
G75*
G02*
X10680000Y30405000I0J-125000D01*
G01*
X10680000Y30095000D01*
G75*
G02*
X10555000Y29970000I-125000J0D01*
G01*
G37*
G04 #@! TD*
G04 #@! TO.C,C13*
G36*
G01*
X14510000Y30785000D02*
X14510000Y31035000D01*
G75*
G02*
X14635000Y31160000I125000J0D01*
G01*
X14945000Y31160000D01*
G75*
G02*
X15070000Y31035000I0J-125000D01*
G01*
X15070000Y30785000D01*
G75*
G02*
X14945000Y30660000I-125000J0D01*
G01*
X14635000Y30660000D01*
G75*
G02*
X14510000Y30785000I0J125000D01*
G01*
G37*
G36*
G01*
X13870000Y30785000D02*
X13870000Y31035000D01*
G75*
G02*
X13995000Y31160000I125000J0D01*
G01*
X14305000Y31160000D01*
G75*
G02*
X14430000Y31035000I0J-125000D01*
G01*
X14430000Y30785000D01*
G75*
G02*
X14305000Y30660000I-125000J0D01*
G01*
X13995000Y30660000D01*
G75*
G02*
X13870000Y30785000I0J125000D01*
G01*
G37*
G04 #@! TD*
G04 #@! TO.C,R12*
G36*
G01*
X7420000Y15965000D02*
X7420000Y16215000D01*
G75*
G02*
X7545000Y16340000I125000J0D01*
G01*
X7855000Y16340000D01*
G75*
G02*
X7980000Y16215000I0J-125000D01*
G01*
X7980000Y15965000D01*
G75*
G02*
X7855000Y15840000I-125000J0D01*
G01*
X7545000Y15840000D01*
G75*
G02*
X7420000Y15965000I0J125000D01*
G01*
G37*
G36*
G01*
X6780000Y15965000D02*
X6780000Y16215000D01*
G75*
G02*
X6905000Y16340000I125000J0D01*
G01*
X7215000Y16340000D01*
G75*
G02*
X7340000Y16215000I0J-125000D01*
G01*
X7340000Y15965000D01*
G75*
G02*
X7215000Y15840000I-125000J0D01*
G01*
X6905000Y15840000D01*
G75*
G02*
X6780000Y15965000I0J125000D01*
G01*
G37*
G04 #@! TD*
G04 #@! TO.C,R11*
G36*
G01*
X4463327Y23860104D02*
X4640104Y23683327D01*
G75*
G02*
X4640104Y23506551I-88388J-88388D01*
G01*
X4420901Y23287348D01*
G75*
G02*
X4244125Y23287348I-88388J88388D01*
G01*
X4067348Y23464125D01*
G75*
G02*
X4067348Y23640901I88388J88388D01*
G01*
X4286551Y23860104D01*
G75*
G02*
X4463327Y23860104I88388J-88388D01*
G01*
G37*
G36*
G01*
X4915875Y24312652D02*
X5092652Y24135875D01*
G75*
G02*
X5092652Y23959099I-88388J-88388D01*
G01*
X4873449Y23739896D01*
G75*
G02*
X4696673Y23739896I-88388J88388D01*
G01*
X4519896Y23916673D01*
G75*
G02*
X4519896Y24093449I88388J88388D01*
G01*
X4739099Y24312652D01*
G75*
G02*
X4915875Y24312652I88388J-88388D01*
G01*
G37*
G04 #@! TD*
G04 #@! TO.C,C1*
G36*
G01*
X6625000Y32600000D02*
X6235000Y32600000D01*
G75*
G02*
X6070000Y32765000I0J165000D01*
G01*
X6070000Y33095000D01*
G75*
G02*
X6235000Y33260000I165000J0D01*
G01*
X6625000Y33260000D01*
G75*
G02*
X6790000Y33095000I0J-165000D01*
G01*
X6790000Y32765000D01*
G75*
G02*
X6625000Y32600000I-165000J0D01*
G01*
G37*
G36*
G01*
X6625000Y31640000D02*
X6235000Y31640000D01*
G75*
G02*
X6070000Y31805000I0J165000D01*
G01*
X6070000Y32135000D01*
G75*
G02*
X6235000Y32300000I165000J0D01*
G01*
X6625000Y32300000D01*
G75*
G02*
X6790000Y32135000I0J-165000D01*
G01*
X6790000Y31805000D01*
G75*
G02*
X6625000Y31640000I-165000J0D01*
G01*
G37*
G04 #@! TD*
G04 #@! TO.C,C3*
G36*
G01*
X4705000Y32600000D02*
X4315000Y32600000D01*
G75*
G02*
X4150000Y32765000I0J165000D01*
G01*
X4150000Y33095000D01*
G75*
G02*
X4315000Y33260000I165000J0D01*
G01*
X4705000Y33260000D01*
G75*
G02*
X4870000Y33095000I0J-165000D01*
G01*
X4870000Y32765000D01*
G75*
G02*
X4705000Y32600000I-165000J0D01*
G01*
G37*
G36*
G01*
X4705000Y31640000D02*
X4315000Y31640000D01*
G75*
G02*
X4150000Y31805000I0J165000D01*
G01*
X4150000Y32135000D01*
G75*
G02*
X4315000Y32300000I165000J0D01*
G01*
X4705000Y32300000D01*
G75*
G02*
X4870000Y32135000I0J-165000D01*
G01*
X4870000Y31805000D01*
G75*
G02*
X4705000Y31640000I-165000J0D01*
G01*
G37*
G04 #@! TD*
G04 #@! TO.C,C14*
G36*
G01*
X14430000Y30335000D02*
X14430000Y30085000D01*
G75*
G02*
X14305000Y29960000I-125000J0D01*
G01*
X13995000Y29960000D01*
G75*
G02*
X13870000Y30085000I0J125000D01*
G01*
X13870000Y30335000D01*
G75*
G02*
X13995000Y30460000I125000J0D01*
G01*
X14305000Y30460000D01*
G75*
G02*
X14430000Y30335000I0J-125000D01*
G01*
G37*
G36*
G01*
X15070000Y30335000D02*
X15070000Y30085000D01*
G75*
G02*
X14945000Y29960000I-125000J0D01*
G01*
X14635000Y29960000D01*
G75*
G02*
X14510000Y30085000I0J125000D01*
G01*
X14510000Y30335000D01*
G75*
G02*
X14635000Y30460000I125000J0D01*
G01*
X14945000Y30460000D01*
G75*
G02*
X15070000Y30335000I0J-125000D01*
G01*
G37*
G04 #@! TD*
G04 #@! TO.C,C12*
G36*
G01*
X14430000Y29635000D02*
X14430000Y29385000D01*
G75*
G02*
X14305000Y29260000I-125000J0D01*
G01*
X13995000Y29260000D01*
G75*
G02*
X13870000Y29385000I0J125000D01*
G01*
X13870000Y29635000D01*
G75*
G02*
X13995000Y29760000I125000J0D01*
G01*
X14305000Y29760000D01*
G75*
G02*
X14430000Y29635000I0J-125000D01*
G01*
G37*
G36*
G01*
X15070000Y29635000D02*
X15070000Y29385000D01*
G75*
G02*
X14945000Y29260000I-125000J0D01*
G01*
X14635000Y29260000D01*
G75*
G02*
X14510000Y29385000I0J125000D01*
G01*
X14510000Y29635000D01*
G75*
G02*
X14635000Y29760000I125000J0D01*
G01*
X14945000Y29760000D01*
G75*
G02*
X15070000Y29635000I0J-125000D01*
G01*
G37*
G04 #@! TD*
G04 #@! TO.C,C29*
G36*
G01*
X3973327Y15780104D02*
X4150104Y15603327D01*
G75*
G02*
X4150104Y15426551I-88388J-88388D01*
G01*
X3930901Y15207348D01*
G75*
G02*
X3754125Y15207348I-88388J88388D01*
G01*
X3577348Y15384125D01*
G75*
G02*
X3577348Y15560901I88388J88388D01*
G01*
X3796551Y15780104D01*
G75*
G02*
X3973327Y15780104I88388J-88388D01*
G01*
G37*
G36*
G01*
X4425875Y16232652D02*
X4602652Y16055875D01*
G75*
G02*
X4602652Y15879099I-88388J-88388D01*
G01*
X4383449Y15659896D01*
G75*
G02*
X4206673Y15659896I-88388J88388D01*
G01*
X4029896Y15836673D01*
G75*
G02*
X4029896Y16013449I88388J88388D01*
G01*
X4249099Y16232652D01*
G75*
G02*
X4425875Y16232652I88388J-88388D01*
G01*
G37*
G04 #@! TD*
G04 #@! TO.C,C23*
G36*
G01*
X13095000Y32700000D02*
X12845000Y32700000D01*
G75*
G02*
X12720000Y32825000I0J125000D01*
G01*
X12720000Y33135000D01*
G75*
G02*
X12845000Y33260000I125000J0D01*
G01*
X13095000Y33260000D01*
G75*
G02*
X13220000Y33135000I0J-125000D01*
G01*
X13220000Y32825000D01*
G75*
G02*
X13095000Y32700000I-125000J0D01*
G01*
G37*
G36*
G01*
X13095000Y32060000D02*
X12845000Y32060000D01*
G75*
G02*
X12720000Y32185000I0J125000D01*
G01*
X12720000Y32495000D01*
G75*
G02*
X12845000Y32620000I125000J0D01*
G01*
X13095000Y32620000D01*
G75*
G02*
X13220000Y32495000I0J-125000D01*
G01*
X13220000Y32185000D01*
G75*
G02*
X13095000Y32060000I-125000J0D01*
G01*
G37*
G04 #@! TD*
G04 #@! TO.C,C19*
G36*
G01*
X9585000Y28830000D02*
X9835000Y28830000D01*
G75*
G02*
X9960000Y28705000I0J-125000D01*
G01*
X9960000Y28395000D01*
G75*
G02*
X9835000Y28270000I-125000J0D01*
G01*
X9585000Y28270000D01*
G75*
G02*
X9460000Y28395000I0J125000D01*
G01*
X9460000Y28705000D01*
G75*
G02*
X9585000Y28830000I125000J0D01*
G01*
G37*
G36*
G01*
X9585000Y29470000D02*
X9835000Y29470000D01*
G75*
G02*
X9960000Y29345000I0J-125000D01*
G01*
X9960000Y29035000D01*
G75*
G02*
X9835000Y28910000I-125000J0D01*
G01*
X9585000Y28910000D01*
G75*
G02*
X9460000Y29035000I0J125000D01*
G01*
X9460000Y29345000D01*
G75*
G02*
X9585000Y29470000I125000J0D01*
G01*
G37*
G04 #@! TD*
G04 #@! TO.C,R9*
G36*
G01*
X5130104Y18636673D02*
X4953327Y18459896D01*
G75*
G02*
X4776551Y18459896I-88388J88388D01*
G01*
X4557348Y18679099D01*
G75*
G02*
X4557348Y18855875I88388J88388D01*
G01*
X4734125Y19032652D01*
G75*
G02*
X4910901Y19032652I88388J-88388D01*
G01*
X5130104Y18813449D01*
G75*
G02*
X5130104Y18636673I-88388J-88388D01*
G01*
G37*
G36*
G01*
X5582652Y18184125D02*
X5405875Y18007348D01*
G75*
G02*
X5229099Y18007348I-88388J88388D01*
G01*
X5009896Y18226551D01*
G75*
G02*
X5009896Y18403327I88388J88388D01*
G01*
X5186673Y18580104D01*
G75*
G02*
X5363449Y18580104I88388J-88388D01*
G01*
X5582652Y18360901D01*
G75*
G02*
X5582652Y18184125I-88388J-88388D01*
G01*
G37*
G04 #@! TD*
G04 #@! TO.C,R8*
G36*
G01*
X12520104Y7366673D02*
X12343327Y7189896D01*
G75*
G02*
X12166551Y7189896I-88388J88388D01*
G01*
X11947348Y7409099D01*
G75*
G02*
X11947348Y7585875I88388J88388D01*
G01*
X12124125Y7762652D01*
G75*
G02*
X12300901Y7762652I88388J-88388D01*
G01*
X12520104Y7543449D01*
G75*
G02*
X12520104Y7366673I-88388J-88388D01*
G01*
G37*
G36*
G01*
X12972652Y6914125D02*
X12795875Y6737348D01*
G75*
G02*
X12619099Y6737348I-88388J88388D01*
G01*
X12399896Y6956551D01*
G75*
G02*
X12399896Y7133327I88388J88388D01*
G01*
X12576673Y7310104D01*
G75*
G02*
X12753449Y7310104I88388J-88388D01*
G01*
X12972652Y7090901D01*
G75*
G02*
X12972652Y6914125I-88388J-88388D01*
G01*
G37*
G04 #@! TD*
G04 #@! TO.C,R7*
G36*
G01*
X13020104Y7866673D02*
X12843327Y7689896D01*
G75*
G02*
X12666551Y7689896I-88388J88388D01*
G01*
X12447348Y7909099D01*
G75*
G02*
X12447348Y8085875I88388J88388D01*
G01*
X12624125Y8262652D01*
G75*
G02*
X12800901Y8262652I88388J-88388D01*
G01*
X13020104Y8043449D01*
G75*
G02*
X13020104Y7866673I-88388J-88388D01*
G01*
G37*
G36*
G01*
X13472652Y7414125D02*
X13295875Y7237348D01*
G75*
G02*
X13119099Y7237348I-88388J88388D01*
G01*
X12899896Y7456551D01*
G75*
G02*
X12899896Y7633327I88388J88388D01*
G01*
X13076673Y7810104D01*
G75*
G02*
X13253449Y7810104I88388J-88388D01*
G01*
X13472652Y7590901D01*
G75*
G02*
X13472652Y7414125I-88388J-88388D01*
G01*
G37*
G04 #@! TD*
G04 #@! TO.C,R5*
G36*
G01*
X3155000Y6300000D02*
X2905000Y6300000D01*
G75*
G02*
X2780000Y6425000I0J125000D01*
G01*
X2780000Y6735000D01*
G75*
G02*
X2905000Y6860000I125000J0D01*
G01*
X3155000Y6860000D01*
G75*
G02*
X3280000Y6735000I0J-125000D01*
G01*
X3280000Y6425000D01*
G75*
G02*
X3155000Y6300000I-125000J0D01*
G01*
G37*
G36*
G01*
X3155000Y5660000D02*
X2905000Y5660000D01*
G75*
G02*
X2780000Y5785000I0J125000D01*
G01*
X2780000Y6095000D01*
G75*
G02*
X2905000Y6220000I125000J0D01*
G01*
X3155000Y6220000D01*
G75*
G02*
X3280000Y6095000I0J-125000D01*
G01*
X3280000Y5785000D01*
G75*
G02*
X3155000Y5660000I-125000J0D01*
G01*
G37*
G04 #@! TD*
G04 #@! TO.C,R6*
G36*
G01*
X11965000Y30610000D02*
X11715000Y30610000D01*
G75*
G02*
X11590000Y30735000I0J125000D01*
G01*
X11590000Y31045000D01*
G75*
G02*
X11715000Y31170000I125000J0D01*
G01*
X11965000Y31170000D01*
G75*
G02*
X12090000Y31045000I0J-125000D01*
G01*
X12090000Y30735000D01*
G75*
G02*
X11965000Y30610000I-125000J0D01*
G01*
G37*
G36*
G01*
X11965000Y29970000D02*
X11715000Y29970000D01*
G75*
G02*
X11590000Y30095000I0J125000D01*
G01*
X11590000Y30405000D01*
G75*
G02*
X11715000Y30530000I125000J0D01*
G01*
X11965000Y30530000D01*
G75*
G02*
X12090000Y30405000I0J-125000D01*
G01*
X12090000Y30095000D01*
G75*
G02*
X11965000Y29970000I-125000J0D01*
G01*
G37*
G04 #@! TD*
G04 #@! TO.C,R3*
G36*
G01*
X13796673Y12819896D02*
X13619896Y12996673D01*
G75*
G02*
X13619896Y13173449I88388J88388D01*
G01*
X13839099Y13392652D01*
G75*
G02*
X14015875Y13392652I88388J-88388D01*
G01*
X14192652Y13215875D01*
G75*
G02*
X14192652Y13039099I-88388J-88388D01*
G01*
X13973449Y12819896D01*
G75*
G02*
X13796673Y12819896I-88388J88388D01*
G01*
G37*
G36*
G01*
X13344125Y12367348D02*
X13167348Y12544125D01*
G75*
G02*
X13167348Y12720901I88388J88388D01*
G01*
X13386551Y12940104D01*
G75*
G02*
X13563327Y12940104I88388J-88388D01*
G01*
X13740104Y12763327D01*
G75*
G02*
X13740104Y12586551I-88388J-88388D01*
G01*
X13520901Y12367348D01*
G75*
G02*
X13344125Y12367348I-88388J88388D01*
G01*
G37*
G04 #@! TD*
G04 #@! TO.C,R2*
G36*
G01*
X13296673Y13319896D02*
X13119896Y13496673D01*
G75*
G02*
X13119896Y13673449I88388J88388D01*
G01*
X13339099Y13892652D01*
G75*
G02*
X13515875Y13892652I88388J-88388D01*
G01*
X13692652Y13715875D01*
G75*
G02*
X13692652Y13539099I-88388J-88388D01*
G01*
X13473449Y13319896D01*
G75*
G02*
X13296673Y13319896I-88388J88388D01*
G01*
G37*
G36*
G01*
X12844125Y12867348D02*
X12667348Y13044125D01*
G75*
G02*
X12667348Y13220901I88388J88388D01*
G01*
X12886551Y13440104D01*
G75*
G02*
X13063327Y13440104I88388J-88388D01*
G01*
X13240104Y13263327D01*
G75*
G02*
X13240104Y13086551I-88388J-88388D01*
G01*
X13020901Y12867348D01*
G75*
G02*
X12844125Y12867348I-88388J88388D01*
G01*
G37*
G04 #@! TD*
G04 #@! TO.C,R4*
G36*
G01*
X14275000Y8820000D02*
X14525000Y8820000D01*
G75*
G02*
X14650000Y8695000I0J-125000D01*
G01*
X14650000Y8385000D01*
G75*
G02*
X14525000Y8260000I-125000J0D01*
G01*
X14275000Y8260000D01*
G75*
G02*
X14150000Y8385000I0J125000D01*
G01*
X14150000Y8695000D01*
G75*
G02*
X14275000Y8820000I125000J0D01*
G01*
G37*
G36*
G01*
X14275000Y9460000D02*
X14525000Y9460000D01*
G75*
G02*
X14650000Y9335000I0J-125000D01*
G01*
X14650000Y9025000D01*
G75*
G02*
X14525000Y8900000I-125000J0D01*
G01*
X14275000Y8900000D01*
G75*
G02*
X14150000Y9025000I0J125000D01*
G01*
X14150000Y9335000D01*
G75*
G02*
X14275000Y9460000I125000J0D01*
G01*
G37*
G04 #@! TD*
G04 #@! TO.C,C32*
G36*
G01*
X14615000Y21820000D02*
X14865000Y21820000D01*
G75*
G02*
X14990000Y21695000I0J-125000D01*
G01*
X14990000Y21385000D01*
G75*
G02*
X14865000Y21260000I-125000J0D01*
G01*
X14615000Y21260000D01*
G75*
G02*
X14490000Y21385000I0J125000D01*
G01*
X14490000Y21695000D01*
G75*
G02*
X14615000Y21820000I125000J0D01*
G01*
G37*
G36*
G01*
X14615000Y22460000D02*
X14865000Y22460000D01*
G75*
G02*
X14990000Y22335000I0J-125000D01*
G01*
X14990000Y22025000D01*
G75*
G02*
X14865000Y21900000I-125000J0D01*
G01*
X14615000Y21900000D01*
G75*
G02*
X14490000Y22025000I0J125000D01*
G01*
X14490000Y22335000D01*
G75*
G02*
X14615000Y22460000I125000J0D01*
G01*
G37*
G04 #@! TD*
G04 #@! TO.C,C31*
G36*
G01*
X4186673Y24239896D02*
X4009896Y24416673D01*
G75*
G02*
X4009896Y24593449I88388J88388D01*
G01*
X4229099Y24812652D01*
G75*
G02*
X4405875Y24812652I88388J-88388D01*
G01*
X4582652Y24635875D01*
G75*
G02*
X4582652Y24459099I-88388J-88388D01*
G01*
X4363449Y24239896D01*
G75*
G02*
X4186673Y24239896I-88388J88388D01*
G01*
G37*
G36*
G01*
X3734125Y23787348D02*
X3557348Y23964125D01*
G75*
G02*
X3557348Y24140901I88388J88388D01*
G01*
X3776551Y24360104D01*
G75*
G02*
X3953327Y24360104I88388J-88388D01*
G01*
X4130104Y24183327D01*
G75*
G02*
X4130104Y24006551I-88388J-88388D01*
G01*
X3910901Y23787348D01*
G75*
G02*
X3734125Y23787348I-88388J88388D01*
G01*
G37*
G04 #@! TD*
G04 #@! TO.C,C30*
G36*
G01*
X4640104Y18136673D02*
X4463327Y17959896D01*
G75*
G02*
X4286551Y17959896I-88388J88388D01*
G01*
X4067348Y18179099D01*
G75*
G02*
X4067348Y18355875I88388J88388D01*
G01*
X4244125Y18532652D01*
G75*
G02*
X4420901Y18532652I88388J-88388D01*
G01*
X4640104Y18313449D01*
G75*
G02*
X4640104Y18136673I-88388J-88388D01*
G01*
G37*
G36*
G01*
X5092652Y17684125D02*
X4915875Y17507348D01*
G75*
G02*
X4739099Y17507348I-88388J88388D01*
G01*
X4519896Y17726551D01*
G75*
G02*
X4519896Y17903327I88388J88388D01*
G01*
X4696673Y18080104D01*
G75*
G02*
X4873449Y18080104I88388J-88388D01*
G01*
X5092652Y17860901D01*
G75*
G02*
X5092652Y17684125I-88388J-88388D01*
G01*
G37*
G04 #@! TD*
G04 #@! TO.C,C27*
G36*
G01*
X3463327Y19570104D02*
X3640104Y19393327D01*
G75*
G02*
X3640104Y19216551I-88388J-88388D01*
G01*
X3420901Y18997348D01*
G75*
G02*
X3244125Y18997348I-88388J88388D01*
G01*
X3067348Y19174125D01*
G75*
G02*
X3067348Y19350901I88388J88388D01*
G01*
X3286551Y19570104D01*
G75*
G02*
X3463327Y19570104I88388J-88388D01*
G01*
G37*
G36*
G01*
X3915875Y20022652D02*
X4092652Y19845875D01*
G75*
G02*
X4092652Y19669099I-88388J-88388D01*
G01*
X3873449Y19449896D01*
G75*
G02*
X3696673Y19449896I-88388J88388D01*
G01*
X3519896Y19626673D01*
G75*
G02*
X3519896Y19803449I88388J88388D01*
G01*
X3739099Y20022652D01*
G75*
G02*
X3915875Y20022652I88388J-88388D01*
G01*
G37*
G04 #@! TD*
G04 #@! TO.C,C25*
G36*
G01*
X13786673Y24659896D02*
X13609896Y24836673D01*
G75*
G02*
X13609896Y25013449I88388J88388D01*
G01*
X13829099Y25232652D01*
G75*
G02*
X14005875Y25232652I88388J-88388D01*
G01*
X14182652Y25055875D01*
G75*
G02*
X14182652Y24879099I-88388J-88388D01*
G01*
X13963449Y24659896D01*
G75*
G02*
X13786673Y24659896I-88388J88388D01*
G01*
G37*
G36*
G01*
X13334125Y24207348D02*
X13157348Y24384125D01*
G75*
G02*
X13157348Y24560901I88388J88388D01*
G01*
X13376551Y24780104D01*
G75*
G02*
X13553327Y24780104I88388J-88388D01*
G01*
X13730104Y24603327D01*
G75*
G02*
X13730104Y24426551I-88388J-88388D01*
G01*
X13510901Y24207348D01*
G75*
G02*
X13334125Y24207348I-88388J88388D01*
G01*
G37*
G04 #@! TD*
G04 #@! TO.C,C24*
G36*
G01*
X14276673Y24159896D02*
X14099896Y24336673D01*
G75*
G02*
X14099896Y24513449I88388J88388D01*
G01*
X14319099Y24732652D01*
G75*
G02*
X14495875Y24732652I88388J-88388D01*
G01*
X14672652Y24555875D01*
G75*
G02*
X14672652Y24379099I-88388J-88388D01*
G01*
X14453449Y24159896D01*
G75*
G02*
X14276673Y24159896I-88388J88388D01*
G01*
G37*
G36*
G01*
X13824125Y23707348D02*
X13647348Y23884125D01*
G75*
G02*
X13647348Y24060901I88388J88388D01*
G01*
X13866551Y24280104D01*
G75*
G02*
X14043327Y24280104I88388J-88388D01*
G01*
X14220104Y24103327D01*
G75*
G02*
X14220104Y23926551I-88388J-88388D01*
G01*
X14000901Y23707348D01*
G75*
G02*
X13824125Y23707348I-88388J88388D01*
G01*
G37*
G04 #@! TD*
G04 #@! TO.C,C10*
G36*
G01*
X14965000Y28490000D02*
X14715000Y28490000D01*
G75*
G02*
X14590000Y28615000I0J125000D01*
G01*
X14590000Y28925000D01*
G75*
G02*
X14715000Y29050000I125000J0D01*
G01*
X14965000Y29050000D01*
G75*
G02*
X15090000Y28925000I0J-125000D01*
G01*
X15090000Y28615000D01*
G75*
G02*
X14965000Y28490000I-125000J0D01*
G01*
G37*
G36*
G01*
X14965000Y27850000D02*
X14715000Y27850000D01*
G75*
G02*
X14590000Y27975000I0J125000D01*
G01*
X14590000Y28285000D01*
G75*
G02*
X14715000Y28410000I125000J0D01*
G01*
X14965000Y28410000D01*
G75*
G02*
X15090000Y28285000I0J-125000D01*
G01*
X15090000Y27975000D01*
G75*
G02*
X14965000Y27850000I-125000J0D01*
G01*
G37*
G04 #@! TD*
G04 #@! TO.C,C22*
G36*
G01*
X11255000Y30610000D02*
X11005000Y30610000D01*
G75*
G02*
X10880000Y30735000I0J125000D01*
G01*
X10880000Y31045000D01*
G75*
G02*
X11005000Y31170000I125000J0D01*
G01*
X11255000Y31170000D01*
G75*
G02*
X11380000Y31045000I0J-125000D01*
G01*
X11380000Y30735000D01*
G75*
G02*
X11255000Y30610000I-125000J0D01*
G01*
G37*
G36*
G01*
X11255000Y29970000D02*
X11005000Y29970000D01*
G75*
G02*
X10880000Y30095000I0J125000D01*
G01*
X10880000Y30405000D01*
G75*
G02*
X11005000Y30530000I125000J0D01*
G01*
X11255000Y30530000D01*
G75*
G02*
X11380000Y30405000I0J-125000D01*
G01*
X11380000Y30095000D01*
G75*
G02*
X11255000Y29970000I-125000J0D01*
G01*
G37*
G04 #@! TD*
G04 #@! TO.C,C21*
G36*
G01*
X14430000Y31735000D02*
X14430000Y31485000D01*
G75*
G02*
X14305000Y31360000I-125000J0D01*
G01*
X13995000Y31360000D01*
G75*
G02*
X13870000Y31485000I0J125000D01*
G01*
X13870000Y31735000D01*
G75*
G02*
X13995000Y31860000I125000J0D01*
G01*
X14305000Y31860000D01*
G75*
G02*
X14430000Y31735000I0J-125000D01*
G01*
G37*
G36*
G01*
X15070000Y31735000D02*
X15070000Y31485000D01*
G75*
G02*
X14945000Y31360000I-125000J0D01*
G01*
X14635000Y31360000D01*
G75*
G02*
X14510000Y31485000I0J125000D01*
G01*
X14510000Y31735000D01*
G75*
G02*
X14635000Y31860000I125000J0D01*
G01*
X14945000Y31860000D01*
G75*
G02*
X15070000Y31735000I0J-125000D01*
G01*
G37*
G04 #@! TD*
G04 #@! TO.C,C17*
G36*
G01*
X3471820Y2373951D02*
X3196049Y2098180D01*
G75*
G02*
X2962703Y2098180I-116673J116673D01*
G01*
X2729358Y2331525D01*
G75*
G02*
X2729358Y2564871I116673J116673D01*
G01*
X3005129Y2840642D01*
G75*
G02*
X3238475Y2840642I116673J-116673D01*
G01*
X3471820Y2607297D01*
G75*
G02*
X3471820Y2373951I-116673J-116673D01*
G01*
G37*
G36*
G01*
X4150642Y1695129D02*
X3874871Y1419358D01*
G75*
G02*
X3641525Y1419358I-116673J116673D01*
G01*
X3408180Y1652703D01*
G75*
G02*
X3408180Y1886049I116673J116673D01*
G01*
X3683951Y2161820D01*
G75*
G02*
X3917297Y2161820I116673J-116673D01*
G01*
X4150642Y1928475D01*
G75*
G02*
X4150642Y1695129I-116673J-116673D01*
G01*
G37*
G04 #@! TD*
G04 #@! TO.C,C20*
G36*
G01*
X15060000Y32435000D02*
X15060000Y32185000D01*
G75*
G02*
X14935000Y32060000I-125000J0D01*
G01*
X14625000Y32060000D01*
G75*
G02*
X14500000Y32185000I0J125000D01*
G01*
X14500000Y32435000D01*
G75*
G02*
X14625000Y32560000I125000J0D01*
G01*
X14935000Y32560000D01*
G75*
G02*
X15060000Y32435000I0J-125000D01*
G01*
G37*
G36*
G01*
X14420000Y32435000D02*
X14420000Y32185000D01*
G75*
G02*
X14295000Y32060000I-125000J0D01*
G01*
X13985000Y32060000D01*
G75*
G02*
X13860000Y32185000I0J125000D01*
G01*
X13860000Y32435000D01*
G75*
G02*
X13985000Y32560000I125000J0D01*
G01*
X14295000Y32560000D01*
G75*
G02*
X14420000Y32435000I0J-125000D01*
G01*
G37*
G04 #@! TD*
G04 #@! TO.C,C15*
G36*
G01*
X12675000Y30610000D02*
X12425000Y30610000D01*
G75*
G02*
X12300000Y30735000I0J125000D01*
G01*
X12300000Y31045000D01*
G75*
G02*
X12425000Y31170000I125000J0D01*
G01*
X12675000Y31170000D01*
G75*
G02*
X12800000Y31045000I0J-125000D01*
G01*
X12800000Y30735000D01*
G75*
G02*
X12675000Y30610000I-125000J0D01*
G01*
G37*
G36*
G01*
X12675000Y29970000D02*
X12425000Y29970000D01*
G75*
G02*
X12300000Y30095000I0J125000D01*
G01*
X12300000Y30405000D01*
G75*
G02*
X12425000Y30530000I125000J0D01*
G01*
X12675000Y30530000D01*
G75*
G02*
X12800000Y30405000I0J-125000D01*
G01*
X12800000Y30095000D01*
G75*
G02*
X12675000Y29970000I-125000J0D01*
G01*
G37*
G04 #@! TD*
G04 #@! TO.C,C11*
G36*
G01*
X13870000Y32885000D02*
X13870000Y33135000D01*
G75*
G02*
X13995000Y33260000I125000J0D01*
G01*
X14305000Y33260000D01*
G75*
G02*
X14430000Y33135000I0J-125000D01*
G01*
X14430000Y32885000D01*
G75*
G02*
X14305000Y32760000I-125000J0D01*
G01*
X13995000Y32760000D01*
G75*
G02*
X13870000Y32885000I0J125000D01*
G01*
G37*
G36*
G01*
X14510000Y32885000D02*
X14510000Y33135000D01*
G75*
G02*
X14635000Y33260000I125000J0D01*
G01*
X14945000Y33260000D01*
G75*
G02*
X15070000Y33135000I0J-125000D01*
G01*
X15070000Y32885000D01*
G75*
G02*
X14945000Y32760000I-125000J0D01*
G01*
X14635000Y32760000D01*
G75*
G02*
X14510000Y32885000I0J125000D01*
G01*
G37*
G04 #@! TD*
G04 #@! TO.C,C8*
G36*
G01*
X14609896Y25103327D02*
X14786673Y25280104D01*
G75*
G02*
X14963449Y25280104I88388J-88388D01*
G01*
X15182652Y25060901D01*
G75*
G02*
X15182652Y24884125I-88388J-88388D01*
G01*
X15005875Y24707348D01*
G75*
G02*
X14829099Y24707348I-88388J88388D01*
G01*
X14609896Y24926551D01*
G75*
G02*
X14609896Y25103327I88388J88388D01*
G01*
G37*
G36*
G01*
X14157348Y25555875D02*
X14334125Y25732652D01*
G75*
G02*
X14510901Y25732652I88388J-88388D01*
G01*
X14730104Y25513449D01*
G75*
G02*
X14730104Y25336673I-88388J-88388D01*
G01*
X14553327Y25159896D01*
G75*
G02*
X14376551Y25159896I-88388J88388D01*
G01*
X14157348Y25379099D01*
G75*
G02*
X14157348Y25555875I88388J88388D01*
G01*
G37*
G04 #@! TD*
G04 #@! TO.C,C9*
G36*
G01*
X13399896Y8133327D02*
X13576673Y8310104D01*
G75*
G02*
X13753449Y8310104I88388J-88388D01*
G01*
X13972652Y8090901D01*
G75*
G02*
X13972652Y7914125I-88388J-88388D01*
G01*
X13795875Y7737348D01*
G75*
G02*
X13619099Y7737348I-88388J88388D01*
G01*
X13399896Y7956551D01*
G75*
G02*
X13399896Y8133327I88388J88388D01*
G01*
G37*
G36*
G01*
X12947348Y8585875D02*
X13124125Y8762652D01*
G75*
G02*
X13300901Y8762652I88388J-88388D01*
G01*
X13520104Y8543449D01*
G75*
G02*
X13520104Y8366673I-88388J-88388D01*
G01*
X13343327Y8189896D01*
G75*
G02*
X13166551Y8189896I-88388J88388D01*
G01*
X12947348Y8409099D01*
G75*
G02*
X12947348Y8585875I88388J88388D01*
G01*
G37*
G04 #@! TD*
G04 #@! TO.C,C6*
G36*
G01*
X11229896Y6003327D02*
X11406673Y6180104D01*
G75*
G02*
X11583449Y6180104I88388J-88388D01*
G01*
X11802652Y5960901D01*
G75*
G02*
X11802652Y5784125I-88388J-88388D01*
G01*
X11625875Y5607348D01*
G75*
G02*
X11449099Y5607348I-88388J88388D01*
G01*
X11229896Y5826551D01*
G75*
G02*
X11229896Y6003327I88388J88388D01*
G01*
G37*
G36*
G01*
X10777348Y6455875D02*
X10954125Y6632652D01*
G75*
G02*
X11130901Y6632652I88388J-88388D01*
G01*
X11350104Y6413449D01*
G75*
G02*
X11350104Y6236673I-88388J-88388D01*
G01*
X11173327Y6059896D01*
G75*
G02*
X10996551Y6059896I-88388J88388D01*
G01*
X10777348Y6279099D01*
G75*
G02*
X10777348Y6455875I88388J88388D01*
G01*
G37*
G04 #@! TD*
G04 #@! TO.C,C5*
G36*
G01*
X11319358Y6964871D02*
X11595129Y7240642D01*
G75*
G02*
X11828475Y7240642I116673J-116673D01*
G01*
X12061820Y7007297D01*
G75*
G02*
X12061820Y6773951I-116673J-116673D01*
G01*
X11786049Y6498180D01*
G75*
G02*
X11552703Y6498180I-116673J116673D01*
G01*
X11319358Y6731525D01*
G75*
G02*
X11319358Y6964871I116673J116673D01*
G01*
G37*
G36*
G01*
X11998180Y6286049D02*
X12273951Y6561820D01*
G75*
G02*
X12507297Y6561820I116673J-116673D01*
G01*
X12740642Y6328475D01*
G75*
G02*
X12740642Y6095129I-116673J-116673D01*
G01*
X12464871Y5819358D01*
G75*
G02*
X12231525Y5819358I-116673J116673D01*
G01*
X11998180Y6052703D01*
G75*
G02*
X11998180Y6286049I116673J116673D01*
G01*
G37*
G04 #@! TD*
G04 #@! TO.C,C26*
G36*
G01*
X2925000Y20830000D02*
X3175000Y20830000D01*
G75*
G02*
X3300000Y20705000I0J-125000D01*
G01*
X3300000Y20395000D01*
G75*
G02*
X3175000Y20270000I-125000J0D01*
G01*
X2925000Y20270000D01*
G75*
G02*
X2800000Y20395000I0J125000D01*
G01*
X2800000Y20705000D01*
G75*
G02*
X2925000Y20830000I125000J0D01*
G01*
G37*
G36*
G01*
X2925000Y21470000D02*
X3175000Y21470000D01*
G75*
G02*
X3300000Y21345000I0J-125000D01*
G01*
X3300000Y21035000D01*
G75*
G02*
X3175000Y20910000I-125000J0D01*
G01*
X2925000Y20910000D01*
G75*
G02*
X2800000Y21035000I0J125000D01*
G01*
X2800000Y21345000D01*
G75*
G02*
X2925000Y21470000I125000J0D01*
G01*
G37*
G04 #@! TD*
M02*
