G04 #@! TF.GenerationSoftware,KiCad,Pcbnew,5.1.10-1.fc34*
G04 #@! TF.CreationDate,2021-05-13T21:06:21+02:00*
G04 #@! TF.ProjectId,reDIP-SX,72654449-502d-4535-982e-6b696361645f,0.3*
G04 #@! TF.SameCoordinates,PX5e28010PY8011a50*
G04 #@! TF.FileFunction,Paste,Bot*
G04 #@! TF.FilePolarity,Positive*
%FSLAX46Y46*%
G04 Gerber Fmt 4.6, Leading zero omitted, Abs format (unit mm)*
G04 Created by KiCad (PCBNEW 5.1.10-1.fc34) date 2021-05-13 21:06:21*
%MOMM*%
%LPD*%
G01*
G04 APERTURE LIST*
G04 APERTURE END LIST*
G04 #@! TO.C,U10*
G36*
G01*
X3590000Y17360000D02*
X3590000Y16060000D01*
G75*
G02*
X3540000Y16010000I-50000J0D01*
G01*
X3440000Y16010000D01*
G75*
G02*
X3390000Y16060000I0J50000D01*
G01*
X3390000Y17360000D01*
G75*
G02*
X3440000Y17410000I50000J0D01*
G01*
X3540000Y17410000D01*
G75*
G02*
X3590000Y17360000I0J-50000D01*
G01*
G37*
G36*
G01*
X3590000Y23260000D02*
X3590000Y21960000D01*
G75*
G02*
X3540000Y21910000I-50000J0D01*
G01*
X3440000Y21910000D01*
G75*
G02*
X3390000Y21960000I0J50000D01*
G01*
X3390000Y23260000D01*
G75*
G02*
X3440000Y23310000I50000J0D01*
G01*
X3540000Y23310000D01*
G75*
G02*
X3590000Y23260000I0J-50000D01*
G01*
G37*
G36*
G01*
X3990000Y17360000D02*
X3990000Y16060000D01*
G75*
G02*
X3940000Y16010000I-50000J0D01*
G01*
X3840000Y16010000D01*
G75*
G02*
X3790000Y16060000I0J50000D01*
G01*
X3790000Y17360000D01*
G75*
G02*
X3840000Y17410000I50000J0D01*
G01*
X3940000Y17410000D01*
G75*
G02*
X3990000Y17360000I0J-50000D01*
G01*
G37*
G36*
G01*
X3990000Y23260000D02*
X3990000Y21960000D01*
G75*
G02*
X3940000Y21910000I-50000J0D01*
G01*
X3840000Y21910000D01*
G75*
G02*
X3790000Y21960000I0J50000D01*
G01*
X3790000Y23260000D01*
G75*
G02*
X3840000Y23310000I50000J0D01*
G01*
X3940000Y23310000D01*
G75*
G02*
X3990000Y23260000I0J-50000D01*
G01*
G37*
G36*
G01*
X4390000Y17360000D02*
X4390000Y16060000D01*
G75*
G02*
X4340000Y16010000I-50000J0D01*
G01*
X4240000Y16010000D01*
G75*
G02*
X4190000Y16060000I0J50000D01*
G01*
X4190000Y17360000D01*
G75*
G02*
X4240000Y17410000I50000J0D01*
G01*
X4340000Y17410000D01*
G75*
G02*
X4390000Y17360000I0J-50000D01*
G01*
G37*
G36*
G01*
X4390000Y23260000D02*
X4390000Y21960000D01*
G75*
G02*
X4340000Y21910000I-50000J0D01*
G01*
X4240000Y21910000D01*
G75*
G02*
X4190000Y21960000I0J50000D01*
G01*
X4190000Y23260000D01*
G75*
G02*
X4240000Y23310000I50000J0D01*
G01*
X4340000Y23310000D01*
G75*
G02*
X4390000Y23260000I0J-50000D01*
G01*
G37*
G36*
G01*
X4790000Y17360000D02*
X4790000Y16060000D01*
G75*
G02*
X4740000Y16010000I-50000J0D01*
G01*
X4640000Y16010000D01*
G75*
G02*
X4590000Y16060000I0J50000D01*
G01*
X4590000Y17360000D01*
G75*
G02*
X4640000Y17410000I50000J0D01*
G01*
X4740000Y17410000D01*
G75*
G02*
X4790000Y17360000I0J-50000D01*
G01*
G37*
G36*
G01*
X4790000Y23260000D02*
X4790000Y21960000D01*
G75*
G02*
X4740000Y21910000I-50000J0D01*
G01*
X4640000Y21910000D01*
G75*
G02*
X4590000Y21960000I0J50000D01*
G01*
X4590000Y23260000D01*
G75*
G02*
X4640000Y23310000I50000J0D01*
G01*
X4740000Y23310000D01*
G75*
G02*
X4790000Y23260000I0J-50000D01*
G01*
G37*
G36*
G01*
X5190000Y17360000D02*
X5190000Y16060000D01*
G75*
G02*
X5140000Y16010000I-50000J0D01*
G01*
X5040000Y16010000D01*
G75*
G02*
X4990000Y16060000I0J50000D01*
G01*
X4990000Y17360000D01*
G75*
G02*
X5040000Y17410000I50000J0D01*
G01*
X5140000Y17410000D01*
G75*
G02*
X5190000Y17360000I0J-50000D01*
G01*
G37*
G36*
G01*
X5190000Y23260000D02*
X5190000Y21960000D01*
G75*
G02*
X5140000Y21910000I-50000J0D01*
G01*
X5040000Y21910000D01*
G75*
G02*
X4990000Y21960000I0J50000D01*
G01*
X4990000Y23260000D01*
G75*
G02*
X5040000Y23310000I50000J0D01*
G01*
X5140000Y23310000D01*
G75*
G02*
X5190000Y23260000I0J-50000D01*
G01*
G37*
G36*
G01*
X5590000Y17360000D02*
X5590000Y16060000D01*
G75*
G02*
X5540000Y16010000I-50000J0D01*
G01*
X5440000Y16010000D01*
G75*
G02*
X5390000Y16060000I0J50000D01*
G01*
X5390000Y17360000D01*
G75*
G02*
X5440000Y17410000I50000J0D01*
G01*
X5540000Y17410000D01*
G75*
G02*
X5590000Y17360000I0J-50000D01*
G01*
G37*
G36*
G01*
X5590000Y23260000D02*
X5590000Y21960000D01*
G75*
G02*
X5540000Y21910000I-50000J0D01*
G01*
X5440000Y21910000D01*
G75*
G02*
X5390000Y21960000I0J50000D01*
G01*
X5390000Y23260000D01*
G75*
G02*
X5440000Y23310000I50000J0D01*
G01*
X5540000Y23310000D01*
G75*
G02*
X5590000Y23260000I0J-50000D01*
G01*
G37*
G36*
G01*
X5990000Y17360000D02*
X5990000Y16060000D01*
G75*
G02*
X5940000Y16010000I-50000J0D01*
G01*
X5840000Y16010000D01*
G75*
G02*
X5790000Y16060000I0J50000D01*
G01*
X5790000Y17360000D01*
G75*
G02*
X5840000Y17410000I50000J0D01*
G01*
X5940000Y17410000D01*
G75*
G02*
X5990000Y17360000I0J-50000D01*
G01*
G37*
G36*
G01*
X5990000Y23260000D02*
X5990000Y21960000D01*
G75*
G02*
X5940000Y21910000I-50000J0D01*
G01*
X5840000Y21910000D01*
G75*
G02*
X5790000Y21960000I0J50000D01*
G01*
X5790000Y23260000D01*
G75*
G02*
X5840000Y23310000I50000J0D01*
G01*
X5940000Y23310000D01*
G75*
G02*
X5990000Y23260000I0J-50000D01*
G01*
G37*
G36*
G01*
X6390000Y17360000D02*
X6390000Y16060000D01*
G75*
G02*
X6340000Y16010000I-50000J0D01*
G01*
X6240000Y16010000D01*
G75*
G02*
X6190000Y16060000I0J50000D01*
G01*
X6190000Y17360000D01*
G75*
G02*
X6240000Y17410000I50000J0D01*
G01*
X6340000Y17410000D01*
G75*
G02*
X6390000Y17360000I0J-50000D01*
G01*
G37*
G36*
G01*
X6390000Y23260000D02*
X6390000Y21960000D01*
G75*
G02*
X6340000Y21910000I-50000J0D01*
G01*
X6240000Y21910000D01*
G75*
G02*
X6190000Y21960000I0J50000D01*
G01*
X6190000Y23260000D01*
G75*
G02*
X6240000Y23310000I50000J0D01*
G01*
X6340000Y23310000D01*
G75*
G02*
X6390000Y23260000I0J-50000D01*
G01*
G37*
G36*
G01*
X6790000Y17360000D02*
X6790000Y16060000D01*
G75*
G02*
X6740000Y16010000I-50000J0D01*
G01*
X6640000Y16010000D01*
G75*
G02*
X6590000Y16060000I0J50000D01*
G01*
X6590000Y17360000D01*
G75*
G02*
X6640000Y17410000I50000J0D01*
G01*
X6740000Y17410000D01*
G75*
G02*
X6790000Y17360000I0J-50000D01*
G01*
G37*
G36*
G01*
X6790000Y23260000D02*
X6790000Y21960000D01*
G75*
G02*
X6740000Y21910000I-50000J0D01*
G01*
X6640000Y21910000D01*
G75*
G02*
X6590000Y21960000I0J50000D01*
G01*
X6590000Y23260000D01*
G75*
G02*
X6640000Y23310000I50000J0D01*
G01*
X6740000Y23310000D01*
G75*
G02*
X6790000Y23260000I0J-50000D01*
G01*
G37*
G36*
G01*
X7190000Y17360000D02*
X7190000Y16060000D01*
G75*
G02*
X7140000Y16010000I-50000J0D01*
G01*
X7040000Y16010000D01*
G75*
G02*
X6990000Y16060000I0J50000D01*
G01*
X6990000Y17360000D01*
G75*
G02*
X7040000Y17410000I50000J0D01*
G01*
X7140000Y17410000D01*
G75*
G02*
X7190000Y17360000I0J-50000D01*
G01*
G37*
G36*
G01*
X7190000Y23260000D02*
X7190000Y21960000D01*
G75*
G02*
X7140000Y21910000I-50000J0D01*
G01*
X7040000Y21910000D01*
G75*
G02*
X6990000Y21960000I0J50000D01*
G01*
X6990000Y23260000D01*
G75*
G02*
X7040000Y23310000I50000J0D01*
G01*
X7140000Y23310000D01*
G75*
G02*
X7190000Y23260000I0J-50000D01*
G01*
G37*
G36*
G01*
X7590000Y17360000D02*
X7590000Y16060000D01*
G75*
G02*
X7540000Y16010000I-50000J0D01*
G01*
X7440000Y16010000D01*
G75*
G02*
X7390000Y16060000I0J50000D01*
G01*
X7390000Y17360000D01*
G75*
G02*
X7440000Y17410000I50000J0D01*
G01*
X7540000Y17410000D01*
G75*
G02*
X7590000Y17360000I0J-50000D01*
G01*
G37*
G36*
G01*
X7590000Y23260000D02*
X7590000Y21960000D01*
G75*
G02*
X7540000Y21910000I-50000J0D01*
G01*
X7440000Y21910000D01*
G75*
G02*
X7390000Y21960000I0J50000D01*
G01*
X7390000Y23260000D01*
G75*
G02*
X7440000Y23310000I50000J0D01*
G01*
X7540000Y23310000D01*
G75*
G02*
X7590000Y23260000I0J-50000D01*
G01*
G37*
G36*
G01*
X7990000Y17360000D02*
X7990000Y16060000D01*
G75*
G02*
X7940000Y16010000I-50000J0D01*
G01*
X7840000Y16010000D01*
G75*
G02*
X7790000Y16060000I0J50000D01*
G01*
X7790000Y17360000D01*
G75*
G02*
X7840000Y17410000I50000J0D01*
G01*
X7940000Y17410000D01*
G75*
G02*
X7990000Y17360000I0J-50000D01*
G01*
G37*
G36*
G01*
X7990000Y23260000D02*
X7990000Y21960000D01*
G75*
G02*
X7940000Y21910000I-50000J0D01*
G01*
X7840000Y21910000D01*
G75*
G02*
X7790000Y21960000I0J50000D01*
G01*
X7790000Y23260000D01*
G75*
G02*
X7840000Y23310000I50000J0D01*
G01*
X7940000Y23310000D01*
G75*
G02*
X7990000Y23260000I0J-50000D01*
G01*
G37*
G36*
G01*
X8390000Y17360000D02*
X8390000Y16060000D01*
G75*
G02*
X8340000Y16010000I-50000J0D01*
G01*
X8240000Y16010000D01*
G75*
G02*
X8190000Y16060000I0J50000D01*
G01*
X8190000Y17360000D01*
G75*
G02*
X8240000Y17410000I50000J0D01*
G01*
X8340000Y17410000D01*
G75*
G02*
X8390000Y17360000I0J-50000D01*
G01*
G37*
G36*
G01*
X8390000Y23260000D02*
X8390000Y21960000D01*
G75*
G02*
X8340000Y21910000I-50000J0D01*
G01*
X8240000Y21910000D01*
G75*
G02*
X8190000Y21960000I0J50000D01*
G01*
X8190000Y23260000D01*
G75*
G02*
X8240000Y23310000I50000J0D01*
G01*
X8340000Y23310000D01*
G75*
G02*
X8390000Y23260000I0J-50000D01*
G01*
G37*
G36*
G01*
X8790000Y17360000D02*
X8790000Y16060000D01*
G75*
G02*
X8740000Y16010000I-50000J0D01*
G01*
X8640000Y16010000D01*
G75*
G02*
X8590000Y16060000I0J50000D01*
G01*
X8590000Y17360000D01*
G75*
G02*
X8640000Y17410000I50000J0D01*
G01*
X8740000Y17410000D01*
G75*
G02*
X8790000Y17360000I0J-50000D01*
G01*
G37*
G36*
G01*
X8790000Y23260000D02*
X8790000Y21960000D01*
G75*
G02*
X8740000Y21910000I-50000J0D01*
G01*
X8640000Y21910000D01*
G75*
G02*
X8590000Y21960000I0J50000D01*
G01*
X8590000Y23260000D01*
G75*
G02*
X8640000Y23310000I50000J0D01*
G01*
X8740000Y23310000D01*
G75*
G02*
X8790000Y23260000I0J-50000D01*
G01*
G37*
G36*
G01*
X9190000Y17360000D02*
X9190000Y16060000D01*
G75*
G02*
X9140000Y16010000I-50000J0D01*
G01*
X9040000Y16010000D01*
G75*
G02*
X8990000Y16060000I0J50000D01*
G01*
X8990000Y17360000D01*
G75*
G02*
X9040000Y17410000I50000J0D01*
G01*
X9140000Y17410000D01*
G75*
G02*
X9190000Y17360000I0J-50000D01*
G01*
G37*
G36*
G01*
X9190000Y23260000D02*
X9190000Y21960000D01*
G75*
G02*
X9140000Y21910000I-50000J0D01*
G01*
X9040000Y21910000D01*
G75*
G02*
X8990000Y21960000I0J50000D01*
G01*
X8990000Y23260000D01*
G75*
G02*
X9040000Y23310000I50000J0D01*
G01*
X9140000Y23310000D01*
G75*
G02*
X9190000Y23260000I0J-50000D01*
G01*
G37*
G36*
G01*
X9590000Y17360000D02*
X9590000Y16060000D01*
G75*
G02*
X9540000Y16010000I-50000J0D01*
G01*
X9440000Y16010000D01*
G75*
G02*
X9390000Y16060000I0J50000D01*
G01*
X9390000Y17360000D01*
G75*
G02*
X9440000Y17410000I50000J0D01*
G01*
X9540000Y17410000D01*
G75*
G02*
X9590000Y17360000I0J-50000D01*
G01*
G37*
G36*
G01*
X9590000Y23260000D02*
X9590000Y21960000D01*
G75*
G02*
X9540000Y21910000I-50000J0D01*
G01*
X9440000Y21910000D01*
G75*
G02*
X9390000Y21960000I0J50000D01*
G01*
X9390000Y23260000D01*
G75*
G02*
X9440000Y23310000I50000J0D01*
G01*
X9540000Y23310000D01*
G75*
G02*
X9590000Y23260000I0J-50000D01*
G01*
G37*
G36*
G01*
X9990000Y17360000D02*
X9990000Y16060000D01*
G75*
G02*
X9940000Y16010000I-50000J0D01*
G01*
X9840000Y16010000D01*
G75*
G02*
X9790000Y16060000I0J50000D01*
G01*
X9790000Y17360000D01*
G75*
G02*
X9840000Y17410000I50000J0D01*
G01*
X9940000Y17410000D01*
G75*
G02*
X9990000Y17360000I0J-50000D01*
G01*
G37*
G36*
G01*
X9990000Y23260000D02*
X9990000Y21960000D01*
G75*
G02*
X9940000Y21910000I-50000J0D01*
G01*
X9840000Y21910000D01*
G75*
G02*
X9790000Y21960000I0J50000D01*
G01*
X9790000Y23260000D01*
G75*
G02*
X9840000Y23310000I50000J0D01*
G01*
X9940000Y23310000D01*
G75*
G02*
X9990000Y23260000I0J-50000D01*
G01*
G37*
G36*
G01*
X10390000Y17360000D02*
X10390000Y16060000D01*
G75*
G02*
X10340000Y16010000I-50000J0D01*
G01*
X10240000Y16010000D01*
G75*
G02*
X10190000Y16060000I0J50000D01*
G01*
X10190000Y17360000D01*
G75*
G02*
X10240000Y17410000I50000J0D01*
G01*
X10340000Y17410000D01*
G75*
G02*
X10390000Y17360000I0J-50000D01*
G01*
G37*
G36*
G01*
X10390000Y23260000D02*
X10390000Y21960000D01*
G75*
G02*
X10340000Y21910000I-50000J0D01*
G01*
X10240000Y21910000D01*
G75*
G02*
X10190000Y21960000I0J50000D01*
G01*
X10190000Y23260000D01*
G75*
G02*
X10240000Y23310000I50000J0D01*
G01*
X10340000Y23310000D01*
G75*
G02*
X10390000Y23260000I0J-50000D01*
G01*
G37*
G36*
G01*
X10790000Y17360000D02*
X10790000Y16060000D01*
G75*
G02*
X10740000Y16010000I-50000J0D01*
G01*
X10640000Y16010000D01*
G75*
G02*
X10590000Y16060000I0J50000D01*
G01*
X10590000Y17360000D01*
G75*
G02*
X10640000Y17410000I50000J0D01*
G01*
X10740000Y17410000D01*
G75*
G02*
X10790000Y17360000I0J-50000D01*
G01*
G37*
G36*
G01*
X10790000Y23260000D02*
X10790000Y21960000D01*
G75*
G02*
X10740000Y21910000I-50000J0D01*
G01*
X10640000Y21910000D01*
G75*
G02*
X10590000Y21960000I0J50000D01*
G01*
X10590000Y23260000D01*
G75*
G02*
X10640000Y23310000I50000J0D01*
G01*
X10740000Y23310000D01*
G75*
G02*
X10790000Y23260000I0J-50000D01*
G01*
G37*
G36*
G01*
X11190000Y17360000D02*
X11190000Y16060000D01*
G75*
G02*
X11140000Y16010000I-50000J0D01*
G01*
X11040000Y16010000D01*
G75*
G02*
X10990000Y16060000I0J50000D01*
G01*
X10990000Y17360000D01*
G75*
G02*
X11040000Y17410000I50000J0D01*
G01*
X11140000Y17410000D01*
G75*
G02*
X11190000Y17360000I0J-50000D01*
G01*
G37*
G36*
G01*
X11190000Y23260000D02*
X11190000Y21960000D01*
G75*
G02*
X11140000Y21910000I-50000J0D01*
G01*
X11040000Y21910000D01*
G75*
G02*
X10990000Y21960000I0J50000D01*
G01*
X10990000Y23260000D01*
G75*
G02*
X11040000Y23310000I50000J0D01*
G01*
X11140000Y23310000D01*
G75*
G02*
X11190000Y23260000I0J-50000D01*
G01*
G37*
G36*
G01*
X11590000Y17360000D02*
X11590000Y16060000D01*
G75*
G02*
X11540000Y16010000I-50000J0D01*
G01*
X11440000Y16010000D01*
G75*
G02*
X11390000Y16060000I0J50000D01*
G01*
X11390000Y17360000D01*
G75*
G02*
X11440000Y17410000I50000J0D01*
G01*
X11540000Y17410000D01*
G75*
G02*
X11590000Y17360000I0J-50000D01*
G01*
G37*
G36*
G01*
X11590000Y23260000D02*
X11590000Y21960000D01*
G75*
G02*
X11540000Y21910000I-50000J0D01*
G01*
X11440000Y21910000D01*
G75*
G02*
X11390000Y21960000I0J50000D01*
G01*
X11390000Y23260000D01*
G75*
G02*
X11440000Y23310000I50000J0D01*
G01*
X11540000Y23310000D01*
G75*
G02*
X11590000Y23260000I0J-50000D01*
G01*
G37*
G36*
G01*
X11990000Y17360000D02*
X11990000Y16060000D01*
G75*
G02*
X11940000Y16010000I-50000J0D01*
G01*
X11840000Y16010000D01*
G75*
G02*
X11790000Y16060000I0J50000D01*
G01*
X11790000Y17360000D01*
G75*
G02*
X11840000Y17410000I50000J0D01*
G01*
X11940000Y17410000D01*
G75*
G02*
X11990000Y17360000I0J-50000D01*
G01*
G37*
G36*
G01*
X11990000Y23260000D02*
X11990000Y21960000D01*
G75*
G02*
X11940000Y21910000I-50000J0D01*
G01*
X11840000Y21910000D01*
G75*
G02*
X11790000Y21960000I0J50000D01*
G01*
X11790000Y23260000D01*
G75*
G02*
X11840000Y23310000I50000J0D01*
G01*
X11940000Y23310000D01*
G75*
G02*
X11990000Y23260000I0J-50000D01*
G01*
G37*
G36*
G01*
X12390000Y17360000D02*
X12390000Y16060000D01*
G75*
G02*
X12340000Y16010000I-50000J0D01*
G01*
X12240000Y16010000D01*
G75*
G02*
X12190000Y16060000I0J50000D01*
G01*
X12190000Y17360000D01*
G75*
G02*
X12240000Y17410000I50000J0D01*
G01*
X12340000Y17410000D01*
G75*
G02*
X12390000Y17360000I0J-50000D01*
G01*
G37*
G36*
G01*
X12390000Y23260000D02*
X12390000Y21960000D01*
G75*
G02*
X12340000Y21910000I-50000J0D01*
G01*
X12240000Y21910000D01*
G75*
G02*
X12190000Y21960000I0J50000D01*
G01*
X12190000Y23260000D01*
G75*
G02*
X12240000Y23310000I50000J0D01*
G01*
X12340000Y23310000D01*
G75*
G02*
X12390000Y23260000I0J-50000D01*
G01*
G37*
G36*
G01*
X12790000Y17360000D02*
X12790000Y16060000D01*
G75*
G02*
X12740000Y16010000I-50000J0D01*
G01*
X12640000Y16010000D01*
G75*
G02*
X12590000Y16060000I0J50000D01*
G01*
X12590000Y17360000D01*
G75*
G02*
X12640000Y17410000I50000J0D01*
G01*
X12740000Y17410000D01*
G75*
G02*
X12790000Y17360000I0J-50000D01*
G01*
G37*
G36*
G01*
X12790000Y23260000D02*
X12790000Y21960000D01*
G75*
G02*
X12740000Y21910000I-50000J0D01*
G01*
X12640000Y21910000D01*
G75*
G02*
X12590000Y21960000I0J50000D01*
G01*
X12590000Y23260000D01*
G75*
G02*
X12640000Y23310000I50000J0D01*
G01*
X12740000Y23310000D01*
G75*
G02*
X12790000Y23260000I0J-50000D01*
G01*
G37*
G36*
G01*
X13190000Y17360000D02*
X13190000Y16060000D01*
G75*
G02*
X13140000Y16010000I-50000J0D01*
G01*
X13040000Y16010000D01*
G75*
G02*
X12990000Y16060000I0J50000D01*
G01*
X12990000Y17360000D01*
G75*
G02*
X13040000Y17410000I50000J0D01*
G01*
X13140000Y17410000D01*
G75*
G02*
X13190000Y17360000I0J-50000D01*
G01*
G37*
G36*
G01*
X13190000Y23260000D02*
X13190000Y21960000D01*
G75*
G02*
X13140000Y21910000I-50000J0D01*
G01*
X13040000Y21910000D01*
G75*
G02*
X12990000Y21960000I0J50000D01*
G01*
X12990000Y23260000D01*
G75*
G02*
X13040000Y23310000I50000J0D01*
G01*
X13140000Y23310000D01*
G75*
G02*
X13190000Y23260000I0J-50000D01*
G01*
G37*
G36*
G01*
X13590000Y17360000D02*
X13590000Y16060000D01*
G75*
G02*
X13540000Y16010000I-50000J0D01*
G01*
X13440000Y16010000D01*
G75*
G02*
X13390000Y16060000I0J50000D01*
G01*
X13390000Y17360000D01*
G75*
G02*
X13440000Y17410000I50000J0D01*
G01*
X13540000Y17410000D01*
G75*
G02*
X13590000Y17360000I0J-50000D01*
G01*
G37*
G36*
G01*
X13590000Y23260000D02*
X13590000Y21960000D01*
G75*
G02*
X13540000Y21910000I-50000J0D01*
G01*
X13440000Y21910000D01*
G75*
G02*
X13390000Y21960000I0J50000D01*
G01*
X13390000Y23260000D01*
G75*
G02*
X13440000Y23310000I50000J0D01*
G01*
X13540000Y23310000D01*
G75*
G02*
X13590000Y23260000I0J-50000D01*
G01*
G37*
G36*
G01*
X13990000Y17360000D02*
X13990000Y16060000D01*
G75*
G02*
X13940000Y16010000I-50000J0D01*
G01*
X13840000Y16010000D01*
G75*
G02*
X13790000Y16060000I0J50000D01*
G01*
X13790000Y17360000D01*
G75*
G02*
X13840000Y17410000I50000J0D01*
G01*
X13940000Y17410000D01*
G75*
G02*
X13990000Y17360000I0J-50000D01*
G01*
G37*
G36*
G01*
X13990000Y23260000D02*
X13990000Y21960000D01*
G75*
G02*
X13940000Y21910000I-50000J0D01*
G01*
X13840000Y21910000D01*
G75*
G02*
X13790000Y21960000I0J50000D01*
G01*
X13790000Y23260000D01*
G75*
G02*
X13840000Y23310000I50000J0D01*
G01*
X13940000Y23310000D01*
G75*
G02*
X13990000Y23260000I0J-50000D01*
G01*
G37*
G36*
G01*
X14390000Y17360000D02*
X14390000Y16060000D01*
G75*
G02*
X14340000Y16010000I-50000J0D01*
G01*
X14240000Y16010000D01*
G75*
G02*
X14190000Y16060000I0J50000D01*
G01*
X14190000Y17360000D01*
G75*
G02*
X14240000Y17410000I50000J0D01*
G01*
X14340000Y17410000D01*
G75*
G02*
X14390000Y17360000I0J-50000D01*
G01*
G37*
G36*
G01*
X14390000Y23260000D02*
X14390000Y21960000D01*
G75*
G02*
X14340000Y21910000I-50000J0D01*
G01*
X14240000Y21910000D01*
G75*
G02*
X14190000Y21960000I0J50000D01*
G01*
X14190000Y23260000D01*
G75*
G02*
X14240000Y23310000I50000J0D01*
G01*
X14340000Y23310000D01*
G75*
G02*
X14390000Y23260000I0J-50000D01*
G01*
G37*
G04 #@! TD*
G04 #@! TO.C,U9*
G36*
G01*
X8709688Y7964103D02*
X8921820Y8176235D01*
G75*
G02*
X9133952Y8176235I106066J-106066D01*
G01*
X10088546Y7221641D01*
G75*
G02*
X10088546Y7009509I-106066J-106066D01*
G01*
X9876414Y6797377D01*
G75*
G02*
X9664282Y6797377I-106066J106066D01*
G01*
X8709688Y7751971D01*
G75*
G02*
X8709688Y7964103I106066J106066D01*
G01*
G37*
G36*
G01*
X9607713Y8862129D02*
X9819845Y9074261D01*
G75*
G02*
X10031977Y9074261I106066J-106066D01*
G01*
X10986571Y8119667D01*
G75*
G02*
X10986571Y7907535I-106066J-106066D01*
G01*
X10774439Y7695403D01*
G75*
G02*
X10562307Y7695403I-106066J106066D01*
G01*
X9607713Y8649997D01*
G75*
G02*
X9607713Y8862129I106066J106066D01*
G01*
G37*
G36*
G01*
X10505739Y9760155D02*
X10717871Y9972287D01*
G75*
G02*
X10930003Y9972287I106066J-106066D01*
G01*
X11884597Y9017693D01*
G75*
G02*
X11884597Y8805561I-106066J-106066D01*
G01*
X11672465Y8593429D01*
G75*
G02*
X11460333Y8593429I-106066J106066D01*
G01*
X10505739Y9548023D01*
G75*
G02*
X10505739Y9760155I106066J106066D01*
G01*
G37*
G36*
G01*
X11403765Y10658180D02*
X11615897Y10870312D01*
G75*
G02*
X11828029Y10870312I106066J-106066D01*
G01*
X12782623Y9915718D01*
G75*
G02*
X12782623Y9703586I-106066J-106066D01*
G01*
X12570491Y9491454D01*
G75*
G02*
X12358359Y9491454I-106066J106066D01*
G01*
X11403765Y10446048D01*
G75*
G02*
X11403765Y10658180I106066J106066D01*
G01*
G37*
G36*
G01*
X7691454Y14370491D02*
X7903586Y14582623D01*
G75*
G02*
X8115718Y14582623I106066J-106066D01*
G01*
X9070312Y13628029D01*
G75*
G02*
X9070312Y13415897I-106066J-106066D01*
G01*
X8858180Y13203765D01*
G75*
G02*
X8646048Y13203765I-106066J106066D01*
G01*
X7691454Y14158359D01*
G75*
G02*
X7691454Y14370491I106066J106066D01*
G01*
G37*
G36*
G01*
X6793429Y13472465D02*
X7005561Y13684597D01*
G75*
G02*
X7217693Y13684597I106066J-106066D01*
G01*
X8172287Y12730003D01*
G75*
G02*
X8172287Y12517871I-106066J-106066D01*
G01*
X7960155Y12305739D01*
G75*
G02*
X7748023Y12305739I-106066J106066D01*
G01*
X6793429Y13260333D01*
G75*
G02*
X6793429Y13472465I106066J106066D01*
G01*
G37*
G36*
G01*
X5895403Y12574439D02*
X6107535Y12786571D01*
G75*
G02*
X6319667Y12786571I106066J-106066D01*
G01*
X7274261Y11831977D01*
G75*
G02*
X7274261Y11619845I-106066J-106066D01*
G01*
X7062129Y11407713D01*
G75*
G02*
X6849997Y11407713I-106066J106066D01*
G01*
X5895403Y12362307D01*
G75*
G02*
X5895403Y12574439I106066J106066D01*
G01*
G37*
G36*
G01*
X4997377Y11676414D02*
X5209509Y11888546D01*
G75*
G02*
X5421641Y11888546I106066J-106066D01*
G01*
X6376235Y10933952D01*
G75*
G02*
X6376235Y10721820I-106066J-106066D01*
G01*
X6164103Y10509688D01*
G75*
G02*
X5951971Y10509688I-106066J106066D01*
G01*
X4997377Y11464282D01*
G75*
G02*
X4997377Y11676414I106066J106066D01*
G01*
G37*
G04 #@! TD*
M02*
