G04 #@! TF.GenerationSoftware,KiCad,Pcbnew,5.1.10-1.fc34*
G04 #@! TF.CreationDate,2021-05-13T21:06:21+02:00*
G04 #@! TF.ProjectId,reDIP-SX,72654449-502d-4535-982e-6b696361645f,0.3*
G04 #@! TF.SameCoordinates,PX5e28010PY8011a50*
G04 #@! TF.FileFunction,Copper,L1,Top*
G04 #@! TF.FilePolarity,Positive*
%FSLAX46Y46*%
G04 Gerber Fmt 4.6, Leading zero omitted, Abs format (unit mm)*
G04 Created by KiCad (PCBNEW 5.1.10-1.fc34) date 2021-05-13 21:06:21*
%MOMM*%
%LPD*%
G01*
G04 APERTURE LIST*
G04 #@! TA.AperFunction,ComponentPad*
%ADD10O,1.200000X2.500000*%
G04 #@! TD*
G04 #@! TA.AperFunction,ComponentPad*
%ADD11O,1.200000X2.200000*%
G04 #@! TD*
G04 #@! TA.AperFunction,SMDPad,CuDef*
%ADD12C,0.200000*%
G04 #@! TD*
G04 #@! TA.AperFunction,SMDPad,CuDef*
%ADD13C,0.350000*%
G04 #@! TD*
G04 #@! TA.AperFunction,ComponentPad*
%ADD14C,1.600000*%
G04 #@! TD*
G04 #@! TA.AperFunction,ViaPad*
%ADD15C,0.400000*%
G04 #@! TD*
G04 #@! TA.AperFunction,Conductor*
%ADD16C,0.400000*%
G04 #@! TD*
G04 #@! TA.AperFunction,Conductor*
%ADD17C,0.200000*%
G04 #@! TD*
G04 #@! TA.AperFunction,Conductor*
%ADD18C,0.150000*%
G04 #@! TD*
G04 #@! TA.AperFunction,Conductor*
%ADD19C,0.250000*%
G04 #@! TD*
G04 #@! TA.AperFunction,Conductor*
%ADD20C,0.100000*%
G04 #@! TD*
G04 #@! TA.AperFunction,Conductor*
%ADD21C,0.350000*%
G04 #@! TD*
G04 APERTURE END LIST*
G04 #@! TO.P,C28,2*
G04 #@! TO.N,GND*
G04 #@! TA.AperFunction,SMDPad,CuDef*
G36*
G01*
X3935650Y19017072D02*
X4077072Y18875650D01*
G75*
G02*
X4077072Y18734228I-70711J-70711D01*
G01*
X3893224Y18550380D01*
G75*
G02*
X3751802Y18550380I-70711J70711D01*
G01*
X3610380Y18691802D01*
G75*
G02*
X3610380Y18833224I70711J70711D01*
G01*
X3794228Y19017072D01*
G75*
G02*
X3935650Y19017072I70711J-70711D01*
G01*
G37*
G04 #@! TD.AperFunction*
G04 #@! TO.P,C28,1*
G04 #@! TO.N,Net-(C27-Pad1)*
G04 #@! TA.AperFunction,SMDPad,CuDef*
G36*
G01*
X4388198Y19469620D02*
X4529620Y19328198D01*
G75*
G02*
X4529620Y19186776I-70711J-70711D01*
G01*
X4345772Y19002928D01*
G75*
G02*
X4204350Y19002928I-70711J70711D01*
G01*
X4062928Y19144350D01*
G75*
G02*
X4062928Y19285772I70711J70711D01*
G01*
X4246776Y19469620D01*
G75*
G02*
X4388198Y19469620I70711J-70711D01*
G01*
G37*
G04 #@! TD.AperFunction*
G04 #@! TD*
G04 #@! TO.P,U11,8*
G04 #@! TO.N,+5V*
G04 #@! TA.AperFunction,SMDPad,CuDef*
G36*
G01*
X13874404Y15950190D02*
X13980470Y16056256D01*
G75*
G02*
X14086536Y16056256I53033J-53033D01*
G01*
X14475444Y15667348D01*
G75*
G02*
X14475444Y15561282I-53033J-53033D01*
G01*
X14369378Y15455216D01*
G75*
G02*
X14263312Y15455216I-53033J53033D01*
G01*
X13874404Y15844124D01*
G75*
G02*
X13874404Y15950190I53033J53033D01*
G01*
G37*
G04 #@! TD.AperFunction*
G04 #@! TO.P,U11,7*
G04 #@! TO.N,GND*
G04 #@! TA.AperFunction,SMDPad,CuDef*
G36*
G01*
X13520851Y15596637D02*
X13626917Y15702703D01*
G75*
G02*
X13732983Y15702703I53033J-53033D01*
G01*
X14121891Y15313795D01*
G75*
G02*
X14121891Y15207729I-53033J-53033D01*
G01*
X14015825Y15101663D01*
G75*
G02*
X13909759Y15101663I-53033J53033D01*
G01*
X13520851Y15490571D01*
G75*
G02*
X13520851Y15596637I53033J53033D01*
G01*
G37*
G04 #@! TD.AperFunction*
G04 #@! TO.P,U11,6*
G04 #@! TO.N,/POT_Y*
G04 #@! TA.AperFunction,SMDPad,CuDef*
G36*
G01*
X13167297Y15243083D02*
X13273363Y15349149D01*
G75*
G02*
X13379429Y15349149I53033J-53033D01*
G01*
X13768337Y14960241D01*
G75*
G02*
X13768337Y14854175I-53033J-53033D01*
G01*
X13662271Y14748109D01*
G75*
G02*
X13556205Y14748109I-53033J53033D01*
G01*
X13167297Y15137017D01*
G75*
G02*
X13167297Y15243083I53033J53033D01*
G01*
G37*
G04 #@! TD.AperFunction*
G04 #@! TO.P,U11,5*
G04 #@! TO.N,/ICE_POT_Y*
G04 #@! TA.AperFunction,SMDPad,CuDef*
G36*
G01*
X12813744Y14889530D02*
X12919810Y14995596D01*
G75*
G02*
X13025876Y14995596I53033J-53033D01*
G01*
X13414784Y14606688D01*
G75*
G02*
X13414784Y14500622I-53033J-53033D01*
G01*
X13308718Y14394556D01*
G75*
G02*
X13202652Y14394556I-53033J53033D01*
G01*
X12813744Y14783464D01*
G75*
G02*
X12813744Y14889530I53033J53033D01*
G01*
G37*
G04 #@! TD.AperFunction*
G04 #@! TO.P,U11,4*
G04 #@! TO.N,GND*
G04 #@! TA.AperFunction,SMDPad,CuDef*
G36*
G01*
X10904556Y16798718D02*
X11010622Y16904784D01*
G75*
G02*
X11116688Y16904784I53033J-53033D01*
G01*
X11505596Y16515876D01*
G75*
G02*
X11505596Y16409810I-53033J-53033D01*
G01*
X11399530Y16303744D01*
G75*
G02*
X11293464Y16303744I-53033J53033D01*
G01*
X10904556Y16692652D01*
G75*
G02*
X10904556Y16798718I53033J53033D01*
G01*
G37*
G04 #@! TD.AperFunction*
G04 #@! TO.P,U11,3*
G04 #@! TO.N,/POT_X*
G04 #@! TA.AperFunction,SMDPad,CuDef*
G36*
G01*
X11258109Y17152271D02*
X11364175Y17258337D01*
G75*
G02*
X11470241Y17258337I53033J-53033D01*
G01*
X11859149Y16869429D01*
G75*
G02*
X11859149Y16763363I-53033J-53033D01*
G01*
X11753083Y16657297D01*
G75*
G02*
X11647017Y16657297I-53033J53033D01*
G01*
X11258109Y17046205D01*
G75*
G02*
X11258109Y17152271I53033J53033D01*
G01*
G37*
G04 #@! TD.AperFunction*
G04 #@! TO.P,U11,2*
G04 #@! TO.N,/ICE_POT_X*
G04 #@! TA.AperFunction,SMDPad,CuDef*
G36*
G01*
X11611663Y17505825D02*
X11717729Y17611891D01*
G75*
G02*
X11823795Y17611891I53033J-53033D01*
G01*
X12212703Y17222983D01*
G75*
G02*
X12212703Y17116917I-53033J-53033D01*
G01*
X12106637Y17010851D01*
G75*
G02*
X12000571Y17010851I-53033J53033D01*
G01*
X11611663Y17399759D01*
G75*
G02*
X11611663Y17505825I53033J53033D01*
G01*
G37*
G04 #@! TD.AperFunction*
G04 #@! TO.P,U11,1*
G04 #@! TO.N,GND*
G04 #@! TA.AperFunction,SMDPad,CuDef*
G36*
G01*
X11965216Y17859378D02*
X12071282Y17965444D01*
G75*
G02*
X12177348Y17965444I53033J-53033D01*
G01*
X12566256Y17576536D01*
G75*
G02*
X12566256Y17470470I-53033J-53033D01*
G01*
X12460190Y17364404D01*
G75*
G02*
X12354124Y17364404I-53033J53033D01*
G01*
X11965216Y17753312D01*
G75*
G02*
X11965216Y17859378I53033J53033D01*
G01*
G37*
G04 #@! TD.AperFunction*
G04 #@! TD*
G04 #@! TO.P,R10,2*
G04 #@! TO.N,+3V3*
G04 #@! TA.AperFunction,SMDPad,CuDef*
G36*
G01*
X6455650Y26827072D02*
X6597072Y26685650D01*
G75*
G02*
X6597072Y26544228I-70711J-70711D01*
G01*
X6413224Y26360380D01*
G75*
G02*
X6271802Y26360380I-70711J70711D01*
G01*
X6130380Y26501802D01*
G75*
G02*
X6130380Y26643224I70711J70711D01*
G01*
X6314228Y26827072D01*
G75*
G02*
X6455650Y26827072I70711J-70711D01*
G01*
G37*
G04 #@! TD.AperFunction*
G04 #@! TO.P,R10,1*
G04 #@! TO.N,/SPI_SCLK*
G04 #@! TA.AperFunction,SMDPad,CuDef*
G36*
G01*
X6908198Y27279620D02*
X7049620Y27138198D01*
G75*
G02*
X7049620Y26996776I-70711J-70711D01*
G01*
X6865772Y26812928D01*
G75*
G02*
X6724350Y26812928I-70711J70711D01*
G01*
X6582928Y26954350D01*
G75*
G02*
X6582928Y27095772I70711J70711D01*
G01*
X6766776Y27279620D01*
G75*
G02*
X6908198Y27279620I70711J-70711D01*
G01*
G37*
G04 #@! TD.AperFunction*
G04 #@! TD*
G04 #@! TO.P,J1,B1*
G04 #@! TO.N,GND*
G04 #@! TA.AperFunction,SMDPad,CuDef*
G36*
G01*
X6050000Y34922400D02*
X6050000Y34057600D01*
G75*
G02*
X5982400Y33990000I-67600J0D01*
G01*
X5597600Y33990000D01*
G75*
G02*
X5530000Y34057600I0J67600D01*
G01*
X5530000Y34922400D01*
G75*
G02*
X5597600Y34990000I67600J0D01*
G01*
X5982400Y34990000D01*
G75*
G02*
X6050000Y34922400I0J-67600D01*
G01*
G37*
G04 #@! TD.AperFunction*
G04 #@! TO.P,J1,B4*
G04 #@! TO.N,VBUS*
G04 #@! TA.AperFunction,SMDPad,CuDef*
G36*
G01*
X6800000Y34922400D02*
X6800000Y34057600D01*
G75*
G02*
X6732400Y33990000I-67600J0D01*
G01*
X6347600Y33990000D01*
G75*
G02*
X6280000Y34057600I0J67600D01*
G01*
X6280000Y34922400D01*
G75*
G02*
X6347600Y34990000I67600J0D01*
G01*
X6732400Y34990000D01*
G75*
G02*
X6800000Y34922400I0J-67600D01*
G01*
G37*
G04 #@! TD.AperFunction*
G04 #@! TO.P,J1,B9*
G04 #@! TA.AperFunction,SMDPad,CuDef*
G36*
G01*
X11500000Y34922400D02*
X11500000Y34057600D01*
G75*
G02*
X11432400Y33990000I-67600J0D01*
G01*
X11047600Y33990000D01*
G75*
G02*
X10980000Y34057600I0J67600D01*
G01*
X10980000Y34922400D01*
G75*
G02*
X11047600Y34990000I67600J0D01*
G01*
X11432400Y34990000D01*
G75*
G02*
X11500000Y34922400I0J-67600D01*
G01*
G37*
G04 #@! TD.AperFunction*
G04 #@! TO.P,J1,B12*
G04 #@! TO.N,GND*
G04 #@! TA.AperFunction,SMDPad,CuDef*
G36*
G01*
X12250000Y34922400D02*
X12250000Y34057600D01*
G75*
G02*
X12182400Y33990000I-67600J0D01*
G01*
X11797600Y33990000D01*
G75*
G02*
X11730000Y34057600I0J67600D01*
G01*
X11730000Y34922400D01*
G75*
G02*
X11797600Y34990000I67600J0D01*
G01*
X12182400Y34990000D01*
G75*
G02*
X12250000Y34922400I0J-67600D01*
G01*
G37*
G04 #@! TD.AperFunction*
G04 #@! TO.P,J1,*
G04 #@! TO.N,*
G04 #@! TA.AperFunction,SMDPad,CuDef*
G36*
G01*
X10790000Y39490000D02*
X10790000Y37890000D01*
G75*
G02*
X10590000Y37690000I-200000J0D01*
G01*
X9990000Y37690000D01*
G75*
G02*
X9790000Y37890000I0J200000D01*
G01*
X9790000Y39490000D01*
G75*
G02*
X9990000Y39690000I200000J0D01*
G01*
X10590000Y39690000D01*
G75*
G02*
X10790000Y39490000I0J-200000D01*
G01*
G37*
G04 #@! TD.AperFunction*
G04 #@! TA.AperFunction,SMDPad,CuDef*
G36*
G01*
X7990000Y39490000D02*
X7990000Y37890000D01*
G75*
G02*
X7790000Y37690000I-200000J0D01*
G01*
X7190000Y37690000D01*
G75*
G02*
X6990000Y37890000I0J200000D01*
G01*
X6990000Y39490000D01*
G75*
G02*
X7190000Y39690000I200000J0D01*
G01*
X7790000Y39690000D01*
G75*
G02*
X7990000Y39490000I0J-200000D01*
G01*
G37*
G04 #@! TD.AperFunction*
D10*
G04 #@! TO.P,J1,S1*
G04 #@! TO.N,GND*
X13210000Y38690000D03*
X4570000Y38690000D03*
D11*
X13210000Y34865000D03*
X4570000Y34865000D03*
G04 #@! TO.P,J1,A1*
G04 #@! TA.AperFunction,SMDPad,CuDef*
G36*
G01*
X12250000Y34922400D02*
X12250000Y34057600D01*
G75*
G02*
X12182400Y33990000I-67600J0D01*
G01*
X11797600Y33990000D01*
G75*
G02*
X11730000Y34057600I0J67600D01*
G01*
X11730000Y34922400D01*
G75*
G02*
X11797600Y34990000I67600J0D01*
G01*
X12182400Y34990000D01*
G75*
G02*
X12250000Y34922400I0J-67600D01*
G01*
G37*
G04 #@! TD.AperFunction*
G04 #@! TO.P,J1,A4*
G04 #@! TO.N,VBUS*
G04 #@! TA.AperFunction,SMDPad,CuDef*
G36*
G01*
X11500000Y34922400D02*
X11500000Y34057600D01*
G75*
G02*
X11432400Y33990000I-67600J0D01*
G01*
X11047600Y33990000D01*
G75*
G02*
X10980000Y34057600I0J67600D01*
G01*
X10980000Y34922400D01*
G75*
G02*
X11047600Y34990000I67600J0D01*
G01*
X11432400Y34990000D01*
G75*
G02*
X11500000Y34922400I0J-67600D01*
G01*
G37*
G04 #@! TD.AperFunction*
G04 #@! TO.P,J1,A12*
G04 #@! TO.N,GND*
G04 #@! TA.AperFunction,SMDPad,CuDef*
G36*
G01*
X6050000Y34922400D02*
X6050000Y34057600D01*
G75*
G02*
X5982400Y33990000I-67600J0D01*
G01*
X5597600Y33990000D01*
G75*
G02*
X5530000Y34057600I0J67600D01*
G01*
X5530000Y34922400D01*
G75*
G02*
X5597600Y34990000I67600J0D01*
G01*
X5982400Y34990000D01*
G75*
G02*
X6050000Y34922400I0J-67600D01*
G01*
G37*
G04 #@! TD.AperFunction*
G04 #@! TO.P,J1,A9*
G04 #@! TO.N,VBUS*
G04 #@! TA.AperFunction,SMDPad,CuDef*
G36*
G01*
X6800000Y34922400D02*
X6800000Y34057600D01*
G75*
G02*
X6732400Y33990000I-67600J0D01*
G01*
X6347600Y33990000D01*
G75*
G02*
X6280000Y34057600I0J67600D01*
G01*
X6280000Y34922400D01*
G75*
G02*
X6347600Y34990000I67600J0D01*
G01*
X6732400Y34990000D01*
G75*
G02*
X6800000Y34922400I0J-67600D01*
G01*
G37*
G04 #@! TD.AperFunction*
G04 #@! TO.P,J1,A5*
G04 #@! TO.N,/CC1*
G04 #@! TA.AperFunction,SMDPad,CuDef*
G36*
G01*
X10775000Y34922500D02*
X10775000Y34057500D01*
G75*
G02*
X10707500Y33990000I-67500J0D01*
G01*
X10572500Y33990000D01*
G75*
G02*
X10505000Y34057500I0J67500D01*
G01*
X10505000Y34922500D01*
G75*
G02*
X10572500Y34990000I67500J0D01*
G01*
X10707500Y34990000D01*
G75*
G02*
X10775000Y34922500I0J-67500D01*
G01*
G37*
G04 #@! TD.AperFunction*
G04 #@! TO.P,J1,B8*
G04 #@! TO.N,/SBU2*
G04 #@! TA.AperFunction,SMDPad,CuDef*
G36*
G01*
X10275000Y34922500D02*
X10275000Y34057500D01*
G75*
G02*
X10207500Y33990000I-67500J0D01*
G01*
X10072500Y33990000D01*
G75*
G02*
X10005000Y34057500I0J67500D01*
G01*
X10005000Y34922500D01*
G75*
G02*
X10072500Y34990000I67500J0D01*
G01*
X10207500Y34990000D01*
G75*
G02*
X10275000Y34922500I0J-67500D01*
G01*
G37*
G04 #@! TD.AperFunction*
G04 #@! TO.P,J1,B7*
G04 #@! TO.N,Net-(D3-Pad4)*
G04 #@! TA.AperFunction,SMDPad,CuDef*
G36*
G01*
X9775000Y34922500D02*
X9775000Y34057500D01*
G75*
G02*
X9707500Y33990000I-67500J0D01*
G01*
X9572500Y33990000D01*
G75*
G02*
X9505000Y34057500I0J67500D01*
G01*
X9505000Y34922500D01*
G75*
G02*
X9572500Y34990000I67500J0D01*
G01*
X9707500Y34990000D01*
G75*
G02*
X9775000Y34922500I0J-67500D01*
G01*
G37*
G04 #@! TD.AperFunction*
G04 #@! TO.P,J1,A6*
G04 #@! TO.N,Net-(D3-Pad5)*
G04 #@! TA.AperFunction,SMDPad,CuDef*
G36*
G01*
X9275000Y34922500D02*
X9275000Y34057500D01*
G75*
G02*
X9207500Y33990000I-67500J0D01*
G01*
X9072500Y33990000D01*
G75*
G02*
X9005000Y34057500I0J67500D01*
G01*
X9005000Y34922500D01*
G75*
G02*
X9072500Y34990000I67500J0D01*
G01*
X9207500Y34990000D01*
G75*
G02*
X9275000Y34922500I0J-67500D01*
G01*
G37*
G04 #@! TD.AperFunction*
G04 #@! TO.P,J1,B6*
G04 #@! TA.AperFunction,SMDPad,CuDef*
G36*
G01*
X8775000Y34922500D02*
X8775000Y34057500D01*
G75*
G02*
X8707500Y33990000I-67500J0D01*
G01*
X8572500Y33990000D01*
G75*
G02*
X8505000Y34057500I0J67500D01*
G01*
X8505000Y34922500D01*
G75*
G02*
X8572500Y34990000I67500J0D01*
G01*
X8707500Y34990000D01*
G75*
G02*
X8775000Y34922500I0J-67500D01*
G01*
G37*
G04 #@! TD.AperFunction*
G04 #@! TO.P,J1,A7*
G04 #@! TO.N,Net-(D3-Pad4)*
G04 #@! TA.AperFunction,SMDPad,CuDef*
G36*
G01*
X8275000Y34922500D02*
X8275000Y34057500D01*
G75*
G02*
X8207500Y33990000I-67500J0D01*
G01*
X8072500Y33990000D01*
G75*
G02*
X8005000Y34057500I0J67500D01*
G01*
X8005000Y34922500D01*
G75*
G02*
X8072500Y34990000I67500J0D01*
G01*
X8207500Y34990000D01*
G75*
G02*
X8275000Y34922500I0J-67500D01*
G01*
G37*
G04 #@! TD.AperFunction*
G04 #@! TO.P,J1,B5*
G04 #@! TO.N,/CC2*
G04 #@! TA.AperFunction,SMDPad,CuDef*
G36*
G01*
X7775000Y34922500D02*
X7775000Y34057500D01*
G75*
G02*
X7707500Y33990000I-67500J0D01*
G01*
X7572500Y33990000D01*
G75*
G02*
X7505000Y34057500I0J67500D01*
G01*
X7505000Y34922500D01*
G75*
G02*
X7572500Y34990000I67500J0D01*
G01*
X7707500Y34990000D01*
G75*
G02*
X7775000Y34922500I0J-67500D01*
G01*
G37*
G04 #@! TD.AperFunction*
G04 #@! TO.P,J1,A8*
G04 #@! TO.N,/SBU1*
G04 #@! TA.AperFunction,SMDPad,CuDef*
G36*
G01*
X7275000Y34922500D02*
X7275000Y34057500D01*
G75*
G02*
X7207500Y33990000I-67500J0D01*
G01*
X7072500Y33990000D01*
G75*
G02*
X7005000Y34057500I0J67500D01*
G01*
X7005000Y34922500D01*
G75*
G02*
X7072500Y34990000I67500J0D01*
G01*
X7207500Y34990000D01*
G75*
G02*
X7275000Y34922500I0J-67500D01*
G01*
G37*
G04 #@! TD.AperFunction*
G04 #@! TD*
G04 #@! TO.P,Q2,1*
G04 #@! TO.N,/LED_~EN~*
G04 #@! TA.AperFunction,SMDPad,CuDef*
G36*
G01*
X2985026Y16037158D02*
X2878960Y16143224D01*
G75*
G02*
X2878960Y16213934I35355J35355D01*
G01*
X3091092Y16426066D01*
G75*
G02*
X3161802Y16426066I35355J-35355D01*
G01*
X3267868Y16320000D01*
G75*
G02*
X3267868Y16249290I-35355J-35355D01*
G01*
X3055736Y16037158D01*
G75*
G02*
X2985026Y16037158I-35355J35355D01*
G01*
G37*
G04 #@! TD.AperFunction*
G04 #@! TO.P,Q2,2*
G04 #@! TO.N,+3V3*
G04 #@! TA.AperFunction,SMDPad,CuDef*
G36*
G01*
X3303224Y15718960D02*
X3197158Y15825026D01*
G75*
G02*
X3197158Y15895736I35355J35355D01*
G01*
X3409290Y16107868D01*
G75*
G02*
X3480000Y16107868I35355J-35355D01*
G01*
X3586066Y16001802D01*
G75*
G02*
X3586066Y15931092I-35355J-35355D01*
G01*
X3373934Y15718960D01*
G75*
G02*
X3303224Y15718960I-35355J35355D01*
G01*
G37*
G04 #@! TD.AperFunction*
G04 #@! TO.P,Q2,3*
G04 #@! TO.N,Net-(C29-Pad1)*
G04 #@! TA.AperFunction,SMDPad,CuDef*
G36*
G01*
X3798198Y16213934D02*
X3373934Y16638198D01*
G75*
G02*
X3373934Y16708908I35355J35355D01*
G01*
X3586066Y16921040D01*
G75*
G02*
X3656776Y16921040I35355J-35355D01*
G01*
X4081040Y16496776D01*
G75*
G02*
X4081040Y16426066I-35355J-35355D01*
G01*
X3868908Y16213934D01*
G75*
G02*
X3798198Y16213934I-35355J35355D01*
G01*
G37*
G04 #@! TD.AperFunction*
G04 #@! TD*
G04 #@! TO.P,Q1,6*
G04 #@! TO.N,/SYS_CLK*
G04 #@! TA.AperFunction,SMDPad,CuDef*
G36*
G01*
X3031957Y8150486D02*
X2899374Y8017903D01*
G75*
G02*
X2766792Y8017903I-66291J66291D01*
G01*
X2545821Y8238874D01*
G75*
G02*
X2545821Y8371456I66291J66291D01*
G01*
X2678404Y8504039D01*
G75*
G02*
X2810986Y8504039I66291J-66291D01*
G01*
X3031957Y8283068D01*
G75*
G02*
X3031957Y8150486I-66291J-66291D01*
G01*
G37*
G04 #@! TD.AperFunction*
G04 #@! TO.P,Q1,4*
G04 #@! TO.N,/RTS*
G04 #@! TA.AperFunction,SMDPad,CuDef*
G36*
G01*
X3792097Y8910626D02*
X3659514Y8778043D01*
G75*
G02*
X3526932Y8778043I-66291J66291D01*
G01*
X3305961Y8999014D01*
G75*
G02*
X3305961Y9131596I66291J66291D01*
G01*
X3438544Y9264179D01*
G75*
G02*
X3571126Y9264179I66291J-66291D01*
G01*
X3792097Y9043208D01*
G75*
G02*
X3792097Y8910626I-66291J-66291D01*
G01*
G37*
G04 #@! TD.AperFunction*
G04 #@! TO.P,Q1,2*
G04 #@! TA.AperFunction,SMDPad,CuDef*
G36*
G01*
X4706917Y7209149D02*
X4600851Y7103083D01*
G75*
G02*
X4494785Y7103083I-53033J53033D01*
G01*
X4141231Y7456637D01*
G75*
G02*
X4141231Y7562703I53033J53033D01*
G01*
X4247297Y7668769D01*
G75*
G02*
X4353363Y7668769I53033J-53033D01*
G01*
X4706917Y7315215D01*
G75*
G02*
X4706917Y7209149I-53033J-53033D01*
G01*
G37*
G04 #@! TD.AperFunction*
G04 #@! TO.P,Q1,5*
G04 #@! TO.N,/DTR*
G04 #@! TA.AperFunction,SMDPad,CuDef*
G36*
G01*
X3398769Y8517297D02*
X3292703Y8411231D01*
G75*
G02*
X3186637Y8411231I-53033J53033D01*
G01*
X2833083Y8764785D01*
G75*
G02*
X2833083Y8870851I53033J53033D01*
G01*
X2939149Y8976917D01*
G75*
G02*
X3045215Y8976917I53033J-53033D01*
G01*
X3398769Y8623363D01*
G75*
G02*
X3398769Y8517297I-53033J-53033D01*
G01*
G37*
G04 #@! TD.AperFunction*
G04 #@! TO.P,Q1,3*
G04 #@! TO.N,/ESP_EN*
G04 #@! TA.AperFunction,SMDPad,CuDef*
G36*
G01*
X4994179Y7708544D02*
X4861596Y7575961D01*
G75*
G02*
X4729014Y7575961I-66291J66291D01*
G01*
X4508043Y7796932D01*
G75*
G02*
X4508043Y7929514I66291J66291D01*
G01*
X4640626Y8062097D01*
G75*
G02*
X4773208Y8062097I66291J-66291D01*
G01*
X4994179Y7841126D01*
G75*
G02*
X4994179Y7708544I-66291J-66291D01*
G01*
G37*
G04 #@! TD.AperFunction*
G04 #@! TO.P,Q1,1*
G04 #@! TO.N,/DTR*
G04 #@! TA.AperFunction,SMDPad,CuDef*
G36*
G01*
X4234039Y6948404D02*
X4101456Y6815821D01*
G75*
G02*
X3968874Y6815821I-66291J66291D01*
G01*
X3747903Y7036792D01*
G75*
G02*
X3747903Y7169374I66291J66291D01*
G01*
X3880486Y7301957D01*
G75*
G02*
X4013068Y7301957I66291J-66291D01*
G01*
X4234039Y7080986D01*
G75*
G02*
X4234039Y6948404I-66291J-66291D01*
G01*
G37*
G04 #@! TD.AperFunction*
G04 #@! TD*
G04 #@! TO.P,U3,10*
G04 #@! TO.N,/D+*
G04 #@! TA.AperFunction,SMDPad,CuDef*
G36*
G01*
X8336750Y30057500D02*
X7886250Y30057500D01*
G75*
G02*
X7830000Y30113750I0J56250D01*
G01*
X7830000Y30226250D01*
G75*
G02*
X7886250Y30282500I56250J0D01*
G01*
X8336750Y30282500D01*
G75*
G02*
X8393000Y30226250I0J-56250D01*
G01*
X8393000Y30113750D01*
G75*
G02*
X8336750Y30057500I-56250J0D01*
G01*
G37*
G04 #@! TD.AperFunction*
G04 #@! TO.P,U3,9*
G04 #@! TO.N,VBUS*
G04 #@! TA.AperFunction,SMDPad,CuDef*
G36*
G01*
X8336750Y30457500D02*
X7886250Y30457500D01*
G75*
G02*
X7830000Y30513750I0J56250D01*
G01*
X7830000Y30626250D01*
G75*
G02*
X7886250Y30682500I56250J0D01*
G01*
X8336750Y30682500D01*
G75*
G02*
X8393000Y30626250I0J-56250D01*
G01*
X8393000Y30513750D01*
G75*
G02*
X8336750Y30457500I-56250J0D01*
G01*
G37*
G04 #@! TD.AperFunction*
G04 #@! TO.P,U3,8*
G04 #@! TO.N,/A_SEL*
G04 #@! TA.AperFunction,SMDPad,CuDef*
G36*
G01*
X8336750Y30857500D02*
X7886250Y30857500D01*
G75*
G02*
X7830000Y30913750I0J56250D01*
G01*
X7830000Y31026250D01*
G75*
G02*
X7886250Y31082500I56250J0D01*
G01*
X8336750Y31082500D01*
G75*
G02*
X8393000Y31026250I0J-56250D01*
G01*
X8393000Y30913750D01*
G75*
G02*
X8336750Y30857500I-56250J0D01*
G01*
G37*
G04 #@! TD.AperFunction*
G04 #@! TO.P,U3,7*
G04 #@! TO.N,Net-(D3-Pad5)*
G04 #@! TA.AperFunction,SMDPad,CuDef*
G36*
G01*
X8792500Y31363750D02*
X8792500Y30913250D01*
G75*
G02*
X8736250Y30857000I-56250J0D01*
G01*
X8623750Y30857000D01*
G75*
G02*
X8567500Y30913250I0J56250D01*
G01*
X8567500Y31363750D01*
G75*
G02*
X8623750Y31420000I56250J0D01*
G01*
X8736250Y31420000D01*
G75*
G02*
X8792500Y31363750I0J-56250D01*
G01*
G37*
G04 #@! TD.AperFunction*
G04 #@! TO.P,U3,6*
G04 #@! TO.N,Net-(D3-Pad4)*
G04 #@! TA.AperFunction,SMDPad,CuDef*
G36*
G01*
X9192500Y31363750D02*
X9192500Y30913250D01*
G75*
G02*
X9136250Y30857000I-56250J0D01*
G01*
X9023750Y30857000D01*
G75*
G02*
X8967500Y30913250I0J56250D01*
G01*
X8967500Y31363750D01*
G75*
G02*
X9023750Y31420000I56250J0D01*
G01*
X9136250Y31420000D01*
G75*
G02*
X9192500Y31363750I0J-56250D01*
G01*
G37*
G04 #@! TD.AperFunction*
G04 #@! TO.P,U3,5*
G04 #@! TO.N,+3V3*
G04 #@! TA.AperFunction,SMDPad,CuDef*
G36*
G01*
X9873750Y30857500D02*
X9423250Y30857500D01*
G75*
G02*
X9367000Y30913750I0J56250D01*
G01*
X9367000Y31026250D01*
G75*
G02*
X9423250Y31082500I56250J0D01*
G01*
X9873750Y31082500D01*
G75*
G02*
X9930000Y31026250I0J-56250D01*
G01*
X9930000Y30913750D01*
G75*
G02*
X9873750Y30857500I-56250J0D01*
G01*
G37*
G04 #@! TD.AperFunction*
G04 #@! TO.P,U3,4*
G04 #@! TO.N,GND*
G04 #@! TA.AperFunction,SMDPad,CuDef*
G36*
G01*
X9873750Y30457500D02*
X9423250Y30457500D01*
G75*
G02*
X9367000Y30513750I0J56250D01*
G01*
X9367000Y30626250D01*
G75*
G02*
X9423250Y30682500I56250J0D01*
G01*
X9873750Y30682500D01*
G75*
G02*
X9930000Y30626250I0J-56250D01*
G01*
X9930000Y30513750D01*
G75*
G02*
X9873750Y30457500I-56250J0D01*
G01*
G37*
G04 #@! TD.AperFunction*
G04 #@! TO.P,U3,3*
G04 #@! TO.N,/A_L*
G04 #@! TA.AperFunction,SMDPad,CuDef*
G36*
G01*
X9873750Y30057500D02*
X9423250Y30057500D01*
G75*
G02*
X9367000Y30113750I0J56250D01*
G01*
X9367000Y30226250D01*
G75*
G02*
X9423250Y30282500I56250J0D01*
G01*
X9873750Y30282500D01*
G75*
G02*
X9930000Y30226250I0J-56250D01*
G01*
X9930000Y30113750D01*
G75*
G02*
X9873750Y30057500I-56250J0D01*
G01*
G37*
G04 #@! TD.AperFunction*
G04 #@! TO.P,U3,2*
G04 #@! TO.N,/A_R*
G04 #@! TA.AperFunction,SMDPad,CuDef*
G36*
G01*
X9192500Y30226750D02*
X9192500Y29776250D01*
G75*
G02*
X9136250Y29720000I-56250J0D01*
G01*
X9023750Y29720000D01*
G75*
G02*
X8967500Y29776250I0J56250D01*
G01*
X8967500Y30226750D01*
G75*
G02*
X9023750Y30283000I56250J0D01*
G01*
X9136250Y30283000D01*
G75*
G02*
X9192500Y30226750I0J-56250D01*
G01*
G37*
G04 #@! TD.AperFunction*
G04 #@! TO.P,U3,1*
G04 #@! TO.N,/D-*
G04 #@! TA.AperFunction,SMDPad,CuDef*
G36*
G01*
X8792500Y30326750D02*
X8792500Y29776250D01*
G75*
G02*
X8736250Y29720000I-56250J0D01*
G01*
X8623750Y29720000D01*
G75*
G02*
X8567500Y29776250I0J56250D01*
G01*
X8567500Y30326750D01*
G75*
G02*
X8623750Y30383000I56250J0D01*
G01*
X8736250Y30383000D01*
G75*
G02*
X8792500Y30326750I0J-56250D01*
G01*
G37*
G04 #@! TD.AperFunction*
G04 #@! TD*
G04 #@! TO.P,D3,1*
G04 #@! TO.N,/SBU1*
G04 #@! TA.AperFunction,SMDPad,CuDef*
G36*
G01*
X10415000Y33140000D02*
X10415000Y32740000D01*
G75*
G02*
X10365000Y32690000I-50000J0D01*
G01*
X10215000Y32690000D01*
G75*
G02*
X10165000Y32740000I0J50000D01*
G01*
X10165000Y33140000D01*
G75*
G02*
X10215000Y33190000I50000J0D01*
G01*
X10365000Y33190000D01*
G75*
G02*
X10415000Y33140000I0J-50000D01*
G01*
G37*
G04 #@! TD.AperFunction*
G04 #@! TO.P,D3,7*
G04 #@! TO.N,/CC2*
G04 #@! TA.AperFunction,SMDPad,CuDef*
G36*
G01*
X8015000Y33140000D02*
X8015000Y32840000D01*
G75*
G02*
X7965000Y32790000I-50000J0D01*
G01*
X7815000Y32790000D01*
G75*
G02*
X7765000Y32840000I0J50000D01*
G01*
X7765000Y33140000D01*
G75*
G02*
X7815000Y33190000I50000J0D01*
G01*
X7965000Y33190000D01*
G75*
G02*
X8015000Y33140000I0J-50000D01*
G01*
G37*
G04 #@! TD.AperFunction*
G04 #@! TO.P,D3,2*
G04 #@! TO.N,/SBU2*
G04 #@! TA.AperFunction,SMDPad,CuDef*
G36*
G01*
X10015000Y33140000D02*
X10015000Y32840000D01*
G75*
G02*
X9965000Y32790000I-50000J0D01*
G01*
X9815000Y32790000D01*
G75*
G02*
X9765000Y32840000I0J50000D01*
G01*
X9765000Y33140000D01*
G75*
G02*
X9815000Y33190000I50000J0D01*
G01*
X9965000Y33190000D01*
G75*
G02*
X10015000Y33140000I0J-50000D01*
G01*
G37*
G04 #@! TD.AperFunction*
G04 #@! TO.P,D3,6*
G04 #@! TO.N,GND*
G04 #@! TA.AperFunction,SMDPad,CuDef*
G36*
G01*
X8415000Y33140000D02*
X8415000Y32840000D01*
G75*
G02*
X8365000Y32790000I-50000J0D01*
G01*
X8215000Y32790000D01*
G75*
G02*
X8165000Y32840000I0J50000D01*
G01*
X8165000Y33140000D01*
G75*
G02*
X8215000Y33190000I50000J0D01*
G01*
X8365000Y33190000D01*
G75*
G02*
X8415000Y33140000I0J-50000D01*
G01*
G37*
G04 #@! TD.AperFunction*
G04 #@! TO.P,D3,3*
G04 #@! TO.N,VBUS*
G04 #@! TA.AperFunction,SMDPad,CuDef*
G36*
G01*
X9615000Y33140000D02*
X9615000Y32840000D01*
G75*
G02*
X9565000Y32790000I-50000J0D01*
G01*
X9415000Y32790000D01*
G75*
G02*
X9365000Y32840000I0J50000D01*
G01*
X9365000Y33140000D01*
G75*
G02*
X9415000Y33190000I50000J0D01*
G01*
X9565000Y33190000D01*
G75*
G02*
X9615000Y33140000I0J-50000D01*
G01*
G37*
G04 #@! TD.AperFunction*
G04 #@! TO.P,D3,5*
G04 #@! TO.N,Net-(D3-Pad5)*
G04 #@! TA.AperFunction,SMDPad,CuDef*
G36*
G01*
X8815000Y33140000D02*
X8815000Y32840000D01*
G75*
G02*
X8765000Y32790000I-50000J0D01*
G01*
X8615000Y32790000D01*
G75*
G02*
X8565000Y32840000I0J50000D01*
G01*
X8565000Y33140000D01*
G75*
G02*
X8615000Y33190000I50000J0D01*
G01*
X8765000Y33190000D01*
G75*
G02*
X8815000Y33140000I0J-50000D01*
G01*
G37*
G04 #@! TD.AperFunction*
G04 #@! TO.P,D3,4*
G04 #@! TO.N,Net-(D3-Pad4)*
G04 #@! TA.AperFunction,SMDPad,CuDef*
G36*
G01*
X9215000Y33140000D02*
X9215000Y32840000D01*
G75*
G02*
X9165000Y32790000I-50000J0D01*
G01*
X9015000Y32790000D01*
G75*
G02*
X8965000Y32840000I0J50000D01*
G01*
X8965000Y33140000D01*
G75*
G02*
X9015000Y33190000I50000J0D01*
G01*
X9165000Y33190000D01*
G75*
G02*
X9215000Y33140000I0J-50000D01*
G01*
G37*
G04 #@! TD.AperFunction*
G04 #@! TO.P,D3,8*
G04 #@! TO.N,/CC1*
G04 #@! TA.AperFunction,SMDPad,CuDef*
G36*
G01*
X7615000Y33140000D02*
X7615000Y32840000D01*
G75*
G02*
X7565000Y32790000I-50000J0D01*
G01*
X7415000Y32790000D01*
G75*
G02*
X7365000Y32840000I0J50000D01*
G01*
X7365000Y33140000D01*
G75*
G02*
X7415000Y33190000I50000J0D01*
G01*
X7565000Y33190000D01*
G75*
G02*
X7615000Y33140000I0J-50000D01*
G01*
G37*
G04 #@! TD.AperFunction*
G04 #@! TO.P,D3,10*
G04 #@! TO.N,VBUS*
G04 #@! TA.AperFunction,SMDPad,CuDef*
G36*
G01*
X9720000Y32540000D02*
X9720000Y32090000D01*
G75*
G02*
X9620000Y31990000I-100000J0D01*
G01*
X9320000Y31990000D01*
G75*
G02*
X9220000Y32090000I0J100000D01*
G01*
X9220000Y32540000D01*
G75*
G02*
X9320000Y32640000I100000J0D01*
G01*
X9620000Y32640000D01*
G75*
G02*
X9720000Y32540000I0J-100000D01*
G01*
G37*
G04 #@! TD.AperFunction*
G04 #@! TO.P,D3,9*
G04 #@! TO.N,GND*
G04 #@! TA.AperFunction,SMDPad,CuDef*
G36*
G01*
X8560000Y32540000D02*
X8560000Y32090000D01*
G75*
G02*
X8460000Y31990000I-100000J0D01*
G01*
X8160000Y31990000D01*
G75*
G02*
X8060000Y32090000I0J100000D01*
G01*
X8060000Y32540000D01*
G75*
G02*
X8160000Y32640000I100000J0D01*
G01*
X8460000Y32640000D01*
G75*
G02*
X8560000Y32540000I0J-100000D01*
G01*
G37*
G04 #@! TD.AperFunction*
G04 #@! TD*
G04 #@! TO.P,AE1,1*
G04 #@! TO.N,Net-(AE1-Pad1)*
G04 #@! TA.AperFunction,SMDPad,CuDef*
G36*
G01*
X10340000Y2617500D02*
X10340000Y3832500D01*
G75*
G02*
X10407500Y3900000I67500J0D01*
G01*
X11622500Y3900000D01*
G75*
G02*
X11690000Y3832500I0J-67500D01*
G01*
X11690000Y2617500D01*
G75*
G02*
X11622500Y2550000I-67500J0D01*
G01*
X10407500Y2550000D01*
G75*
G02*
X10340000Y2617500I0J67500D01*
G01*
G37*
G04 #@! TD.AperFunction*
G04 #@! TO.P,AE1,*
G04 #@! TO.N,*
G04 #@! TA.AperFunction,SMDPad,CuDef*
G36*
G01*
X12490000Y2617500D02*
X12490000Y3832500D01*
G75*
G02*
X12557500Y3900000I67500J0D01*
G01*
X13772500Y3900000D01*
G75*
G02*
X13840000Y3832500I0J-67500D01*
G01*
X13840000Y2617500D01*
G75*
G02*
X13772500Y2550000I-67500J0D01*
G01*
X12557500Y2550000D01*
G75*
G02*
X12490000Y2617500I0J67500D01*
G01*
G37*
G04 #@! TD.AperFunction*
G04 #@! TA.AperFunction,SMDPad,CuDef*
G36*
G01*
X12490000Y467500D02*
X12490000Y1682500D01*
G75*
G02*
X12557500Y1750000I67500J0D01*
G01*
X13772500Y1750000D01*
G75*
G02*
X13840000Y1682500I0J-67500D01*
G01*
X13840000Y467500D01*
G75*
G02*
X13772500Y400000I-67500J0D01*
G01*
X12557500Y400000D01*
G75*
G02*
X12490000Y467500I0J67500D01*
G01*
G37*
G04 #@! TD.AperFunction*
G04 #@! TA.AperFunction,SMDPad,CuDef*
G36*
G01*
X10340000Y467500D02*
X10340000Y1682500D01*
G75*
G02*
X10407500Y1750000I67500J0D01*
G01*
X11622500Y1750000D01*
G75*
G02*
X11690000Y1682500I0J-67500D01*
G01*
X11690000Y467500D01*
G75*
G02*
X11622500Y400000I-67500J0D01*
G01*
X10407500Y400000D01*
G75*
G02*
X10340000Y467500I0J67500D01*
G01*
G37*
G04 #@! TD.AperFunction*
G04 #@! TD*
D12*
G04 #@! TO.P,U7,C3*
G04 #@! TO.N,GND*
X12240000Y32940000D03*
G04 #@! TO.P,U7,B3*
G04 #@! TO.N,/SBU2*
X11840000Y32940000D03*
G04 #@! TO.P,U7,A3*
G04 #@! TO.N,/SBU1*
X11440000Y32940000D03*
G04 #@! TO.P,U7,C2*
G04 #@! TO.N,Net-(C23-Pad1)*
X12240000Y32540000D03*
G04 #@! TO.P,U7,B2*
G04 #@! TO.N,GND*
X11840000Y32540000D03*
G04 #@! TO.P,U7,A2*
X11440000Y32540000D03*
G04 #@! TO.P,U7,C1*
G04 #@! TO.N,+3V3*
X12240000Y32140000D03*
G04 #@! TO.P,U7,B1*
G04 #@! TO.N,/MIC*
X11840000Y32140000D03*
G04 #@! TO.P,U7,A1*
G04 #@! TO.N,+3V3*
X11440000Y32140000D03*
G04 #@! TD*
G04 #@! TA.AperFunction,SMDPad,CuDef*
D13*
G04 #@! TO.P,U1,4*
G04 #@! TO.N,+5V*
G36*
X7130000Y30720000D02*
G01*
X6980000Y30870000D01*
X6980000Y30970000D01*
X7330000Y30970000D01*
X7330000Y30720000D01*
X7130000Y30720000D01*
G37*
G04 #@! TD.AperFunction*
G04 #@! TA.AperFunction,SMDPad,CuDef*
G04 #@! TO.P,U1,3*
G36*
X7130000Y30320000D02*
G01*
X7330000Y30320000D01*
X7330000Y30070000D01*
X6980000Y30070000D01*
X6980000Y30170000D01*
X7130000Y30320000D01*
G37*
G04 #@! TD.AperFunction*
G04 #@! TA.AperFunction,SMDPad,CuDef*
G04 #@! TO.P,U1,1*
G04 #@! TO.N,+1V2*
G36*
X6330000Y30720000D02*
G01*
X6130000Y30720000D01*
X6130000Y30970000D01*
X6480000Y30970000D01*
X6480000Y30870000D01*
X6330000Y30720000D01*
G37*
G04 #@! TD.AperFunction*
G04 #@! TA.AperFunction,SMDPad,CuDef*
G04 #@! TO.P,U1,2*
G04 #@! TO.N,GND*
G36*
X6330000Y30320000D02*
G01*
X6480000Y30170000D01*
X6480000Y30070000D01*
X6130000Y30070000D01*
X6130000Y30320000D01*
X6330000Y30320000D01*
G37*
G04 #@! TD.AperFunction*
G04 #@! TA.AperFunction,SMDPad,CuDef*
G36*
X6730000Y30180589D02*
G01*
X6390589Y30520000D01*
X6730000Y30859411D01*
X7069411Y30520000D01*
X6730000Y30180589D01*
G37*
G04 #@! TD.AperFunction*
G04 #@! TD*
G04 #@! TO.P,R13,2*
G04 #@! TO.N,/SPI_SCLK*
G04 #@! TA.AperFunction,SMDPad,CuDef*
G36*
G01*
X7214350Y26312928D02*
X7072928Y26454350D01*
G75*
G02*
X7072928Y26595772I70711J70711D01*
G01*
X7256776Y26779620D01*
G75*
G02*
X7398198Y26779620I70711J-70711D01*
G01*
X7539620Y26638198D01*
G75*
G02*
X7539620Y26496776I-70711J-70711D01*
G01*
X7355772Y26312928D01*
G75*
G02*
X7214350Y26312928I-70711J70711D01*
G01*
G37*
G04 #@! TD.AperFunction*
G04 #@! TO.P,R13,1*
G04 #@! TO.N,Net-(R13-Pad1)*
G04 #@! TA.AperFunction,SMDPad,CuDef*
G36*
G01*
X6761802Y25860380D02*
X6620380Y26001802D01*
G75*
G02*
X6620380Y26143224I70711J70711D01*
G01*
X6804228Y26327072D01*
G75*
G02*
X6945650Y26327072I70711J-70711D01*
G01*
X7087072Y26185650D01*
G75*
G02*
X7087072Y26044228I-70711J-70711D01*
G01*
X6903224Y25860380D01*
G75*
G02*
X6761802Y25860380I-70711J70711D01*
G01*
G37*
G04 #@! TD.AperFunction*
G04 #@! TD*
D14*
G04 #@! TO.P,J5,6*
G04 #@! TO.N,/A8*
X1270000Y26670000D03*
G04 #@! TO.P,J5,5*
G04 #@! TO.N,/A7*
X1270000Y29210000D03*
G04 #@! TO.P,J5,4*
G04 #@! TO.N,/A6*
X1270000Y31750000D03*
G04 #@! TO.P,J5,3*
G04 #@! TO.N,/A5*
X1270000Y34290000D03*
G04 #@! TO.P,J5,2*
G04 #@! TO.N,/~IO2~*
X1270000Y36830000D03*
G04 #@! TO.P,J5,1*
G04 #@! TO.N,/~IO1~*
X1270000Y39370000D03*
G04 #@! TD*
G04 #@! TA.AperFunction,SMDPad,CuDef*
D13*
G04 #@! TO.P,U2,4*
G04 #@! TO.N,+5V*
G36*
X4820000Y30720000D02*
G01*
X4670000Y30870000D01*
X4670000Y30970000D01*
X5020000Y30970000D01*
X5020000Y30720000D01*
X4820000Y30720000D01*
G37*
G04 #@! TD.AperFunction*
G04 #@! TA.AperFunction,SMDPad,CuDef*
G04 #@! TO.P,U2,3*
G04 #@! TO.N,+1V2*
G36*
X4820000Y30320000D02*
G01*
X5020000Y30320000D01*
X5020000Y30070000D01*
X4670000Y30070000D01*
X4670000Y30170000D01*
X4820000Y30320000D01*
G37*
G04 #@! TD.AperFunction*
G04 #@! TA.AperFunction,SMDPad,CuDef*
G04 #@! TO.P,U2,1*
G04 #@! TO.N,+3V3*
G36*
X4020000Y30720000D02*
G01*
X3820000Y30720000D01*
X3820000Y30970000D01*
X4170000Y30970000D01*
X4170000Y30870000D01*
X4020000Y30720000D01*
G37*
G04 #@! TD.AperFunction*
G04 #@! TA.AperFunction,SMDPad,CuDef*
G04 #@! TO.P,U2,2*
G04 #@! TO.N,GND*
G36*
X4020000Y30320000D02*
G01*
X4170000Y30170000D01*
X4170000Y30070000D01*
X3820000Y30070000D01*
X3820000Y30320000D01*
X4020000Y30320000D01*
G37*
G04 #@! TD.AperFunction*
G04 #@! TA.AperFunction,SMDPad,CuDef*
G36*
X4420000Y30180589D02*
G01*
X4080589Y30520000D01*
X4420000Y30859411D01*
X4759411Y30520000D01*
X4420000Y30180589D01*
G37*
G04 #@! TD.AperFunction*
G04 #@! TD*
G04 #@! TO.P,J9,1*
G04 #@! TO.N,/LED_DO*
G04 #@! TA.AperFunction,SMDPad,CuDef*
G36*
G01*
X2540000Y10340000D02*
X2540000Y11840000D01*
G75*
G02*
X2790000Y12090000I250000J0D01*
G01*
X3290000Y12090000D01*
G75*
G02*
X3540000Y11840000I0J-250000D01*
G01*
X3540000Y10340000D01*
G75*
G02*
X3290000Y10090000I-250000J0D01*
G01*
X2790000Y10090000D01*
G75*
G02*
X2540000Y10340000I0J250000D01*
G01*
G37*
G04 #@! TD.AperFunction*
G04 #@! TD*
G04 #@! TA.AperFunction,SMDPad,CuDef*
G04 #@! TO.P,U8,49*
G04 #@! TO.N,GND*
G36*
X8890000Y25549798D02*
G01*
X12849798Y21590000D01*
X8890000Y17630202D01*
X4930202Y21590000D01*
X8890000Y25549798D01*
G37*
G04 #@! TD.AperFunction*
G04 #@! TO.P,U8,48*
G04 #@! TO.N,/ICE_D4*
G04 #@! TA.AperFunction,SMDPad,CuDef*
G36*
G01*
X13088446Y21457417D02*
X13618776Y20927087D01*
G75*
G02*
X13618776Y20838699I-44194J-44194D01*
G01*
X13530388Y20750311D01*
G75*
G02*
X13442000Y20750311I-44194J44194D01*
G01*
X12911670Y21280641D01*
G75*
G02*
X12911670Y21369029I44194J44194D01*
G01*
X13000058Y21457417D01*
G75*
G02*
X13088446Y21457417I44194J-44194D01*
G01*
G37*
G04 #@! TD.AperFunction*
G04 #@! TO.P,U8,47*
G04 #@! TO.N,/ICE_D3*
G04 #@! TA.AperFunction,SMDPad,CuDef*
G36*
G01*
X12734893Y21103864D02*
X13265223Y20573534D01*
G75*
G02*
X13265223Y20485146I-44194J-44194D01*
G01*
X13176835Y20396758D01*
G75*
G02*
X13088447Y20396758I-44194J44194D01*
G01*
X12558117Y20927088D01*
G75*
G02*
X12558117Y21015476I44194J44194D01*
G01*
X12646505Y21103864D01*
G75*
G02*
X12734893Y21103864I44194J-44194D01*
G01*
G37*
G04 #@! TD.AperFunction*
G04 #@! TO.P,U8,46*
G04 #@! TO.N,/ICE_D2*
G04 #@! TA.AperFunction,SMDPad,CuDef*
G36*
G01*
X12381339Y20750310D02*
X12911669Y20219980D01*
G75*
G02*
X12911669Y20131592I-44194J-44194D01*
G01*
X12823281Y20043204D01*
G75*
G02*
X12734893Y20043204I-44194J44194D01*
G01*
X12204563Y20573534D01*
G75*
G02*
X12204563Y20661922I44194J44194D01*
G01*
X12292951Y20750310D01*
G75*
G02*
X12381339Y20750310I44194J-44194D01*
G01*
G37*
G04 #@! TD.AperFunction*
G04 #@! TO.P,U8,45*
G04 #@! TO.N,/ICE_D1*
G04 #@! TA.AperFunction,SMDPad,CuDef*
G36*
G01*
X12027786Y20396757D02*
X12558116Y19866427D01*
G75*
G02*
X12558116Y19778039I-44194J-44194D01*
G01*
X12469728Y19689651D01*
G75*
G02*
X12381340Y19689651I-44194J44194D01*
G01*
X11851010Y20219981D01*
G75*
G02*
X11851010Y20308369I44194J44194D01*
G01*
X11939398Y20396757D01*
G75*
G02*
X12027786Y20396757I44194J-44194D01*
G01*
G37*
G04 #@! TD.AperFunction*
G04 #@! TO.P,U8,44*
G04 #@! TO.N,/ICE_D0*
G04 #@! TA.AperFunction,SMDPad,CuDef*
G36*
G01*
X11674233Y20043204D02*
X12204563Y19512874D01*
G75*
G02*
X12204563Y19424486I-44194J-44194D01*
G01*
X12116175Y19336098D01*
G75*
G02*
X12027787Y19336098I-44194J44194D01*
G01*
X11497457Y19866428D01*
G75*
G02*
X11497457Y19954816I44194J44194D01*
G01*
X11585845Y20043204D01*
G75*
G02*
X11674233Y20043204I44194J-44194D01*
G01*
G37*
G04 #@! TD.AperFunction*
G04 #@! TO.P,U8,43*
G04 #@! TO.N,/ICE_A5*
G04 #@! TA.AperFunction,SMDPad,CuDef*
G36*
G01*
X11320679Y19689650D02*
X11851009Y19159320D01*
G75*
G02*
X11851009Y19070932I-44194J-44194D01*
G01*
X11762621Y18982544D01*
G75*
G02*
X11674233Y18982544I-44194J44194D01*
G01*
X11143903Y19512874D01*
G75*
G02*
X11143903Y19601262I44194J44194D01*
G01*
X11232291Y19689650D01*
G75*
G02*
X11320679Y19689650I44194J-44194D01*
G01*
G37*
G04 #@! TD.AperFunction*
G04 #@! TO.P,U8,42*
G04 #@! TO.N,/ICE_~IO1~*
G04 #@! TA.AperFunction,SMDPad,CuDef*
G36*
G01*
X10967126Y19336097D02*
X11497456Y18805767D01*
G75*
G02*
X11497456Y18717379I-44194J-44194D01*
G01*
X11409068Y18628991D01*
G75*
G02*
X11320680Y18628991I-44194J44194D01*
G01*
X10790350Y19159321D01*
G75*
G02*
X10790350Y19247709I44194J44194D01*
G01*
X10878738Y19336097D01*
G75*
G02*
X10967126Y19336097I44194J-44194D01*
G01*
G37*
G04 #@! TD.AperFunction*
G04 #@! TO.P,U8,41*
G04 #@! TO.N,/ICE_~IO2~*
G04 #@! TA.AperFunction,SMDPad,CuDef*
G36*
G01*
X10613572Y18982543D02*
X11143902Y18452213D01*
G75*
G02*
X11143902Y18363825I-44194J-44194D01*
G01*
X11055514Y18275437D01*
G75*
G02*
X10967126Y18275437I-44194J44194D01*
G01*
X10436796Y18805767D01*
G75*
G02*
X10436796Y18894155I44194J44194D01*
G01*
X10525184Y18982543D01*
G75*
G02*
X10613572Y18982543I44194J-44194D01*
G01*
G37*
G04 #@! TD.AperFunction*
G04 #@! TO.P,U8,40*
G04 #@! TO.N,/ICE_POT_X*
G04 #@! TA.AperFunction,SMDPad,CuDef*
G36*
G01*
X10260019Y18628990D02*
X10790349Y18098660D01*
G75*
G02*
X10790349Y18010272I-44194J-44194D01*
G01*
X10701961Y17921884D01*
G75*
G02*
X10613573Y17921884I-44194J44194D01*
G01*
X10083243Y18452214D01*
G75*
G02*
X10083243Y18540602I44194J44194D01*
G01*
X10171631Y18628990D01*
G75*
G02*
X10260019Y18628990I44194J-44194D01*
G01*
G37*
G04 #@! TD.AperFunction*
G04 #@! TO.P,U8,39*
G04 #@! TO.N,/ICE_POT_Y*
G04 #@! TA.AperFunction,SMDPad,CuDef*
G36*
G01*
X9906466Y18275437D02*
X10436796Y17745107D01*
G75*
G02*
X10436796Y17656719I-44194J-44194D01*
G01*
X10348408Y17568331D01*
G75*
G02*
X10260020Y17568331I-44194J44194D01*
G01*
X9729690Y18098661D01*
G75*
G02*
X9729690Y18187049I44194J44194D01*
G01*
X9818078Y18275437D01*
G75*
G02*
X9906466Y18275437I44194J-44194D01*
G01*
G37*
G04 #@! TD.AperFunction*
G04 #@! TO.P,U8,38*
G04 #@! TO.N,/ICE_A6*
G04 #@! TA.AperFunction,SMDPad,CuDef*
G36*
G01*
X9552912Y17921883D02*
X10083242Y17391553D01*
G75*
G02*
X10083242Y17303165I-44194J-44194D01*
G01*
X9994854Y17214777D01*
G75*
G02*
X9906466Y17214777I-44194J44194D01*
G01*
X9376136Y17745107D01*
G75*
G02*
X9376136Y17833495I44194J44194D01*
G01*
X9464524Y17921883D01*
G75*
G02*
X9552912Y17921883I44194J-44194D01*
G01*
G37*
G04 #@! TD.AperFunction*
G04 #@! TO.P,U8,37*
G04 #@! TO.N,/ICE_\u00D82*
G04 #@! TA.AperFunction,SMDPad,CuDef*
G36*
G01*
X9199359Y17568330D02*
X9729689Y17038000D01*
G75*
G02*
X9729689Y16949612I-44194J-44194D01*
G01*
X9641301Y16861224D01*
G75*
G02*
X9552913Y16861224I-44194J44194D01*
G01*
X9022583Y17391554D01*
G75*
G02*
X9022583Y17479942I44194J44194D01*
G01*
X9110971Y17568330D01*
G75*
G02*
X9199359Y17568330I44194J-44194D01*
G01*
G37*
G04 #@! TD.AperFunction*
G04 #@! TO.P,U8,36*
G04 #@! TO.N,/ICE_R_~W~*
G04 #@! TA.AperFunction,SMDPad,CuDef*
G36*
G01*
X8669029Y17568330D02*
X8757417Y17479942D01*
G75*
G02*
X8757417Y17391554I-44194J-44194D01*
G01*
X8227087Y16861224D01*
G75*
G02*
X8138699Y16861224I-44194J44194D01*
G01*
X8050311Y16949612D01*
G75*
G02*
X8050311Y17038000I44194J44194D01*
G01*
X8580641Y17568330D01*
G75*
G02*
X8669029Y17568330I44194J-44194D01*
G01*
G37*
G04 #@! TD.AperFunction*
G04 #@! TO.P,U8,35*
G04 #@! TO.N,/ICE_~RES~*
G04 #@! TA.AperFunction,SMDPad,CuDef*
G36*
G01*
X8315476Y17921883D02*
X8403864Y17833495D01*
G75*
G02*
X8403864Y17745107I-44194J-44194D01*
G01*
X7873534Y17214777D01*
G75*
G02*
X7785146Y17214777I-44194J44194D01*
G01*
X7696758Y17303165D01*
G75*
G02*
X7696758Y17391553I44194J44194D01*
G01*
X8227088Y17921883D01*
G75*
G02*
X8315476Y17921883I44194J-44194D01*
G01*
G37*
G04 #@! TD.AperFunction*
G04 #@! TO.P,U8,34*
G04 #@! TO.N,/ICE_A4*
G04 #@! TA.AperFunction,SMDPad,CuDef*
G36*
G01*
X7961922Y18275437D02*
X8050310Y18187049D01*
G75*
G02*
X8050310Y18098661I-44194J-44194D01*
G01*
X7519980Y17568331D01*
G75*
G02*
X7431592Y17568331I-44194J44194D01*
G01*
X7343204Y17656719D01*
G75*
G02*
X7343204Y17745107I44194J44194D01*
G01*
X7873534Y18275437D01*
G75*
G02*
X7961922Y18275437I44194J-44194D01*
G01*
G37*
G04 #@! TD.AperFunction*
G04 #@! TO.P,U8,33*
G04 #@! TO.N,+3V3*
G04 #@! TA.AperFunction,SMDPad,CuDef*
G36*
G01*
X7608369Y18628990D02*
X7696757Y18540602D01*
G75*
G02*
X7696757Y18452214I-44194J-44194D01*
G01*
X7166427Y17921884D01*
G75*
G02*
X7078039Y17921884I-44194J44194D01*
G01*
X6989651Y18010272D01*
G75*
G02*
X6989651Y18098660I44194J44194D01*
G01*
X7519981Y18628990D01*
G75*
G02*
X7608369Y18628990I44194J-44194D01*
G01*
G37*
G04 #@! TD.AperFunction*
G04 #@! TO.P,U8,32*
G04 #@! TO.N,/ICE_A8*
G04 #@! TA.AperFunction,SMDPad,CuDef*
G36*
G01*
X7254816Y18982543D02*
X7343204Y18894155D01*
G75*
G02*
X7343204Y18805767I-44194J-44194D01*
G01*
X6812874Y18275437D01*
G75*
G02*
X6724486Y18275437I-44194J44194D01*
G01*
X6636098Y18363825D01*
G75*
G02*
X6636098Y18452213I44194J44194D01*
G01*
X7166428Y18982543D01*
G75*
G02*
X7254816Y18982543I44194J-44194D01*
G01*
G37*
G04 #@! TD.AperFunction*
G04 #@! TO.P,U8,31*
G04 #@! TO.N,/ICE_A7*
G04 #@! TA.AperFunction,SMDPad,CuDef*
G36*
G01*
X6901262Y19336097D02*
X6989650Y19247709D01*
G75*
G02*
X6989650Y19159321I-44194J-44194D01*
G01*
X6459320Y18628991D01*
G75*
G02*
X6370932Y18628991I-44194J44194D01*
G01*
X6282544Y18717379D01*
G75*
G02*
X6282544Y18805767I44194J44194D01*
G01*
X6812874Y19336097D01*
G75*
G02*
X6901262Y19336097I44194J-44194D01*
G01*
G37*
G04 #@! TD.AperFunction*
G04 #@! TO.P,U8,30*
G04 #@! TO.N,+1V2*
G04 #@! TA.AperFunction,SMDPad,CuDef*
G36*
G01*
X6547709Y19689650D02*
X6636097Y19601262D01*
G75*
G02*
X6636097Y19512874I-44194J-44194D01*
G01*
X6105767Y18982544D01*
G75*
G02*
X6017379Y18982544I-44194J44194D01*
G01*
X5928991Y19070932D01*
G75*
G02*
X5928991Y19159320I44194J44194D01*
G01*
X6459321Y19689650D01*
G75*
G02*
X6547709Y19689650I44194J-44194D01*
G01*
G37*
G04 #@! TD.AperFunction*
G04 #@! TO.P,U8,29*
G04 #@! TO.N,Net-(C27-Pad1)*
G04 #@! TA.AperFunction,SMDPad,CuDef*
G36*
G01*
X6194155Y20043204D02*
X6282543Y19954816D01*
G75*
G02*
X6282543Y19866428I-44194J-44194D01*
G01*
X5752213Y19336098D01*
G75*
G02*
X5663825Y19336098I-44194J44194D01*
G01*
X5575437Y19424486D01*
G75*
G02*
X5575437Y19512874I44194J44194D01*
G01*
X6105767Y20043204D01*
G75*
G02*
X6194155Y20043204I44194J-44194D01*
G01*
G37*
G04 #@! TD.AperFunction*
G04 #@! TO.P,U8,28*
G04 #@! TO.N,/ICE_A3*
G04 #@! TA.AperFunction,SMDPad,CuDef*
G36*
G01*
X5840602Y20396757D02*
X5928990Y20308369D01*
G75*
G02*
X5928990Y20219981I-44194J-44194D01*
G01*
X5398660Y19689651D01*
G75*
G02*
X5310272Y19689651I-44194J44194D01*
G01*
X5221884Y19778039D01*
G75*
G02*
X5221884Y19866427I44194J44194D01*
G01*
X5752214Y20396757D01*
G75*
G02*
X5840602Y20396757I44194J-44194D01*
G01*
G37*
G04 #@! TD.AperFunction*
G04 #@! TO.P,U8,27*
G04 #@! TO.N,/ICE_A2*
G04 #@! TA.AperFunction,SMDPad,CuDef*
G36*
G01*
X5487049Y20750310D02*
X5575437Y20661922D01*
G75*
G02*
X5575437Y20573534I-44194J-44194D01*
G01*
X5045107Y20043204D01*
G75*
G02*
X4956719Y20043204I-44194J44194D01*
G01*
X4868331Y20131592D01*
G75*
G02*
X4868331Y20219980I44194J44194D01*
G01*
X5398661Y20750310D01*
G75*
G02*
X5487049Y20750310I44194J-44194D01*
G01*
G37*
G04 #@! TD.AperFunction*
G04 #@! TO.P,U8,26*
G04 #@! TO.N,/ICE_A1*
G04 #@! TA.AperFunction,SMDPad,CuDef*
G36*
G01*
X5133495Y21103864D02*
X5221883Y21015476D01*
G75*
G02*
X5221883Y20927088I-44194J-44194D01*
G01*
X4691553Y20396758D01*
G75*
G02*
X4603165Y20396758I-44194J44194D01*
G01*
X4514777Y20485146D01*
G75*
G02*
X4514777Y20573534I44194J44194D01*
G01*
X5045107Y21103864D01*
G75*
G02*
X5133495Y21103864I44194J-44194D01*
G01*
G37*
G04 #@! TD.AperFunction*
G04 #@! TO.P,U8,25*
G04 #@! TO.N,/ICE_A0*
G04 #@! TA.AperFunction,SMDPad,CuDef*
G36*
G01*
X4779942Y21457417D02*
X4868330Y21369029D01*
G75*
G02*
X4868330Y21280641I-44194J-44194D01*
G01*
X4338000Y20750311D01*
G75*
G02*
X4249612Y20750311I-44194J44194D01*
G01*
X4161224Y20838699D01*
G75*
G02*
X4161224Y20927087I44194J44194D01*
G01*
X4691554Y21457417D01*
G75*
G02*
X4779942Y21457417I44194J-44194D01*
G01*
G37*
G04 #@! TD.AperFunction*
G04 #@! TO.P,U8,24*
G04 #@! TO.N,+3V3*
G04 #@! TA.AperFunction,SMDPad,CuDef*
G36*
G01*
X4338000Y22429689D02*
X4868330Y21899359D01*
G75*
G02*
X4868330Y21810971I-44194J-44194D01*
G01*
X4779942Y21722583D01*
G75*
G02*
X4691554Y21722583I-44194J44194D01*
G01*
X4161224Y22252913D01*
G75*
G02*
X4161224Y22341301I44194J44194D01*
G01*
X4249612Y22429689D01*
G75*
G02*
X4338000Y22429689I44194J-44194D01*
G01*
G37*
G04 #@! TD.AperFunction*
G04 #@! TO.P,U8,23*
G04 #@! TO.N,/ICE_~CS~*
G04 #@! TA.AperFunction,SMDPad,CuDef*
G36*
G01*
X4691553Y22783242D02*
X5221883Y22252912D01*
G75*
G02*
X5221883Y22164524I-44194J-44194D01*
G01*
X5133495Y22076136D01*
G75*
G02*
X5045107Y22076136I-44194J44194D01*
G01*
X4514777Y22606466D01*
G75*
G02*
X4514777Y22694854I44194J44194D01*
G01*
X4603165Y22783242D01*
G75*
G02*
X4691553Y22783242I44194J-44194D01*
G01*
G37*
G04 #@! TD.AperFunction*
G04 #@! TO.P,U8,22*
G04 #@! TO.N,+3V3*
G04 #@! TA.AperFunction,SMDPad,CuDef*
G36*
G01*
X5045107Y23136796D02*
X5575437Y22606466D01*
G75*
G02*
X5575437Y22518078I-44194J-44194D01*
G01*
X5487049Y22429690D01*
G75*
G02*
X5398661Y22429690I-44194J44194D01*
G01*
X4868331Y22960020D01*
G75*
G02*
X4868331Y23048408I44194J44194D01*
G01*
X4956719Y23136796D01*
G75*
G02*
X5045107Y23136796I44194J-44194D01*
G01*
G37*
G04 #@! TD.AperFunction*
G04 #@! TO.P,U8,21*
G04 #@! TO.N,/SPI_RAM_~CS~*
G04 #@! TA.AperFunction,SMDPad,CuDef*
G36*
G01*
X5398660Y23490349D02*
X5928990Y22960019D01*
G75*
G02*
X5928990Y22871631I-44194J-44194D01*
G01*
X5840602Y22783243D01*
G75*
G02*
X5752214Y22783243I-44194J44194D01*
G01*
X5221884Y23313573D01*
G75*
G02*
X5221884Y23401961I44194J44194D01*
G01*
X5310272Y23490349D01*
G75*
G02*
X5398660Y23490349I44194J-44194D01*
G01*
G37*
G04 #@! TD.AperFunction*
G04 #@! TO.P,U8,20*
G04 #@! TO.N,/SYS_CLK*
G04 #@! TA.AperFunction,SMDPad,CuDef*
G36*
G01*
X5752213Y23843902D02*
X6282543Y23313572D01*
G75*
G02*
X6282543Y23225184I-44194J-44194D01*
G01*
X6194155Y23136796D01*
G75*
G02*
X6105767Y23136796I-44194J44194D01*
G01*
X5575437Y23667126D01*
G75*
G02*
X5575437Y23755514I44194J44194D01*
G01*
X5663825Y23843902D01*
G75*
G02*
X5752213Y23843902I44194J-44194D01*
G01*
G37*
G04 #@! TD.AperFunction*
G04 #@! TO.P,U8,19*
G04 #@! TO.N,/SPI_SIO3*
G04 #@! TA.AperFunction,SMDPad,CuDef*
G36*
G01*
X6105767Y24197456D02*
X6636097Y23667126D01*
G75*
G02*
X6636097Y23578738I-44194J-44194D01*
G01*
X6547709Y23490350D01*
G75*
G02*
X6459321Y23490350I-44194J44194D01*
G01*
X5928991Y24020680D01*
G75*
G02*
X5928991Y24109068I44194J44194D01*
G01*
X6017379Y24197456D01*
G75*
G02*
X6105767Y24197456I44194J-44194D01*
G01*
G37*
G04 #@! TD.AperFunction*
G04 #@! TO.P,U8,18*
G04 #@! TO.N,/SPI_SIO2*
G04 #@! TA.AperFunction,SMDPad,CuDef*
G36*
G01*
X6459320Y24551009D02*
X6989650Y24020679D01*
G75*
G02*
X6989650Y23932291I-44194J-44194D01*
G01*
X6901262Y23843903D01*
G75*
G02*
X6812874Y23843903I-44194J44194D01*
G01*
X6282544Y24374233D01*
G75*
G02*
X6282544Y24462621I44194J44194D01*
G01*
X6370932Y24551009D01*
G75*
G02*
X6459320Y24551009I44194J-44194D01*
G01*
G37*
G04 #@! TD.AperFunction*
G04 #@! TO.P,U8,17*
G04 #@! TO.N,/SPI_SIO1*
G04 #@! TA.AperFunction,SMDPad,CuDef*
G36*
G01*
X6812874Y24904563D02*
X7343204Y24374233D01*
G75*
G02*
X7343204Y24285845I-44194J-44194D01*
G01*
X7254816Y24197457D01*
G75*
G02*
X7166428Y24197457I-44194J44194D01*
G01*
X6636098Y24727787D01*
G75*
G02*
X6636098Y24816175I44194J44194D01*
G01*
X6724486Y24904563D01*
G75*
G02*
X6812874Y24904563I44194J-44194D01*
G01*
G37*
G04 #@! TD.AperFunction*
G04 #@! TO.P,U8,16*
G04 #@! TO.N,/SPI_ICE_~CS~*
G04 #@! TA.AperFunction,SMDPad,CuDef*
G36*
G01*
X7166427Y25258116D02*
X7696757Y24727786D01*
G75*
G02*
X7696757Y24639398I-44194J-44194D01*
G01*
X7608369Y24551010D01*
G75*
G02*
X7519981Y24551010I-44194J44194D01*
G01*
X6989651Y25081340D01*
G75*
G02*
X6989651Y25169728I44194J44194D01*
G01*
X7078039Y25258116D01*
G75*
G02*
X7166427Y25258116I44194J-44194D01*
G01*
G37*
G04 #@! TD.AperFunction*
G04 #@! TO.P,U8,15*
G04 #@! TO.N,Net-(R13-Pad1)*
G04 #@! TA.AperFunction,SMDPad,CuDef*
G36*
G01*
X7519980Y25611669D02*
X8050310Y25081339D01*
G75*
G02*
X8050310Y24992951I-44194J-44194D01*
G01*
X7961922Y24904563D01*
G75*
G02*
X7873534Y24904563I-44194J44194D01*
G01*
X7343204Y25434893D01*
G75*
G02*
X7343204Y25523281I44194J44194D01*
G01*
X7431592Y25611669D01*
G75*
G02*
X7519980Y25611669I44194J-44194D01*
G01*
G37*
G04 #@! TD.AperFunction*
G04 #@! TO.P,U8,14*
G04 #@! TO.N,/SPI_SIO0*
G04 #@! TA.AperFunction,SMDPad,CuDef*
G36*
G01*
X7873534Y25965223D02*
X8403864Y25434893D01*
G75*
G02*
X8403864Y25346505I-44194J-44194D01*
G01*
X8315476Y25258117D01*
G75*
G02*
X8227088Y25258117I-44194J44194D01*
G01*
X7696758Y25788447D01*
G75*
G02*
X7696758Y25876835I44194J44194D01*
G01*
X7785146Y25965223D01*
G75*
G02*
X7873534Y25965223I44194J-44194D01*
G01*
G37*
G04 #@! TD.AperFunction*
G04 #@! TO.P,U8,13*
G04 #@! TO.N,/I2S_WCLK*
G04 #@! TA.AperFunction,SMDPad,CuDef*
G36*
G01*
X8227087Y26318776D02*
X8757417Y25788446D01*
G75*
G02*
X8757417Y25700058I-44194J-44194D01*
G01*
X8669029Y25611670D01*
G75*
G02*
X8580641Y25611670I-44194J44194D01*
G01*
X8050311Y26142000D01*
G75*
G02*
X8050311Y26230388I44194J44194D01*
G01*
X8138699Y26318776D01*
G75*
G02*
X8227087Y26318776I44194J-44194D01*
G01*
G37*
G04 #@! TD.AperFunction*
G04 #@! TO.P,U8,12*
G04 #@! TO.N,/I2S_BCLK*
G04 #@! TA.AperFunction,SMDPad,CuDef*
G36*
G01*
X9641301Y26318776D02*
X9729689Y26230388D01*
G75*
G02*
X9729689Y26142000I-44194J-44194D01*
G01*
X9199359Y25611670D01*
G75*
G02*
X9110971Y25611670I-44194J44194D01*
G01*
X9022583Y25700058D01*
G75*
G02*
X9022583Y25788446I44194J44194D01*
G01*
X9552913Y26318776D01*
G75*
G02*
X9641301Y26318776I44194J-44194D01*
G01*
G37*
G04 #@! TD.AperFunction*
G04 #@! TO.P,U8,11*
G04 #@! TO.N,/I2S_DOUT*
G04 #@! TA.AperFunction,SMDPad,CuDef*
G36*
G01*
X9994854Y25965223D02*
X10083242Y25876835D01*
G75*
G02*
X10083242Y25788447I-44194J-44194D01*
G01*
X9552912Y25258117D01*
G75*
G02*
X9464524Y25258117I-44194J44194D01*
G01*
X9376136Y25346505D01*
G75*
G02*
X9376136Y25434893I44194J44194D01*
G01*
X9906466Y25965223D01*
G75*
G02*
X9994854Y25965223I44194J-44194D01*
G01*
G37*
G04 #@! TD.AperFunction*
G04 #@! TO.P,U8,10*
G04 #@! TO.N,/I2S_DIN*
G04 #@! TA.AperFunction,SMDPad,CuDef*
G36*
G01*
X10348408Y25611669D02*
X10436796Y25523281D01*
G75*
G02*
X10436796Y25434893I-44194J-44194D01*
G01*
X9906466Y24904563D01*
G75*
G02*
X9818078Y24904563I-44194J44194D01*
G01*
X9729690Y24992951D01*
G75*
G02*
X9729690Y25081339I44194J44194D01*
G01*
X10260020Y25611669D01*
G75*
G02*
X10348408Y25611669I44194J-44194D01*
G01*
G37*
G04 #@! TD.AperFunction*
G04 #@! TO.P,U8,9*
G04 #@! TO.N,/I2C_SDA*
G04 #@! TA.AperFunction,SMDPad,CuDef*
G36*
G01*
X10701961Y25258116D02*
X10790349Y25169728D01*
G75*
G02*
X10790349Y25081340I-44194J-44194D01*
G01*
X10260019Y24551010D01*
G75*
G02*
X10171631Y24551010I-44194J44194D01*
G01*
X10083243Y24639398D01*
G75*
G02*
X10083243Y24727786I44194J44194D01*
G01*
X10613573Y25258116D01*
G75*
G02*
X10701961Y25258116I44194J-44194D01*
G01*
G37*
G04 #@! TD.AperFunction*
G04 #@! TO.P,U8,8*
G04 #@! TO.N,/~CRESET~*
G04 #@! TA.AperFunction,SMDPad,CuDef*
G36*
G01*
X11055514Y24904563D02*
X11143902Y24816175D01*
G75*
G02*
X11143902Y24727787I-44194J-44194D01*
G01*
X10613572Y24197457D01*
G75*
G02*
X10525184Y24197457I-44194J44194D01*
G01*
X10436796Y24285845D01*
G75*
G02*
X10436796Y24374233I44194J44194D01*
G01*
X10967126Y24904563D01*
G75*
G02*
X11055514Y24904563I44194J-44194D01*
G01*
G37*
G04 #@! TD.AperFunction*
G04 #@! TO.P,U8,7*
G04 #@! TO.N,/CDONE*
G04 #@! TA.AperFunction,SMDPad,CuDef*
G36*
G01*
X11409068Y24551009D02*
X11497456Y24462621D01*
G75*
G02*
X11497456Y24374233I-44194J-44194D01*
G01*
X10967126Y23843903D01*
G75*
G02*
X10878738Y23843903I-44194J44194D01*
G01*
X10790350Y23932291D01*
G75*
G02*
X10790350Y24020679I44194J44194D01*
G01*
X11320680Y24551009D01*
G75*
G02*
X11409068Y24551009I44194J-44194D01*
G01*
G37*
G04 #@! TD.AperFunction*
G04 #@! TO.P,U8,6*
G04 #@! TO.N,/I2C_SCL*
G04 #@! TA.AperFunction,SMDPad,CuDef*
G36*
G01*
X11762621Y24197456D02*
X11851009Y24109068D01*
G75*
G02*
X11851009Y24020680I-44194J-44194D01*
G01*
X11320679Y23490350D01*
G75*
G02*
X11232291Y23490350I-44194J44194D01*
G01*
X11143903Y23578738D01*
G75*
G02*
X11143903Y23667126I44194J44194D01*
G01*
X11674233Y24197456D01*
G75*
G02*
X11762621Y24197456I44194J-44194D01*
G01*
G37*
G04 #@! TD.AperFunction*
G04 #@! TO.P,U8,5*
G04 #@! TO.N,+1V2*
G04 #@! TA.AperFunction,SMDPad,CuDef*
G36*
G01*
X12116175Y23843902D02*
X12204563Y23755514D01*
G75*
G02*
X12204563Y23667126I-44194J-44194D01*
G01*
X11674233Y23136796D01*
G75*
G02*
X11585845Y23136796I-44194J44194D01*
G01*
X11497457Y23225184D01*
G75*
G02*
X11497457Y23313572I44194J44194D01*
G01*
X12027787Y23843902D01*
G75*
G02*
X12116175Y23843902I44194J-44194D01*
G01*
G37*
G04 #@! TD.AperFunction*
G04 #@! TO.P,U8,4*
G04 #@! TO.N,/ICE_D5*
G04 #@! TA.AperFunction,SMDPad,CuDef*
G36*
G01*
X12469728Y23490349D02*
X12558116Y23401961D01*
G75*
G02*
X12558116Y23313573I-44194J-44194D01*
G01*
X12027786Y22783243D01*
G75*
G02*
X11939398Y22783243I-44194J44194D01*
G01*
X11851010Y22871631D01*
G75*
G02*
X11851010Y22960019I44194J44194D01*
G01*
X12381340Y23490349D01*
G75*
G02*
X12469728Y23490349I44194J-44194D01*
G01*
G37*
G04 #@! TD.AperFunction*
G04 #@! TO.P,U8,3*
G04 #@! TO.N,/ICE_D6*
G04 #@! TA.AperFunction,SMDPad,CuDef*
G36*
G01*
X12823281Y23136796D02*
X12911669Y23048408D01*
G75*
G02*
X12911669Y22960020I-44194J-44194D01*
G01*
X12381339Y22429690D01*
G75*
G02*
X12292951Y22429690I-44194J44194D01*
G01*
X12204563Y22518078D01*
G75*
G02*
X12204563Y22606466I44194J44194D01*
G01*
X12734893Y23136796D01*
G75*
G02*
X12823281Y23136796I44194J-44194D01*
G01*
G37*
G04 #@! TD.AperFunction*
G04 #@! TO.P,U8,2*
G04 #@! TO.N,/ICE_D7*
G04 #@! TA.AperFunction,SMDPad,CuDef*
G36*
G01*
X13176835Y22783242D02*
X13265223Y22694854D01*
G75*
G02*
X13265223Y22606466I-44194J-44194D01*
G01*
X12734893Y22076136D01*
G75*
G02*
X12646505Y22076136I-44194J44194D01*
G01*
X12558117Y22164524D01*
G75*
G02*
X12558117Y22252912I44194J44194D01*
G01*
X13088447Y22783242D01*
G75*
G02*
X13176835Y22783242I44194J-44194D01*
G01*
G37*
G04 #@! TD.AperFunction*
G04 #@! TO.P,U8,1*
G04 #@! TO.N,+3V3*
G04 #@! TA.AperFunction,SMDPad,CuDef*
G36*
G01*
X13530388Y22429689D02*
X13618776Y22341301D01*
G75*
G02*
X13618776Y22252913I-44194J-44194D01*
G01*
X13088446Y21722583D01*
G75*
G02*
X13000058Y21722583I-44194J44194D01*
G01*
X12911670Y21810971D01*
G75*
G02*
X12911670Y21899359I44194J44194D01*
G01*
X13442000Y22429689D01*
G75*
G02*
X13530388Y22429689I44194J-44194D01*
G01*
G37*
G04 #@! TD.AperFunction*
G04 #@! TD*
G04 #@! TO.P,C2,2*
G04 #@! TO.N,GND*
G04 #@! TA.AperFunction,SMDPad,CuDef*
G36*
G01*
X5470000Y30390000D02*
X5670000Y30390000D01*
G75*
G02*
X5770000Y30290000I0J-100000D01*
G01*
X5770000Y30030000D01*
G75*
G02*
X5670000Y29930000I-100000J0D01*
G01*
X5470000Y29930000D01*
G75*
G02*
X5370000Y30030000I0J100000D01*
G01*
X5370000Y30290000D01*
G75*
G02*
X5470000Y30390000I100000J0D01*
G01*
G37*
G04 #@! TD.AperFunction*
G04 #@! TO.P,C2,1*
G04 #@! TO.N,+1V2*
G04 #@! TA.AperFunction,SMDPad,CuDef*
G36*
G01*
X5470000Y31030000D02*
X5670000Y31030000D01*
G75*
G02*
X5770000Y30930000I0J-100000D01*
G01*
X5770000Y30670000D01*
G75*
G02*
X5670000Y30570000I-100000J0D01*
G01*
X5470000Y30570000D01*
G75*
G02*
X5370000Y30670000I0J100000D01*
G01*
X5370000Y30930000D01*
G75*
G02*
X5470000Y31030000I100000J0D01*
G01*
G37*
G04 #@! TD.AperFunction*
G04 #@! TD*
G04 #@! TO.P,C4,2*
G04 #@! TO.N,GND*
G04 #@! TA.AperFunction,SMDPad,CuDef*
G36*
G01*
X3170000Y30390000D02*
X3370000Y30390000D01*
G75*
G02*
X3470000Y30290000I0J-100000D01*
G01*
X3470000Y30030000D01*
G75*
G02*
X3370000Y29930000I-100000J0D01*
G01*
X3170000Y29930000D01*
G75*
G02*
X3070000Y30030000I0J100000D01*
G01*
X3070000Y30290000D01*
G75*
G02*
X3170000Y30390000I100000J0D01*
G01*
G37*
G04 #@! TD.AperFunction*
G04 #@! TO.P,C4,1*
G04 #@! TO.N,+3V3*
G04 #@! TA.AperFunction,SMDPad,CuDef*
G36*
G01*
X3170000Y31030000D02*
X3370000Y31030000D01*
G75*
G02*
X3470000Y30930000I0J-100000D01*
G01*
X3470000Y30670000D01*
G75*
G02*
X3370000Y30570000I-100000J0D01*
G01*
X3170000Y30570000D01*
G75*
G02*
X3070000Y30670000I0J100000D01*
G01*
X3070000Y30930000D01*
G75*
G02*
X3170000Y31030000I100000J0D01*
G01*
G37*
G04 #@! TD.AperFunction*
G04 #@! TD*
G04 #@! TO.P,U4,1*
G04 #@! TO.N,Net-(C18-Pad2)*
G04 #@! TA.AperFunction,SMDPad,CuDef*
G36*
G01*
X13065494Y25203845D02*
X12994784Y25133135D01*
G75*
G02*
X12924074Y25133135I-35355J35355D01*
G01*
X12393744Y25663465D01*
G75*
G02*
X12393744Y25734175I35355J35355D01*
G01*
X12464454Y25804885D01*
G75*
G02*
X12535164Y25804885I35355J-35355D01*
G01*
X13065494Y25274555D01*
G75*
G02*
X13065494Y25203845I-35355J-35355D01*
G01*
G37*
G04 #@! TD.AperFunction*
G04 #@! TO.P,U4,2*
G04 #@! TO.N,N/C*
G04 #@! TA.AperFunction,SMDPad,CuDef*
G36*
G01*
X13348337Y25486687D02*
X13277627Y25415977D01*
G75*
G02*
X13206917Y25415977I-35355J35355D01*
G01*
X12676587Y25946307D01*
G75*
G02*
X12676587Y26017017I35355J35355D01*
G01*
X12747297Y26087727D01*
G75*
G02*
X12818007Y26087727I35355J-35355D01*
G01*
X13348337Y25557397D01*
G75*
G02*
X13348337Y25486687I-35355J-35355D01*
G01*
G37*
G04 #@! TD.AperFunction*
G04 #@! TO.P,U4,3*
G04 #@! TO.N,+3V3*
G04 #@! TA.AperFunction,SMDPad,CuDef*
G36*
G01*
X13631180Y25769530D02*
X13560470Y25698820D01*
G75*
G02*
X13489760Y25698820I-35355J35355D01*
G01*
X12959430Y26229150D01*
G75*
G02*
X12959430Y26299860I35355J35355D01*
G01*
X13030140Y26370570D01*
G75*
G02*
X13100850Y26370570I35355J-35355D01*
G01*
X13631180Y25840240D01*
G75*
G02*
X13631180Y25769530I-35355J-35355D01*
G01*
G37*
G04 #@! TD.AperFunction*
G04 #@! TO.P,U4,4*
G04 #@! TO.N,Net-(C19-Pad2)*
G04 #@! TA.AperFunction,SMDPad,CuDef*
G36*
G01*
X13914023Y26052373D02*
X13843313Y25981663D01*
G75*
G02*
X13772603Y25981663I-35355J35355D01*
G01*
X13242273Y26511993D01*
G75*
G02*
X13242273Y26582703I35355J35355D01*
G01*
X13312983Y26653413D01*
G75*
G02*
X13383693Y26653413I35355J-35355D01*
G01*
X13914023Y26123083D01*
G75*
G02*
X13914023Y26052373I-35355J-35355D01*
G01*
G37*
G04 #@! TD.AperFunction*
G04 #@! TO.P,U4,5*
G04 #@! TO.N,Net-(C10-Pad1)*
G04 #@! TA.AperFunction,SMDPad,CuDef*
G36*
G01*
X14196865Y26335216D02*
X14126155Y26264506D01*
G75*
G02*
X14055445Y26264506I-35355J35355D01*
G01*
X13525115Y26794836D01*
G75*
G02*
X13525115Y26865546I35355J35355D01*
G01*
X13595825Y26936256D01*
G75*
G02*
X13666535Y26936256I35355J-35355D01*
G01*
X14196865Y26405926D01*
G75*
G02*
X14196865Y26335216I-35355J-35355D01*
G01*
G37*
G04 #@! TD.AperFunction*
G04 #@! TO.P,U4,6*
G04 #@! TO.N,Net-(C12-Pad2)*
G04 #@! TA.AperFunction,SMDPad,CuDef*
G36*
G01*
X14196865Y27714074D02*
X13666535Y27183744D01*
G75*
G02*
X13595825Y27183744I-35355J35355D01*
G01*
X13525115Y27254454D01*
G75*
G02*
X13525115Y27325164I35355J35355D01*
G01*
X14055445Y27855494D01*
G75*
G02*
X14126155Y27855494I35355J-35355D01*
G01*
X14196865Y27784784D01*
G75*
G02*
X14196865Y27714074I-35355J-35355D01*
G01*
G37*
G04 #@! TD.AperFunction*
G04 #@! TO.P,U4,7*
G04 #@! TO.N,Net-(C14-Pad2)*
G04 #@! TA.AperFunction,SMDPad,CuDef*
G36*
G01*
X13914023Y27996917D02*
X13383693Y27466587D01*
G75*
G02*
X13312983Y27466587I-35355J35355D01*
G01*
X13242273Y27537297D01*
G75*
G02*
X13242273Y27608007I35355J35355D01*
G01*
X13772603Y28138337D01*
G75*
G02*
X13843313Y28138337I35355J-35355D01*
G01*
X13914023Y28067627D01*
G75*
G02*
X13914023Y27996917I-35355J-35355D01*
G01*
G37*
G04 #@! TD.AperFunction*
G04 #@! TO.P,U4,8*
G04 #@! TO.N,Net-(C11-Pad1)*
G04 #@! TA.AperFunction,SMDPad,CuDef*
G36*
G01*
X13631180Y28279760D02*
X13100850Y27749430D01*
G75*
G02*
X13030140Y27749430I-35355J35355D01*
G01*
X12959430Y27820140D01*
G75*
G02*
X12959430Y27890850I35355J35355D01*
G01*
X13489760Y28421180D01*
G75*
G02*
X13560470Y28421180I35355J-35355D01*
G01*
X13631180Y28350470D01*
G75*
G02*
X13631180Y28279760I-35355J-35355D01*
G01*
G37*
G04 #@! TD.AperFunction*
G04 #@! TO.P,U4,9*
G04 #@! TO.N,Net-(C13-Pad1)*
G04 #@! TA.AperFunction,SMDPad,CuDef*
G36*
G01*
X13348337Y28562603D02*
X12818007Y28032273D01*
G75*
G02*
X12747297Y28032273I-35355J35355D01*
G01*
X12676587Y28102983D01*
G75*
G02*
X12676587Y28173693I35355J35355D01*
G01*
X13206917Y28704023D01*
G75*
G02*
X13277627Y28704023I35355J-35355D01*
G01*
X13348337Y28633313D01*
G75*
G02*
X13348337Y28562603I-35355J-35355D01*
G01*
G37*
G04 #@! TD.AperFunction*
G04 #@! TO.P,U4,10*
G04 #@! TO.N,Net-(C15-Pad1)*
G04 #@! TA.AperFunction,SMDPad,CuDef*
G36*
G01*
X13065494Y28845445D02*
X12535164Y28315115D01*
G75*
G02*
X12464454Y28315115I-35355J35355D01*
G01*
X12393744Y28385825D01*
G75*
G02*
X12393744Y28456535I35355J35355D01*
G01*
X12924074Y28986865D01*
G75*
G02*
X12994784Y28986865I35355J-35355D01*
G01*
X13065494Y28916155D01*
G75*
G02*
X13065494Y28845445I-35355J-35355D01*
G01*
G37*
G04 #@! TD.AperFunction*
G04 #@! TO.P,U4,11*
G04 #@! TO.N,Net-(C22-Pad1)*
G04 #@! TA.AperFunction,SMDPad,CuDef*
G36*
G01*
X12146256Y28385825D02*
X12075546Y28315115D01*
G75*
G02*
X12004836Y28315115I-35355J35355D01*
G01*
X11474506Y28845445D01*
G75*
G02*
X11474506Y28916155I35355J35355D01*
G01*
X11545216Y28986865D01*
G75*
G02*
X11615926Y28986865I35355J-35355D01*
G01*
X12146256Y28456535D01*
G75*
G02*
X12146256Y28385825I-35355J-35355D01*
G01*
G37*
G04 #@! TD.AperFunction*
G04 #@! TO.P,U4,12*
G04 #@! TO.N,+3V3*
G04 #@! TA.AperFunction,SMDPad,CuDef*
G36*
G01*
X11863413Y28102983D02*
X11792703Y28032273D01*
G75*
G02*
X11721993Y28032273I-35355J35355D01*
G01*
X11191663Y28562603D01*
G75*
G02*
X11191663Y28633313I35355J35355D01*
G01*
X11262373Y28704023D01*
G75*
G02*
X11333083Y28704023I35355J-35355D01*
G01*
X11863413Y28173693D01*
G75*
G02*
X11863413Y28102983I-35355J-35355D01*
G01*
G37*
G04 #@! TD.AperFunction*
G04 #@! TO.P,U4,13*
G04 #@! TO.N,/SYS_CLK*
G04 #@! TA.AperFunction,SMDPad,CuDef*
G36*
G01*
X11580570Y27820140D02*
X11509860Y27749430D01*
G75*
G02*
X11439150Y27749430I-35355J35355D01*
G01*
X10908820Y28279760D01*
G75*
G02*
X10908820Y28350470I35355J35355D01*
G01*
X10979530Y28421180D01*
G75*
G02*
X11050240Y28421180I35355J-35355D01*
G01*
X11580570Y27890850D01*
G75*
G02*
X11580570Y27820140I-35355J-35355D01*
G01*
G37*
G04 #@! TD.AperFunction*
G04 #@! TO.P,U4,14*
G04 #@! TO.N,/I2S_WCLK*
G04 #@! TA.AperFunction,SMDPad,CuDef*
G36*
G01*
X11297727Y27537297D02*
X11227017Y27466587D01*
G75*
G02*
X11156307Y27466587I-35355J35355D01*
G01*
X10625977Y27996917D01*
G75*
G02*
X10625977Y28067627I35355J35355D01*
G01*
X10696687Y28138337D01*
G75*
G02*
X10767397Y28138337I35355J-35355D01*
G01*
X11297727Y27608007D01*
G75*
G02*
X11297727Y27537297I-35355J-35355D01*
G01*
G37*
G04 #@! TD.AperFunction*
G04 #@! TO.P,U4,15*
G04 #@! TO.N,/I2S_BCLK*
G04 #@! TA.AperFunction,SMDPad,CuDef*
G36*
G01*
X11014885Y27254454D02*
X10944175Y27183744D01*
G75*
G02*
X10873465Y27183744I-35355J35355D01*
G01*
X10343135Y27714074D01*
G75*
G02*
X10343135Y27784784I35355J35355D01*
G01*
X10413845Y27855494D01*
G75*
G02*
X10484555Y27855494I35355J-35355D01*
G01*
X11014885Y27325164D01*
G75*
G02*
X11014885Y27254454I-35355J-35355D01*
G01*
G37*
G04 #@! TD.AperFunction*
G04 #@! TO.P,U4,16*
G04 #@! TO.N,/I2S_DOUT*
G04 #@! TA.AperFunction,SMDPad,CuDef*
G36*
G01*
X11014885Y26794836D02*
X10484555Y26264506D01*
G75*
G02*
X10413845Y26264506I-35355J35355D01*
G01*
X10343135Y26335216D01*
G75*
G02*
X10343135Y26405926I35355J35355D01*
G01*
X10873465Y26936256D01*
G75*
G02*
X10944175Y26936256I35355J-35355D01*
G01*
X11014885Y26865546D01*
G75*
G02*
X11014885Y26794836I-35355J-35355D01*
G01*
G37*
G04 #@! TD.AperFunction*
G04 #@! TO.P,U4,17*
G04 #@! TO.N,/I2S_DIN*
G04 #@! TA.AperFunction,SMDPad,CuDef*
G36*
G01*
X11297727Y26511993D02*
X10767397Y25981663D01*
G75*
G02*
X10696687Y25981663I-35355J35355D01*
G01*
X10625977Y26052373D01*
G75*
G02*
X10625977Y26123083I35355J35355D01*
G01*
X11156307Y26653413D01*
G75*
G02*
X11227017Y26653413I35355J-35355D01*
G01*
X11297727Y26582703D01*
G75*
G02*
X11297727Y26511993I-35355J-35355D01*
G01*
G37*
G04 #@! TD.AperFunction*
G04 #@! TO.P,U4,18*
G04 #@! TO.N,/I2C_SDA*
G04 #@! TA.AperFunction,SMDPad,CuDef*
G36*
G01*
X11580570Y26229150D02*
X11050240Y25698820D01*
G75*
G02*
X10979530Y25698820I-35355J35355D01*
G01*
X10908820Y25769530D01*
G75*
G02*
X10908820Y25840240I35355J35355D01*
G01*
X11439150Y26370570D01*
G75*
G02*
X11509860Y26370570I35355J-35355D01*
G01*
X11580570Y26299860D01*
G75*
G02*
X11580570Y26229150I-35355J-35355D01*
G01*
G37*
G04 #@! TD.AperFunction*
G04 #@! TO.P,U4,19*
G04 #@! TO.N,/I2C_SCL*
G04 #@! TA.AperFunction,SMDPad,CuDef*
G36*
G01*
X11863413Y25946307D02*
X11333083Y25415977D01*
G75*
G02*
X11262373Y25415977I-35355J35355D01*
G01*
X11191663Y25486687D01*
G75*
G02*
X11191663Y25557397I35355J35355D01*
G01*
X11721993Y26087727D01*
G75*
G02*
X11792703Y26087727I35355J-35355D01*
G01*
X11863413Y26017017D01*
G75*
G02*
X11863413Y25946307I-35355J-35355D01*
G01*
G37*
G04 #@! TD.AperFunction*
G04 #@! TO.P,U4,20*
G04 #@! TO.N,+1V2*
G04 #@! TA.AperFunction,SMDPad,CuDef*
G36*
G01*
X12146256Y25663465D02*
X11615926Y25133135D01*
G75*
G02*
X11545216Y25133135I-35355J35355D01*
G01*
X11474506Y25203845D01*
G75*
G02*
X11474506Y25274555I35355J35355D01*
G01*
X12004836Y25804885D01*
G75*
G02*
X12075546Y25804885I35355J-35355D01*
G01*
X12146256Y25734175D01*
G75*
G02*
X12146256Y25663465I-35355J-35355D01*
G01*
G37*
G04 #@! TD.AperFunction*
G04 #@! TA.AperFunction,SMDPad,CuDef*
G04 #@! TO.P,U4,21*
G04 #@! TO.N,GND*
G36*
X13436726Y27060000D02*
G01*
X12270000Y25893274D01*
X11103274Y27060000D01*
X12270000Y28226726D01*
X13436726Y27060000D01*
G37*
G04 #@! TD.AperFunction*
G04 #@! TD*
G04 #@! TO.P,L1,2*
G04 #@! TO.N,GND*
G04 #@! TA.AperFunction,SMDPad,CuDef*
G36*
G01*
X11420000Y4660000D02*
X11420000Y4860000D01*
G75*
G02*
X11520000Y4960000I100000J0D01*
G01*
X11780000Y4960000D01*
G75*
G02*
X11880000Y4860000I0J-100000D01*
G01*
X11880000Y4660000D01*
G75*
G02*
X11780000Y4560000I-100000J0D01*
G01*
X11520000Y4560000D01*
G75*
G02*
X11420000Y4660000I0J100000D01*
G01*
G37*
G04 #@! TD.AperFunction*
G04 #@! TO.P,L1,1*
G04 #@! TO.N,Net-(AE1-Pad1)*
G04 #@! TA.AperFunction,SMDPad,CuDef*
G36*
G01*
X10780000Y4660000D02*
X10780000Y4860000D01*
G75*
G02*
X10880000Y4960000I100000J0D01*
G01*
X11140000Y4960000D01*
G75*
G02*
X11240000Y4860000I0J-100000D01*
G01*
X11240000Y4660000D01*
G75*
G02*
X11140000Y4560000I-100000J0D01*
G01*
X10880000Y4560000D01*
G75*
G02*
X10780000Y4660000I0J100000D01*
G01*
G37*
G04 #@! TD.AperFunction*
G04 #@! TD*
D14*
G04 #@! TO.P,J6,6*
G04 #@! TO.N,VCC*
X16510000Y26670000D03*
G04 #@! TO.P,J6,5*
G04 #@! TO.N,/EXT_IN*
X16510000Y29210000D03*
G04 #@! TO.P,J6,4*
G04 #@! TO.N,/AUDIO_OUT*
X16510000Y31750000D03*
G04 #@! TO.P,J6,3*
G04 #@! TO.N,/AUDIO_OUT_2*
X16510000Y34290000D03*
G04 #@! TO.P,J6,2*
G04 #@! TO.N,/EXT_IN_2*
X16510000Y36830000D03*
G04 #@! TO.P,J6,1*
G04 #@! TO.N,+3V3*
X16510000Y39370000D03*
G04 #@! TD*
G04 #@! TO.P,D2,1*
G04 #@! TO.N,+5V*
G04 #@! TA.AperFunction,SMDPad,CuDef*
G36*
G01*
X3775000Y31910000D02*
X3325000Y31910000D01*
G75*
G02*
X3200000Y32035000I0J125000D01*
G01*
X3200000Y32285000D01*
G75*
G02*
X3325000Y32410000I125000J0D01*
G01*
X3775000Y32410000D01*
G75*
G02*
X3900000Y32285000I0J-125000D01*
G01*
X3900000Y32035000D01*
G75*
G02*
X3775000Y31910000I-125000J0D01*
G01*
G37*
G04 #@! TD.AperFunction*
G04 #@! TO.P,D2,2*
G04 #@! TO.N,VCC*
G04 #@! TA.AperFunction,SMDPad,CuDef*
G36*
G01*
X3775000Y32710000D02*
X3325000Y32710000D01*
G75*
G02*
X3200000Y32835000I0J125000D01*
G01*
X3200000Y33085000D01*
G75*
G02*
X3325000Y33210000I125000J0D01*
G01*
X3775000Y33210000D01*
G75*
G02*
X3900000Y33085000I0J-125000D01*
G01*
X3900000Y32835000D01*
G75*
G02*
X3775000Y32710000I-125000J0D01*
G01*
G37*
G04 #@! TD.AperFunction*
G04 #@! TD*
G04 #@! TO.P,D1,1*
G04 #@! TO.N,+5V*
G04 #@! TA.AperFunction,SMDPad,CuDef*
G36*
G01*
X5695000Y31910000D02*
X5245000Y31910000D01*
G75*
G02*
X5120000Y32035000I0J125000D01*
G01*
X5120000Y32285000D01*
G75*
G02*
X5245000Y32410000I125000J0D01*
G01*
X5695000Y32410000D01*
G75*
G02*
X5820000Y32285000I0J-125000D01*
G01*
X5820000Y32035000D01*
G75*
G02*
X5695000Y31910000I-125000J0D01*
G01*
G37*
G04 #@! TD.AperFunction*
G04 #@! TO.P,D1,2*
G04 #@! TO.N,VBUS*
G04 #@! TA.AperFunction,SMDPad,CuDef*
G36*
G01*
X5695000Y32710000D02*
X5245000Y32710000D01*
G75*
G02*
X5120000Y32835000I0J125000D01*
G01*
X5120000Y33085000D01*
G75*
G02*
X5245000Y33210000I125000J0D01*
G01*
X5695000Y33210000D01*
G75*
G02*
X5820000Y33085000I0J-125000D01*
G01*
X5820000Y32835000D01*
G75*
G02*
X5695000Y32710000I-125000J0D01*
G01*
G37*
G04 #@! TD.AperFunction*
G04 #@! TD*
G04 #@! TO.P,J8,10*
G04 #@! TO.N,/D0*
X16510000Y1270000D03*
G04 #@! TO.P,J8,9*
G04 #@! TO.N,/D1*
X16510000Y3810000D03*
G04 #@! TO.P,J8,8*
G04 #@! TO.N,/D2*
X16510000Y6350000D03*
G04 #@! TO.P,J8,7*
G04 #@! TO.N,/D3*
X16510000Y8890000D03*
G04 #@! TO.P,J8,6*
G04 #@! TO.N,/D4*
X16510000Y11430000D03*
G04 #@! TO.P,J8,5*
G04 #@! TO.N,/D5*
X16510000Y13970000D03*
G04 #@! TO.P,J8,4*
G04 #@! TO.N,/D6*
X16510000Y16510000D03*
G04 #@! TO.P,J8,3*
G04 #@! TO.N,/D7*
X16510000Y19050000D03*
G04 #@! TO.P,J8,2*
G04 #@! TO.N,/POT_Y*
X16510000Y21590000D03*
G04 #@! TO.P,J8,1*
G04 #@! TO.N,/POT_X*
X16510000Y24130000D03*
G04 #@! TD*
G04 #@! TO.P,C18,2*
G04 #@! TO.N,Net-(C18-Pad2)*
G04 #@! TA.AperFunction,SMDPad,CuDef*
G36*
G01*
X8910000Y28780000D02*
X9110000Y28780000D01*
G75*
G02*
X9210000Y28680000I0J-100000D01*
G01*
X9210000Y28420000D01*
G75*
G02*
X9110000Y28320000I-100000J0D01*
G01*
X8910000Y28320000D01*
G75*
G02*
X8810000Y28420000I0J100000D01*
G01*
X8810000Y28680000D01*
G75*
G02*
X8910000Y28780000I100000J0D01*
G01*
G37*
G04 #@! TD.AperFunction*
G04 #@! TO.P,C18,1*
G04 #@! TO.N,/A_R*
G04 #@! TA.AperFunction,SMDPad,CuDef*
G36*
G01*
X8910000Y29420000D02*
X9110000Y29420000D01*
G75*
G02*
X9210000Y29320000I0J-100000D01*
G01*
X9210000Y29060000D01*
G75*
G02*
X9110000Y28960000I-100000J0D01*
G01*
X8910000Y28960000D01*
G75*
G02*
X8810000Y29060000I0J100000D01*
G01*
X8810000Y29320000D01*
G75*
G02*
X8910000Y29420000I100000J0D01*
G01*
G37*
G04 #@! TD.AperFunction*
G04 #@! TD*
G04 #@! TO.P,R1,2*
G04 #@! TO.N,Net-(R1-Pad2)*
G04 #@! TA.AperFunction,SMDPad,CuDef*
G36*
G01*
X10707072Y5844350D02*
X10565650Y5702928D01*
G75*
G02*
X10424228Y5702928I-70711J70711D01*
G01*
X10240380Y5886776D01*
G75*
G02*
X10240380Y6028198I70711J70711D01*
G01*
X10381802Y6169620D01*
G75*
G02*
X10523224Y6169620I70711J-70711D01*
G01*
X10707072Y5985772D01*
G75*
G02*
X10707072Y5844350I-70711J-70711D01*
G01*
G37*
G04 #@! TD.AperFunction*
G04 #@! TO.P,R1,1*
G04 #@! TO.N,Net-(AE1-Pad1)*
G04 #@! TA.AperFunction,SMDPad,CuDef*
G36*
G01*
X11159620Y5391802D02*
X11018198Y5250380D01*
G75*
G02*
X10876776Y5250380I-70711J70711D01*
G01*
X10692928Y5434228D01*
G75*
G02*
X10692928Y5575650I70711J70711D01*
G01*
X10834350Y5717072D01*
G75*
G02*
X10975772Y5717072I70711J-70711D01*
G01*
X11159620Y5533224D01*
G75*
G02*
X11159620Y5391802I-70711J-70711D01*
G01*
G37*
G04 #@! TD.AperFunction*
G04 #@! TD*
G04 #@! TO.P,D4,4*
G04 #@! TO.N,GND*
G04 #@! TA.AperFunction,SMDPad,CuDef*
G36*
G01*
X6963797Y14981005D02*
X6666812Y14684020D01*
G75*
G02*
X6468822Y14684020I-98995J98995D01*
G01*
X6171837Y14981005D01*
G75*
G02*
X6171837Y15178995I98995J98995D01*
G01*
X6468822Y15475980D01*
G75*
G02*
X6666812Y15475980I98995J-98995D01*
G01*
X6963797Y15178995D01*
G75*
G02*
X6963797Y14981005I-98995J-98995D01*
G01*
G37*
G04 #@! TD.AperFunction*
G04 #@! TO.P,D4,1*
G04 #@! TO.N,Net-(D4-Pad1)*
G04 #@! TA.AperFunction,SMDPad,CuDef*
G36*
G01*
X6185980Y14203188D02*
X5888995Y13906203D01*
G75*
G02*
X5691005Y13906203I-98995J98995D01*
G01*
X5394020Y14203188D01*
G75*
G02*
X5394020Y14401178I98995J98995D01*
G01*
X5691005Y14698163D01*
G75*
G02*
X5888995Y14698163I98995J-98995D01*
G01*
X6185980Y14401178D01*
G75*
G02*
X6185980Y14203188I-98995J-98995D01*
G01*
G37*
G04 #@! TD.AperFunction*
G04 #@! TO.P,D4,3*
G04 #@! TO.N,Net-(D4-Pad3)*
G04 #@! TA.AperFunction,SMDPad,CuDef*
G36*
G01*
X6185980Y15758822D02*
X5888995Y15461837D01*
G75*
G02*
X5691005Y15461837I-98995J98995D01*
G01*
X5394020Y15758822D01*
G75*
G02*
X5394020Y15956812I98995J98995D01*
G01*
X5691005Y16253797D01*
G75*
G02*
X5888995Y16253797I98995J-98995D01*
G01*
X6185980Y15956812D01*
G75*
G02*
X6185980Y15758822I-98995J-98995D01*
G01*
G37*
G04 #@! TD.AperFunction*
G04 #@! TO.P,D4,2*
G04 #@! TO.N,Net-(C29-Pad1)*
G04 #@! TA.AperFunction,SMDPad,CuDef*
G36*
G01*
X5408163Y14981005D02*
X5111178Y14684020D01*
G75*
G02*
X4913188Y14684020I-98995J98995D01*
G01*
X4616203Y14981005D01*
G75*
G02*
X4616203Y15178995I98995J98995D01*
G01*
X4913188Y15475980D01*
G75*
G02*
X5111178Y15475980I98995J-98995D01*
G01*
X5408163Y15178995D01*
G75*
G02*
X5408163Y14981005I-98995J-98995D01*
G01*
G37*
G04 #@! TD.AperFunction*
G04 #@! TD*
G04 #@! TO.P,D5,4*
G04 #@! TO.N,GND*
G04 #@! TA.AperFunction,SMDPad,CuDef*
G36*
G01*
X3981005Y12206203D02*
X3684020Y12503188D01*
G75*
G02*
X3684020Y12701178I98995J98995D01*
G01*
X3981005Y12998163D01*
G75*
G02*
X4178995Y12998163I98995J-98995D01*
G01*
X4475980Y12701178D01*
G75*
G02*
X4475980Y12503188I-98995J-98995D01*
G01*
X4178995Y12206203D01*
G75*
G02*
X3981005Y12206203I-98995J98995D01*
G01*
G37*
G04 #@! TD.AperFunction*
G04 #@! TO.P,D5,1*
G04 #@! TO.N,/LED_DO*
G04 #@! TA.AperFunction,SMDPad,CuDef*
G36*
G01*
X3203188Y12984020D02*
X2906203Y13281005D01*
G75*
G02*
X2906203Y13478995I98995J98995D01*
G01*
X3203188Y13775980D01*
G75*
G02*
X3401178Y13775980I98995J-98995D01*
G01*
X3698163Y13478995D01*
G75*
G02*
X3698163Y13281005I-98995J-98995D01*
G01*
X3401178Y12984020D01*
G75*
G02*
X3203188Y12984020I-98995J98995D01*
G01*
G37*
G04 #@! TD.AperFunction*
G04 #@! TO.P,D5,3*
G04 #@! TO.N,Net-(D4-Pad1)*
G04 #@! TA.AperFunction,SMDPad,CuDef*
G36*
G01*
X4758822Y12984020D02*
X4461837Y13281005D01*
G75*
G02*
X4461837Y13478995I98995J98995D01*
G01*
X4758822Y13775980D01*
G75*
G02*
X4956812Y13775980I98995J-98995D01*
G01*
X5253797Y13478995D01*
G75*
G02*
X5253797Y13281005I-98995J-98995D01*
G01*
X4956812Y12984020D01*
G75*
G02*
X4758822Y12984020I-98995J98995D01*
G01*
G37*
G04 #@! TD.AperFunction*
G04 #@! TO.P,D5,2*
G04 #@! TO.N,Net-(C29-Pad1)*
G04 #@! TA.AperFunction,SMDPad,CuDef*
G36*
G01*
X3981005Y13761837D02*
X3684020Y14058822D01*
G75*
G02*
X3684020Y14256812I98995J98995D01*
G01*
X3981005Y14553797D01*
G75*
G02*
X4178995Y14553797I98995J-98995D01*
G01*
X4475980Y14256812D01*
G75*
G02*
X4475980Y14058822I-98995J-98995D01*
G01*
X4178995Y13761837D01*
G75*
G02*
X3981005Y13761837I-98995J98995D01*
G01*
G37*
G04 #@! TD.AperFunction*
G04 #@! TD*
G04 #@! TA.AperFunction,SMDPad,CuDef*
D13*
G04 #@! TO.P,U5,49*
G04 #@! TO.N,GND*
G36*
X12637666Y10690000D02*
G01*
X8890000Y6942334D01*
X5142334Y10690000D01*
X8890000Y14437666D01*
X12637666Y10690000D01*
G37*
G04 #@! TD.AperFunction*
G04 #@! TO.P,U5,48*
G04 #@! TO.N,N/C*
G04 #@! TA.AperFunction,SMDPad,CuDef*
G36*
G01*
X8722062Y6456198D02*
X8244765Y5978901D01*
G75*
G02*
X8156377Y5978901I-44194J44194D01*
G01*
X8067988Y6067290D01*
G75*
G02*
X8067988Y6155678I44194J44194D01*
G01*
X8545285Y6632975D01*
G75*
G02*
X8633673Y6632975I44194J-44194D01*
G01*
X8722062Y6544586D01*
G75*
G02*
X8722062Y6456198I-44194J-44194D01*
G01*
G37*
G04 #@! TD.AperFunction*
G04 #@! TO.P,U5,47*
G04 #@! TA.AperFunction,SMDPad,CuDef*
G36*
G01*
X8368509Y6809751D02*
X7891212Y6332454D01*
G75*
G02*
X7802824Y6332454I-44194J44194D01*
G01*
X7714435Y6420843D01*
G75*
G02*
X7714435Y6509231I44194J44194D01*
G01*
X8191732Y6986528D01*
G75*
G02*
X8280120Y6986528I44194J-44194D01*
G01*
X8368509Y6898139D01*
G75*
G02*
X8368509Y6809751I-44194J-44194D01*
G01*
G37*
G04 #@! TD.AperFunction*
G04 #@! TO.P,U5,46*
G04 #@! TO.N,+3V3*
G04 #@! TA.AperFunction,SMDPad,CuDef*
G36*
G01*
X8014955Y7163305D02*
X7537658Y6686008D01*
G75*
G02*
X7449270Y6686008I-44194J44194D01*
G01*
X7360881Y6774397D01*
G75*
G02*
X7360881Y6862785I44194J44194D01*
G01*
X7838178Y7340082D01*
G75*
G02*
X7926566Y7340082I44194J-44194D01*
G01*
X8014955Y7251693D01*
G75*
G02*
X8014955Y7163305I-44194J-44194D01*
G01*
G37*
G04 #@! TD.AperFunction*
G04 #@! TO.P,U5,45*
G04 #@! TO.N,N/C*
G04 #@! TA.AperFunction,SMDPad,CuDef*
G36*
G01*
X7661402Y7516858D02*
X7184105Y7039561D01*
G75*
G02*
X7095717Y7039561I-44194J44194D01*
G01*
X7007328Y7127950D01*
G75*
G02*
X7007328Y7216338I44194J44194D01*
G01*
X7484625Y7693635D01*
G75*
G02*
X7573013Y7693635I44194J-44194D01*
G01*
X7661402Y7605246D01*
G75*
G02*
X7661402Y7516858I-44194J-44194D01*
G01*
G37*
G04 #@! TD.AperFunction*
G04 #@! TO.P,U5,44*
G04 #@! TA.AperFunction,SMDPad,CuDef*
G36*
G01*
X7307849Y7870412D02*
X6830552Y7393115D01*
G75*
G02*
X6742164Y7393115I-44194J44194D01*
G01*
X6653775Y7481504D01*
G75*
G02*
X6653775Y7569892I44194J44194D01*
G01*
X7131072Y8047189D01*
G75*
G02*
X7219460Y8047189I44194J-44194D01*
G01*
X7307849Y7958800D01*
G75*
G02*
X7307849Y7870412I-44194J-44194D01*
G01*
G37*
G04 #@! TD.AperFunction*
G04 #@! TO.P,U5,43*
G04 #@! TO.N,+3V3*
G04 #@! TA.AperFunction,SMDPad,CuDef*
G36*
G01*
X6954295Y8223965D02*
X6476998Y7746668D01*
G75*
G02*
X6388610Y7746668I-44194J44194D01*
G01*
X6300221Y7835057D01*
G75*
G02*
X6300221Y7923445I44194J44194D01*
G01*
X6777518Y8400742D01*
G75*
G02*
X6865906Y8400742I44194J-44194D01*
G01*
X6954295Y8312353D01*
G75*
G02*
X6954295Y8223965I-44194J-44194D01*
G01*
G37*
G04 #@! TD.AperFunction*
G04 #@! TO.P,U5,42*
G04 #@! TO.N,/I2S_DIN*
G04 #@! TA.AperFunction,SMDPad,CuDef*
G36*
G01*
X6600742Y8577518D02*
X6123445Y8100221D01*
G75*
G02*
X6035057Y8100221I-44194J44194D01*
G01*
X5946668Y8188610D01*
G75*
G02*
X5946668Y8276998I44194J44194D01*
G01*
X6423965Y8754295D01*
G75*
G02*
X6512353Y8754295I44194J-44194D01*
G01*
X6600742Y8665906D01*
G75*
G02*
X6600742Y8577518I-44194J-44194D01*
G01*
G37*
G04 #@! TD.AperFunction*
G04 #@! TO.P,U5,41*
G04 #@! TO.N,/RXD*
G04 #@! TA.AperFunction,SMDPad,CuDef*
G36*
G01*
X6247189Y8931072D02*
X5769892Y8453775D01*
G75*
G02*
X5681504Y8453775I-44194J44194D01*
G01*
X5593115Y8542164D01*
G75*
G02*
X5593115Y8630552I44194J44194D01*
G01*
X6070412Y9107849D01*
G75*
G02*
X6158800Y9107849I44194J-44194D01*
G01*
X6247189Y9019460D01*
G75*
G02*
X6247189Y8931072I-44194J-44194D01*
G01*
G37*
G04 #@! TD.AperFunction*
G04 #@! TO.P,U5,40*
G04 #@! TO.N,/TXD*
G04 #@! TA.AperFunction,SMDPad,CuDef*
G36*
G01*
X5893635Y9284625D02*
X5416338Y8807328D01*
G75*
G02*
X5327950Y8807328I-44194J44194D01*
G01*
X5239561Y8895717D01*
G75*
G02*
X5239561Y8984105I44194J44194D01*
G01*
X5716858Y9461402D01*
G75*
G02*
X5805246Y9461402I44194J-44194D01*
G01*
X5893635Y9373013D01*
G75*
G02*
X5893635Y9284625I-44194J-44194D01*
G01*
G37*
G04 #@! TD.AperFunction*
G04 #@! TO.P,U5,39*
G04 #@! TO.N,/I2S_DOUT*
G04 #@! TA.AperFunction,SMDPad,CuDef*
G36*
G01*
X5540082Y9638178D02*
X5062785Y9160881D01*
G75*
G02*
X4974397Y9160881I-44194J44194D01*
G01*
X4886008Y9249270D01*
G75*
G02*
X4886008Y9337658I44194J44194D01*
G01*
X5363305Y9814955D01*
G75*
G02*
X5451693Y9814955I44194J-44194D01*
G01*
X5540082Y9726566D01*
G75*
G02*
X5540082Y9638178I-44194J-44194D01*
G01*
G37*
G04 #@! TD.AperFunction*
G04 #@! TO.P,U5,38*
G04 #@! TO.N,/I2S_WCLK*
G04 #@! TA.AperFunction,SMDPad,CuDef*
G36*
G01*
X5186528Y9991732D02*
X4709231Y9514435D01*
G75*
G02*
X4620843Y9514435I-44194J44194D01*
G01*
X4532454Y9602824D01*
G75*
G02*
X4532454Y9691212I44194J44194D01*
G01*
X5009751Y10168509D01*
G75*
G02*
X5098139Y10168509I44194J-44194D01*
G01*
X5186528Y10080120D01*
G75*
G02*
X5186528Y9991732I-44194J-44194D01*
G01*
G37*
G04 #@! TD.AperFunction*
G04 #@! TO.P,U5,37*
G04 #@! TO.N,+3V3*
G04 #@! TA.AperFunction,SMDPad,CuDef*
G36*
G01*
X4832975Y10345285D02*
X4355678Y9867988D01*
G75*
G02*
X4267290Y9867988I-44194J44194D01*
G01*
X4178901Y9956377D01*
G75*
G02*
X4178901Y10044765I44194J44194D01*
G01*
X4656198Y10522062D01*
G75*
G02*
X4744586Y10522062I44194J-44194D01*
G01*
X4832975Y10433673D01*
G75*
G02*
X4832975Y10345285I-44194J-44194D01*
G01*
G37*
G04 #@! TD.AperFunction*
G04 #@! TO.P,U5,36*
G04 #@! TO.N,N/C*
G04 #@! TA.AperFunction,SMDPad,CuDef*
G36*
G01*
X4832975Y10946327D02*
X4744586Y10857938D01*
G75*
G02*
X4656198Y10857938I-44194J44194D01*
G01*
X4178901Y11335235D01*
G75*
G02*
X4178901Y11423623I44194J44194D01*
G01*
X4267290Y11512012D01*
G75*
G02*
X4355678Y11512012I44194J-44194D01*
G01*
X4832975Y11034715D01*
G75*
G02*
X4832975Y10946327I-44194J-44194D01*
G01*
G37*
G04 #@! TD.AperFunction*
G04 #@! TO.P,U5,35*
G04 #@! TA.AperFunction,SMDPad,CuDef*
G36*
G01*
X5186528Y11299880D02*
X5098139Y11211491D01*
G75*
G02*
X5009751Y11211491I-44194J44194D01*
G01*
X4532454Y11688788D01*
G75*
G02*
X4532454Y11777176I44194J44194D01*
G01*
X4620843Y11865565D01*
G75*
G02*
X4709231Y11865565I44194J-44194D01*
G01*
X5186528Y11388268D01*
G75*
G02*
X5186528Y11299880I-44194J-44194D01*
G01*
G37*
G04 #@! TD.AperFunction*
G04 #@! TO.P,U5,34*
G04 #@! TO.N,/I2S_BCLK*
G04 #@! TA.AperFunction,SMDPad,CuDef*
G36*
G01*
X5540082Y11653434D02*
X5451693Y11565045D01*
G75*
G02*
X5363305Y11565045I-44194J44194D01*
G01*
X4886008Y12042342D01*
G75*
G02*
X4886008Y12130730I44194J44194D01*
G01*
X4974397Y12219119D01*
G75*
G02*
X5062785Y12219119I44194J-44194D01*
G01*
X5540082Y11741822D01*
G75*
G02*
X5540082Y11653434I-44194J-44194D01*
G01*
G37*
G04 #@! TD.AperFunction*
G04 #@! TO.P,U5,33*
G04 #@! TO.N,/LED_~EN~*
G04 #@! TA.AperFunction,SMDPad,CuDef*
G36*
G01*
X5893635Y12006987D02*
X5805246Y11918598D01*
G75*
G02*
X5716858Y11918598I-44194J44194D01*
G01*
X5239561Y12395895D01*
G75*
G02*
X5239561Y12484283I44194J44194D01*
G01*
X5327950Y12572672D01*
G75*
G02*
X5416338Y12572672I44194J-44194D01*
G01*
X5893635Y12095375D01*
G75*
G02*
X5893635Y12006987I-44194J-44194D01*
G01*
G37*
G04 #@! TD.AperFunction*
G04 #@! TO.P,U5,32*
G04 #@! TO.N,/SPI_RAM_~CS~*
G04 #@! TA.AperFunction,SMDPad,CuDef*
G36*
G01*
X6247189Y12360540D02*
X6158800Y12272151D01*
G75*
G02*
X6070412Y12272151I-44194J44194D01*
G01*
X5593115Y12749448D01*
G75*
G02*
X5593115Y12837836I44194J44194D01*
G01*
X5681504Y12926225D01*
G75*
G02*
X5769892Y12926225I44194J-44194D01*
G01*
X6247189Y12448928D01*
G75*
G02*
X6247189Y12360540I-44194J-44194D01*
G01*
G37*
G04 #@! TD.AperFunction*
G04 #@! TO.P,U5,31*
G04 #@! TO.N,N/C*
G04 #@! TA.AperFunction,SMDPad,CuDef*
G36*
G01*
X6600742Y12714094D02*
X6512353Y12625705D01*
G75*
G02*
X6423965Y12625705I-44194J44194D01*
G01*
X5946668Y13103002D01*
G75*
G02*
X5946668Y13191390I44194J44194D01*
G01*
X6035057Y13279779D01*
G75*
G02*
X6123445Y13279779I44194J-44194D01*
G01*
X6600742Y12802482D01*
G75*
G02*
X6600742Y12714094I-44194J-44194D01*
G01*
G37*
G04 #@! TD.AperFunction*
G04 #@! TO.P,U5,30*
G04 #@! TA.AperFunction,SMDPad,CuDef*
G36*
G01*
X6954295Y13067647D02*
X6865906Y12979258D01*
G75*
G02*
X6777518Y12979258I-44194J44194D01*
G01*
X6300221Y13456555D01*
G75*
G02*
X6300221Y13544943I44194J44194D01*
G01*
X6388610Y13633332D01*
G75*
G02*
X6476998Y13633332I44194J-44194D01*
G01*
X6954295Y13156035D01*
G75*
G02*
X6954295Y13067647I-44194J-44194D01*
G01*
G37*
G04 #@! TD.AperFunction*
G04 #@! TO.P,U5,29*
G04 #@! TA.AperFunction,SMDPad,CuDef*
G36*
G01*
X7307849Y13421200D02*
X7219460Y13332811D01*
G75*
G02*
X7131072Y13332811I-44194J44194D01*
G01*
X6653775Y13810108D01*
G75*
G02*
X6653775Y13898496I44194J44194D01*
G01*
X6742164Y13986885D01*
G75*
G02*
X6830552Y13986885I44194J-44194D01*
G01*
X7307849Y13509588D01*
G75*
G02*
X7307849Y13421200I-44194J-44194D01*
G01*
G37*
G04 #@! TD.AperFunction*
G04 #@! TO.P,U5,28*
G04 #@! TA.AperFunction,SMDPad,CuDef*
G36*
G01*
X7661402Y13774754D02*
X7573013Y13686365D01*
G75*
G02*
X7484625Y13686365I-44194J44194D01*
G01*
X7007328Y14163662D01*
G75*
G02*
X7007328Y14252050I44194J44194D01*
G01*
X7095717Y14340439D01*
G75*
G02*
X7184105Y14340439I44194J-44194D01*
G01*
X7661402Y13863142D01*
G75*
G02*
X7661402Y13774754I-44194J-44194D01*
G01*
G37*
G04 #@! TD.AperFunction*
G04 #@! TO.P,U5,27*
G04 #@! TO.N,/LED_DI*
G04 #@! TA.AperFunction,SMDPad,CuDef*
G36*
G01*
X8014955Y14128307D02*
X7926566Y14039918D01*
G75*
G02*
X7838178Y14039918I-44194J44194D01*
G01*
X7360881Y14517215D01*
G75*
G02*
X7360881Y14605603I44194J44194D01*
G01*
X7449270Y14693992D01*
G75*
G02*
X7537658Y14693992I44194J-44194D01*
G01*
X8014955Y14216695D01*
G75*
G02*
X8014955Y14128307I-44194J-44194D01*
G01*
G37*
G04 #@! TD.AperFunction*
G04 #@! TO.P,U5,26*
G04 #@! TO.N,N/C*
G04 #@! TA.AperFunction,SMDPad,CuDef*
G36*
G01*
X8368509Y14481861D02*
X8280120Y14393472D01*
G75*
G02*
X8191732Y14393472I-44194J44194D01*
G01*
X7714435Y14870769D01*
G75*
G02*
X7714435Y14959157I44194J44194D01*
G01*
X7802824Y15047546D01*
G75*
G02*
X7891212Y15047546I44194J-44194D01*
G01*
X8368509Y14570249D01*
G75*
G02*
X8368509Y14481861I-44194J-44194D01*
G01*
G37*
G04 #@! TD.AperFunction*
G04 #@! TO.P,U5,25*
G04 #@! TA.AperFunction,SMDPad,CuDef*
G36*
G01*
X8722062Y14835414D02*
X8633673Y14747025D01*
G75*
G02*
X8545285Y14747025I-44194J44194D01*
G01*
X8067988Y15224322D01*
G75*
G02*
X8067988Y15312710I44194J44194D01*
G01*
X8156377Y15401099D01*
G75*
G02*
X8244765Y15401099I44194J-44194D01*
G01*
X8722062Y14923802D01*
G75*
G02*
X8722062Y14835414I-44194J-44194D01*
G01*
G37*
G04 #@! TD.AperFunction*
G04 #@! TO.P,U5,24*
G04 #@! TO.N,/SPI_SIO3*
G04 #@! TA.AperFunction,SMDPad,CuDef*
G36*
G01*
X9712012Y15224322D02*
X9234715Y14747025D01*
G75*
G02*
X9146327Y14747025I-44194J44194D01*
G01*
X9057938Y14835414D01*
G75*
G02*
X9057938Y14923802I44194J44194D01*
G01*
X9535235Y15401099D01*
G75*
G02*
X9623623Y15401099I44194J-44194D01*
G01*
X9712012Y15312710D01*
G75*
G02*
X9712012Y15224322I-44194J-44194D01*
G01*
G37*
G04 #@! TD.AperFunction*
G04 #@! TO.P,U5,23*
G04 #@! TO.N,/SYS_CLK*
G04 #@! TA.AperFunction,SMDPad,CuDef*
G36*
G01*
X10065565Y14870769D02*
X9588268Y14393472D01*
G75*
G02*
X9499880Y14393472I-44194J44194D01*
G01*
X9411491Y14481861D01*
G75*
G02*
X9411491Y14570249I44194J44194D01*
G01*
X9888788Y15047546D01*
G75*
G02*
X9977176Y15047546I44194J-44194D01*
G01*
X10065565Y14959157D01*
G75*
G02*
X10065565Y14870769I-44194J-44194D01*
G01*
G37*
G04 #@! TD.AperFunction*
G04 #@! TO.P,U5,22*
G04 #@! TO.N,/SPI_SIO2*
G04 #@! TA.AperFunction,SMDPad,CuDef*
G36*
G01*
X10419119Y14517215D02*
X9941822Y14039918D01*
G75*
G02*
X9853434Y14039918I-44194J44194D01*
G01*
X9765045Y14128307D01*
G75*
G02*
X9765045Y14216695I44194J44194D01*
G01*
X10242342Y14693992D01*
G75*
G02*
X10330730Y14693992I44194J-44194D01*
G01*
X10419119Y14605603D01*
G75*
G02*
X10419119Y14517215I-44194J-44194D01*
G01*
G37*
G04 #@! TD.AperFunction*
G04 #@! TO.P,U5,21*
G04 #@! TO.N,/SPI_ICE_~CS~*
G04 #@! TA.AperFunction,SMDPad,CuDef*
G36*
G01*
X10772672Y14163662D02*
X10295375Y13686365D01*
G75*
G02*
X10206987Y13686365I-44194J44194D01*
G01*
X10118598Y13774754D01*
G75*
G02*
X10118598Y13863142I44194J44194D01*
G01*
X10595895Y14340439D01*
G75*
G02*
X10684283Y14340439I44194J-44194D01*
G01*
X10772672Y14252050D01*
G75*
G02*
X10772672Y14163662I-44194J-44194D01*
G01*
G37*
G04 #@! TD.AperFunction*
G04 #@! TO.P,U5,20*
G04 #@! TO.N,/SPI_SIO0*
G04 #@! TA.AperFunction,SMDPad,CuDef*
G36*
G01*
X11126225Y13810108D02*
X10648928Y13332811D01*
G75*
G02*
X10560540Y13332811I-44194J44194D01*
G01*
X10472151Y13421200D01*
G75*
G02*
X10472151Y13509588I44194J44194D01*
G01*
X10949448Y13986885D01*
G75*
G02*
X11037836Y13986885I44194J-44194D01*
G01*
X11126225Y13898496D01*
G75*
G02*
X11126225Y13810108I-44194J-44194D01*
G01*
G37*
G04 #@! TD.AperFunction*
G04 #@! TO.P,U5,19*
G04 #@! TO.N,+3V3*
G04 #@! TA.AperFunction,SMDPad,CuDef*
G36*
G01*
X11479779Y13456555D02*
X11002482Y12979258D01*
G75*
G02*
X10914094Y12979258I-44194J44194D01*
G01*
X10825705Y13067647D01*
G75*
G02*
X10825705Y13156035I44194J44194D01*
G01*
X11303002Y13633332D01*
G75*
G02*
X11391390Y13633332I44194J-44194D01*
G01*
X11479779Y13544943D01*
G75*
G02*
X11479779Y13456555I-44194J-44194D01*
G01*
G37*
G04 #@! TD.AperFunction*
G04 #@! TO.P,U5,18*
G04 #@! TO.N,/SPI_SIO1*
G04 #@! TA.AperFunction,SMDPad,CuDef*
G36*
G01*
X11833332Y13103002D02*
X11356035Y12625705D01*
G75*
G02*
X11267647Y12625705I-44194J44194D01*
G01*
X11179258Y12714094D01*
G75*
G02*
X11179258Y12802482I44194J44194D01*
G01*
X11656555Y13279779D01*
G75*
G02*
X11744943Y13279779I44194J-44194D01*
G01*
X11833332Y13191390D01*
G75*
G02*
X11833332Y13103002I-44194J-44194D01*
G01*
G37*
G04 #@! TD.AperFunction*
G04 #@! TO.P,U5,17*
G04 #@! TO.N,/SPI_SCLK*
G04 #@! TA.AperFunction,SMDPad,CuDef*
G36*
G01*
X12186885Y12749448D02*
X11709588Y12272151D01*
G75*
G02*
X11621200Y12272151I-44194J44194D01*
G01*
X11532811Y12360540D01*
G75*
G02*
X11532811Y12448928I44194J44194D01*
G01*
X12010108Y12926225D01*
G75*
G02*
X12098496Y12926225I44194J-44194D01*
G01*
X12186885Y12837836D01*
G75*
G02*
X12186885Y12749448I-44194J-44194D01*
G01*
G37*
G04 #@! TD.AperFunction*
G04 #@! TO.P,U5,16*
G04 #@! TO.N,/I2C_SDA*
G04 #@! TA.AperFunction,SMDPad,CuDef*
G36*
G01*
X12540439Y12395895D02*
X12063142Y11918598D01*
G75*
G02*
X11974754Y11918598I-44194J44194D01*
G01*
X11886365Y12006987D01*
G75*
G02*
X11886365Y12095375I44194J44194D01*
G01*
X12363662Y12572672D01*
G75*
G02*
X12452050Y12572672I44194J-44194D01*
G01*
X12540439Y12484283D01*
G75*
G02*
X12540439Y12395895I-44194J-44194D01*
G01*
G37*
G04 #@! TD.AperFunction*
G04 #@! TO.P,U5,15*
G04 #@! TO.N,/I2C_SCL*
G04 #@! TA.AperFunction,SMDPad,CuDef*
G36*
G01*
X12893992Y12042342D02*
X12416695Y11565045D01*
G75*
G02*
X12328307Y11565045I-44194J44194D01*
G01*
X12239918Y11653434D01*
G75*
G02*
X12239918Y11741822I44194J44194D01*
G01*
X12717215Y12219119D01*
G75*
G02*
X12805603Y12219119I44194J-44194D01*
G01*
X12893992Y12130730D01*
G75*
G02*
X12893992Y12042342I-44194J-44194D01*
G01*
G37*
G04 #@! TD.AperFunction*
G04 #@! TO.P,U5,14*
G04 #@! TO.N,/IO25*
G04 #@! TA.AperFunction,SMDPad,CuDef*
G36*
G01*
X13247546Y11688788D02*
X12770249Y11211491D01*
G75*
G02*
X12681861Y11211491I-44194J44194D01*
G01*
X12593472Y11299880D01*
G75*
G02*
X12593472Y11388268I44194J44194D01*
G01*
X13070769Y11865565D01*
G75*
G02*
X13159157Y11865565I44194J-44194D01*
G01*
X13247546Y11777176D01*
G75*
G02*
X13247546Y11688788I-44194J-44194D01*
G01*
G37*
G04 #@! TD.AperFunction*
G04 #@! TO.P,U5,13*
G04 #@! TO.N,/A_SEL*
G04 #@! TA.AperFunction,SMDPad,CuDef*
G36*
G01*
X13601099Y11335235D02*
X13123802Y10857938D01*
G75*
G02*
X13035414Y10857938I-44194J44194D01*
G01*
X12947025Y10946327D01*
G75*
G02*
X12947025Y11034715I44194J44194D01*
G01*
X13424322Y11512012D01*
G75*
G02*
X13512710Y11512012I44194J-44194D01*
G01*
X13601099Y11423623D01*
G75*
G02*
X13601099Y11335235I-44194J-44194D01*
G01*
G37*
G04 #@! TD.AperFunction*
G04 #@! TO.P,U5,12*
G04 #@! TO.N,/~CRESET~*
G04 #@! TA.AperFunction,SMDPad,CuDef*
G36*
G01*
X13601099Y9956377D02*
X13512710Y9867988D01*
G75*
G02*
X13424322Y9867988I-44194J44194D01*
G01*
X12947025Y10345285D01*
G75*
G02*
X12947025Y10433673I44194J44194D01*
G01*
X13035414Y10522062D01*
G75*
G02*
X13123802Y10522062I44194J-44194D01*
G01*
X13601099Y10044765D01*
G75*
G02*
X13601099Y9956377I-44194J-44194D01*
G01*
G37*
G04 #@! TD.AperFunction*
G04 #@! TO.P,U5,11*
G04 #@! TO.N,/I35*
G04 #@! TA.AperFunction,SMDPad,CuDef*
G36*
G01*
X13247546Y9602824D02*
X13159157Y9514435D01*
G75*
G02*
X13070769Y9514435I-44194J44194D01*
G01*
X12593472Y9991732D01*
G75*
G02*
X12593472Y10080120I44194J44194D01*
G01*
X12681861Y10168509D01*
G75*
G02*
X12770249Y10168509I44194J-44194D01*
G01*
X13247546Y9691212D01*
G75*
G02*
X13247546Y9602824I-44194J-44194D01*
G01*
G37*
G04 #@! TD.AperFunction*
G04 #@! TO.P,U5,10*
G04 #@! TO.N,/CDONE*
G04 #@! TA.AperFunction,SMDPad,CuDef*
G36*
G01*
X12893992Y9249270D02*
X12805603Y9160881D01*
G75*
G02*
X12717215Y9160881I-44194J44194D01*
G01*
X12239918Y9638178D01*
G75*
G02*
X12239918Y9726566I44194J44194D01*
G01*
X12328307Y9814955D01*
G75*
G02*
X12416695Y9814955I44194J-44194D01*
G01*
X12893992Y9337658D01*
G75*
G02*
X12893992Y9249270I-44194J-44194D01*
G01*
G37*
G04 #@! TD.AperFunction*
G04 #@! TO.P,U5,9*
G04 #@! TO.N,/ESP_EN*
G04 #@! TA.AperFunction,SMDPad,CuDef*
G36*
G01*
X12540439Y8895717D02*
X12452050Y8807328D01*
G75*
G02*
X12363662Y8807328I-44194J44194D01*
G01*
X11886365Y9284625D01*
G75*
G02*
X11886365Y9373013I44194J44194D01*
G01*
X11974754Y9461402D01*
G75*
G02*
X12063142Y9461402I44194J-44194D01*
G01*
X12540439Y8984105D01*
G75*
G02*
X12540439Y8895717I-44194J-44194D01*
G01*
G37*
G04 #@! TD.AperFunction*
G04 #@! TO.P,U5,8*
G04 #@! TO.N,/ICE_POT_Y*
G04 #@! TA.AperFunction,SMDPad,CuDef*
G36*
G01*
X12186885Y8542164D02*
X12098496Y8453775D01*
G75*
G02*
X12010108Y8453775I-44194J44194D01*
G01*
X11532811Y8931072D01*
G75*
G02*
X11532811Y9019460I44194J44194D01*
G01*
X11621200Y9107849D01*
G75*
G02*
X11709588Y9107849I44194J-44194D01*
G01*
X12186885Y8630552D01*
G75*
G02*
X12186885Y8542164I-44194J-44194D01*
G01*
G37*
G04 #@! TD.AperFunction*
G04 #@! TO.P,U5,7*
G04 #@! TO.N,/CC2*
G04 #@! TA.AperFunction,SMDPad,CuDef*
G36*
G01*
X11833332Y8188610D02*
X11744943Y8100221D01*
G75*
G02*
X11656555Y8100221I-44194J44194D01*
G01*
X11179258Y8577518D01*
G75*
G02*
X11179258Y8665906I44194J44194D01*
G01*
X11267647Y8754295D01*
G75*
G02*
X11356035Y8754295I44194J-44194D01*
G01*
X11833332Y8276998D01*
G75*
G02*
X11833332Y8188610I-44194J-44194D01*
G01*
G37*
G04 #@! TD.AperFunction*
G04 #@! TO.P,U5,6*
G04 #@! TO.N,/CC1*
G04 #@! TA.AperFunction,SMDPad,CuDef*
G36*
G01*
X11479779Y7835057D02*
X11391390Y7746668D01*
G75*
G02*
X11303002Y7746668I-44194J44194D01*
G01*
X10825705Y8223965D01*
G75*
G02*
X10825705Y8312353I44194J44194D01*
G01*
X10914094Y8400742D01*
G75*
G02*
X11002482Y8400742I44194J-44194D01*
G01*
X11479779Y7923445D01*
G75*
G02*
X11479779Y7835057I-44194J-44194D01*
G01*
G37*
G04 #@! TD.AperFunction*
G04 #@! TO.P,U5,5*
G04 #@! TO.N,/ICE_POT_X*
G04 #@! TA.AperFunction,SMDPad,CuDef*
G36*
G01*
X11126225Y7481504D02*
X11037836Y7393115D01*
G75*
G02*
X10949448Y7393115I-44194J44194D01*
G01*
X10472151Y7870412D01*
G75*
G02*
X10472151Y7958800I44194J44194D01*
G01*
X10560540Y8047189D01*
G75*
G02*
X10648928Y8047189I44194J-44194D01*
G01*
X11126225Y7569892D01*
G75*
G02*
X11126225Y7481504I-44194J-44194D01*
G01*
G37*
G04 #@! TD.AperFunction*
G04 #@! TO.P,U5,4*
G04 #@! TO.N,+3V3*
G04 #@! TA.AperFunction,SMDPad,CuDef*
G36*
G01*
X10772672Y7127950D02*
X10684283Y7039561D01*
G75*
G02*
X10595895Y7039561I-44194J44194D01*
G01*
X10118598Y7516858D01*
G75*
G02*
X10118598Y7605246I44194J44194D01*
G01*
X10206987Y7693635D01*
G75*
G02*
X10295375Y7693635I44194J-44194D01*
G01*
X10772672Y7216338D01*
G75*
G02*
X10772672Y7127950I-44194J-44194D01*
G01*
G37*
G04 #@! TD.AperFunction*
G04 #@! TO.P,U5,3*
G04 #@! TA.AperFunction,SMDPad,CuDef*
G36*
G01*
X10419119Y6774397D02*
X10330730Y6686008D01*
G75*
G02*
X10242342Y6686008I-44194J44194D01*
G01*
X9765045Y7163305D01*
G75*
G02*
X9765045Y7251693I44194J44194D01*
G01*
X9853434Y7340082D01*
G75*
G02*
X9941822Y7340082I44194J-44194D01*
G01*
X10419119Y6862785D01*
G75*
G02*
X10419119Y6774397I-44194J-44194D01*
G01*
G37*
G04 #@! TD.AperFunction*
G04 #@! TO.P,U5,2*
G04 #@! TO.N,Net-(R1-Pad2)*
G04 #@! TA.AperFunction,SMDPad,CuDef*
G36*
G01*
X10065565Y6420843D02*
X9977176Y6332454D01*
G75*
G02*
X9888788Y6332454I-44194J44194D01*
G01*
X9411491Y6809751D01*
G75*
G02*
X9411491Y6898139I44194J44194D01*
G01*
X9499880Y6986528D01*
G75*
G02*
X9588268Y6986528I44194J-44194D01*
G01*
X10065565Y6509231D01*
G75*
G02*
X10065565Y6420843I-44194J-44194D01*
G01*
G37*
G04 #@! TD.AperFunction*
G04 #@! TO.P,U5,1*
G04 #@! TO.N,+3V3*
G04 #@! TA.AperFunction,SMDPad,CuDef*
G36*
G01*
X9712012Y6067290D02*
X9623623Y5978901D01*
G75*
G02*
X9535235Y5978901I-44194J44194D01*
G01*
X9057938Y6456198D01*
G75*
G02*
X9057938Y6544586I44194J44194D01*
G01*
X9146327Y6632975D01*
G75*
G02*
X9234715Y6632975I44194J-44194D01*
G01*
X9712012Y6155678D01*
G75*
G02*
X9712012Y6067290I-44194J-44194D01*
G01*
G37*
G04 #@! TD.AperFunction*
G04 #@! TD*
G04 #@! TO.P,C16,2*
G04 #@! TO.N,GND*
G04 #@! TA.AperFunction,SMDPad,CuDef*
G36*
G01*
X7804350Y1892928D02*
X7662928Y2034350D01*
G75*
G02*
X7662928Y2175772I70711J70711D01*
G01*
X7846776Y2359620D01*
G75*
G02*
X7988198Y2359620I70711J-70711D01*
G01*
X8129620Y2218198D01*
G75*
G02*
X8129620Y2076776I-70711J-70711D01*
G01*
X7945772Y1892928D01*
G75*
G02*
X7804350Y1892928I-70711J70711D01*
G01*
G37*
G04 #@! TD.AperFunction*
G04 #@! TO.P,C16,1*
G04 #@! TO.N,+3V3*
G04 #@! TA.AperFunction,SMDPad,CuDef*
G36*
G01*
X7351802Y1440380D02*
X7210380Y1581802D01*
G75*
G02*
X7210380Y1723224I70711J70711D01*
G01*
X7394228Y1907072D01*
G75*
G02*
X7535650Y1907072I70711J-70711D01*
G01*
X7677072Y1765650D01*
G75*
G02*
X7677072Y1624228I-70711J-70711D01*
G01*
X7493224Y1440380D01*
G75*
G02*
X7351802Y1440380I-70711J70711D01*
G01*
G37*
G04 #@! TD.AperFunction*
G04 #@! TD*
D14*
G04 #@! TO.P,J7,10*
G04 #@! TO.N,GND*
X1270000Y1270000D03*
G04 #@! TO.P,J7,9*
G04 #@! TO.N,/A4*
X1270000Y3810000D03*
G04 #@! TO.P,J7,8*
G04 #@! TO.N,/A3*
X1270000Y6350000D03*
G04 #@! TO.P,J7,7*
G04 #@! TO.N,/A2*
X1270000Y8890000D03*
G04 #@! TO.P,J7,6*
G04 #@! TO.N,/A1*
X1270000Y11430000D03*
G04 #@! TO.P,J7,5*
G04 #@! TO.N,/A0*
X1270000Y13970000D03*
G04 #@! TO.P,J7,4*
G04 #@! TO.N,/~CS~*
X1270000Y16510000D03*
G04 #@! TO.P,J7,3*
G04 #@! TO.N,/R_~W~*
X1270000Y19050000D03*
G04 #@! TO.P,J7,2*
G04 #@! TO.N,/\u00D82*
X1270000Y21590000D03*
G04 #@! TO.P,J7,1*
G04 #@! TO.N,/~RES~*
X1270000Y24130000D03*
G04 #@! TD*
G04 #@! TA.AperFunction,SMDPad,CuDef*
D13*
G04 #@! TO.P,U6,25*
G04 #@! TO.N,GND*
G36*
X5740000Y2521522D02*
G01*
X3901522Y4360000D01*
X5740000Y6198478D01*
X7578478Y4360000D01*
X5740000Y2521522D01*
G37*
G04 #@! TD.AperFunction*
G04 #@! TO.P,U6,24*
G04 #@! TO.N,N/C*
G04 #@! TA.AperFunction,SMDPad,CuDef*
G36*
G01*
X3645196Y4510260D02*
X3150221Y5005235D01*
G75*
G02*
X3150221Y5093623I44194J44194D01*
G01*
X3238610Y5182012D01*
G75*
G02*
X3326998Y5182012I44194J-44194D01*
G01*
X3821973Y4687037D01*
G75*
G02*
X3821973Y4598649I-44194J-44194D01*
G01*
X3733584Y4510260D01*
G75*
G02*
X3645196Y4510260I-44194J44194D01*
G01*
G37*
G04 #@! TD.AperFunction*
G04 #@! TO.P,U6,23*
G04 #@! TO.N,/DTR*
G04 #@! TA.AperFunction,SMDPad,CuDef*
G36*
G01*
X3998750Y4863813D02*
X3503775Y5358788D01*
G75*
G02*
X3503775Y5447176I44194J44194D01*
G01*
X3592164Y5535565D01*
G75*
G02*
X3680552Y5535565I44194J-44194D01*
G01*
X4175527Y5040590D01*
G75*
G02*
X4175527Y4952202I-44194J-44194D01*
G01*
X4087138Y4863813D01*
G75*
G02*
X3998750Y4863813I-44194J44194D01*
G01*
G37*
G04 #@! TD.AperFunction*
G04 #@! TO.P,U6,22*
G04 #@! TO.N,N/C*
G04 #@! TA.AperFunction,SMDPad,CuDef*
G36*
G01*
X4352303Y5217367D02*
X3857328Y5712342D01*
G75*
G02*
X3857328Y5800730I44194J44194D01*
G01*
X3945717Y5889119D01*
G75*
G02*
X4034105Y5889119I44194J-44194D01*
G01*
X4529080Y5394144D01*
G75*
G02*
X4529080Y5305756I-44194J-44194D01*
G01*
X4440691Y5217367D01*
G75*
G02*
X4352303Y5217367I-44194J44194D01*
G01*
G37*
G04 #@! TD.AperFunction*
G04 #@! TO.P,U6,21*
G04 #@! TO.N,/TXD*
G04 #@! TA.AperFunction,SMDPad,CuDef*
G36*
G01*
X4705856Y5570920D02*
X4210881Y6065895D01*
G75*
G02*
X4210881Y6154283I44194J44194D01*
G01*
X4299270Y6242672D01*
G75*
G02*
X4387658Y6242672I44194J-44194D01*
G01*
X4882633Y5747697D01*
G75*
G02*
X4882633Y5659309I-44194J-44194D01*
G01*
X4794244Y5570920D01*
G75*
G02*
X4705856Y5570920I-44194J44194D01*
G01*
G37*
G04 #@! TD.AperFunction*
G04 #@! TO.P,U6,20*
G04 #@! TO.N,/RXD*
G04 #@! TA.AperFunction,SMDPad,CuDef*
G36*
G01*
X5059410Y5924473D02*
X4564435Y6419448D01*
G75*
G02*
X4564435Y6507836I44194J44194D01*
G01*
X4652824Y6596225D01*
G75*
G02*
X4741212Y6596225I44194J-44194D01*
G01*
X5236187Y6101250D01*
G75*
G02*
X5236187Y6012862I-44194J-44194D01*
G01*
X5147798Y5924473D01*
G75*
G02*
X5059410Y5924473I-44194J44194D01*
G01*
G37*
G04 #@! TD.AperFunction*
G04 #@! TO.P,U6,19*
G04 #@! TO.N,/RTS*
G04 #@! TA.AperFunction,SMDPad,CuDef*
G36*
G01*
X5412963Y6278027D02*
X4917988Y6773002D01*
G75*
G02*
X4917988Y6861390I44194J44194D01*
G01*
X5006377Y6949779D01*
G75*
G02*
X5094765Y6949779I44194J-44194D01*
G01*
X5589740Y6454804D01*
G75*
G02*
X5589740Y6366416I-44194J-44194D01*
G01*
X5501351Y6278027D01*
G75*
G02*
X5412963Y6278027I-44194J44194D01*
G01*
G37*
G04 #@! TD.AperFunction*
G04 #@! TO.P,U6,18*
G04 #@! TO.N,N/C*
G04 #@! TA.AperFunction,SMDPad,CuDef*
G36*
G01*
X5978649Y6278027D02*
X5890260Y6366416D01*
G75*
G02*
X5890260Y6454804I44194J44194D01*
G01*
X6385235Y6949779D01*
G75*
G02*
X6473623Y6949779I44194J-44194D01*
G01*
X6562012Y6861390D01*
G75*
G02*
X6562012Y6773002I-44194J-44194D01*
G01*
X6067037Y6278027D01*
G75*
G02*
X5978649Y6278027I-44194J44194D01*
G01*
G37*
G04 #@! TD.AperFunction*
G04 #@! TO.P,U6,17*
G04 #@! TA.AperFunction,SMDPad,CuDef*
G36*
G01*
X6332202Y5924473D02*
X6243813Y6012862D01*
G75*
G02*
X6243813Y6101250I44194J44194D01*
G01*
X6738788Y6596225D01*
G75*
G02*
X6827176Y6596225I44194J-44194D01*
G01*
X6915565Y6507836D01*
G75*
G02*
X6915565Y6419448I-44194J-44194D01*
G01*
X6420590Y5924473D01*
G75*
G02*
X6332202Y5924473I-44194J44194D01*
G01*
G37*
G04 #@! TD.AperFunction*
G04 #@! TO.P,U6,16*
G04 #@! TA.AperFunction,SMDPad,CuDef*
G36*
G01*
X6685756Y5570920D02*
X6597367Y5659309D01*
G75*
G02*
X6597367Y5747697I44194J44194D01*
G01*
X7092342Y6242672D01*
G75*
G02*
X7180730Y6242672I44194J-44194D01*
G01*
X7269119Y6154283D01*
G75*
G02*
X7269119Y6065895I-44194J-44194D01*
G01*
X6774144Y5570920D01*
G75*
G02*
X6685756Y5570920I-44194J44194D01*
G01*
G37*
G04 #@! TD.AperFunction*
G04 #@! TO.P,U6,15*
G04 #@! TA.AperFunction,SMDPad,CuDef*
G36*
G01*
X7039309Y5217367D02*
X6950920Y5305756D01*
G75*
G02*
X6950920Y5394144I44194J44194D01*
G01*
X7445895Y5889119D01*
G75*
G02*
X7534283Y5889119I44194J-44194D01*
G01*
X7622672Y5800730D01*
G75*
G02*
X7622672Y5712342I-44194J-44194D01*
G01*
X7127697Y5217367D01*
G75*
G02*
X7039309Y5217367I-44194J44194D01*
G01*
G37*
G04 #@! TD.AperFunction*
G04 #@! TO.P,U6,14*
G04 #@! TA.AperFunction,SMDPad,CuDef*
G36*
G01*
X7392862Y4863813D02*
X7304473Y4952202D01*
G75*
G02*
X7304473Y5040590I44194J44194D01*
G01*
X7799448Y5535565D01*
G75*
G02*
X7887836Y5535565I44194J-44194D01*
G01*
X7976225Y5447176D01*
G75*
G02*
X7976225Y5358788I-44194J-44194D01*
G01*
X7481250Y4863813D01*
G75*
G02*
X7392862Y4863813I-44194J44194D01*
G01*
G37*
G04 #@! TD.AperFunction*
G04 #@! TO.P,U6,13*
G04 #@! TA.AperFunction,SMDPad,CuDef*
G36*
G01*
X7746416Y4510260D02*
X7658027Y4598649D01*
G75*
G02*
X7658027Y4687037I44194J44194D01*
G01*
X8153002Y5182012D01*
G75*
G02*
X8241390Y5182012I44194J-44194D01*
G01*
X8329779Y5093623D01*
G75*
G02*
X8329779Y5005235I-44194J-44194D01*
G01*
X7834804Y4510260D01*
G75*
G02*
X7746416Y4510260I-44194J44194D01*
G01*
G37*
G04 #@! TD.AperFunction*
G04 #@! TO.P,U6,12*
G04 #@! TA.AperFunction,SMDPad,CuDef*
G36*
G01*
X8153002Y3537988D02*
X7658027Y4032963D01*
G75*
G02*
X7658027Y4121351I44194J44194D01*
G01*
X7746416Y4209740D01*
G75*
G02*
X7834804Y4209740I44194J-44194D01*
G01*
X8329779Y3714765D01*
G75*
G02*
X8329779Y3626377I-44194J-44194D01*
G01*
X8241390Y3537988D01*
G75*
G02*
X8153002Y3537988I-44194J44194D01*
G01*
G37*
G04 #@! TD.AperFunction*
G04 #@! TO.P,U6,11*
G04 #@! TA.AperFunction,SMDPad,CuDef*
G36*
G01*
X7799448Y3184435D02*
X7304473Y3679410D01*
G75*
G02*
X7304473Y3767798I44194J44194D01*
G01*
X7392862Y3856187D01*
G75*
G02*
X7481250Y3856187I44194J-44194D01*
G01*
X7976225Y3361212D01*
G75*
G02*
X7976225Y3272824I-44194J-44194D01*
G01*
X7887836Y3184435D01*
G75*
G02*
X7799448Y3184435I-44194J44194D01*
G01*
G37*
G04 #@! TD.AperFunction*
G04 #@! TO.P,U6,10*
G04 #@! TA.AperFunction,SMDPad,CuDef*
G36*
G01*
X7445895Y2830881D02*
X6950920Y3325856D01*
G75*
G02*
X6950920Y3414244I44194J44194D01*
G01*
X7039309Y3502633D01*
G75*
G02*
X7127697Y3502633I44194J-44194D01*
G01*
X7622672Y3007658D01*
G75*
G02*
X7622672Y2919270I-44194J-44194D01*
G01*
X7534283Y2830881D01*
G75*
G02*
X7445895Y2830881I-44194J44194D01*
G01*
G37*
G04 #@! TD.AperFunction*
G04 #@! TO.P,U6,9*
G04 #@! TO.N,Net-(R5-Pad1)*
G04 #@! TA.AperFunction,SMDPad,CuDef*
G36*
G01*
X7092342Y2477328D02*
X6597367Y2972303D01*
G75*
G02*
X6597367Y3060691I44194J44194D01*
G01*
X6685756Y3149080D01*
G75*
G02*
X6774144Y3149080I44194J-44194D01*
G01*
X7269119Y2654105D01*
G75*
G02*
X7269119Y2565717I-44194J-44194D01*
G01*
X7180730Y2477328D01*
G75*
G02*
X7092342Y2477328I-44194J44194D01*
G01*
G37*
G04 #@! TD.AperFunction*
G04 #@! TO.P,U6,8*
G04 #@! TO.N,/VBUS_DET*
G04 #@! TA.AperFunction,SMDPad,CuDef*
G36*
G01*
X6738788Y2123775D02*
X6243813Y2618750D01*
G75*
G02*
X6243813Y2707138I44194J44194D01*
G01*
X6332202Y2795527D01*
G75*
G02*
X6420590Y2795527I44194J-44194D01*
G01*
X6915565Y2300552D01*
G75*
G02*
X6915565Y2212164I-44194J-44194D01*
G01*
X6827176Y2123775D01*
G75*
G02*
X6738788Y2123775I-44194J44194D01*
G01*
G37*
G04 #@! TD.AperFunction*
G04 #@! TO.P,U6,7*
G04 #@! TO.N,+3V3*
G04 #@! TA.AperFunction,SMDPad,CuDef*
G36*
G01*
X6385235Y1770221D02*
X5890260Y2265196D01*
G75*
G02*
X5890260Y2353584I44194J44194D01*
G01*
X5978649Y2441973D01*
G75*
G02*
X6067037Y2441973I44194J-44194D01*
G01*
X6562012Y1946998D01*
G75*
G02*
X6562012Y1858610I-44194J-44194D01*
G01*
X6473623Y1770221D01*
G75*
G02*
X6385235Y1770221I-44194J44194D01*
G01*
G37*
G04 #@! TD.AperFunction*
G04 #@! TO.P,U6,6*
G04 #@! TA.AperFunction,SMDPad,CuDef*
G36*
G01*
X5006377Y1770221D02*
X4917988Y1858610D01*
G75*
G02*
X4917988Y1946998I44194J44194D01*
G01*
X5412963Y2441973D01*
G75*
G02*
X5501351Y2441973I44194J-44194D01*
G01*
X5589740Y2353584D01*
G75*
G02*
X5589740Y2265196I-44194J-44194D01*
G01*
X5094765Y1770221D01*
G75*
G02*
X5006377Y1770221I-44194J44194D01*
G01*
G37*
G04 #@! TD.AperFunction*
G04 #@! TO.P,U6,5*
G04 #@! TA.AperFunction,SMDPad,CuDef*
G36*
G01*
X4652824Y2123775D02*
X4564435Y2212164D01*
G75*
G02*
X4564435Y2300552I44194J44194D01*
G01*
X5059410Y2795527D01*
G75*
G02*
X5147798Y2795527I44194J-44194D01*
G01*
X5236187Y2707138D01*
G75*
G02*
X5236187Y2618750I-44194J-44194D01*
G01*
X4741212Y2123775D01*
G75*
G02*
X4652824Y2123775I-44194J44194D01*
G01*
G37*
G04 #@! TD.AperFunction*
G04 #@! TO.P,U6,4*
G04 #@! TO.N,/D-*
G04 #@! TA.AperFunction,SMDPad,CuDef*
G36*
G01*
X4299270Y2477328D02*
X4210881Y2565717D01*
G75*
G02*
X4210881Y2654105I44194J44194D01*
G01*
X4705856Y3149080D01*
G75*
G02*
X4794244Y3149080I44194J-44194D01*
G01*
X4882633Y3060691D01*
G75*
G02*
X4882633Y2972303I-44194J-44194D01*
G01*
X4387658Y2477328D01*
G75*
G02*
X4299270Y2477328I-44194J44194D01*
G01*
G37*
G04 #@! TD.AperFunction*
G04 #@! TO.P,U6,3*
G04 #@! TO.N,/D+*
G04 #@! TA.AperFunction,SMDPad,CuDef*
G36*
G01*
X3945717Y2830881D02*
X3857328Y2919270D01*
G75*
G02*
X3857328Y3007658I44194J44194D01*
G01*
X4352303Y3502633D01*
G75*
G02*
X4440691Y3502633I44194J-44194D01*
G01*
X4529080Y3414244D01*
G75*
G02*
X4529080Y3325856I-44194J-44194D01*
G01*
X4034105Y2830881D01*
G75*
G02*
X3945717Y2830881I-44194J44194D01*
G01*
G37*
G04 #@! TD.AperFunction*
G04 #@! TO.P,U6,2*
G04 #@! TO.N,GND*
G04 #@! TA.AperFunction,SMDPad,CuDef*
G36*
G01*
X3592164Y3184435D02*
X3503775Y3272824D01*
G75*
G02*
X3503775Y3361212I44194J44194D01*
G01*
X3998750Y3856187D01*
G75*
G02*
X4087138Y3856187I44194J-44194D01*
G01*
X4175527Y3767798D01*
G75*
G02*
X4175527Y3679410I-44194J-44194D01*
G01*
X3680552Y3184435D01*
G75*
G02*
X3592164Y3184435I-44194J44194D01*
G01*
G37*
G04 #@! TD.AperFunction*
G04 #@! TO.P,U6,1*
G04 #@! TO.N,N/C*
G04 #@! TA.AperFunction,SMDPad,CuDef*
G36*
G01*
X3238610Y3537988D02*
X3150221Y3626377D01*
G75*
G02*
X3150221Y3714765I44194J44194D01*
G01*
X3645196Y4209740D01*
G75*
G02*
X3733584Y4209740I44194J-44194D01*
G01*
X3821973Y4121351D01*
G75*
G02*
X3821973Y4032963I-44194J-44194D01*
G01*
X3326998Y3537988D01*
G75*
G02*
X3238610Y3537988I-44194J44194D01*
G01*
G37*
G04 #@! TD.AperFunction*
G04 #@! TD*
G04 #@! TO.P,C7,2*
G04 #@! TO.N,GND*
G04 #@! TA.AperFunction,SMDPad,CuDef*
G36*
G01*
X10530000Y30660000D02*
X10330000Y30660000D01*
G75*
G02*
X10230000Y30760000I0J100000D01*
G01*
X10230000Y31020000D01*
G75*
G02*
X10330000Y31120000I100000J0D01*
G01*
X10530000Y31120000D01*
G75*
G02*
X10630000Y31020000I0J-100000D01*
G01*
X10630000Y30760000D01*
G75*
G02*
X10530000Y30660000I-100000J0D01*
G01*
G37*
G04 #@! TD.AperFunction*
G04 #@! TO.P,C7,1*
G04 #@! TO.N,+3V3*
G04 #@! TA.AperFunction,SMDPad,CuDef*
G36*
G01*
X10530000Y30020000D02*
X10330000Y30020000D01*
G75*
G02*
X10230000Y30120000I0J100000D01*
G01*
X10230000Y30380000D01*
G75*
G02*
X10330000Y30480000I100000J0D01*
G01*
X10530000Y30480000D01*
G75*
G02*
X10630000Y30380000I0J-100000D01*
G01*
X10630000Y30120000D01*
G75*
G02*
X10530000Y30020000I-100000J0D01*
G01*
G37*
G04 #@! TD.AperFunction*
G04 #@! TD*
G04 #@! TO.P,C13,2*
G04 #@! TO.N,/EXT_IN*
G04 #@! TA.AperFunction,SMDPad,CuDef*
G36*
G01*
X14560000Y30810000D02*
X14560000Y31010000D01*
G75*
G02*
X14660000Y31110000I100000J0D01*
G01*
X14920000Y31110000D01*
G75*
G02*
X15020000Y31010000I0J-100000D01*
G01*
X15020000Y30810000D01*
G75*
G02*
X14920000Y30710000I-100000J0D01*
G01*
X14660000Y30710000D01*
G75*
G02*
X14560000Y30810000I0J100000D01*
G01*
G37*
G04 #@! TD.AperFunction*
G04 #@! TO.P,C13,1*
G04 #@! TO.N,Net-(C13-Pad1)*
G04 #@! TA.AperFunction,SMDPad,CuDef*
G36*
G01*
X13920000Y30810000D02*
X13920000Y31010000D01*
G75*
G02*
X14020000Y31110000I100000J0D01*
G01*
X14280000Y31110000D01*
G75*
G02*
X14380000Y31010000I0J-100000D01*
G01*
X14380000Y30810000D01*
G75*
G02*
X14280000Y30710000I-100000J0D01*
G01*
X14020000Y30710000D01*
G75*
G02*
X13920000Y30810000I0J100000D01*
G01*
G37*
G04 #@! TD.AperFunction*
G04 #@! TD*
G04 #@! TO.P,R12,2*
G04 #@! TO.N,/LED_DI*
G04 #@! TA.AperFunction,SMDPad,CuDef*
G36*
G01*
X7470000Y15990000D02*
X7470000Y16190000D01*
G75*
G02*
X7570000Y16290000I100000J0D01*
G01*
X7830000Y16290000D01*
G75*
G02*
X7930000Y16190000I0J-100000D01*
G01*
X7930000Y15990000D01*
G75*
G02*
X7830000Y15890000I-100000J0D01*
G01*
X7570000Y15890000D01*
G75*
G02*
X7470000Y15990000I0J100000D01*
G01*
G37*
G04 #@! TD.AperFunction*
G04 #@! TO.P,R12,1*
G04 #@! TO.N,Net-(D4-Pad3)*
G04 #@! TA.AperFunction,SMDPad,CuDef*
G36*
G01*
X6830000Y15990000D02*
X6830000Y16190000D01*
G75*
G02*
X6930000Y16290000I100000J0D01*
G01*
X7190000Y16290000D01*
G75*
G02*
X7290000Y16190000I0J-100000D01*
G01*
X7290000Y15990000D01*
G75*
G02*
X7190000Y15890000I-100000J0D01*
G01*
X6930000Y15890000D01*
G75*
G02*
X6830000Y15990000I0J100000D01*
G01*
G37*
G04 #@! TD.AperFunction*
G04 #@! TD*
G04 #@! TO.P,R11,2*
G04 #@! TO.N,+3V3*
G04 #@! TA.AperFunction,SMDPad,CuDef*
G36*
G01*
X4445650Y23807072D02*
X4587072Y23665650D01*
G75*
G02*
X4587072Y23524228I-70711J-70711D01*
G01*
X4403224Y23340380D01*
G75*
G02*
X4261802Y23340380I-70711J70711D01*
G01*
X4120380Y23481802D01*
G75*
G02*
X4120380Y23623224I70711J70711D01*
G01*
X4304228Y23807072D01*
G75*
G02*
X4445650Y23807072I70711J-70711D01*
G01*
G37*
G04 #@! TD.AperFunction*
G04 #@! TO.P,R11,1*
G04 #@! TO.N,/SPI_RAM_~CS~*
G04 #@! TA.AperFunction,SMDPad,CuDef*
G36*
G01*
X4898198Y24259620D02*
X5039620Y24118198D01*
G75*
G02*
X5039620Y23976776I-70711J-70711D01*
G01*
X4855772Y23792928D01*
G75*
G02*
X4714350Y23792928I-70711J70711D01*
G01*
X4572928Y23934350D01*
G75*
G02*
X4572928Y24075772I70711J70711D01*
G01*
X4756776Y24259620D01*
G75*
G02*
X4898198Y24259620I70711J-70711D01*
G01*
G37*
G04 #@! TD.AperFunction*
G04 #@! TD*
G04 #@! TO.P,C1,2*
G04 #@! TO.N,GND*
G04 #@! TA.AperFunction,SMDPad,CuDef*
G36*
G01*
X6600000Y32650000D02*
X6260000Y32650000D01*
G75*
G02*
X6120000Y32790000I0J140000D01*
G01*
X6120000Y33070000D01*
G75*
G02*
X6260000Y33210000I140000J0D01*
G01*
X6600000Y33210000D01*
G75*
G02*
X6740000Y33070000I0J-140000D01*
G01*
X6740000Y32790000D01*
G75*
G02*
X6600000Y32650000I-140000J0D01*
G01*
G37*
G04 #@! TD.AperFunction*
G04 #@! TO.P,C1,1*
G04 #@! TO.N,+5V*
G04 #@! TA.AperFunction,SMDPad,CuDef*
G36*
G01*
X6600000Y31690000D02*
X6260000Y31690000D01*
G75*
G02*
X6120000Y31830000I0J140000D01*
G01*
X6120000Y32110000D01*
G75*
G02*
X6260000Y32250000I140000J0D01*
G01*
X6600000Y32250000D01*
G75*
G02*
X6740000Y32110000I0J-140000D01*
G01*
X6740000Y31830000D01*
G75*
G02*
X6600000Y31690000I-140000J0D01*
G01*
G37*
G04 #@! TD.AperFunction*
G04 #@! TD*
G04 #@! TO.P,C3,2*
G04 #@! TO.N,GND*
G04 #@! TA.AperFunction,SMDPad,CuDef*
G36*
G01*
X4680000Y32650000D02*
X4340000Y32650000D01*
G75*
G02*
X4200000Y32790000I0J140000D01*
G01*
X4200000Y33070000D01*
G75*
G02*
X4340000Y33210000I140000J0D01*
G01*
X4680000Y33210000D01*
G75*
G02*
X4820000Y33070000I0J-140000D01*
G01*
X4820000Y32790000D01*
G75*
G02*
X4680000Y32650000I-140000J0D01*
G01*
G37*
G04 #@! TD.AperFunction*
G04 #@! TO.P,C3,1*
G04 #@! TO.N,+5V*
G04 #@! TA.AperFunction,SMDPad,CuDef*
G36*
G01*
X4680000Y31690000D02*
X4340000Y31690000D01*
G75*
G02*
X4200000Y31830000I0J140000D01*
G01*
X4200000Y32110000D01*
G75*
G02*
X4340000Y32250000I140000J0D01*
G01*
X4680000Y32250000D01*
G75*
G02*
X4820000Y32110000I0J-140000D01*
G01*
X4820000Y31830000D01*
G75*
G02*
X4680000Y31690000I-140000J0D01*
G01*
G37*
G04 #@! TD.AperFunction*
G04 #@! TD*
G04 #@! TO.P,C14,2*
G04 #@! TO.N,Net-(C14-Pad2)*
G04 #@! TA.AperFunction,SMDPad,CuDef*
G36*
G01*
X14380000Y30310000D02*
X14380000Y30110000D01*
G75*
G02*
X14280000Y30010000I-100000J0D01*
G01*
X14020000Y30010000D01*
G75*
G02*
X13920000Y30110000I0J100000D01*
G01*
X13920000Y30310000D01*
G75*
G02*
X14020000Y30410000I100000J0D01*
G01*
X14280000Y30410000D01*
G75*
G02*
X14380000Y30310000I0J-100000D01*
G01*
G37*
G04 #@! TD.AperFunction*
G04 #@! TO.P,C14,1*
G04 #@! TO.N,/LINE_OUT*
G04 #@! TA.AperFunction,SMDPad,CuDef*
G36*
G01*
X15020000Y30310000D02*
X15020000Y30110000D01*
G75*
G02*
X14920000Y30010000I-100000J0D01*
G01*
X14660000Y30010000D01*
G75*
G02*
X14560000Y30110000I0J100000D01*
G01*
X14560000Y30310000D01*
G75*
G02*
X14660000Y30410000I100000J0D01*
G01*
X14920000Y30410000D01*
G75*
G02*
X15020000Y30310000I0J-100000D01*
G01*
G37*
G04 #@! TD.AperFunction*
G04 #@! TD*
G04 #@! TO.P,C12,2*
G04 #@! TO.N,Net-(C12-Pad2)*
G04 #@! TA.AperFunction,SMDPad,CuDef*
G36*
G01*
X14380000Y29610000D02*
X14380000Y29410000D01*
G75*
G02*
X14280000Y29310000I-100000J0D01*
G01*
X14020000Y29310000D01*
G75*
G02*
X13920000Y29410000I0J100000D01*
G01*
X13920000Y29610000D01*
G75*
G02*
X14020000Y29710000I100000J0D01*
G01*
X14280000Y29710000D01*
G75*
G02*
X14380000Y29610000I0J-100000D01*
G01*
G37*
G04 #@! TD.AperFunction*
G04 #@! TO.P,C12,1*
G04 #@! TO.N,/LINE_OUT_2*
G04 #@! TA.AperFunction,SMDPad,CuDef*
G36*
G01*
X15020000Y29610000D02*
X15020000Y29410000D01*
G75*
G02*
X14920000Y29310000I-100000J0D01*
G01*
X14660000Y29310000D01*
G75*
G02*
X14560000Y29410000I0J100000D01*
G01*
X14560000Y29610000D01*
G75*
G02*
X14660000Y29710000I100000J0D01*
G01*
X14920000Y29710000D01*
G75*
G02*
X15020000Y29610000I0J-100000D01*
G01*
G37*
G04 #@! TD.AperFunction*
G04 #@! TD*
G04 #@! TO.P,C29,2*
G04 #@! TO.N,GND*
G04 #@! TA.AperFunction,SMDPad,CuDef*
G36*
G01*
X3955650Y15727072D02*
X4097072Y15585650D01*
G75*
G02*
X4097072Y15444228I-70711J-70711D01*
G01*
X3913224Y15260380D01*
G75*
G02*
X3771802Y15260380I-70711J70711D01*
G01*
X3630380Y15401802D01*
G75*
G02*
X3630380Y15543224I70711J70711D01*
G01*
X3814228Y15727072D01*
G75*
G02*
X3955650Y15727072I70711J-70711D01*
G01*
G37*
G04 #@! TD.AperFunction*
G04 #@! TO.P,C29,1*
G04 #@! TO.N,Net-(C29-Pad1)*
G04 #@! TA.AperFunction,SMDPad,CuDef*
G36*
G01*
X4408198Y16179620D02*
X4549620Y16038198D01*
G75*
G02*
X4549620Y15896776I-70711J-70711D01*
G01*
X4365772Y15712928D01*
G75*
G02*
X4224350Y15712928I-70711J70711D01*
G01*
X4082928Y15854350D01*
G75*
G02*
X4082928Y15995772I70711J70711D01*
G01*
X4266776Y16179620D01*
G75*
G02*
X4408198Y16179620I70711J-70711D01*
G01*
G37*
G04 #@! TD.AperFunction*
G04 #@! TD*
G04 #@! TO.P,C23,2*
G04 #@! TO.N,GND*
G04 #@! TA.AperFunction,SMDPad,CuDef*
G36*
G01*
X13070000Y32750000D02*
X12870000Y32750000D01*
G75*
G02*
X12770000Y32850000I0J100000D01*
G01*
X12770000Y33110000D01*
G75*
G02*
X12870000Y33210000I100000J0D01*
G01*
X13070000Y33210000D01*
G75*
G02*
X13170000Y33110000I0J-100000D01*
G01*
X13170000Y32850000D01*
G75*
G02*
X13070000Y32750000I-100000J0D01*
G01*
G37*
G04 #@! TD.AperFunction*
G04 #@! TO.P,C23,1*
G04 #@! TO.N,Net-(C23-Pad1)*
G04 #@! TA.AperFunction,SMDPad,CuDef*
G36*
G01*
X13070000Y32110000D02*
X12870000Y32110000D01*
G75*
G02*
X12770000Y32210000I0J100000D01*
G01*
X12770000Y32470000D01*
G75*
G02*
X12870000Y32570000I100000J0D01*
G01*
X13070000Y32570000D01*
G75*
G02*
X13170000Y32470000I0J-100000D01*
G01*
X13170000Y32210000D01*
G75*
G02*
X13070000Y32110000I-100000J0D01*
G01*
G37*
G04 #@! TD.AperFunction*
G04 #@! TD*
G04 #@! TO.P,C19,2*
G04 #@! TO.N,Net-(C19-Pad2)*
G04 #@! TA.AperFunction,SMDPad,CuDef*
G36*
G01*
X9610000Y28780000D02*
X9810000Y28780000D01*
G75*
G02*
X9910000Y28680000I0J-100000D01*
G01*
X9910000Y28420000D01*
G75*
G02*
X9810000Y28320000I-100000J0D01*
G01*
X9610000Y28320000D01*
G75*
G02*
X9510000Y28420000I0J100000D01*
G01*
X9510000Y28680000D01*
G75*
G02*
X9610000Y28780000I100000J0D01*
G01*
G37*
G04 #@! TD.AperFunction*
G04 #@! TO.P,C19,1*
G04 #@! TO.N,/A_L*
G04 #@! TA.AperFunction,SMDPad,CuDef*
G36*
G01*
X9610000Y29420000D02*
X9810000Y29420000D01*
G75*
G02*
X9910000Y29320000I0J-100000D01*
G01*
X9910000Y29060000D01*
G75*
G02*
X9810000Y28960000I-100000J0D01*
G01*
X9610000Y28960000D01*
G75*
G02*
X9510000Y29060000I0J100000D01*
G01*
X9510000Y29320000D01*
G75*
G02*
X9610000Y29420000I100000J0D01*
G01*
G37*
G04 #@! TD.AperFunction*
G04 #@! TD*
G04 #@! TO.P,R9,2*
G04 #@! TO.N,Net-(C27-Pad1)*
G04 #@! TA.AperFunction,SMDPad,CuDef*
G36*
G01*
X5077072Y18654350D02*
X4935650Y18512928D01*
G75*
G02*
X4794228Y18512928I-70711J70711D01*
G01*
X4610380Y18696776D01*
G75*
G02*
X4610380Y18838198I70711J70711D01*
G01*
X4751802Y18979620D01*
G75*
G02*
X4893224Y18979620I70711J-70711D01*
G01*
X5077072Y18795772D01*
G75*
G02*
X5077072Y18654350I-70711J-70711D01*
G01*
G37*
G04 #@! TD.AperFunction*
G04 #@! TO.P,R9,1*
G04 #@! TO.N,+1V2*
G04 #@! TA.AperFunction,SMDPad,CuDef*
G36*
G01*
X5529620Y18201802D02*
X5388198Y18060380D01*
G75*
G02*
X5246776Y18060380I-70711J70711D01*
G01*
X5062928Y18244228D01*
G75*
G02*
X5062928Y18385650I70711J70711D01*
G01*
X5204350Y18527072D01*
G75*
G02*
X5345772Y18527072I70711J-70711D01*
G01*
X5529620Y18343224D01*
G75*
G02*
X5529620Y18201802I-70711J-70711D01*
G01*
G37*
G04 #@! TD.AperFunction*
G04 #@! TD*
G04 #@! TO.P,R8,2*
G04 #@! TO.N,/CC1*
G04 #@! TA.AperFunction,SMDPad,CuDef*
G36*
G01*
X12467072Y7384350D02*
X12325650Y7242928D01*
G75*
G02*
X12184228Y7242928I-70711J70711D01*
G01*
X12000380Y7426776D01*
G75*
G02*
X12000380Y7568198I70711J70711D01*
G01*
X12141802Y7709620D01*
G75*
G02*
X12283224Y7709620I70711J-70711D01*
G01*
X12467072Y7525772D01*
G75*
G02*
X12467072Y7384350I-70711J-70711D01*
G01*
G37*
G04 #@! TD.AperFunction*
G04 #@! TO.P,R8,1*
G04 #@! TO.N,GND*
G04 #@! TA.AperFunction,SMDPad,CuDef*
G36*
G01*
X12919620Y6931802D02*
X12778198Y6790380D01*
G75*
G02*
X12636776Y6790380I-70711J70711D01*
G01*
X12452928Y6974228D01*
G75*
G02*
X12452928Y7115650I70711J70711D01*
G01*
X12594350Y7257072D01*
G75*
G02*
X12735772Y7257072I70711J-70711D01*
G01*
X12919620Y7073224D01*
G75*
G02*
X12919620Y6931802I-70711J-70711D01*
G01*
G37*
G04 #@! TD.AperFunction*
G04 #@! TD*
G04 #@! TO.P,R7,2*
G04 #@! TO.N,/CC2*
G04 #@! TA.AperFunction,SMDPad,CuDef*
G36*
G01*
X12967072Y7884350D02*
X12825650Y7742928D01*
G75*
G02*
X12684228Y7742928I-70711J70711D01*
G01*
X12500380Y7926776D01*
G75*
G02*
X12500380Y8068198I70711J70711D01*
G01*
X12641802Y8209620D01*
G75*
G02*
X12783224Y8209620I70711J-70711D01*
G01*
X12967072Y8025772D01*
G75*
G02*
X12967072Y7884350I-70711J-70711D01*
G01*
G37*
G04 #@! TD.AperFunction*
G04 #@! TO.P,R7,1*
G04 #@! TO.N,GND*
G04 #@! TA.AperFunction,SMDPad,CuDef*
G36*
G01*
X13419620Y7431802D02*
X13278198Y7290380D01*
G75*
G02*
X13136776Y7290380I-70711J70711D01*
G01*
X12952928Y7474228D01*
G75*
G02*
X12952928Y7615650I70711J70711D01*
G01*
X13094350Y7757072D01*
G75*
G02*
X13235772Y7757072I70711J-70711D01*
G01*
X13419620Y7573224D01*
G75*
G02*
X13419620Y7431802I-70711J-70711D01*
G01*
G37*
G04 #@! TD.AperFunction*
G04 #@! TD*
G04 #@! TO.P,R5,2*
G04 #@! TO.N,+3V3*
G04 #@! TA.AperFunction,SMDPad,CuDef*
G36*
G01*
X3130000Y6350000D02*
X2930000Y6350000D01*
G75*
G02*
X2830000Y6450000I0J100000D01*
G01*
X2830000Y6710000D01*
G75*
G02*
X2930000Y6810000I100000J0D01*
G01*
X3130000Y6810000D01*
G75*
G02*
X3230000Y6710000I0J-100000D01*
G01*
X3230000Y6450000D01*
G75*
G02*
X3130000Y6350000I-100000J0D01*
G01*
G37*
G04 #@! TD.AperFunction*
G04 #@! TO.P,R5,1*
G04 #@! TO.N,Net-(R5-Pad1)*
G04 #@! TA.AperFunction,SMDPad,CuDef*
G36*
G01*
X3130000Y5710000D02*
X2930000Y5710000D01*
G75*
G02*
X2830000Y5810000I0J100000D01*
G01*
X2830000Y6070000D01*
G75*
G02*
X2930000Y6170000I100000J0D01*
G01*
X3130000Y6170000D01*
G75*
G02*
X3230000Y6070000I0J-100000D01*
G01*
X3230000Y5810000D01*
G75*
G02*
X3130000Y5710000I-100000J0D01*
G01*
G37*
G04 #@! TD.AperFunction*
G04 #@! TD*
G04 #@! TO.P,R6,2*
G04 #@! TO.N,/MIC*
G04 #@! TA.AperFunction,SMDPad,CuDef*
G36*
G01*
X11940000Y30660000D02*
X11740000Y30660000D01*
G75*
G02*
X11640000Y30760000I0J100000D01*
G01*
X11640000Y31020000D01*
G75*
G02*
X11740000Y31120000I100000J0D01*
G01*
X11940000Y31120000D01*
G75*
G02*
X12040000Y31020000I0J-100000D01*
G01*
X12040000Y30760000D01*
G75*
G02*
X11940000Y30660000I-100000J0D01*
G01*
G37*
G04 #@! TD.AperFunction*
G04 #@! TO.P,R6,1*
G04 #@! TO.N,Net-(C22-Pad1)*
G04 #@! TA.AperFunction,SMDPad,CuDef*
G36*
G01*
X11940000Y30020000D02*
X11740000Y30020000D01*
G75*
G02*
X11640000Y30120000I0J100000D01*
G01*
X11640000Y30380000D01*
G75*
G02*
X11740000Y30480000I100000J0D01*
G01*
X11940000Y30480000D01*
G75*
G02*
X12040000Y30380000I0J-100000D01*
G01*
X12040000Y30120000D01*
G75*
G02*
X11940000Y30020000I-100000J0D01*
G01*
G37*
G04 #@! TD.AperFunction*
G04 #@! TD*
G04 #@! TO.P,R3,2*
G04 #@! TO.N,+3V3*
G04 #@! TA.AperFunction,SMDPad,CuDef*
G36*
G01*
X13814350Y12872928D02*
X13672928Y13014350D01*
G75*
G02*
X13672928Y13155772I70711J70711D01*
G01*
X13856776Y13339620D01*
G75*
G02*
X13998198Y13339620I70711J-70711D01*
G01*
X14139620Y13198198D01*
G75*
G02*
X14139620Y13056776I-70711J-70711D01*
G01*
X13955772Y12872928D01*
G75*
G02*
X13814350Y12872928I-70711J70711D01*
G01*
G37*
G04 #@! TD.AperFunction*
G04 #@! TO.P,R3,1*
G04 #@! TO.N,/I2C_SCL*
G04 #@! TA.AperFunction,SMDPad,CuDef*
G36*
G01*
X13361802Y12420380D02*
X13220380Y12561802D01*
G75*
G02*
X13220380Y12703224I70711J70711D01*
G01*
X13404228Y12887072D01*
G75*
G02*
X13545650Y12887072I70711J-70711D01*
G01*
X13687072Y12745650D01*
G75*
G02*
X13687072Y12604228I-70711J-70711D01*
G01*
X13503224Y12420380D01*
G75*
G02*
X13361802Y12420380I-70711J70711D01*
G01*
G37*
G04 #@! TD.AperFunction*
G04 #@! TD*
G04 #@! TO.P,R2,2*
G04 #@! TO.N,+3V3*
G04 #@! TA.AperFunction,SMDPad,CuDef*
G36*
G01*
X13314350Y13372928D02*
X13172928Y13514350D01*
G75*
G02*
X13172928Y13655772I70711J70711D01*
G01*
X13356776Y13839620D01*
G75*
G02*
X13498198Y13839620I70711J-70711D01*
G01*
X13639620Y13698198D01*
G75*
G02*
X13639620Y13556776I-70711J-70711D01*
G01*
X13455772Y13372928D01*
G75*
G02*
X13314350Y13372928I-70711J70711D01*
G01*
G37*
G04 #@! TD.AperFunction*
G04 #@! TO.P,R2,1*
G04 #@! TO.N,/I2C_SDA*
G04 #@! TA.AperFunction,SMDPad,CuDef*
G36*
G01*
X12861802Y12920380D02*
X12720380Y13061802D01*
G75*
G02*
X12720380Y13203224I70711J70711D01*
G01*
X12904228Y13387072D01*
G75*
G02*
X13045650Y13387072I70711J-70711D01*
G01*
X13187072Y13245650D01*
G75*
G02*
X13187072Y13104228I-70711J-70711D01*
G01*
X13003224Y12920380D01*
G75*
G02*
X12861802Y12920380I-70711J70711D01*
G01*
G37*
G04 #@! TD.AperFunction*
G04 #@! TD*
G04 #@! TO.P,R4,2*
G04 #@! TO.N,+3V3*
G04 #@! TA.AperFunction,SMDPad,CuDef*
G36*
G01*
X14300000Y8770000D02*
X14500000Y8770000D01*
G75*
G02*
X14600000Y8670000I0J-100000D01*
G01*
X14600000Y8410000D01*
G75*
G02*
X14500000Y8310000I-100000J0D01*
G01*
X14300000Y8310000D01*
G75*
G02*
X14200000Y8410000I0J100000D01*
G01*
X14200000Y8670000D01*
G75*
G02*
X14300000Y8770000I100000J0D01*
G01*
G37*
G04 #@! TD.AperFunction*
G04 #@! TO.P,R4,1*
G04 #@! TO.N,/ESP_EN*
G04 #@! TA.AperFunction,SMDPad,CuDef*
G36*
G01*
X14300000Y9410000D02*
X14500000Y9410000D01*
G75*
G02*
X14600000Y9310000I0J-100000D01*
G01*
X14600000Y9050000D01*
G75*
G02*
X14500000Y8950000I-100000J0D01*
G01*
X14300000Y8950000D01*
G75*
G02*
X14200000Y9050000I0J100000D01*
G01*
X14200000Y9310000D01*
G75*
G02*
X14300000Y9410000I100000J0D01*
G01*
G37*
G04 #@! TD.AperFunction*
G04 #@! TD*
G04 #@! TO.P,C32,2*
G04 #@! TO.N,GND*
G04 #@! TA.AperFunction,SMDPad,CuDef*
G36*
G01*
X14640000Y21770000D02*
X14840000Y21770000D01*
G75*
G02*
X14940000Y21670000I0J-100000D01*
G01*
X14940000Y21410000D01*
G75*
G02*
X14840000Y21310000I-100000J0D01*
G01*
X14640000Y21310000D01*
G75*
G02*
X14540000Y21410000I0J100000D01*
G01*
X14540000Y21670000D01*
G75*
G02*
X14640000Y21770000I100000J0D01*
G01*
G37*
G04 #@! TD.AperFunction*
G04 #@! TO.P,C32,1*
G04 #@! TO.N,+3V3*
G04 #@! TA.AperFunction,SMDPad,CuDef*
G36*
G01*
X14640000Y22410000D02*
X14840000Y22410000D01*
G75*
G02*
X14940000Y22310000I0J-100000D01*
G01*
X14940000Y22050000D01*
G75*
G02*
X14840000Y21950000I-100000J0D01*
G01*
X14640000Y21950000D01*
G75*
G02*
X14540000Y22050000I0J100000D01*
G01*
X14540000Y22310000D01*
G75*
G02*
X14640000Y22410000I100000J0D01*
G01*
G37*
G04 #@! TD.AperFunction*
G04 #@! TD*
G04 #@! TO.P,C31,2*
G04 #@! TO.N,GND*
G04 #@! TA.AperFunction,SMDPad,CuDef*
G36*
G01*
X4204350Y24292928D02*
X4062928Y24434350D01*
G75*
G02*
X4062928Y24575772I70711J70711D01*
G01*
X4246776Y24759620D01*
G75*
G02*
X4388198Y24759620I70711J-70711D01*
G01*
X4529620Y24618198D01*
G75*
G02*
X4529620Y24476776I-70711J-70711D01*
G01*
X4345772Y24292928D01*
G75*
G02*
X4204350Y24292928I-70711J70711D01*
G01*
G37*
G04 #@! TD.AperFunction*
G04 #@! TO.P,C31,1*
G04 #@! TO.N,+3V3*
G04 #@! TA.AperFunction,SMDPad,CuDef*
G36*
G01*
X3751802Y23840380D02*
X3610380Y23981802D01*
G75*
G02*
X3610380Y24123224I70711J70711D01*
G01*
X3794228Y24307072D01*
G75*
G02*
X3935650Y24307072I70711J-70711D01*
G01*
X4077072Y24165650D01*
G75*
G02*
X4077072Y24024228I-70711J-70711D01*
G01*
X3893224Y23840380D01*
G75*
G02*
X3751802Y23840380I-70711J70711D01*
G01*
G37*
G04 #@! TD.AperFunction*
G04 #@! TD*
G04 #@! TO.P,C30,2*
G04 #@! TO.N,GND*
G04 #@! TA.AperFunction,SMDPad,CuDef*
G36*
G01*
X4587072Y18154350D02*
X4445650Y18012928D01*
G75*
G02*
X4304228Y18012928I-70711J70711D01*
G01*
X4120380Y18196776D01*
G75*
G02*
X4120380Y18338198I70711J70711D01*
G01*
X4261802Y18479620D01*
G75*
G02*
X4403224Y18479620I70711J-70711D01*
G01*
X4587072Y18295772D01*
G75*
G02*
X4587072Y18154350I-70711J-70711D01*
G01*
G37*
G04 #@! TD.AperFunction*
G04 #@! TO.P,C30,1*
G04 #@! TO.N,+3V3*
G04 #@! TA.AperFunction,SMDPad,CuDef*
G36*
G01*
X5039620Y17701802D02*
X4898198Y17560380D01*
G75*
G02*
X4756776Y17560380I-70711J70711D01*
G01*
X4572928Y17744228D01*
G75*
G02*
X4572928Y17885650I70711J70711D01*
G01*
X4714350Y18027072D01*
G75*
G02*
X4855772Y18027072I70711J-70711D01*
G01*
X5039620Y17843224D01*
G75*
G02*
X5039620Y17701802I-70711J-70711D01*
G01*
G37*
G04 #@! TD.AperFunction*
G04 #@! TD*
G04 #@! TO.P,C27,2*
G04 #@! TO.N,GND*
G04 #@! TA.AperFunction,SMDPad,CuDef*
G36*
G01*
X3445650Y19517072D02*
X3587072Y19375650D01*
G75*
G02*
X3587072Y19234228I-70711J-70711D01*
G01*
X3403224Y19050380D01*
G75*
G02*
X3261802Y19050380I-70711J70711D01*
G01*
X3120380Y19191802D01*
G75*
G02*
X3120380Y19333224I70711J70711D01*
G01*
X3304228Y19517072D01*
G75*
G02*
X3445650Y19517072I70711J-70711D01*
G01*
G37*
G04 #@! TD.AperFunction*
G04 #@! TO.P,C27,1*
G04 #@! TO.N,Net-(C27-Pad1)*
G04 #@! TA.AperFunction,SMDPad,CuDef*
G36*
G01*
X3898198Y19969620D02*
X4039620Y19828198D01*
G75*
G02*
X4039620Y19686776I-70711J-70711D01*
G01*
X3855772Y19502928D01*
G75*
G02*
X3714350Y19502928I-70711J70711D01*
G01*
X3572928Y19644350D01*
G75*
G02*
X3572928Y19785772I70711J70711D01*
G01*
X3756776Y19969620D01*
G75*
G02*
X3898198Y19969620I70711J-70711D01*
G01*
G37*
G04 #@! TD.AperFunction*
G04 #@! TD*
G04 #@! TO.P,C25,2*
G04 #@! TO.N,GND*
G04 #@! TA.AperFunction,SMDPad,CuDef*
G36*
G01*
X13804350Y24712928D02*
X13662928Y24854350D01*
G75*
G02*
X13662928Y24995772I70711J70711D01*
G01*
X13846776Y25179620D01*
G75*
G02*
X13988198Y25179620I70711J-70711D01*
G01*
X14129620Y25038198D01*
G75*
G02*
X14129620Y24896776I-70711J-70711D01*
G01*
X13945772Y24712928D01*
G75*
G02*
X13804350Y24712928I-70711J70711D01*
G01*
G37*
G04 #@! TD.AperFunction*
G04 #@! TO.P,C25,1*
G04 #@! TO.N,+1V2*
G04 #@! TA.AperFunction,SMDPad,CuDef*
G36*
G01*
X13351802Y24260380D02*
X13210380Y24401802D01*
G75*
G02*
X13210380Y24543224I70711J70711D01*
G01*
X13394228Y24727072D01*
G75*
G02*
X13535650Y24727072I70711J-70711D01*
G01*
X13677072Y24585650D01*
G75*
G02*
X13677072Y24444228I-70711J-70711D01*
G01*
X13493224Y24260380D01*
G75*
G02*
X13351802Y24260380I-70711J70711D01*
G01*
G37*
G04 #@! TD.AperFunction*
G04 #@! TD*
G04 #@! TO.P,C24,2*
G04 #@! TO.N,GND*
G04 #@! TA.AperFunction,SMDPad,CuDef*
G36*
G01*
X14294350Y24212928D02*
X14152928Y24354350D01*
G75*
G02*
X14152928Y24495772I70711J70711D01*
G01*
X14336776Y24679620D01*
G75*
G02*
X14478198Y24679620I70711J-70711D01*
G01*
X14619620Y24538198D01*
G75*
G02*
X14619620Y24396776I-70711J-70711D01*
G01*
X14435772Y24212928D01*
G75*
G02*
X14294350Y24212928I-70711J70711D01*
G01*
G37*
G04 #@! TD.AperFunction*
G04 #@! TO.P,C24,1*
G04 #@! TO.N,+1V2*
G04 #@! TA.AperFunction,SMDPad,CuDef*
G36*
G01*
X13841802Y23760380D02*
X13700380Y23901802D01*
G75*
G02*
X13700380Y24043224I70711J70711D01*
G01*
X13884228Y24227072D01*
G75*
G02*
X14025650Y24227072I70711J-70711D01*
G01*
X14167072Y24085650D01*
G75*
G02*
X14167072Y23944228I-70711J-70711D01*
G01*
X13983224Y23760380D01*
G75*
G02*
X13841802Y23760380I-70711J70711D01*
G01*
G37*
G04 #@! TD.AperFunction*
G04 #@! TD*
G04 #@! TO.P,C10,2*
G04 #@! TO.N,GND*
G04 #@! TA.AperFunction,SMDPad,CuDef*
G36*
G01*
X14940000Y28540000D02*
X14740000Y28540000D01*
G75*
G02*
X14640000Y28640000I0J100000D01*
G01*
X14640000Y28900000D01*
G75*
G02*
X14740000Y29000000I100000J0D01*
G01*
X14940000Y29000000D01*
G75*
G02*
X15040000Y28900000I0J-100000D01*
G01*
X15040000Y28640000D01*
G75*
G02*
X14940000Y28540000I-100000J0D01*
G01*
G37*
G04 #@! TD.AperFunction*
G04 #@! TO.P,C10,1*
G04 #@! TO.N,Net-(C10-Pad1)*
G04 #@! TA.AperFunction,SMDPad,CuDef*
G36*
G01*
X14940000Y27900000D02*
X14740000Y27900000D01*
G75*
G02*
X14640000Y28000000I0J100000D01*
G01*
X14640000Y28260000D01*
G75*
G02*
X14740000Y28360000I100000J0D01*
G01*
X14940000Y28360000D01*
G75*
G02*
X15040000Y28260000I0J-100000D01*
G01*
X15040000Y28000000D01*
G75*
G02*
X14940000Y27900000I-100000J0D01*
G01*
G37*
G04 #@! TD.AperFunction*
G04 #@! TD*
G04 #@! TO.P,C22,2*
G04 #@! TO.N,GND*
G04 #@! TA.AperFunction,SMDPad,CuDef*
G36*
G01*
X11230000Y30660000D02*
X11030000Y30660000D01*
G75*
G02*
X10930000Y30760000I0J100000D01*
G01*
X10930000Y31020000D01*
G75*
G02*
X11030000Y31120000I100000J0D01*
G01*
X11230000Y31120000D01*
G75*
G02*
X11330000Y31020000I0J-100000D01*
G01*
X11330000Y30760000D01*
G75*
G02*
X11230000Y30660000I-100000J0D01*
G01*
G37*
G04 #@! TD.AperFunction*
G04 #@! TO.P,C22,1*
G04 #@! TO.N,Net-(C22-Pad1)*
G04 #@! TA.AperFunction,SMDPad,CuDef*
G36*
G01*
X11230000Y30020000D02*
X11030000Y30020000D01*
G75*
G02*
X10930000Y30120000I0J100000D01*
G01*
X10930000Y30380000D01*
G75*
G02*
X11030000Y30480000I100000J0D01*
G01*
X11230000Y30480000D01*
G75*
G02*
X11330000Y30380000I0J-100000D01*
G01*
X11330000Y30120000D01*
G75*
G02*
X11230000Y30020000I-100000J0D01*
G01*
G37*
G04 #@! TD.AperFunction*
G04 #@! TD*
G04 #@! TO.P,C21,2*
G04 #@! TO.N,Net-(C19-Pad2)*
G04 #@! TA.AperFunction,SMDPad,CuDef*
G36*
G01*
X14380000Y31710000D02*
X14380000Y31510000D01*
G75*
G02*
X14280000Y31410000I-100000J0D01*
G01*
X14020000Y31410000D01*
G75*
G02*
X13920000Y31510000I0J100000D01*
G01*
X13920000Y31710000D01*
G75*
G02*
X14020000Y31810000I100000J0D01*
G01*
X14280000Y31810000D01*
G75*
G02*
X14380000Y31710000I0J-100000D01*
G01*
G37*
G04 #@! TD.AperFunction*
G04 #@! TO.P,C21,1*
G04 #@! TO.N,/AUDIO_OUT*
G04 #@! TA.AperFunction,SMDPad,CuDef*
G36*
G01*
X15020000Y31710000D02*
X15020000Y31510000D01*
G75*
G02*
X14920000Y31410000I-100000J0D01*
G01*
X14660000Y31410000D01*
G75*
G02*
X14560000Y31510000I0J100000D01*
G01*
X14560000Y31710000D01*
G75*
G02*
X14660000Y31810000I100000J0D01*
G01*
X14920000Y31810000D01*
G75*
G02*
X15020000Y31710000I0J-100000D01*
G01*
G37*
G04 #@! TD.AperFunction*
G04 #@! TD*
G04 #@! TO.P,C17,2*
G04 #@! TO.N,GND*
G04 #@! TA.AperFunction,SMDPad,CuDef*
G36*
G01*
X3418787Y2391629D02*
X3178371Y2151213D01*
G75*
G02*
X2980381Y2151213I-98995J98995D01*
G01*
X2782391Y2349203D01*
G75*
G02*
X2782391Y2547193I98995J98995D01*
G01*
X3022807Y2787609D01*
G75*
G02*
X3220797Y2787609I98995J-98995D01*
G01*
X3418787Y2589619D01*
G75*
G02*
X3418787Y2391629I-98995J-98995D01*
G01*
G37*
G04 #@! TD.AperFunction*
G04 #@! TO.P,C17,1*
G04 #@! TO.N,+3V3*
G04 #@! TA.AperFunction,SMDPad,CuDef*
G36*
G01*
X4097609Y1712807D02*
X3857193Y1472391D01*
G75*
G02*
X3659203Y1472391I-98995J98995D01*
G01*
X3461213Y1670381D01*
G75*
G02*
X3461213Y1868371I98995J98995D01*
G01*
X3701629Y2108787D01*
G75*
G02*
X3899619Y2108787I98995J-98995D01*
G01*
X4097609Y1910797D01*
G75*
G02*
X4097609Y1712807I-98995J-98995D01*
G01*
G37*
G04 #@! TD.AperFunction*
G04 #@! TD*
G04 #@! TO.P,C20,1*
G04 #@! TO.N,/AUDIO_OUT_2*
G04 #@! TA.AperFunction,SMDPad,CuDef*
G36*
G01*
X15010000Y32410000D02*
X15010000Y32210000D01*
G75*
G02*
X14910000Y32110000I-100000J0D01*
G01*
X14650000Y32110000D01*
G75*
G02*
X14550000Y32210000I0J100000D01*
G01*
X14550000Y32410000D01*
G75*
G02*
X14650000Y32510000I100000J0D01*
G01*
X14910000Y32510000D01*
G75*
G02*
X15010000Y32410000I0J-100000D01*
G01*
G37*
G04 #@! TD.AperFunction*
G04 #@! TO.P,C20,2*
G04 #@! TO.N,Net-(C18-Pad2)*
G04 #@! TA.AperFunction,SMDPad,CuDef*
G36*
G01*
X14370000Y32410000D02*
X14370000Y32210000D01*
G75*
G02*
X14270000Y32110000I-100000J0D01*
G01*
X14010000Y32110000D01*
G75*
G02*
X13910000Y32210000I0J100000D01*
G01*
X13910000Y32410000D01*
G75*
G02*
X14010000Y32510000I100000J0D01*
G01*
X14270000Y32510000D01*
G75*
G02*
X14370000Y32410000I0J-100000D01*
G01*
G37*
G04 #@! TD.AperFunction*
G04 #@! TD*
G04 #@! TO.P,C15,2*
G04 #@! TO.N,/MIC*
G04 #@! TA.AperFunction,SMDPad,CuDef*
G36*
G01*
X12650000Y30660000D02*
X12450000Y30660000D01*
G75*
G02*
X12350000Y30760000I0J100000D01*
G01*
X12350000Y31020000D01*
G75*
G02*
X12450000Y31120000I100000J0D01*
G01*
X12650000Y31120000D01*
G75*
G02*
X12750000Y31020000I0J-100000D01*
G01*
X12750000Y30760000D01*
G75*
G02*
X12650000Y30660000I-100000J0D01*
G01*
G37*
G04 #@! TD.AperFunction*
G04 #@! TO.P,C15,1*
G04 #@! TO.N,Net-(C15-Pad1)*
G04 #@! TA.AperFunction,SMDPad,CuDef*
G36*
G01*
X12650000Y30020000D02*
X12450000Y30020000D01*
G75*
G02*
X12350000Y30120000I0J100000D01*
G01*
X12350000Y30380000D01*
G75*
G02*
X12450000Y30480000I100000J0D01*
G01*
X12650000Y30480000D01*
G75*
G02*
X12750000Y30380000I0J-100000D01*
G01*
X12750000Y30120000D01*
G75*
G02*
X12650000Y30020000I-100000J0D01*
G01*
G37*
G04 #@! TD.AperFunction*
G04 #@! TD*
G04 #@! TO.P,C11,1*
G04 #@! TO.N,Net-(C11-Pad1)*
G04 #@! TA.AperFunction,SMDPad,CuDef*
G36*
G01*
X13920000Y32910000D02*
X13920000Y33110000D01*
G75*
G02*
X14020000Y33210000I100000J0D01*
G01*
X14280000Y33210000D01*
G75*
G02*
X14380000Y33110000I0J-100000D01*
G01*
X14380000Y32910000D01*
G75*
G02*
X14280000Y32810000I-100000J0D01*
G01*
X14020000Y32810000D01*
G75*
G02*
X13920000Y32910000I0J100000D01*
G01*
G37*
G04 #@! TD.AperFunction*
G04 #@! TO.P,C11,2*
G04 #@! TO.N,/EXT_IN_2*
G04 #@! TA.AperFunction,SMDPad,CuDef*
G36*
G01*
X14560000Y32910000D02*
X14560000Y33110000D01*
G75*
G02*
X14660000Y33210000I100000J0D01*
G01*
X14920000Y33210000D01*
G75*
G02*
X15020000Y33110000I0J-100000D01*
G01*
X15020000Y32910000D01*
G75*
G02*
X14920000Y32810000I-100000J0D01*
G01*
X14660000Y32810000D01*
G75*
G02*
X14560000Y32910000I0J100000D01*
G01*
G37*
G04 #@! TD.AperFunction*
G04 #@! TD*
G04 #@! TO.P,C8,2*
G04 #@! TO.N,GND*
G04 #@! TA.AperFunction,SMDPad,CuDef*
G36*
G01*
X14662928Y25085650D02*
X14804350Y25227072D01*
G75*
G02*
X14945772Y25227072I70711J-70711D01*
G01*
X15129620Y25043224D01*
G75*
G02*
X15129620Y24901802I-70711J-70711D01*
G01*
X14988198Y24760380D01*
G75*
G02*
X14846776Y24760380I-70711J70711D01*
G01*
X14662928Y24944228D01*
G75*
G02*
X14662928Y25085650I70711J70711D01*
G01*
G37*
G04 #@! TD.AperFunction*
G04 #@! TO.P,C8,1*
G04 #@! TO.N,+3V3*
G04 #@! TA.AperFunction,SMDPad,CuDef*
G36*
G01*
X14210380Y25538198D02*
X14351802Y25679620D01*
G75*
G02*
X14493224Y25679620I70711J-70711D01*
G01*
X14677072Y25495772D01*
G75*
G02*
X14677072Y25354350I-70711J-70711D01*
G01*
X14535650Y25212928D01*
G75*
G02*
X14394228Y25212928I-70711J70711D01*
G01*
X14210380Y25396776D01*
G75*
G02*
X14210380Y25538198I70711J70711D01*
G01*
G37*
G04 #@! TD.AperFunction*
G04 #@! TD*
G04 #@! TO.P,C9,2*
G04 #@! TO.N,GND*
G04 #@! TA.AperFunction,SMDPad,CuDef*
G36*
G01*
X13452928Y8115650D02*
X13594350Y8257072D01*
G75*
G02*
X13735772Y8257072I70711J-70711D01*
G01*
X13919620Y8073224D01*
G75*
G02*
X13919620Y7931802I-70711J-70711D01*
G01*
X13778198Y7790380D01*
G75*
G02*
X13636776Y7790380I-70711J70711D01*
G01*
X13452928Y7974228D01*
G75*
G02*
X13452928Y8115650I70711J70711D01*
G01*
G37*
G04 #@! TD.AperFunction*
G04 #@! TO.P,C9,1*
G04 #@! TO.N,/ESP_EN*
G04 #@! TA.AperFunction,SMDPad,CuDef*
G36*
G01*
X13000380Y8568198D02*
X13141802Y8709620D01*
G75*
G02*
X13283224Y8709620I70711J-70711D01*
G01*
X13467072Y8525772D01*
G75*
G02*
X13467072Y8384350I-70711J-70711D01*
G01*
X13325650Y8242928D01*
G75*
G02*
X13184228Y8242928I-70711J70711D01*
G01*
X13000380Y8426776D01*
G75*
G02*
X13000380Y8568198I70711J70711D01*
G01*
G37*
G04 #@! TD.AperFunction*
G04 #@! TD*
G04 #@! TO.P,C6,2*
G04 #@! TO.N,GND*
G04 #@! TA.AperFunction,SMDPad,CuDef*
G36*
G01*
X11282928Y5985650D02*
X11424350Y6127072D01*
G75*
G02*
X11565772Y6127072I70711J-70711D01*
G01*
X11749620Y5943224D01*
G75*
G02*
X11749620Y5801802I-70711J-70711D01*
G01*
X11608198Y5660380D01*
G75*
G02*
X11466776Y5660380I-70711J70711D01*
G01*
X11282928Y5844228D01*
G75*
G02*
X11282928Y5985650I70711J70711D01*
G01*
G37*
G04 #@! TD.AperFunction*
G04 #@! TO.P,C6,1*
G04 #@! TO.N,+3V3*
G04 #@! TA.AperFunction,SMDPad,CuDef*
G36*
G01*
X10830380Y6438198D02*
X10971802Y6579620D01*
G75*
G02*
X11113224Y6579620I70711J-70711D01*
G01*
X11297072Y6395772D01*
G75*
G02*
X11297072Y6254350I-70711J-70711D01*
G01*
X11155650Y6112928D01*
G75*
G02*
X11014228Y6112928I-70711J70711D01*
G01*
X10830380Y6296776D01*
G75*
G02*
X10830380Y6438198I70711J70711D01*
G01*
G37*
G04 #@! TD.AperFunction*
G04 #@! TD*
G04 #@! TO.P,C5,1*
G04 #@! TO.N,+3V3*
G04 #@! TA.AperFunction,SMDPad,CuDef*
G36*
G01*
X11372391Y6947193D02*
X11612807Y7187609D01*
G75*
G02*
X11810797Y7187609I98995J-98995D01*
G01*
X12008787Y6989619D01*
G75*
G02*
X12008787Y6791629I-98995J-98995D01*
G01*
X11768371Y6551213D01*
G75*
G02*
X11570381Y6551213I-98995J98995D01*
G01*
X11372391Y6749203D01*
G75*
G02*
X11372391Y6947193I98995J98995D01*
G01*
G37*
G04 #@! TD.AperFunction*
G04 #@! TO.P,C5,2*
G04 #@! TO.N,GND*
G04 #@! TA.AperFunction,SMDPad,CuDef*
G36*
G01*
X12051213Y6268371D02*
X12291629Y6508787D01*
G75*
G02*
X12489619Y6508787I98995J-98995D01*
G01*
X12687609Y6310797D01*
G75*
G02*
X12687609Y6112807I-98995J-98995D01*
G01*
X12447193Y5872391D01*
G75*
G02*
X12249203Y5872391I-98995J98995D01*
G01*
X12051213Y6070381D01*
G75*
G02*
X12051213Y6268371I98995J98995D01*
G01*
G37*
G04 #@! TD.AperFunction*
G04 #@! TD*
G04 #@! TO.P,C26,2*
G04 #@! TO.N,GND*
G04 #@! TA.AperFunction,SMDPad,CuDef*
G36*
G01*
X2950000Y20780000D02*
X3150000Y20780000D01*
G75*
G02*
X3250000Y20680000I0J-100000D01*
G01*
X3250000Y20420000D01*
G75*
G02*
X3150000Y20320000I-100000J0D01*
G01*
X2950000Y20320000D01*
G75*
G02*
X2850000Y20420000I0J100000D01*
G01*
X2850000Y20680000D01*
G75*
G02*
X2950000Y20780000I100000J0D01*
G01*
G37*
G04 #@! TD.AperFunction*
G04 #@! TO.P,C26,1*
G04 #@! TO.N,+3V3*
G04 #@! TA.AperFunction,SMDPad,CuDef*
G36*
G01*
X2950000Y21420000D02*
X3150000Y21420000D01*
G75*
G02*
X3250000Y21320000I0J-100000D01*
G01*
X3250000Y21060000D01*
G75*
G02*
X3150000Y20960000I-100000J0D01*
G01*
X2950000Y20960000D01*
G75*
G02*
X2850000Y21060000I0J100000D01*
G01*
X2850000Y21320000D01*
G75*
G02*
X2950000Y21420000I100000J0D01*
G01*
G37*
G04 #@! TD.AperFunction*
G04 #@! TD*
D15*
G04 #@! TO.N,GND*
X15910000Y17780000D03*
X1870000Y20070000D03*
X1870000Y20570000D03*
X14740000Y24200000D03*
X15290000Y28770000D03*
X5580000Y29040000D03*
X5080000Y29040000D03*
X3990000Y24840000D03*
X4330000Y29470000D03*
X4830000Y29470000D03*
X3830000Y29470000D03*
X6520000Y3580000D03*
X4970000Y3580000D03*
X4970000Y5130000D03*
X6510000Y5130000D03*
X12710000Y27500000D03*
X11830000Y26620000D03*
X12710000Y26620000D03*
X11830000Y27500000D03*
X9830000Y9750000D03*
X10770000Y10700000D03*
X7020000Y10680000D03*
X7970000Y9760000D03*
X7970000Y11620000D03*
X9820000Y11600000D03*
X8890000Y10690000D03*
X8890000Y12550000D03*
X8890000Y21590000D03*
X9890000Y20610000D03*
X10890000Y21580000D03*
X8890000Y19600000D03*
X7900000Y20610000D03*
X6910000Y21590000D03*
X8890000Y23640000D03*
X5740000Y4360000D03*
X15910000Y2540000D03*
X3900000Y18040000D03*
X13780000Y6070000D03*
X8300000Y31760000D03*
X5330000Y29470000D03*
X4580000Y29040000D03*
X8900000Y8830000D03*
X7090000Y15590000D03*
X4230000Y15140000D03*
X4220000Y11820000D03*
X15310000Y25400000D03*
X15910000Y5080000D03*
X10430000Y31340000D03*
X3380000Y3060000D03*
X7940000Y2870000D03*
X4080000Y29040000D03*
X5830000Y29470000D03*
X12720000Y5080000D03*
X15210000Y3800000D03*
X15210000Y1290000D03*
X13780000Y5080000D03*
X6480000Y33440000D03*
X12630000Y18260000D03*
X8890000Y36890000D03*
X13800000Y21540000D03*
G04 #@! TO.N,+3V3*
X1870000Y12900000D03*
X3380000Y1400000D03*
X3820000Y14850000D03*
X3540000Y24390000D03*
X3810000Y31360000D03*
X9830000Y5860000D03*
X5960000Y7480000D03*
X4050000Y9750000D03*
X11600000Y13750000D03*
X14390000Y7310000D03*
X10430000Y29510000D03*
X6870000Y17790000D03*
X13740000Y25510000D03*
X12240000Y31780000D03*
X11440000Y31780000D03*
X10890000Y6910000D03*
X10550000Y6570000D03*
X3310000Y31360000D03*
X3350000Y7410000D03*
X7240000Y6560000D03*
X6290000Y25920000D03*
G04 #@! TO.N,+1V2*
X5610000Y31360000D03*
X5810000Y18860000D03*
X14240000Y23670000D03*
X6110000Y31360000D03*
G04 #@! TO.N,VBUS*
X5910000Y25540000D03*
X9470000Y31760000D03*
X11240000Y35230000D03*
G04 #@! TO.N,/LINE_OUT_2*
X15270000Y29510000D03*
G04 #@! TO.N,/LINE_OUT*
X15270000Y30210000D03*
G04 #@! TO.N,/CC2*
X11960000Y7970000D03*
X7640000Y35230000D03*
G04 #@! TO.N,/CC1*
X7490000Y32480000D03*
X10640000Y35230000D03*
X11600000Y7620000D03*
G04 #@! TO.N,/POT_X*
X13030000Y17860000D03*
G04 #@! TO.N,/POT_Y*
X13800000Y18760000D03*
G04 #@! TO.N,/IO25*
X13700000Y11870000D03*
G04 #@! TO.N,/I2C_SDA*
X12680000Y12700000D03*
X10750000Y25570000D03*
G04 #@! TO.N,/I2C_SCL*
X13030000Y12340000D03*
X11110000Y25210000D03*
X12250000Y24610000D03*
G04 #@! TO.N,/A_SEL*
X8010000Y31320000D03*
X14850000Y13210000D03*
G04 #@! TO.N,/RXD*
X5470000Y8330000D03*
X4440000Y6720000D03*
G04 #@! TO.N,/TXD*
X5110000Y8680000D03*
X4080000Y6370000D03*
G04 #@! TO.N,/~CRESET~*
X11930000Y25000000D03*
X13730000Y9740000D03*
G04 #@! TO.N,/CDONE*
X13020000Y9030000D03*
X11750000Y24530000D03*
G04 #@! TO.N,/ICE_POT_X*
X15910000Y12700000D03*
X11250000Y7260000D03*
G04 #@! TO.N,/ICE_POT_Y*
X12310000Y8330000D03*
X11610000Y14460000D03*
G04 #@! TO.N,/ICE_A5*
X11980000Y18850000D03*
G04 #@! TO.N,/ICE_A6*
X8880000Y15580000D03*
G04 #@! TO.N,/ICE_A7*
X6160000Y18500000D03*
G04 #@! TO.N,/ICE_A8*
X6510000Y18140000D03*
G04 #@! TO.N,/ICE_~RES~*
X4260000Y17680000D03*
G04 #@! TO.N,/ICE_D4*
X13760000Y20620000D03*
G04 #@! TO.N,/ICE_D3*
X13400000Y20270000D03*
G04 #@! TO.N,/ICE_D2*
X13040000Y19920000D03*
G04 #@! TO.N,/ICE_D1*
X12690000Y19560000D03*
G04 #@! TO.N,/ICE_D0*
X12330000Y19210000D03*
G04 #@! TO.N,/ICE_A4*
X5840000Y17710000D03*
G04 #@! TO.N,/ICE_A3*
X5100000Y19550000D03*
G04 #@! TO.N,/ICE_\u00D82*
X1870000Y17530000D03*
G04 #@! TO.N,/ICE_A2*
X4740000Y19910000D03*
G04 #@! TO.N,/ICE_A1*
X4390000Y20270000D03*
G04 #@! TO.N,/ICE_A0*
X4030000Y20620000D03*
G04 #@! TO.N,/ICE_~CS~*
X3940000Y21610000D03*
G04 #@! TO.N,/ICE_R_~W~*
X1870000Y18030000D03*
G04 #@! TO.N,/ICE_D7*
X13620000Y23550000D03*
G04 #@! TO.N,/ICE_D6*
X13120000Y23540000D03*
G04 #@! TO.N,/ICE_D5*
X12640000Y23700000D03*
G04 #@! TO.N,/SBU1*
X7140000Y35230000D03*
X10290000Y32460000D03*
G04 #@! TO.N,/D-*
X4090000Y2350000D03*
X8390000Y29490000D03*
G04 #@! TO.N,/D+*
X3730000Y2700000D03*
X8010000Y29820000D03*
G04 #@! TO.N,+5V*
X4460000Y31360000D03*
X13800000Y18240000D03*
X8130000Y15720000D03*
X4960000Y31370000D03*
G04 #@! TO.N,/ICE_~IO2~*
X11270000Y18140000D03*
G04 #@! TO.N,/ICE_~IO1~*
X11620000Y18500000D03*
G04 #@! TO.N,Net-(C11-Pad1)*
X13760000Y28550000D03*
X13680000Y33010000D03*
G04 #@! TO.N,/ESP_EN*
X5130000Y7440000D03*
X13790000Y8980000D03*
G04 #@! TO.N,/VBUS_DET*
X7040000Y2000000D03*
G04 #@! TO.N,/I35*
X13700000Y10420000D03*
G04 #@! TO.N,Net-(C19-Pad2)*
X13680000Y31610000D03*
X14100000Y25860000D03*
X10150000Y28620000D03*
G04 #@! TO.N,Net-(C18-Pad2)*
X13680000Y32310000D03*
X13210000Y24990000D03*
X8410000Y28810000D03*
G04 #@! TO.N,Net-(R5-Pad1)*
X3040000Y5470000D03*
X7400000Y2350000D03*
G04 #@! TO.N,/SYS_CLK*
X3350000Y7910000D03*
X10760000Y28560000D03*
X10190000Y15180000D03*
X5450000Y23970000D03*
G04 #@! TO.N,/SPI_RAM_~CS~*
X5470000Y13050000D03*
X5080000Y23630000D03*
G04 #@! TO.N,/I2S_WCLK*
X10370000Y28170000D03*
X4400000Y9390000D03*
G04 #@! TO.N,/I2S_BCLK*
X10080000Y27760000D03*
X4760000Y12350000D03*
G04 #@! TO.N,/I2S_DOUT*
X4750000Y9030000D03*
X10040000Y26280000D03*
G04 #@! TO.N,/I2S_DIN*
X5820000Y7970000D03*
X10400000Y25930000D03*
G04 #@! TO.N,/SPI_SIO3*
X6690000Y14300000D03*
X5980000Y13590000D03*
X9830000Y15530000D03*
X5800000Y24330000D03*
G04 #@! TO.N,/SPI_SIO2*
X10540000Y14820000D03*
X6160000Y24680000D03*
G04 #@! TO.N,/SPI_ICE_~CS~*
X10900000Y14470000D03*
X6870000Y25400000D03*
G04 #@! TO.N,/SPI_SIO0*
X11250000Y14110000D03*
X7570000Y26090000D03*
G04 #@! TO.N,/SPI_SIO1*
X11970000Y13410000D03*
X6520000Y25040000D03*
X6420000Y7280000D03*
G04 #@! TO.N,/SPI_SCLK*
X7690000Y26850000D03*
X12320000Y13050000D03*
G04 #@! TO.N,VCC*
X4050000Y33460000D03*
X3550000Y33460000D03*
G04 #@! TD*
D16*
G04 #@! TO.N,Net-(AE1-Pad1)*
X11015000Y5395000D02*
X10926274Y5483726D01*
X11015000Y3225000D02*
X11015000Y5395000D01*
D17*
G04 #@! TO.N,GND*
X13862322Y24982322D02*
X13862322Y24972774D01*
D18*
X8890000Y21590000D02*
X8020000Y21590000D01*
D17*
X13862322Y24982322D02*
X13862322Y24978130D01*
D18*
X11440000Y32540000D02*
X11840000Y32540000D01*
X11840000Y32540000D02*
X12240000Y32940000D01*
X11120000Y30890000D02*
X11130000Y30890000D01*
D17*
X12720000Y5840000D02*
X12358822Y6201178D01*
X12720000Y5080000D02*
X12720000Y5840000D01*
X12400000Y4760000D02*
X12720000Y5080000D01*
X11660000Y4760000D02*
X12400000Y4760000D01*
X11900000Y5510000D02*
X12360000Y5510000D01*
D18*
X12940000Y32940000D02*
X12970000Y32910000D01*
X12240000Y33530000D02*
X12240000Y32940000D01*
X11990000Y33780000D02*
X12240000Y33530000D01*
D17*
X10310000Y30890000D02*
X10430000Y30890000D01*
X9991500Y30571500D02*
X10310000Y30890000D01*
X10430000Y30890000D02*
X11130000Y30890000D01*
X10430000Y31340000D02*
X10430000Y30890000D01*
D19*
X4945000Y34490000D02*
X4570000Y34865000D01*
X5790000Y34490000D02*
X4945000Y34490000D01*
X12835000Y34490000D02*
X13210000Y34865000D01*
X11990000Y34490000D02*
X12835000Y34490000D01*
X5790000Y34210000D02*
X4510000Y32930000D01*
X5790000Y34490000D02*
X5790000Y34210000D01*
X4095000Y30195000D02*
X4420000Y30520000D01*
X3945000Y30195000D02*
X4095000Y30195000D01*
X6395000Y30195000D02*
X6720000Y30520000D01*
X6245000Y30195000D02*
X6395000Y30195000D01*
X3305000Y30195000D02*
X3270000Y30160000D01*
X3945000Y30195000D02*
X3305000Y30195000D01*
X5605000Y30195000D02*
X5570000Y30160000D01*
X6245000Y30195000D02*
X5605000Y30195000D01*
X6480000Y32980000D02*
X6430000Y32930000D01*
X6480000Y33420000D02*
X6480000Y32980000D01*
D17*
X8290000Y32990000D02*
X8290000Y32335000D01*
X8310000Y31790000D02*
X8300000Y31780000D01*
X8310000Y32315000D02*
X8310000Y31790000D01*
X8160000Y2390000D02*
X7896274Y2126274D01*
X8160000Y2650000D02*
X8160000Y2390000D01*
X7940000Y2870000D02*
X8160000Y2650000D01*
X3380000Y3060660D02*
X3839651Y3520311D01*
X3380000Y3060000D02*
X3380000Y3060660D01*
X3990000Y24840000D02*
X3990452Y24840000D01*
X13896274Y24946274D02*
X13896274Y24943726D01*
D18*
X12930000Y32940000D02*
X12970000Y32980000D01*
X12240000Y32940000D02*
X12930000Y32940000D01*
X12630000Y18029188D02*
X12265736Y17664924D01*
X12630000Y18260000D02*
X12630000Y18029188D01*
D17*
X11629340Y16180000D02*
X11205076Y16604264D01*
X12310000Y16180000D02*
X11629340Y16180000D01*
D18*
X12310000Y16180000D02*
X12610000Y15880000D01*
X13343554Y15880000D02*
X13821371Y15402183D01*
X12610000Y15880000D02*
X13343554Y15880000D01*
D17*
X13440000Y18042002D02*
X13440000Y17310000D01*
X13222001Y18260001D02*
X13440000Y18042002D01*
X12630000Y18260000D02*
X13222001Y18260001D01*
X12310000Y16180000D02*
X13440000Y17310000D01*
X15290000Y28770000D02*
X14840000Y28770000D01*
D18*
X11990000Y33780000D02*
X11990000Y34490000D01*
D17*
X14493726Y24446274D02*
X14740000Y24200000D01*
X14386274Y24446274D02*
X14493726Y24446274D01*
X14386274Y24456274D02*
X13896274Y24946274D01*
X14386274Y24446274D02*
X14386274Y24456274D01*
X14740000Y21540000D02*
X13800000Y21540000D01*
X2567452Y20070000D02*
X3353726Y19283726D01*
X3353726Y19273726D02*
X3843726Y18783726D01*
X3353726Y19283726D02*
X3353726Y19273726D01*
X4106274Y18246274D02*
X4353726Y18246274D01*
X3900000Y18040000D02*
X4106274Y18246274D01*
X3100589Y2780589D02*
X3100589Y2469411D01*
X3380000Y3060000D02*
X3100589Y2780589D01*
X3990000Y24832548D02*
X4296274Y24526274D01*
X3990000Y24840000D02*
X3990000Y24832548D01*
X11900000Y5510000D02*
X11516274Y5893726D01*
X13930000Y7780000D02*
X13686274Y8023726D01*
X13930000Y7400000D02*
X13930000Y7780000D01*
X4080000Y11960000D02*
X4220000Y11820000D01*
X4080000Y12602183D02*
X4080000Y11960000D01*
X7077817Y15590000D02*
X6567817Y15080000D01*
X7090000Y15590000D02*
X7077817Y15590000D01*
X9650000Y30571500D02*
X9648500Y30570000D01*
X9991500Y30571500D02*
X9650000Y30571500D01*
X15302548Y25400000D02*
X14896274Y24993726D01*
X15310000Y25400000D02*
X15302548Y25400000D01*
X1890000Y20550000D02*
X1870000Y20570000D01*
X3050000Y20550000D02*
X1890000Y20550000D01*
X2567452Y20070000D02*
X1870000Y20070000D01*
X4217452Y15140000D02*
X3863726Y15493726D01*
X4230000Y15140000D02*
X4217452Y15140000D01*
D18*
G04 #@! TO.N,+3V3*
X11440000Y31780000D02*
X11440000Y32140000D01*
X12240000Y31780000D02*
X12240000Y32140000D01*
X11340000Y31780000D02*
X10110000Y31780000D01*
X10110000Y31780000D02*
X9648500Y31318500D01*
X13265223Y22076136D02*
X13265223Y22074777D01*
D17*
X6030039Y1900000D02*
X6236136Y2106097D01*
X4910311Y2459651D02*
X5469961Y1900000D01*
X5750000Y1890000D02*
X5760000Y1900000D01*
X5750000Y1210000D02*
X5750000Y1890000D01*
X5760000Y1900000D02*
X6030039Y1900000D01*
X5469961Y1900000D02*
X5760000Y1900000D01*
X5750000Y1210000D02*
X4360000Y1210000D01*
X4725127Y23280000D02*
X5221884Y22783243D01*
X10430000Y29510000D02*
X10430000Y30250000D01*
D19*
X3315000Y30845000D02*
X3270000Y30800000D01*
X3945000Y30845000D02*
X3315000Y30845000D01*
X3270000Y31320000D02*
X3310000Y31360000D01*
X3270000Y30800000D02*
X3270000Y31320000D01*
X3310000Y31360000D02*
X3810000Y31360000D01*
D17*
X6980000Y1210000D02*
X7443726Y1673726D01*
X5750000Y1210000D02*
X6980000Y1210000D01*
D18*
X3030000Y7090000D02*
X3350000Y7410000D01*
D17*
X4060913Y9750000D02*
X4505938Y10195025D01*
X4050000Y9750000D02*
X4060913Y9750000D01*
X7240000Y6565127D02*
X7687918Y7013045D01*
X7240000Y6560000D02*
X7240000Y6565127D01*
X6033553Y7480000D02*
X6627258Y8073705D01*
X5960000Y7480000D02*
X6033553Y7480000D01*
D18*
X6009997Y18085001D02*
X6329999Y17764999D01*
D17*
X10430000Y29465686D02*
X11527538Y28368148D01*
X10430000Y29510000D02*
X10430000Y29465686D01*
X13740000Y25590000D02*
X13295305Y26034695D01*
X13740000Y25510000D02*
X13740000Y25590000D01*
X9830000Y5860913D02*
X9384975Y6305938D01*
X9830000Y5860000D02*
X9830000Y5860913D01*
X11596447Y13750000D02*
X11152742Y13306295D01*
X11600000Y13750000D02*
X11596447Y13750000D01*
X6870000Y17802233D02*
X7343204Y18275437D01*
X6870000Y17790000D02*
X6870000Y17802233D01*
D18*
X6844999Y17764999D02*
X6870000Y17790000D01*
X6329999Y17764999D02*
X6844999Y17764999D01*
D17*
X13803726Y25446274D02*
X14443726Y25446274D01*
X13740000Y25510000D02*
X13803726Y25446274D01*
X3380000Y1400000D02*
X3382928Y1400000D01*
X13265223Y22076136D02*
X13489087Y22300000D01*
X14620000Y22300000D02*
X14740000Y22180000D01*
X13489087Y22300000D02*
X14620000Y22300000D01*
X4690000Y21900913D02*
X4514777Y22076136D01*
X4690000Y21790000D02*
X4690000Y21900913D01*
X4090000Y21190000D02*
X4690000Y21790000D01*
X3050000Y21190000D02*
X4090000Y21190000D01*
X3050000Y21190000D02*
X3050000Y23280000D01*
D18*
X5369048Y17793726D02*
X4806274Y17793726D01*
X5660323Y18085001D02*
X5369048Y17793726D01*
X6009997Y18085001D02*
X5660323Y18085001D01*
D17*
X3388822Y1400000D02*
X3779411Y1790589D01*
X3380000Y1400000D02*
X3388822Y1400000D01*
X4360000Y1210000D02*
X3779411Y1790589D01*
X3050000Y23280000D02*
X3843726Y24073726D01*
X3540000Y24377452D02*
X3843726Y24073726D01*
X3540000Y24390000D02*
X3540000Y24377452D01*
X11063726Y6346274D02*
X11063726Y6376274D01*
X11586863Y6869411D02*
X11063726Y6346274D01*
X11690589Y6869411D02*
X11586863Y6869411D01*
X6290000Y26520000D02*
X6363726Y26593726D01*
X6290000Y25920000D02*
X6290000Y26520000D01*
X4343726Y23573726D02*
X3843726Y24073726D01*
X4353726Y23573726D02*
X4343726Y23573726D01*
X4647452Y23280000D02*
X4725127Y23280000D01*
X4353726Y23573726D02*
X4647452Y23280000D01*
D18*
X13906274Y13106274D02*
X13406274Y13606274D01*
X3030000Y7090000D02*
X3030000Y6580000D01*
X9648500Y31318500D02*
X9648500Y30970000D01*
X14390000Y8530000D02*
X14400000Y8540000D01*
X14390000Y7310000D02*
X14390000Y8530000D01*
D17*
X15810000Y25160000D02*
X15240000Y24590000D01*
X15240000Y22680000D02*
X14740000Y22180000D01*
X15810000Y25610000D02*
X15810000Y25160000D01*
X15520000Y25900000D02*
X15810000Y25610000D01*
X14897452Y25900000D02*
X15520000Y25900000D01*
X15240000Y24590000D02*
X15240000Y22680000D01*
X14443726Y25446274D02*
X14897452Y25900000D01*
X3160000Y15510000D02*
X3820000Y14850000D01*
X3160000Y15681802D02*
X3160000Y15510000D01*
X3391612Y15913414D02*
X3160000Y15681802D01*
D18*
X11600000Y13750000D02*
X11780000Y13930000D01*
X13082548Y13930000D02*
X13406274Y13606274D01*
X11780000Y13930000D02*
X13082548Y13930000D01*
D17*
X10535127Y6570000D02*
X10092082Y7013045D01*
X10890000Y6922233D02*
X10445635Y7366598D01*
X10890000Y6910000D02*
X10890000Y6922233D01*
X10550000Y6570000D02*
X10535127Y6570000D01*
X10570000Y6590000D02*
X10550000Y6570000D01*
X11063726Y6376274D02*
X10850000Y6590000D01*
X10850000Y6590000D02*
X10570000Y6590000D01*
X10850000Y6870000D02*
X10890000Y6910000D01*
X10850000Y6590000D02*
X10850000Y6870000D01*
D19*
G04 #@! TO.N,+1V2*
X5615000Y30845000D02*
X5570000Y30800000D01*
X6245000Y30845000D02*
X5615000Y30845000D01*
D18*
X5500000Y30800000D02*
X4895000Y30195000D01*
X5570000Y30800000D02*
X5500000Y30800000D01*
D19*
X5570000Y31320000D02*
X5610000Y31360000D01*
X5570000Y30800000D02*
X5570000Y31320000D01*
X5610000Y31360000D02*
X6110000Y31360000D01*
D17*
X13016274Y24493726D02*
X12430000Y25080000D01*
X13443726Y24493726D02*
X13016274Y24493726D01*
X11841371Y25500000D02*
X12010000Y25500000D01*
X11810381Y25469010D02*
X11841371Y25500000D01*
X12010000Y25500000D02*
X12430000Y25080000D01*
X5810000Y18863553D02*
X6282544Y19336097D01*
X5810000Y18860000D02*
X5810000Y18863553D01*
X13443726Y24483726D02*
X13933726Y23993726D01*
X13443726Y24493726D02*
X13443726Y24483726D01*
X11851010Y23503012D02*
X11851010Y23490349D01*
X13180001Y24100001D02*
X12447999Y24100001D01*
X12447999Y24100001D02*
X11851010Y23503012D01*
X13443726Y24363726D02*
X13180001Y24100001D01*
X13443726Y24493726D02*
X13443726Y24363726D01*
X14240000Y23687452D02*
X13933726Y23993726D01*
X14240000Y23670000D02*
X14240000Y23687452D01*
X5296274Y18346274D02*
X5296274Y18293726D01*
X5810000Y18860000D02*
X5296274Y18346274D01*
G04 #@! TO.N,VBUS*
X9490000Y32335000D02*
X9470000Y32315000D01*
X9490000Y32990000D02*
X9490000Y32335000D01*
X9470000Y31780000D02*
X9470000Y32315000D01*
D18*
X7604990Y30678010D02*
X7711500Y30571500D01*
X7604990Y31773008D02*
X7604990Y30678010D01*
X7089999Y32287999D02*
X7604990Y31773008D01*
D19*
X5470000Y33060676D02*
X5470000Y32950000D01*
X6540000Y34130676D02*
X5470000Y33060676D01*
X6540000Y34490000D02*
X6540000Y34130676D01*
D18*
X7089999Y33626327D02*
X7089999Y32287999D01*
X6540000Y34490000D02*
X6540000Y34176326D01*
X6540000Y34176326D02*
X7089999Y33626327D01*
D19*
X11240000Y35310000D02*
X11240000Y34490000D01*
X10860000Y35690000D02*
X11240000Y35310000D01*
X6943998Y35690000D02*
X10860000Y35690000D01*
X6540000Y35286002D02*
X6943998Y35690000D01*
X6540000Y34490000D02*
X6540000Y35286002D01*
D18*
X7604990Y28444990D02*
X5910000Y26750000D01*
X5910000Y26750000D02*
X5910000Y25540000D01*
X7604990Y30464990D02*
X7604990Y28444990D01*
X7711500Y30571500D02*
X7604990Y30464990D01*
X8110000Y30571500D02*
X8111500Y30570000D01*
X7711500Y30571500D02*
X8110000Y30571500D01*
G04 #@! TO.N,/EXT_IN_2*
X16510000Y36830000D02*
X15295000Y35615000D01*
X14790000Y33010000D02*
X15295000Y33515000D01*
X15295000Y33515000D02*
X15295000Y35615000D01*
G04 #@! TO.N,/EXT_IN*
X15790000Y30910000D02*
X14790000Y30910000D01*
X16510000Y30190000D02*
X15790000Y30910000D01*
X16510000Y29210000D02*
X16510000Y30190000D01*
G04 #@! TO.N,/MIC*
X12550000Y30890000D02*
X11840000Y30890000D01*
X11840000Y32140000D02*
X11840000Y30890000D01*
G04 #@! TO.N,/AUDIO_OUT_2*
X16510000Y33320000D02*
X16510000Y34290000D01*
X15500000Y32310000D02*
X16510000Y33320000D01*
X14780000Y32310000D02*
X15500000Y32310000D01*
G04 #@! TO.N,/AUDIO_OUT*
X15250000Y31610000D02*
X14790000Y31610000D01*
X15390000Y31750000D02*
X15250000Y31610000D01*
X16510000Y31750000D02*
X15390000Y31750000D01*
G04 #@! TO.N,/LINE_OUT_2*
X15270000Y29510000D02*
X14790000Y29510000D01*
G04 #@! TO.N,/LINE_OUT*
X15270000Y30210000D02*
X14790000Y30210000D01*
G04 #@! TO.N,/CC2*
X11506295Y8427258D02*
X11506295Y8423705D01*
X7640000Y33780000D02*
X7640000Y34490000D01*
X7890000Y33530000D02*
X7640000Y33780000D01*
X7890000Y32990000D02*
X7890000Y33530000D01*
X7640000Y35220000D02*
X7640000Y34490000D01*
X11960000Y7973553D02*
X11506295Y8427258D01*
X11960000Y7970000D02*
X11960000Y7973553D01*
X12712451Y7954999D02*
X12733726Y7976274D01*
X11975001Y7954999D02*
X12712451Y7954999D01*
X11960000Y7970000D02*
X11975001Y7954999D01*
G04 #@! TO.N,/CC1*
X11580000Y7650000D02*
X11576447Y7650000D01*
X7490000Y32480000D02*
X7490000Y32990000D01*
X10640000Y35220000D02*
X10640000Y34490000D01*
X11600000Y7626447D02*
X11152742Y8073705D01*
X11600000Y7620000D02*
X11600000Y7626447D01*
X11743726Y7476274D02*
X12233726Y7476274D01*
X11600000Y7620000D02*
X11743726Y7476274D01*
G04 #@! TO.N,/POT_X*
X13030000Y17860000D02*
X13030000Y17380000D01*
X13030000Y17380000D02*
X12230000Y16580000D01*
X11936446Y16580000D02*
X11558629Y16957817D01*
X12230000Y16580000D02*
X11936446Y16580000D01*
G04 #@! TO.N,/POT_Y*
X14730000Y17910000D02*
X14730000Y15270000D01*
X14730000Y15270000D02*
X14110000Y14650000D01*
X13866446Y14650000D02*
X13467817Y15048629D01*
X14110000Y14650000D02*
X13866446Y14650000D01*
X13880000Y18760000D02*
X13800000Y18760000D01*
X14730000Y17910000D02*
X13880000Y18760000D01*
G04 #@! TO.N,/IO25*
X13251981Y11870000D02*
X12920509Y11538528D01*
X13700000Y11870000D02*
X13251981Y11870000D01*
G04 #@! TO.N,/I2C_SDA*
X10734999Y25202766D02*
X10436796Y24904563D01*
X10734999Y25554999D02*
X10734999Y25202766D01*
X10750000Y25570000D02*
X10734999Y25554999D01*
X10780000Y25570000D02*
X11244695Y26034695D01*
X10750000Y25570000D02*
X10780000Y25570000D01*
X12667767Y12700000D02*
X12213402Y12245635D01*
X12680000Y12700000D02*
X12667767Y12700000D01*
X12680000Y12880000D02*
X12953726Y13153726D01*
X12680000Y12700000D02*
X12680000Y12880000D01*
G04 #@! TO.N,/I2C_SCL*
X11110000Y25334314D02*
X11527538Y25751852D01*
X11110000Y25210000D02*
X11110000Y25334314D01*
X12250000Y24474998D02*
X11930001Y24154999D01*
X12250000Y24610000D02*
X12250000Y24474998D01*
X11808552Y24154999D02*
X11497456Y23843903D01*
X11930001Y24154999D02*
X11808552Y24154999D01*
X13014873Y12340000D02*
X12566955Y11892082D01*
X13030000Y12340000D02*
X13014873Y12340000D01*
X13140000Y12340000D02*
X13453726Y12653726D01*
X13030000Y12340000D02*
X13140000Y12340000D01*
G04 #@! TO.N,/A_SEL*
X8010000Y31071500D02*
X8111500Y30970000D01*
X8010000Y31320000D02*
X8010000Y31071500D01*
X14850000Y12410000D02*
X14850000Y13210000D01*
X13820000Y11380000D02*
X14850000Y12410000D01*
X13469087Y11380000D02*
X13820000Y11380000D01*
X13274062Y11184975D02*
X13469087Y11380000D01*
G04 #@! TO.N,/RXD*
X4440660Y6720000D02*
X4900311Y6260349D01*
X4440000Y6720000D02*
X4440660Y6720000D01*
X5470000Y8330660D02*
X5920152Y8780812D01*
X5470000Y8330000D02*
X5470000Y8330660D01*
G04 #@! TO.N,/TXD*
X4083553Y6370000D02*
X4546757Y5906796D01*
X4080000Y6370000D02*
X4083553Y6370000D01*
X5112233Y8680000D02*
X5566598Y9134365D01*
X5110000Y8680000D02*
X5112233Y8680000D01*
G04 #@! TO.N,/~CRESET~*
X13274062Y10195025D02*
X13274975Y10195025D01*
X11074338Y24834999D02*
X10790349Y24551010D01*
X11394999Y24834999D02*
X11074338Y24834999D01*
X11493480Y24933480D02*
X11394999Y24834999D01*
X11863480Y24933480D02*
X11493480Y24933480D01*
X11930000Y25000000D02*
X11863480Y24933480D01*
X13729087Y9740000D02*
X13274062Y10195025D01*
X13730000Y9740000D02*
X13729087Y9740000D01*
G04 #@! TO.N,/CDONE*
X12566955Y9487918D02*
X12566955Y9483045D01*
X11476447Y24530000D02*
X11143903Y24197456D01*
X11750000Y24530000D02*
X11476447Y24530000D01*
X13020000Y9034873D02*
X12566955Y9487918D01*
X13020000Y9030000D02*
X13020000Y9034873D01*
G04 #@! TO.N,/ICE_POT_X*
X10799188Y7720152D02*
X10799848Y7720152D01*
X10799848Y7720152D02*
X11230000Y7290000D01*
X11500000Y17720000D02*
X10992233Y17720000D01*
X10992233Y17720000D02*
X10436796Y18275437D01*
X11503554Y17720000D02*
X11912183Y17311371D01*
X11500000Y17720000D02*
X11503554Y17720000D01*
X12970000Y19190000D02*
X11500000Y17720000D01*
X15030000Y18140000D02*
X13980000Y19190000D01*
X15030000Y13580000D02*
X15030000Y18140000D01*
X13980000Y19190000D02*
X12970000Y19190000D01*
X15910000Y12700000D02*
X15030000Y13580000D01*
G04 #@! TO.N,/ICE_POT_Y*
X11859848Y8780812D02*
X11859848Y8780152D01*
X12310000Y8330660D02*
X11859848Y8780812D01*
X12310000Y8330000D02*
X12310000Y8330660D01*
X12879188Y14460000D02*
X11610000Y14460000D01*
X13114264Y14695076D02*
X12879188Y14460000D01*
X10637563Y17367563D02*
X10083243Y17921884D01*
X10637563Y15432437D02*
X10637563Y17367563D01*
X11610000Y14460000D02*
X10637563Y15432437D01*
G04 #@! TO.N,/ICE_A5*
X11497456Y19336097D02*
X11497456Y19332544D01*
X11980000Y18853553D02*
X11497456Y19336097D01*
X11980000Y18850000D02*
X11980000Y18853553D01*
G04 #@! TO.N,/ICE_A6*
X8880000Y15580000D02*
X10150000Y16850000D01*
X10150000Y17148019D02*
X9729689Y17568330D01*
X10150000Y16850000D02*
X10150000Y17148019D01*
G04 #@! TO.N,/ICE_A7*
X6160000Y18506447D02*
X6636097Y18982544D01*
X6160000Y18500000D02*
X6160000Y18506447D01*
G04 #@! TO.N,/ICE_A8*
X6510000Y18149339D02*
X6989651Y18628990D01*
X6510000Y18140000D02*
X6510000Y18149339D01*
G04 #@! TO.N,/ICE_~RES~*
X4290000Y17660000D02*
X4820000Y17130000D01*
X7611981Y17130000D02*
X8050311Y17568330D01*
X4820000Y17130000D02*
X7611981Y17130000D01*
G04 #@! TO.N,/ICE_D4*
X13749087Y20620000D02*
X13265223Y21103864D01*
X13760000Y20620000D02*
X13749087Y20620000D01*
G04 #@! TO.N,/ICE_D3*
X13391981Y20270000D02*
X12911670Y20750311D01*
X13400000Y20270000D02*
X13391981Y20270000D01*
G04 #@! TO.N,/ICE_D2*
X13010000Y19944873D02*
X12558116Y20396757D01*
X13010000Y19940000D02*
X13010000Y19944873D01*
G04 #@! TO.N,/ICE_D1*
X12687767Y19560000D02*
X12204563Y20043204D01*
X12690000Y19560000D02*
X12687767Y19560000D01*
G04 #@! TO.N,/ICE_D0*
X12330000Y19210661D02*
X11851010Y19689651D01*
X12330000Y19210000D02*
X12330000Y19210661D01*
G04 #@! TO.N,/ICE_A4*
X7189872Y17414999D02*
X7696757Y17921884D01*
X6135001Y17414999D02*
X7189872Y17414999D01*
X5840000Y17710000D02*
X6135001Y17414999D01*
G04 #@! TO.N,/ICE_A3*
X5100000Y19567767D02*
X5575437Y20043204D01*
X5100000Y19550000D02*
X5100000Y19567767D01*
G04 #@! TO.N,/ICE_\u00D82*
X4430000Y16530000D02*
X3430000Y17530000D01*
X8691359Y16530000D02*
X4430000Y16530000D01*
X9376136Y17214777D02*
X8691359Y16530000D01*
X3430000Y17530000D02*
X1870000Y17530000D01*
G04 #@! TO.N,/ICE_A2*
X4740000Y19914873D02*
X5221884Y20396757D01*
X4740000Y19910000D02*
X4740000Y19914873D01*
G04 #@! TO.N,/ICE_A1*
X4390000Y20271981D02*
X4868330Y20750311D01*
X4390000Y20270000D02*
X4390000Y20271981D01*
G04 #@! TO.N,/ICE_A0*
X4514777Y21103864D02*
X4513864Y21103864D01*
X4030913Y20620000D02*
X4514777Y21103864D01*
X4030000Y20620000D02*
X4030913Y20620000D01*
G04 #@! TO.N,/ICE_~CS~*
X4508019Y22790000D02*
X4130000Y22790000D01*
X4868330Y22429689D02*
X4508019Y22790000D01*
X4130000Y22790000D02*
X3930000Y22590000D01*
X3930000Y21620000D02*
X3940000Y21610000D01*
X3930000Y22590000D02*
X3930000Y21620000D01*
G04 #@! TO.N,/ICE_R_~W~*
X4550000Y16830000D02*
X3350000Y18030000D01*
X8019087Y16830000D02*
X4550000Y16830000D01*
X8403864Y17214777D02*
X8019087Y16830000D01*
X3350000Y18030000D02*
X1870000Y18030000D01*
G04 #@! TO.N,/ICE_D7*
X13620000Y23138019D02*
X12911670Y22429689D01*
X13620000Y23550000D02*
X13620000Y23138019D01*
G04 #@! TO.N,/ICE_D6*
X13120000Y23345127D02*
X12558116Y22783243D01*
X13120000Y23540000D02*
X13120000Y23345127D01*
G04 #@! TO.N,/ICE_D5*
X12660000Y23590000D02*
X12657767Y23590000D01*
X12640000Y23572233D02*
X12204563Y23136796D01*
X12640000Y23700000D02*
X12640000Y23572233D01*
G04 #@! TO.N,/SBU1*
X10290000Y32480000D02*
X10290000Y32940000D01*
X11340000Y32940000D02*
X10290000Y32940000D01*
X7140000Y35220000D02*
X7140000Y34490000D01*
G04 #@! TO.N,/D-*
X4090000Y2356447D02*
X4546757Y2813204D01*
X4090000Y2350000D02*
X4090000Y2356447D01*
X8680000Y29780000D02*
X8390000Y29490000D01*
X8680000Y30051500D02*
X8680000Y29780000D01*
G04 #@! TO.N,/D+*
X3750000Y2720000D02*
X3750000Y2723553D01*
X3730000Y2700000D02*
X3750000Y2720000D01*
X3730000Y2703553D02*
X4193204Y3166757D01*
X3730000Y2700000D02*
X3730000Y2703553D01*
X8010000Y30068500D02*
X8111500Y30170000D01*
X8010000Y29820000D02*
X8010000Y30068500D01*
G04 #@! TO.N,/SBU2*
X9890000Y32990000D02*
X9890000Y33020000D01*
X9890000Y33320000D02*
X9890000Y32990000D01*
X9985010Y33415010D02*
X9890000Y33320000D01*
X11630000Y33410000D02*
X10483924Y33410000D01*
X11840000Y33200000D02*
X11630000Y33410000D01*
X10483924Y33410000D02*
X10478914Y33415010D01*
X11840000Y32940000D02*
X11840000Y33200000D01*
X10140000Y33420020D02*
X10145010Y33415010D01*
X10145010Y33415010D02*
X9985010Y33415010D01*
X10140000Y34490000D02*
X10140000Y33420020D01*
X10478914Y33415010D02*
X10145010Y33415010D01*
G04 #@! TO.N,/A_R*
X9080000Y29260000D02*
X9010000Y29190000D01*
X9080000Y30001500D02*
X9080000Y29260000D01*
G04 #@! TO.N,/A_L*
X9648500Y29251500D02*
X9710000Y29190000D01*
X9648500Y30170000D02*
X9648500Y29251500D01*
G04 #@! TO.N,/LED_DI*
X7687918Y14366955D02*
X7687918Y14372082D01*
X7350000Y14704873D02*
X7350000Y15120000D01*
X7687918Y14366955D02*
X7350000Y14704873D01*
X7700000Y15470000D02*
X7700000Y16090000D01*
X7350000Y15120000D02*
X7700000Y15470000D01*
D19*
G04 #@! TO.N,+5V*
X4460000Y31360000D02*
X4950000Y31360000D01*
X4320000Y32160000D02*
X4510000Y31970000D01*
X3550000Y32160000D02*
X4320000Y32160000D01*
X4700000Y32160000D02*
X4510000Y31970000D01*
X5470000Y32160000D02*
X4700000Y32160000D01*
X6240000Y32160000D02*
X6430000Y31970000D01*
X5470000Y32160000D02*
X6240000Y32160000D01*
X4895000Y31305000D02*
X4960000Y31370000D01*
X4895000Y30845000D02*
X4895000Y31305000D01*
D18*
X7304980Y30745020D02*
X7205000Y30845000D01*
X7304980Y30294980D02*
X7304980Y30745020D01*
X7205000Y30195000D02*
X7304980Y30294980D01*
D19*
X7205000Y31195000D02*
X7205000Y30845000D01*
X6430000Y31970000D02*
X7205000Y31195000D01*
X4510000Y31410000D02*
X4460000Y31360000D01*
X4510000Y31970000D02*
X4510000Y31410000D01*
D17*
X13800000Y16130660D02*
X14174924Y15755736D01*
X13800000Y18240000D02*
X13800000Y16130660D01*
D18*
G04 #@! TO.N,Net-(C23-Pad1)*
X12440000Y32340000D02*
X12240000Y32540000D01*
X12970000Y32340000D02*
X12440000Y32340000D01*
G04 #@! TO.N,/LED_~EN~*
X5087233Y12725000D02*
X5566598Y12245635D01*
X4735000Y12725000D02*
X5087233Y12725000D01*
X2760000Y14700000D02*
X4735000Y12725000D01*
X2760000Y15918198D02*
X2760000Y14700000D01*
X2760000Y15918198D02*
X3073414Y16231612D01*
G04 #@! TO.N,/ICE_~IO2~*
X10790349Y18628990D02*
X10790349Y18619651D01*
X11270000Y18140000D02*
X11270000Y18149339D01*
X11270000Y18149339D02*
X10790349Y18628990D01*
G04 #@! TO.N,/ICE_~IO1~*
X11600000Y18530000D02*
X11596447Y18530000D01*
X11620000Y18506447D02*
X11143903Y18982544D01*
X11620000Y18500000D02*
X11620000Y18506447D01*
G04 #@! TO.N,Net-(C11-Pad1)*
X13700000Y33010000D02*
X14140000Y33010000D01*
X13760000Y28550000D02*
X13295305Y28085305D01*
G04 #@! TO.N,Net-(C22-Pad1)*
X11130000Y30250000D02*
X11840000Y30250000D01*
X11130000Y29321371D02*
X11820381Y28630990D01*
X11130000Y30250000D02*
X11130000Y29321371D01*
G04 #@! TO.N,Net-(D3-Pad5)*
X9140000Y34490000D02*
X8640000Y34490000D01*
X8690000Y34440000D02*
X8690000Y32990000D01*
X8640000Y34490000D02*
X8690000Y34440000D01*
X8760000Y31860000D02*
X8760000Y32660000D01*
X8680000Y31780000D02*
X8760000Y31860000D01*
X8690000Y32730000D02*
X8690000Y32990000D01*
X8760000Y32660000D02*
X8690000Y32730000D01*
X8680000Y31780000D02*
X8680000Y31138500D01*
G04 #@! TO.N,Net-(D3-Pad4)*
X8140000Y34490000D02*
X8140000Y35120000D01*
X8140000Y35120000D02*
X8290000Y35270000D01*
X9640000Y34490000D02*
X9640000Y35120000D01*
X9490000Y35270000D02*
X8290000Y35270000D01*
X9640000Y35120000D02*
X9490000Y35270000D01*
X9640000Y34490000D02*
X9640000Y33860000D01*
X9090000Y33310000D02*
X9090000Y32990000D01*
X9640000Y33860000D02*
X9090000Y33310000D01*
X9020000Y31860000D02*
X9020000Y32660000D01*
X9080000Y31800000D02*
X9020000Y31860000D01*
X9090000Y32730000D02*
X9090000Y32990000D01*
X9020000Y32660000D02*
X9090000Y32730000D01*
X9080000Y31760000D02*
X9080000Y31138500D01*
X9080000Y31800000D02*
X9080000Y31760000D01*
G04 #@! TO.N,/ESP_EN*
X14078569Y9180000D02*
X13878569Y8980000D01*
X13878569Y8980000D02*
X13790000Y8980000D01*
X14400000Y9180000D02*
X14078569Y9180000D01*
X13233726Y8476274D02*
X12871493Y8476274D01*
X12871493Y8476274D02*
X12213402Y9134365D01*
X13737452Y8980000D02*
X13233726Y8476274D01*
X13790000Y8980000D02*
X13737452Y8980000D01*
X5130000Y7440140D02*
X4751111Y7819029D01*
X5130000Y7440000D02*
X5130000Y7440140D01*
G04 #@! TO.N,Net-(D4-Pad1)*
X5780000Y14302183D02*
X4857817Y13380000D01*
X5790000Y14302183D02*
X5780000Y14302183D01*
G04 #@! TO.N,Net-(D4-Pad3)*
X6270000Y16090000D02*
X7060000Y16090000D01*
X6270000Y16090000D02*
X6037817Y15857817D01*
X5790000Y15857817D02*
X6037817Y15857817D01*
G04 #@! TO.N,/DTR*
X3500000Y5539340D02*
X3500000Y6570000D01*
X3839651Y5199689D02*
X3500000Y5539340D01*
X3730000Y8080140D02*
X3730000Y7318860D01*
X3730000Y8080140D02*
X3728860Y8080140D01*
X3729860Y8080140D02*
X3115926Y8694074D01*
X3730000Y8080140D02*
X3729860Y8080140D01*
X3731000Y7318860D02*
X3990971Y7058889D01*
X3730000Y7318860D02*
X3731000Y7318860D01*
X3502082Y6570000D02*
X3990971Y7058889D01*
X3500000Y6570000D02*
X3502082Y6570000D01*
G04 #@! TO.N,/RTS*
X4038860Y8530280D02*
X4040000Y8530280D01*
X4040000Y8530280D02*
X4040000Y7769000D01*
X4481841Y7385926D02*
X5253864Y6613903D01*
X4423074Y7385926D02*
X4481841Y7385926D01*
X4039860Y8530280D02*
X3549029Y9021111D01*
X4040000Y8530280D02*
X4039860Y8530280D01*
X4041000Y7769000D02*
X4424074Y7385926D01*
X4040000Y7769000D02*
X4041000Y7769000D01*
G04 #@! TO.N,/VBUS_DET*
X7030000Y2020000D02*
X7029340Y2020000D01*
X7020000Y2020000D02*
X7019340Y2020000D01*
X7039340Y2000000D02*
X6579689Y2459651D01*
X7040000Y2000000D02*
X7039340Y2000000D01*
G04 #@! TO.N,/I35*
X13700000Y10420000D02*
X13700000Y10390000D01*
X13396983Y9364999D02*
X12920509Y9841472D01*
X13910001Y9364999D02*
X13396983Y9364999D01*
X14105001Y9559999D02*
X13910001Y9364999D01*
X14105001Y10014999D02*
X14105001Y9559999D01*
X13700000Y10420000D02*
X14105001Y10014999D01*
G04 #@! TO.N,Net-(C10-Pad1)*
X14840000Y27579391D02*
X13860990Y26600381D01*
X14840000Y27579391D02*
X14840000Y28130000D01*
G04 #@! TO.N,Net-(C12-Pad2)*
X14410000Y28850000D02*
X14150000Y29110000D01*
X14410000Y28039167D02*
X14410000Y28850000D01*
X13877507Y27506674D02*
X14410000Y28039167D01*
X14150000Y29110000D02*
X14150000Y29510000D01*
G04 #@! TO.N,Net-(C13-Pad1)*
X14150000Y30910000D02*
X14150000Y30890000D01*
X13710000Y30910000D02*
X14150000Y30910000D01*
X13350000Y30550000D02*
X13710000Y30910000D01*
X13350000Y28676223D02*
X13350000Y30550000D01*
X13028979Y28355202D02*
X13350000Y28676223D01*
G04 #@! TO.N,Net-(C14-Pad2)*
X13800000Y30210000D02*
X14150000Y30210000D01*
X13650000Y30060000D02*
X13800000Y30210000D01*
X13650000Y29215002D02*
X13650000Y30060000D01*
X14135001Y28730001D02*
X13650000Y29215002D01*
X14135001Y28359315D02*
X14135001Y28730001D01*
X13578148Y27802462D02*
X14135001Y28359315D01*
G04 #@! TO.N,Net-(C19-Pad2)*
X13710000Y31610000D02*
X14150000Y31610000D01*
X9780000Y28620000D02*
X9710000Y28550000D01*
X10150000Y28620000D02*
X9780000Y28620000D01*
X14035686Y25860000D02*
X13578148Y26317538D01*
X14100000Y25860000D02*
X14035686Y25860000D01*
D19*
G04 #@! TO.N,Net-(R1-Pad2)*
X10461745Y5936274D02*
X9738528Y6659491D01*
X10473726Y5936274D02*
X10461745Y5936274D01*
D16*
X10473726Y5936274D02*
X10470724Y5936274D01*
X10470724Y5936274D02*
X10291999Y6114999D01*
X10291999Y6114999D02*
X10203499Y6203499D01*
D18*
G04 #@! TO.N,Net-(C15-Pad1)*
X12550000Y28820609D02*
X12739619Y28630990D01*
X12550000Y30250000D02*
X12550000Y28820609D01*
G04 #@! TO.N,Net-(C18-Pad2)*
X13710000Y32310000D02*
X14150000Y32310000D01*
X13210000Y24980000D02*
X13208629Y24980000D01*
X13208629Y24990000D02*
X12729619Y25469010D01*
X13210000Y24990000D02*
X13208629Y24990000D01*
X8670000Y28550000D02*
X8410000Y28810000D01*
X9010000Y28550000D02*
X8670000Y28550000D01*
G04 #@! TO.N,Net-(R5-Pad1)*
X7380000Y2370000D02*
X7376447Y2370000D01*
X7396447Y2350000D02*
X6933243Y2813204D01*
X7400000Y2350000D02*
X7396447Y2350000D01*
X3030000Y5480000D02*
X3040000Y5470000D01*
X3030000Y5940000D02*
X3030000Y5480000D01*
G04 #@! TO.N,/SYS_CLK*
X9738528Y14720509D02*
X9740509Y14720509D01*
X5928990Y23490349D02*
X5919651Y23490349D01*
X10770000Y28560000D02*
X11244695Y28085305D01*
X10760000Y28560000D02*
X10770000Y28560000D01*
X10190000Y15171981D02*
X9738528Y14720509D01*
X10190000Y15180000D02*
X10190000Y15171981D01*
X5450000Y23969339D02*
X5928990Y23490349D01*
X5450000Y23970000D02*
X5450000Y23969339D01*
X3350000Y7910000D02*
X3138860Y7910000D01*
X2788889Y8259971D02*
X3138860Y7910000D01*
X2788889Y8260971D02*
X2788889Y8259971D01*
G04 #@! TO.N,/SPI_RAM_~CS~*
X5490000Y13030000D02*
X5490000Y13029340D01*
X5470000Y13049340D02*
X5920152Y12599188D01*
X5470000Y13050000D02*
X5470000Y13049340D01*
X5080000Y23752548D02*
X4806274Y24026274D01*
X5080000Y23630000D02*
X5080000Y23752548D01*
X5082233Y23630000D02*
X5575437Y23136796D01*
X5080000Y23630000D02*
X5082233Y23630000D01*
G04 #@! TO.N,/I2S_WCLK*
X8403864Y25965223D02*
X8403864Y25966136D01*
X8403864Y25965223D02*
X8403864Y25968862D01*
X8860000Y27081074D02*
X8860000Y26421359D01*
X8860000Y26421359D02*
X8403864Y25965223D01*
X4408019Y9390000D02*
X4859491Y9841472D01*
X4400000Y9390000D02*
X4408019Y9390000D01*
X9948926Y28170000D02*
X8860000Y27081074D01*
X10370000Y28170000D02*
X9948926Y28170000D01*
X10594314Y28170000D02*
X10370000Y28170000D01*
X10961852Y27802462D02*
X10594314Y28170000D01*
G04 #@! TO.N,/I2S_BCLK*
X9376136Y25965223D02*
X9415223Y25965223D01*
X9190000Y26900000D02*
X9190000Y26151359D01*
X9652132Y27150000D02*
X9440000Y27150000D01*
X9927483Y26874649D02*
X9652132Y27150000D01*
X10139615Y26874649D02*
X9927483Y26874649D01*
X9190000Y26151359D02*
X9376136Y25965223D01*
X10139615Y27086782D02*
X10139615Y26874649D01*
X9864263Y27362134D02*
X10139615Y27086782D01*
X9864264Y27574265D02*
X9864263Y27362134D01*
X9440000Y27150000D02*
X9190000Y26900000D01*
X5213045Y11892082D02*
X5213045Y11896955D01*
X10428629Y27760000D02*
X10689010Y27499619D01*
X10080000Y27760000D02*
X10428629Y27760000D01*
X10049999Y27760000D02*
X9864264Y27574265D01*
X10080000Y27760000D02*
X10049999Y27760000D01*
X4760000Y12345127D02*
X5213045Y11892082D01*
X4760000Y12350000D02*
X4760000Y12345127D01*
G04 #@! TO.N,/I2S_DOUT*
X4755127Y9030000D02*
X5213045Y9487918D01*
X4750000Y9030000D02*
X4755127Y9030000D01*
X10024999Y25906980D02*
X9729689Y25611670D01*
X10024999Y26264999D02*
X10024999Y25906980D01*
X10040000Y26280000D02*
X10024999Y26264999D01*
X10040000Y26280000D02*
X10065001Y26305001D01*
X10383630Y26305001D02*
X10679010Y26600381D01*
X10065001Y26305001D02*
X10383630Y26305001D01*
G04 #@! TO.N,/I2S_DIN*
X5820000Y7973553D02*
X6273705Y8427258D01*
X5820000Y7970000D02*
X5820000Y7973553D01*
X10374999Y25549872D02*
X10083243Y25258116D01*
X10374999Y25904999D02*
X10374999Y25549872D01*
X10400000Y25930000D02*
X10374999Y25904999D01*
X10574314Y25930000D02*
X10961852Y26317538D01*
X10400000Y25930000D02*
X10574314Y25930000D01*
G04 #@! TO.N,/SPI_SIO3*
X6282544Y23843903D02*
X6282544Y23847456D01*
X9384975Y15074062D02*
X9384975Y15074975D01*
X9830000Y15519087D02*
X9384975Y15074062D01*
X9830000Y15530000D02*
X9830000Y15519087D01*
X5800000Y24326447D02*
X6282544Y23843903D01*
X5800000Y24330000D02*
X5800000Y24326447D01*
G04 #@! TO.N,/SPI_SIO2*
X10092082Y14366955D02*
X10092082Y14372082D01*
X6420000Y24413553D02*
X6636097Y24197456D01*
X10540000Y14814873D02*
X10092082Y14366955D01*
X10540000Y14820000D02*
X10540000Y14814873D01*
X6160000Y24673553D02*
X6636097Y24197456D01*
X6160000Y24680000D02*
X6160000Y24673553D01*
G04 #@! TO.N,/SPI_ICE_~CS~*
X10445635Y14013402D02*
X10445635Y14015635D01*
X7343204Y24904563D02*
X7335437Y24904563D01*
X10900000Y14467767D02*
X10445635Y14013402D01*
X10900000Y14470000D02*
X10900000Y14467767D01*
X6870000Y25377767D02*
X7343204Y24904563D01*
X6870000Y25400000D02*
X6870000Y25377767D01*
G04 #@! TO.N,/SPI_SIO0*
X10799188Y13659848D02*
X10799848Y13659848D01*
X8050311Y25611670D02*
X8048330Y25611670D01*
X11249340Y14110000D02*
X10799188Y13659848D01*
X11250000Y14110000D02*
X11249340Y14110000D01*
X7571981Y26090000D02*
X8050311Y25611670D01*
X7570000Y26090000D02*
X7571981Y26090000D01*
G04 #@! TO.N,/SPI_SIO1*
X11963553Y13410000D02*
X11506295Y12952742D01*
X11970000Y13410000D02*
X11963553Y13410000D01*
X6520000Y25020661D02*
X6989651Y24551010D01*
X6520000Y25040000D02*
X6520000Y25020661D01*
G04 #@! TO.N,/SPI_SCLK*
X11859848Y12599188D02*
X11859848Y12599848D01*
X12310660Y13050000D02*
X11859848Y12599188D01*
X12320000Y13050000D02*
X12310660Y13050000D01*
X7386274Y26546274D02*
X7690000Y26850000D01*
X7306274Y26546274D02*
X7386274Y26546274D01*
X7306274Y26556274D02*
X6816274Y27046274D01*
X7306274Y26546274D02*
X7306274Y26556274D01*
G04 #@! TO.N,/LED_DO*
X3302183Y11352183D02*
X3040000Y11090000D01*
X3302183Y13380000D02*
X3302183Y11352183D01*
D19*
G04 #@! TO.N,VCC*
X3550000Y33460000D02*
X3550000Y32960000D01*
X3550000Y33460000D02*
X4050000Y33460000D01*
D18*
G04 #@! TO.N,Net-(R13-Pad1)*
X6870000Y26084873D02*
X7696757Y25258116D01*
X6870000Y26090000D02*
X6870000Y26084873D01*
G04 #@! TO.N,Net-(C27-Pad1)*
X4353726Y19236274D02*
X4843726Y18746274D01*
X4296274Y19236274D02*
X4353726Y19236274D01*
X3806274Y19726274D02*
X4296274Y19236274D01*
X3806274Y19736274D02*
X3806274Y19726274D01*
X4030000Y19960000D02*
X3806274Y19736274D01*
X4150000Y19960000D02*
X4030000Y19960000D01*
X4935001Y19174999D02*
X4150000Y19960000D01*
X5414338Y19174999D02*
X4935001Y19174999D01*
X5928990Y19689651D02*
X5414338Y19174999D01*
D17*
G04 #@! TO.N,Net-(C29-Pad1)*
X5002183Y15080000D02*
X4080000Y14157817D01*
X5012183Y15080000D02*
X5002183Y15080000D01*
X5012183Y15250365D02*
X4316274Y15946274D01*
X5012183Y15080000D02*
X5012183Y15250365D01*
X4316274Y15978700D02*
X3727487Y16567487D01*
X4316274Y15946274D02*
X4316274Y15978700D01*
G04 #@! TD*
D20*
G04 #@! TO.N,GND*
X14102433Y7588118D02*
X14079300Y7564985D01*
X14035525Y7499471D01*
X14005372Y7426676D01*
X13990000Y7349397D01*
X13990000Y7270603D01*
X14005372Y7193324D01*
X14035525Y7120529D01*
X14079300Y7055015D01*
X14135015Y6999300D01*
X14200529Y6955525D01*
X14273324Y6925372D01*
X14350603Y6910000D01*
X14429397Y6910000D01*
X14506676Y6925372D01*
X14579471Y6955525D01*
X14644985Y6999300D01*
X14700700Y7055015D01*
X14744475Y7120529D01*
X14774628Y7193324D01*
X14790000Y7270603D01*
X14790000Y7349397D01*
X14774628Y7426676D01*
X14744475Y7499471D01*
X14700700Y7564985D01*
X14678839Y7586846D01*
X17330000Y7580993D01*
X17330000Y6922736D01*
X17286751Y6987463D01*
X17147463Y7126751D01*
X16983678Y7236189D01*
X16801689Y7311571D01*
X16608491Y7350000D01*
X16411509Y7350000D01*
X16218311Y7311571D01*
X16036322Y7236189D01*
X15872537Y7126751D01*
X15733249Y6987463D01*
X15623811Y6823678D01*
X15548429Y6641689D01*
X15510000Y6448491D01*
X15510000Y6251509D01*
X15548429Y6058311D01*
X15623811Y5876322D01*
X15733249Y5712537D01*
X15872537Y5573249D01*
X16036322Y5463811D01*
X16218311Y5388429D01*
X16411509Y5350000D01*
X16608491Y5350000D01*
X16801689Y5388429D01*
X16983678Y5463811D01*
X17147463Y5573249D01*
X17286751Y5712537D01*
X17330000Y5777264D01*
X17330000Y4382736D01*
X17286751Y4447463D01*
X17147463Y4586751D01*
X16983678Y4696189D01*
X16801689Y4771571D01*
X16608491Y4810000D01*
X16411509Y4810000D01*
X16218311Y4771571D01*
X16036322Y4696189D01*
X15872537Y4586751D01*
X15733249Y4447463D01*
X15623811Y4283678D01*
X15548429Y4101689D01*
X15510000Y3908491D01*
X15510000Y3711509D01*
X15548429Y3518311D01*
X15623811Y3336322D01*
X15733249Y3172537D01*
X15872537Y3033249D01*
X16036322Y2923811D01*
X16218311Y2848429D01*
X16411509Y2810000D01*
X16608491Y2810000D01*
X16801689Y2848429D01*
X16983678Y2923811D01*
X17147463Y3033249D01*
X17286751Y3172537D01*
X17330000Y3237264D01*
X17330000Y1842736D01*
X17286751Y1907463D01*
X17147463Y2046751D01*
X16983678Y2156189D01*
X16801689Y2231571D01*
X16608491Y2270000D01*
X16411509Y2270000D01*
X16218311Y2231571D01*
X16036322Y2156189D01*
X15872537Y2046751D01*
X15733249Y1907463D01*
X15623811Y1743678D01*
X15548429Y1561689D01*
X15510000Y1368491D01*
X15510000Y1171509D01*
X15548429Y978311D01*
X15623811Y796322D01*
X15733249Y632537D01*
X15872537Y493249D01*
X15937263Y450000D01*
X14380000Y450000D01*
X14380000Y4310000D01*
X14379039Y4319755D01*
X14376194Y4329134D01*
X14346905Y4399845D01*
X14342285Y4408489D01*
X14336067Y4416066D01*
X14328490Y4422284D01*
X14319845Y4426905D01*
X14249134Y4456194D01*
X14239754Y4459039D01*
X14230000Y4460000D01*
X12199945Y4460000D01*
X12157557Y4477557D01*
X12140000Y4519945D01*
X12140000Y5698097D01*
X12206092Y5631290D01*
X12236546Y5606297D01*
X12271291Y5587726D01*
X12308991Y5576289D01*
X12348198Y5572428D01*
X12387405Y5576289D01*
X12425105Y5587726D01*
X12459849Y5606297D01*
X12490304Y5631290D01*
X12638112Y5780467D01*
X12638112Y5851178D01*
X12369411Y6119878D01*
X12355269Y6105736D01*
X12284558Y6176447D01*
X12298700Y6190589D01*
X12284558Y6204731D01*
X12355269Y6275442D01*
X12369411Y6261300D01*
X12383553Y6275442D01*
X12454264Y6204731D01*
X12440122Y6190589D01*
X12708822Y5921888D01*
X12779533Y5921888D01*
X12928710Y6069696D01*
X12953703Y6100151D01*
X12972274Y6134895D01*
X12983711Y6172595D01*
X12987572Y6211802D01*
X12983711Y6251009D01*
X12972274Y6288709D01*
X12953703Y6323454D01*
X12928710Y6353908D01*
X12800746Y6480503D01*
X12730038Y6480503D01*
X12765392Y6515857D01*
X12755895Y6525354D01*
X12784394Y6534000D01*
X12819139Y6552572D01*
X12849593Y6577564D01*
X12919619Y6648959D01*
X12919619Y6719670D01*
X12686274Y6953015D01*
X12672132Y6938873D01*
X12648201Y6962804D01*
X12746833Y7062162D01*
X12771127Y7037868D01*
X12756985Y7023726D01*
X12990330Y6790381D01*
X13061041Y6790381D01*
X13132436Y6860407D01*
X13157428Y6890861D01*
X13176000Y6925606D01*
X13187437Y6963306D01*
X13191298Y7002513D01*
X13189530Y7020470D01*
X13207487Y7018702D01*
X13246694Y7022563D01*
X13284394Y7034000D01*
X13319139Y7052572D01*
X13349593Y7077564D01*
X13419619Y7148959D01*
X13419619Y7219670D01*
X13186274Y7453015D01*
X13172132Y7438873D01*
X13146370Y7464635D01*
X13245002Y7563993D01*
X13271127Y7537868D01*
X13256985Y7523726D01*
X13490330Y7290381D01*
X13561041Y7290381D01*
X13632436Y7360407D01*
X13657428Y7390861D01*
X13676000Y7425606D01*
X13687437Y7463306D01*
X13691298Y7502513D01*
X13689530Y7520470D01*
X13707487Y7518702D01*
X13746694Y7522563D01*
X13784394Y7534000D01*
X13819139Y7552572D01*
X13849593Y7577564D01*
X13860469Y7588652D01*
X14102433Y7588118D01*
G04 #@! TA.AperFunction,Conductor*
D21*
G36*
X14102433Y7588118D02*
G01*
X14079300Y7564985D01*
X14035525Y7499471D01*
X14005372Y7426676D01*
X13990000Y7349397D01*
X13990000Y7270603D01*
X14005372Y7193324D01*
X14035525Y7120529D01*
X14079300Y7055015D01*
X14135015Y6999300D01*
X14200529Y6955525D01*
X14273324Y6925372D01*
X14350603Y6910000D01*
X14429397Y6910000D01*
X14506676Y6925372D01*
X14579471Y6955525D01*
X14644985Y6999300D01*
X14700700Y7055015D01*
X14744475Y7120529D01*
X14774628Y7193324D01*
X14790000Y7270603D01*
X14790000Y7349397D01*
X14774628Y7426676D01*
X14744475Y7499471D01*
X14700700Y7564985D01*
X14678839Y7586846D01*
X17330000Y7580993D01*
X17330000Y6922736D01*
X17286751Y6987463D01*
X17147463Y7126751D01*
X16983678Y7236189D01*
X16801689Y7311571D01*
X16608491Y7350000D01*
X16411509Y7350000D01*
X16218311Y7311571D01*
X16036322Y7236189D01*
X15872537Y7126751D01*
X15733249Y6987463D01*
X15623811Y6823678D01*
X15548429Y6641689D01*
X15510000Y6448491D01*
X15510000Y6251509D01*
X15548429Y6058311D01*
X15623811Y5876322D01*
X15733249Y5712537D01*
X15872537Y5573249D01*
X16036322Y5463811D01*
X16218311Y5388429D01*
X16411509Y5350000D01*
X16608491Y5350000D01*
X16801689Y5388429D01*
X16983678Y5463811D01*
X17147463Y5573249D01*
X17286751Y5712537D01*
X17330000Y5777264D01*
X17330000Y4382736D01*
X17286751Y4447463D01*
X17147463Y4586751D01*
X16983678Y4696189D01*
X16801689Y4771571D01*
X16608491Y4810000D01*
X16411509Y4810000D01*
X16218311Y4771571D01*
X16036322Y4696189D01*
X15872537Y4586751D01*
X15733249Y4447463D01*
X15623811Y4283678D01*
X15548429Y4101689D01*
X15510000Y3908491D01*
X15510000Y3711509D01*
X15548429Y3518311D01*
X15623811Y3336322D01*
X15733249Y3172537D01*
X15872537Y3033249D01*
X16036322Y2923811D01*
X16218311Y2848429D01*
X16411509Y2810000D01*
X16608491Y2810000D01*
X16801689Y2848429D01*
X16983678Y2923811D01*
X17147463Y3033249D01*
X17286751Y3172537D01*
X17330000Y3237264D01*
X17330000Y1842736D01*
X17286751Y1907463D01*
X17147463Y2046751D01*
X16983678Y2156189D01*
X16801689Y2231571D01*
X16608491Y2270000D01*
X16411509Y2270000D01*
X16218311Y2231571D01*
X16036322Y2156189D01*
X15872537Y2046751D01*
X15733249Y1907463D01*
X15623811Y1743678D01*
X15548429Y1561689D01*
X15510000Y1368491D01*
X15510000Y1171509D01*
X15548429Y978311D01*
X15623811Y796322D01*
X15733249Y632537D01*
X15872537Y493249D01*
X15937263Y450000D01*
X14380000Y450000D01*
X14380000Y4310000D01*
X14379039Y4319755D01*
X14376194Y4329134D01*
X14346905Y4399845D01*
X14342285Y4408489D01*
X14336067Y4416066D01*
X14328490Y4422284D01*
X14319845Y4426905D01*
X14249134Y4456194D01*
X14239754Y4459039D01*
X14230000Y4460000D01*
X12199945Y4460000D01*
X12157557Y4477557D01*
X12140000Y4519945D01*
X12140000Y5698097D01*
X12206092Y5631290D01*
X12236546Y5606297D01*
X12271291Y5587726D01*
X12308991Y5576289D01*
X12348198Y5572428D01*
X12387405Y5576289D01*
X12425105Y5587726D01*
X12459849Y5606297D01*
X12490304Y5631290D01*
X12638112Y5780467D01*
X12638112Y5851178D01*
X12369411Y6119878D01*
X12355269Y6105736D01*
X12284558Y6176447D01*
X12298700Y6190589D01*
X12284558Y6204731D01*
X12355269Y6275442D01*
X12369411Y6261300D01*
X12383553Y6275442D01*
X12454264Y6204731D01*
X12440122Y6190589D01*
X12708822Y5921888D01*
X12779533Y5921888D01*
X12928710Y6069696D01*
X12953703Y6100151D01*
X12972274Y6134895D01*
X12983711Y6172595D01*
X12987572Y6211802D01*
X12983711Y6251009D01*
X12972274Y6288709D01*
X12953703Y6323454D01*
X12928710Y6353908D01*
X12800746Y6480503D01*
X12730038Y6480503D01*
X12765392Y6515857D01*
X12755895Y6525354D01*
X12784394Y6534000D01*
X12819139Y6552572D01*
X12849593Y6577564D01*
X12919619Y6648959D01*
X12919619Y6719670D01*
X12686274Y6953015D01*
X12672132Y6938873D01*
X12648201Y6962804D01*
X12746833Y7062162D01*
X12771127Y7037868D01*
X12756985Y7023726D01*
X12990330Y6790381D01*
X13061041Y6790381D01*
X13132436Y6860407D01*
X13157428Y6890861D01*
X13176000Y6925606D01*
X13187437Y6963306D01*
X13191298Y7002513D01*
X13189530Y7020470D01*
X13207487Y7018702D01*
X13246694Y7022563D01*
X13284394Y7034000D01*
X13319139Y7052572D01*
X13349593Y7077564D01*
X13419619Y7148959D01*
X13419619Y7219670D01*
X13186274Y7453015D01*
X13172132Y7438873D01*
X13146370Y7464635D01*
X13245002Y7563993D01*
X13271127Y7537868D01*
X13256985Y7523726D01*
X13490330Y7290381D01*
X13561041Y7290381D01*
X13632436Y7360407D01*
X13657428Y7390861D01*
X13676000Y7425606D01*
X13687437Y7463306D01*
X13691298Y7502513D01*
X13689530Y7520470D01*
X13707487Y7518702D01*
X13746694Y7522563D01*
X13784394Y7534000D01*
X13819139Y7552572D01*
X13849593Y7577564D01*
X13860469Y7588652D01*
X14102433Y7588118D01*
G37*
G04 #@! TD.AperFunction*
G04 #@! TD*
D17*
G04 #@! TO.N,GND*
X2866906Y31596839D02*
X2829215Y31505845D01*
X2810000Y31409246D01*
X2810000Y31310754D01*
X2829215Y31214155D01*
X2845001Y31176045D01*
X2845001Y31163751D01*
X2836206Y31153034D01*
X2799108Y31083629D01*
X2776263Y31008319D01*
X2768549Y30930000D01*
X2768549Y30670000D01*
X2776263Y30591681D01*
X2799108Y30516371D01*
X2836206Y30446966D01*
X2886131Y30386131D01*
X2946966Y30336206D01*
X3016371Y30299108D01*
X3091681Y30276263D01*
X3170000Y30268549D01*
X3370000Y30268549D01*
X3448319Y30276263D01*
X3523629Y30299108D01*
X3593034Y30336206D01*
X3653869Y30386131D01*
X3681664Y30420000D01*
X3805257Y30420000D01*
X3820000Y30418548D01*
X4020000Y30418548D01*
X4078810Y30424340D01*
X4135361Y30441495D01*
X4187478Y30469352D01*
X4233159Y30506841D01*
X4383159Y30656841D01*
X4420000Y30701732D01*
X4456841Y30656841D01*
X4593682Y30520000D01*
X4456841Y30383159D01*
X4419352Y30337478D01*
X4391495Y30285361D01*
X4374340Y30228810D01*
X4368548Y30170000D01*
X4368548Y30070000D01*
X4374340Y30011190D01*
X4391495Y29954639D01*
X4419352Y29902522D01*
X4456841Y29856841D01*
X4502522Y29819352D01*
X4554639Y29791495D01*
X4611190Y29774340D01*
X4670000Y29768548D01*
X5020000Y29768548D01*
X5078810Y29774340D01*
X5135361Y29791495D01*
X5187478Y29819352D01*
X5233159Y29856841D01*
X5270648Y29902522D01*
X5298505Y29954639D01*
X5315660Y30011190D01*
X5321452Y30070000D01*
X5321452Y30091123D01*
X5498879Y30268549D01*
X5670000Y30268549D01*
X5748319Y30276263D01*
X5823629Y30299108D01*
X5893034Y30336206D01*
X5953869Y30386131D01*
X5981664Y30420000D01*
X6115257Y30420000D01*
X6130000Y30418548D01*
X6330000Y30418548D01*
X6388810Y30424340D01*
X6445361Y30441495D01*
X6497478Y30469352D01*
X6543159Y30506841D01*
X6693159Y30656841D01*
X6730000Y30701732D01*
X6766841Y30656841D01*
X6903682Y30520000D01*
X6766841Y30383159D01*
X6729352Y30337478D01*
X6701495Y30285361D01*
X6684340Y30228810D01*
X6678548Y30170000D01*
X6678548Y30070000D01*
X6684340Y30011190D01*
X6701495Y29954639D01*
X6729352Y29902522D01*
X6766841Y29856841D01*
X6812522Y29819352D01*
X6864639Y29791495D01*
X6921190Y29774340D01*
X6980000Y29768548D01*
X7229990Y29768548D01*
X7229991Y28600321D01*
X5657866Y27028195D01*
X5643552Y27016448D01*
X5596691Y26959346D01*
X5561869Y26894199D01*
X5540426Y26823512D01*
X5535795Y26776487D01*
X5535156Y26770000D01*
X2370000Y26770000D01*
X2370000Y26778341D01*
X2327727Y26990858D01*
X2244807Y27191045D01*
X2124425Y27371209D01*
X1971209Y27524425D01*
X1791045Y27644807D01*
X1590858Y27727727D01*
X1378341Y27770000D01*
X1161659Y27770000D01*
X949142Y27727727D01*
X748955Y27644807D01*
X568791Y27524425D01*
X550000Y27505634D01*
X550000Y28374366D01*
X568791Y28355575D01*
X748955Y28235193D01*
X949142Y28152273D01*
X1161659Y28110000D01*
X1378341Y28110000D01*
X1590858Y28152273D01*
X1791045Y28235193D01*
X1971209Y28355575D01*
X2124425Y28508791D01*
X2244807Y28688955D01*
X2327727Y28889142D01*
X2370000Y29101659D01*
X2370000Y29318341D01*
X2327727Y29530858D01*
X2244807Y29731045D01*
X2124425Y29911209D01*
X1971209Y30064425D01*
X1791045Y30184807D01*
X1590858Y30267727D01*
X1378341Y30310000D01*
X1161659Y30310000D01*
X949142Y30267727D01*
X748955Y30184807D01*
X568791Y30064425D01*
X550000Y30045634D01*
X550000Y30914366D01*
X568791Y30895575D01*
X748955Y30775193D01*
X949142Y30692273D01*
X1161659Y30650000D01*
X1378341Y30650000D01*
X1590858Y30692273D01*
X1791045Y30775193D01*
X1971209Y30895575D01*
X2124425Y31048791D01*
X2244807Y31228955D01*
X2327727Y31429142D01*
X2370000Y31641659D01*
X2370000Y31650000D01*
X2902427Y31650000D01*
X2866906Y31596839D01*
G04 #@! TA.AperFunction,Conductor*
D21*
G36*
X2866906Y31596839D02*
G01*
X2829215Y31505845D01*
X2810000Y31409246D01*
X2810000Y31310754D01*
X2829215Y31214155D01*
X2845001Y31176045D01*
X2845001Y31163751D01*
X2836206Y31153034D01*
X2799108Y31083629D01*
X2776263Y31008319D01*
X2768549Y30930000D01*
X2768549Y30670000D01*
X2776263Y30591681D01*
X2799108Y30516371D01*
X2836206Y30446966D01*
X2886131Y30386131D01*
X2946966Y30336206D01*
X3016371Y30299108D01*
X3091681Y30276263D01*
X3170000Y30268549D01*
X3370000Y30268549D01*
X3448319Y30276263D01*
X3523629Y30299108D01*
X3593034Y30336206D01*
X3653869Y30386131D01*
X3681664Y30420000D01*
X3805257Y30420000D01*
X3820000Y30418548D01*
X4020000Y30418548D01*
X4078810Y30424340D01*
X4135361Y30441495D01*
X4187478Y30469352D01*
X4233159Y30506841D01*
X4383159Y30656841D01*
X4420000Y30701732D01*
X4456841Y30656841D01*
X4593682Y30520000D01*
X4456841Y30383159D01*
X4419352Y30337478D01*
X4391495Y30285361D01*
X4374340Y30228810D01*
X4368548Y30170000D01*
X4368548Y30070000D01*
X4374340Y30011190D01*
X4391495Y29954639D01*
X4419352Y29902522D01*
X4456841Y29856841D01*
X4502522Y29819352D01*
X4554639Y29791495D01*
X4611190Y29774340D01*
X4670000Y29768548D01*
X5020000Y29768548D01*
X5078810Y29774340D01*
X5135361Y29791495D01*
X5187478Y29819352D01*
X5233159Y29856841D01*
X5270648Y29902522D01*
X5298505Y29954639D01*
X5315660Y30011190D01*
X5321452Y30070000D01*
X5321452Y30091123D01*
X5498879Y30268549D01*
X5670000Y30268549D01*
X5748319Y30276263D01*
X5823629Y30299108D01*
X5893034Y30336206D01*
X5953869Y30386131D01*
X5981664Y30420000D01*
X6115257Y30420000D01*
X6130000Y30418548D01*
X6330000Y30418548D01*
X6388810Y30424340D01*
X6445361Y30441495D01*
X6497478Y30469352D01*
X6543159Y30506841D01*
X6693159Y30656841D01*
X6730000Y30701732D01*
X6766841Y30656841D01*
X6903682Y30520000D01*
X6766841Y30383159D01*
X6729352Y30337478D01*
X6701495Y30285361D01*
X6684340Y30228810D01*
X6678548Y30170000D01*
X6678548Y30070000D01*
X6684340Y30011190D01*
X6701495Y29954639D01*
X6729352Y29902522D01*
X6766841Y29856841D01*
X6812522Y29819352D01*
X6864639Y29791495D01*
X6921190Y29774340D01*
X6980000Y29768548D01*
X7229990Y29768548D01*
X7229991Y28600321D01*
X5657866Y27028195D01*
X5643552Y27016448D01*
X5596691Y26959346D01*
X5561869Y26894199D01*
X5540426Y26823512D01*
X5535795Y26776487D01*
X5535156Y26770000D01*
X2370000Y26770000D01*
X2370000Y26778341D01*
X2327727Y26990858D01*
X2244807Y27191045D01*
X2124425Y27371209D01*
X1971209Y27524425D01*
X1791045Y27644807D01*
X1590858Y27727727D01*
X1378341Y27770000D01*
X1161659Y27770000D01*
X949142Y27727727D01*
X748955Y27644807D01*
X568791Y27524425D01*
X550000Y27505634D01*
X550000Y28374366D01*
X568791Y28355575D01*
X748955Y28235193D01*
X949142Y28152273D01*
X1161659Y28110000D01*
X1378341Y28110000D01*
X1590858Y28152273D01*
X1791045Y28235193D01*
X1971209Y28355575D01*
X2124425Y28508791D01*
X2244807Y28688955D01*
X2327727Y28889142D01*
X2370000Y29101659D01*
X2370000Y29318341D01*
X2327727Y29530858D01*
X2244807Y29731045D01*
X2124425Y29911209D01*
X1971209Y30064425D01*
X1791045Y30184807D01*
X1590858Y30267727D01*
X1378341Y30310000D01*
X1161659Y30310000D01*
X949142Y30267727D01*
X748955Y30184807D01*
X568791Y30064425D01*
X550000Y30045634D01*
X550000Y30914366D01*
X568791Y30895575D01*
X748955Y30775193D01*
X949142Y30692273D01*
X1161659Y30650000D01*
X1378341Y30650000D01*
X1590858Y30692273D01*
X1791045Y30775193D01*
X1971209Y30895575D01*
X2124425Y31048791D01*
X2244807Y31228955D01*
X2327727Y31429142D01*
X2370000Y31641659D01*
X2370000Y31650000D01*
X2902427Y31650000D01*
X2866906Y31596839D01*
G37*
G04 #@! TD.AperFunction*
G04 #@! TD*
M02*
